G04 #@! TF.FileFunction,Paste,Top*
%FSLAX46Y46*%
G04 Gerber Fmt 4.6, Leading zero omitted, Abs format (unit mm)*
G04 Created by KiCad (PCBNEW 4.0.2-stable) date Friday, November 24, 2017 'AMt' 11:01:48 AM*
%MOMM*%
G01*
G04 APERTURE LIST*
%ADD10C,0.100000*%
%ADD11R,1.300000X0.700000*%
%ADD12R,0.700000X1.300000*%
%ADD13R,1.350000X0.400000*%
%ADD14R,0.900000X1.000000*%
%ADD15R,1.500000X1.000000*%
%ADD16R,1.000000X1.250000*%
%ADD17R,1.600000X1.400000*%
%ADD18R,1.900000X0.400000*%
G04 APERTURE END LIST*
D10*
D11*
X119340000Y-95870000D03*
X119340000Y-93970000D03*
X115340000Y-108060000D03*
X115340000Y-106160000D03*
D12*
X125940000Y-107880000D03*
X127840000Y-107880000D03*
D13*
X121200000Y-104860000D03*
X121200000Y-104210000D03*
X121200000Y-103560000D03*
X121200000Y-102910000D03*
X121200000Y-102260000D03*
X121200000Y-101610000D03*
X121200000Y-100960000D03*
X121200000Y-100310000D03*
X121200000Y-99660000D03*
X121200000Y-99010000D03*
X126950000Y-99010000D03*
X126950000Y-99660000D03*
X126950000Y-100310000D03*
X126950000Y-100960000D03*
X126950000Y-101610000D03*
X126950000Y-102260000D03*
X126950000Y-102910000D03*
X126950000Y-103560000D03*
X126950000Y-104210000D03*
X126950000Y-104860000D03*
D14*
X115420000Y-91390000D03*
D15*
X117170000Y-91790000D03*
X113670000Y-91790000D03*
D16*
X129860000Y-100750000D03*
X131860000Y-100750000D03*
D17*
X123400000Y-92000000D03*
X129000000Y-92000000D03*
X129000000Y-95000000D03*
X123400000Y-95000000D03*
D18*
X130310000Y-102910000D03*
X130310000Y-104110000D03*
X130310000Y-105310000D03*
D16*
X117310000Y-101290000D03*
X115310000Y-101290000D03*
X117310000Y-99040000D03*
X115310000Y-99040000D03*
M02*
