G04 #@! TF.FileFunction,Copper,L2,Bot,Signal*
%FSLAX46Y46*%
G04 Gerber Fmt 4.6, Leading zero omitted, Abs format (unit mm)*
G04 Created by KiCad (PCBNEW 4.0.2-stable) date Saturday, November 25, 2017 'AMt' 08:54:30 AM*
%MOMM*%
G01*
G04 APERTURE LIST*
%ADD10C,0.100000*%
%ADD11R,3.250000X2.150000*%
%ADD12R,0.950000X2.150000*%
%ADD13C,1.524000*%
%ADD14R,0.520000X0.300000*%
%ADD15R,1.000000X1.250000*%
%ADD16C,0.500000*%
%ADD17C,0.150000*%
G04 APERTURE END LIST*
D10*
D11*
X41500000Y-22500000D03*
D12*
X43800000Y-28300000D03*
X39200000Y-28300000D03*
X41500000Y-28300000D03*
D13*
X46500000Y-24350000D03*
X46500000Y-26890000D03*
X46500000Y-29430000D03*
X46500000Y-31970000D03*
X46500000Y-34510000D03*
X46500000Y-37050000D03*
X46500000Y-39590000D03*
X21500000Y-39660000D03*
X21500000Y-37120000D03*
X21500000Y-34580000D03*
X21500000Y-32040000D03*
X21500000Y-29500000D03*
X21500000Y-26960000D03*
X21500000Y-24420000D03*
D14*
X32710000Y-36500000D03*
X32710000Y-37000000D03*
X32710000Y-37500000D03*
X33450000Y-37500000D03*
X33450000Y-37000000D03*
X33450000Y-36500000D03*
D15*
X35300000Y-28300000D03*
X37300000Y-28300000D03*
X41800000Y-31350000D03*
X43800000Y-31350000D03*
D16*
X34350000Y-32850000D03*
X27400000Y-31000000D03*
X29450000Y-34450000D03*
X34000000Y-31000000D03*
X31400000Y-36250000D03*
X29500000Y-37650000D03*
X41350000Y-25000000D03*
X36900000Y-25000000D03*
X36950000Y-35950000D03*
X41700000Y-34750000D03*
X39241316Y-29922490D03*
X41300000Y-29950000D03*
X38700232Y-30282688D03*
X42900000Y-29800000D03*
X39200000Y-30874990D03*
X43250000Y-34000000D03*
X37967713Y-35289480D03*
X35450000Y-32300000D03*
X29600000Y-31150000D03*
X27300000Y-27750000D03*
X29550000Y-29150000D03*
X27950000Y-26800000D03*
X36600000Y-38075000D03*
X36600000Y-37425000D03*
D17*
X37300000Y-28300000D02*
X37300000Y-28425000D01*
X37300000Y-28425000D02*
X34350000Y-31375000D01*
X34350000Y-31375000D02*
X34350000Y-32496447D01*
X34350000Y-32496447D02*
X34350000Y-32850000D01*
X39200000Y-28300000D02*
X37300000Y-28300000D01*
X34350000Y-32850000D02*
X31050000Y-32850000D01*
X31050000Y-32850000D02*
X29450000Y-34450000D01*
X29450000Y-33050000D02*
X27400000Y-31000000D01*
X29450000Y-34450000D02*
X29450000Y-33050000D01*
X34000000Y-28950000D02*
X34000000Y-31000000D01*
X35300000Y-28300000D02*
X34650000Y-28300000D01*
X34650000Y-28300000D02*
X34000000Y-28950000D01*
X43800000Y-31350000D02*
X43800000Y-28300000D01*
X31649999Y-36000001D02*
X33685002Y-36000001D01*
X36205363Y-33479641D02*
X37492712Y-34766991D01*
X38195714Y-35764481D02*
X38442714Y-35517481D01*
X31400000Y-36250000D02*
X31649999Y-36000001D01*
X33685002Y-36000001D02*
X31400000Y-36250000D01*
X33685002Y-36000001D02*
X36205363Y-33479641D01*
X38335003Y-31350000D02*
X39225722Y-31350000D01*
X37492712Y-34766991D02*
X37492712Y-35517481D01*
X37492712Y-35517481D02*
X37739712Y-35764481D01*
X37739712Y-35764481D02*
X38195714Y-35764481D01*
X38442714Y-35517481D02*
X38442714Y-34868436D01*
X38442714Y-34868436D02*
X36629640Y-33055362D01*
X36629640Y-33055362D02*
X38335003Y-31350000D01*
X39225722Y-31350000D02*
X42350723Y-34475001D01*
X42350723Y-34475001D02*
X43478001Y-34475001D01*
X43725001Y-34228001D02*
X43725001Y-31424999D01*
X43478001Y-34475001D02*
X43725001Y-34228001D01*
X43725001Y-31424999D02*
X43800000Y-31350000D01*
X31400000Y-36250000D02*
X32460000Y-36250000D01*
X32460000Y-36250000D02*
X32710000Y-36500000D01*
X24537630Y-37700000D02*
X29450000Y-37700000D01*
X29450000Y-37700000D02*
X29500000Y-37650000D01*
X21500000Y-39660000D02*
X22577630Y-39660000D01*
X22577630Y-39660000D02*
X24537630Y-37700000D01*
X36900000Y-25000000D02*
X41350000Y-25000000D01*
X40250001Y-36199999D02*
X37199999Y-36199999D01*
X37199999Y-36199999D02*
X36950000Y-35950000D01*
X41700000Y-34750000D02*
X40250001Y-36199999D01*
X41300000Y-29950000D02*
X39268826Y-29950000D01*
X39268826Y-29950000D02*
X39241316Y-29922490D01*
X42250004Y-30449996D02*
X39478008Y-30449996D01*
X38817533Y-30399989D02*
X38700232Y-30282688D01*
X42900000Y-29800000D02*
X42250004Y-30449996D01*
X39478008Y-30449996D02*
X39428001Y-30399989D01*
X39428001Y-30399989D02*
X38817533Y-30399989D01*
X43250000Y-34000000D02*
X42300000Y-34000000D01*
X42300000Y-34000000D02*
X39200000Y-30900000D01*
X39200000Y-30900000D02*
X39200000Y-30874990D01*
X37967713Y-34935927D02*
X37967713Y-35289480D01*
X37967713Y-34817713D02*
X37967713Y-34935927D01*
X35450000Y-32300000D02*
X37967713Y-34817713D01*
X29600000Y-30050000D02*
X29600000Y-31150000D01*
X27300000Y-27750000D02*
X29600000Y-30050000D01*
X28199999Y-27799999D02*
X29550000Y-29150000D01*
X27950000Y-26800000D02*
X28199999Y-27049999D01*
X28199999Y-27049999D02*
X28199999Y-27799999D01*
X38879569Y-37480088D02*
X38879569Y-36993158D01*
X36600000Y-38075000D02*
X38284657Y-38075000D01*
X33860000Y-36500000D02*
X33450000Y-36500000D01*
X38879569Y-36993158D02*
X38386411Y-36500000D01*
X38386411Y-36500000D02*
X33860000Y-36500000D01*
X38284657Y-38075000D02*
X38879569Y-37480088D01*
X21500000Y-32040000D02*
X25636488Y-32040000D01*
X25636488Y-32040000D02*
X27396488Y-33800000D01*
X27186927Y-34475839D02*
X27171979Y-34541333D01*
X28192492Y-34606642D02*
X28245016Y-34648528D01*
X27503681Y-34873036D02*
X27569175Y-34858087D01*
X28131966Y-34577494D02*
X28192492Y-34606642D01*
X27216075Y-34734532D02*
X27257960Y-34787055D01*
X27396488Y-33800000D02*
X27438373Y-33852522D01*
X27396488Y-34224264D02*
X27257960Y-34362791D01*
X27482469Y-33978542D02*
X27482469Y-34045721D01*
X27438373Y-33852522D02*
X27467520Y-33913048D01*
X27482469Y-34045721D02*
X27467520Y-34111215D01*
X27310482Y-34828940D02*
X27371008Y-34858087D01*
X27873273Y-34606642D02*
X27933799Y-34577494D01*
X27467520Y-33913048D02*
X27482469Y-33978542D01*
X27467520Y-34111215D02*
X27438373Y-34171741D01*
X27257960Y-34362791D02*
X27216075Y-34415313D01*
X36350001Y-38324999D02*
X36600000Y-38075000D01*
X27438373Y-34171741D02*
X27396488Y-34224264D01*
X27216075Y-34415313D02*
X27186927Y-34475839D01*
X27629701Y-34828940D02*
X27682224Y-34787055D01*
X27171979Y-34541333D02*
X27171979Y-34608512D01*
X27171979Y-34608512D02*
X27186927Y-34674006D01*
X28066472Y-34562546D02*
X28131966Y-34577494D01*
X27933799Y-34577494D02*
X27999293Y-34562546D01*
X27186927Y-34674006D02*
X27216075Y-34734532D01*
X27257960Y-34787055D02*
X27310482Y-34828940D01*
X27371008Y-34858087D02*
X27436502Y-34873036D01*
X27436502Y-34873036D02*
X27503681Y-34873036D01*
X27569175Y-34858087D02*
X27629701Y-34828940D01*
X27682224Y-34787055D02*
X27820751Y-34648527D01*
X35532870Y-39142130D02*
X36350001Y-38324999D01*
X27820751Y-34648527D02*
X27873273Y-34606642D01*
X27999293Y-34562546D02*
X28066472Y-34562546D01*
X28245016Y-34648528D02*
X32738618Y-39142130D01*
X32738618Y-39142130D02*
X35532870Y-39142130D01*
X35122310Y-38842119D02*
X36539429Y-37425000D01*
X21500000Y-29500000D02*
X23520767Y-29500000D01*
X36811213Y-37636213D02*
X38299165Y-37636213D01*
X38500000Y-37435378D02*
X38500000Y-37037868D01*
X38362132Y-36900000D02*
X36200000Y-36900000D01*
X36069834Y-36929709D02*
X36012953Y-36965450D01*
X35900000Y-37200000D02*
X35900000Y-37374532D01*
X35965450Y-37012953D02*
X35929709Y-37069834D01*
X36012953Y-36965450D02*
X35965450Y-37012953D01*
X35900000Y-37374532D02*
X35892478Y-37441288D01*
X35907521Y-37133243D02*
X35900000Y-37200000D01*
X35892478Y-37441288D02*
X35870290Y-37504697D01*
X32862886Y-38842119D02*
X35122310Y-38842119D01*
X35834549Y-37561578D02*
X35787046Y-37609081D01*
X35929709Y-37069834D02*
X35907521Y-37133243D01*
X35787046Y-37609081D02*
X35730165Y-37644822D01*
X38299165Y-37636213D02*
X38500000Y-37435378D01*
X35469834Y-37644822D02*
X35412953Y-37609081D01*
X35412953Y-37609081D02*
X35365450Y-37561578D01*
X35365450Y-37561578D02*
X35329709Y-37504697D01*
X35666756Y-37667010D02*
X35600000Y-37674532D01*
X35329709Y-37504697D02*
X35307521Y-37441288D01*
X35300000Y-37374532D02*
X35300000Y-37200000D01*
X35870290Y-37504697D02*
X35834549Y-37561578D01*
X35300000Y-37200000D02*
X35292478Y-37133243D01*
X35130165Y-36929709D02*
X35066756Y-36907521D01*
X35000000Y-36900000D02*
X33940000Y-36900000D01*
X38500000Y-37037868D02*
X38362132Y-36900000D01*
X36539429Y-37425000D02*
X36600000Y-37425000D01*
X33940000Y-36900000D02*
X33840000Y-37000000D01*
X36600000Y-37425000D02*
X36811213Y-37636213D01*
X33840000Y-37000000D02*
X33450000Y-37000000D01*
X35533243Y-37667010D02*
X35469834Y-37644822D01*
X23520767Y-29500000D02*
X32862886Y-38842119D01*
X36133243Y-36907521D02*
X36069834Y-36929709D01*
X36200000Y-36900000D02*
X36133243Y-36907521D01*
X35187046Y-36965450D02*
X35130165Y-36929709D01*
X35600000Y-37674532D02*
X35533243Y-37667010D01*
X35307521Y-37441288D02*
X35300000Y-37374532D01*
X35270290Y-37069834D02*
X35234549Y-37012953D01*
X35066756Y-36907521D02*
X35000000Y-36900000D01*
X35292478Y-37133243D02*
X35270290Y-37069834D01*
X35234549Y-37012953D02*
X35187046Y-36965450D01*
X35730165Y-37644822D02*
X35666756Y-37667010D01*
G36*
X46658068Y-20411285D02*
X47215950Y-20784050D01*
X47588714Y-21341931D01*
X47725000Y-22027085D01*
X47725000Y-41972915D01*
X47588714Y-42658069D01*
X47215950Y-43215950D01*
X46658068Y-43588715D01*
X45972914Y-43725000D01*
X22027085Y-43725000D01*
X21341931Y-43588714D01*
X20784050Y-43215950D01*
X20411285Y-42658068D01*
X20275000Y-41972914D01*
X20275000Y-39855465D01*
X20512830Y-39855465D01*
X20662775Y-40218360D01*
X20940180Y-40496250D01*
X21302812Y-40646828D01*
X21695465Y-40647170D01*
X22058360Y-40497225D01*
X22336250Y-40219820D01*
X22444137Y-39960000D01*
X22577630Y-39960000D01*
X22692435Y-39937164D01*
X22789762Y-39872132D01*
X22876429Y-39785465D01*
X45512830Y-39785465D01*
X45662775Y-40148360D01*
X45940180Y-40426250D01*
X46302812Y-40576828D01*
X46695465Y-40577170D01*
X47058360Y-40427225D01*
X47336250Y-40149820D01*
X47486828Y-39787188D01*
X47487170Y-39394535D01*
X47337225Y-39031640D01*
X47059820Y-38753750D01*
X46697188Y-38603172D01*
X46304535Y-38602830D01*
X45941640Y-38752775D01*
X45663750Y-39030180D01*
X45513172Y-39392812D01*
X45512830Y-39785465D01*
X22876429Y-39785465D01*
X24661894Y-38000000D01*
X29178224Y-38000000D01*
X29230583Y-38052451D01*
X29405102Y-38124918D01*
X29594069Y-38125082D01*
X29768714Y-38052920D01*
X29902451Y-37919417D01*
X29974918Y-37744898D01*
X29975082Y-37555931D01*
X29902920Y-37381286D01*
X29769417Y-37247549D01*
X29594898Y-37175082D01*
X29405931Y-37174918D01*
X29231286Y-37247080D01*
X29097549Y-37380583D01*
X29089486Y-37400000D01*
X24537630Y-37400000D01*
X24422825Y-37422836D01*
X24325498Y-37487868D01*
X22453366Y-39360000D01*
X22443977Y-39360000D01*
X22337225Y-39101640D01*
X22059820Y-38823750D01*
X21697188Y-38673172D01*
X21304535Y-38672830D01*
X20941640Y-38822775D01*
X20663750Y-39100180D01*
X20513172Y-39462812D01*
X20512830Y-39855465D01*
X20275000Y-39855465D01*
X20275000Y-37315465D01*
X20512830Y-37315465D01*
X20662775Y-37678360D01*
X20940180Y-37956250D01*
X21302812Y-38106828D01*
X21695465Y-38107170D01*
X22058360Y-37957225D01*
X22336250Y-37679820D01*
X22486828Y-37317188D01*
X22487170Y-36924535D01*
X22337225Y-36561640D01*
X22059820Y-36283750D01*
X21697188Y-36133172D01*
X21304535Y-36132830D01*
X20941640Y-36282775D01*
X20663750Y-36560180D01*
X20513172Y-36922812D01*
X20512830Y-37315465D01*
X20275000Y-37315465D01*
X20275000Y-34775465D01*
X20512830Y-34775465D01*
X20662775Y-35138360D01*
X20940180Y-35416250D01*
X21302812Y-35566828D01*
X21695465Y-35567170D01*
X22058360Y-35417225D01*
X22336250Y-35139820D01*
X22486828Y-34777188D01*
X22487170Y-34384535D01*
X22337225Y-34021640D01*
X22059820Y-33743750D01*
X21697188Y-33593172D01*
X21304535Y-33592830D01*
X20941640Y-33742775D01*
X20663750Y-34020180D01*
X20513172Y-34382812D01*
X20512830Y-34775465D01*
X20275000Y-34775465D01*
X20275000Y-29695465D01*
X20512830Y-29695465D01*
X20662775Y-30058360D01*
X20940180Y-30336250D01*
X21302812Y-30486828D01*
X21695465Y-30487170D01*
X22058360Y-30337225D01*
X22336250Y-30059820D01*
X22444137Y-29800000D01*
X23396503Y-29800000D01*
X25336503Y-31740000D01*
X22443977Y-31740000D01*
X22337225Y-31481640D01*
X22059820Y-31203750D01*
X21697188Y-31053172D01*
X21304535Y-31052830D01*
X20941640Y-31202775D01*
X20663750Y-31480180D01*
X20513172Y-31842812D01*
X20512830Y-32235465D01*
X20662775Y-32598360D01*
X20940180Y-32876250D01*
X21302812Y-33026828D01*
X21695465Y-33027170D01*
X22058360Y-32877225D01*
X22336250Y-32599820D01*
X22444137Y-32340000D01*
X25512224Y-32340000D01*
X27172445Y-34000221D01*
X27181943Y-34012132D01*
X27172442Y-34024046D01*
X27045829Y-34150658D01*
X27036390Y-34164784D01*
X27023411Y-34175744D01*
X26981526Y-34228266D01*
X26966054Y-34258214D01*
X26945785Y-34285147D01*
X26916637Y-34345673D01*
X26908217Y-34378313D01*
X26894448Y-34409085D01*
X26879500Y-34474579D01*
X26878555Y-34508274D01*
X26871979Y-34541333D01*
X26871979Y-34608512D01*
X26878555Y-34641571D01*
X26879500Y-34675266D01*
X26894448Y-34740760D01*
X26908217Y-34771532D01*
X26916637Y-34804172D01*
X26945785Y-34864698D01*
X26966053Y-34891629D01*
X26981524Y-34921577D01*
X27023409Y-34974100D01*
X27049166Y-34995850D01*
X27070913Y-35021604D01*
X27123435Y-35063489D01*
X27153384Y-35078961D01*
X27180320Y-35099232D01*
X27240845Y-35128379D01*
X27273484Y-35136798D01*
X27304250Y-35150565D01*
X27369744Y-35165514D01*
X27403441Y-35166460D01*
X27436502Y-35173036D01*
X27503681Y-35173036D01*
X27536742Y-35166460D01*
X27570439Y-35165514D01*
X27635933Y-35150565D01*
X27666700Y-35136797D01*
X27699337Y-35128379D01*
X27759863Y-35099232D01*
X27786797Y-35078963D01*
X27816746Y-35063491D01*
X27869269Y-35021606D01*
X27880231Y-35008625D01*
X27894357Y-34999186D01*
X28020972Y-34872570D01*
X28032882Y-34863072D01*
X28044798Y-34872574D01*
X32526486Y-39354262D01*
X32623813Y-39419294D01*
X32738618Y-39442130D01*
X35532870Y-39442130D01*
X35647675Y-39419294D01*
X35745002Y-39354262D01*
X36549308Y-38549956D01*
X36694069Y-38550082D01*
X36868714Y-38477920D01*
X36971814Y-38375000D01*
X38284657Y-38375000D01*
X38399462Y-38352164D01*
X38496789Y-38287132D01*
X39091701Y-37692220D01*
X39156733Y-37594893D01*
X39179569Y-37480088D01*
X39179569Y-37245465D01*
X45512830Y-37245465D01*
X45662775Y-37608360D01*
X45940180Y-37886250D01*
X46302812Y-38036828D01*
X46695465Y-38037170D01*
X47058360Y-37887225D01*
X47336250Y-37609820D01*
X47486828Y-37247188D01*
X47487170Y-36854535D01*
X47337225Y-36491640D01*
X47059820Y-36213750D01*
X46697188Y-36063172D01*
X46304535Y-36062830D01*
X45941640Y-36212775D01*
X45663750Y-36490180D01*
X45513172Y-36852812D01*
X45512830Y-37245465D01*
X39179569Y-37245465D01*
X39179569Y-36993158D01*
X39156733Y-36878353D01*
X39091701Y-36781026D01*
X38810674Y-36499999D01*
X40250001Y-36499999D01*
X40364806Y-36477163D01*
X40462133Y-36412131D01*
X41649308Y-35224956D01*
X41794069Y-35225082D01*
X41968714Y-35152920D01*
X42102451Y-35019417D01*
X42174918Y-34844898D01*
X42175034Y-34711483D01*
X42235918Y-34752165D01*
X42350723Y-34775001D01*
X43478001Y-34775001D01*
X43592806Y-34752165D01*
X43662697Y-34705465D01*
X45512830Y-34705465D01*
X45662775Y-35068360D01*
X45940180Y-35346250D01*
X46302812Y-35496828D01*
X46695465Y-35497170D01*
X47058360Y-35347225D01*
X47336250Y-35069820D01*
X47486828Y-34707188D01*
X47487170Y-34314535D01*
X47337225Y-33951640D01*
X47059820Y-33673750D01*
X46697188Y-33523172D01*
X46304535Y-33522830D01*
X45941640Y-33672775D01*
X45663750Y-33950180D01*
X45513172Y-34312812D01*
X45512830Y-34705465D01*
X43662697Y-34705465D01*
X43690133Y-34687133D01*
X43937133Y-34440133D01*
X44002165Y-34342806D01*
X44025001Y-34228001D01*
X44025001Y-32204408D01*
X44300000Y-32204408D01*
X44383380Y-32188719D01*
X44419517Y-32165465D01*
X45512830Y-32165465D01*
X45662775Y-32528360D01*
X45940180Y-32806250D01*
X46302812Y-32956828D01*
X46695465Y-32957170D01*
X47058360Y-32807225D01*
X47336250Y-32529820D01*
X47486828Y-32167188D01*
X47487170Y-31774535D01*
X47337225Y-31411640D01*
X47059820Y-31133750D01*
X46697188Y-30983172D01*
X46304535Y-30982830D01*
X45941640Y-31132775D01*
X45663750Y-31410180D01*
X45513172Y-31772812D01*
X45512830Y-32165465D01*
X44419517Y-32165465D01*
X44459960Y-32139441D01*
X44511334Y-32064253D01*
X44529408Y-31975000D01*
X44529408Y-30725000D01*
X44513719Y-30641620D01*
X44464441Y-30565040D01*
X44389253Y-30513666D01*
X44300000Y-30495592D01*
X44100000Y-30495592D01*
X44100000Y-29625465D01*
X45512830Y-29625465D01*
X45662775Y-29988360D01*
X45940180Y-30266250D01*
X46302812Y-30416828D01*
X46695465Y-30417170D01*
X47058360Y-30267225D01*
X47336250Y-29989820D01*
X47486828Y-29627188D01*
X47487170Y-29234535D01*
X47337225Y-28871640D01*
X47059820Y-28593750D01*
X46697188Y-28443172D01*
X46304535Y-28442830D01*
X45941640Y-28592775D01*
X45663750Y-28870180D01*
X45513172Y-29232812D01*
X45512830Y-29625465D01*
X44100000Y-29625465D01*
X44100000Y-29604408D01*
X44275000Y-29604408D01*
X44358380Y-29588719D01*
X44434960Y-29539441D01*
X44486334Y-29464253D01*
X44504408Y-29375000D01*
X44504408Y-27225000D01*
X44488719Y-27141620D01*
X44452585Y-27085465D01*
X45512830Y-27085465D01*
X45662775Y-27448360D01*
X45940180Y-27726250D01*
X46302812Y-27876828D01*
X46695465Y-27877170D01*
X47058360Y-27727225D01*
X47336250Y-27449820D01*
X47486828Y-27087188D01*
X47487170Y-26694535D01*
X47337225Y-26331640D01*
X47059820Y-26053750D01*
X46697188Y-25903172D01*
X46304535Y-25902830D01*
X45941640Y-26052775D01*
X45663750Y-26330180D01*
X45513172Y-26692812D01*
X45512830Y-27085465D01*
X44452585Y-27085465D01*
X44439441Y-27065040D01*
X44364253Y-27013666D01*
X44275000Y-26995592D01*
X43325000Y-26995592D01*
X43241620Y-27011281D01*
X43165040Y-27060559D01*
X43113666Y-27135747D01*
X43095592Y-27225000D01*
X43095592Y-29366894D01*
X42994898Y-29325082D01*
X42805931Y-29324918D01*
X42631286Y-29397080D01*
X42497549Y-29530583D01*
X42425082Y-29705102D01*
X42424956Y-29850780D01*
X42125740Y-30149996D01*
X41731277Y-30149996D01*
X41774918Y-30044898D01*
X41775082Y-29855931D01*
X41702920Y-29681286D01*
X41641741Y-29620000D01*
X42023734Y-29620000D01*
X42113782Y-29582701D01*
X42182701Y-29513781D01*
X42220000Y-29423733D01*
X42220000Y-28371250D01*
X42158750Y-28310000D01*
X41510000Y-28310000D01*
X41510000Y-28330000D01*
X41490000Y-28330000D01*
X41490000Y-28310000D01*
X40841250Y-28310000D01*
X40780000Y-28371250D01*
X40780000Y-29423733D01*
X40817299Y-29513781D01*
X40886218Y-29582701D01*
X40963525Y-29614722D01*
X40928186Y-29650000D01*
X39640467Y-29650000D01*
X39594954Y-29604408D01*
X39675000Y-29604408D01*
X39758380Y-29588719D01*
X39834960Y-29539441D01*
X39886334Y-29464253D01*
X39904408Y-29375000D01*
X39904408Y-27225000D01*
X39895239Y-27176267D01*
X40780000Y-27176267D01*
X40780000Y-28228750D01*
X40841250Y-28290000D01*
X41490000Y-28290000D01*
X41490000Y-27041250D01*
X41510000Y-27041250D01*
X41510000Y-28290000D01*
X42158750Y-28290000D01*
X42220000Y-28228750D01*
X42220000Y-27176267D01*
X42182701Y-27086219D01*
X42113782Y-27017299D01*
X42023734Y-26980000D01*
X41571250Y-26980000D01*
X41510000Y-27041250D01*
X41490000Y-27041250D01*
X41428750Y-26980000D01*
X40976266Y-26980000D01*
X40886218Y-27017299D01*
X40817299Y-27086219D01*
X40780000Y-27176267D01*
X39895239Y-27176267D01*
X39888719Y-27141620D01*
X39839441Y-27065040D01*
X39764253Y-27013666D01*
X39675000Y-26995592D01*
X38725000Y-26995592D01*
X38641620Y-27011281D01*
X38565040Y-27060559D01*
X38513666Y-27135747D01*
X38495592Y-27225000D01*
X38495592Y-28000000D01*
X38029408Y-28000000D01*
X38029408Y-27675000D01*
X38013719Y-27591620D01*
X37964441Y-27515040D01*
X37889253Y-27463666D01*
X37800000Y-27445592D01*
X36800000Y-27445592D01*
X36716620Y-27461281D01*
X36640040Y-27510559D01*
X36588666Y-27585747D01*
X36570592Y-27675000D01*
X36570592Y-28730144D01*
X34137868Y-31162868D01*
X34072836Y-31260195D01*
X34050000Y-31375000D01*
X34050000Y-32478311D01*
X33978186Y-32550000D01*
X31050000Y-32550000D01*
X30935195Y-32572836D01*
X30837868Y-32637868D01*
X29750000Y-33725736D01*
X29750000Y-33050000D01*
X29727164Y-32935195D01*
X29662132Y-32837868D01*
X27874956Y-31050692D01*
X27875082Y-30905931D01*
X27802920Y-30731286D01*
X27669417Y-30597549D01*
X27494898Y-30525082D01*
X27305931Y-30524918D01*
X27131286Y-30597080D01*
X26997549Y-30730583D01*
X26925082Y-30905102D01*
X26924918Y-31094069D01*
X26997080Y-31268714D01*
X27130583Y-31402451D01*
X27305102Y-31474918D01*
X27450780Y-31475044D01*
X29150000Y-33174264D01*
X29150000Y-34078311D01*
X29047549Y-34180583D01*
X28975082Y-34355102D01*
X28974930Y-34529899D01*
X23732899Y-29287868D01*
X23635572Y-29222836D01*
X23520767Y-29200000D01*
X22443977Y-29200000D01*
X22337225Y-28941640D01*
X22059820Y-28663750D01*
X21697188Y-28513172D01*
X21304535Y-28512830D01*
X20941640Y-28662775D01*
X20663750Y-28940180D01*
X20513172Y-29302812D01*
X20512830Y-29695465D01*
X20275000Y-29695465D01*
X20275000Y-27155465D01*
X20512830Y-27155465D01*
X20662775Y-27518360D01*
X20940180Y-27796250D01*
X21302812Y-27946828D01*
X21695465Y-27947170D01*
X21944988Y-27844069D01*
X26824918Y-27844069D01*
X26897080Y-28018714D01*
X27030583Y-28152451D01*
X27205102Y-28224918D01*
X27350780Y-28225044D01*
X29300000Y-30174264D01*
X29300000Y-30778311D01*
X29197549Y-30880583D01*
X29125082Y-31055102D01*
X29124918Y-31244069D01*
X29197080Y-31418714D01*
X29330583Y-31552451D01*
X29505102Y-31624918D01*
X29694069Y-31625082D01*
X29868714Y-31552920D01*
X30002451Y-31419417D01*
X30074918Y-31244898D01*
X30075082Y-31055931D01*
X30002920Y-30881286D01*
X29900000Y-30778186D01*
X29900000Y-30050000D01*
X29877164Y-29935195D01*
X29812132Y-29837868D01*
X29599307Y-29625043D01*
X29644069Y-29625082D01*
X29818714Y-29552920D01*
X29952451Y-29419417D01*
X30024918Y-29244898D01*
X30025082Y-29055931D01*
X29952920Y-28881286D01*
X29819417Y-28747549D01*
X29644898Y-28675082D01*
X29499220Y-28674956D01*
X29195514Y-28371250D01*
X34555000Y-28371250D01*
X34555000Y-28973733D01*
X34592299Y-29063781D01*
X34661218Y-29132701D01*
X34751266Y-29170000D01*
X35228750Y-29170000D01*
X35290000Y-29108750D01*
X35290000Y-28310000D01*
X35310000Y-28310000D01*
X35310000Y-29108750D01*
X35371250Y-29170000D01*
X35848734Y-29170000D01*
X35938782Y-29132701D01*
X36007701Y-29063781D01*
X36045000Y-28973733D01*
X36045000Y-28371250D01*
X35983750Y-28310000D01*
X35310000Y-28310000D01*
X35290000Y-28310000D01*
X34616250Y-28310000D01*
X34555000Y-28371250D01*
X29195514Y-28371250D01*
X28499999Y-27675735D01*
X28499999Y-27626267D01*
X34555000Y-27626267D01*
X34555000Y-28228750D01*
X34616250Y-28290000D01*
X35290000Y-28290000D01*
X35290000Y-27491250D01*
X35310000Y-27491250D01*
X35310000Y-28290000D01*
X35983750Y-28290000D01*
X36045000Y-28228750D01*
X36045000Y-27626267D01*
X36007701Y-27536219D01*
X35938782Y-27467299D01*
X35848734Y-27430000D01*
X35371250Y-27430000D01*
X35310000Y-27491250D01*
X35290000Y-27491250D01*
X35228750Y-27430000D01*
X34751266Y-27430000D01*
X34661218Y-27467299D01*
X34592299Y-27536219D01*
X34555000Y-27626267D01*
X28499999Y-27626267D01*
X28499999Y-27049999D01*
X28477163Y-26935194D01*
X28424951Y-26857053D01*
X28425082Y-26705931D01*
X28352920Y-26531286D01*
X28219417Y-26397549D01*
X28044898Y-26325082D01*
X27855931Y-26324918D01*
X27681286Y-26397080D01*
X27547549Y-26530583D01*
X27475082Y-26705102D01*
X27474918Y-26894069D01*
X27547080Y-27068714D01*
X27680583Y-27202451D01*
X27855102Y-27274918D01*
X27899999Y-27274957D01*
X27899999Y-27799999D01*
X27922835Y-27914804D01*
X27987867Y-28012131D01*
X29075044Y-29099308D01*
X29075042Y-29100778D01*
X27774956Y-27800692D01*
X27775082Y-27655931D01*
X27702920Y-27481286D01*
X27569417Y-27347549D01*
X27394898Y-27275082D01*
X27205931Y-27274918D01*
X27031286Y-27347080D01*
X26897549Y-27480583D01*
X26825082Y-27655102D01*
X26824918Y-27844069D01*
X21944988Y-27844069D01*
X22058360Y-27797225D01*
X22336250Y-27519820D01*
X22486828Y-27157188D01*
X22487170Y-26764535D01*
X22337225Y-26401640D01*
X22059820Y-26123750D01*
X21697188Y-25973172D01*
X21304535Y-25972830D01*
X20941640Y-26122775D01*
X20663750Y-26400180D01*
X20513172Y-26762812D01*
X20512830Y-27155465D01*
X20275000Y-27155465D01*
X20275000Y-24615465D01*
X20512830Y-24615465D01*
X20662775Y-24978360D01*
X20940180Y-25256250D01*
X21302812Y-25406828D01*
X21695465Y-25407170D01*
X22058360Y-25257225D01*
X22221801Y-25094069D01*
X36424918Y-25094069D01*
X36497080Y-25268714D01*
X36630583Y-25402451D01*
X36805102Y-25474918D01*
X36994069Y-25475082D01*
X37168714Y-25402920D01*
X37271814Y-25300000D01*
X40978311Y-25300000D01*
X41080583Y-25402451D01*
X41255102Y-25474918D01*
X41444069Y-25475082D01*
X41618714Y-25402920D01*
X41752451Y-25269417D01*
X41824918Y-25094898D01*
X41825082Y-24905931D01*
X41752920Y-24731286D01*
X41619417Y-24597549D01*
X41493986Y-24545465D01*
X45512830Y-24545465D01*
X45662775Y-24908360D01*
X45940180Y-25186250D01*
X46302812Y-25336828D01*
X46695465Y-25337170D01*
X47058360Y-25187225D01*
X47336250Y-24909820D01*
X47486828Y-24547188D01*
X47487170Y-24154535D01*
X47337225Y-23791640D01*
X47059820Y-23513750D01*
X46697188Y-23363172D01*
X46304535Y-23362830D01*
X45941640Y-23512775D01*
X45663750Y-23790180D01*
X45513172Y-24152812D01*
X45512830Y-24545465D01*
X41493986Y-24545465D01*
X41444898Y-24525082D01*
X41255931Y-24524918D01*
X41081286Y-24597080D01*
X40978186Y-24700000D01*
X37271689Y-24700000D01*
X37169417Y-24597549D01*
X36994898Y-24525082D01*
X36805931Y-24524918D01*
X36631286Y-24597080D01*
X36497549Y-24730583D01*
X36425082Y-24905102D01*
X36424918Y-25094069D01*
X22221801Y-25094069D01*
X22336250Y-24979820D01*
X22486828Y-24617188D01*
X22487170Y-24224535D01*
X22337225Y-23861640D01*
X22059820Y-23583750D01*
X21697188Y-23433172D01*
X21304535Y-23432830D01*
X20941640Y-23582775D01*
X20663750Y-23860180D01*
X20513172Y-24222812D01*
X20512830Y-24615465D01*
X20275000Y-24615465D01*
X20275000Y-22571250D01*
X39630000Y-22571250D01*
X39630000Y-23623733D01*
X39667299Y-23713781D01*
X39736218Y-23782701D01*
X39826266Y-23820000D01*
X41428750Y-23820000D01*
X41490000Y-23758750D01*
X41490000Y-22510000D01*
X41510000Y-22510000D01*
X41510000Y-23758750D01*
X41571250Y-23820000D01*
X43173734Y-23820000D01*
X43263782Y-23782701D01*
X43332701Y-23713781D01*
X43370000Y-23623733D01*
X43370000Y-22571250D01*
X43308750Y-22510000D01*
X41510000Y-22510000D01*
X41490000Y-22510000D01*
X39691250Y-22510000D01*
X39630000Y-22571250D01*
X20275000Y-22571250D01*
X20275000Y-22027086D01*
X20404455Y-21376267D01*
X39630000Y-21376267D01*
X39630000Y-22428750D01*
X39691250Y-22490000D01*
X41490000Y-22490000D01*
X41490000Y-21241250D01*
X41510000Y-21241250D01*
X41510000Y-22490000D01*
X43308750Y-22490000D01*
X43370000Y-22428750D01*
X43370000Y-21376267D01*
X43332701Y-21286219D01*
X43263782Y-21217299D01*
X43173734Y-21180000D01*
X41571250Y-21180000D01*
X41510000Y-21241250D01*
X41490000Y-21241250D01*
X41428750Y-21180000D01*
X39826266Y-21180000D01*
X39736218Y-21217299D01*
X39667299Y-21286219D01*
X39630000Y-21376267D01*
X20404455Y-21376267D01*
X20411285Y-21341932D01*
X20784050Y-20784050D01*
X21341931Y-20411286D01*
X22027085Y-20275000D01*
X45972914Y-20275000D01*
X46658068Y-20411285D01*
X46658068Y-20411285D01*
G37*
X46658068Y-20411285D02*
X47215950Y-20784050D01*
X47588714Y-21341931D01*
X47725000Y-22027085D01*
X47725000Y-41972915D01*
X47588714Y-42658069D01*
X47215950Y-43215950D01*
X46658068Y-43588715D01*
X45972914Y-43725000D01*
X22027085Y-43725000D01*
X21341931Y-43588714D01*
X20784050Y-43215950D01*
X20411285Y-42658068D01*
X20275000Y-41972914D01*
X20275000Y-39855465D01*
X20512830Y-39855465D01*
X20662775Y-40218360D01*
X20940180Y-40496250D01*
X21302812Y-40646828D01*
X21695465Y-40647170D01*
X22058360Y-40497225D01*
X22336250Y-40219820D01*
X22444137Y-39960000D01*
X22577630Y-39960000D01*
X22692435Y-39937164D01*
X22789762Y-39872132D01*
X22876429Y-39785465D01*
X45512830Y-39785465D01*
X45662775Y-40148360D01*
X45940180Y-40426250D01*
X46302812Y-40576828D01*
X46695465Y-40577170D01*
X47058360Y-40427225D01*
X47336250Y-40149820D01*
X47486828Y-39787188D01*
X47487170Y-39394535D01*
X47337225Y-39031640D01*
X47059820Y-38753750D01*
X46697188Y-38603172D01*
X46304535Y-38602830D01*
X45941640Y-38752775D01*
X45663750Y-39030180D01*
X45513172Y-39392812D01*
X45512830Y-39785465D01*
X22876429Y-39785465D01*
X24661894Y-38000000D01*
X29178224Y-38000000D01*
X29230583Y-38052451D01*
X29405102Y-38124918D01*
X29594069Y-38125082D01*
X29768714Y-38052920D01*
X29902451Y-37919417D01*
X29974918Y-37744898D01*
X29975082Y-37555931D01*
X29902920Y-37381286D01*
X29769417Y-37247549D01*
X29594898Y-37175082D01*
X29405931Y-37174918D01*
X29231286Y-37247080D01*
X29097549Y-37380583D01*
X29089486Y-37400000D01*
X24537630Y-37400000D01*
X24422825Y-37422836D01*
X24325498Y-37487868D01*
X22453366Y-39360000D01*
X22443977Y-39360000D01*
X22337225Y-39101640D01*
X22059820Y-38823750D01*
X21697188Y-38673172D01*
X21304535Y-38672830D01*
X20941640Y-38822775D01*
X20663750Y-39100180D01*
X20513172Y-39462812D01*
X20512830Y-39855465D01*
X20275000Y-39855465D01*
X20275000Y-37315465D01*
X20512830Y-37315465D01*
X20662775Y-37678360D01*
X20940180Y-37956250D01*
X21302812Y-38106828D01*
X21695465Y-38107170D01*
X22058360Y-37957225D01*
X22336250Y-37679820D01*
X22486828Y-37317188D01*
X22487170Y-36924535D01*
X22337225Y-36561640D01*
X22059820Y-36283750D01*
X21697188Y-36133172D01*
X21304535Y-36132830D01*
X20941640Y-36282775D01*
X20663750Y-36560180D01*
X20513172Y-36922812D01*
X20512830Y-37315465D01*
X20275000Y-37315465D01*
X20275000Y-34775465D01*
X20512830Y-34775465D01*
X20662775Y-35138360D01*
X20940180Y-35416250D01*
X21302812Y-35566828D01*
X21695465Y-35567170D01*
X22058360Y-35417225D01*
X22336250Y-35139820D01*
X22486828Y-34777188D01*
X22487170Y-34384535D01*
X22337225Y-34021640D01*
X22059820Y-33743750D01*
X21697188Y-33593172D01*
X21304535Y-33592830D01*
X20941640Y-33742775D01*
X20663750Y-34020180D01*
X20513172Y-34382812D01*
X20512830Y-34775465D01*
X20275000Y-34775465D01*
X20275000Y-29695465D01*
X20512830Y-29695465D01*
X20662775Y-30058360D01*
X20940180Y-30336250D01*
X21302812Y-30486828D01*
X21695465Y-30487170D01*
X22058360Y-30337225D01*
X22336250Y-30059820D01*
X22444137Y-29800000D01*
X23396503Y-29800000D01*
X25336503Y-31740000D01*
X22443977Y-31740000D01*
X22337225Y-31481640D01*
X22059820Y-31203750D01*
X21697188Y-31053172D01*
X21304535Y-31052830D01*
X20941640Y-31202775D01*
X20663750Y-31480180D01*
X20513172Y-31842812D01*
X20512830Y-32235465D01*
X20662775Y-32598360D01*
X20940180Y-32876250D01*
X21302812Y-33026828D01*
X21695465Y-33027170D01*
X22058360Y-32877225D01*
X22336250Y-32599820D01*
X22444137Y-32340000D01*
X25512224Y-32340000D01*
X27172445Y-34000221D01*
X27181943Y-34012132D01*
X27172442Y-34024046D01*
X27045829Y-34150658D01*
X27036390Y-34164784D01*
X27023411Y-34175744D01*
X26981526Y-34228266D01*
X26966054Y-34258214D01*
X26945785Y-34285147D01*
X26916637Y-34345673D01*
X26908217Y-34378313D01*
X26894448Y-34409085D01*
X26879500Y-34474579D01*
X26878555Y-34508274D01*
X26871979Y-34541333D01*
X26871979Y-34608512D01*
X26878555Y-34641571D01*
X26879500Y-34675266D01*
X26894448Y-34740760D01*
X26908217Y-34771532D01*
X26916637Y-34804172D01*
X26945785Y-34864698D01*
X26966053Y-34891629D01*
X26981524Y-34921577D01*
X27023409Y-34974100D01*
X27049166Y-34995850D01*
X27070913Y-35021604D01*
X27123435Y-35063489D01*
X27153384Y-35078961D01*
X27180320Y-35099232D01*
X27240845Y-35128379D01*
X27273484Y-35136798D01*
X27304250Y-35150565D01*
X27369744Y-35165514D01*
X27403441Y-35166460D01*
X27436502Y-35173036D01*
X27503681Y-35173036D01*
X27536742Y-35166460D01*
X27570439Y-35165514D01*
X27635933Y-35150565D01*
X27666700Y-35136797D01*
X27699337Y-35128379D01*
X27759863Y-35099232D01*
X27786797Y-35078963D01*
X27816746Y-35063491D01*
X27869269Y-35021606D01*
X27880231Y-35008625D01*
X27894357Y-34999186D01*
X28020972Y-34872570D01*
X28032882Y-34863072D01*
X28044798Y-34872574D01*
X32526486Y-39354262D01*
X32623813Y-39419294D01*
X32738618Y-39442130D01*
X35532870Y-39442130D01*
X35647675Y-39419294D01*
X35745002Y-39354262D01*
X36549308Y-38549956D01*
X36694069Y-38550082D01*
X36868714Y-38477920D01*
X36971814Y-38375000D01*
X38284657Y-38375000D01*
X38399462Y-38352164D01*
X38496789Y-38287132D01*
X39091701Y-37692220D01*
X39156733Y-37594893D01*
X39179569Y-37480088D01*
X39179569Y-37245465D01*
X45512830Y-37245465D01*
X45662775Y-37608360D01*
X45940180Y-37886250D01*
X46302812Y-38036828D01*
X46695465Y-38037170D01*
X47058360Y-37887225D01*
X47336250Y-37609820D01*
X47486828Y-37247188D01*
X47487170Y-36854535D01*
X47337225Y-36491640D01*
X47059820Y-36213750D01*
X46697188Y-36063172D01*
X46304535Y-36062830D01*
X45941640Y-36212775D01*
X45663750Y-36490180D01*
X45513172Y-36852812D01*
X45512830Y-37245465D01*
X39179569Y-37245465D01*
X39179569Y-36993158D01*
X39156733Y-36878353D01*
X39091701Y-36781026D01*
X38810674Y-36499999D01*
X40250001Y-36499999D01*
X40364806Y-36477163D01*
X40462133Y-36412131D01*
X41649308Y-35224956D01*
X41794069Y-35225082D01*
X41968714Y-35152920D01*
X42102451Y-35019417D01*
X42174918Y-34844898D01*
X42175034Y-34711483D01*
X42235918Y-34752165D01*
X42350723Y-34775001D01*
X43478001Y-34775001D01*
X43592806Y-34752165D01*
X43662697Y-34705465D01*
X45512830Y-34705465D01*
X45662775Y-35068360D01*
X45940180Y-35346250D01*
X46302812Y-35496828D01*
X46695465Y-35497170D01*
X47058360Y-35347225D01*
X47336250Y-35069820D01*
X47486828Y-34707188D01*
X47487170Y-34314535D01*
X47337225Y-33951640D01*
X47059820Y-33673750D01*
X46697188Y-33523172D01*
X46304535Y-33522830D01*
X45941640Y-33672775D01*
X45663750Y-33950180D01*
X45513172Y-34312812D01*
X45512830Y-34705465D01*
X43662697Y-34705465D01*
X43690133Y-34687133D01*
X43937133Y-34440133D01*
X44002165Y-34342806D01*
X44025001Y-34228001D01*
X44025001Y-32204408D01*
X44300000Y-32204408D01*
X44383380Y-32188719D01*
X44419517Y-32165465D01*
X45512830Y-32165465D01*
X45662775Y-32528360D01*
X45940180Y-32806250D01*
X46302812Y-32956828D01*
X46695465Y-32957170D01*
X47058360Y-32807225D01*
X47336250Y-32529820D01*
X47486828Y-32167188D01*
X47487170Y-31774535D01*
X47337225Y-31411640D01*
X47059820Y-31133750D01*
X46697188Y-30983172D01*
X46304535Y-30982830D01*
X45941640Y-31132775D01*
X45663750Y-31410180D01*
X45513172Y-31772812D01*
X45512830Y-32165465D01*
X44419517Y-32165465D01*
X44459960Y-32139441D01*
X44511334Y-32064253D01*
X44529408Y-31975000D01*
X44529408Y-30725000D01*
X44513719Y-30641620D01*
X44464441Y-30565040D01*
X44389253Y-30513666D01*
X44300000Y-30495592D01*
X44100000Y-30495592D01*
X44100000Y-29625465D01*
X45512830Y-29625465D01*
X45662775Y-29988360D01*
X45940180Y-30266250D01*
X46302812Y-30416828D01*
X46695465Y-30417170D01*
X47058360Y-30267225D01*
X47336250Y-29989820D01*
X47486828Y-29627188D01*
X47487170Y-29234535D01*
X47337225Y-28871640D01*
X47059820Y-28593750D01*
X46697188Y-28443172D01*
X46304535Y-28442830D01*
X45941640Y-28592775D01*
X45663750Y-28870180D01*
X45513172Y-29232812D01*
X45512830Y-29625465D01*
X44100000Y-29625465D01*
X44100000Y-29604408D01*
X44275000Y-29604408D01*
X44358380Y-29588719D01*
X44434960Y-29539441D01*
X44486334Y-29464253D01*
X44504408Y-29375000D01*
X44504408Y-27225000D01*
X44488719Y-27141620D01*
X44452585Y-27085465D01*
X45512830Y-27085465D01*
X45662775Y-27448360D01*
X45940180Y-27726250D01*
X46302812Y-27876828D01*
X46695465Y-27877170D01*
X47058360Y-27727225D01*
X47336250Y-27449820D01*
X47486828Y-27087188D01*
X47487170Y-26694535D01*
X47337225Y-26331640D01*
X47059820Y-26053750D01*
X46697188Y-25903172D01*
X46304535Y-25902830D01*
X45941640Y-26052775D01*
X45663750Y-26330180D01*
X45513172Y-26692812D01*
X45512830Y-27085465D01*
X44452585Y-27085465D01*
X44439441Y-27065040D01*
X44364253Y-27013666D01*
X44275000Y-26995592D01*
X43325000Y-26995592D01*
X43241620Y-27011281D01*
X43165040Y-27060559D01*
X43113666Y-27135747D01*
X43095592Y-27225000D01*
X43095592Y-29366894D01*
X42994898Y-29325082D01*
X42805931Y-29324918D01*
X42631286Y-29397080D01*
X42497549Y-29530583D01*
X42425082Y-29705102D01*
X42424956Y-29850780D01*
X42125740Y-30149996D01*
X41731277Y-30149996D01*
X41774918Y-30044898D01*
X41775082Y-29855931D01*
X41702920Y-29681286D01*
X41641741Y-29620000D01*
X42023734Y-29620000D01*
X42113782Y-29582701D01*
X42182701Y-29513781D01*
X42220000Y-29423733D01*
X42220000Y-28371250D01*
X42158750Y-28310000D01*
X41510000Y-28310000D01*
X41510000Y-28330000D01*
X41490000Y-28330000D01*
X41490000Y-28310000D01*
X40841250Y-28310000D01*
X40780000Y-28371250D01*
X40780000Y-29423733D01*
X40817299Y-29513781D01*
X40886218Y-29582701D01*
X40963525Y-29614722D01*
X40928186Y-29650000D01*
X39640467Y-29650000D01*
X39594954Y-29604408D01*
X39675000Y-29604408D01*
X39758380Y-29588719D01*
X39834960Y-29539441D01*
X39886334Y-29464253D01*
X39904408Y-29375000D01*
X39904408Y-27225000D01*
X39895239Y-27176267D01*
X40780000Y-27176267D01*
X40780000Y-28228750D01*
X40841250Y-28290000D01*
X41490000Y-28290000D01*
X41490000Y-27041250D01*
X41510000Y-27041250D01*
X41510000Y-28290000D01*
X42158750Y-28290000D01*
X42220000Y-28228750D01*
X42220000Y-27176267D01*
X42182701Y-27086219D01*
X42113782Y-27017299D01*
X42023734Y-26980000D01*
X41571250Y-26980000D01*
X41510000Y-27041250D01*
X41490000Y-27041250D01*
X41428750Y-26980000D01*
X40976266Y-26980000D01*
X40886218Y-27017299D01*
X40817299Y-27086219D01*
X40780000Y-27176267D01*
X39895239Y-27176267D01*
X39888719Y-27141620D01*
X39839441Y-27065040D01*
X39764253Y-27013666D01*
X39675000Y-26995592D01*
X38725000Y-26995592D01*
X38641620Y-27011281D01*
X38565040Y-27060559D01*
X38513666Y-27135747D01*
X38495592Y-27225000D01*
X38495592Y-28000000D01*
X38029408Y-28000000D01*
X38029408Y-27675000D01*
X38013719Y-27591620D01*
X37964441Y-27515040D01*
X37889253Y-27463666D01*
X37800000Y-27445592D01*
X36800000Y-27445592D01*
X36716620Y-27461281D01*
X36640040Y-27510559D01*
X36588666Y-27585747D01*
X36570592Y-27675000D01*
X36570592Y-28730144D01*
X34137868Y-31162868D01*
X34072836Y-31260195D01*
X34050000Y-31375000D01*
X34050000Y-32478311D01*
X33978186Y-32550000D01*
X31050000Y-32550000D01*
X30935195Y-32572836D01*
X30837868Y-32637868D01*
X29750000Y-33725736D01*
X29750000Y-33050000D01*
X29727164Y-32935195D01*
X29662132Y-32837868D01*
X27874956Y-31050692D01*
X27875082Y-30905931D01*
X27802920Y-30731286D01*
X27669417Y-30597549D01*
X27494898Y-30525082D01*
X27305931Y-30524918D01*
X27131286Y-30597080D01*
X26997549Y-30730583D01*
X26925082Y-30905102D01*
X26924918Y-31094069D01*
X26997080Y-31268714D01*
X27130583Y-31402451D01*
X27305102Y-31474918D01*
X27450780Y-31475044D01*
X29150000Y-33174264D01*
X29150000Y-34078311D01*
X29047549Y-34180583D01*
X28975082Y-34355102D01*
X28974930Y-34529899D01*
X23732899Y-29287868D01*
X23635572Y-29222836D01*
X23520767Y-29200000D01*
X22443977Y-29200000D01*
X22337225Y-28941640D01*
X22059820Y-28663750D01*
X21697188Y-28513172D01*
X21304535Y-28512830D01*
X20941640Y-28662775D01*
X20663750Y-28940180D01*
X20513172Y-29302812D01*
X20512830Y-29695465D01*
X20275000Y-29695465D01*
X20275000Y-27155465D01*
X20512830Y-27155465D01*
X20662775Y-27518360D01*
X20940180Y-27796250D01*
X21302812Y-27946828D01*
X21695465Y-27947170D01*
X21944988Y-27844069D01*
X26824918Y-27844069D01*
X26897080Y-28018714D01*
X27030583Y-28152451D01*
X27205102Y-28224918D01*
X27350780Y-28225044D01*
X29300000Y-30174264D01*
X29300000Y-30778311D01*
X29197549Y-30880583D01*
X29125082Y-31055102D01*
X29124918Y-31244069D01*
X29197080Y-31418714D01*
X29330583Y-31552451D01*
X29505102Y-31624918D01*
X29694069Y-31625082D01*
X29868714Y-31552920D01*
X30002451Y-31419417D01*
X30074918Y-31244898D01*
X30075082Y-31055931D01*
X30002920Y-30881286D01*
X29900000Y-30778186D01*
X29900000Y-30050000D01*
X29877164Y-29935195D01*
X29812132Y-29837868D01*
X29599307Y-29625043D01*
X29644069Y-29625082D01*
X29818714Y-29552920D01*
X29952451Y-29419417D01*
X30024918Y-29244898D01*
X30025082Y-29055931D01*
X29952920Y-28881286D01*
X29819417Y-28747549D01*
X29644898Y-28675082D01*
X29499220Y-28674956D01*
X29195514Y-28371250D01*
X34555000Y-28371250D01*
X34555000Y-28973733D01*
X34592299Y-29063781D01*
X34661218Y-29132701D01*
X34751266Y-29170000D01*
X35228750Y-29170000D01*
X35290000Y-29108750D01*
X35290000Y-28310000D01*
X35310000Y-28310000D01*
X35310000Y-29108750D01*
X35371250Y-29170000D01*
X35848734Y-29170000D01*
X35938782Y-29132701D01*
X36007701Y-29063781D01*
X36045000Y-28973733D01*
X36045000Y-28371250D01*
X35983750Y-28310000D01*
X35310000Y-28310000D01*
X35290000Y-28310000D01*
X34616250Y-28310000D01*
X34555000Y-28371250D01*
X29195514Y-28371250D01*
X28499999Y-27675735D01*
X28499999Y-27626267D01*
X34555000Y-27626267D01*
X34555000Y-28228750D01*
X34616250Y-28290000D01*
X35290000Y-28290000D01*
X35290000Y-27491250D01*
X35310000Y-27491250D01*
X35310000Y-28290000D01*
X35983750Y-28290000D01*
X36045000Y-28228750D01*
X36045000Y-27626267D01*
X36007701Y-27536219D01*
X35938782Y-27467299D01*
X35848734Y-27430000D01*
X35371250Y-27430000D01*
X35310000Y-27491250D01*
X35290000Y-27491250D01*
X35228750Y-27430000D01*
X34751266Y-27430000D01*
X34661218Y-27467299D01*
X34592299Y-27536219D01*
X34555000Y-27626267D01*
X28499999Y-27626267D01*
X28499999Y-27049999D01*
X28477163Y-26935194D01*
X28424951Y-26857053D01*
X28425082Y-26705931D01*
X28352920Y-26531286D01*
X28219417Y-26397549D01*
X28044898Y-26325082D01*
X27855931Y-26324918D01*
X27681286Y-26397080D01*
X27547549Y-26530583D01*
X27475082Y-26705102D01*
X27474918Y-26894069D01*
X27547080Y-27068714D01*
X27680583Y-27202451D01*
X27855102Y-27274918D01*
X27899999Y-27274957D01*
X27899999Y-27799999D01*
X27922835Y-27914804D01*
X27987867Y-28012131D01*
X29075044Y-29099308D01*
X29075042Y-29100778D01*
X27774956Y-27800692D01*
X27775082Y-27655931D01*
X27702920Y-27481286D01*
X27569417Y-27347549D01*
X27394898Y-27275082D01*
X27205931Y-27274918D01*
X27031286Y-27347080D01*
X26897549Y-27480583D01*
X26825082Y-27655102D01*
X26824918Y-27844069D01*
X21944988Y-27844069D01*
X22058360Y-27797225D01*
X22336250Y-27519820D01*
X22486828Y-27157188D01*
X22487170Y-26764535D01*
X22337225Y-26401640D01*
X22059820Y-26123750D01*
X21697188Y-25973172D01*
X21304535Y-25972830D01*
X20941640Y-26122775D01*
X20663750Y-26400180D01*
X20513172Y-26762812D01*
X20512830Y-27155465D01*
X20275000Y-27155465D01*
X20275000Y-24615465D01*
X20512830Y-24615465D01*
X20662775Y-24978360D01*
X20940180Y-25256250D01*
X21302812Y-25406828D01*
X21695465Y-25407170D01*
X22058360Y-25257225D01*
X22221801Y-25094069D01*
X36424918Y-25094069D01*
X36497080Y-25268714D01*
X36630583Y-25402451D01*
X36805102Y-25474918D01*
X36994069Y-25475082D01*
X37168714Y-25402920D01*
X37271814Y-25300000D01*
X40978311Y-25300000D01*
X41080583Y-25402451D01*
X41255102Y-25474918D01*
X41444069Y-25475082D01*
X41618714Y-25402920D01*
X41752451Y-25269417D01*
X41824918Y-25094898D01*
X41825082Y-24905931D01*
X41752920Y-24731286D01*
X41619417Y-24597549D01*
X41493986Y-24545465D01*
X45512830Y-24545465D01*
X45662775Y-24908360D01*
X45940180Y-25186250D01*
X46302812Y-25336828D01*
X46695465Y-25337170D01*
X47058360Y-25187225D01*
X47336250Y-24909820D01*
X47486828Y-24547188D01*
X47487170Y-24154535D01*
X47337225Y-23791640D01*
X47059820Y-23513750D01*
X46697188Y-23363172D01*
X46304535Y-23362830D01*
X45941640Y-23512775D01*
X45663750Y-23790180D01*
X45513172Y-24152812D01*
X45512830Y-24545465D01*
X41493986Y-24545465D01*
X41444898Y-24525082D01*
X41255931Y-24524918D01*
X41081286Y-24597080D01*
X40978186Y-24700000D01*
X37271689Y-24700000D01*
X37169417Y-24597549D01*
X36994898Y-24525082D01*
X36805931Y-24524918D01*
X36631286Y-24597080D01*
X36497549Y-24730583D01*
X36425082Y-24905102D01*
X36424918Y-25094069D01*
X22221801Y-25094069D01*
X22336250Y-24979820D01*
X22486828Y-24617188D01*
X22487170Y-24224535D01*
X22337225Y-23861640D01*
X22059820Y-23583750D01*
X21697188Y-23433172D01*
X21304535Y-23432830D01*
X20941640Y-23582775D01*
X20663750Y-23860180D01*
X20513172Y-24222812D01*
X20512830Y-24615465D01*
X20275000Y-24615465D01*
X20275000Y-22571250D01*
X39630000Y-22571250D01*
X39630000Y-23623733D01*
X39667299Y-23713781D01*
X39736218Y-23782701D01*
X39826266Y-23820000D01*
X41428750Y-23820000D01*
X41490000Y-23758750D01*
X41490000Y-22510000D01*
X41510000Y-22510000D01*
X41510000Y-23758750D01*
X41571250Y-23820000D01*
X43173734Y-23820000D01*
X43263782Y-23782701D01*
X43332701Y-23713781D01*
X43370000Y-23623733D01*
X43370000Y-22571250D01*
X43308750Y-22510000D01*
X41510000Y-22510000D01*
X41490000Y-22510000D01*
X39691250Y-22510000D01*
X39630000Y-22571250D01*
X20275000Y-22571250D01*
X20275000Y-22027086D01*
X20404455Y-21376267D01*
X39630000Y-21376267D01*
X39630000Y-22428750D01*
X39691250Y-22490000D01*
X41490000Y-22490000D01*
X41490000Y-21241250D01*
X41510000Y-21241250D01*
X41510000Y-22490000D01*
X43308750Y-22490000D01*
X43370000Y-22428750D01*
X43370000Y-21376267D01*
X43332701Y-21286219D01*
X43263782Y-21217299D01*
X43173734Y-21180000D01*
X41571250Y-21180000D01*
X41510000Y-21241250D01*
X41490000Y-21241250D01*
X41428750Y-21180000D01*
X39826266Y-21180000D01*
X39736218Y-21217299D01*
X39667299Y-21286219D01*
X39630000Y-21376267D01*
X20404455Y-21376267D01*
X20411285Y-21341932D01*
X20784050Y-20784050D01*
X21341931Y-20411286D01*
X22027085Y-20275000D01*
X45972914Y-20275000D01*
X46658068Y-20411285D01*
G36*
X38495592Y-29375000D02*
X38511281Y-29458380D01*
X38560559Y-29534960D01*
X38635747Y-29586334D01*
X38725000Y-29604408D01*
X38887615Y-29604408D01*
X38838865Y-29653073D01*
X38774636Y-29807752D01*
X38606163Y-29807606D01*
X38431518Y-29879768D01*
X38297781Y-30013271D01*
X38225314Y-30187790D01*
X38225150Y-30376757D01*
X38297312Y-30551402D01*
X38430815Y-30685139D01*
X38605334Y-30757606D01*
X38734373Y-30757718D01*
X38725082Y-30780092D01*
X38724918Y-30969059D01*
X38758362Y-31050000D01*
X38335003Y-31050000D01*
X38220198Y-31072836D01*
X38122871Y-31137868D01*
X36417508Y-32843230D01*
X36417502Y-32843238D01*
X35924956Y-32350692D01*
X35925082Y-32205931D01*
X35852920Y-32031286D01*
X35719417Y-31897549D01*
X35544898Y-31825082D01*
X35355931Y-31824918D01*
X35181286Y-31897080D01*
X35047549Y-32030583D01*
X34975082Y-32205102D01*
X34974918Y-32394069D01*
X35047080Y-32568714D01*
X35180583Y-32702451D01*
X35355102Y-32774918D01*
X35500780Y-32775044D01*
X35993239Y-33267503D01*
X35993231Y-33267509D01*
X33560738Y-35700001D01*
X31649999Y-35700001D01*
X31535194Y-35722837D01*
X31457053Y-35775049D01*
X31305931Y-35774918D01*
X31131286Y-35847080D01*
X30997549Y-35980583D01*
X30925082Y-36155102D01*
X30924918Y-36344069D01*
X30997080Y-36518714D01*
X31130583Y-36652451D01*
X31305102Y-36724918D01*
X31494069Y-36725082D01*
X31668714Y-36652920D01*
X31771814Y-36550000D01*
X32220592Y-36550000D01*
X32220592Y-36650000D01*
X32236281Y-36733380D01*
X32246507Y-36749271D01*
X32238666Y-36760747D01*
X32220592Y-36850000D01*
X32220592Y-37150000D01*
X32235293Y-37228131D01*
X32205000Y-37301266D01*
X32205000Y-37428750D01*
X32266250Y-37490000D01*
X32700000Y-37490000D01*
X32700000Y-37470000D01*
X32720000Y-37470000D01*
X32720000Y-37490000D01*
X32740000Y-37490000D01*
X32740000Y-37510000D01*
X32720000Y-37510000D01*
X32720000Y-37833750D01*
X32781250Y-37895000D01*
X33018733Y-37895000D01*
X33100469Y-37861144D01*
X33100747Y-37861334D01*
X33190000Y-37879408D01*
X33710000Y-37879408D01*
X33793380Y-37863719D01*
X33869960Y-37814441D01*
X33921334Y-37739253D01*
X33939408Y-37650000D01*
X33939408Y-37350000D01*
X33926753Y-37282744D01*
X33954805Y-37277164D01*
X34052132Y-37212132D01*
X34064264Y-37200000D01*
X34983153Y-37200000D01*
X34998293Y-37201706D01*
X35000000Y-37216852D01*
X35000000Y-37374532D01*
X35003314Y-37391192D01*
X35001886Y-37408119D01*
X35009407Y-37474874D01*
X35019643Y-37506990D01*
X35024356Y-37540373D01*
X35046544Y-37603782D01*
X35063671Y-37632816D01*
X35075692Y-37664308D01*
X35111433Y-37721189D01*
X35134592Y-37745685D01*
X35153318Y-37773710D01*
X35200821Y-37821213D01*
X35228846Y-37839939D01*
X35253342Y-37863098D01*
X35310224Y-37898839D01*
X35341714Y-37910859D01*
X35370749Y-37927987D01*
X35434158Y-37950175D01*
X35467534Y-37954887D01*
X35499652Y-37965124D01*
X35566409Y-37972645D01*
X35567622Y-37972543D01*
X34998046Y-38542119D01*
X32987150Y-38542119D01*
X32016281Y-37571250D01*
X32205000Y-37571250D01*
X32205000Y-37698734D01*
X32242299Y-37788782D01*
X32311219Y-37857701D01*
X32401267Y-37895000D01*
X32638750Y-37895000D01*
X32700000Y-37833750D01*
X32700000Y-37510000D01*
X32266250Y-37510000D01*
X32205000Y-37571250D01*
X32016281Y-37571250D01*
X29369962Y-34924931D01*
X29544069Y-34925082D01*
X29718714Y-34852920D01*
X29852451Y-34719417D01*
X29924918Y-34544898D01*
X29925044Y-34399220D01*
X31174264Y-33150000D01*
X33978311Y-33150000D01*
X34080583Y-33252451D01*
X34255102Y-33324918D01*
X34444069Y-33325082D01*
X34618714Y-33252920D01*
X34752451Y-33119417D01*
X34824918Y-32944898D01*
X34825082Y-32755931D01*
X34752920Y-32581286D01*
X34650000Y-32478186D01*
X34650000Y-31499264D01*
X36994856Y-29154408D01*
X37800000Y-29154408D01*
X37883380Y-29138719D01*
X37959960Y-29089441D01*
X38011334Y-29014253D01*
X38029408Y-28925000D01*
X38029408Y-28600000D01*
X38495592Y-28600000D01*
X38495592Y-29375000D01*
X38495592Y-29375000D01*
G37*
X38495592Y-29375000D02*
X38511281Y-29458380D01*
X38560559Y-29534960D01*
X38635747Y-29586334D01*
X38725000Y-29604408D01*
X38887615Y-29604408D01*
X38838865Y-29653073D01*
X38774636Y-29807752D01*
X38606163Y-29807606D01*
X38431518Y-29879768D01*
X38297781Y-30013271D01*
X38225314Y-30187790D01*
X38225150Y-30376757D01*
X38297312Y-30551402D01*
X38430815Y-30685139D01*
X38605334Y-30757606D01*
X38734373Y-30757718D01*
X38725082Y-30780092D01*
X38724918Y-30969059D01*
X38758362Y-31050000D01*
X38335003Y-31050000D01*
X38220198Y-31072836D01*
X38122871Y-31137868D01*
X36417508Y-32843230D01*
X36417502Y-32843238D01*
X35924956Y-32350692D01*
X35925082Y-32205931D01*
X35852920Y-32031286D01*
X35719417Y-31897549D01*
X35544898Y-31825082D01*
X35355931Y-31824918D01*
X35181286Y-31897080D01*
X35047549Y-32030583D01*
X34975082Y-32205102D01*
X34974918Y-32394069D01*
X35047080Y-32568714D01*
X35180583Y-32702451D01*
X35355102Y-32774918D01*
X35500780Y-32775044D01*
X35993239Y-33267503D01*
X35993231Y-33267509D01*
X33560738Y-35700001D01*
X31649999Y-35700001D01*
X31535194Y-35722837D01*
X31457053Y-35775049D01*
X31305931Y-35774918D01*
X31131286Y-35847080D01*
X30997549Y-35980583D01*
X30925082Y-36155102D01*
X30924918Y-36344069D01*
X30997080Y-36518714D01*
X31130583Y-36652451D01*
X31305102Y-36724918D01*
X31494069Y-36725082D01*
X31668714Y-36652920D01*
X31771814Y-36550000D01*
X32220592Y-36550000D01*
X32220592Y-36650000D01*
X32236281Y-36733380D01*
X32246507Y-36749271D01*
X32238666Y-36760747D01*
X32220592Y-36850000D01*
X32220592Y-37150000D01*
X32235293Y-37228131D01*
X32205000Y-37301266D01*
X32205000Y-37428750D01*
X32266250Y-37490000D01*
X32700000Y-37490000D01*
X32700000Y-37470000D01*
X32720000Y-37470000D01*
X32720000Y-37490000D01*
X32740000Y-37490000D01*
X32740000Y-37510000D01*
X32720000Y-37510000D01*
X32720000Y-37833750D01*
X32781250Y-37895000D01*
X33018733Y-37895000D01*
X33100469Y-37861144D01*
X33100747Y-37861334D01*
X33190000Y-37879408D01*
X33710000Y-37879408D01*
X33793380Y-37863719D01*
X33869960Y-37814441D01*
X33921334Y-37739253D01*
X33939408Y-37650000D01*
X33939408Y-37350000D01*
X33926753Y-37282744D01*
X33954805Y-37277164D01*
X34052132Y-37212132D01*
X34064264Y-37200000D01*
X34983153Y-37200000D01*
X34998293Y-37201706D01*
X35000000Y-37216852D01*
X35000000Y-37374532D01*
X35003314Y-37391192D01*
X35001886Y-37408119D01*
X35009407Y-37474874D01*
X35019643Y-37506990D01*
X35024356Y-37540373D01*
X35046544Y-37603782D01*
X35063671Y-37632816D01*
X35075692Y-37664308D01*
X35111433Y-37721189D01*
X35134592Y-37745685D01*
X35153318Y-37773710D01*
X35200821Y-37821213D01*
X35228846Y-37839939D01*
X35253342Y-37863098D01*
X35310224Y-37898839D01*
X35341714Y-37910859D01*
X35370749Y-37927987D01*
X35434158Y-37950175D01*
X35467534Y-37954887D01*
X35499652Y-37965124D01*
X35566409Y-37972645D01*
X35567622Y-37972543D01*
X34998046Y-38542119D01*
X32987150Y-38542119D01*
X32016281Y-37571250D01*
X32205000Y-37571250D01*
X32205000Y-37698734D01*
X32242299Y-37788782D01*
X32311219Y-37857701D01*
X32401267Y-37895000D01*
X32638750Y-37895000D01*
X32700000Y-37833750D01*
X32700000Y-37510000D01*
X32266250Y-37510000D01*
X32205000Y-37571250D01*
X32016281Y-37571250D01*
X29369962Y-34924931D01*
X29544069Y-34925082D01*
X29718714Y-34852920D01*
X29852451Y-34719417D01*
X29924918Y-34544898D01*
X29925044Y-34399220D01*
X31174264Y-33150000D01*
X33978311Y-33150000D01*
X34080583Y-33252451D01*
X34255102Y-33324918D01*
X34444069Y-33325082D01*
X34618714Y-33252920D01*
X34752451Y-33119417D01*
X34824918Y-32944898D01*
X34825082Y-32755931D01*
X34752920Y-32581286D01*
X34650000Y-32478186D01*
X34650000Y-31499264D01*
X36994856Y-29154408D01*
X37800000Y-29154408D01*
X37883380Y-29138719D01*
X37959960Y-29089441D01*
X38011334Y-29014253D01*
X38029408Y-28925000D01*
X38029408Y-28600000D01*
X38495592Y-28600000D01*
X38495592Y-29375000D01*
G36*
X43500000Y-30495592D02*
X43300000Y-30495592D01*
X43216620Y-30511281D01*
X43140040Y-30560559D01*
X43088666Y-30635747D01*
X43070592Y-30725000D01*
X43070592Y-31975000D01*
X43086281Y-32058380D01*
X43135559Y-32134960D01*
X43210747Y-32186334D01*
X43300000Y-32204408D01*
X43425001Y-32204408D01*
X43425001Y-33558344D01*
X43344898Y-33525082D01*
X43155931Y-33524918D01*
X42981286Y-33597080D01*
X42878186Y-33700000D01*
X42424264Y-33700000D01*
X40145514Y-31421250D01*
X41055000Y-31421250D01*
X41055000Y-32023733D01*
X41092299Y-32113781D01*
X41161218Y-32182701D01*
X41251266Y-32220000D01*
X41728750Y-32220000D01*
X41790000Y-32158750D01*
X41790000Y-31360000D01*
X41810000Y-31360000D01*
X41810000Y-32158750D01*
X41871250Y-32220000D01*
X42348734Y-32220000D01*
X42438782Y-32182701D01*
X42507701Y-32113781D01*
X42545000Y-32023733D01*
X42545000Y-31421250D01*
X42483750Y-31360000D01*
X41810000Y-31360000D01*
X41790000Y-31360000D01*
X41116250Y-31360000D01*
X41055000Y-31421250D01*
X40145514Y-31421250D01*
X39674935Y-30950671D01*
X39675082Y-30780921D01*
X39662304Y-30749996D01*
X41055000Y-30749996D01*
X41055000Y-31278750D01*
X41116250Y-31340000D01*
X41790000Y-31340000D01*
X41790000Y-31320000D01*
X41810000Y-31320000D01*
X41810000Y-31340000D01*
X42483750Y-31340000D01*
X42545000Y-31278750D01*
X42545000Y-30676267D01*
X42516589Y-30607675D01*
X42849308Y-30274956D01*
X42994069Y-30275082D01*
X43168714Y-30202920D01*
X43302451Y-30069417D01*
X43374918Y-29894898D01*
X43375082Y-29705931D01*
X43333133Y-29604408D01*
X43500000Y-29604408D01*
X43500000Y-30495592D01*
X43500000Y-30495592D01*
G37*
X43500000Y-30495592D02*
X43300000Y-30495592D01*
X43216620Y-30511281D01*
X43140040Y-30560559D01*
X43088666Y-30635747D01*
X43070592Y-30725000D01*
X43070592Y-31975000D01*
X43086281Y-32058380D01*
X43135559Y-32134960D01*
X43210747Y-32186334D01*
X43300000Y-32204408D01*
X43425001Y-32204408D01*
X43425001Y-33558344D01*
X43344898Y-33525082D01*
X43155931Y-33524918D01*
X42981286Y-33597080D01*
X42878186Y-33700000D01*
X42424264Y-33700000D01*
X40145514Y-31421250D01*
X41055000Y-31421250D01*
X41055000Y-32023733D01*
X41092299Y-32113781D01*
X41161218Y-32182701D01*
X41251266Y-32220000D01*
X41728750Y-32220000D01*
X41790000Y-32158750D01*
X41790000Y-31360000D01*
X41810000Y-31360000D01*
X41810000Y-32158750D01*
X41871250Y-32220000D01*
X42348734Y-32220000D01*
X42438782Y-32182701D01*
X42507701Y-32113781D01*
X42545000Y-32023733D01*
X42545000Y-31421250D01*
X42483750Y-31360000D01*
X41810000Y-31360000D01*
X41790000Y-31360000D01*
X41116250Y-31360000D01*
X41055000Y-31421250D01*
X40145514Y-31421250D01*
X39674935Y-30950671D01*
X39675082Y-30780921D01*
X39662304Y-30749996D01*
X41055000Y-30749996D01*
X41055000Y-31278750D01*
X41116250Y-31340000D01*
X41790000Y-31340000D01*
X41790000Y-31320000D01*
X41810000Y-31320000D01*
X41810000Y-31340000D01*
X42483750Y-31340000D01*
X42545000Y-31278750D01*
X42545000Y-30676267D01*
X42516589Y-30607675D01*
X42849308Y-30274956D01*
X42994069Y-30275082D01*
X43168714Y-30202920D01*
X43302451Y-30069417D01*
X43374918Y-29894898D01*
X43375082Y-29705931D01*
X43333133Y-29604408D01*
X43500000Y-29604408D01*
X43500000Y-30495592D01*
M02*
