G04 #@! TF.FileFunction,Legend,Bot*
%FSLAX46Y46*%
G04 Gerber Fmt 4.6, Leading zero omitted, Abs format (unit mm)*
G04 Created by KiCad (PCBNEW 4.0.2-stable) date Monday, November 20, 2017 'PMt' 10:43:05 PM*
%MOMM*%
G01*
G04 APERTURE LIST*
%ADD10C,0.100000*%
%ADD11C,0.300000*%
%ADD12C,0.120000*%
%ADD13C,0.127000*%
%ADD14C,0.150000*%
G04 APERTURE END LIST*
D10*
D11*
X123535714Y-92678571D02*
X123535714Y-91178571D01*
X122678571Y-92678571D01*
X122678571Y-91178571D01*
X121964285Y-91892857D02*
X121464285Y-91892857D01*
X121249999Y-92678571D02*
X121964285Y-92678571D01*
X121964285Y-91178571D01*
X121249999Y-91178571D01*
X120321428Y-91178571D02*
X120035714Y-91178571D01*
X119892856Y-91250000D01*
X119749999Y-91392857D01*
X119678571Y-91678571D01*
X119678571Y-92178571D01*
X119749999Y-92464286D01*
X119892856Y-92607143D01*
X120035714Y-92678571D01*
X120321428Y-92678571D01*
X120464285Y-92607143D01*
X120607142Y-92464286D01*
X120678571Y-92178571D01*
X120678571Y-91678571D01*
X120607142Y-91392857D01*
X120464285Y-91250000D01*
X120321428Y-91178571D01*
X119035713Y-92678571D02*
X119035713Y-91178571D01*
X118535713Y-92250000D01*
X118035713Y-91178571D01*
X118035713Y-92678571D01*
X115892856Y-91178571D02*
X115749999Y-91178571D01*
X115607142Y-91250000D01*
X115535713Y-91321429D01*
X115464284Y-91464286D01*
X115392856Y-91750000D01*
X115392856Y-92107143D01*
X115464284Y-92392857D01*
X115535713Y-92535714D01*
X115607142Y-92607143D01*
X115749999Y-92678571D01*
X115892856Y-92678571D01*
X116035713Y-92607143D01*
X116107142Y-92535714D01*
X116178570Y-92392857D01*
X116249999Y-92107143D01*
X116249999Y-91750000D01*
X116178570Y-91464286D01*
X116107142Y-91321429D01*
X116035713Y-91250000D01*
X115892856Y-91178571D01*
D12*
X119150000Y-106450000D02*
X118150000Y-106450000D01*
X118150000Y-104750000D02*
X119150000Y-104750000D01*
X124610000Y-102560000D02*
X123610000Y-102560000D01*
X123610000Y-100860000D02*
X124610000Y-100860000D01*
D13*
X112290000Y-89820000D02*
X112071560Y-89840320D01*
X112071560Y-89840320D02*
X111855660Y-89898740D01*
X111855660Y-89898740D02*
X111655000Y-89990180D01*
X111655000Y-89990180D02*
X111474660Y-90117180D01*
X111474660Y-90117180D02*
X111317180Y-90274660D01*
X111317180Y-90274660D02*
X111190180Y-90455000D01*
X111190180Y-90455000D02*
X111098740Y-90655660D01*
X111098740Y-90655660D02*
X111040320Y-90871560D01*
X111040320Y-90871560D02*
X111020000Y-91090000D01*
X111020000Y-91090000D02*
X111040320Y-91308440D01*
X111040320Y-91308440D02*
X111098740Y-91524340D01*
X111098740Y-91524340D02*
X111190180Y-91725000D01*
X111190180Y-91725000D02*
X111317180Y-91905340D01*
X111317180Y-91905340D02*
X111474660Y-92062820D01*
X111474660Y-92062820D02*
X111655000Y-92189820D01*
X111655000Y-92189820D02*
X111855660Y-92281260D01*
X111855660Y-92281260D02*
X112071560Y-92339680D01*
X112071560Y-92339680D02*
X112290000Y-92360000D01*
X112290000Y-92360000D02*
X112508440Y-92339680D01*
X112508440Y-92339680D02*
X112724340Y-92281260D01*
X112724340Y-92281260D02*
X112925000Y-92189820D01*
X112925000Y-92189820D02*
X113105340Y-92062820D01*
X113105340Y-92062820D02*
X113262820Y-91905340D01*
X113262820Y-91905340D02*
X113389820Y-91725000D01*
X113389820Y-91725000D02*
X113481260Y-91524340D01*
X113481260Y-91524340D02*
X113539680Y-91308440D01*
X113539680Y-91308440D02*
X113560000Y-91090000D01*
X113560000Y-91090000D02*
X113539680Y-90871560D01*
X113539680Y-90871560D02*
X113481260Y-90655660D01*
X113481260Y-90655660D02*
X113389820Y-90455000D01*
X113389820Y-90455000D02*
X113262820Y-90274660D01*
X113262820Y-90274660D02*
X113105340Y-90117180D01*
X113105340Y-90117180D02*
X112925000Y-89990180D01*
X112925000Y-89990180D02*
X112724340Y-89898740D01*
X112724340Y-89898740D02*
X112508440Y-89840320D01*
X112508440Y-89840320D02*
X112290000Y-89820000D01*
X112290000Y-89820000D02*
X112071560Y-89840320D01*
X112071560Y-89840320D02*
X111855660Y-89898740D01*
X111855660Y-89898740D02*
X111655000Y-89990180D01*
X111655000Y-89990180D02*
X111474660Y-90117180D01*
X111474660Y-90117180D02*
X111317180Y-90274660D01*
X111317180Y-90274660D02*
X111190180Y-90455000D01*
X111190180Y-90455000D02*
X111098740Y-90655660D01*
X111098740Y-90655660D02*
X111040320Y-90871560D01*
X111040320Y-90871560D02*
X111020000Y-91090000D01*
X111020000Y-91090000D02*
X111040320Y-91308440D01*
X111040320Y-91308440D02*
X111098740Y-91524340D01*
X111098740Y-91524340D02*
X111190180Y-91725000D01*
X111190180Y-91725000D02*
X111317180Y-91905340D01*
X111317180Y-91905340D02*
X111474660Y-92062820D01*
X111474660Y-92062820D02*
X111655000Y-92189820D01*
X111655000Y-92189820D02*
X111855660Y-92281260D01*
X111855660Y-92281260D02*
X112071560Y-92339680D01*
X112071560Y-92339680D02*
X112290000Y-92360000D01*
X112290000Y-92360000D02*
X112508440Y-92339680D01*
X112508440Y-92339680D02*
X112724340Y-92281260D01*
X112724340Y-92281260D02*
X112925000Y-92189820D01*
X112925000Y-92189820D02*
X113105340Y-92062820D01*
X113105340Y-92062820D02*
X113262820Y-91905340D01*
X113262820Y-91905340D02*
X113389820Y-91725000D01*
X113389820Y-91725000D02*
X113481260Y-91524340D01*
X113481260Y-91524340D02*
X113539680Y-91308440D01*
X113539680Y-91308440D02*
X113560000Y-91090000D01*
X113560000Y-91090000D02*
X113539680Y-90871560D01*
X113539680Y-90871560D02*
X113481260Y-90655660D01*
X113481260Y-90655660D02*
X113389820Y-90455000D01*
X113389820Y-90455000D02*
X113262820Y-90274660D01*
X113262820Y-90274660D02*
X113105340Y-90117180D01*
X113105340Y-90117180D02*
X112925000Y-89990180D01*
X112925000Y-89990180D02*
X112724340Y-89898740D01*
X112724340Y-89898740D02*
X112508440Y-89840320D01*
X112508440Y-89840320D02*
X112290000Y-89820000D01*
X112290000Y-89820000D02*
X112071560Y-89840320D01*
X112071560Y-89840320D02*
X111855660Y-89898740D01*
X111855660Y-89898740D02*
X111655000Y-89990180D01*
X111655000Y-89990180D02*
X111474660Y-90117180D01*
X111474660Y-90117180D02*
X111317180Y-90274660D01*
X111317180Y-90274660D02*
X111190180Y-90455000D01*
X111190180Y-90455000D02*
X111098740Y-90655660D01*
X111098740Y-90655660D02*
X111040320Y-90871560D01*
X111040320Y-90871560D02*
X111020000Y-91090000D01*
X111020000Y-91090000D02*
X111040320Y-91308440D01*
X111040320Y-91308440D02*
X111098740Y-91524340D01*
X111098740Y-91524340D02*
X111190180Y-91725000D01*
X111190180Y-91725000D02*
X111317180Y-91905340D01*
X111317180Y-91905340D02*
X111474660Y-92062820D01*
X111474660Y-92062820D02*
X111655000Y-92189820D01*
X111655000Y-92189820D02*
X111855660Y-92281260D01*
X111855660Y-92281260D02*
X112071560Y-92339680D01*
X112071560Y-92339680D02*
X112290000Y-92360000D01*
X112290000Y-92360000D02*
X112508440Y-92339680D01*
X112508440Y-92339680D02*
X112724340Y-92281260D01*
X112724340Y-92281260D02*
X112925000Y-92189820D01*
X112925000Y-92189820D02*
X113105340Y-92062820D01*
X113105340Y-92062820D02*
X113262820Y-91905340D01*
X113262820Y-91905340D02*
X113389820Y-91725000D01*
X113389820Y-91725000D02*
X113481260Y-91524340D01*
X113481260Y-91524340D02*
X113539680Y-91308440D01*
X113539680Y-91308440D02*
X113560000Y-91090000D01*
X113560000Y-91090000D02*
X113539680Y-90871560D01*
X113539680Y-90871560D02*
X113481260Y-90655660D01*
X113481260Y-90655660D02*
X113389820Y-90455000D01*
X113389820Y-90455000D02*
X113262820Y-90274660D01*
X113262820Y-90274660D02*
X113105340Y-90117180D01*
X113105340Y-90117180D02*
X112925000Y-89990180D01*
X112925000Y-89990180D02*
X112724340Y-89898740D01*
X112724340Y-89898740D02*
X112508440Y-89840320D01*
X112508440Y-89840320D02*
X112290000Y-89820000D01*
X112290000Y-89820000D02*
X112071560Y-89840320D01*
X112071560Y-89840320D02*
X111855660Y-89898740D01*
X111855660Y-89898740D02*
X111655000Y-89990180D01*
X111655000Y-89990180D02*
X111474660Y-90117180D01*
X111474660Y-90117180D02*
X111317180Y-90274660D01*
X111317180Y-90274660D02*
X111190180Y-90455000D01*
X111190180Y-90455000D02*
X111098740Y-90655660D01*
X111098740Y-90655660D02*
X111040320Y-90871560D01*
X111040320Y-90871560D02*
X111020000Y-91090000D01*
X111020000Y-91090000D02*
X111040320Y-91308440D01*
X111040320Y-91308440D02*
X111098740Y-91524340D01*
X111098740Y-91524340D02*
X111190180Y-91725000D01*
X111190180Y-91725000D02*
X111317180Y-91905340D01*
X111317180Y-91905340D02*
X111474660Y-92062820D01*
X111474660Y-92062820D02*
X111655000Y-92189820D01*
X111655000Y-92189820D02*
X111855660Y-92281260D01*
X111855660Y-92281260D02*
X112071560Y-92339680D01*
X112071560Y-92339680D02*
X112290000Y-92360000D01*
X112290000Y-92360000D02*
X112508440Y-92339680D01*
X112508440Y-92339680D02*
X112724340Y-92281260D01*
X112724340Y-92281260D02*
X112925000Y-92189820D01*
X112925000Y-92189820D02*
X113105340Y-92062820D01*
X113105340Y-92062820D02*
X113262820Y-91905340D01*
X113262820Y-91905340D02*
X113389820Y-91725000D01*
X113389820Y-91725000D02*
X113481260Y-91524340D01*
X113481260Y-91524340D02*
X113539680Y-91308440D01*
X113539680Y-91308440D02*
X113560000Y-91090000D01*
X113560000Y-91090000D02*
X113539680Y-90871560D01*
X113539680Y-90871560D02*
X113481260Y-90655660D01*
X113481260Y-90655660D02*
X113389820Y-90455000D01*
X113389820Y-90455000D02*
X113262820Y-90274660D01*
X113262820Y-90274660D02*
X113105340Y-90117180D01*
X113105340Y-90117180D02*
X112925000Y-89990180D01*
X112925000Y-89990180D02*
X112724340Y-89898740D01*
X112724340Y-89898740D02*
X112508440Y-89840320D01*
X112508440Y-89840320D02*
X112290000Y-89820000D01*
D12*
X116220000Y-107720000D02*
X116220000Y-106520000D01*
X114460000Y-106520000D02*
X114460000Y-107720000D01*
D10*
X134800000Y-89740000D02*
X134510000Y-89750000D01*
X134860000Y-100190000D02*
X134790000Y-89750000D01*
X125530000Y-100190000D02*
X134860000Y-100190000D01*
X125380000Y-89830000D02*
X125530000Y-100110000D01*
X134570000Y-89760000D02*
X125420000Y-89760000D01*
D14*
X118816666Y-107457143D02*
X118864285Y-107504762D01*
X119007142Y-107552381D01*
X119102380Y-107552381D01*
X119245238Y-107504762D01*
X119340476Y-107409524D01*
X119388095Y-107314286D01*
X119435714Y-107123810D01*
X119435714Y-106980952D01*
X119388095Y-106790476D01*
X119340476Y-106695238D01*
X119245238Y-106600000D01*
X119102380Y-106552381D01*
X119007142Y-106552381D01*
X118864285Y-106600000D01*
X118816666Y-106647619D01*
X118483333Y-106552381D02*
X117864285Y-106552381D01*
X118197619Y-106933333D01*
X118054761Y-106933333D01*
X117959523Y-106980952D01*
X117911904Y-107028571D01*
X117864285Y-107123810D01*
X117864285Y-107361905D01*
X117911904Y-107457143D01*
X117959523Y-107504762D01*
X118054761Y-107552381D01*
X118340476Y-107552381D01*
X118435714Y-107504762D01*
X118483333Y-107457143D01*
X124276666Y-103567143D02*
X124324285Y-103614762D01*
X124467142Y-103662381D01*
X124562380Y-103662381D01*
X124705238Y-103614762D01*
X124800476Y-103519524D01*
X124848095Y-103424286D01*
X124895714Y-103233810D01*
X124895714Y-103090952D01*
X124848095Y-102900476D01*
X124800476Y-102805238D01*
X124705238Y-102710000D01*
X124562380Y-102662381D01*
X124467142Y-102662381D01*
X124324285Y-102710000D01*
X124276666Y-102757619D01*
X123419523Y-102995714D02*
X123419523Y-103662381D01*
X123657619Y-102614762D02*
X123895714Y-103329048D01*
X123276666Y-103329048D01*
D13*
X113186257Y-93013143D02*
X113457190Y-93013143D01*
X113457190Y-93438895D02*
X113457190Y-92626095D01*
X113070143Y-92626095D01*
X112760504Y-93438895D02*
X112760504Y-92626095D01*
X112373456Y-93438895D02*
X112373456Y-92626095D01*
X112179932Y-92626095D01*
X112063818Y-92664800D01*
X111986409Y-92742210D01*
X111947704Y-92819619D01*
X111908999Y-92974438D01*
X111908999Y-93090552D01*
X111947704Y-93245371D01*
X111986409Y-93322781D01*
X112063818Y-93400190D01*
X112179932Y-93438895D01*
X112373456Y-93438895D01*
X111134904Y-93438895D02*
X111599361Y-93438895D01*
X111367132Y-93438895D02*
X111367132Y-92626095D01*
X111444542Y-92742210D01*
X111521951Y-92819619D01*
X111599361Y-92858324D01*
D14*
X114142381Y-106953334D02*
X113666190Y-106620000D01*
X114142381Y-106381905D02*
X113142381Y-106381905D01*
X113142381Y-106762858D01*
X113190000Y-106858096D01*
X113237619Y-106905715D01*
X113332857Y-106953334D01*
X113475714Y-106953334D01*
X113570952Y-106905715D01*
X113618571Y-106858096D01*
X113666190Y-106762858D01*
X113666190Y-106381905D01*
X113142381Y-107286667D02*
X113142381Y-107905715D01*
X113523333Y-107572381D01*
X113523333Y-107715239D01*
X113570952Y-107810477D01*
X113618571Y-107858096D01*
X113713810Y-107905715D01*
X113951905Y-107905715D01*
X114047143Y-107858096D01*
X114094762Y-107810477D01*
X114142381Y-107715239D01*
X114142381Y-107429524D01*
X114094762Y-107334286D01*
X114047143Y-107286667D01*
X130801905Y-102902381D02*
X130801905Y-103711905D01*
X130754286Y-103807143D01*
X130706667Y-103854762D01*
X130611429Y-103902381D01*
X130420952Y-103902381D01*
X130325714Y-103854762D01*
X130278095Y-103807143D01*
X130230476Y-103711905D01*
X130230476Y-102902381D01*
X129230476Y-103902381D02*
X129801905Y-103902381D01*
X129516191Y-103902381D02*
X129516191Y-102902381D01*
X129611429Y-103045238D01*
X129706667Y-103140476D01*
X129801905Y-103188095D01*
M02*
