G04 #@! TF.FileFunction,Legend,Bot*
%FSLAX46Y46*%
G04 Gerber Fmt 4.6, Leading zero omitted, Abs format (unit mm)*
G04 Created by KiCad (PCBNEW 4.0.2-stable) date Friday, November 24, 2017 'AMt' 07:28:29 AM*
%MOMM*%
G01*
G04 APERTURE LIST*
%ADD10C,0.100000*%
%ADD11C,0.300000*%
%ADD12C,0.120000*%
%ADD13C,0.127000*%
%ADD14C,0.010000*%
%ADD15C,0.150000*%
G04 APERTURE END LIST*
D10*
X121991429Y-94222381D02*
X121991429Y-93222381D01*
X121610476Y-93222381D01*
X121515238Y-93270000D01*
X121467619Y-93317619D01*
X121420000Y-93412857D01*
X121420000Y-93555714D01*
X121467619Y-93650952D01*
X121515238Y-93698571D01*
X121610476Y-93746190D01*
X121991429Y-93746190D01*
X120991429Y-94222381D02*
X120991429Y-93555714D01*
X120991429Y-93746190D02*
X120943810Y-93650952D01*
X120896191Y-93603333D01*
X120800953Y-93555714D01*
X120705714Y-93555714D01*
X120229524Y-94222381D02*
X120324762Y-94174762D01*
X120372381Y-94127143D01*
X120420000Y-94031905D01*
X120420000Y-93746190D01*
X120372381Y-93650952D01*
X120324762Y-93603333D01*
X120229524Y-93555714D01*
X120086666Y-93555714D01*
X119991428Y-93603333D01*
X119943809Y-93650952D01*
X119896190Y-93746190D01*
X119896190Y-94031905D01*
X119943809Y-94127143D01*
X119991428Y-94174762D01*
X120086666Y-94222381D01*
X120229524Y-94222381D01*
X119039047Y-93555714D02*
X119039047Y-94222381D01*
X119467619Y-93555714D02*
X119467619Y-94079524D01*
X119420000Y-94174762D01*
X119324762Y-94222381D01*
X119181904Y-94222381D01*
X119086666Y-94174762D01*
X119039047Y-94127143D01*
X118134285Y-94222381D02*
X118134285Y-93222381D01*
X118134285Y-94174762D02*
X118229523Y-94222381D01*
X118420000Y-94222381D01*
X118515238Y-94174762D01*
X118562857Y-94127143D01*
X118610476Y-94031905D01*
X118610476Y-93746190D01*
X118562857Y-93650952D01*
X118515238Y-93603333D01*
X118420000Y-93555714D01*
X118229523Y-93555714D01*
X118134285Y-93603333D01*
X117515238Y-94222381D02*
X117610476Y-94174762D01*
X117658095Y-94079524D01*
X117658095Y-93222381D01*
X117229523Y-93555714D02*
X116991428Y-94222381D01*
X116753332Y-93555714D02*
X116991428Y-94222381D01*
X117086666Y-94460476D01*
X117134285Y-94508095D01*
X117229523Y-94555714D01*
X123610476Y-95722381D02*
X123610476Y-94722381D01*
X123372381Y-94722381D01*
X123229523Y-94770000D01*
X123134285Y-94865238D01*
X123086666Y-94960476D01*
X123039047Y-95150952D01*
X123039047Y-95293810D01*
X123086666Y-95484286D01*
X123134285Y-95579524D01*
X123229523Y-95674762D01*
X123372381Y-95722381D01*
X123610476Y-95722381D01*
X122229523Y-95674762D02*
X122324761Y-95722381D01*
X122515238Y-95722381D01*
X122610476Y-95674762D01*
X122658095Y-95579524D01*
X122658095Y-95198571D01*
X122610476Y-95103333D01*
X122515238Y-95055714D01*
X122324761Y-95055714D01*
X122229523Y-95103333D01*
X122181904Y-95198571D01*
X122181904Y-95293810D01*
X122658095Y-95389048D01*
X121800952Y-95674762D02*
X121705714Y-95722381D01*
X121515238Y-95722381D01*
X121419999Y-95674762D01*
X121372380Y-95579524D01*
X121372380Y-95531905D01*
X121419999Y-95436667D01*
X121515238Y-95389048D01*
X121658095Y-95389048D01*
X121753333Y-95341429D01*
X121800952Y-95246190D01*
X121800952Y-95198571D01*
X121753333Y-95103333D01*
X121658095Y-95055714D01*
X121515238Y-95055714D01*
X121419999Y-95103333D01*
X120943809Y-95722381D02*
X120943809Y-95055714D01*
X120943809Y-94722381D02*
X120991428Y-94770000D01*
X120943809Y-94817619D01*
X120896190Y-94770000D01*
X120943809Y-94722381D01*
X120943809Y-94817619D01*
X120039047Y-95055714D02*
X120039047Y-95865238D01*
X120086666Y-95960476D01*
X120134285Y-96008095D01*
X120229524Y-96055714D01*
X120372381Y-96055714D01*
X120467619Y-96008095D01*
X120039047Y-95674762D02*
X120134285Y-95722381D01*
X120324762Y-95722381D01*
X120420000Y-95674762D01*
X120467619Y-95627143D01*
X120515238Y-95531905D01*
X120515238Y-95246190D01*
X120467619Y-95150952D01*
X120420000Y-95103333D01*
X120324762Y-95055714D01*
X120134285Y-95055714D01*
X120039047Y-95103333D01*
X119562857Y-95055714D02*
X119562857Y-95722381D01*
X119562857Y-95150952D02*
X119515238Y-95103333D01*
X119420000Y-95055714D01*
X119277142Y-95055714D01*
X119181904Y-95103333D01*
X119134285Y-95198571D01*
X119134285Y-95722381D01*
X118277142Y-95674762D02*
X118372380Y-95722381D01*
X118562857Y-95722381D01*
X118658095Y-95674762D01*
X118705714Y-95579524D01*
X118705714Y-95198571D01*
X118658095Y-95103333D01*
X118562857Y-95055714D01*
X118372380Y-95055714D01*
X118277142Y-95103333D01*
X118229523Y-95198571D01*
X118229523Y-95293810D01*
X118705714Y-95389048D01*
X117372380Y-95722381D02*
X117372380Y-94722381D01*
X117372380Y-95674762D02*
X117467618Y-95722381D01*
X117658095Y-95722381D01*
X117753333Y-95674762D01*
X117800952Y-95627143D01*
X117848571Y-95531905D01*
X117848571Y-95246190D01*
X117800952Y-95150952D01*
X117753333Y-95103333D01*
X117658095Y-95055714D01*
X117467618Y-95055714D01*
X117372380Y-95103333D01*
X116134285Y-95722381D02*
X116134285Y-95055714D01*
X116134285Y-94722381D02*
X116181904Y-94770000D01*
X116134285Y-94817619D01*
X116086666Y-94770000D01*
X116134285Y-94722381D01*
X116134285Y-94817619D01*
X115658095Y-95055714D02*
X115658095Y-95722381D01*
X115658095Y-95150952D02*
X115610476Y-95103333D01*
X115515238Y-95055714D01*
X115372380Y-95055714D01*
X115277142Y-95103333D01*
X115229523Y-95198571D01*
X115229523Y-95722381D01*
D11*
X123535714Y-92678571D02*
X123535714Y-91178571D01*
X122678571Y-92678571D01*
X122678571Y-91178571D01*
X121964285Y-91892857D02*
X121464285Y-91892857D01*
X121249999Y-92678571D02*
X121964285Y-92678571D01*
X121964285Y-91178571D01*
X121249999Y-91178571D01*
X120321428Y-91178571D02*
X120035714Y-91178571D01*
X119892856Y-91250000D01*
X119749999Y-91392857D01*
X119678571Y-91678571D01*
X119678571Y-92178571D01*
X119749999Y-92464286D01*
X119892856Y-92607143D01*
X120035714Y-92678571D01*
X120321428Y-92678571D01*
X120464285Y-92607143D01*
X120607142Y-92464286D01*
X120678571Y-92178571D01*
X120678571Y-91678571D01*
X120607142Y-91392857D01*
X120464285Y-91250000D01*
X120321428Y-91178571D01*
X119035713Y-92678571D02*
X119035713Y-91178571D01*
X118535713Y-92250000D01*
X118035713Y-91178571D01*
X118035713Y-92678571D01*
X115892856Y-91178571D02*
X115749999Y-91178571D01*
X115607142Y-91250000D01*
X115535713Y-91321429D01*
X115464284Y-91464286D01*
X115392856Y-91750000D01*
X115392856Y-92107143D01*
X115464284Y-92392857D01*
X115535713Y-92535714D01*
X115607142Y-92607143D01*
X115749999Y-92678571D01*
X115892856Y-92678571D01*
X116035713Y-92607143D01*
X116107142Y-92535714D01*
X116178570Y-92392857D01*
X116249999Y-92107143D01*
X116249999Y-91750000D01*
X116178570Y-91464286D01*
X116107142Y-91321429D01*
X116035713Y-91250000D01*
X115892856Y-91178571D01*
D12*
X119150000Y-106450000D02*
X118150000Y-106450000D01*
X118150000Y-104750000D02*
X119150000Y-104750000D01*
X124610000Y-102560000D02*
X123610000Y-102560000D01*
X123610000Y-100860000D02*
X124610000Y-100860000D01*
D13*
X112290000Y-89820000D02*
X112071560Y-89840320D01*
X112071560Y-89840320D02*
X111855660Y-89898740D01*
X111855660Y-89898740D02*
X111655000Y-89990180D01*
X111655000Y-89990180D02*
X111474660Y-90117180D01*
X111474660Y-90117180D02*
X111317180Y-90274660D01*
X111317180Y-90274660D02*
X111190180Y-90455000D01*
X111190180Y-90455000D02*
X111098740Y-90655660D01*
X111098740Y-90655660D02*
X111040320Y-90871560D01*
X111040320Y-90871560D02*
X111020000Y-91090000D01*
X111020000Y-91090000D02*
X111040320Y-91308440D01*
X111040320Y-91308440D02*
X111098740Y-91524340D01*
X111098740Y-91524340D02*
X111190180Y-91725000D01*
X111190180Y-91725000D02*
X111317180Y-91905340D01*
X111317180Y-91905340D02*
X111474660Y-92062820D01*
X111474660Y-92062820D02*
X111655000Y-92189820D01*
X111655000Y-92189820D02*
X111855660Y-92281260D01*
X111855660Y-92281260D02*
X112071560Y-92339680D01*
X112071560Y-92339680D02*
X112290000Y-92360000D01*
X112290000Y-92360000D02*
X112508440Y-92339680D01*
X112508440Y-92339680D02*
X112724340Y-92281260D01*
X112724340Y-92281260D02*
X112925000Y-92189820D01*
X112925000Y-92189820D02*
X113105340Y-92062820D01*
X113105340Y-92062820D02*
X113262820Y-91905340D01*
X113262820Y-91905340D02*
X113389820Y-91725000D01*
X113389820Y-91725000D02*
X113481260Y-91524340D01*
X113481260Y-91524340D02*
X113539680Y-91308440D01*
X113539680Y-91308440D02*
X113560000Y-91090000D01*
X113560000Y-91090000D02*
X113539680Y-90871560D01*
X113539680Y-90871560D02*
X113481260Y-90655660D01*
X113481260Y-90655660D02*
X113389820Y-90455000D01*
X113389820Y-90455000D02*
X113262820Y-90274660D01*
X113262820Y-90274660D02*
X113105340Y-90117180D01*
X113105340Y-90117180D02*
X112925000Y-89990180D01*
X112925000Y-89990180D02*
X112724340Y-89898740D01*
X112724340Y-89898740D02*
X112508440Y-89840320D01*
X112508440Y-89840320D02*
X112290000Y-89820000D01*
X112290000Y-89820000D02*
X112071560Y-89840320D01*
X112071560Y-89840320D02*
X111855660Y-89898740D01*
X111855660Y-89898740D02*
X111655000Y-89990180D01*
X111655000Y-89990180D02*
X111474660Y-90117180D01*
X111474660Y-90117180D02*
X111317180Y-90274660D01*
X111317180Y-90274660D02*
X111190180Y-90455000D01*
X111190180Y-90455000D02*
X111098740Y-90655660D01*
X111098740Y-90655660D02*
X111040320Y-90871560D01*
X111040320Y-90871560D02*
X111020000Y-91090000D01*
X111020000Y-91090000D02*
X111040320Y-91308440D01*
X111040320Y-91308440D02*
X111098740Y-91524340D01*
X111098740Y-91524340D02*
X111190180Y-91725000D01*
X111190180Y-91725000D02*
X111317180Y-91905340D01*
X111317180Y-91905340D02*
X111474660Y-92062820D01*
X111474660Y-92062820D02*
X111655000Y-92189820D01*
X111655000Y-92189820D02*
X111855660Y-92281260D01*
X111855660Y-92281260D02*
X112071560Y-92339680D01*
X112071560Y-92339680D02*
X112290000Y-92360000D01*
X112290000Y-92360000D02*
X112508440Y-92339680D01*
X112508440Y-92339680D02*
X112724340Y-92281260D01*
X112724340Y-92281260D02*
X112925000Y-92189820D01*
X112925000Y-92189820D02*
X113105340Y-92062820D01*
X113105340Y-92062820D02*
X113262820Y-91905340D01*
X113262820Y-91905340D02*
X113389820Y-91725000D01*
X113389820Y-91725000D02*
X113481260Y-91524340D01*
X113481260Y-91524340D02*
X113539680Y-91308440D01*
X113539680Y-91308440D02*
X113560000Y-91090000D01*
X113560000Y-91090000D02*
X113539680Y-90871560D01*
X113539680Y-90871560D02*
X113481260Y-90655660D01*
X113481260Y-90655660D02*
X113389820Y-90455000D01*
X113389820Y-90455000D02*
X113262820Y-90274660D01*
X113262820Y-90274660D02*
X113105340Y-90117180D01*
X113105340Y-90117180D02*
X112925000Y-89990180D01*
X112925000Y-89990180D02*
X112724340Y-89898740D01*
X112724340Y-89898740D02*
X112508440Y-89840320D01*
X112508440Y-89840320D02*
X112290000Y-89820000D01*
X112290000Y-89820000D02*
X112071560Y-89840320D01*
X112071560Y-89840320D02*
X111855660Y-89898740D01*
X111855660Y-89898740D02*
X111655000Y-89990180D01*
X111655000Y-89990180D02*
X111474660Y-90117180D01*
X111474660Y-90117180D02*
X111317180Y-90274660D01*
X111317180Y-90274660D02*
X111190180Y-90455000D01*
X111190180Y-90455000D02*
X111098740Y-90655660D01*
X111098740Y-90655660D02*
X111040320Y-90871560D01*
X111040320Y-90871560D02*
X111020000Y-91090000D01*
X111020000Y-91090000D02*
X111040320Y-91308440D01*
X111040320Y-91308440D02*
X111098740Y-91524340D01*
X111098740Y-91524340D02*
X111190180Y-91725000D01*
X111190180Y-91725000D02*
X111317180Y-91905340D01*
X111317180Y-91905340D02*
X111474660Y-92062820D01*
X111474660Y-92062820D02*
X111655000Y-92189820D01*
X111655000Y-92189820D02*
X111855660Y-92281260D01*
X111855660Y-92281260D02*
X112071560Y-92339680D01*
X112071560Y-92339680D02*
X112290000Y-92360000D01*
X112290000Y-92360000D02*
X112508440Y-92339680D01*
X112508440Y-92339680D02*
X112724340Y-92281260D01*
X112724340Y-92281260D02*
X112925000Y-92189820D01*
X112925000Y-92189820D02*
X113105340Y-92062820D01*
X113105340Y-92062820D02*
X113262820Y-91905340D01*
X113262820Y-91905340D02*
X113389820Y-91725000D01*
X113389820Y-91725000D02*
X113481260Y-91524340D01*
X113481260Y-91524340D02*
X113539680Y-91308440D01*
X113539680Y-91308440D02*
X113560000Y-91090000D01*
X113560000Y-91090000D02*
X113539680Y-90871560D01*
X113539680Y-90871560D02*
X113481260Y-90655660D01*
X113481260Y-90655660D02*
X113389820Y-90455000D01*
X113389820Y-90455000D02*
X113262820Y-90274660D01*
X113262820Y-90274660D02*
X113105340Y-90117180D01*
X113105340Y-90117180D02*
X112925000Y-89990180D01*
X112925000Y-89990180D02*
X112724340Y-89898740D01*
X112724340Y-89898740D02*
X112508440Y-89840320D01*
X112508440Y-89840320D02*
X112290000Y-89820000D01*
X112290000Y-89820000D02*
X112071560Y-89840320D01*
X112071560Y-89840320D02*
X111855660Y-89898740D01*
X111855660Y-89898740D02*
X111655000Y-89990180D01*
X111655000Y-89990180D02*
X111474660Y-90117180D01*
X111474660Y-90117180D02*
X111317180Y-90274660D01*
X111317180Y-90274660D02*
X111190180Y-90455000D01*
X111190180Y-90455000D02*
X111098740Y-90655660D01*
X111098740Y-90655660D02*
X111040320Y-90871560D01*
X111040320Y-90871560D02*
X111020000Y-91090000D01*
X111020000Y-91090000D02*
X111040320Y-91308440D01*
X111040320Y-91308440D02*
X111098740Y-91524340D01*
X111098740Y-91524340D02*
X111190180Y-91725000D01*
X111190180Y-91725000D02*
X111317180Y-91905340D01*
X111317180Y-91905340D02*
X111474660Y-92062820D01*
X111474660Y-92062820D02*
X111655000Y-92189820D01*
X111655000Y-92189820D02*
X111855660Y-92281260D01*
X111855660Y-92281260D02*
X112071560Y-92339680D01*
X112071560Y-92339680D02*
X112290000Y-92360000D01*
X112290000Y-92360000D02*
X112508440Y-92339680D01*
X112508440Y-92339680D02*
X112724340Y-92281260D01*
X112724340Y-92281260D02*
X112925000Y-92189820D01*
X112925000Y-92189820D02*
X113105340Y-92062820D01*
X113105340Y-92062820D02*
X113262820Y-91905340D01*
X113262820Y-91905340D02*
X113389820Y-91725000D01*
X113389820Y-91725000D02*
X113481260Y-91524340D01*
X113481260Y-91524340D02*
X113539680Y-91308440D01*
X113539680Y-91308440D02*
X113560000Y-91090000D01*
X113560000Y-91090000D02*
X113539680Y-90871560D01*
X113539680Y-90871560D02*
X113481260Y-90655660D01*
X113481260Y-90655660D02*
X113389820Y-90455000D01*
X113389820Y-90455000D02*
X113262820Y-90274660D01*
X113262820Y-90274660D02*
X113105340Y-90117180D01*
X113105340Y-90117180D02*
X112925000Y-89990180D01*
X112925000Y-89990180D02*
X112724340Y-89898740D01*
X112724340Y-89898740D02*
X112508440Y-89840320D01*
X112508440Y-89840320D02*
X112290000Y-89820000D01*
D12*
X116220000Y-107720000D02*
X116220000Y-106520000D01*
X114460000Y-106520000D02*
X114460000Y-107720000D01*
D10*
X134800000Y-89740000D02*
X134510000Y-89750000D01*
X134860000Y-100190000D02*
X134790000Y-89750000D01*
X125530000Y-100190000D02*
X134860000Y-100190000D01*
X125380000Y-89830000D02*
X125530000Y-100110000D01*
X134570000Y-89760000D02*
X125420000Y-89760000D01*
D14*
G36*
X114600063Y-98307761D02*
X114546622Y-98313351D01*
X114523921Y-98322138D01*
X114524240Y-98325440D01*
X114551371Y-98339401D01*
X114600202Y-98345727D01*
X114604058Y-98345760D01*
X114679794Y-98351068D01*
X114782907Y-98365527D01*
X114901752Y-98386934D01*
X115024684Y-98413086D01*
X115140058Y-98441783D01*
X115194800Y-98457465D01*
X115339366Y-98508314D01*
X115489452Y-98573234D01*
X115636459Y-98647493D01*
X115771790Y-98726360D01*
X115886848Y-98805101D01*
X115973035Y-98878984D01*
X115986435Y-98893189D01*
X116026230Y-98937438D01*
X115854355Y-99097821D01*
X115785613Y-99161133D01*
X115727777Y-99212834D01*
X115687189Y-99247361D01*
X115670457Y-99259182D01*
X115657786Y-99242357D01*
X115640483Y-99199028D01*
X115634301Y-99179615D01*
X115593540Y-99097988D01*
X115530705Y-99050198D01*
X115457589Y-99036640D01*
X115391714Y-99051726D01*
X115347284Y-99090285D01*
X115329018Y-99142271D01*
X115341640Y-99197636D01*
X115367065Y-99229267D01*
X115409584Y-99253625D01*
X115468379Y-99256935D01*
X115490297Y-99254494D01*
X115554744Y-99254484D01*
X115586017Y-99274182D01*
X115582051Y-99310849D01*
X115557993Y-99344277D01*
X115492008Y-99401549D01*
X115430905Y-99424507D01*
X115379503Y-99411367D01*
X115378503Y-99410648D01*
X115315314Y-99384936D01*
X115255032Y-99393652D01*
X115208208Y-99431485D01*
X115185394Y-99493127D01*
X115184640Y-99508191D01*
X115200886Y-99566916D01*
X115245554Y-99603936D01*
X115312542Y-99618987D01*
X115395746Y-99611802D01*
X115489064Y-99582116D01*
X115586393Y-99529664D01*
X115592028Y-99525921D01*
X115680610Y-99466428D01*
X115745843Y-99523703D01*
X115833278Y-99584393D01*
X115918174Y-99613400D01*
X115993564Y-99608662D01*
X116010229Y-99601905D01*
X116071915Y-99557761D01*
X116095788Y-99502508D01*
X116091312Y-99455654D01*
X116061503Y-99403343D01*
X116011770Y-99372987D01*
X115954296Y-99365759D01*
X115901266Y-99382833D01*
X115864863Y-99425382D01*
X115861753Y-99433541D01*
X115846063Y-99468622D01*
X115825640Y-99469711D01*
X115805077Y-99456207D01*
X115782420Y-99436769D01*
X115779509Y-99417019D01*
X115798361Y-99384920D01*
X115822421Y-99352809D01*
X115865902Y-99303731D01*
X115929137Y-99241799D01*
X115999740Y-99179031D01*
X116012393Y-99168474D01*
X116083155Y-99112787D01*
X116131525Y-99082146D01*
X116164002Y-99073013D01*
X116180121Y-99077173D01*
X116219467Y-99104776D01*
X116273357Y-99151032D01*
X116334896Y-99208916D01*
X116397191Y-99271405D01*
X116453346Y-99331476D01*
X116496467Y-99382104D01*
X116519660Y-99416266D01*
X116521602Y-99425063D01*
X116495925Y-99455263D01*
X116460412Y-99457611D01*
X116433203Y-99432264D01*
X116430452Y-99424265D01*
X116401549Y-99385367D01*
X116348935Y-99365580D01*
X116287144Y-99370272D01*
X116285572Y-99370760D01*
X116243352Y-99402738D01*
X116216039Y-99456710D01*
X116210655Y-99514801D01*
X116218830Y-99540659D01*
X116265751Y-99589777D01*
X116332972Y-99611041D01*
X116411655Y-99604928D01*
X116492963Y-99571915D01*
X116558299Y-99522325D01*
X116623952Y-99458691D01*
X116692790Y-99511197D01*
X116793078Y-99573787D01*
X116894658Y-99612621D01*
X116988741Y-99625588D01*
X117066537Y-99610581D01*
X117079480Y-99603972D01*
X117105772Y-99568083D01*
X117114753Y-99512447D01*
X117106096Y-99454242D01*
X117083109Y-99414011D01*
X117028749Y-99385729D01*
X116964091Y-99389254D01*
X116921178Y-99410648D01*
X116884762Y-99428486D01*
X116845793Y-99419998D01*
X116830887Y-99412728D01*
X116769162Y-99370945D01*
X116729145Y-99324211D01*
X116718127Y-99281624D01*
X116720039Y-99274420D01*
X116736304Y-99255288D01*
X116771861Y-99249320D01*
X116831478Y-99253896D01*
X116891859Y-99259094D01*
X116925324Y-99253275D01*
X116945044Y-99232116D01*
X116954249Y-99213592D01*
X116970728Y-99140718D01*
X116954093Y-99081510D01*
X116911233Y-99042456D01*
X116849036Y-99030047D01*
X116779029Y-99048508D01*
X116722739Y-99088984D01*
X116682922Y-99154394D01*
X116676111Y-99171259D01*
X116653250Y-99222775D01*
X116633772Y-99252546D01*
X116626940Y-99255765D01*
X116598561Y-99236332D01*
X116552651Y-99196286D01*
X116496060Y-99142609D01*
X116435640Y-99082282D01*
X116378239Y-99022285D01*
X116330708Y-98969601D01*
X116299897Y-98931211D01*
X116292165Y-98914583D01*
X116325309Y-98879230D01*
X116386510Y-98830073D01*
X116467927Y-98772360D01*
X116561719Y-98711340D01*
X116660045Y-98652259D01*
X116755064Y-98600367D01*
X116781215Y-98587249D01*
X116957038Y-98512431D01*
X117155653Y-98446688D01*
X117360693Y-98394563D01*
X117555793Y-98360599D01*
X117623466Y-98353438D01*
X117698804Y-98344831D01*
X117755516Y-98333928D01*
X117783994Y-98322723D01*
X117785600Y-98319757D01*
X117765728Y-98311874D01*
X117707577Y-98307665D01*
X117613349Y-98307196D01*
X117485880Y-98310513D01*
X117241697Y-98327954D01*
X117024568Y-98363497D01*
X116823668Y-98420527D01*
X116628172Y-98502428D01*
X116427252Y-98612585D01*
X116335451Y-98670157D01*
X116142760Y-98794983D01*
X116014220Y-98700242D01*
X115788503Y-98557712D01*
X115539151Y-98443643D01*
X115274660Y-98361611D01*
X115146419Y-98334945D01*
X115065974Y-98323758D01*
X114971287Y-98315080D01*
X114869856Y-98309028D01*
X114769177Y-98305714D01*
X114676747Y-98305253D01*
X114600063Y-98307761D01*
X114600063Y-98307761D01*
G37*
X114600063Y-98307761D02*
X114546622Y-98313351D01*
X114523921Y-98322138D01*
X114524240Y-98325440D01*
X114551371Y-98339401D01*
X114600202Y-98345727D01*
X114604058Y-98345760D01*
X114679794Y-98351068D01*
X114782907Y-98365527D01*
X114901752Y-98386934D01*
X115024684Y-98413086D01*
X115140058Y-98441783D01*
X115194800Y-98457465D01*
X115339366Y-98508314D01*
X115489452Y-98573234D01*
X115636459Y-98647493D01*
X115771790Y-98726360D01*
X115886848Y-98805101D01*
X115973035Y-98878984D01*
X115986435Y-98893189D01*
X116026230Y-98937438D01*
X115854355Y-99097821D01*
X115785613Y-99161133D01*
X115727777Y-99212834D01*
X115687189Y-99247361D01*
X115670457Y-99259182D01*
X115657786Y-99242357D01*
X115640483Y-99199028D01*
X115634301Y-99179615D01*
X115593540Y-99097988D01*
X115530705Y-99050198D01*
X115457589Y-99036640D01*
X115391714Y-99051726D01*
X115347284Y-99090285D01*
X115329018Y-99142271D01*
X115341640Y-99197636D01*
X115367065Y-99229267D01*
X115409584Y-99253625D01*
X115468379Y-99256935D01*
X115490297Y-99254494D01*
X115554744Y-99254484D01*
X115586017Y-99274182D01*
X115582051Y-99310849D01*
X115557993Y-99344277D01*
X115492008Y-99401549D01*
X115430905Y-99424507D01*
X115379503Y-99411367D01*
X115378503Y-99410648D01*
X115315314Y-99384936D01*
X115255032Y-99393652D01*
X115208208Y-99431485D01*
X115185394Y-99493127D01*
X115184640Y-99508191D01*
X115200886Y-99566916D01*
X115245554Y-99603936D01*
X115312542Y-99618987D01*
X115395746Y-99611802D01*
X115489064Y-99582116D01*
X115586393Y-99529664D01*
X115592028Y-99525921D01*
X115680610Y-99466428D01*
X115745843Y-99523703D01*
X115833278Y-99584393D01*
X115918174Y-99613400D01*
X115993564Y-99608662D01*
X116010229Y-99601905D01*
X116071915Y-99557761D01*
X116095788Y-99502508D01*
X116091312Y-99455654D01*
X116061503Y-99403343D01*
X116011770Y-99372987D01*
X115954296Y-99365759D01*
X115901266Y-99382833D01*
X115864863Y-99425382D01*
X115861753Y-99433541D01*
X115846063Y-99468622D01*
X115825640Y-99469711D01*
X115805077Y-99456207D01*
X115782420Y-99436769D01*
X115779509Y-99417019D01*
X115798361Y-99384920D01*
X115822421Y-99352809D01*
X115865902Y-99303731D01*
X115929137Y-99241799D01*
X115999740Y-99179031D01*
X116012393Y-99168474D01*
X116083155Y-99112787D01*
X116131525Y-99082146D01*
X116164002Y-99073013D01*
X116180121Y-99077173D01*
X116219467Y-99104776D01*
X116273357Y-99151032D01*
X116334896Y-99208916D01*
X116397191Y-99271405D01*
X116453346Y-99331476D01*
X116496467Y-99382104D01*
X116519660Y-99416266D01*
X116521602Y-99425063D01*
X116495925Y-99455263D01*
X116460412Y-99457611D01*
X116433203Y-99432264D01*
X116430452Y-99424265D01*
X116401549Y-99385367D01*
X116348935Y-99365580D01*
X116287144Y-99370272D01*
X116285572Y-99370760D01*
X116243352Y-99402738D01*
X116216039Y-99456710D01*
X116210655Y-99514801D01*
X116218830Y-99540659D01*
X116265751Y-99589777D01*
X116332972Y-99611041D01*
X116411655Y-99604928D01*
X116492963Y-99571915D01*
X116558299Y-99522325D01*
X116623952Y-99458691D01*
X116692790Y-99511197D01*
X116793078Y-99573787D01*
X116894658Y-99612621D01*
X116988741Y-99625588D01*
X117066537Y-99610581D01*
X117079480Y-99603972D01*
X117105772Y-99568083D01*
X117114753Y-99512447D01*
X117106096Y-99454242D01*
X117083109Y-99414011D01*
X117028749Y-99385729D01*
X116964091Y-99389254D01*
X116921178Y-99410648D01*
X116884762Y-99428486D01*
X116845793Y-99419998D01*
X116830887Y-99412728D01*
X116769162Y-99370945D01*
X116729145Y-99324211D01*
X116718127Y-99281624D01*
X116720039Y-99274420D01*
X116736304Y-99255288D01*
X116771861Y-99249320D01*
X116831478Y-99253896D01*
X116891859Y-99259094D01*
X116925324Y-99253275D01*
X116945044Y-99232116D01*
X116954249Y-99213592D01*
X116970728Y-99140718D01*
X116954093Y-99081510D01*
X116911233Y-99042456D01*
X116849036Y-99030047D01*
X116779029Y-99048508D01*
X116722739Y-99088984D01*
X116682922Y-99154394D01*
X116676111Y-99171259D01*
X116653250Y-99222775D01*
X116633772Y-99252546D01*
X116626940Y-99255765D01*
X116598561Y-99236332D01*
X116552651Y-99196286D01*
X116496060Y-99142609D01*
X116435640Y-99082282D01*
X116378239Y-99022285D01*
X116330708Y-98969601D01*
X116299897Y-98931211D01*
X116292165Y-98914583D01*
X116325309Y-98879230D01*
X116386510Y-98830073D01*
X116467927Y-98772360D01*
X116561719Y-98711340D01*
X116660045Y-98652259D01*
X116755064Y-98600367D01*
X116781215Y-98587249D01*
X116957038Y-98512431D01*
X117155653Y-98446688D01*
X117360693Y-98394563D01*
X117555793Y-98360599D01*
X117623466Y-98353438D01*
X117698804Y-98344831D01*
X117755516Y-98333928D01*
X117783994Y-98322723D01*
X117785600Y-98319757D01*
X117765728Y-98311874D01*
X117707577Y-98307665D01*
X117613349Y-98307196D01*
X117485880Y-98310513D01*
X117241697Y-98327954D01*
X117024568Y-98363497D01*
X116823668Y-98420527D01*
X116628172Y-98502428D01*
X116427252Y-98612585D01*
X116335451Y-98670157D01*
X116142760Y-98794983D01*
X116014220Y-98700242D01*
X115788503Y-98557712D01*
X115539151Y-98443643D01*
X115274660Y-98361611D01*
X115146419Y-98334945D01*
X115065974Y-98323758D01*
X114971287Y-98315080D01*
X114869856Y-98309028D01*
X114769177Y-98305714D01*
X114676747Y-98305253D01*
X114600063Y-98307761D01*
G36*
X116135710Y-96431803D02*
X116128883Y-96445839D01*
X116113803Y-96494139D01*
X116109918Y-96506593D01*
X116097663Y-96521305D01*
X116073040Y-96507997D01*
X116049881Y-96486273D01*
X115993388Y-96451598D01*
X115920468Y-96434598D01*
X115846229Y-96436080D01*
X115785778Y-96456851D01*
X115768388Y-96471239D01*
X115750984Y-96494355D01*
X115759588Y-96505141D01*
X115800855Y-96509287D01*
X115813518Y-96509816D01*
X115884736Y-96519832D01*
X115941839Y-96540899D01*
X115973822Y-96568281D01*
X115977120Y-96580249D01*
X115959923Y-96592340D01*
X115919605Y-96588836D01*
X115841548Y-96584095D01*
X115758478Y-96598678D01*
X115680282Y-96628190D01*
X115616846Y-96668232D01*
X115578057Y-96714407D01*
X115570720Y-96744022D01*
X115573378Y-96767585D01*
X115587457Y-96763127D01*
X115612172Y-96739668D01*
X115682274Y-96689646D01*
X115759009Y-96666705D01*
X115800025Y-96668085D01*
X115844915Y-96675606D01*
X115865360Y-96678203D01*
X115859758Y-96688773D01*
X115826335Y-96715150D01*
X115771980Y-96751993D01*
X115761653Y-96758597D01*
X115665943Y-96834462D01*
X115595806Y-96921468D01*
X115556706Y-97011769D01*
X115550400Y-97061855D01*
X115558342Y-97099503D01*
X115581303Y-97100791D01*
X115617988Y-97066580D01*
X115667101Y-96997730D01*
X115681440Y-96974764D01*
X115720504Y-96913292D01*
X115751314Y-96869440D01*
X115768248Y-96851096D01*
X115769493Y-96851199D01*
X115787609Y-96844496D01*
X115816254Y-96820066D01*
X115856170Y-96789194D01*
X115885891Y-96781945D01*
X115895840Y-96797316D01*
X115882393Y-96819320D01*
X115847707Y-96859073D01*
X115814117Y-96893313D01*
X115738485Y-96991640D01*
X115701724Y-97100189D01*
X115703187Y-97210128D01*
X115717937Y-97267497D01*
X115735109Y-97286765D01*
X115752662Y-97266987D01*
X115762153Y-97237488D01*
X115779125Y-97202635D01*
X115797649Y-97199786D01*
X115810816Y-97196416D01*
X115809569Y-97158883D01*
X115806292Y-97139657D01*
X115801505Y-97086533D01*
X115812160Y-97065716D01*
X115813640Y-97065600D01*
X115831820Y-97048901D01*
X115834880Y-97031132D01*
X115844104Y-96998126D01*
X115867025Y-96953839D01*
X115896519Y-96908604D01*
X115925460Y-96872752D01*
X115946725Y-96856615D01*
X115952704Y-96860269D01*
X115971621Y-96874096D01*
X115978856Y-96871487D01*
X115996302Y-96874826D01*
X115997440Y-96881520D01*
X115984088Y-96902228D01*
X115979108Y-96903040D01*
X115960456Y-96920126D01*
X115940413Y-96961497D01*
X115939525Y-96964000D01*
X115929077Y-97009493D01*
X115938006Y-97024960D01*
X115941858Y-97039350D01*
X115925211Y-97074548D01*
X115921709Y-97080054D01*
X115902083Y-97115262D01*
X115909070Y-97120426D01*
X115914044Y-97117663D01*
X115932506Y-97112505D01*
X115932908Y-97136258D01*
X115928592Y-97155225D01*
X115922813Y-97204968D01*
X115925586Y-97260167D01*
X115934828Y-97308273D01*
X115948454Y-97336733D01*
X115959029Y-97338542D01*
X115972373Y-97347538D01*
X115978867Y-97384440D01*
X115980614Y-97441520D01*
X115998865Y-97380560D01*
X116008828Y-97326717D01*
X116006820Y-97286908D01*
X116012227Y-97248177D01*
X116046246Y-97221757D01*
X116078720Y-97216768D01*
X116089358Y-97222258D01*
X116097247Y-97241076D01*
X116102772Y-97278251D01*
X116106316Y-97338813D01*
X116108264Y-97427792D01*
X116108998Y-97550217D01*
X116109036Y-97614255D01*
X116107918Y-97836121D01*
X116104584Y-98020796D01*
X116098767Y-98171682D01*
X116090200Y-98292179D01*
X116078616Y-98385691D01*
X116063745Y-98455618D01*
X116045322Y-98505362D01*
X116037882Y-98518800D01*
X115994126Y-98589600D01*
X116323386Y-98589600D01*
X116282448Y-98509353D01*
X116267218Y-98474184D01*
X116254535Y-98430950D01*
X116244003Y-98375236D01*
X116235225Y-98302629D01*
X116227804Y-98208714D01*
X116221344Y-98089077D01*
X116215448Y-97939302D01*
X116209720Y-97754976D01*
X116207512Y-97675200D01*
X116204032Y-97538424D01*
X116202296Y-97436293D01*
X116202713Y-97362835D01*
X116205693Y-97312075D01*
X116211645Y-97278041D01*
X116220978Y-97254759D01*
X116234102Y-97236258D01*
X116237894Y-97231827D01*
X116278978Y-97184694D01*
X116301709Y-97227167D01*
X116315861Y-97265959D01*
X116314970Y-97284961D01*
X116312913Y-97313265D01*
X116320254Y-97362636D01*
X116322111Y-97370902D01*
X116333336Y-97408696D01*
X116339785Y-97407847D01*
X116340801Y-97397493D01*
X116352307Y-97358868D01*
X116367134Y-97345382D01*
X116382134Y-97320685D01*
X116390950Y-97263655D01*
X116392534Y-97223735D01*
X116396443Y-97157975D01*
X116405855Y-97124763D01*
X116414000Y-97122660D01*
X116418012Y-97116723D01*
X116402150Y-97086205D01*
X116396232Y-97076909D01*
X116373676Y-97039067D01*
X116374721Y-97027077D01*
X116390253Y-97030992D01*
X116407641Y-97033317D01*
X116404645Y-97014790D01*
X116382621Y-96972559D01*
X116352763Y-96908572D01*
X116343549Y-96862916D01*
X116356158Y-96842532D01*
X116360437Y-96842080D01*
X116383764Y-96858233D01*
X116416345Y-96898151D01*
X116449728Y-96949016D01*
X116475460Y-96998012D01*
X116485120Y-97031132D01*
X116495411Y-97060633D01*
X116506361Y-97065600D01*
X116518211Y-97083655D01*
X116514658Y-97134420D01*
X116513709Y-97139657D01*
X116508047Y-97188501D01*
X116516662Y-97202216D01*
X116522352Y-97199786D01*
X116543580Y-97205507D01*
X116557848Y-97237488D01*
X116576316Y-97280401D01*
X116595670Y-97284212D01*
X116609000Y-97249478D01*
X116610692Y-97233240D01*
X116610021Y-97110606D01*
X116587303Y-97013208D01*
X116538721Y-96929959D01*
X116486935Y-96873838D01*
X116448155Y-96833417D01*
X116426091Y-96803533D01*
X116424160Y-96797638D01*
X116437059Y-96781163D01*
X116466568Y-96787725D01*
X116498907Y-96813381D01*
X116504656Y-96820671D01*
X116531060Y-96848078D01*
X116546029Y-96852271D01*
X116561888Y-96864410D01*
X116592177Y-96903754D01*
X116630908Y-96962372D01*
X116638848Y-96975232D01*
X116691756Y-97054142D01*
X116731341Y-97096131D01*
X116757133Y-97100928D01*
X116768663Y-97068261D01*
X116769266Y-97050360D01*
X116749597Y-96962715D01*
X116695161Y-96875725D01*
X116611280Y-96796711D01*
X116560036Y-96762526D01*
X116504311Y-96726270D01*
X116469420Y-96697008D01*
X116462639Y-96680883D01*
X116463018Y-96680621D01*
X116509284Y-96670797D01*
X116574196Y-96677814D01*
X116641256Y-96698100D01*
X116693967Y-96728087D01*
X116697740Y-96731413D01*
X116733036Y-96759758D01*
X116747879Y-96758328D01*
X116749280Y-96748333D01*
X116730518Y-96692120D01*
X116680271Y-96643156D01*
X116607604Y-96605937D01*
X116521579Y-96584960D01*
X116431259Y-96584724D01*
X116422201Y-96586036D01*
X116369163Y-96589967D01*
X116343809Y-96581956D01*
X116342880Y-96578681D01*
X116360706Y-96552510D01*
X116404767Y-96527319D01*
X116460936Y-96508847D01*
X116515087Y-96502833D01*
X116526795Y-96503970D01*
X116573732Y-96505567D01*
X116583829Y-96492774D01*
X116556282Y-96469993D01*
X116534964Y-96459261D01*
X116447458Y-96435682D01*
X116361496Y-96440450D01*
X116290109Y-96472092D01*
X116271144Y-96489064D01*
X116235260Y-96521551D01*
X116216361Y-96521375D01*
X116213104Y-96514464D01*
X116193733Y-96455118D01*
X116179549Y-96425438D01*
X116165390Y-96415790D01*
X116160000Y-96415359D01*
X116135710Y-96431803D01*
X116135710Y-96431803D01*
G37*
X116135710Y-96431803D02*
X116128883Y-96445839D01*
X116113803Y-96494139D01*
X116109918Y-96506593D01*
X116097663Y-96521305D01*
X116073040Y-96507997D01*
X116049881Y-96486273D01*
X115993388Y-96451598D01*
X115920468Y-96434598D01*
X115846229Y-96436080D01*
X115785778Y-96456851D01*
X115768388Y-96471239D01*
X115750984Y-96494355D01*
X115759588Y-96505141D01*
X115800855Y-96509287D01*
X115813518Y-96509816D01*
X115884736Y-96519832D01*
X115941839Y-96540899D01*
X115973822Y-96568281D01*
X115977120Y-96580249D01*
X115959923Y-96592340D01*
X115919605Y-96588836D01*
X115841548Y-96584095D01*
X115758478Y-96598678D01*
X115680282Y-96628190D01*
X115616846Y-96668232D01*
X115578057Y-96714407D01*
X115570720Y-96744022D01*
X115573378Y-96767585D01*
X115587457Y-96763127D01*
X115612172Y-96739668D01*
X115682274Y-96689646D01*
X115759009Y-96666705D01*
X115800025Y-96668085D01*
X115844915Y-96675606D01*
X115865360Y-96678203D01*
X115859758Y-96688773D01*
X115826335Y-96715150D01*
X115771980Y-96751993D01*
X115761653Y-96758597D01*
X115665943Y-96834462D01*
X115595806Y-96921468D01*
X115556706Y-97011769D01*
X115550400Y-97061855D01*
X115558342Y-97099503D01*
X115581303Y-97100791D01*
X115617988Y-97066580D01*
X115667101Y-96997730D01*
X115681440Y-96974764D01*
X115720504Y-96913292D01*
X115751314Y-96869440D01*
X115768248Y-96851096D01*
X115769493Y-96851199D01*
X115787609Y-96844496D01*
X115816254Y-96820066D01*
X115856170Y-96789194D01*
X115885891Y-96781945D01*
X115895840Y-96797316D01*
X115882393Y-96819320D01*
X115847707Y-96859073D01*
X115814117Y-96893313D01*
X115738485Y-96991640D01*
X115701724Y-97100189D01*
X115703187Y-97210128D01*
X115717937Y-97267497D01*
X115735109Y-97286765D01*
X115752662Y-97266987D01*
X115762153Y-97237488D01*
X115779125Y-97202635D01*
X115797649Y-97199786D01*
X115810816Y-97196416D01*
X115809569Y-97158883D01*
X115806292Y-97139657D01*
X115801505Y-97086533D01*
X115812160Y-97065716D01*
X115813640Y-97065600D01*
X115831820Y-97048901D01*
X115834880Y-97031132D01*
X115844104Y-96998126D01*
X115867025Y-96953839D01*
X115896519Y-96908604D01*
X115925460Y-96872752D01*
X115946725Y-96856615D01*
X115952704Y-96860269D01*
X115971621Y-96874096D01*
X115978856Y-96871487D01*
X115996302Y-96874826D01*
X115997440Y-96881520D01*
X115984088Y-96902228D01*
X115979108Y-96903040D01*
X115960456Y-96920126D01*
X115940413Y-96961497D01*
X115939525Y-96964000D01*
X115929077Y-97009493D01*
X115938006Y-97024960D01*
X115941858Y-97039350D01*
X115925211Y-97074548D01*
X115921709Y-97080054D01*
X115902083Y-97115262D01*
X115909070Y-97120426D01*
X115914044Y-97117663D01*
X115932506Y-97112505D01*
X115932908Y-97136258D01*
X115928592Y-97155225D01*
X115922813Y-97204968D01*
X115925586Y-97260167D01*
X115934828Y-97308273D01*
X115948454Y-97336733D01*
X115959029Y-97338542D01*
X115972373Y-97347538D01*
X115978867Y-97384440D01*
X115980614Y-97441520D01*
X115998865Y-97380560D01*
X116008828Y-97326717D01*
X116006820Y-97286908D01*
X116012227Y-97248177D01*
X116046246Y-97221757D01*
X116078720Y-97216768D01*
X116089358Y-97222258D01*
X116097247Y-97241076D01*
X116102772Y-97278251D01*
X116106316Y-97338813D01*
X116108264Y-97427792D01*
X116108998Y-97550217D01*
X116109036Y-97614255D01*
X116107918Y-97836121D01*
X116104584Y-98020796D01*
X116098767Y-98171682D01*
X116090200Y-98292179D01*
X116078616Y-98385691D01*
X116063745Y-98455618D01*
X116045322Y-98505362D01*
X116037882Y-98518800D01*
X115994126Y-98589600D01*
X116323386Y-98589600D01*
X116282448Y-98509353D01*
X116267218Y-98474184D01*
X116254535Y-98430950D01*
X116244003Y-98375236D01*
X116235225Y-98302629D01*
X116227804Y-98208714D01*
X116221344Y-98089077D01*
X116215448Y-97939302D01*
X116209720Y-97754976D01*
X116207512Y-97675200D01*
X116204032Y-97538424D01*
X116202296Y-97436293D01*
X116202713Y-97362835D01*
X116205693Y-97312075D01*
X116211645Y-97278041D01*
X116220978Y-97254759D01*
X116234102Y-97236258D01*
X116237894Y-97231827D01*
X116278978Y-97184694D01*
X116301709Y-97227167D01*
X116315861Y-97265959D01*
X116314970Y-97284961D01*
X116312913Y-97313265D01*
X116320254Y-97362636D01*
X116322111Y-97370902D01*
X116333336Y-97408696D01*
X116339785Y-97407847D01*
X116340801Y-97397493D01*
X116352307Y-97358868D01*
X116367134Y-97345382D01*
X116382134Y-97320685D01*
X116390950Y-97263655D01*
X116392534Y-97223735D01*
X116396443Y-97157975D01*
X116405855Y-97124763D01*
X116414000Y-97122660D01*
X116418012Y-97116723D01*
X116402150Y-97086205D01*
X116396232Y-97076909D01*
X116373676Y-97039067D01*
X116374721Y-97027077D01*
X116390253Y-97030992D01*
X116407641Y-97033317D01*
X116404645Y-97014790D01*
X116382621Y-96972559D01*
X116352763Y-96908572D01*
X116343549Y-96862916D01*
X116356158Y-96842532D01*
X116360437Y-96842080D01*
X116383764Y-96858233D01*
X116416345Y-96898151D01*
X116449728Y-96949016D01*
X116475460Y-96998012D01*
X116485120Y-97031132D01*
X116495411Y-97060633D01*
X116506361Y-97065600D01*
X116518211Y-97083655D01*
X116514658Y-97134420D01*
X116513709Y-97139657D01*
X116508047Y-97188501D01*
X116516662Y-97202216D01*
X116522352Y-97199786D01*
X116543580Y-97205507D01*
X116557848Y-97237488D01*
X116576316Y-97280401D01*
X116595670Y-97284212D01*
X116609000Y-97249478D01*
X116610692Y-97233240D01*
X116610021Y-97110606D01*
X116587303Y-97013208D01*
X116538721Y-96929959D01*
X116486935Y-96873838D01*
X116448155Y-96833417D01*
X116426091Y-96803533D01*
X116424160Y-96797638D01*
X116437059Y-96781163D01*
X116466568Y-96787725D01*
X116498907Y-96813381D01*
X116504656Y-96820671D01*
X116531060Y-96848078D01*
X116546029Y-96852271D01*
X116561888Y-96864410D01*
X116592177Y-96903754D01*
X116630908Y-96962372D01*
X116638848Y-96975232D01*
X116691756Y-97054142D01*
X116731341Y-97096131D01*
X116757133Y-97100928D01*
X116768663Y-97068261D01*
X116769266Y-97050360D01*
X116749597Y-96962715D01*
X116695161Y-96875725D01*
X116611280Y-96796711D01*
X116560036Y-96762526D01*
X116504311Y-96726270D01*
X116469420Y-96697008D01*
X116462639Y-96680883D01*
X116463018Y-96680621D01*
X116509284Y-96670797D01*
X116574196Y-96677814D01*
X116641256Y-96698100D01*
X116693967Y-96728087D01*
X116697740Y-96731413D01*
X116733036Y-96759758D01*
X116747879Y-96758328D01*
X116749280Y-96748333D01*
X116730518Y-96692120D01*
X116680271Y-96643156D01*
X116607604Y-96605937D01*
X116521579Y-96584960D01*
X116431259Y-96584724D01*
X116422201Y-96586036D01*
X116369163Y-96589967D01*
X116343809Y-96581956D01*
X116342880Y-96578681D01*
X116360706Y-96552510D01*
X116404767Y-96527319D01*
X116460936Y-96508847D01*
X116515087Y-96502833D01*
X116526795Y-96503970D01*
X116573732Y-96505567D01*
X116583829Y-96492774D01*
X116556282Y-96469993D01*
X116534964Y-96459261D01*
X116447458Y-96435682D01*
X116361496Y-96440450D01*
X116290109Y-96472092D01*
X116271144Y-96489064D01*
X116235260Y-96521551D01*
X116216361Y-96521375D01*
X116213104Y-96514464D01*
X116193733Y-96455118D01*
X116179549Y-96425438D01*
X116165390Y-96415790D01*
X116160000Y-96415359D01*
X116135710Y-96431803D01*
D15*
X130801905Y-102902381D02*
X130801905Y-103711905D01*
X130754286Y-103807143D01*
X130706667Y-103854762D01*
X130611429Y-103902381D01*
X130420952Y-103902381D01*
X130325714Y-103854762D01*
X130278095Y-103807143D01*
X130230476Y-103711905D01*
X130230476Y-102902381D01*
X129230476Y-103902381D02*
X129801905Y-103902381D01*
X129516191Y-103902381D02*
X129516191Y-102902381D01*
X129611429Y-103045238D01*
X129706667Y-103140476D01*
X129801905Y-103188095D01*
M02*
