G04 #@! TF.FileFunction,Copper,L4,Bot,Signal*
%FSLAX46Y46*%
G04 Gerber Fmt 4.6, Leading zero omitted, Abs format (unit mm)*
G04 Created by KiCad (PCBNEW 4.0.7) date Saturday, December 30, 2017 'PMt' 02:56:56 PM*
%MOMM*%
%LPD*%
G01*
G04 APERTURE LIST*
%ADD10C,0.100000*%
%ADD11C,0.150000*%
%ADD12C,1.270000*%
%ADD13R,0.995680X3.497580*%
%ADD14R,0.998220X3.497580*%
%ADD15R,1.498600X3.398520*%
%ADD16R,1.498600X3.395980*%
%ADD17C,1.700000*%
%ADD18O,1.700000X1.700000*%
%ADD19C,0.500000*%
%ADD20C,0.254000*%
G04 APERTURE END LIST*
D10*
D11*
X40639600Y-56304000D02*
X41960400Y-56304000D01*
X41960400Y-56304000D02*
X41960400Y-56405600D01*
X41960400Y-56405600D02*
X40639600Y-56405600D01*
X40639600Y-56405600D02*
X40639600Y-56507200D01*
X40639600Y-56507200D02*
X41909600Y-56507200D01*
X41909600Y-56507200D02*
X41909600Y-56608800D01*
X41909600Y-56608800D02*
X40741200Y-56608800D01*
X40741200Y-56608800D02*
X40792000Y-56710400D01*
X40792000Y-56710400D02*
X41757200Y-56710400D01*
X41757200Y-56710400D02*
X41655600Y-56812000D01*
X41655600Y-56812000D02*
X40944400Y-56812000D01*
X40944400Y-56812000D02*
X40995200Y-56862800D01*
X40995200Y-56862800D02*
X41554000Y-56862800D01*
X41909600Y-55592800D02*
X41909600Y-55491200D01*
X41909600Y-55491200D02*
X40792000Y-55491200D01*
X40792000Y-55491200D02*
X40792000Y-55389600D01*
X40792000Y-55389600D02*
X41757200Y-55389600D01*
X41757200Y-55389600D02*
X41757200Y-55338800D01*
X41757200Y-55338800D02*
X40893600Y-55338800D01*
X40893600Y-55338800D02*
X40893600Y-55288000D01*
X40893600Y-55288000D02*
X41604800Y-55288000D01*
X41604800Y-55288000D02*
X41604800Y-55237200D01*
X41604800Y-55237200D02*
X41046000Y-55237200D01*
X40588800Y-55796000D02*
X41960400Y-55796000D01*
X41960400Y-55796000D02*
X41960400Y-55694400D01*
X41960400Y-55694400D02*
X40639600Y-55694400D01*
X40639600Y-55694400D02*
X40639600Y-55592800D01*
X40639600Y-55592800D02*
X41909600Y-55592800D01*
X41909600Y-55592800D02*
X41909600Y-55542000D01*
X40538000Y-55897600D02*
X42062000Y-55897600D01*
X40538000Y-56202400D02*
X42062000Y-56202400D01*
X42062000Y-56202400D02*
G75*
G02X41300000Y-56964400I-762000J0D01*
G01*
X41300000Y-56964400D02*
G75*
G02X40538000Y-56202400I0J762000D01*
G01*
X40538000Y-55897600D02*
G75*
G02X41300000Y-55135600I762000J0D01*
G01*
X41300000Y-55135600D02*
G75*
G02X42062000Y-55897600I0J-762000D01*
G01*
D12*
X44850000Y-67250000D03*
D10*
G36*
X40750000Y-56250000D02*
X41850000Y-56250000D01*
X41750000Y-56850000D01*
X40850000Y-56850000D01*
X40750000Y-56250000D01*
X40750000Y-56250000D01*
G37*
G36*
X41850000Y-55850000D02*
X40750000Y-55850000D01*
X40850000Y-55250000D01*
X41750000Y-55250000D01*
X41850000Y-55850000D01*
X41850000Y-55850000D01*
G37*
D13*
X34500760Y-62540000D03*
D14*
X32499240Y-62540000D03*
D15*
X36845180Y-68288020D03*
D16*
X30152280Y-68288020D03*
D17*
X22250000Y-62660000D03*
D18*
X22250000Y-60120000D03*
X22250000Y-57580000D03*
X22250000Y-55040000D03*
X22250000Y-52500000D03*
X22250000Y-49960000D03*
X22250000Y-47420000D03*
X22250000Y-44880000D03*
X22250000Y-42340000D03*
X22250000Y-39800000D03*
X22250000Y-37260000D03*
X22250000Y-34720000D03*
D17*
X45000000Y-34720000D03*
D18*
X45000000Y-37260000D03*
X45000000Y-39800000D03*
X45000000Y-42340000D03*
X45000000Y-44880000D03*
X45000000Y-47420000D03*
X45000000Y-49960000D03*
X45000000Y-52500000D03*
X45000000Y-55040000D03*
D12*
X22190000Y-67150000D03*
D19*
X46000000Y-30900000D03*
X45000000Y-30900000D03*
X44000000Y-30900000D03*
X26000000Y-30906931D03*
X25000000Y-30906931D03*
X24000000Y-30906931D03*
X23000000Y-30906931D03*
X22000000Y-30906931D03*
X20981805Y-30906931D03*
X43000000Y-30900000D03*
X42000000Y-30900000D03*
X41000000Y-30900000D03*
X40000000Y-30900000D03*
X39000000Y-30900000D03*
X38000000Y-30900000D03*
X37000000Y-30900000D03*
X36000000Y-30900000D03*
X35000000Y-30900000D03*
X34000000Y-30900000D03*
X33000000Y-30900000D03*
X32000000Y-30900000D03*
X26568685Y-60872075D03*
X39870000Y-56550000D03*
X27030000Y-64970000D03*
X39000000Y-55100000D03*
X38400000Y-59800000D03*
X30425381Y-35951090D03*
X25000000Y-38500000D03*
X25093146Y-54391548D03*
X31425000Y-46225000D03*
X28460000Y-64390000D03*
X31270000Y-37200000D03*
X41000000Y-63700000D03*
X28000000Y-58600000D03*
X26400000Y-48100000D03*
X33550000Y-63033000D03*
X32237500Y-52537500D03*
X33525000Y-52537500D03*
X33525000Y-52537500D03*
X34812500Y-52537500D03*
X36100000Y-52537500D03*
X36000000Y-51250000D03*
X34812500Y-51250000D03*
X32237500Y-51250000D03*
X33525000Y-51250000D03*
X32237500Y-49962500D03*
X33525000Y-49962500D03*
X34812500Y-49962500D03*
X34812500Y-49962500D03*
X36000000Y-50000000D03*
X36000000Y-48675000D03*
X34812500Y-48675000D03*
X33525000Y-48675000D03*
X32237500Y-48675000D03*
X31918750Y-45706250D03*
X31714000Y-64963000D03*
X35791000Y-64837000D03*
X29550000Y-50225000D03*
X28725000Y-60850000D03*
X39260000Y-61875000D03*
X43924999Y-57524999D03*
X38400000Y-50025000D03*
X28243787Y-49749990D03*
X32418750Y-46431250D03*
X34646239Y-55040610D03*
X32918750Y-45981250D03*
X33425000Y-46425000D03*
X34925000Y-46425000D03*
X35646587Y-45915960D03*
X35918750Y-46506250D03*
X36819605Y-46208628D03*
X37800000Y-54025000D03*
X35925000Y-54775000D03*
X35283447Y-54912232D03*
X34005211Y-55148307D03*
X33425000Y-56425000D03*
X33055199Y-55351253D03*
X32423295Y-55198898D03*
X31781194Y-55299999D03*
X31128965Y-54910095D03*
X28335441Y-49106472D03*
X24100000Y-39750000D03*
X28878451Y-48571292D03*
X24115000Y-37260000D03*
X29630475Y-48114705D03*
X24200000Y-34720000D03*
X30200000Y-47350000D03*
X36525000Y-55175000D03*
X26680551Y-54914993D03*
X34613246Y-58904948D03*
X26811433Y-53511870D03*
X33239245Y-60061252D03*
X29580630Y-51291778D03*
X33919245Y-60061252D03*
X29580630Y-51971778D03*
X39900000Y-50775000D03*
X38318750Y-52356250D03*
X39875000Y-48324998D03*
X38350000Y-51575000D03*
X40675000Y-38750000D03*
X36775000Y-38750000D03*
X25646409Y-42375538D03*
X32475000Y-40675000D03*
X37825000Y-36325000D03*
X39700000Y-45900000D03*
X37049979Y-41350000D03*
X37475000Y-46925000D03*
X32325000Y-42400000D03*
X38000000Y-45675000D03*
X37349990Y-37400000D03*
X38425000Y-48850000D03*
X32500000Y-64911000D03*
X33852000Y-64680000D03*
D11*
X41300000Y-56550000D02*
X39870000Y-56550000D01*
X45000000Y-54620000D02*
X45000000Y-55132592D01*
X33550000Y-63033000D02*
X34007760Y-63033000D01*
X34007760Y-63033000D02*
X34500760Y-62540000D01*
X28120959Y-60148773D02*
X28625000Y-60652814D01*
X25950000Y-58175000D02*
X27923773Y-60148773D01*
X28625000Y-60652814D02*
X28625000Y-60850000D01*
X25950000Y-50925000D02*
X25950000Y-58175000D01*
X27923773Y-60148773D02*
X28120959Y-60148773D01*
X29550000Y-50225000D02*
X26650000Y-50225000D01*
X26650000Y-50225000D02*
X25950000Y-50925000D01*
X35630640Y-56025011D02*
X34896238Y-55290609D01*
X34896238Y-55290609D02*
X34646239Y-55040610D01*
X38777991Y-56025011D02*
X35630640Y-56025011D01*
X39253002Y-55550000D02*
X38777991Y-56025011D01*
X41300000Y-55550000D02*
X39253002Y-55550000D01*
X34675000Y-65175000D02*
X41330000Y-58520000D01*
X44580000Y-58520000D02*
X41330000Y-58520000D01*
X45690000Y-57410000D02*
X44580000Y-58520000D01*
X45690000Y-56850000D02*
X45690000Y-57410000D01*
X32498480Y-62350000D02*
X31849370Y-62350000D01*
X32175000Y-66150000D02*
X34100000Y-66150000D01*
X45690000Y-56850000D02*
X46400000Y-56140000D01*
X46400000Y-54428998D02*
X45696755Y-53725753D01*
X31849370Y-62350000D02*
X30600000Y-63599370D01*
X30600000Y-63599370D02*
X30600000Y-64575000D01*
X30600000Y-64575000D02*
X32175000Y-66150000D01*
X34100000Y-66150000D02*
X34675000Y-65575000D01*
X34675000Y-65575000D02*
X34675000Y-65175000D01*
X46400000Y-56140000D02*
X46400000Y-54428998D01*
X45696755Y-53725753D02*
X38099247Y-53725753D01*
X38099247Y-53725753D02*
X37800000Y-54025000D01*
X35900000Y-53175000D02*
X27213815Y-53175000D01*
X27213815Y-53175000D02*
X27075684Y-53036869D01*
X27075684Y-53036869D02*
X26583432Y-53036869D01*
X26583432Y-53036869D02*
X26336432Y-53283869D01*
X26336432Y-53283869D02*
X26336432Y-54570874D01*
X36525000Y-53800000D02*
X35900000Y-53175000D01*
X36525000Y-55175000D02*
X36525000Y-53800000D01*
X26336432Y-54570874D02*
X26430552Y-54664994D01*
X26430552Y-54664994D02*
X26680551Y-54914993D01*
X34259693Y-58904948D02*
X34613246Y-58904948D01*
X32204511Y-58904948D02*
X34259693Y-58904948D01*
X26811433Y-53511870D02*
X32204511Y-58904948D01*
X36775000Y-38750000D02*
X40675000Y-38750000D01*
D20*
G36*
X20454896Y-30801644D02*
X20454713Y-31011298D01*
X20534775Y-31205063D01*
X20682893Y-31353440D01*
X20876518Y-31433840D01*
X21086172Y-31434023D01*
X21279937Y-31353961D01*
X21428314Y-31205843D01*
X21490957Y-31054981D01*
X21552970Y-31205063D01*
X21701088Y-31353440D01*
X21894713Y-31433840D01*
X22104367Y-31434023D01*
X22298132Y-31353961D01*
X22446509Y-31205843D01*
X22500032Y-31076944D01*
X22552970Y-31205063D01*
X22701088Y-31353440D01*
X22894713Y-31433840D01*
X23104367Y-31434023D01*
X23298132Y-31353961D01*
X23446509Y-31205843D01*
X23500032Y-31076944D01*
X23552970Y-31205063D01*
X23701088Y-31353440D01*
X23894713Y-31433840D01*
X24104367Y-31434023D01*
X24298132Y-31353961D01*
X24446509Y-31205843D01*
X24500032Y-31076944D01*
X24552970Y-31205063D01*
X24701088Y-31353440D01*
X24894713Y-31433840D01*
X25104367Y-31434023D01*
X25298132Y-31353961D01*
X25446509Y-31205843D01*
X25500032Y-31076944D01*
X25552970Y-31205063D01*
X25701088Y-31353440D01*
X25894713Y-31433840D01*
X26104367Y-31434023D01*
X26298132Y-31353961D01*
X26446509Y-31205843D01*
X26526909Y-31012218D01*
X26527092Y-30802564D01*
X26454550Y-30627000D01*
X31542731Y-30627000D01*
X31473091Y-30794713D01*
X31472908Y-31004367D01*
X31552970Y-31198132D01*
X31701088Y-31346509D01*
X31894713Y-31426909D01*
X32104367Y-31427092D01*
X32298132Y-31347030D01*
X32446509Y-31198912D01*
X32500032Y-31070013D01*
X32552970Y-31198132D01*
X32701088Y-31346509D01*
X32894713Y-31426909D01*
X33104367Y-31427092D01*
X33298132Y-31347030D01*
X33446509Y-31198912D01*
X33500032Y-31070013D01*
X33552970Y-31198132D01*
X33701088Y-31346509D01*
X33894713Y-31426909D01*
X34104367Y-31427092D01*
X34298132Y-31347030D01*
X34446509Y-31198912D01*
X34500032Y-31070013D01*
X34552970Y-31198132D01*
X34701088Y-31346509D01*
X34894713Y-31426909D01*
X35104367Y-31427092D01*
X35298132Y-31347030D01*
X35446509Y-31198912D01*
X35500032Y-31070013D01*
X35552970Y-31198132D01*
X35701088Y-31346509D01*
X35894713Y-31426909D01*
X36104367Y-31427092D01*
X36298132Y-31347030D01*
X36446509Y-31198912D01*
X36500032Y-31070013D01*
X36552970Y-31198132D01*
X36701088Y-31346509D01*
X36894713Y-31426909D01*
X37104367Y-31427092D01*
X37298132Y-31347030D01*
X37446509Y-31198912D01*
X37500032Y-31070013D01*
X37552970Y-31198132D01*
X37701088Y-31346509D01*
X37894713Y-31426909D01*
X38104367Y-31427092D01*
X38298132Y-31347030D01*
X38446509Y-31198912D01*
X38500032Y-31070013D01*
X38552970Y-31198132D01*
X38701088Y-31346509D01*
X38894713Y-31426909D01*
X39104367Y-31427092D01*
X39298132Y-31347030D01*
X39446509Y-31198912D01*
X39500032Y-31070013D01*
X39552970Y-31198132D01*
X39701088Y-31346509D01*
X39894713Y-31426909D01*
X40104367Y-31427092D01*
X40298132Y-31347030D01*
X40446509Y-31198912D01*
X40500032Y-31070013D01*
X40552970Y-31198132D01*
X40701088Y-31346509D01*
X40894713Y-31426909D01*
X41104367Y-31427092D01*
X41298132Y-31347030D01*
X41446509Y-31198912D01*
X41500032Y-31070013D01*
X41552970Y-31198132D01*
X41701088Y-31346509D01*
X41894713Y-31426909D01*
X42104367Y-31427092D01*
X42298132Y-31347030D01*
X42446509Y-31198912D01*
X42500032Y-31070013D01*
X42552970Y-31198132D01*
X42701088Y-31346509D01*
X42894713Y-31426909D01*
X43104367Y-31427092D01*
X43298132Y-31347030D01*
X43446509Y-31198912D01*
X43500032Y-31070013D01*
X43552970Y-31198132D01*
X43701088Y-31346509D01*
X43894713Y-31426909D01*
X44104367Y-31427092D01*
X44298132Y-31347030D01*
X44446509Y-31198912D01*
X44500032Y-31070013D01*
X44552970Y-31198132D01*
X44701088Y-31346509D01*
X44894713Y-31426909D01*
X45104367Y-31427092D01*
X45298132Y-31347030D01*
X45446509Y-31198912D01*
X45500032Y-31070013D01*
X45552970Y-31198132D01*
X45701088Y-31346509D01*
X45894713Y-31426909D01*
X46104367Y-31427092D01*
X46298132Y-31347030D01*
X46446509Y-31198912D01*
X46526909Y-31005287D01*
X46527092Y-30795633D01*
X46457414Y-30627000D01*
X46673000Y-30627000D01*
X46673000Y-54216161D01*
X46648902Y-54180096D01*
X46648899Y-54180094D01*
X45945657Y-53476851D01*
X45831460Y-53400547D01*
X45702326Y-53374860D01*
X45818988Y-53296909D01*
X46063291Y-52931284D01*
X46149079Y-52500000D01*
X46063291Y-52068716D01*
X45818988Y-51703091D01*
X45453363Y-51458788D01*
X45022079Y-51373000D01*
X44977921Y-51373000D01*
X44546637Y-51458788D01*
X44181012Y-51703091D01*
X43936709Y-52068716D01*
X43850921Y-52500000D01*
X43936709Y-52931284D01*
X44181012Y-53296909D01*
X44296017Y-53373753D01*
X38099247Y-53373753D01*
X37964542Y-53400547D01*
X37850345Y-53476851D01*
X37850343Y-53476854D01*
X37829172Y-53498025D01*
X37695633Y-53497908D01*
X37501868Y-53577970D01*
X37353491Y-53726088D01*
X37273091Y-53919713D01*
X37272908Y-54129367D01*
X37352970Y-54323132D01*
X37501088Y-54471509D01*
X37694713Y-54551909D01*
X37904367Y-54552092D01*
X38098132Y-54472030D01*
X38246509Y-54323912D01*
X38326909Y-54130287D01*
X38326955Y-54077753D01*
X44428458Y-54077753D01*
X44181012Y-54243091D01*
X43936709Y-54608716D01*
X43850921Y-55040000D01*
X43936709Y-55471284D01*
X44181012Y-55836909D01*
X44546637Y-56081212D01*
X44977921Y-56167000D01*
X45022079Y-56167000D01*
X45453363Y-56081212D01*
X45818988Y-55836909D01*
X46048000Y-55494169D01*
X46048000Y-55994197D01*
X45441098Y-56601098D01*
X45364794Y-56715295D01*
X45337999Y-56850000D01*
X45338000Y-56850005D01*
X45338000Y-57264196D01*
X44434196Y-58168000D01*
X41330000Y-58168000D01*
X41195295Y-58194794D01*
X41081098Y-58271098D01*
X41081096Y-58271101D01*
X35633600Y-63718596D01*
X35633600Y-62825750D01*
X35474850Y-62667000D01*
X34627760Y-62667000D01*
X34627760Y-62687000D01*
X34373760Y-62687000D01*
X34373760Y-62667000D01*
X33526670Y-62667000D01*
X33367920Y-62825750D01*
X33367920Y-64415100D01*
X33379630Y-64443369D01*
X33325091Y-64574713D01*
X33324908Y-64784367D01*
X33404970Y-64978132D01*
X33553088Y-65126509D01*
X33746713Y-65206909D01*
X33956367Y-65207092D01*
X34150132Y-65127030D01*
X34298509Y-64978912D01*
X34373758Y-64797692D01*
X34373758Y-64923790D01*
X34428406Y-64923790D01*
X34426098Y-64926098D01*
X34349794Y-65040295D01*
X34322999Y-65175000D01*
X34323000Y-65175005D01*
X34323000Y-65429197D01*
X33954196Y-65798000D01*
X32320803Y-65798000D01*
X31956019Y-65433215D01*
X32012132Y-65410030D01*
X32133036Y-65289338D01*
X32201088Y-65357509D01*
X32394713Y-65437909D01*
X32604367Y-65438092D01*
X32798132Y-65358030D01*
X32946509Y-65209912D01*
X33026909Y-65016287D01*
X33027092Y-64806633D01*
X32947030Y-64612868D01*
X32905451Y-64571216D01*
X32998350Y-64571216D01*
X33101000Y-64551901D01*
X33195277Y-64491235D01*
X33258525Y-64398670D01*
X33280776Y-64288790D01*
X33280776Y-60791210D01*
X33261461Y-60688560D01*
X33200795Y-60594283D01*
X33191909Y-60588212D01*
X33343612Y-60588344D01*
X33411198Y-60560418D01*
X33367920Y-60664900D01*
X33367920Y-62254250D01*
X33526670Y-62413000D01*
X34373760Y-62413000D01*
X34373760Y-60340883D01*
X34384524Y-60314960D01*
X34627760Y-60314960D01*
X34627760Y-62413000D01*
X35474850Y-62413000D01*
X35633600Y-62254250D01*
X35633600Y-60664900D01*
X35536927Y-60431511D01*
X35358298Y-60252883D01*
X35124909Y-60156210D01*
X34786510Y-60156210D01*
X34627760Y-60314960D01*
X34384524Y-60314960D01*
X34446154Y-60166539D01*
X34446337Y-59956885D01*
X34424638Y-59904367D01*
X37872908Y-59904367D01*
X37952970Y-60098132D01*
X38101088Y-60246509D01*
X38294713Y-60326909D01*
X38504367Y-60327092D01*
X38698132Y-60247030D01*
X38846509Y-60098912D01*
X38926909Y-59905287D01*
X38927092Y-59695633D01*
X38847030Y-59501868D01*
X38698912Y-59353491D01*
X38505287Y-59273091D01*
X38295633Y-59272908D01*
X38101868Y-59352970D01*
X37953491Y-59501088D01*
X37873091Y-59694713D01*
X37872908Y-59904367D01*
X34424638Y-59904367D01*
X34366275Y-59763120D01*
X34218157Y-59614743D01*
X34024532Y-59534343D01*
X33814878Y-59534160D01*
X33621113Y-59614222D01*
X33579302Y-59655960D01*
X33538157Y-59614743D01*
X33344532Y-59534343D01*
X33134878Y-59534160D01*
X32941113Y-59614222D01*
X32792736Y-59762340D01*
X32712336Y-59955965D01*
X32712153Y-60165619D01*
X32792215Y-60359384D01*
X32940333Y-60507761D01*
X32942797Y-60508784D01*
X32000130Y-60508784D01*
X31897480Y-60528099D01*
X31803203Y-60588765D01*
X31739955Y-60681330D01*
X31717704Y-60791210D01*
X31717704Y-62024189D01*
X31714665Y-62024794D01*
X31600468Y-62101098D01*
X30351098Y-63350468D01*
X30274794Y-63464665D01*
X30247999Y-63599370D01*
X30248000Y-63599375D01*
X30248000Y-64574995D01*
X30247999Y-64575000D01*
X30274794Y-64709705D01*
X30351098Y-64823902D01*
X31926096Y-66398899D01*
X31926098Y-66398902D01*
X32040295Y-66475206D01*
X32175000Y-66502000D01*
X34099995Y-66502000D01*
X34100000Y-66502001D01*
X34234705Y-66475206D01*
X34348902Y-66398902D01*
X34923899Y-65823904D01*
X34923902Y-65823902D01*
X35000206Y-65709705D01*
X35004652Y-65687356D01*
X35027001Y-65575000D01*
X35027000Y-65574995D01*
X35027000Y-65320804D01*
X35305581Y-65042223D01*
X35343970Y-65135132D01*
X35492088Y-65283509D01*
X35685713Y-65363909D01*
X35895367Y-65364092D01*
X36089132Y-65284030D01*
X36237509Y-65135912D01*
X36317909Y-64942287D01*
X36318092Y-64732633D01*
X36238030Y-64538868D01*
X36089912Y-64390491D01*
X35996218Y-64351586D01*
X38368436Y-61979367D01*
X38732908Y-61979367D01*
X38812970Y-62173132D01*
X38961088Y-62321509D01*
X39154713Y-62401909D01*
X39364367Y-62402092D01*
X39558132Y-62322030D01*
X39706509Y-62173912D01*
X39786909Y-61980287D01*
X39787092Y-61770633D01*
X39707030Y-61576868D01*
X39558912Y-61428491D01*
X39365287Y-61348091D01*
X39155633Y-61347908D01*
X38961868Y-61427970D01*
X38813491Y-61576088D01*
X38733091Y-61769713D01*
X38732908Y-61979367D01*
X38368436Y-61979367D01*
X41475803Y-58872000D01*
X44579995Y-58872000D01*
X44580000Y-58872001D01*
X44714705Y-58845206D01*
X44828902Y-58768902D01*
X45938902Y-57658902D01*
X46015206Y-57544705D01*
X46042001Y-57410000D01*
X46042000Y-57409995D01*
X46042000Y-56995804D01*
X46648899Y-56388904D01*
X46648902Y-56388902D01*
X46673000Y-56352837D01*
X46673000Y-66967793D01*
X46539731Y-67637778D01*
X46178460Y-68178460D01*
X45637778Y-68539731D01*
X44967792Y-68673000D01*
X38450000Y-68673000D01*
X38324863Y-68697891D01*
X38218776Y-68768776D01*
X38147891Y-68874863D01*
X38123000Y-69000000D01*
X38123000Y-69998000D01*
X37874735Y-69998000D01*
X37876906Y-69987280D01*
X37876906Y-67430612D01*
X43937842Y-67430612D01*
X44076393Y-67765932D01*
X44332719Y-68022705D01*
X44667796Y-68161841D01*
X45030612Y-68162158D01*
X45365932Y-68023607D01*
X45622705Y-67767281D01*
X45761841Y-67432204D01*
X45762158Y-67069388D01*
X45623607Y-66734068D01*
X45367281Y-66477295D01*
X45032204Y-66338159D01*
X44669388Y-66337842D01*
X44334068Y-66476393D01*
X44077295Y-66732719D01*
X43938159Y-67067796D01*
X43937842Y-67430612D01*
X37876906Y-67430612D01*
X37876906Y-66588760D01*
X37857591Y-66486110D01*
X37796925Y-66391833D01*
X37704360Y-66328585D01*
X37594480Y-66306334D01*
X36095880Y-66306334D01*
X35993230Y-66325649D01*
X35898953Y-66386315D01*
X35835705Y-66478880D01*
X35813454Y-66588760D01*
X35813454Y-69987280D01*
X35815471Y-69998000D01*
X31181578Y-69998000D01*
X31184006Y-69986010D01*
X31184006Y-66590030D01*
X31164691Y-66487380D01*
X31104025Y-66393103D01*
X31011460Y-66329855D01*
X30901580Y-66307604D01*
X29402980Y-66307604D01*
X29300330Y-66326919D01*
X29206053Y-66387585D01*
X29142805Y-66480150D01*
X29120554Y-66590030D01*
X29120554Y-69986010D01*
X29122810Y-69998000D01*
X28777000Y-69998000D01*
X28777000Y-69000000D01*
X28752109Y-68874863D01*
X28681224Y-68768776D01*
X28575137Y-68697891D01*
X28450000Y-68673000D01*
X22032207Y-68673000D01*
X21362222Y-68539731D01*
X20821540Y-68178460D01*
X20460269Y-67637778D01*
X20399170Y-67330612D01*
X21277842Y-67330612D01*
X21416393Y-67665932D01*
X21672719Y-67922705D01*
X22007796Y-68061841D01*
X22370612Y-68062158D01*
X22705932Y-67923607D01*
X22962705Y-67667281D01*
X23101841Y-67332204D01*
X23102158Y-66969388D01*
X22963607Y-66634068D01*
X22707281Y-66377295D01*
X22372204Y-66238159D01*
X22009388Y-66237842D01*
X21674068Y-66376393D01*
X21417295Y-66632719D01*
X21278159Y-66967796D01*
X21277842Y-67330612D01*
X20399170Y-67330612D01*
X20327000Y-66967792D01*
X20327000Y-65074367D01*
X26502908Y-65074367D01*
X26582970Y-65268132D01*
X26731088Y-65416509D01*
X26924713Y-65496909D01*
X27134367Y-65497092D01*
X27328132Y-65417030D01*
X27476509Y-65268912D01*
X27556909Y-65075287D01*
X27557092Y-64865633D01*
X27477030Y-64671868D01*
X27328912Y-64523491D01*
X27135287Y-64443091D01*
X26925633Y-64442908D01*
X26731868Y-64522970D01*
X26583491Y-64671088D01*
X26503091Y-64864713D01*
X26502908Y-65074367D01*
X20327000Y-65074367D01*
X20327000Y-62883191D01*
X21122805Y-62883191D01*
X21294019Y-63297560D01*
X21610772Y-63614867D01*
X22024842Y-63786804D01*
X22473191Y-63787195D01*
X22887560Y-63615981D01*
X23204867Y-63299228D01*
X23376804Y-62885158D01*
X23377195Y-62436809D01*
X23205981Y-62022440D01*
X22889228Y-61705133D01*
X22475158Y-61533196D01*
X22026809Y-61532805D01*
X21612440Y-61704019D01*
X21295133Y-62020772D01*
X21123196Y-62434842D01*
X21122805Y-62883191D01*
X20327000Y-62883191D01*
X20327000Y-60120000D01*
X21100921Y-60120000D01*
X21186709Y-60551284D01*
X21431012Y-60916909D01*
X21796637Y-61161212D01*
X22227921Y-61247000D01*
X22272079Y-61247000D01*
X22703363Y-61161212D01*
X22979890Y-60976442D01*
X26041593Y-60976442D01*
X26121655Y-61170207D01*
X26269773Y-61318584D01*
X26463398Y-61398984D01*
X26673052Y-61399167D01*
X26866817Y-61319105D01*
X27015194Y-61170987D01*
X27095594Y-60977362D01*
X27095777Y-60767708D01*
X27015715Y-60573943D01*
X26867597Y-60425566D01*
X26673972Y-60345166D01*
X26464318Y-60344983D01*
X26270553Y-60425045D01*
X26122176Y-60573163D01*
X26041776Y-60766788D01*
X26041593Y-60976442D01*
X22979890Y-60976442D01*
X23068988Y-60916909D01*
X23313291Y-60551284D01*
X23399079Y-60120000D01*
X23313291Y-59688716D01*
X23068988Y-59323091D01*
X22703363Y-59078788D01*
X22272079Y-58993000D01*
X22227921Y-58993000D01*
X21796637Y-59078788D01*
X21431012Y-59323091D01*
X21186709Y-59688716D01*
X21100921Y-60120000D01*
X20327000Y-60120000D01*
X20327000Y-57580000D01*
X21100921Y-57580000D01*
X21186709Y-58011284D01*
X21431012Y-58376909D01*
X21796637Y-58621212D01*
X22227921Y-58707000D01*
X22272079Y-58707000D01*
X22703363Y-58621212D01*
X23068988Y-58376909D01*
X23313291Y-58011284D01*
X23399079Y-57580000D01*
X23313291Y-57148716D01*
X23068988Y-56783091D01*
X22703363Y-56538788D01*
X22272079Y-56453000D01*
X22227921Y-56453000D01*
X21796637Y-56538788D01*
X21431012Y-56783091D01*
X21186709Y-57148716D01*
X21100921Y-57580000D01*
X20327000Y-57580000D01*
X20327000Y-55040000D01*
X21100921Y-55040000D01*
X21186709Y-55471284D01*
X21431012Y-55836909D01*
X21796637Y-56081212D01*
X22227921Y-56167000D01*
X22272079Y-56167000D01*
X22703363Y-56081212D01*
X23068988Y-55836909D01*
X23313291Y-55471284D01*
X23399079Y-55040000D01*
X23313291Y-54608716D01*
X23237920Y-54495915D01*
X24566054Y-54495915D01*
X24646116Y-54689680D01*
X24794234Y-54838057D01*
X24987859Y-54918457D01*
X25197513Y-54918640D01*
X25391278Y-54838578D01*
X25539655Y-54690460D01*
X25598000Y-54549949D01*
X25598000Y-58174995D01*
X25597999Y-58175000D01*
X25624794Y-58309705D01*
X25701098Y-58423902D01*
X27674869Y-60397672D01*
X27674871Y-60397675D01*
X27716613Y-60425566D01*
X27789069Y-60473980D01*
X27923773Y-60500774D01*
X27923778Y-60500773D01*
X27975155Y-60500773D01*
X28204254Y-60729871D01*
X28198091Y-60744713D01*
X28197908Y-60954367D01*
X28277970Y-61148132D01*
X28426088Y-61296509D01*
X28619713Y-61376909D01*
X28829367Y-61377092D01*
X29023132Y-61297030D01*
X29171509Y-61148912D01*
X29251909Y-60955287D01*
X29252092Y-60745633D01*
X29172030Y-60551868D01*
X29023912Y-60403491D01*
X28830287Y-60323091D01*
X28793048Y-60323058D01*
X28369861Y-59899871D01*
X28255664Y-59823567D01*
X28120959Y-59796772D01*
X28120954Y-59796773D01*
X28069576Y-59796773D01*
X26302000Y-58029196D01*
X26302000Y-55281724D01*
X26381639Y-55361502D01*
X26575264Y-55441902D01*
X26784918Y-55442085D01*
X26978683Y-55362023D01*
X27127060Y-55213905D01*
X27207460Y-55020280D01*
X27207643Y-54810626D01*
X27127581Y-54616861D01*
X26979463Y-54468484D01*
X26785838Y-54388084D01*
X26688432Y-54387999D01*
X26688432Y-54031424D01*
X26706146Y-54038779D01*
X26840655Y-54038896D01*
X31955609Y-59153850D01*
X32069806Y-59230154D01*
X32204511Y-59256949D01*
X32204516Y-59256948D01*
X34219990Y-59256948D01*
X34314334Y-59351457D01*
X34507959Y-59431857D01*
X34717613Y-59432040D01*
X34911378Y-59351978D01*
X35059755Y-59203860D01*
X35140155Y-59010235D01*
X35140338Y-58800581D01*
X35060276Y-58606816D01*
X34912158Y-58458439D01*
X34718533Y-58378039D01*
X34508879Y-58377856D01*
X34315114Y-58457918D01*
X34219918Y-58552948D01*
X32350315Y-58552948D01*
X31426733Y-57629366D01*
X43397907Y-57629366D01*
X43477969Y-57823131D01*
X43626087Y-57971508D01*
X43819712Y-58051908D01*
X44029366Y-58052091D01*
X44223131Y-57972029D01*
X44371508Y-57823911D01*
X44451908Y-57630286D01*
X44452091Y-57420632D01*
X44372029Y-57226867D01*
X44223911Y-57078490D01*
X44030286Y-56998090D01*
X43820632Y-56997907D01*
X43626867Y-57077969D01*
X43478490Y-57226087D01*
X43398090Y-57419712D01*
X43397907Y-57629366D01*
X31426733Y-57629366D01*
X30326734Y-56529367D01*
X32897908Y-56529367D01*
X32977970Y-56723132D01*
X33126088Y-56871509D01*
X33319713Y-56951909D01*
X33529367Y-56952092D01*
X33723132Y-56872030D01*
X33871509Y-56723912D01*
X33951909Y-56530287D01*
X33952092Y-56320633D01*
X33872030Y-56126868D01*
X33723912Y-55978491D01*
X33530287Y-55898091D01*
X33320633Y-55897908D01*
X33126868Y-55977970D01*
X32978491Y-56126088D01*
X32898091Y-56319713D01*
X32897908Y-56529367D01*
X30326734Y-56529367D01*
X27338408Y-53541041D01*
X27338421Y-53527000D01*
X35754196Y-53527000D01*
X36173000Y-53945803D01*
X36173000Y-54307351D01*
X36030287Y-54248091D01*
X35820633Y-54247908D01*
X35626868Y-54327970D01*
X35516337Y-54438308D01*
X35388734Y-54385323D01*
X35179080Y-54385140D01*
X34985315Y-54465202D01*
X34882324Y-54568013D01*
X34751526Y-54513701D01*
X34541872Y-54513518D01*
X34348107Y-54593580D01*
X34258625Y-54682906D01*
X34110498Y-54621398D01*
X33900844Y-54621215D01*
X33707079Y-54701277D01*
X33558702Y-54849395D01*
X33482369Y-55033226D01*
X33354111Y-54904744D01*
X33160486Y-54824344D01*
X32950832Y-54824161D01*
X32839695Y-54870082D01*
X32722207Y-54752389D01*
X32528582Y-54671989D01*
X32318928Y-54671806D01*
X32125163Y-54751868D01*
X32040032Y-54836850D01*
X31886481Y-54773090D01*
X31676827Y-54772907D01*
X31647502Y-54785024D01*
X31575995Y-54611963D01*
X31427877Y-54463586D01*
X31234252Y-54383186D01*
X31024598Y-54383003D01*
X30830833Y-54463065D01*
X30682456Y-54611183D01*
X30602056Y-54804808D01*
X30601873Y-55014462D01*
X30681935Y-55208227D01*
X30830053Y-55356604D01*
X31023678Y-55437004D01*
X31233332Y-55437187D01*
X31262657Y-55425070D01*
X31334164Y-55598131D01*
X31482282Y-55746508D01*
X31675907Y-55826908D01*
X31885561Y-55827091D01*
X32079326Y-55747029D01*
X32164457Y-55662047D01*
X32318008Y-55725807D01*
X32527662Y-55725990D01*
X32638799Y-55680069D01*
X32756287Y-55797762D01*
X32949912Y-55878162D01*
X33159566Y-55878345D01*
X33353331Y-55798283D01*
X33501708Y-55650165D01*
X33578041Y-55466334D01*
X33706299Y-55594816D01*
X33899924Y-55675216D01*
X34109578Y-55675399D01*
X34303343Y-55595337D01*
X34392825Y-55506011D01*
X34540952Y-55567519D01*
X34675461Y-55567636D01*
X35381736Y-56273910D01*
X35381738Y-56273913D01*
X35495935Y-56350217D01*
X35630640Y-56377011D01*
X38777986Y-56377011D01*
X38777991Y-56377012D01*
X38912696Y-56350217D01*
X39026893Y-56273913D01*
X39398806Y-55902000D01*
X40186875Y-55902000D01*
X40192763Y-55931602D01*
X40192763Y-55966272D01*
X40206031Y-55998303D01*
X40212794Y-56032305D01*
X40224617Y-56050000D01*
X40212794Y-56067695D01*
X40206031Y-56101697D01*
X40194620Y-56129244D01*
X40168912Y-56103491D01*
X39975287Y-56023091D01*
X39765633Y-56022908D01*
X39571868Y-56102970D01*
X39423491Y-56251088D01*
X39343091Y-56444713D01*
X39342908Y-56654367D01*
X39422970Y-56848132D01*
X39571088Y-56996509D01*
X39764713Y-57076909D01*
X39974367Y-57077092D01*
X40168132Y-56997030D01*
X40263328Y-56902000D01*
X40445271Y-56902000D01*
X40468506Y-56936774D01*
X40565624Y-57033892D01*
X40812831Y-57199071D01*
X40812834Y-57199074D01*
X40876279Y-57225353D01*
X40939723Y-57251633D01*
X40939728Y-57251633D01*
X41231323Y-57309635D01*
X41231328Y-57309637D01*
X41368672Y-57309637D01*
X41368677Y-57309635D01*
X41660272Y-57251633D01*
X41660277Y-57251633D01*
X41787166Y-57199073D01*
X42034376Y-57033892D01*
X42131494Y-56936774D01*
X42296671Y-56689569D01*
X42296674Y-56689566D01*
X42333318Y-56601098D01*
X42349233Y-56562677D01*
X42349233Y-56562672D01*
X42407236Y-56271072D01*
X42407236Y-56236404D01*
X42414000Y-56202400D01*
X42407237Y-56168398D01*
X42407237Y-56133728D01*
X42393969Y-56101697D01*
X42387206Y-56067695D01*
X42375383Y-56050000D01*
X42387206Y-56032305D01*
X42393969Y-55998303D01*
X42407237Y-55966272D01*
X42407237Y-55931602D01*
X42414000Y-55897600D01*
X42407236Y-55863596D01*
X42407236Y-55828928D01*
X42349233Y-55537328D01*
X42349233Y-55537323D01*
X42315390Y-55455620D01*
X42296674Y-55410434D01*
X42296671Y-55410431D01*
X42131492Y-55163224D01*
X42034374Y-55066106D01*
X41787166Y-54900927D01*
X41660277Y-54848367D01*
X41660272Y-54848367D01*
X41368677Y-54790365D01*
X41368672Y-54790363D01*
X41300000Y-54790364D01*
X41231328Y-54790363D01*
X41231323Y-54790365D01*
X40939728Y-54848367D01*
X40939723Y-54848367D01*
X40876279Y-54874647D01*
X40812834Y-54900926D01*
X40812831Y-54900929D01*
X40565626Y-55066106D01*
X40468508Y-55163224D01*
X40445271Y-55198000D01*
X39526915Y-55198000D01*
X39527092Y-54995633D01*
X39447030Y-54801868D01*
X39298912Y-54653491D01*
X39105287Y-54573091D01*
X38895633Y-54572908D01*
X38701868Y-54652970D01*
X38553491Y-54801088D01*
X38473091Y-54994713D01*
X38472908Y-55204367D01*
X38552970Y-55398132D01*
X38701088Y-55546509D01*
X38741789Y-55563409D01*
X38632187Y-55673011D01*
X36699748Y-55673011D01*
X36823132Y-55622030D01*
X36971509Y-55473912D01*
X37051909Y-55280287D01*
X37052092Y-55070633D01*
X36972030Y-54876868D01*
X36877000Y-54781672D01*
X36877000Y-53800000D01*
X36850206Y-53665295D01*
X36773902Y-53551098D01*
X36773899Y-53551096D01*
X36148902Y-52926098D01*
X36034705Y-52849794D01*
X35900000Y-52822999D01*
X35899995Y-52823000D01*
X27359619Y-52823000D01*
X27324586Y-52787967D01*
X27210389Y-52711663D01*
X27075684Y-52684868D01*
X27075679Y-52684869D01*
X26583437Y-52684869D01*
X26583432Y-52684868D01*
X26471076Y-52707217D01*
X26448727Y-52711663D01*
X26334530Y-52787967D01*
X26334528Y-52787970D01*
X26302000Y-52820498D01*
X26302000Y-51396145D01*
X29053538Y-51396145D01*
X29133600Y-51589910D01*
X29175338Y-51631721D01*
X29134121Y-51672866D01*
X29053721Y-51866491D01*
X29053538Y-52076145D01*
X29133600Y-52269910D01*
X29281718Y-52418287D01*
X29475343Y-52498687D01*
X29684997Y-52498870D01*
X29777576Y-52460617D01*
X37791658Y-52460617D01*
X37871720Y-52654382D01*
X38019838Y-52802759D01*
X38213463Y-52883159D01*
X38423117Y-52883342D01*
X38616882Y-52803280D01*
X38765259Y-52655162D01*
X38845659Y-52461537D01*
X38845842Y-52251883D01*
X38765780Y-52058118D01*
X38689015Y-51981219D01*
X38796509Y-51873912D01*
X38876909Y-51680287D01*
X38877092Y-51470633D01*
X38797030Y-51276868D01*
X38648912Y-51128491D01*
X38455287Y-51048091D01*
X38245633Y-51047908D01*
X38051868Y-51127970D01*
X37903491Y-51276088D01*
X37823091Y-51469713D01*
X37822908Y-51679367D01*
X37902970Y-51873132D01*
X37979735Y-51950031D01*
X37872241Y-52057338D01*
X37791841Y-52250963D01*
X37791658Y-52460617D01*
X29777576Y-52460617D01*
X29878762Y-52418808D01*
X30027139Y-52270690D01*
X30107539Y-52077065D01*
X30107722Y-51867411D01*
X30027660Y-51673646D01*
X29985922Y-51631835D01*
X30027139Y-51590690D01*
X30107539Y-51397065D01*
X30107722Y-51187411D01*
X30027660Y-50993646D01*
X29913581Y-50879367D01*
X39372908Y-50879367D01*
X39452970Y-51073132D01*
X39601088Y-51221509D01*
X39794713Y-51301909D01*
X40004367Y-51302092D01*
X40198132Y-51222030D01*
X40346509Y-51073912D01*
X40426909Y-50880287D01*
X40427092Y-50670633D01*
X40347030Y-50476868D01*
X40198912Y-50328491D01*
X40005287Y-50248091D01*
X39795633Y-50247908D01*
X39601868Y-50327970D01*
X39453491Y-50476088D01*
X39373091Y-50669713D01*
X39372908Y-50879367D01*
X29913581Y-50879367D01*
X29879542Y-50845269D01*
X29685917Y-50764869D01*
X29476263Y-50764686D01*
X29282498Y-50844748D01*
X29134121Y-50992866D01*
X29053721Y-51186491D01*
X29053538Y-51396145D01*
X26302000Y-51396145D01*
X26302000Y-51070804D01*
X26795803Y-50577000D01*
X29156744Y-50577000D01*
X29251088Y-50671509D01*
X29444713Y-50751909D01*
X29654367Y-50752092D01*
X29848132Y-50672030D01*
X29996509Y-50523912D01*
X30076909Y-50330287D01*
X30077084Y-50129367D01*
X37872908Y-50129367D01*
X37952970Y-50323132D01*
X38101088Y-50471509D01*
X38294713Y-50551909D01*
X38504367Y-50552092D01*
X38698132Y-50472030D01*
X38846509Y-50323912D01*
X38926909Y-50130287D01*
X38927057Y-49960000D01*
X43850921Y-49960000D01*
X43936709Y-50391284D01*
X44181012Y-50756909D01*
X44546637Y-51001212D01*
X44977921Y-51087000D01*
X45022079Y-51087000D01*
X45453363Y-51001212D01*
X45818988Y-50756909D01*
X46063291Y-50391284D01*
X46149079Y-49960000D01*
X46063291Y-49528716D01*
X45818988Y-49163091D01*
X45453363Y-48918788D01*
X45022079Y-48833000D01*
X44977921Y-48833000D01*
X44546637Y-48918788D01*
X44181012Y-49163091D01*
X43936709Y-49528716D01*
X43850921Y-49960000D01*
X38927057Y-49960000D01*
X38927092Y-49920633D01*
X38847030Y-49726868D01*
X38698912Y-49578491D01*
X38505287Y-49498091D01*
X38295633Y-49497908D01*
X38101868Y-49577970D01*
X37953491Y-49726088D01*
X37873091Y-49919713D01*
X37872908Y-50129367D01*
X30077084Y-50129367D01*
X30077092Y-50120633D01*
X29997030Y-49926868D01*
X29848912Y-49778491D01*
X29655287Y-49698091D01*
X29445633Y-49697908D01*
X29251868Y-49777970D01*
X29156672Y-49873000D01*
X28763337Y-49873000D01*
X28770696Y-49855277D01*
X28770879Y-49645623D01*
X28703835Y-49483363D01*
X28781950Y-49405384D01*
X28862350Y-49211759D01*
X28862449Y-49098279D01*
X28982818Y-49098384D01*
X29176583Y-49018322D01*
X29240649Y-48954367D01*
X37897908Y-48954367D01*
X37977970Y-49148132D01*
X38126088Y-49296509D01*
X38319713Y-49376909D01*
X38529367Y-49377092D01*
X38723132Y-49297030D01*
X38871509Y-49148912D01*
X38951909Y-48955287D01*
X38952092Y-48745633D01*
X38872030Y-48551868D01*
X38749741Y-48429365D01*
X39347908Y-48429365D01*
X39427970Y-48623130D01*
X39576088Y-48771507D01*
X39769713Y-48851907D01*
X39979367Y-48852090D01*
X40173132Y-48772028D01*
X40321509Y-48623910D01*
X40401909Y-48430285D01*
X40402092Y-48220631D01*
X40322030Y-48026866D01*
X40173912Y-47878489D01*
X39980287Y-47798089D01*
X39770633Y-47797906D01*
X39576868Y-47877968D01*
X39428491Y-48026086D01*
X39348091Y-48219711D01*
X39347908Y-48429365D01*
X38749741Y-48429365D01*
X38723912Y-48403491D01*
X38530287Y-48323091D01*
X38320633Y-48322908D01*
X38126868Y-48402970D01*
X37978491Y-48551088D01*
X37898091Y-48744713D01*
X37897908Y-48954367D01*
X29240649Y-48954367D01*
X29324960Y-48870204D01*
X29405360Y-48676579D01*
X29405434Y-48591888D01*
X29525188Y-48641614D01*
X29734842Y-48641797D01*
X29928607Y-48561735D01*
X30076984Y-48413617D01*
X30157384Y-48219992D01*
X30157567Y-48010338D01*
X30102438Y-47876916D01*
X30304367Y-47877092D01*
X30498132Y-47797030D01*
X30646509Y-47648912D01*
X30726909Y-47455287D01*
X30727092Y-47245633D01*
X30647030Y-47051868D01*
X30498912Y-46903491D01*
X30305287Y-46823091D01*
X30095633Y-46822908D01*
X29901868Y-46902970D01*
X29753491Y-47051088D01*
X29673091Y-47244713D01*
X29672908Y-47454367D01*
X29728037Y-47587789D01*
X29526108Y-47587613D01*
X29332343Y-47667675D01*
X29183966Y-47815793D01*
X29103566Y-48009418D01*
X29103492Y-48094109D01*
X28983738Y-48044383D01*
X28774084Y-48044200D01*
X28580319Y-48124262D01*
X28431942Y-48272380D01*
X28351542Y-48466005D01*
X28351443Y-48579485D01*
X28231074Y-48579380D01*
X28037309Y-48659442D01*
X27888932Y-48807560D01*
X27808532Y-49001185D01*
X27808349Y-49210839D01*
X27875393Y-49373099D01*
X27797278Y-49451078D01*
X27716878Y-49644703D01*
X27716695Y-49854357D01*
X27724398Y-49873000D01*
X26650000Y-49873000D01*
X26515295Y-49899794D01*
X26401098Y-49976098D01*
X26401096Y-49976101D01*
X25701098Y-50676098D01*
X25624794Y-50790295D01*
X25597999Y-50925000D01*
X25598000Y-50925005D01*
X25598000Y-54233361D01*
X25540176Y-54093416D01*
X25392058Y-53945039D01*
X25198433Y-53864639D01*
X24988779Y-53864456D01*
X24795014Y-53944518D01*
X24646637Y-54092636D01*
X24566237Y-54286261D01*
X24566054Y-54495915D01*
X23237920Y-54495915D01*
X23068988Y-54243091D01*
X22703363Y-53998788D01*
X22272079Y-53913000D01*
X22227921Y-53913000D01*
X21796637Y-53998788D01*
X21431012Y-54243091D01*
X21186709Y-54608716D01*
X21100921Y-55040000D01*
X20327000Y-55040000D01*
X20327000Y-52500000D01*
X21100921Y-52500000D01*
X21186709Y-52931284D01*
X21431012Y-53296909D01*
X21796637Y-53541212D01*
X22227921Y-53627000D01*
X22272079Y-53627000D01*
X22703363Y-53541212D01*
X23068988Y-53296909D01*
X23313291Y-52931284D01*
X23399079Y-52500000D01*
X23313291Y-52068716D01*
X23068988Y-51703091D01*
X22703363Y-51458788D01*
X22272079Y-51373000D01*
X22227921Y-51373000D01*
X21796637Y-51458788D01*
X21431012Y-51703091D01*
X21186709Y-52068716D01*
X21100921Y-52500000D01*
X20327000Y-52500000D01*
X20327000Y-49960000D01*
X21100921Y-49960000D01*
X21186709Y-50391284D01*
X21431012Y-50756909D01*
X21796637Y-51001212D01*
X22227921Y-51087000D01*
X22272079Y-51087000D01*
X22703363Y-51001212D01*
X23068988Y-50756909D01*
X23313291Y-50391284D01*
X23399079Y-49960000D01*
X23313291Y-49528716D01*
X23068988Y-49163091D01*
X22703363Y-48918788D01*
X22272079Y-48833000D01*
X22227921Y-48833000D01*
X21796637Y-48918788D01*
X21431012Y-49163091D01*
X21186709Y-49528716D01*
X21100921Y-49960000D01*
X20327000Y-49960000D01*
X20327000Y-47420000D01*
X21100921Y-47420000D01*
X21186709Y-47851284D01*
X21431012Y-48216909D01*
X21796637Y-48461212D01*
X22227921Y-48547000D01*
X22272079Y-48547000D01*
X22703363Y-48461212D01*
X23068988Y-48216909D01*
X23313291Y-47851284D01*
X23399079Y-47420000D01*
X23313291Y-46988716D01*
X23068988Y-46623091D01*
X22703363Y-46378788D01*
X22454908Y-46329367D01*
X30897908Y-46329367D01*
X30977970Y-46523132D01*
X31126088Y-46671509D01*
X31319713Y-46751909D01*
X31529367Y-46752092D01*
X31723132Y-46672030D01*
X31871509Y-46523912D01*
X31891711Y-46475261D01*
X31891658Y-46535617D01*
X31971720Y-46729382D01*
X32119838Y-46877759D01*
X32313463Y-46958159D01*
X32523117Y-46958342D01*
X32716882Y-46878280D01*
X32865259Y-46730162D01*
X32923210Y-46590601D01*
X32977970Y-46723132D01*
X33126088Y-46871509D01*
X33319713Y-46951909D01*
X33529367Y-46952092D01*
X33723132Y-46872030D01*
X33871509Y-46723912D01*
X33951909Y-46530287D01*
X33951909Y-46529367D01*
X34397908Y-46529367D01*
X34477970Y-46723132D01*
X34626088Y-46871509D01*
X34819713Y-46951909D01*
X35029367Y-46952092D01*
X35223132Y-46872030D01*
X35371509Y-46723912D01*
X35405072Y-46643082D01*
X35471720Y-46804382D01*
X35619838Y-46952759D01*
X35813463Y-47033159D01*
X36023117Y-47033342D01*
X36216882Y-46953280D01*
X36365259Y-46805162D01*
X36445659Y-46611537D01*
X36445687Y-46579999D01*
X36520693Y-46655137D01*
X36714318Y-46735537D01*
X36923972Y-46735720D01*
X36995186Y-46706295D01*
X36948091Y-46819713D01*
X36947908Y-47029367D01*
X37027970Y-47223132D01*
X37176088Y-47371509D01*
X37369713Y-47451909D01*
X37579367Y-47452092D01*
X37657035Y-47420000D01*
X43850921Y-47420000D01*
X43936709Y-47851284D01*
X44181012Y-48216909D01*
X44546637Y-48461212D01*
X44977921Y-48547000D01*
X45022079Y-48547000D01*
X45453363Y-48461212D01*
X45818988Y-48216909D01*
X46063291Y-47851284D01*
X46149079Y-47420000D01*
X46063291Y-46988716D01*
X45818988Y-46623091D01*
X45453363Y-46378788D01*
X45022079Y-46293000D01*
X44977921Y-46293000D01*
X44546637Y-46378788D01*
X44181012Y-46623091D01*
X43936709Y-46988716D01*
X43850921Y-47420000D01*
X37657035Y-47420000D01*
X37773132Y-47372030D01*
X37921509Y-47223912D01*
X38001909Y-47030287D01*
X38002092Y-46820633D01*
X37922030Y-46626868D01*
X37773912Y-46478491D01*
X37580287Y-46398091D01*
X37370633Y-46397908D01*
X37299419Y-46427333D01*
X37346514Y-46313915D01*
X37346697Y-46104261D01*
X37266635Y-45910496D01*
X37135735Y-45779367D01*
X37472908Y-45779367D01*
X37552970Y-45973132D01*
X37701088Y-46121509D01*
X37894713Y-46201909D01*
X38104367Y-46202092D01*
X38298132Y-46122030D01*
X38416000Y-46004367D01*
X39172908Y-46004367D01*
X39252970Y-46198132D01*
X39401088Y-46346509D01*
X39594713Y-46426909D01*
X39804367Y-46427092D01*
X39998132Y-46347030D01*
X40146509Y-46198912D01*
X40226909Y-46005287D01*
X40227092Y-45795633D01*
X40147030Y-45601868D01*
X39998912Y-45453491D01*
X39805287Y-45373091D01*
X39595633Y-45372908D01*
X39401868Y-45452970D01*
X39253491Y-45601088D01*
X39173091Y-45794713D01*
X39172908Y-46004367D01*
X38416000Y-46004367D01*
X38446509Y-45973912D01*
X38526909Y-45780287D01*
X38527092Y-45570633D01*
X38447030Y-45376868D01*
X38298912Y-45228491D01*
X38105287Y-45148091D01*
X37895633Y-45147908D01*
X37701868Y-45227970D01*
X37553491Y-45376088D01*
X37473091Y-45569713D01*
X37472908Y-45779367D01*
X37135735Y-45779367D01*
X37118517Y-45762119D01*
X36924892Y-45681719D01*
X36715238Y-45681536D01*
X36521473Y-45761598D01*
X36373096Y-45909716D01*
X36292696Y-46103341D01*
X36292668Y-46134879D01*
X36217662Y-46059741D01*
X36166358Y-46038438D01*
X36173496Y-46021247D01*
X36173679Y-45811593D01*
X36093617Y-45617828D01*
X35945499Y-45469451D01*
X35751874Y-45389051D01*
X35542220Y-45388868D01*
X35348455Y-45468930D01*
X35200078Y-45617048D01*
X35119678Y-45810673D01*
X35119569Y-45935164D01*
X35030287Y-45898091D01*
X34820633Y-45897908D01*
X34626868Y-45977970D01*
X34478491Y-46126088D01*
X34398091Y-46319713D01*
X34397908Y-46529367D01*
X33951909Y-46529367D01*
X33952092Y-46320633D01*
X33872030Y-46126868D01*
X33723912Y-45978491D01*
X33530287Y-45898091D01*
X33445824Y-45898017D01*
X33445842Y-45876883D01*
X33365780Y-45683118D01*
X33217662Y-45534741D01*
X33024037Y-45454341D01*
X32814383Y-45454158D01*
X32620618Y-45534220D01*
X32472241Y-45682338D01*
X32391841Y-45875963D01*
X32391816Y-45904226D01*
X32314383Y-45904158D01*
X32120618Y-45984220D01*
X31972241Y-46132338D01*
X31952039Y-46180989D01*
X31952092Y-46120633D01*
X31872030Y-45926868D01*
X31723912Y-45778491D01*
X31530287Y-45698091D01*
X31320633Y-45697908D01*
X31126868Y-45777970D01*
X30978491Y-45926088D01*
X30898091Y-46119713D01*
X30897908Y-46329367D01*
X22454908Y-46329367D01*
X22272079Y-46293000D01*
X22227921Y-46293000D01*
X21796637Y-46378788D01*
X21431012Y-46623091D01*
X21186709Y-46988716D01*
X21100921Y-47420000D01*
X20327000Y-47420000D01*
X20327000Y-44880000D01*
X21100921Y-44880000D01*
X21186709Y-45311284D01*
X21431012Y-45676909D01*
X21796637Y-45921212D01*
X22227921Y-46007000D01*
X22272079Y-46007000D01*
X22703363Y-45921212D01*
X23068988Y-45676909D01*
X23313291Y-45311284D01*
X23399079Y-44880000D01*
X43850921Y-44880000D01*
X43936709Y-45311284D01*
X44181012Y-45676909D01*
X44546637Y-45921212D01*
X44977921Y-46007000D01*
X45022079Y-46007000D01*
X45453363Y-45921212D01*
X45818988Y-45676909D01*
X46063291Y-45311284D01*
X46149079Y-44880000D01*
X46063291Y-44448716D01*
X45818988Y-44083091D01*
X45453363Y-43838788D01*
X45022079Y-43753000D01*
X44977921Y-43753000D01*
X44546637Y-43838788D01*
X44181012Y-44083091D01*
X43936709Y-44448716D01*
X43850921Y-44880000D01*
X23399079Y-44880000D01*
X23313291Y-44448716D01*
X23068988Y-44083091D01*
X22703363Y-43838788D01*
X22272079Y-43753000D01*
X22227921Y-43753000D01*
X21796637Y-43838788D01*
X21431012Y-44083091D01*
X21186709Y-44448716D01*
X21100921Y-44880000D01*
X20327000Y-44880000D01*
X20327000Y-42340000D01*
X21100921Y-42340000D01*
X21186709Y-42771284D01*
X21431012Y-43136909D01*
X21796637Y-43381212D01*
X22227921Y-43467000D01*
X22272079Y-43467000D01*
X22703363Y-43381212D01*
X23068988Y-43136909D01*
X23313291Y-42771284D01*
X23371250Y-42479905D01*
X25119317Y-42479905D01*
X25199379Y-42673670D01*
X25347497Y-42822047D01*
X25541122Y-42902447D01*
X25750776Y-42902630D01*
X25944541Y-42822568D01*
X26092918Y-42674450D01*
X26163542Y-42504367D01*
X31797908Y-42504367D01*
X31877970Y-42698132D01*
X32026088Y-42846509D01*
X32219713Y-42926909D01*
X32429367Y-42927092D01*
X32623132Y-42847030D01*
X32771509Y-42698912D01*
X32851909Y-42505287D01*
X32852053Y-42340000D01*
X43850921Y-42340000D01*
X43936709Y-42771284D01*
X44181012Y-43136909D01*
X44546637Y-43381212D01*
X44977921Y-43467000D01*
X45022079Y-43467000D01*
X45453363Y-43381212D01*
X45818988Y-43136909D01*
X46063291Y-42771284D01*
X46149079Y-42340000D01*
X46063291Y-41908716D01*
X45818988Y-41543091D01*
X45453363Y-41298788D01*
X45022079Y-41213000D01*
X44977921Y-41213000D01*
X44546637Y-41298788D01*
X44181012Y-41543091D01*
X43936709Y-41908716D01*
X43850921Y-42340000D01*
X32852053Y-42340000D01*
X32852092Y-42295633D01*
X32772030Y-42101868D01*
X32623912Y-41953491D01*
X32430287Y-41873091D01*
X32220633Y-41872908D01*
X32026868Y-41952970D01*
X31878491Y-42101088D01*
X31798091Y-42294713D01*
X31797908Y-42504367D01*
X26163542Y-42504367D01*
X26173318Y-42480825D01*
X26173501Y-42271171D01*
X26093439Y-42077406D01*
X25945321Y-41929029D01*
X25751696Y-41848629D01*
X25542042Y-41848446D01*
X25348277Y-41928508D01*
X25199900Y-42076626D01*
X25119500Y-42270251D01*
X25119317Y-42479905D01*
X23371250Y-42479905D01*
X23399079Y-42340000D01*
X23313291Y-41908716D01*
X23068988Y-41543091D01*
X22936204Y-41454367D01*
X36522887Y-41454367D01*
X36602949Y-41648132D01*
X36751067Y-41796509D01*
X36944692Y-41876909D01*
X37154346Y-41877092D01*
X37348111Y-41797030D01*
X37496488Y-41648912D01*
X37576888Y-41455287D01*
X37577071Y-41245633D01*
X37497009Y-41051868D01*
X37348891Y-40903491D01*
X37155266Y-40823091D01*
X36945612Y-40822908D01*
X36751847Y-40902970D01*
X36603470Y-41051088D01*
X36523070Y-41244713D01*
X36522887Y-41454367D01*
X22936204Y-41454367D01*
X22703363Y-41298788D01*
X22272079Y-41213000D01*
X22227921Y-41213000D01*
X21796637Y-41298788D01*
X21431012Y-41543091D01*
X21186709Y-41908716D01*
X21100921Y-42340000D01*
X20327000Y-42340000D01*
X20327000Y-39800000D01*
X21100921Y-39800000D01*
X21186709Y-40231284D01*
X21431012Y-40596909D01*
X21796637Y-40841212D01*
X22227921Y-40927000D01*
X22272079Y-40927000D01*
X22703363Y-40841212D01*
X22795920Y-40779367D01*
X31947908Y-40779367D01*
X32027970Y-40973132D01*
X32176088Y-41121509D01*
X32369713Y-41201909D01*
X32579367Y-41202092D01*
X32773132Y-41122030D01*
X32921509Y-40973912D01*
X33001909Y-40780287D01*
X33002092Y-40570633D01*
X32922030Y-40376868D01*
X32773912Y-40228491D01*
X32580287Y-40148091D01*
X32370633Y-40147908D01*
X32176868Y-40227970D01*
X32028491Y-40376088D01*
X31948091Y-40569713D01*
X31947908Y-40779367D01*
X22795920Y-40779367D01*
X23068988Y-40596909D01*
X23313291Y-40231284D01*
X23388264Y-39854367D01*
X23572908Y-39854367D01*
X23652970Y-40048132D01*
X23801088Y-40196509D01*
X23994713Y-40276909D01*
X24204367Y-40277092D01*
X24398132Y-40197030D01*
X24546509Y-40048912D01*
X24626909Y-39855287D01*
X24626957Y-39800000D01*
X43850921Y-39800000D01*
X43936709Y-40231284D01*
X44181012Y-40596909D01*
X44546637Y-40841212D01*
X44977921Y-40927000D01*
X45022079Y-40927000D01*
X45453363Y-40841212D01*
X45818988Y-40596909D01*
X46063291Y-40231284D01*
X46149079Y-39800000D01*
X46063291Y-39368716D01*
X45818988Y-39003091D01*
X45453363Y-38758788D01*
X45022079Y-38673000D01*
X44977921Y-38673000D01*
X44546637Y-38758788D01*
X44181012Y-39003091D01*
X43936709Y-39368716D01*
X43850921Y-39800000D01*
X24626957Y-39800000D01*
X24627092Y-39645633D01*
X24547030Y-39451868D01*
X24398912Y-39303491D01*
X24205287Y-39223091D01*
X23995633Y-39222908D01*
X23801868Y-39302970D01*
X23653491Y-39451088D01*
X23573091Y-39644713D01*
X23572908Y-39854367D01*
X23388264Y-39854367D01*
X23399079Y-39800000D01*
X23313291Y-39368716D01*
X23068988Y-39003091D01*
X22703363Y-38758788D01*
X22272079Y-38673000D01*
X22227921Y-38673000D01*
X21796637Y-38758788D01*
X21431012Y-39003091D01*
X21186709Y-39368716D01*
X21100921Y-39800000D01*
X20327000Y-39800000D01*
X20327000Y-38604367D01*
X24472908Y-38604367D01*
X24552970Y-38798132D01*
X24701088Y-38946509D01*
X24894713Y-39026909D01*
X25104367Y-39027092D01*
X25298132Y-38947030D01*
X25390957Y-38854367D01*
X36247908Y-38854367D01*
X36327970Y-39048132D01*
X36476088Y-39196509D01*
X36669713Y-39276909D01*
X36879367Y-39277092D01*
X37073132Y-39197030D01*
X37168328Y-39102000D01*
X40281744Y-39102000D01*
X40376088Y-39196509D01*
X40569713Y-39276909D01*
X40779367Y-39277092D01*
X40973132Y-39197030D01*
X41121509Y-39048912D01*
X41201909Y-38855287D01*
X41202092Y-38645633D01*
X41122030Y-38451868D01*
X40973912Y-38303491D01*
X40780287Y-38223091D01*
X40570633Y-38222908D01*
X40376868Y-38302970D01*
X40281672Y-38398000D01*
X37168256Y-38398000D01*
X37073912Y-38303491D01*
X36880287Y-38223091D01*
X36670633Y-38222908D01*
X36476868Y-38302970D01*
X36328491Y-38451088D01*
X36248091Y-38644713D01*
X36247908Y-38854367D01*
X25390957Y-38854367D01*
X25446509Y-38798912D01*
X25526909Y-38605287D01*
X25527092Y-38395633D01*
X25447030Y-38201868D01*
X25298912Y-38053491D01*
X25105287Y-37973091D01*
X24895633Y-37972908D01*
X24701868Y-38052970D01*
X24553491Y-38201088D01*
X24473091Y-38394713D01*
X24472908Y-38604367D01*
X20327000Y-38604367D01*
X20327000Y-37260000D01*
X21100921Y-37260000D01*
X21186709Y-37691284D01*
X21431012Y-38056909D01*
X21796637Y-38301212D01*
X22227921Y-38387000D01*
X22272079Y-38387000D01*
X22703363Y-38301212D01*
X23068988Y-38056909D01*
X23313291Y-37691284D01*
X23378319Y-37364367D01*
X23587908Y-37364367D01*
X23667970Y-37558132D01*
X23816088Y-37706509D01*
X24009713Y-37786909D01*
X24219367Y-37787092D01*
X24413132Y-37707030D01*
X24561509Y-37558912D01*
X24584158Y-37504367D01*
X36822898Y-37504367D01*
X36902960Y-37698132D01*
X37051078Y-37846509D01*
X37244703Y-37926909D01*
X37454357Y-37927092D01*
X37648122Y-37847030D01*
X37796499Y-37698912D01*
X37876899Y-37505287D01*
X37877082Y-37295633D01*
X37862359Y-37260000D01*
X43850921Y-37260000D01*
X43936709Y-37691284D01*
X44181012Y-38056909D01*
X44546637Y-38301212D01*
X44977921Y-38387000D01*
X45022079Y-38387000D01*
X45453363Y-38301212D01*
X45818988Y-38056909D01*
X46063291Y-37691284D01*
X46149079Y-37260000D01*
X46063291Y-36828716D01*
X45818988Y-36463091D01*
X45453363Y-36218788D01*
X45319628Y-36192186D01*
X45361458Y-36190315D01*
X45784080Y-36015259D01*
X45864353Y-35763958D01*
X45000000Y-34899605D01*
X44135647Y-35763958D01*
X44215920Y-36015259D01*
X44695408Y-36189195D01*
X44546637Y-36218788D01*
X44181012Y-36463091D01*
X43936709Y-36828716D01*
X43850921Y-37260000D01*
X37862359Y-37260000D01*
X37797020Y-37101868D01*
X37648902Y-36953491D01*
X37455277Y-36873091D01*
X37245623Y-36872908D01*
X37051858Y-36952970D01*
X36903481Y-37101088D01*
X36823081Y-37294713D01*
X36822898Y-37504367D01*
X24584158Y-37504367D01*
X24641909Y-37365287D01*
X24642092Y-37155633D01*
X24562030Y-36961868D01*
X24413912Y-36813491D01*
X24220287Y-36733091D01*
X24010633Y-36732908D01*
X23816868Y-36812970D01*
X23668491Y-36961088D01*
X23588091Y-37154713D01*
X23587908Y-37364367D01*
X23378319Y-37364367D01*
X23399079Y-37260000D01*
X23313291Y-36828716D01*
X23068988Y-36463091D01*
X22703363Y-36218788D01*
X22272079Y-36133000D01*
X22227921Y-36133000D01*
X21796637Y-36218788D01*
X21431012Y-36463091D01*
X21186709Y-36828716D01*
X21100921Y-37260000D01*
X20327000Y-37260000D01*
X20327000Y-36055457D01*
X29898289Y-36055457D01*
X29978351Y-36249222D01*
X30126469Y-36397599D01*
X30320094Y-36477999D01*
X30529748Y-36478182D01*
X30647889Y-36429367D01*
X37297908Y-36429367D01*
X37377970Y-36623132D01*
X37526088Y-36771509D01*
X37719713Y-36851909D01*
X37929367Y-36852092D01*
X38123132Y-36772030D01*
X38271509Y-36623912D01*
X38351909Y-36430287D01*
X38352092Y-36220633D01*
X38272030Y-36026868D01*
X38123912Y-35878491D01*
X37930287Y-35798091D01*
X37720633Y-35797908D01*
X37526868Y-35877970D01*
X37378491Y-36026088D01*
X37298091Y-36219713D01*
X37297908Y-36429367D01*
X30647889Y-36429367D01*
X30723513Y-36398120D01*
X30871890Y-36250002D01*
X30952290Y-36056377D01*
X30952473Y-35846723D01*
X30872411Y-35652958D01*
X30724293Y-35504581D01*
X30530668Y-35424181D01*
X30321014Y-35423998D01*
X30127249Y-35504060D01*
X29978872Y-35652178D01*
X29898472Y-35845803D01*
X29898289Y-36055457D01*
X20327000Y-36055457D01*
X20327000Y-34720000D01*
X21100921Y-34720000D01*
X21186709Y-35151284D01*
X21431012Y-35516909D01*
X21796637Y-35761212D01*
X22227921Y-35847000D01*
X22272079Y-35847000D01*
X22703363Y-35761212D01*
X23068988Y-35516909D01*
X23313291Y-35151284D01*
X23378319Y-34824367D01*
X23672908Y-34824367D01*
X23752970Y-35018132D01*
X23901088Y-35166509D01*
X24094713Y-35246909D01*
X24304367Y-35247092D01*
X24498132Y-35167030D01*
X24646509Y-35018912D01*
X24726909Y-34825287D01*
X24727092Y-34615633D01*
X24675711Y-34491279D01*
X43503282Y-34491279D01*
X43529685Y-35081458D01*
X43704741Y-35504080D01*
X43956042Y-35584353D01*
X44820395Y-34720000D01*
X45179605Y-34720000D01*
X46043958Y-35584353D01*
X46295259Y-35504080D01*
X46496718Y-34948721D01*
X46470315Y-34358542D01*
X46295259Y-33935920D01*
X46043958Y-33855647D01*
X45179605Y-34720000D01*
X44820395Y-34720000D01*
X43956042Y-33855647D01*
X43704741Y-33935920D01*
X43503282Y-34491279D01*
X24675711Y-34491279D01*
X24647030Y-34421868D01*
X24498912Y-34273491D01*
X24305287Y-34193091D01*
X24095633Y-34192908D01*
X23901868Y-34272970D01*
X23753491Y-34421088D01*
X23673091Y-34614713D01*
X23672908Y-34824367D01*
X23378319Y-34824367D01*
X23399079Y-34720000D01*
X23313291Y-34288716D01*
X23068988Y-33923091D01*
X22703363Y-33678788D01*
X22689558Y-33676042D01*
X44135647Y-33676042D01*
X45000000Y-34540395D01*
X45864353Y-33676042D01*
X45784080Y-33424741D01*
X45228721Y-33223282D01*
X44638542Y-33249685D01*
X44215920Y-33424741D01*
X44135647Y-33676042D01*
X22689558Y-33676042D01*
X22272079Y-33593000D01*
X22227921Y-33593000D01*
X21796637Y-33678788D01*
X21431012Y-33923091D01*
X21186709Y-34288716D01*
X21100921Y-34720000D01*
X20327000Y-34720000D01*
X20327000Y-30627000D01*
X20527414Y-30627000D01*
X20454896Y-30801644D01*
X20454896Y-30801644D01*
G37*
X20454896Y-30801644D02*
X20454713Y-31011298D01*
X20534775Y-31205063D01*
X20682893Y-31353440D01*
X20876518Y-31433840D01*
X21086172Y-31434023D01*
X21279937Y-31353961D01*
X21428314Y-31205843D01*
X21490957Y-31054981D01*
X21552970Y-31205063D01*
X21701088Y-31353440D01*
X21894713Y-31433840D01*
X22104367Y-31434023D01*
X22298132Y-31353961D01*
X22446509Y-31205843D01*
X22500032Y-31076944D01*
X22552970Y-31205063D01*
X22701088Y-31353440D01*
X22894713Y-31433840D01*
X23104367Y-31434023D01*
X23298132Y-31353961D01*
X23446509Y-31205843D01*
X23500032Y-31076944D01*
X23552970Y-31205063D01*
X23701088Y-31353440D01*
X23894713Y-31433840D01*
X24104367Y-31434023D01*
X24298132Y-31353961D01*
X24446509Y-31205843D01*
X24500032Y-31076944D01*
X24552970Y-31205063D01*
X24701088Y-31353440D01*
X24894713Y-31433840D01*
X25104367Y-31434023D01*
X25298132Y-31353961D01*
X25446509Y-31205843D01*
X25500032Y-31076944D01*
X25552970Y-31205063D01*
X25701088Y-31353440D01*
X25894713Y-31433840D01*
X26104367Y-31434023D01*
X26298132Y-31353961D01*
X26446509Y-31205843D01*
X26526909Y-31012218D01*
X26527092Y-30802564D01*
X26454550Y-30627000D01*
X31542731Y-30627000D01*
X31473091Y-30794713D01*
X31472908Y-31004367D01*
X31552970Y-31198132D01*
X31701088Y-31346509D01*
X31894713Y-31426909D01*
X32104367Y-31427092D01*
X32298132Y-31347030D01*
X32446509Y-31198912D01*
X32500032Y-31070013D01*
X32552970Y-31198132D01*
X32701088Y-31346509D01*
X32894713Y-31426909D01*
X33104367Y-31427092D01*
X33298132Y-31347030D01*
X33446509Y-31198912D01*
X33500032Y-31070013D01*
X33552970Y-31198132D01*
X33701088Y-31346509D01*
X33894713Y-31426909D01*
X34104367Y-31427092D01*
X34298132Y-31347030D01*
X34446509Y-31198912D01*
X34500032Y-31070013D01*
X34552970Y-31198132D01*
X34701088Y-31346509D01*
X34894713Y-31426909D01*
X35104367Y-31427092D01*
X35298132Y-31347030D01*
X35446509Y-31198912D01*
X35500032Y-31070013D01*
X35552970Y-31198132D01*
X35701088Y-31346509D01*
X35894713Y-31426909D01*
X36104367Y-31427092D01*
X36298132Y-31347030D01*
X36446509Y-31198912D01*
X36500032Y-31070013D01*
X36552970Y-31198132D01*
X36701088Y-31346509D01*
X36894713Y-31426909D01*
X37104367Y-31427092D01*
X37298132Y-31347030D01*
X37446509Y-31198912D01*
X37500032Y-31070013D01*
X37552970Y-31198132D01*
X37701088Y-31346509D01*
X37894713Y-31426909D01*
X38104367Y-31427092D01*
X38298132Y-31347030D01*
X38446509Y-31198912D01*
X38500032Y-31070013D01*
X38552970Y-31198132D01*
X38701088Y-31346509D01*
X38894713Y-31426909D01*
X39104367Y-31427092D01*
X39298132Y-31347030D01*
X39446509Y-31198912D01*
X39500032Y-31070013D01*
X39552970Y-31198132D01*
X39701088Y-31346509D01*
X39894713Y-31426909D01*
X40104367Y-31427092D01*
X40298132Y-31347030D01*
X40446509Y-31198912D01*
X40500032Y-31070013D01*
X40552970Y-31198132D01*
X40701088Y-31346509D01*
X40894713Y-31426909D01*
X41104367Y-31427092D01*
X41298132Y-31347030D01*
X41446509Y-31198912D01*
X41500032Y-31070013D01*
X41552970Y-31198132D01*
X41701088Y-31346509D01*
X41894713Y-31426909D01*
X42104367Y-31427092D01*
X42298132Y-31347030D01*
X42446509Y-31198912D01*
X42500032Y-31070013D01*
X42552970Y-31198132D01*
X42701088Y-31346509D01*
X42894713Y-31426909D01*
X43104367Y-31427092D01*
X43298132Y-31347030D01*
X43446509Y-31198912D01*
X43500032Y-31070013D01*
X43552970Y-31198132D01*
X43701088Y-31346509D01*
X43894713Y-31426909D01*
X44104367Y-31427092D01*
X44298132Y-31347030D01*
X44446509Y-31198912D01*
X44500032Y-31070013D01*
X44552970Y-31198132D01*
X44701088Y-31346509D01*
X44894713Y-31426909D01*
X45104367Y-31427092D01*
X45298132Y-31347030D01*
X45446509Y-31198912D01*
X45500032Y-31070013D01*
X45552970Y-31198132D01*
X45701088Y-31346509D01*
X45894713Y-31426909D01*
X46104367Y-31427092D01*
X46298132Y-31347030D01*
X46446509Y-31198912D01*
X46526909Y-31005287D01*
X46527092Y-30795633D01*
X46457414Y-30627000D01*
X46673000Y-30627000D01*
X46673000Y-54216161D01*
X46648902Y-54180096D01*
X46648899Y-54180094D01*
X45945657Y-53476851D01*
X45831460Y-53400547D01*
X45702326Y-53374860D01*
X45818988Y-53296909D01*
X46063291Y-52931284D01*
X46149079Y-52500000D01*
X46063291Y-52068716D01*
X45818988Y-51703091D01*
X45453363Y-51458788D01*
X45022079Y-51373000D01*
X44977921Y-51373000D01*
X44546637Y-51458788D01*
X44181012Y-51703091D01*
X43936709Y-52068716D01*
X43850921Y-52500000D01*
X43936709Y-52931284D01*
X44181012Y-53296909D01*
X44296017Y-53373753D01*
X38099247Y-53373753D01*
X37964542Y-53400547D01*
X37850345Y-53476851D01*
X37850343Y-53476854D01*
X37829172Y-53498025D01*
X37695633Y-53497908D01*
X37501868Y-53577970D01*
X37353491Y-53726088D01*
X37273091Y-53919713D01*
X37272908Y-54129367D01*
X37352970Y-54323132D01*
X37501088Y-54471509D01*
X37694713Y-54551909D01*
X37904367Y-54552092D01*
X38098132Y-54472030D01*
X38246509Y-54323912D01*
X38326909Y-54130287D01*
X38326955Y-54077753D01*
X44428458Y-54077753D01*
X44181012Y-54243091D01*
X43936709Y-54608716D01*
X43850921Y-55040000D01*
X43936709Y-55471284D01*
X44181012Y-55836909D01*
X44546637Y-56081212D01*
X44977921Y-56167000D01*
X45022079Y-56167000D01*
X45453363Y-56081212D01*
X45818988Y-55836909D01*
X46048000Y-55494169D01*
X46048000Y-55994197D01*
X45441098Y-56601098D01*
X45364794Y-56715295D01*
X45337999Y-56850000D01*
X45338000Y-56850005D01*
X45338000Y-57264196D01*
X44434196Y-58168000D01*
X41330000Y-58168000D01*
X41195295Y-58194794D01*
X41081098Y-58271098D01*
X41081096Y-58271101D01*
X35633600Y-63718596D01*
X35633600Y-62825750D01*
X35474850Y-62667000D01*
X34627760Y-62667000D01*
X34627760Y-62687000D01*
X34373760Y-62687000D01*
X34373760Y-62667000D01*
X33526670Y-62667000D01*
X33367920Y-62825750D01*
X33367920Y-64415100D01*
X33379630Y-64443369D01*
X33325091Y-64574713D01*
X33324908Y-64784367D01*
X33404970Y-64978132D01*
X33553088Y-65126509D01*
X33746713Y-65206909D01*
X33956367Y-65207092D01*
X34150132Y-65127030D01*
X34298509Y-64978912D01*
X34373758Y-64797692D01*
X34373758Y-64923790D01*
X34428406Y-64923790D01*
X34426098Y-64926098D01*
X34349794Y-65040295D01*
X34322999Y-65175000D01*
X34323000Y-65175005D01*
X34323000Y-65429197D01*
X33954196Y-65798000D01*
X32320803Y-65798000D01*
X31956019Y-65433215D01*
X32012132Y-65410030D01*
X32133036Y-65289338D01*
X32201088Y-65357509D01*
X32394713Y-65437909D01*
X32604367Y-65438092D01*
X32798132Y-65358030D01*
X32946509Y-65209912D01*
X33026909Y-65016287D01*
X33027092Y-64806633D01*
X32947030Y-64612868D01*
X32905451Y-64571216D01*
X32998350Y-64571216D01*
X33101000Y-64551901D01*
X33195277Y-64491235D01*
X33258525Y-64398670D01*
X33280776Y-64288790D01*
X33280776Y-60791210D01*
X33261461Y-60688560D01*
X33200795Y-60594283D01*
X33191909Y-60588212D01*
X33343612Y-60588344D01*
X33411198Y-60560418D01*
X33367920Y-60664900D01*
X33367920Y-62254250D01*
X33526670Y-62413000D01*
X34373760Y-62413000D01*
X34373760Y-60340883D01*
X34384524Y-60314960D01*
X34627760Y-60314960D01*
X34627760Y-62413000D01*
X35474850Y-62413000D01*
X35633600Y-62254250D01*
X35633600Y-60664900D01*
X35536927Y-60431511D01*
X35358298Y-60252883D01*
X35124909Y-60156210D01*
X34786510Y-60156210D01*
X34627760Y-60314960D01*
X34384524Y-60314960D01*
X34446154Y-60166539D01*
X34446337Y-59956885D01*
X34424638Y-59904367D01*
X37872908Y-59904367D01*
X37952970Y-60098132D01*
X38101088Y-60246509D01*
X38294713Y-60326909D01*
X38504367Y-60327092D01*
X38698132Y-60247030D01*
X38846509Y-60098912D01*
X38926909Y-59905287D01*
X38927092Y-59695633D01*
X38847030Y-59501868D01*
X38698912Y-59353491D01*
X38505287Y-59273091D01*
X38295633Y-59272908D01*
X38101868Y-59352970D01*
X37953491Y-59501088D01*
X37873091Y-59694713D01*
X37872908Y-59904367D01*
X34424638Y-59904367D01*
X34366275Y-59763120D01*
X34218157Y-59614743D01*
X34024532Y-59534343D01*
X33814878Y-59534160D01*
X33621113Y-59614222D01*
X33579302Y-59655960D01*
X33538157Y-59614743D01*
X33344532Y-59534343D01*
X33134878Y-59534160D01*
X32941113Y-59614222D01*
X32792736Y-59762340D01*
X32712336Y-59955965D01*
X32712153Y-60165619D01*
X32792215Y-60359384D01*
X32940333Y-60507761D01*
X32942797Y-60508784D01*
X32000130Y-60508784D01*
X31897480Y-60528099D01*
X31803203Y-60588765D01*
X31739955Y-60681330D01*
X31717704Y-60791210D01*
X31717704Y-62024189D01*
X31714665Y-62024794D01*
X31600468Y-62101098D01*
X30351098Y-63350468D01*
X30274794Y-63464665D01*
X30247999Y-63599370D01*
X30248000Y-63599375D01*
X30248000Y-64574995D01*
X30247999Y-64575000D01*
X30274794Y-64709705D01*
X30351098Y-64823902D01*
X31926096Y-66398899D01*
X31926098Y-66398902D01*
X32040295Y-66475206D01*
X32175000Y-66502000D01*
X34099995Y-66502000D01*
X34100000Y-66502001D01*
X34234705Y-66475206D01*
X34348902Y-66398902D01*
X34923899Y-65823904D01*
X34923902Y-65823902D01*
X35000206Y-65709705D01*
X35004652Y-65687356D01*
X35027001Y-65575000D01*
X35027000Y-65574995D01*
X35027000Y-65320804D01*
X35305581Y-65042223D01*
X35343970Y-65135132D01*
X35492088Y-65283509D01*
X35685713Y-65363909D01*
X35895367Y-65364092D01*
X36089132Y-65284030D01*
X36237509Y-65135912D01*
X36317909Y-64942287D01*
X36318092Y-64732633D01*
X36238030Y-64538868D01*
X36089912Y-64390491D01*
X35996218Y-64351586D01*
X38368436Y-61979367D01*
X38732908Y-61979367D01*
X38812970Y-62173132D01*
X38961088Y-62321509D01*
X39154713Y-62401909D01*
X39364367Y-62402092D01*
X39558132Y-62322030D01*
X39706509Y-62173912D01*
X39786909Y-61980287D01*
X39787092Y-61770633D01*
X39707030Y-61576868D01*
X39558912Y-61428491D01*
X39365287Y-61348091D01*
X39155633Y-61347908D01*
X38961868Y-61427970D01*
X38813491Y-61576088D01*
X38733091Y-61769713D01*
X38732908Y-61979367D01*
X38368436Y-61979367D01*
X41475803Y-58872000D01*
X44579995Y-58872000D01*
X44580000Y-58872001D01*
X44714705Y-58845206D01*
X44828902Y-58768902D01*
X45938902Y-57658902D01*
X46015206Y-57544705D01*
X46042001Y-57410000D01*
X46042000Y-57409995D01*
X46042000Y-56995804D01*
X46648899Y-56388904D01*
X46648902Y-56388902D01*
X46673000Y-56352837D01*
X46673000Y-66967793D01*
X46539731Y-67637778D01*
X46178460Y-68178460D01*
X45637778Y-68539731D01*
X44967792Y-68673000D01*
X38450000Y-68673000D01*
X38324863Y-68697891D01*
X38218776Y-68768776D01*
X38147891Y-68874863D01*
X38123000Y-69000000D01*
X38123000Y-69998000D01*
X37874735Y-69998000D01*
X37876906Y-69987280D01*
X37876906Y-67430612D01*
X43937842Y-67430612D01*
X44076393Y-67765932D01*
X44332719Y-68022705D01*
X44667796Y-68161841D01*
X45030612Y-68162158D01*
X45365932Y-68023607D01*
X45622705Y-67767281D01*
X45761841Y-67432204D01*
X45762158Y-67069388D01*
X45623607Y-66734068D01*
X45367281Y-66477295D01*
X45032204Y-66338159D01*
X44669388Y-66337842D01*
X44334068Y-66476393D01*
X44077295Y-66732719D01*
X43938159Y-67067796D01*
X43937842Y-67430612D01*
X37876906Y-67430612D01*
X37876906Y-66588760D01*
X37857591Y-66486110D01*
X37796925Y-66391833D01*
X37704360Y-66328585D01*
X37594480Y-66306334D01*
X36095880Y-66306334D01*
X35993230Y-66325649D01*
X35898953Y-66386315D01*
X35835705Y-66478880D01*
X35813454Y-66588760D01*
X35813454Y-69987280D01*
X35815471Y-69998000D01*
X31181578Y-69998000D01*
X31184006Y-69986010D01*
X31184006Y-66590030D01*
X31164691Y-66487380D01*
X31104025Y-66393103D01*
X31011460Y-66329855D01*
X30901580Y-66307604D01*
X29402980Y-66307604D01*
X29300330Y-66326919D01*
X29206053Y-66387585D01*
X29142805Y-66480150D01*
X29120554Y-66590030D01*
X29120554Y-69986010D01*
X29122810Y-69998000D01*
X28777000Y-69998000D01*
X28777000Y-69000000D01*
X28752109Y-68874863D01*
X28681224Y-68768776D01*
X28575137Y-68697891D01*
X28450000Y-68673000D01*
X22032207Y-68673000D01*
X21362222Y-68539731D01*
X20821540Y-68178460D01*
X20460269Y-67637778D01*
X20399170Y-67330612D01*
X21277842Y-67330612D01*
X21416393Y-67665932D01*
X21672719Y-67922705D01*
X22007796Y-68061841D01*
X22370612Y-68062158D01*
X22705932Y-67923607D01*
X22962705Y-67667281D01*
X23101841Y-67332204D01*
X23102158Y-66969388D01*
X22963607Y-66634068D01*
X22707281Y-66377295D01*
X22372204Y-66238159D01*
X22009388Y-66237842D01*
X21674068Y-66376393D01*
X21417295Y-66632719D01*
X21278159Y-66967796D01*
X21277842Y-67330612D01*
X20399170Y-67330612D01*
X20327000Y-66967792D01*
X20327000Y-65074367D01*
X26502908Y-65074367D01*
X26582970Y-65268132D01*
X26731088Y-65416509D01*
X26924713Y-65496909D01*
X27134367Y-65497092D01*
X27328132Y-65417030D01*
X27476509Y-65268912D01*
X27556909Y-65075287D01*
X27557092Y-64865633D01*
X27477030Y-64671868D01*
X27328912Y-64523491D01*
X27135287Y-64443091D01*
X26925633Y-64442908D01*
X26731868Y-64522970D01*
X26583491Y-64671088D01*
X26503091Y-64864713D01*
X26502908Y-65074367D01*
X20327000Y-65074367D01*
X20327000Y-62883191D01*
X21122805Y-62883191D01*
X21294019Y-63297560D01*
X21610772Y-63614867D01*
X22024842Y-63786804D01*
X22473191Y-63787195D01*
X22887560Y-63615981D01*
X23204867Y-63299228D01*
X23376804Y-62885158D01*
X23377195Y-62436809D01*
X23205981Y-62022440D01*
X22889228Y-61705133D01*
X22475158Y-61533196D01*
X22026809Y-61532805D01*
X21612440Y-61704019D01*
X21295133Y-62020772D01*
X21123196Y-62434842D01*
X21122805Y-62883191D01*
X20327000Y-62883191D01*
X20327000Y-60120000D01*
X21100921Y-60120000D01*
X21186709Y-60551284D01*
X21431012Y-60916909D01*
X21796637Y-61161212D01*
X22227921Y-61247000D01*
X22272079Y-61247000D01*
X22703363Y-61161212D01*
X22979890Y-60976442D01*
X26041593Y-60976442D01*
X26121655Y-61170207D01*
X26269773Y-61318584D01*
X26463398Y-61398984D01*
X26673052Y-61399167D01*
X26866817Y-61319105D01*
X27015194Y-61170987D01*
X27095594Y-60977362D01*
X27095777Y-60767708D01*
X27015715Y-60573943D01*
X26867597Y-60425566D01*
X26673972Y-60345166D01*
X26464318Y-60344983D01*
X26270553Y-60425045D01*
X26122176Y-60573163D01*
X26041776Y-60766788D01*
X26041593Y-60976442D01*
X22979890Y-60976442D01*
X23068988Y-60916909D01*
X23313291Y-60551284D01*
X23399079Y-60120000D01*
X23313291Y-59688716D01*
X23068988Y-59323091D01*
X22703363Y-59078788D01*
X22272079Y-58993000D01*
X22227921Y-58993000D01*
X21796637Y-59078788D01*
X21431012Y-59323091D01*
X21186709Y-59688716D01*
X21100921Y-60120000D01*
X20327000Y-60120000D01*
X20327000Y-57580000D01*
X21100921Y-57580000D01*
X21186709Y-58011284D01*
X21431012Y-58376909D01*
X21796637Y-58621212D01*
X22227921Y-58707000D01*
X22272079Y-58707000D01*
X22703363Y-58621212D01*
X23068988Y-58376909D01*
X23313291Y-58011284D01*
X23399079Y-57580000D01*
X23313291Y-57148716D01*
X23068988Y-56783091D01*
X22703363Y-56538788D01*
X22272079Y-56453000D01*
X22227921Y-56453000D01*
X21796637Y-56538788D01*
X21431012Y-56783091D01*
X21186709Y-57148716D01*
X21100921Y-57580000D01*
X20327000Y-57580000D01*
X20327000Y-55040000D01*
X21100921Y-55040000D01*
X21186709Y-55471284D01*
X21431012Y-55836909D01*
X21796637Y-56081212D01*
X22227921Y-56167000D01*
X22272079Y-56167000D01*
X22703363Y-56081212D01*
X23068988Y-55836909D01*
X23313291Y-55471284D01*
X23399079Y-55040000D01*
X23313291Y-54608716D01*
X23237920Y-54495915D01*
X24566054Y-54495915D01*
X24646116Y-54689680D01*
X24794234Y-54838057D01*
X24987859Y-54918457D01*
X25197513Y-54918640D01*
X25391278Y-54838578D01*
X25539655Y-54690460D01*
X25598000Y-54549949D01*
X25598000Y-58174995D01*
X25597999Y-58175000D01*
X25624794Y-58309705D01*
X25701098Y-58423902D01*
X27674869Y-60397672D01*
X27674871Y-60397675D01*
X27716613Y-60425566D01*
X27789069Y-60473980D01*
X27923773Y-60500774D01*
X27923778Y-60500773D01*
X27975155Y-60500773D01*
X28204254Y-60729871D01*
X28198091Y-60744713D01*
X28197908Y-60954367D01*
X28277970Y-61148132D01*
X28426088Y-61296509D01*
X28619713Y-61376909D01*
X28829367Y-61377092D01*
X29023132Y-61297030D01*
X29171509Y-61148912D01*
X29251909Y-60955287D01*
X29252092Y-60745633D01*
X29172030Y-60551868D01*
X29023912Y-60403491D01*
X28830287Y-60323091D01*
X28793048Y-60323058D01*
X28369861Y-59899871D01*
X28255664Y-59823567D01*
X28120959Y-59796772D01*
X28120954Y-59796773D01*
X28069576Y-59796773D01*
X26302000Y-58029196D01*
X26302000Y-55281724D01*
X26381639Y-55361502D01*
X26575264Y-55441902D01*
X26784918Y-55442085D01*
X26978683Y-55362023D01*
X27127060Y-55213905D01*
X27207460Y-55020280D01*
X27207643Y-54810626D01*
X27127581Y-54616861D01*
X26979463Y-54468484D01*
X26785838Y-54388084D01*
X26688432Y-54387999D01*
X26688432Y-54031424D01*
X26706146Y-54038779D01*
X26840655Y-54038896D01*
X31955609Y-59153850D01*
X32069806Y-59230154D01*
X32204511Y-59256949D01*
X32204516Y-59256948D01*
X34219990Y-59256948D01*
X34314334Y-59351457D01*
X34507959Y-59431857D01*
X34717613Y-59432040D01*
X34911378Y-59351978D01*
X35059755Y-59203860D01*
X35140155Y-59010235D01*
X35140338Y-58800581D01*
X35060276Y-58606816D01*
X34912158Y-58458439D01*
X34718533Y-58378039D01*
X34508879Y-58377856D01*
X34315114Y-58457918D01*
X34219918Y-58552948D01*
X32350315Y-58552948D01*
X31426733Y-57629366D01*
X43397907Y-57629366D01*
X43477969Y-57823131D01*
X43626087Y-57971508D01*
X43819712Y-58051908D01*
X44029366Y-58052091D01*
X44223131Y-57972029D01*
X44371508Y-57823911D01*
X44451908Y-57630286D01*
X44452091Y-57420632D01*
X44372029Y-57226867D01*
X44223911Y-57078490D01*
X44030286Y-56998090D01*
X43820632Y-56997907D01*
X43626867Y-57077969D01*
X43478490Y-57226087D01*
X43398090Y-57419712D01*
X43397907Y-57629366D01*
X31426733Y-57629366D01*
X30326734Y-56529367D01*
X32897908Y-56529367D01*
X32977970Y-56723132D01*
X33126088Y-56871509D01*
X33319713Y-56951909D01*
X33529367Y-56952092D01*
X33723132Y-56872030D01*
X33871509Y-56723912D01*
X33951909Y-56530287D01*
X33952092Y-56320633D01*
X33872030Y-56126868D01*
X33723912Y-55978491D01*
X33530287Y-55898091D01*
X33320633Y-55897908D01*
X33126868Y-55977970D01*
X32978491Y-56126088D01*
X32898091Y-56319713D01*
X32897908Y-56529367D01*
X30326734Y-56529367D01*
X27338408Y-53541041D01*
X27338421Y-53527000D01*
X35754196Y-53527000D01*
X36173000Y-53945803D01*
X36173000Y-54307351D01*
X36030287Y-54248091D01*
X35820633Y-54247908D01*
X35626868Y-54327970D01*
X35516337Y-54438308D01*
X35388734Y-54385323D01*
X35179080Y-54385140D01*
X34985315Y-54465202D01*
X34882324Y-54568013D01*
X34751526Y-54513701D01*
X34541872Y-54513518D01*
X34348107Y-54593580D01*
X34258625Y-54682906D01*
X34110498Y-54621398D01*
X33900844Y-54621215D01*
X33707079Y-54701277D01*
X33558702Y-54849395D01*
X33482369Y-55033226D01*
X33354111Y-54904744D01*
X33160486Y-54824344D01*
X32950832Y-54824161D01*
X32839695Y-54870082D01*
X32722207Y-54752389D01*
X32528582Y-54671989D01*
X32318928Y-54671806D01*
X32125163Y-54751868D01*
X32040032Y-54836850D01*
X31886481Y-54773090D01*
X31676827Y-54772907D01*
X31647502Y-54785024D01*
X31575995Y-54611963D01*
X31427877Y-54463586D01*
X31234252Y-54383186D01*
X31024598Y-54383003D01*
X30830833Y-54463065D01*
X30682456Y-54611183D01*
X30602056Y-54804808D01*
X30601873Y-55014462D01*
X30681935Y-55208227D01*
X30830053Y-55356604D01*
X31023678Y-55437004D01*
X31233332Y-55437187D01*
X31262657Y-55425070D01*
X31334164Y-55598131D01*
X31482282Y-55746508D01*
X31675907Y-55826908D01*
X31885561Y-55827091D01*
X32079326Y-55747029D01*
X32164457Y-55662047D01*
X32318008Y-55725807D01*
X32527662Y-55725990D01*
X32638799Y-55680069D01*
X32756287Y-55797762D01*
X32949912Y-55878162D01*
X33159566Y-55878345D01*
X33353331Y-55798283D01*
X33501708Y-55650165D01*
X33578041Y-55466334D01*
X33706299Y-55594816D01*
X33899924Y-55675216D01*
X34109578Y-55675399D01*
X34303343Y-55595337D01*
X34392825Y-55506011D01*
X34540952Y-55567519D01*
X34675461Y-55567636D01*
X35381736Y-56273910D01*
X35381738Y-56273913D01*
X35495935Y-56350217D01*
X35630640Y-56377011D01*
X38777986Y-56377011D01*
X38777991Y-56377012D01*
X38912696Y-56350217D01*
X39026893Y-56273913D01*
X39398806Y-55902000D01*
X40186875Y-55902000D01*
X40192763Y-55931602D01*
X40192763Y-55966272D01*
X40206031Y-55998303D01*
X40212794Y-56032305D01*
X40224617Y-56050000D01*
X40212794Y-56067695D01*
X40206031Y-56101697D01*
X40194620Y-56129244D01*
X40168912Y-56103491D01*
X39975287Y-56023091D01*
X39765633Y-56022908D01*
X39571868Y-56102970D01*
X39423491Y-56251088D01*
X39343091Y-56444713D01*
X39342908Y-56654367D01*
X39422970Y-56848132D01*
X39571088Y-56996509D01*
X39764713Y-57076909D01*
X39974367Y-57077092D01*
X40168132Y-56997030D01*
X40263328Y-56902000D01*
X40445271Y-56902000D01*
X40468506Y-56936774D01*
X40565624Y-57033892D01*
X40812831Y-57199071D01*
X40812834Y-57199074D01*
X40876279Y-57225353D01*
X40939723Y-57251633D01*
X40939728Y-57251633D01*
X41231323Y-57309635D01*
X41231328Y-57309637D01*
X41368672Y-57309637D01*
X41368677Y-57309635D01*
X41660272Y-57251633D01*
X41660277Y-57251633D01*
X41787166Y-57199073D01*
X42034376Y-57033892D01*
X42131494Y-56936774D01*
X42296671Y-56689569D01*
X42296674Y-56689566D01*
X42333318Y-56601098D01*
X42349233Y-56562677D01*
X42349233Y-56562672D01*
X42407236Y-56271072D01*
X42407236Y-56236404D01*
X42414000Y-56202400D01*
X42407237Y-56168398D01*
X42407237Y-56133728D01*
X42393969Y-56101697D01*
X42387206Y-56067695D01*
X42375383Y-56050000D01*
X42387206Y-56032305D01*
X42393969Y-55998303D01*
X42407237Y-55966272D01*
X42407237Y-55931602D01*
X42414000Y-55897600D01*
X42407236Y-55863596D01*
X42407236Y-55828928D01*
X42349233Y-55537328D01*
X42349233Y-55537323D01*
X42315390Y-55455620D01*
X42296674Y-55410434D01*
X42296671Y-55410431D01*
X42131492Y-55163224D01*
X42034374Y-55066106D01*
X41787166Y-54900927D01*
X41660277Y-54848367D01*
X41660272Y-54848367D01*
X41368677Y-54790365D01*
X41368672Y-54790363D01*
X41300000Y-54790364D01*
X41231328Y-54790363D01*
X41231323Y-54790365D01*
X40939728Y-54848367D01*
X40939723Y-54848367D01*
X40876279Y-54874647D01*
X40812834Y-54900926D01*
X40812831Y-54900929D01*
X40565626Y-55066106D01*
X40468508Y-55163224D01*
X40445271Y-55198000D01*
X39526915Y-55198000D01*
X39527092Y-54995633D01*
X39447030Y-54801868D01*
X39298912Y-54653491D01*
X39105287Y-54573091D01*
X38895633Y-54572908D01*
X38701868Y-54652970D01*
X38553491Y-54801088D01*
X38473091Y-54994713D01*
X38472908Y-55204367D01*
X38552970Y-55398132D01*
X38701088Y-55546509D01*
X38741789Y-55563409D01*
X38632187Y-55673011D01*
X36699748Y-55673011D01*
X36823132Y-55622030D01*
X36971509Y-55473912D01*
X37051909Y-55280287D01*
X37052092Y-55070633D01*
X36972030Y-54876868D01*
X36877000Y-54781672D01*
X36877000Y-53800000D01*
X36850206Y-53665295D01*
X36773902Y-53551098D01*
X36773899Y-53551096D01*
X36148902Y-52926098D01*
X36034705Y-52849794D01*
X35900000Y-52822999D01*
X35899995Y-52823000D01*
X27359619Y-52823000D01*
X27324586Y-52787967D01*
X27210389Y-52711663D01*
X27075684Y-52684868D01*
X27075679Y-52684869D01*
X26583437Y-52684869D01*
X26583432Y-52684868D01*
X26471076Y-52707217D01*
X26448727Y-52711663D01*
X26334530Y-52787967D01*
X26334528Y-52787970D01*
X26302000Y-52820498D01*
X26302000Y-51396145D01*
X29053538Y-51396145D01*
X29133600Y-51589910D01*
X29175338Y-51631721D01*
X29134121Y-51672866D01*
X29053721Y-51866491D01*
X29053538Y-52076145D01*
X29133600Y-52269910D01*
X29281718Y-52418287D01*
X29475343Y-52498687D01*
X29684997Y-52498870D01*
X29777576Y-52460617D01*
X37791658Y-52460617D01*
X37871720Y-52654382D01*
X38019838Y-52802759D01*
X38213463Y-52883159D01*
X38423117Y-52883342D01*
X38616882Y-52803280D01*
X38765259Y-52655162D01*
X38845659Y-52461537D01*
X38845842Y-52251883D01*
X38765780Y-52058118D01*
X38689015Y-51981219D01*
X38796509Y-51873912D01*
X38876909Y-51680287D01*
X38877092Y-51470633D01*
X38797030Y-51276868D01*
X38648912Y-51128491D01*
X38455287Y-51048091D01*
X38245633Y-51047908D01*
X38051868Y-51127970D01*
X37903491Y-51276088D01*
X37823091Y-51469713D01*
X37822908Y-51679367D01*
X37902970Y-51873132D01*
X37979735Y-51950031D01*
X37872241Y-52057338D01*
X37791841Y-52250963D01*
X37791658Y-52460617D01*
X29777576Y-52460617D01*
X29878762Y-52418808D01*
X30027139Y-52270690D01*
X30107539Y-52077065D01*
X30107722Y-51867411D01*
X30027660Y-51673646D01*
X29985922Y-51631835D01*
X30027139Y-51590690D01*
X30107539Y-51397065D01*
X30107722Y-51187411D01*
X30027660Y-50993646D01*
X29913581Y-50879367D01*
X39372908Y-50879367D01*
X39452970Y-51073132D01*
X39601088Y-51221509D01*
X39794713Y-51301909D01*
X40004367Y-51302092D01*
X40198132Y-51222030D01*
X40346509Y-51073912D01*
X40426909Y-50880287D01*
X40427092Y-50670633D01*
X40347030Y-50476868D01*
X40198912Y-50328491D01*
X40005287Y-50248091D01*
X39795633Y-50247908D01*
X39601868Y-50327970D01*
X39453491Y-50476088D01*
X39373091Y-50669713D01*
X39372908Y-50879367D01*
X29913581Y-50879367D01*
X29879542Y-50845269D01*
X29685917Y-50764869D01*
X29476263Y-50764686D01*
X29282498Y-50844748D01*
X29134121Y-50992866D01*
X29053721Y-51186491D01*
X29053538Y-51396145D01*
X26302000Y-51396145D01*
X26302000Y-51070804D01*
X26795803Y-50577000D01*
X29156744Y-50577000D01*
X29251088Y-50671509D01*
X29444713Y-50751909D01*
X29654367Y-50752092D01*
X29848132Y-50672030D01*
X29996509Y-50523912D01*
X30076909Y-50330287D01*
X30077084Y-50129367D01*
X37872908Y-50129367D01*
X37952970Y-50323132D01*
X38101088Y-50471509D01*
X38294713Y-50551909D01*
X38504367Y-50552092D01*
X38698132Y-50472030D01*
X38846509Y-50323912D01*
X38926909Y-50130287D01*
X38927057Y-49960000D01*
X43850921Y-49960000D01*
X43936709Y-50391284D01*
X44181012Y-50756909D01*
X44546637Y-51001212D01*
X44977921Y-51087000D01*
X45022079Y-51087000D01*
X45453363Y-51001212D01*
X45818988Y-50756909D01*
X46063291Y-50391284D01*
X46149079Y-49960000D01*
X46063291Y-49528716D01*
X45818988Y-49163091D01*
X45453363Y-48918788D01*
X45022079Y-48833000D01*
X44977921Y-48833000D01*
X44546637Y-48918788D01*
X44181012Y-49163091D01*
X43936709Y-49528716D01*
X43850921Y-49960000D01*
X38927057Y-49960000D01*
X38927092Y-49920633D01*
X38847030Y-49726868D01*
X38698912Y-49578491D01*
X38505287Y-49498091D01*
X38295633Y-49497908D01*
X38101868Y-49577970D01*
X37953491Y-49726088D01*
X37873091Y-49919713D01*
X37872908Y-50129367D01*
X30077084Y-50129367D01*
X30077092Y-50120633D01*
X29997030Y-49926868D01*
X29848912Y-49778491D01*
X29655287Y-49698091D01*
X29445633Y-49697908D01*
X29251868Y-49777970D01*
X29156672Y-49873000D01*
X28763337Y-49873000D01*
X28770696Y-49855277D01*
X28770879Y-49645623D01*
X28703835Y-49483363D01*
X28781950Y-49405384D01*
X28862350Y-49211759D01*
X28862449Y-49098279D01*
X28982818Y-49098384D01*
X29176583Y-49018322D01*
X29240649Y-48954367D01*
X37897908Y-48954367D01*
X37977970Y-49148132D01*
X38126088Y-49296509D01*
X38319713Y-49376909D01*
X38529367Y-49377092D01*
X38723132Y-49297030D01*
X38871509Y-49148912D01*
X38951909Y-48955287D01*
X38952092Y-48745633D01*
X38872030Y-48551868D01*
X38749741Y-48429365D01*
X39347908Y-48429365D01*
X39427970Y-48623130D01*
X39576088Y-48771507D01*
X39769713Y-48851907D01*
X39979367Y-48852090D01*
X40173132Y-48772028D01*
X40321509Y-48623910D01*
X40401909Y-48430285D01*
X40402092Y-48220631D01*
X40322030Y-48026866D01*
X40173912Y-47878489D01*
X39980287Y-47798089D01*
X39770633Y-47797906D01*
X39576868Y-47877968D01*
X39428491Y-48026086D01*
X39348091Y-48219711D01*
X39347908Y-48429365D01*
X38749741Y-48429365D01*
X38723912Y-48403491D01*
X38530287Y-48323091D01*
X38320633Y-48322908D01*
X38126868Y-48402970D01*
X37978491Y-48551088D01*
X37898091Y-48744713D01*
X37897908Y-48954367D01*
X29240649Y-48954367D01*
X29324960Y-48870204D01*
X29405360Y-48676579D01*
X29405434Y-48591888D01*
X29525188Y-48641614D01*
X29734842Y-48641797D01*
X29928607Y-48561735D01*
X30076984Y-48413617D01*
X30157384Y-48219992D01*
X30157567Y-48010338D01*
X30102438Y-47876916D01*
X30304367Y-47877092D01*
X30498132Y-47797030D01*
X30646509Y-47648912D01*
X30726909Y-47455287D01*
X30727092Y-47245633D01*
X30647030Y-47051868D01*
X30498912Y-46903491D01*
X30305287Y-46823091D01*
X30095633Y-46822908D01*
X29901868Y-46902970D01*
X29753491Y-47051088D01*
X29673091Y-47244713D01*
X29672908Y-47454367D01*
X29728037Y-47587789D01*
X29526108Y-47587613D01*
X29332343Y-47667675D01*
X29183966Y-47815793D01*
X29103566Y-48009418D01*
X29103492Y-48094109D01*
X28983738Y-48044383D01*
X28774084Y-48044200D01*
X28580319Y-48124262D01*
X28431942Y-48272380D01*
X28351542Y-48466005D01*
X28351443Y-48579485D01*
X28231074Y-48579380D01*
X28037309Y-48659442D01*
X27888932Y-48807560D01*
X27808532Y-49001185D01*
X27808349Y-49210839D01*
X27875393Y-49373099D01*
X27797278Y-49451078D01*
X27716878Y-49644703D01*
X27716695Y-49854357D01*
X27724398Y-49873000D01*
X26650000Y-49873000D01*
X26515295Y-49899794D01*
X26401098Y-49976098D01*
X26401096Y-49976101D01*
X25701098Y-50676098D01*
X25624794Y-50790295D01*
X25597999Y-50925000D01*
X25598000Y-50925005D01*
X25598000Y-54233361D01*
X25540176Y-54093416D01*
X25392058Y-53945039D01*
X25198433Y-53864639D01*
X24988779Y-53864456D01*
X24795014Y-53944518D01*
X24646637Y-54092636D01*
X24566237Y-54286261D01*
X24566054Y-54495915D01*
X23237920Y-54495915D01*
X23068988Y-54243091D01*
X22703363Y-53998788D01*
X22272079Y-53913000D01*
X22227921Y-53913000D01*
X21796637Y-53998788D01*
X21431012Y-54243091D01*
X21186709Y-54608716D01*
X21100921Y-55040000D01*
X20327000Y-55040000D01*
X20327000Y-52500000D01*
X21100921Y-52500000D01*
X21186709Y-52931284D01*
X21431012Y-53296909D01*
X21796637Y-53541212D01*
X22227921Y-53627000D01*
X22272079Y-53627000D01*
X22703363Y-53541212D01*
X23068988Y-53296909D01*
X23313291Y-52931284D01*
X23399079Y-52500000D01*
X23313291Y-52068716D01*
X23068988Y-51703091D01*
X22703363Y-51458788D01*
X22272079Y-51373000D01*
X22227921Y-51373000D01*
X21796637Y-51458788D01*
X21431012Y-51703091D01*
X21186709Y-52068716D01*
X21100921Y-52500000D01*
X20327000Y-52500000D01*
X20327000Y-49960000D01*
X21100921Y-49960000D01*
X21186709Y-50391284D01*
X21431012Y-50756909D01*
X21796637Y-51001212D01*
X22227921Y-51087000D01*
X22272079Y-51087000D01*
X22703363Y-51001212D01*
X23068988Y-50756909D01*
X23313291Y-50391284D01*
X23399079Y-49960000D01*
X23313291Y-49528716D01*
X23068988Y-49163091D01*
X22703363Y-48918788D01*
X22272079Y-48833000D01*
X22227921Y-48833000D01*
X21796637Y-48918788D01*
X21431012Y-49163091D01*
X21186709Y-49528716D01*
X21100921Y-49960000D01*
X20327000Y-49960000D01*
X20327000Y-47420000D01*
X21100921Y-47420000D01*
X21186709Y-47851284D01*
X21431012Y-48216909D01*
X21796637Y-48461212D01*
X22227921Y-48547000D01*
X22272079Y-48547000D01*
X22703363Y-48461212D01*
X23068988Y-48216909D01*
X23313291Y-47851284D01*
X23399079Y-47420000D01*
X23313291Y-46988716D01*
X23068988Y-46623091D01*
X22703363Y-46378788D01*
X22454908Y-46329367D01*
X30897908Y-46329367D01*
X30977970Y-46523132D01*
X31126088Y-46671509D01*
X31319713Y-46751909D01*
X31529367Y-46752092D01*
X31723132Y-46672030D01*
X31871509Y-46523912D01*
X31891711Y-46475261D01*
X31891658Y-46535617D01*
X31971720Y-46729382D01*
X32119838Y-46877759D01*
X32313463Y-46958159D01*
X32523117Y-46958342D01*
X32716882Y-46878280D01*
X32865259Y-46730162D01*
X32923210Y-46590601D01*
X32977970Y-46723132D01*
X33126088Y-46871509D01*
X33319713Y-46951909D01*
X33529367Y-46952092D01*
X33723132Y-46872030D01*
X33871509Y-46723912D01*
X33951909Y-46530287D01*
X33951909Y-46529367D01*
X34397908Y-46529367D01*
X34477970Y-46723132D01*
X34626088Y-46871509D01*
X34819713Y-46951909D01*
X35029367Y-46952092D01*
X35223132Y-46872030D01*
X35371509Y-46723912D01*
X35405072Y-46643082D01*
X35471720Y-46804382D01*
X35619838Y-46952759D01*
X35813463Y-47033159D01*
X36023117Y-47033342D01*
X36216882Y-46953280D01*
X36365259Y-46805162D01*
X36445659Y-46611537D01*
X36445687Y-46579999D01*
X36520693Y-46655137D01*
X36714318Y-46735537D01*
X36923972Y-46735720D01*
X36995186Y-46706295D01*
X36948091Y-46819713D01*
X36947908Y-47029367D01*
X37027970Y-47223132D01*
X37176088Y-47371509D01*
X37369713Y-47451909D01*
X37579367Y-47452092D01*
X37657035Y-47420000D01*
X43850921Y-47420000D01*
X43936709Y-47851284D01*
X44181012Y-48216909D01*
X44546637Y-48461212D01*
X44977921Y-48547000D01*
X45022079Y-48547000D01*
X45453363Y-48461212D01*
X45818988Y-48216909D01*
X46063291Y-47851284D01*
X46149079Y-47420000D01*
X46063291Y-46988716D01*
X45818988Y-46623091D01*
X45453363Y-46378788D01*
X45022079Y-46293000D01*
X44977921Y-46293000D01*
X44546637Y-46378788D01*
X44181012Y-46623091D01*
X43936709Y-46988716D01*
X43850921Y-47420000D01*
X37657035Y-47420000D01*
X37773132Y-47372030D01*
X37921509Y-47223912D01*
X38001909Y-47030287D01*
X38002092Y-46820633D01*
X37922030Y-46626868D01*
X37773912Y-46478491D01*
X37580287Y-46398091D01*
X37370633Y-46397908D01*
X37299419Y-46427333D01*
X37346514Y-46313915D01*
X37346697Y-46104261D01*
X37266635Y-45910496D01*
X37135735Y-45779367D01*
X37472908Y-45779367D01*
X37552970Y-45973132D01*
X37701088Y-46121509D01*
X37894713Y-46201909D01*
X38104367Y-46202092D01*
X38298132Y-46122030D01*
X38416000Y-46004367D01*
X39172908Y-46004367D01*
X39252970Y-46198132D01*
X39401088Y-46346509D01*
X39594713Y-46426909D01*
X39804367Y-46427092D01*
X39998132Y-46347030D01*
X40146509Y-46198912D01*
X40226909Y-46005287D01*
X40227092Y-45795633D01*
X40147030Y-45601868D01*
X39998912Y-45453491D01*
X39805287Y-45373091D01*
X39595633Y-45372908D01*
X39401868Y-45452970D01*
X39253491Y-45601088D01*
X39173091Y-45794713D01*
X39172908Y-46004367D01*
X38416000Y-46004367D01*
X38446509Y-45973912D01*
X38526909Y-45780287D01*
X38527092Y-45570633D01*
X38447030Y-45376868D01*
X38298912Y-45228491D01*
X38105287Y-45148091D01*
X37895633Y-45147908D01*
X37701868Y-45227970D01*
X37553491Y-45376088D01*
X37473091Y-45569713D01*
X37472908Y-45779367D01*
X37135735Y-45779367D01*
X37118517Y-45762119D01*
X36924892Y-45681719D01*
X36715238Y-45681536D01*
X36521473Y-45761598D01*
X36373096Y-45909716D01*
X36292696Y-46103341D01*
X36292668Y-46134879D01*
X36217662Y-46059741D01*
X36166358Y-46038438D01*
X36173496Y-46021247D01*
X36173679Y-45811593D01*
X36093617Y-45617828D01*
X35945499Y-45469451D01*
X35751874Y-45389051D01*
X35542220Y-45388868D01*
X35348455Y-45468930D01*
X35200078Y-45617048D01*
X35119678Y-45810673D01*
X35119569Y-45935164D01*
X35030287Y-45898091D01*
X34820633Y-45897908D01*
X34626868Y-45977970D01*
X34478491Y-46126088D01*
X34398091Y-46319713D01*
X34397908Y-46529367D01*
X33951909Y-46529367D01*
X33952092Y-46320633D01*
X33872030Y-46126868D01*
X33723912Y-45978491D01*
X33530287Y-45898091D01*
X33445824Y-45898017D01*
X33445842Y-45876883D01*
X33365780Y-45683118D01*
X33217662Y-45534741D01*
X33024037Y-45454341D01*
X32814383Y-45454158D01*
X32620618Y-45534220D01*
X32472241Y-45682338D01*
X32391841Y-45875963D01*
X32391816Y-45904226D01*
X32314383Y-45904158D01*
X32120618Y-45984220D01*
X31972241Y-46132338D01*
X31952039Y-46180989D01*
X31952092Y-46120633D01*
X31872030Y-45926868D01*
X31723912Y-45778491D01*
X31530287Y-45698091D01*
X31320633Y-45697908D01*
X31126868Y-45777970D01*
X30978491Y-45926088D01*
X30898091Y-46119713D01*
X30897908Y-46329367D01*
X22454908Y-46329367D01*
X22272079Y-46293000D01*
X22227921Y-46293000D01*
X21796637Y-46378788D01*
X21431012Y-46623091D01*
X21186709Y-46988716D01*
X21100921Y-47420000D01*
X20327000Y-47420000D01*
X20327000Y-44880000D01*
X21100921Y-44880000D01*
X21186709Y-45311284D01*
X21431012Y-45676909D01*
X21796637Y-45921212D01*
X22227921Y-46007000D01*
X22272079Y-46007000D01*
X22703363Y-45921212D01*
X23068988Y-45676909D01*
X23313291Y-45311284D01*
X23399079Y-44880000D01*
X43850921Y-44880000D01*
X43936709Y-45311284D01*
X44181012Y-45676909D01*
X44546637Y-45921212D01*
X44977921Y-46007000D01*
X45022079Y-46007000D01*
X45453363Y-45921212D01*
X45818988Y-45676909D01*
X46063291Y-45311284D01*
X46149079Y-44880000D01*
X46063291Y-44448716D01*
X45818988Y-44083091D01*
X45453363Y-43838788D01*
X45022079Y-43753000D01*
X44977921Y-43753000D01*
X44546637Y-43838788D01*
X44181012Y-44083091D01*
X43936709Y-44448716D01*
X43850921Y-44880000D01*
X23399079Y-44880000D01*
X23313291Y-44448716D01*
X23068988Y-44083091D01*
X22703363Y-43838788D01*
X22272079Y-43753000D01*
X22227921Y-43753000D01*
X21796637Y-43838788D01*
X21431012Y-44083091D01*
X21186709Y-44448716D01*
X21100921Y-44880000D01*
X20327000Y-44880000D01*
X20327000Y-42340000D01*
X21100921Y-42340000D01*
X21186709Y-42771284D01*
X21431012Y-43136909D01*
X21796637Y-43381212D01*
X22227921Y-43467000D01*
X22272079Y-43467000D01*
X22703363Y-43381212D01*
X23068988Y-43136909D01*
X23313291Y-42771284D01*
X23371250Y-42479905D01*
X25119317Y-42479905D01*
X25199379Y-42673670D01*
X25347497Y-42822047D01*
X25541122Y-42902447D01*
X25750776Y-42902630D01*
X25944541Y-42822568D01*
X26092918Y-42674450D01*
X26163542Y-42504367D01*
X31797908Y-42504367D01*
X31877970Y-42698132D01*
X32026088Y-42846509D01*
X32219713Y-42926909D01*
X32429367Y-42927092D01*
X32623132Y-42847030D01*
X32771509Y-42698912D01*
X32851909Y-42505287D01*
X32852053Y-42340000D01*
X43850921Y-42340000D01*
X43936709Y-42771284D01*
X44181012Y-43136909D01*
X44546637Y-43381212D01*
X44977921Y-43467000D01*
X45022079Y-43467000D01*
X45453363Y-43381212D01*
X45818988Y-43136909D01*
X46063291Y-42771284D01*
X46149079Y-42340000D01*
X46063291Y-41908716D01*
X45818988Y-41543091D01*
X45453363Y-41298788D01*
X45022079Y-41213000D01*
X44977921Y-41213000D01*
X44546637Y-41298788D01*
X44181012Y-41543091D01*
X43936709Y-41908716D01*
X43850921Y-42340000D01*
X32852053Y-42340000D01*
X32852092Y-42295633D01*
X32772030Y-42101868D01*
X32623912Y-41953491D01*
X32430287Y-41873091D01*
X32220633Y-41872908D01*
X32026868Y-41952970D01*
X31878491Y-42101088D01*
X31798091Y-42294713D01*
X31797908Y-42504367D01*
X26163542Y-42504367D01*
X26173318Y-42480825D01*
X26173501Y-42271171D01*
X26093439Y-42077406D01*
X25945321Y-41929029D01*
X25751696Y-41848629D01*
X25542042Y-41848446D01*
X25348277Y-41928508D01*
X25199900Y-42076626D01*
X25119500Y-42270251D01*
X25119317Y-42479905D01*
X23371250Y-42479905D01*
X23399079Y-42340000D01*
X23313291Y-41908716D01*
X23068988Y-41543091D01*
X22936204Y-41454367D01*
X36522887Y-41454367D01*
X36602949Y-41648132D01*
X36751067Y-41796509D01*
X36944692Y-41876909D01*
X37154346Y-41877092D01*
X37348111Y-41797030D01*
X37496488Y-41648912D01*
X37576888Y-41455287D01*
X37577071Y-41245633D01*
X37497009Y-41051868D01*
X37348891Y-40903491D01*
X37155266Y-40823091D01*
X36945612Y-40822908D01*
X36751847Y-40902970D01*
X36603470Y-41051088D01*
X36523070Y-41244713D01*
X36522887Y-41454367D01*
X22936204Y-41454367D01*
X22703363Y-41298788D01*
X22272079Y-41213000D01*
X22227921Y-41213000D01*
X21796637Y-41298788D01*
X21431012Y-41543091D01*
X21186709Y-41908716D01*
X21100921Y-42340000D01*
X20327000Y-42340000D01*
X20327000Y-39800000D01*
X21100921Y-39800000D01*
X21186709Y-40231284D01*
X21431012Y-40596909D01*
X21796637Y-40841212D01*
X22227921Y-40927000D01*
X22272079Y-40927000D01*
X22703363Y-40841212D01*
X22795920Y-40779367D01*
X31947908Y-40779367D01*
X32027970Y-40973132D01*
X32176088Y-41121509D01*
X32369713Y-41201909D01*
X32579367Y-41202092D01*
X32773132Y-41122030D01*
X32921509Y-40973912D01*
X33001909Y-40780287D01*
X33002092Y-40570633D01*
X32922030Y-40376868D01*
X32773912Y-40228491D01*
X32580287Y-40148091D01*
X32370633Y-40147908D01*
X32176868Y-40227970D01*
X32028491Y-40376088D01*
X31948091Y-40569713D01*
X31947908Y-40779367D01*
X22795920Y-40779367D01*
X23068988Y-40596909D01*
X23313291Y-40231284D01*
X23388264Y-39854367D01*
X23572908Y-39854367D01*
X23652970Y-40048132D01*
X23801088Y-40196509D01*
X23994713Y-40276909D01*
X24204367Y-40277092D01*
X24398132Y-40197030D01*
X24546509Y-40048912D01*
X24626909Y-39855287D01*
X24626957Y-39800000D01*
X43850921Y-39800000D01*
X43936709Y-40231284D01*
X44181012Y-40596909D01*
X44546637Y-40841212D01*
X44977921Y-40927000D01*
X45022079Y-40927000D01*
X45453363Y-40841212D01*
X45818988Y-40596909D01*
X46063291Y-40231284D01*
X46149079Y-39800000D01*
X46063291Y-39368716D01*
X45818988Y-39003091D01*
X45453363Y-38758788D01*
X45022079Y-38673000D01*
X44977921Y-38673000D01*
X44546637Y-38758788D01*
X44181012Y-39003091D01*
X43936709Y-39368716D01*
X43850921Y-39800000D01*
X24626957Y-39800000D01*
X24627092Y-39645633D01*
X24547030Y-39451868D01*
X24398912Y-39303491D01*
X24205287Y-39223091D01*
X23995633Y-39222908D01*
X23801868Y-39302970D01*
X23653491Y-39451088D01*
X23573091Y-39644713D01*
X23572908Y-39854367D01*
X23388264Y-39854367D01*
X23399079Y-39800000D01*
X23313291Y-39368716D01*
X23068988Y-39003091D01*
X22703363Y-38758788D01*
X22272079Y-38673000D01*
X22227921Y-38673000D01*
X21796637Y-38758788D01*
X21431012Y-39003091D01*
X21186709Y-39368716D01*
X21100921Y-39800000D01*
X20327000Y-39800000D01*
X20327000Y-38604367D01*
X24472908Y-38604367D01*
X24552970Y-38798132D01*
X24701088Y-38946509D01*
X24894713Y-39026909D01*
X25104367Y-39027092D01*
X25298132Y-38947030D01*
X25390957Y-38854367D01*
X36247908Y-38854367D01*
X36327970Y-39048132D01*
X36476088Y-39196509D01*
X36669713Y-39276909D01*
X36879367Y-39277092D01*
X37073132Y-39197030D01*
X37168328Y-39102000D01*
X40281744Y-39102000D01*
X40376088Y-39196509D01*
X40569713Y-39276909D01*
X40779367Y-39277092D01*
X40973132Y-39197030D01*
X41121509Y-39048912D01*
X41201909Y-38855287D01*
X41202092Y-38645633D01*
X41122030Y-38451868D01*
X40973912Y-38303491D01*
X40780287Y-38223091D01*
X40570633Y-38222908D01*
X40376868Y-38302970D01*
X40281672Y-38398000D01*
X37168256Y-38398000D01*
X37073912Y-38303491D01*
X36880287Y-38223091D01*
X36670633Y-38222908D01*
X36476868Y-38302970D01*
X36328491Y-38451088D01*
X36248091Y-38644713D01*
X36247908Y-38854367D01*
X25390957Y-38854367D01*
X25446509Y-38798912D01*
X25526909Y-38605287D01*
X25527092Y-38395633D01*
X25447030Y-38201868D01*
X25298912Y-38053491D01*
X25105287Y-37973091D01*
X24895633Y-37972908D01*
X24701868Y-38052970D01*
X24553491Y-38201088D01*
X24473091Y-38394713D01*
X24472908Y-38604367D01*
X20327000Y-38604367D01*
X20327000Y-37260000D01*
X21100921Y-37260000D01*
X21186709Y-37691284D01*
X21431012Y-38056909D01*
X21796637Y-38301212D01*
X22227921Y-38387000D01*
X22272079Y-38387000D01*
X22703363Y-38301212D01*
X23068988Y-38056909D01*
X23313291Y-37691284D01*
X23378319Y-37364367D01*
X23587908Y-37364367D01*
X23667970Y-37558132D01*
X23816088Y-37706509D01*
X24009713Y-37786909D01*
X24219367Y-37787092D01*
X24413132Y-37707030D01*
X24561509Y-37558912D01*
X24584158Y-37504367D01*
X36822898Y-37504367D01*
X36902960Y-37698132D01*
X37051078Y-37846509D01*
X37244703Y-37926909D01*
X37454357Y-37927092D01*
X37648122Y-37847030D01*
X37796499Y-37698912D01*
X37876899Y-37505287D01*
X37877082Y-37295633D01*
X37862359Y-37260000D01*
X43850921Y-37260000D01*
X43936709Y-37691284D01*
X44181012Y-38056909D01*
X44546637Y-38301212D01*
X44977921Y-38387000D01*
X45022079Y-38387000D01*
X45453363Y-38301212D01*
X45818988Y-38056909D01*
X46063291Y-37691284D01*
X46149079Y-37260000D01*
X46063291Y-36828716D01*
X45818988Y-36463091D01*
X45453363Y-36218788D01*
X45319628Y-36192186D01*
X45361458Y-36190315D01*
X45784080Y-36015259D01*
X45864353Y-35763958D01*
X45000000Y-34899605D01*
X44135647Y-35763958D01*
X44215920Y-36015259D01*
X44695408Y-36189195D01*
X44546637Y-36218788D01*
X44181012Y-36463091D01*
X43936709Y-36828716D01*
X43850921Y-37260000D01*
X37862359Y-37260000D01*
X37797020Y-37101868D01*
X37648902Y-36953491D01*
X37455277Y-36873091D01*
X37245623Y-36872908D01*
X37051858Y-36952970D01*
X36903481Y-37101088D01*
X36823081Y-37294713D01*
X36822898Y-37504367D01*
X24584158Y-37504367D01*
X24641909Y-37365287D01*
X24642092Y-37155633D01*
X24562030Y-36961868D01*
X24413912Y-36813491D01*
X24220287Y-36733091D01*
X24010633Y-36732908D01*
X23816868Y-36812970D01*
X23668491Y-36961088D01*
X23588091Y-37154713D01*
X23587908Y-37364367D01*
X23378319Y-37364367D01*
X23399079Y-37260000D01*
X23313291Y-36828716D01*
X23068988Y-36463091D01*
X22703363Y-36218788D01*
X22272079Y-36133000D01*
X22227921Y-36133000D01*
X21796637Y-36218788D01*
X21431012Y-36463091D01*
X21186709Y-36828716D01*
X21100921Y-37260000D01*
X20327000Y-37260000D01*
X20327000Y-36055457D01*
X29898289Y-36055457D01*
X29978351Y-36249222D01*
X30126469Y-36397599D01*
X30320094Y-36477999D01*
X30529748Y-36478182D01*
X30647889Y-36429367D01*
X37297908Y-36429367D01*
X37377970Y-36623132D01*
X37526088Y-36771509D01*
X37719713Y-36851909D01*
X37929367Y-36852092D01*
X38123132Y-36772030D01*
X38271509Y-36623912D01*
X38351909Y-36430287D01*
X38352092Y-36220633D01*
X38272030Y-36026868D01*
X38123912Y-35878491D01*
X37930287Y-35798091D01*
X37720633Y-35797908D01*
X37526868Y-35877970D01*
X37378491Y-36026088D01*
X37298091Y-36219713D01*
X37297908Y-36429367D01*
X30647889Y-36429367D01*
X30723513Y-36398120D01*
X30871890Y-36250002D01*
X30952290Y-36056377D01*
X30952473Y-35846723D01*
X30872411Y-35652958D01*
X30724293Y-35504581D01*
X30530668Y-35424181D01*
X30321014Y-35423998D01*
X30127249Y-35504060D01*
X29978872Y-35652178D01*
X29898472Y-35845803D01*
X29898289Y-36055457D01*
X20327000Y-36055457D01*
X20327000Y-34720000D01*
X21100921Y-34720000D01*
X21186709Y-35151284D01*
X21431012Y-35516909D01*
X21796637Y-35761212D01*
X22227921Y-35847000D01*
X22272079Y-35847000D01*
X22703363Y-35761212D01*
X23068988Y-35516909D01*
X23313291Y-35151284D01*
X23378319Y-34824367D01*
X23672908Y-34824367D01*
X23752970Y-35018132D01*
X23901088Y-35166509D01*
X24094713Y-35246909D01*
X24304367Y-35247092D01*
X24498132Y-35167030D01*
X24646509Y-35018912D01*
X24726909Y-34825287D01*
X24727092Y-34615633D01*
X24675711Y-34491279D01*
X43503282Y-34491279D01*
X43529685Y-35081458D01*
X43704741Y-35504080D01*
X43956042Y-35584353D01*
X44820395Y-34720000D01*
X45179605Y-34720000D01*
X46043958Y-35584353D01*
X46295259Y-35504080D01*
X46496718Y-34948721D01*
X46470315Y-34358542D01*
X46295259Y-33935920D01*
X46043958Y-33855647D01*
X45179605Y-34720000D01*
X44820395Y-34720000D01*
X43956042Y-33855647D01*
X43704741Y-33935920D01*
X43503282Y-34491279D01*
X24675711Y-34491279D01*
X24647030Y-34421868D01*
X24498912Y-34273491D01*
X24305287Y-34193091D01*
X24095633Y-34192908D01*
X23901868Y-34272970D01*
X23753491Y-34421088D01*
X23673091Y-34614713D01*
X23672908Y-34824367D01*
X23378319Y-34824367D01*
X23399079Y-34720000D01*
X23313291Y-34288716D01*
X23068988Y-33923091D01*
X22703363Y-33678788D01*
X22689558Y-33676042D01*
X44135647Y-33676042D01*
X45000000Y-34540395D01*
X45864353Y-33676042D01*
X45784080Y-33424741D01*
X45228721Y-33223282D01*
X44638542Y-33249685D01*
X44215920Y-33424741D01*
X44135647Y-33676042D01*
X22689558Y-33676042D01*
X22272079Y-33593000D01*
X22227921Y-33593000D01*
X21796637Y-33678788D01*
X21431012Y-33923091D01*
X21186709Y-34288716D01*
X21100921Y-34720000D01*
X20327000Y-34720000D01*
X20327000Y-30627000D01*
X20527414Y-30627000D01*
X20454896Y-30801644D01*
M02*
