G04 #@! TF.FileFunction,Soldermask,Bot*
%FSLAX46Y46*%
G04 Gerber Fmt 4.6, Leading zero omitted, Abs format (unit mm)*
G04 Created by KiCad (PCBNEW 4.0.7) date Tuesday, December 26, 2017 'AMt' 09:35:19 AM*
%MOMM*%
%LPD*%
G01*
G04 APERTURE LIST*
%ADD10C,0.100000*%
%ADD11C,0.150000*%
%ADD12C,1.370000*%
%ADD13R,1.095680X3.597580*%
%ADD14R,1.098220X3.597580*%
%ADD15R,1.598600X3.498520*%
%ADD16R,1.598600X3.495980*%
%ADD17C,1.800000*%
%ADD18O,1.800000X1.800000*%
G04 APERTURE END LIST*
D10*
D11*
X40411000Y-56177000D02*
X40411000Y-55923000D01*
X42189000Y-56177000D02*
X42189000Y-55923000D01*
X40411000Y-56050000D02*
X42189000Y-56050000D01*
X40982500Y-55161000D02*
X41681000Y-55161000D01*
X41998500Y-55415000D02*
X40601500Y-55415000D01*
X40538000Y-55542000D02*
X42062000Y-55542000D01*
X42125500Y-55669000D02*
X40474500Y-55669000D01*
X40474500Y-55796000D02*
X42125500Y-55796000D01*
X42189000Y-55923000D02*
X40411000Y-55923000D01*
X40411000Y-55923000D02*
G75*
G02X41300000Y-55034000I889000J0D01*
G01*
X41300000Y-55034000D02*
G75*
G02X42189000Y-55923000I0J-889000D01*
G01*
X41681000Y-56939000D02*
X40919000Y-56939000D01*
X40601500Y-56685000D02*
X41998500Y-56685000D01*
X42062000Y-56558000D02*
X40538000Y-56558000D01*
X40474500Y-56431000D02*
X42125500Y-56431000D01*
X42125500Y-56304000D02*
X40474500Y-56304000D01*
X42189000Y-56177000D02*
X40411000Y-56177000D01*
X41300000Y-57066000D02*
G75*
G02X40411000Y-56177000I0J889000D01*
G01*
X42189000Y-56177000D02*
G75*
G02X41300000Y-57066000I-889000J0D01*
G01*
D12*
X44850000Y-67250000D03*
D10*
G36*
X40650000Y-56150000D02*
X41950000Y-56150000D01*
X41850000Y-56950000D01*
X40750000Y-56950000D01*
X40650000Y-56150000D01*
X40650000Y-56150000D01*
G37*
G36*
X41950000Y-55950000D02*
X40650000Y-55950000D01*
X40750000Y-55150000D01*
X41850000Y-55150000D01*
X41950000Y-55950000D01*
X41950000Y-55950000D01*
G37*
D13*
X34500760Y-62540000D03*
D14*
X32499240Y-62540000D03*
D15*
X36845180Y-68288020D03*
D16*
X30152280Y-68288020D03*
D17*
X22250000Y-62660000D03*
D18*
X22250000Y-60120000D03*
X22250000Y-57580000D03*
X22250000Y-55040000D03*
X22250000Y-52500000D03*
X22250000Y-49960000D03*
X22250000Y-47420000D03*
X22250000Y-44880000D03*
X22250000Y-42340000D03*
X22250000Y-39800000D03*
X22250000Y-37260000D03*
X22250000Y-34720000D03*
D17*
X45000000Y-34720000D03*
D18*
X45000000Y-37260000D03*
X45000000Y-39800000D03*
X45000000Y-42340000D03*
X45000000Y-44880000D03*
X45000000Y-47420000D03*
X45000000Y-49960000D03*
X45000000Y-52500000D03*
X45000000Y-55040000D03*
D12*
X43960000Y-65800000D03*
M02*
