G04 #@! TF.FileFunction,Legend,Bot*
%FSLAX46Y46*%
G04 Gerber Fmt 4.6, Leading zero omitted, Abs format (unit mm)*
G04 Created by KiCad (PCBNEW 4.0.7) date Saturday, December 30, 2017 'PMt' 02:56:56 PM*
%MOMM*%
%LPD*%
G01*
G04 APERTURE LIST*
%ADD10C,0.100000*%
%ADD11C,0.127000*%
%ADD12C,0.381000*%
%ADD13C,0.010000*%
G04 APERTURE END LIST*
D10*
D11*
X44850000Y-65980000D02*
X44631560Y-66000320D01*
X44631560Y-66000320D02*
X44415660Y-66058740D01*
X44415660Y-66058740D02*
X44215000Y-66150180D01*
X44215000Y-66150180D02*
X44034660Y-66277180D01*
X44034660Y-66277180D02*
X43877180Y-66434660D01*
X43877180Y-66434660D02*
X43750180Y-66615000D01*
X43750180Y-66615000D02*
X43658740Y-66815660D01*
X43658740Y-66815660D02*
X43600320Y-67031560D01*
X43600320Y-67031560D02*
X43580000Y-67250000D01*
X43580000Y-67250000D02*
X43600320Y-67468440D01*
X43600320Y-67468440D02*
X43658740Y-67684340D01*
X43658740Y-67684340D02*
X43750180Y-67885000D01*
X43750180Y-67885000D02*
X43877180Y-68065340D01*
X43877180Y-68065340D02*
X44034660Y-68222820D01*
X44034660Y-68222820D02*
X44215000Y-68349820D01*
X44215000Y-68349820D02*
X44415660Y-68441260D01*
X44415660Y-68441260D02*
X44631560Y-68499680D01*
X44631560Y-68499680D02*
X44850000Y-68520000D01*
X44850000Y-68520000D02*
X45068440Y-68499680D01*
X45068440Y-68499680D02*
X45284340Y-68441260D01*
X45284340Y-68441260D02*
X45485000Y-68349820D01*
X45485000Y-68349820D02*
X45665340Y-68222820D01*
X45665340Y-68222820D02*
X45822820Y-68065340D01*
X45822820Y-68065340D02*
X45949820Y-67885000D01*
X45949820Y-67885000D02*
X46041260Y-67684340D01*
X46041260Y-67684340D02*
X46099680Y-67468440D01*
X46099680Y-67468440D02*
X46120000Y-67250000D01*
X46120000Y-67250000D02*
X46099680Y-67031560D01*
X46099680Y-67031560D02*
X46041260Y-66815660D01*
X46041260Y-66815660D02*
X45949820Y-66615000D01*
X45949820Y-66615000D02*
X45822820Y-66434660D01*
X45822820Y-66434660D02*
X45665340Y-66277180D01*
X45665340Y-66277180D02*
X45485000Y-66150180D01*
X45485000Y-66150180D02*
X45284340Y-66058740D01*
X45284340Y-66058740D02*
X45068440Y-66000320D01*
X45068440Y-66000320D02*
X44850000Y-65980000D01*
X44850000Y-65980000D02*
X44631560Y-66000320D01*
X44631560Y-66000320D02*
X44415660Y-66058740D01*
X44415660Y-66058740D02*
X44215000Y-66150180D01*
X44215000Y-66150180D02*
X44034660Y-66277180D01*
X44034660Y-66277180D02*
X43877180Y-66434660D01*
X43877180Y-66434660D02*
X43750180Y-66615000D01*
X43750180Y-66615000D02*
X43658740Y-66815660D01*
X43658740Y-66815660D02*
X43600320Y-67031560D01*
X43600320Y-67031560D02*
X43580000Y-67250000D01*
X43580000Y-67250000D02*
X43600320Y-67468440D01*
X43600320Y-67468440D02*
X43658740Y-67684340D01*
X43658740Y-67684340D02*
X43750180Y-67885000D01*
X43750180Y-67885000D02*
X43877180Y-68065340D01*
X43877180Y-68065340D02*
X44034660Y-68222820D01*
X44034660Y-68222820D02*
X44215000Y-68349820D01*
X44215000Y-68349820D02*
X44415660Y-68441260D01*
X44415660Y-68441260D02*
X44631560Y-68499680D01*
X44631560Y-68499680D02*
X44850000Y-68520000D01*
X44850000Y-68520000D02*
X45068440Y-68499680D01*
X45068440Y-68499680D02*
X45284340Y-68441260D01*
X45284340Y-68441260D02*
X45485000Y-68349820D01*
X45485000Y-68349820D02*
X45665340Y-68222820D01*
X45665340Y-68222820D02*
X45822820Y-68065340D01*
X45822820Y-68065340D02*
X45949820Y-67885000D01*
X45949820Y-67885000D02*
X46041260Y-67684340D01*
X46041260Y-67684340D02*
X46099680Y-67468440D01*
X46099680Y-67468440D02*
X46120000Y-67250000D01*
X46120000Y-67250000D02*
X46099680Y-67031560D01*
X46099680Y-67031560D02*
X46041260Y-66815660D01*
X46041260Y-66815660D02*
X45949820Y-66615000D01*
X45949820Y-66615000D02*
X45822820Y-66434660D01*
X45822820Y-66434660D02*
X45665340Y-66277180D01*
X45665340Y-66277180D02*
X45485000Y-66150180D01*
X45485000Y-66150180D02*
X45284340Y-66058740D01*
X45284340Y-66058740D02*
X45068440Y-66000320D01*
X45068440Y-66000320D02*
X44850000Y-65980000D01*
X44850000Y-65980000D02*
X44631560Y-66000320D01*
X44631560Y-66000320D02*
X44415660Y-66058740D01*
X44415660Y-66058740D02*
X44215000Y-66150180D01*
X44215000Y-66150180D02*
X44034660Y-66277180D01*
X44034660Y-66277180D02*
X43877180Y-66434660D01*
X43877180Y-66434660D02*
X43750180Y-66615000D01*
X43750180Y-66615000D02*
X43658740Y-66815660D01*
X43658740Y-66815660D02*
X43600320Y-67031560D01*
X43600320Y-67031560D02*
X43580000Y-67250000D01*
X43580000Y-67250000D02*
X43600320Y-67468440D01*
X43600320Y-67468440D02*
X43658740Y-67684340D01*
X43658740Y-67684340D02*
X43750180Y-67885000D01*
X43750180Y-67885000D02*
X43877180Y-68065340D01*
X43877180Y-68065340D02*
X44034660Y-68222820D01*
X44034660Y-68222820D02*
X44215000Y-68349820D01*
X44215000Y-68349820D02*
X44415660Y-68441260D01*
X44415660Y-68441260D02*
X44631560Y-68499680D01*
X44631560Y-68499680D02*
X44850000Y-68520000D01*
X44850000Y-68520000D02*
X45068440Y-68499680D01*
X45068440Y-68499680D02*
X45284340Y-68441260D01*
X45284340Y-68441260D02*
X45485000Y-68349820D01*
X45485000Y-68349820D02*
X45665340Y-68222820D01*
X45665340Y-68222820D02*
X45822820Y-68065340D01*
X45822820Y-68065340D02*
X45949820Y-67885000D01*
X45949820Y-67885000D02*
X46041260Y-67684340D01*
X46041260Y-67684340D02*
X46099680Y-67468440D01*
X46099680Y-67468440D02*
X46120000Y-67250000D01*
X46120000Y-67250000D02*
X46099680Y-67031560D01*
X46099680Y-67031560D02*
X46041260Y-66815660D01*
X46041260Y-66815660D02*
X45949820Y-66615000D01*
X45949820Y-66615000D02*
X45822820Y-66434660D01*
X45822820Y-66434660D02*
X45665340Y-66277180D01*
X45665340Y-66277180D02*
X45485000Y-66150180D01*
X45485000Y-66150180D02*
X45284340Y-66058740D01*
X45284340Y-66058740D02*
X45068440Y-66000320D01*
X45068440Y-66000320D02*
X44850000Y-65980000D01*
X44850000Y-65980000D02*
X44631560Y-66000320D01*
X44631560Y-66000320D02*
X44415660Y-66058740D01*
X44415660Y-66058740D02*
X44215000Y-66150180D01*
X44215000Y-66150180D02*
X44034660Y-66277180D01*
X44034660Y-66277180D02*
X43877180Y-66434660D01*
X43877180Y-66434660D02*
X43750180Y-66615000D01*
X43750180Y-66615000D02*
X43658740Y-66815660D01*
X43658740Y-66815660D02*
X43600320Y-67031560D01*
X43600320Y-67031560D02*
X43580000Y-67250000D01*
X43580000Y-67250000D02*
X43600320Y-67468440D01*
X43600320Y-67468440D02*
X43658740Y-67684340D01*
X43658740Y-67684340D02*
X43750180Y-67885000D01*
X43750180Y-67885000D02*
X43877180Y-68065340D01*
X43877180Y-68065340D02*
X44034660Y-68222820D01*
X44034660Y-68222820D02*
X44215000Y-68349820D01*
X44215000Y-68349820D02*
X44415660Y-68441260D01*
X44415660Y-68441260D02*
X44631560Y-68499680D01*
X44631560Y-68499680D02*
X44850000Y-68520000D01*
X44850000Y-68520000D02*
X45068440Y-68499680D01*
X45068440Y-68499680D02*
X45284340Y-68441260D01*
X45284340Y-68441260D02*
X45485000Y-68349820D01*
X45485000Y-68349820D02*
X45665340Y-68222820D01*
X45665340Y-68222820D02*
X45822820Y-68065340D01*
X45822820Y-68065340D02*
X45949820Y-67885000D01*
X45949820Y-67885000D02*
X46041260Y-67684340D01*
X46041260Y-67684340D02*
X46099680Y-67468440D01*
X46099680Y-67468440D02*
X46120000Y-67250000D01*
X46120000Y-67250000D02*
X46099680Y-67031560D01*
X46099680Y-67031560D02*
X46041260Y-66815660D01*
X46041260Y-66815660D02*
X45949820Y-66615000D01*
X45949820Y-66615000D02*
X45822820Y-66434660D01*
X45822820Y-66434660D02*
X45665340Y-66277180D01*
X45665340Y-66277180D02*
X45485000Y-66150180D01*
X45485000Y-66150180D02*
X45284340Y-66058740D01*
X45284340Y-66058740D02*
X45068440Y-66000320D01*
X45068440Y-66000320D02*
X44850000Y-65980000D01*
D12*
X37500500Y-69540240D02*
X37500500Y-62039620D01*
X29499500Y-62039620D02*
X29499500Y-69540240D01*
X29499500Y-62039620D02*
X29900820Y-62039620D01*
X29700160Y-63540760D02*
X29700160Y-62039620D01*
X29900820Y-62039620D02*
X29900820Y-63540760D01*
X37299840Y-62039620D02*
X37299840Y-63540760D01*
X37099180Y-63540760D02*
X37099180Y-62039620D01*
X37099180Y-62039620D02*
X37500500Y-62039620D01*
X34000380Y-69540240D02*
X34000380Y-68539480D01*
X34000380Y-68539480D02*
X32999620Y-68539480D01*
X32999620Y-68539480D02*
X32999620Y-69540240D01*
X35498980Y-63540760D02*
X35498980Y-68039100D01*
X35498980Y-68039100D02*
X36200020Y-68039100D01*
X36200020Y-68039100D02*
X36200020Y-63540760D01*
X31501020Y-63540760D02*
X31501020Y-68039100D01*
X31501020Y-68039100D02*
X30799980Y-68039100D01*
X30799980Y-68039100D02*
X30799980Y-63540760D01*
X37500500Y-69540240D02*
X29499500Y-69540240D01*
X29499500Y-63540760D02*
X37500500Y-63540760D01*
X34800480Y-69540240D02*
X35100200Y-69540240D01*
D11*
X22190000Y-65880000D02*
X21971560Y-65900320D01*
X21971560Y-65900320D02*
X21755660Y-65958740D01*
X21755660Y-65958740D02*
X21555000Y-66050180D01*
X21555000Y-66050180D02*
X21374660Y-66177180D01*
X21374660Y-66177180D02*
X21217180Y-66334660D01*
X21217180Y-66334660D02*
X21090180Y-66515000D01*
X21090180Y-66515000D02*
X20998740Y-66715660D01*
X20998740Y-66715660D02*
X20940320Y-66931560D01*
X20940320Y-66931560D02*
X20920000Y-67150000D01*
X20920000Y-67150000D02*
X20940320Y-67368440D01*
X20940320Y-67368440D02*
X20998740Y-67584340D01*
X20998740Y-67584340D02*
X21090180Y-67785000D01*
X21090180Y-67785000D02*
X21217180Y-67965340D01*
X21217180Y-67965340D02*
X21374660Y-68122820D01*
X21374660Y-68122820D02*
X21555000Y-68249820D01*
X21555000Y-68249820D02*
X21755660Y-68341260D01*
X21755660Y-68341260D02*
X21971560Y-68399680D01*
X21971560Y-68399680D02*
X22190000Y-68420000D01*
X22190000Y-68420000D02*
X22408440Y-68399680D01*
X22408440Y-68399680D02*
X22624340Y-68341260D01*
X22624340Y-68341260D02*
X22825000Y-68249820D01*
X22825000Y-68249820D02*
X23005340Y-68122820D01*
X23005340Y-68122820D02*
X23162820Y-67965340D01*
X23162820Y-67965340D02*
X23289820Y-67785000D01*
X23289820Y-67785000D02*
X23381260Y-67584340D01*
X23381260Y-67584340D02*
X23439680Y-67368440D01*
X23439680Y-67368440D02*
X23460000Y-67150000D01*
X23460000Y-67150000D02*
X23439680Y-66931560D01*
X23439680Y-66931560D02*
X23381260Y-66715660D01*
X23381260Y-66715660D02*
X23289820Y-66515000D01*
X23289820Y-66515000D02*
X23162820Y-66334660D01*
X23162820Y-66334660D02*
X23005340Y-66177180D01*
X23005340Y-66177180D02*
X22825000Y-66050180D01*
X22825000Y-66050180D02*
X22624340Y-65958740D01*
X22624340Y-65958740D02*
X22408440Y-65900320D01*
X22408440Y-65900320D02*
X22190000Y-65880000D01*
X22190000Y-65880000D02*
X21971560Y-65900320D01*
X21971560Y-65900320D02*
X21755660Y-65958740D01*
X21755660Y-65958740D02*
X21555000Y-66050180D01*
X21555000Y-66050180D02*
X21374660Y-66177180D01*
X21374660Y-66177180D02*
X21217180Y-66334660D01*
X21217180Y-66334660D02*
X21090180Y-66515000D01*
X21090180Y-66515000D02*
X20998740Y-66715660D01*
X20998740Y-66715660D02*
X20940320Y-66931560D01*
X20940320Y-66931560D02*
X20920000Y-67150000D01*
X20920000Y-67150000D02*
X20940320Y-67368440D01*
X20940320Y-67368440D02*
X20998740Y-67584340D01*
X20998740Y-67584340D02*
X21090180Y-67785000D01*
X21090180Y-67785000D02*
X21217180Y-67965340D01*
X21217180Y-67965340D02*
X21374660Y-68122820D01*
X21374660Y-68122820D02*
X21555000Y-68249820D01*
X21555000Y-68249820D02*
X21755660Y-68341260D01*
X21755660Y-68341260D02*
X21971560Y-68399680D01*
X21971560Y-68399680D02*
X22190000Y-68420000D01*
X22190000Y-68420000D02*
X22408440Y-68399680D01*
X22408440Y-68399680D02*
X22624340Y-68341260D01*
X22624340Y-68341260D02*
X22825000Y-68249820D01*
X22825000Y-68249820D02*
X23005340Y-68122820D01*
X23005340Y-68122820D02*
X23162820Y-67965340D01*
X23162820Y-67965340D02*
X23289820Y-67785000D01*
X23289820Y-67785000D02*
X23381260Y-67584340D01*
X23381260Y-67584340D02*
X23439680Y-67368440D01*
X23439680Y-67368440D02*
X23460000Y-67150000D01*
X23460000Y-67150000D02*
X23439680Y-66931560D01*
X23439680Y-66931560D02*
X23381260Y-66715660D01*
X23381260Y-66715660D02*
X23289820Y-66515000D01*
X23289820Y-66515000D02*
X23162820Y-66334660D01*
X23162820Y-66334660D02*
X23005340Y-66177180D01*
X23005340Y-66177180D02*
X22825000Y-66050180D01*
X22825000Y-66050180D02*
X22624340Y-65958740D01*
X22624340Y-65958740D02*
X22408440Y-65900320D01*
X22408440Y-65900320D02*
X22190000Y-65880000D01*
X22190000Y-65880000D02*
X21971560Y-65900320D01*
X21971560Y-65900320D02*
X21755660Y-65958740D01*
X21755660Y-65958740D02*
X21555000Y-66050180D01*
X21555000Y-66050180D02*
X21374660Y-66177180D01*
X21374660Y-66177180D02*
X21217180Y-66334660D01*
X21217180Y-66334660D02*
X21090180Y-66515000D01*
X21090180Y-66515000D02*
X20998740Y-66715660D01*
X20998740Y-66715660D02*
X20940320Y-66931560D01*
X20940320Y-66931560D02*
X20920000Y-67150000D01*
X20920000Y-67150000D02*
X20940320Y-67368440D01*
X20940320Y-67368440D02*
X20998740Y-67584340D01*
X20998740Y-67584340D02*
X21090180Y-67785000D01*
X21090180Y-67785000D02*
X21217180Y-67965340D01*
X21217180Y-67965340D02*
X21374660Y-68122820D01*
X21374660Y-68122820D02*
X21555000Y-68249820D01*
X21555000Y-68249820D02*
X21755660Y-68341260D01*
X21755660Y-68341260D02*
X21971560Y-68399680D01*
X21971560Y-68399680D02*
X22190000Y-68420000D01*
X22190000Y-68420000D02*
X22408440Y-68399680D01*
X22408440Y-68399680D02*
X22624340Y-68341260D01*
X22624340Y-68341260D02*
X22825000Y-68249820D01*
X22825000Y-68249820D02*
X23005340Y-68122820D01*
X23005340Y-68122820D02*
X23162820Y-67965340D01*
X23162820Y-67965340D02*
X23289820Y-67785000D01*
X23289820Y-67785000D02*
X23381260Y-67584340D01*
X23381260Y-67584340D02*
X23439680Y-67368440D01*
X23439680Y-67368440D02*
X23460000Y-67150000D01*
X23460000Y-67150000D02*
X23439680Y-66931560D01*
X23439680Y-66931560D02*
X23381260Y-66715660D01*
X23381260Y-66715660D02*
X23289820Y-66515000D01*
X23289820Y-66515000D02*
X23162820Y-66334660D01*
X23162820Y-66334660D02*
X23005340Y-66177180D01*
X23005340Y-66177180D02*
X22825000Y-66050180D01*
X22825000Y-66050180D02*
X22624340Y-65958740D01*
X22624340Y-65958740D02*
X22408440Y-65900320D01*
X22408440Y-65900320D02*
X22190000Y-65880000D01*
X22190000Y-65880000D02*
X21971560Y-65900320D01*
X21971560Y-65900320D02*
X21755660Y-65958740D01*
X21755660Y-65958740D02*
X21555000Y-66050180D01*
X21555000Y-66050180D02*
X21374660Y-66177180D01*
X21374660Y-66177180D02*
X21217180Y-66334660D01*
X21217180Y-66334660D02*
X21090180Y-66515000D01*
X21090180Y-66515000D02*
X20998740Y-66715660D01*
X20998740Y-66715660D02*
X20940320Y-66931560D01*
X20940320Y-66931560D02*
X20920000Y-67150000D01*
X20920000Y-67150000D02*
X20940320Y-67368440D01*
X20940320Y-67368440D02*
X20998740Y-67584340D01*
X20998740Y-67584340D02*
X21090180Y-67785000D01*
X21090180Y-67785000D02*
X21217180Y-67965340D01*
X21217180Y-67965340D02*
X21374660Y-68122820D01*
X21374660Y-68122820D02*
X21555000Y-68249820D01*
X21555000Y-68249820D02*
X21755660Y-68341260D01*
X21755660Y-68341260D02*
X21971560Y-68399680D01*
X21971560Y-68399680D02*
X22190000Y-68420000D01*
X22190000Y-68420000D02*
X22408440Y-68399680D01*
X22408440Y-68399680D02*
X22624340Y-68341260D01*
X22624340Y-68341260D02*
X22825000Y-68249820D01*
X22825000Y-68249820D02*
X23005340Y-68122820D01*
X23005340Y-68122820D02*
X23162820Y-67965340D01*
X23162820Y-67965340D02*
X23289820Y-67785000D01*
X23289820Y-67785000D02*
X23381260Y-67584340D01*
X23381260Y-67584340D02*
X23439680Y-67368440D01*
X23439680Y-67368440D02*
X23460000Y-67150000D01*
X23460000Y-67150000D02*
X23439680Y-66931560D01*
X23439680Y-66931560D02*
X23381260Y-66715660D01*
X23381260Y-66715660D02*
X23289820Y-66515000D01*
X23289820Y-66515000D02*
X23162820Y-66334660D01*
X23162820Y-66334660D02*
X23005340Y-66177180D01*
X23005340Y-66177180D02*
X22825000Y-66050180D01*
X22825000Y-66050180D02*
X22624340Y-65958740D01*
X22624340Y-65958740D02*
X22408440Y-65900320D01*
X22408440Y-65900320D02*
X22190000Y-65880000D01*
D13*
G36*
X35910256Y-36649918D02*
X35854799Y-36677568D01*
X35805852Y-36728480D01*
X35792371Y-36747338D01*
X35777686Y-36772015D01*
X35768158Y-36798816D01*
X35762707Y-36834587D01*
X35760253Y-36886169D01*
X35759714Y-36954267D01*
X35762148Y-37047588D01*
X35770606Y-37117657D01*
X35786826Y-37169931D01*
X35812546Y-37209869D01*
X35849503Y-37242929D01*
X35852218Y-37244886D01*
X35888640Y-37264908D01*
X35932498Y-37274815D01*
X35988276Y-37277257D01*
X36078952Y-37277257D01*
X36078990Y-37365283D01*
X36079834Y-37414308D01*
X36084976Y-37443065D01*
X36098413Y-37460311D01*
X36124142Y-37474808D01*
X36130321Y-37477769D01*
X36159236Y-37491648D01*
X36181624Y-37500414D01*
X36198271Y-37501171D01*
X36209964Y-37491023D01*
X36217490Y-37467073D01*
X36221634Y-37426426D01*
X36223185Y-37366186D01*
X36222929Y-37283455D01*
X36221651Y-37175339D01*
X36221252Y-37143000D01*
X36219815Y-37031524D01*
X36218528Y-36958603D01*
X36079029Y-36958603D01*
X36078245Y-37020499D01*
X36074760Y-37060997D01*
X36066876Y-37087708D01*
X36052895Y-37108244D01*
X36043403Y-37118260D01*
X36004596Y-37147567D01*
X35970237Y-37149952D01*
X35934784Y-37125750D01*
X35933886Y-37124857D01*
X35919461Y-37106153D01*
X35910687Y-37080732D01*
X35906261Y-37041584D01*
X35904882Y-36981697D01*
X35904857Y-36968430D01*
X35908188Y-36885901D01*
X35919031Y-36828691D01*
X35938660Y-36793766D01*
X35968350Y-36778094D01*
X35985509Y-36776514D01*
X36026234Y-36783926D01*
X36054168Y-36808330D01*
X36070983Y-36852980D01*
X36078350Y-36921130D01*
X36079029Y-36958603D01*
X36218528Y-36958603D01*
X36218292Y-36945245D01*
X36216323Y-36880333D01*
X36213550Y-36832958D01*
X36209612Y-36799290D01*
X36204151Y-36775498D01*
X36196808Y-36757753D01*
X36187223Y-36742224D01*
X36183113Y-36736381D01*
X36128595Y-36681185D01*
X36059664Y-36649890D01*
X35979928Y-36641165D01*
X35910256Y-36649918D01*
X35910256Y-36649918D01*
G37*
X35910256Y-36649918D02*
X35854799Y-36677568D01*
X35805852Y-36728480D01*
X35792371Y-36747338D01*
X35777686Y-36772015D01*
X35768158Y-36798816D01*
X35762707Y-36834587D01*
X35760253Y-36886169D01*
X35759714Y-36954267D01*
X35762148Y-37047588D01*
X35770606Y-37117657D01*
X35786826Y-37169931D01*
X35812546Y-37209869D01*
X35849503Y-37242929D01*
X35852218Y-37244886D01*
X35888640Y-37264908D01*
X35932498Y-37274815D01*
X35988276Y-37277257D01*
X36078952Y-37277257D01*
X36078990Y-37365283D01*
X36079834Y-37414308D01*
X36084976Y-37443065D01*
X36098413Y-37460311D01*
X36124142Y-37474808D01*
X36130321Y-37477769D01*
X36159236Y-37491648D01*
X36181624Y-37500414D01*
X36198271Y-37501171D01*
X36209964Y-37491023D01*
X36217490Y-37467073D01*
X36221634Y-37426426D01*
X36223185Y-37366186D01*
X36222929Y-37283455D01*
X36221651Y-37175339D01*
X36221252Y-37143000D01*
X36219815Y-37031524D01*
X36218528Y-36958603D01*
X36079029Y-36958603D01*
X36078245Y-37020499D01*
X36074760Y-37060997D01*
X36066876Y-37087708D01*
X36052895Y-37108244D01*
X36043403Y-37118260D01*
X36004596Y-37147567D01*
X35970237Y-37149952D01*
X35934784Y-37125750D01*
X35933886Y-37124857D01*
X35919461Y-37106153D01*
X35910687Y-37080732D01*
X35906261Y-37041584D01*
X35904882Y-36981697D01*
X35904857Y-36968430D01*
X35908188Y-36885901D01*
X35919031Y-36828691D01*
X35938660Y-36793766D01*
X35968350Y-36778094D01*
X35985509Y-36776514D01*
X36026234Y-36783926D01*
X36054168Y-36808330D01*
X36070983Y-36852980D01*
X36078350Y-36921130D01*
X36079029Y-36958603D01*
X36218528Y-36958603D01*
X36218292Y-36945245D01*
X36216323Y-36880333D01*
X36213550Y-36832958D01*
X36209612Y-36799290D01*
X36204151Y-36775498D01*
X36196808Y-36757753D01*
X36187223Y-36742224D01*
X36183113Y-36736381D01*
X36128595Y-36681185D01*
X36059664Y-36649890D01*
X35979928Y-36641165D01*
X35910256Y-36649918D01*
G36*
X34793907Y-36657780D02*
X34747328Y-36684723D01*
X34714943Y-36711466D01*
X34691258Y-36739484D01*
X34674941Y-36773748D01*
X34664661Y-36819227D01*
X34659086Y-36880892D01*
X34656884Y-36963711D01*
X34656629Y-37023246D01*
X34656629Y-37242391D01*
X34718314Y-37270044D01*
X34780000Y-37297697D01*
X34787257Y-37057670D01*
X34790256Y-36968028D01*
X34793402Y-36902962D01*
X34797299Y-36858026D01*
X34802553Y-36828770D01*
X34809769Y-36810748D01*
X34819550Y-36799511D01*
X34822688Y-36797079D01*
X34870239Y-36778083D01*
X34918303Y-36785600D01*
X34946914Y-36805543D01*
X34958553Y-36819675D01*
X34966609Y-36838220D01*
X34971729Y-36866334D01*
X34974559Y-36909173D01*
X34975744Y-36971895D01*
X34975943Y-37037261D01*
X34975982Y-37119268D01*
X34977386Y-37177316D01*
X34982086Y-37216465D01*
X34992013Y-37241780D01*
X35009097Y-37258323D01*
X35035268Y-37271156D01*
X35070225Y-37284491D01*
X35108404Y-37299007D01*
X35103859Y-37041389D01*
X35102029Y-36948519D01*
X35099888Y-36879889D01*
X35096819Y-36830711D01*
X35092206Y-36796198D01*
X35085432Y-36771562D01*
X35075881Y-36752016D01*
X35064366Y-36734770D01*
X35008810Y-36679680D01*
X34941020Y-36647822D01*
X34867287Y-36640191D01*
X34793907Y-36657780D01*
X34793907Y-36657780D01*
G37*
X34793907Y-36657780D02*
X34747328Y-36684723D01*
X34714943Y-36711466D01*
X34691258Y-36739484D01*
X34674941Y-36773748D01*
X34664661Y-36819227D01*
X34659086Y-36880892D01*
X34656884Y-36963711D01*
X34656629Y-37023246D01*
X34656629Y-37242391D01*
X34718314Y-37270044D01*
X34780000Y-37297697D01*
X34787257Y-37057670D01*
X34790256Y-36968028D01*
X34793402Y-36902962D01*
X34797299Y-36858026D01*
X34802553Y-36828770D01*
X34809769Y-36810748D01*
X34819550Y-36799511D01*
X34822688Y-36797079D01*
X34870239Y-36778083D01*
X34918303Y-36785600D01*
X34946914Y-36805543D01*
X34958553Y-36819675D01*
X34966609Y-36838220D01*
X34971729Y-36866334D01*
X34974559Y-36909173D01*
X34975744Y-36971895D01*
X34975943Y-37037261D01*
X34975982Y-37119268D01*
X34977386Y-37177316D01*
X34982086Y-37216465D01*
X34992013Y-37241780D01*
X35009097Y-37258323D01*
X35035268Y-37271156D01*
X35070225Y-37284491D01*
X35108404Y-37299007D01*
X35103859Y-37041389D01*
X35102029Y-36948519D01*
X35099888Y-36879889D01*
X35096819Y-36830711D01*
X35092206Y-36796198D01*
X35085432Y-36771562D01*
X35075881Y-36752016D01*
X35064366Y-36734770D01*
X35008810Y-36679680D01*
X34941020Y-36647822D01*
X34867287Y-36640191D01*
X34793907Y-36657780D01*
G36*
X36468885Y-36651962D02*
X36400855Y-36687733D01*
X36350649Y-36745301D01*
X36332815Y-36782312D01*
X36318937Y-36837882D01*
X36311833Y-36908096D01*
X36311160Y-36984727D01*
X36316573Y-37059552D01*
X36327730Y-37124342D01*
X36344286Y-37170873D01*
X36349374Y-37178887D01*
X36409645Y-37238707D01*
X36481231Y-37274535D01*
X36558908Y-37285020D01*
X36637452Y-37268810D01*
X36659311Y-37259092D01*
X36701878Y-37229143D01*
X36739237Y-37189433D01*
X36742768Y-37184397D01*
X36757119Y-37160124D01*
X36766606Y-37134178D01*
X36772210Y-37100022D01*
X36774914Y-37051119D01*
X36775701Y-36980935D01*
X36775714Y-36965200D01*
X36775678Y-36960192D01*
X36630571Y-36960192D01*
X36629727Y-37026430D01*
X36626404Y-37070386D01*
X36619417Y-37098779D01*
X36607584Y-37118325D01*
X36601543Y-37124857D01*
X36566814Y-37149680D01*
X36533097Y-37148548D01*
X36499005Y-37127016D01*
X36478671Y-37104029D01*
X36466629Y-37070478D01*
X36459866Y-37017569D01*
X36459402Y-37011399D01*
X36458248Y-36915513D01*
X36470312Y-36844299D01*
X36495430Y-36798194D01*
X36533440Y-36777635D01*
X36547008Y-36776514D01*
X36582636Y-36782152D01*
X36607006Y-36801686D01*
X36621907Y-36839042D01*
X36629125Y-36898150D01*
X36630571Y-36960192D01*
X36775678Y-36960192D01*
X36775174Y-36890413D01*
X36772904Y-36838159D01*
X36767932Y-36801949D01*
X36759287Y-36775299D01*
X36745995Y-36751722D01*
X36743057Y-36747338D01*
X36693687Y-36688249D01*
X36639891Y-36653947D01*
X36574398Y-36640331D01*
X36552158Y-36639665D01*
X36468885Y-36651962D01*
X36468885Y-36651962D01*
G37*
X36468885Y-36651962D02*
X36400855Y-36687733D01*
X36350649Y-36745301D01*
X36332815Y-36782312D01*
X36318937Y-36837882D01*
X36311833Y-36908096D01*
X36311160Y-36984727D01*
X36316573Y-37059552D01*
X36327730Y-37124342D01*
X36344286Y-37170873D01*
X36349374Y-37178887D01*
X36409645Y-37238707D01*
X36481231Y-37274535D01*
X36558908Y-37285020D01*
X36637452Y-37268810D01*
X36659311Y-37259092D01*
X36701878Y-37229143D01*
X36739237Y-37189433D01*
X36742768Y-37184397D01*
X36757119Y-37160124D01*
X36766606Y-37134178D01*
X36772210Y-37100022D01*
X36774914Y-37051119D01*
X36775701Y-36980935D01*
X36775714Y-36965200D01*
X36775678Y-36960192D01*
X36630571Y-36960192D01*
X36629727Y-37026430D01*
X36626404Y-37070386D01*
X36619417Y-37098779D01*
X36607584Y-37118325D01*
X36601543Y-37124857D01*
X36566814Y-37149680D01*
X36533097Y-37148548D01*
X36499005Y-37127016D01*
X36478671Y-37104029D01*
X36466629Y-37070478D01*
X36459866Y-37017569D01*
X36459402Y-37011399D01*
X36458248Y-36915513D01*
X36470312Y-36844299D01*
X36495430Y-36798194D01*
X36533440Y-36777635D01*
X36547008Y-36776514D01*
X36582636Y-36782152D01*
X36607006Y-36801686D01*
X36621907Y-36839042D01*
X36629125Y-36898150D01*
X36630571Y-36960192D01*
X36775678Y-36960192D01*
X36775174Y-36890413D01*
X36772904Y-36838159D01*
X36767932Y-36801949D01*
X36759287Y-36775299D01*
X36745995Y-36751722D01*
X36743057Y-36747338D01*
X36693687Y-36688249D01*
X36639891Y-36653947D01*
X36574398Y-36640331D01*
X36552158Y-36639665D01*
X36468885Y-36651962D01*
G36*
X35341697Y-36661239D02*
X35284473Y-36699735D01*
X35240251Y-36755335D01*
X35213833Y-36826086D01*
X35208490Y-36878162D01*
X35209097Y-36899893D01*
X35214178Y-36916531D01*
X35228145Y-36931437D01*
X35255411Y-36947973D01*
X35300388Y-36969498D01*
X35367489Y-36999374D01*
X35367829Y-36999524D01*
X35429593Y-37027813D01*
X35480241Y-37052933D01*
X35514596Y-37072179D01*
X35527482Y-37082848D01*
X35527486Y-37082934D01*
X35516128Y-37106166D01*
X35489569Y-37131774D01*
X35459077Y-37150221D01*
X35443630Y-37153886D01*
X35401485Y-37141212D01*
X35365192Y-37109471D01*
X35347483Y-37074572D01*
X35330448Y-37048845D01*
X35297078Y-37019546D01*
X35257851Y-36994235D01*
X35223244Y-36980471D01*
X35216007Y-36979714D01*
X35207861Y-36992160D01*
X35207370Y-37023972D01*
X35213357Y-37066866D01*
X35224643Y-37112558D01*
X35240050Y-37152761D01*
X35240829Y-37154322D01*
X35287196Y-37219062D01*
X35347289Y-37263097D01*
X35415535Y-37284711D01*
X35486362Y-37282185D01*
X35554196Y-37253804D01*
X35557212Y-37251808D01*
X35610573Y-37203448D01*
X35645660Y-37140352D01*
X35665078Y-37057387D01*
X35667684Y-37034078D01*
X35672299Y-36924055D01*
X35666767Y-36872748D01*
X35527486Y-36872748D01*
X35525676Y-36904753D01*
X35515778Y-36914093D01*
X35491102Y-36907105D01*
X35452205Y-36890587D01*
X35408725Y-36869881D01*
X35407644Y-36869333D01*
X35370791Y-36849949D01*
X35356000Y-36837013D01*
X35359647Y-36823451D01*
X35375005Y-36805632D01*
X35414077Y-36779845D01*
X35456154Y-36777950D01*
X35493897Y-36796717D01*
X35519966Y-36832915D01*
X35527486Y-36872748D01*
X35666767Y-36872748D01*
X35662806Y-36836027D01*
X35638450Y-36766212D01*
X35604544Y-36717302D01*
X35543347Y-36667878D01*
X35475937Y-36643359D01*
X35407120Y-36641797D01*
X35341697Y-36661239D01*
X35341697Y-36661239D01*
G37*
X35341697Y-36661239D02*
X35284473Y-36699735D01*
X35240251Y-36755335D01*
X35213833Y-36826086D01*
X35208490Y-36878162D01*
X35209097Y-36899893D01*
X35214178Y-36916531D01*
X35228145Y-36931437D01*
X35255411Y-36947973D01*
X35300388Y-36969498D01*
X35367489Y-36999374D01*
X35367829Y-36999524D01*
X35429593Y-37027813D01*
X35480241Y-37052933D01*
X35514596Y-37072179D01*
X35527482Y-37082848D01*
X35527486Y-37082934D01*
X35516128Y-37106166D01*
X35489569Y-37131774D01*
X35459077Y-37150221D01*
X35443630Y-37153886D01*
X35401485Y-37141212D01*
X35365192Y-37109471D01*
X35347483Y-37074572D01*
X35330448Y-37048845D01*
X35297078Y-37019546D01*
X35257851Y-36994235D01*
X35223244Y-36980471D01*
X35216007Y-36979714D01*
X35207861Y-36992160D01*
X35207370Y-37023972D01*
X35213357Y-37066866D01*
X35224643Y-37112558D01*
X35240050Y-37152761D01*
X35240829Y-37154322D01*
X35287196Y-37219062D01*
X35347289Y-37263097D01*
X35415535Y-37284711D01*
X35486362Y-37282185D01*
X35554196Y-37253804D01*
X35557212Y-37251808D01*
X35610573Y-37203448D01*
X35645660Y-37140352D01*
X35665078Y-37057387D01*
X35667684Y-37034078D01*
X35672299Y-36924055D01*
X35666767Y-36872748D01*
X35527486Y-36872748D01*
X35525676Y-36904753D01*
X35515778Y-36914093D01*
X35491102Y-36907105D01*
X35452205Y-36890587D01*
X35408725Y-36869881D01*
X35407644Y-36869333D01*
X35370791Y-36849949D01*
X35356000Y-36837013D01*
X35359647Y-36823451D01*
X35375005Y-36805632D01*
X35414077Y-36779845D01*
X35456154Y-36777950D01*
X35493897Y-36796717D01*
X35519966Y-36832915D01*
X35527486Y-36872748D01*
X35666767Y-36872748D01*
X35662806Y-36836027D01*
X35638450Y-36766212D01*
X35604544Y-36717302D01*
X35543347Y-36667878D01*
X35475937Y-36643359D01*
X35407120Y-36641797D01*
X35341697Y-36661239D01*
G36*
X34134114Y-36581289D02*
X34129861Y-36640613D01*
X34124975Y-36675572D01*
X34118205Y-36690820D01*
X34108298Y-36691015D01*
X34105086Y-36689195D01*
X34062356Y-36676015D01*
X34006773Y-36676785D01*
X33950263Y-36690333D01*
X33914918Y-36707861D01*
X33878679Y-36735861D01*
X33852187Y-36767549D01*
X33834001Y-36807813D01*
X33822678Y-36861543D01*
X33816778Y-36933626D01*
X33814857Y-37028951D01*
X33814823Y-37047237D01*
X33814800Y-37252646D01*
X33860509Y-37268580D01*
X33892973Y-37279420D01*
X33910785Y-37284468D01*
X33911309Y-37284514D01*
X33913063Y-37270828D01*
X33914556Y-37233076D01*
X33915674Y-37176224D01*
X33916303Y-37105234D01*
X33916400Y-37062073D01*
X33916602Y-36976973D01*
X33917642Y-36915981D01*
X33920169Y-36874177D01*
X33924836Y-36846642D01*
X33932293Y-36828456D01*
X33943189Y-36814698D01*
X33949993Y-36808073D01*
X33996728Y-36781375D01*
X34047728Y-36779375D01*
X34093999Y-36801955D01*
X34102556Y-36810107D01*
X34115107Y-36825436D01*
X34123812Y-36843618D01*
X34129369Y-36869909D01*
X34132474Y-36909562D01*
X34133824Y-36967832D01*
X34134114Y-37048173D01*
X34134114Y-37252646D01*
X34179823Y-37268580D01*
X34212287Y-37279420D01*
X34230099Y-37284468D01*
X34230623Y-37284514D01*
X34231963Y-37270623D01*
X34233172Y-37231439D01*
X34234199Y-37170700D01*
X34234998Y-37092141D01*
X34235519Y-36999498D01*
X34235714Y-36896509D01*
X34235714Y-36499342D01*
X34188543Y-36479444D01*
X34141371Y-36459547D01*
X34134114Y-36581289D01*
X34134114Y-36581289D01*
G37*
X34134114Y-36581289D02*
X34129861Y-36640613D01*
X34124975Y-36675572D01*
X34118205Y-36690820D01*
X34108298Y-36691015D01*
X34105086Y-36689195D01*
X34062356Y-36676015D01*
X34006773Y-36676785D01*
X33950263Y-36690333D01*
X33914918Y-36707861D01*
X33878679Y-36735861D01*
X33852187Y-36767549D01*
X33834001Y-36807813D01*
X33822678Y-36861543D01*
X33816778Y-36933626D01*
X33814857Y-37028951D01*
X33814823Y-37047237D01*
X33814800Y-37252646D01*
X33860509Y-37268580D01*
X33892973Y-37279420D01*
X33910785Y-37284468D01*
X33911309Y-37284514D01*
X33913063Y-37270828D01*
X33914556Y-37233076D01*
X33915674Y-37176224D01*
X33916303Y-37105234D01*
X33916400Y-37062073D01*
X33916602Y-36976973D01*
X33917642Y-36915981D01*
X33920169Y-36874177D01*
X33924836Y-36846642D01*
X33932293Y-36828456D01*
X33943189Y-36814698D01*
X33949993Y-36808073D01*
X33996728Y-36781375D01*
X34047728Y-36779375D01*
X34093999Y-36801955D01*
X34102556Y-36810107D01*
X34115107Y-36825436D01*
X34123812Y-36843618D01*
X34129369Y-36869909D01*
X34132474Y-36909562D01*
X34133824Y-36967832D01*
X34134114Y-37048173D01*
X34134114Y-37252646D01*
X34179823Y-37268580D01*
X34212287Y-37279420D01*
X34230099Y-37284468D01*
X34230623Y-37284514D01*
X34231963Y-37270623D01*
X34233172Y-37231439D01*
X34234199Y-37170700D01*
X34234998Y-37092141D01*
X34235519Y-36999498D01*
X34235714Y-36896509D01*
X34235714Y-36499342D01*
X34188543Y-36479444D01*
X34141371Y-36459547D01*
X34134114Y-36581289D01*
G36*
X33470256Y-36680968D02*
X33413384Y-36702087D01*
X33412733Y-36702493D01*
X33377560Y-36728380D01*
X33351593Y-36758633D01*
X33333330Y-36798058D01*
X33321268Y-36851462D01*
X33313904Y-36923651D01*
X33309736Y-37019432D01*
X33309371Y-37033078D01*
X33304124Y-37238842D01*
X33348284Y-37261678D01*
X33380237Y-37277110D01*
X33399530Y-37284423D01*
X33400422Y-37284514D01*
X33403761Y-37271022D01*
X33406413Y-37234626D01*
X33408044Y-37181452D01*
X33408400Y-37138393D01*
X33408408Y-37068641D01*
X33411597Y-37024837D01*
X33422712Y-37003944D01*
X33446499Y-37002925D01*
X33487704Y-37018741D01*
X33549914Y-37047815D01*
X33595659Y-37071963D01*
X33619187Y-37092913D01*
X33626104Y-37115747D01*
X33626114Y-37116877D01*
X33614701Y-37156212D01*
X33580908Y-37177462D01*
X33529191Y-37180539D01*
X33491939Y-37180006D01*
X33472297Y-37190735D01*
X33460048Y-37216505D01*
X33452998Y-37249337D01*
X33463158Y-37267966D01*
X33466983Y-37270632D01*
X33502999Y-37281340D01*
X33553434Y-37282856D01*
X33605374Y-37275759D01*
X33642178Y-37262788D01*
X33693062Y-37219585D01*
X33721986Y-37159446D01*
X33727714Y-37112462D01*
X33723343Y-37070082D01*
X33707525Y-37035488D01*
X33676203Y-37004763D01*
X33625322Y-36973990D01*
X33550824Y-36939252D01*
X33546286Y-36937288D01*
X33479179Y-36906287D01*
X33437768Y-36880862D01*
X33420019Y-36858014D01*
X33423893Y-36834745D01*
X33447357Y-36808056D01*
X33454373Y-36801914D01*
X33501370Y-36778100D01*
X33550067Y-36779103D01*
X33592478Y-36802451D01*
X33620616Y-36845675D01*
X33623231Y-36854160D01*
X33648692Y-36895308D01*
X33680999Y-36915128D01*
X33727714Y-36934770D01*
X33727714Y-36883950D01*
X33713504Y-36810082D01*
X33671325Y-36742327D01*
X33649376Y-36719661D01*
X33599483Y-36690569D01*
X33536033Y-36677400D01*
X33470256Y-36680968D01*
X33470256Y-36680968D01*
G37*
X33470256Y-36680968D02*
X33413384Y-36702087D01*
X33412733Y-36702493D01*
X33377560Y-36728380D01*
X33351593Y-36758633D01*
X33333330Y-36798058D01*
X33321268Y-36851462D01*
X33313904Y-36923651D01*
X33309736Y-37019432D01*
X33309371Y-37033078D01*
X33304124Y-37238842D01*
X33348284Y-37261678D01*
X33380237Y-37277110D01*
X33399530Y-37284423D01*
X33400422Y-37284514D01*
X33403761Y-37271022D01*
X33406413Y-37234626D01*
X33408044Y-37181452D01*
X33408400Y-37138393D01*
X33408408Y-37068641D01*
X33411597Y-37024837D01*
X33422712Y-37003944D01*
X33446499Y-37002925D01*
X33487704Y-37018741D01*
X33549914Y-37047815D01*
X33595659Y-37071963D01*
X33619187Y-37092913D01*
X33626104Y-37115747D01*
X33626114Y-37116877D01*
X33614701Y-37156212D01*
X33580908Y-37177462D01*
X33529191Y-37180539D01*
X33491939Y-37180006D01*
X33472297Y-37190735D01*
X33460048Y-37216505D01*
X33452998Y-37249337D01*
X33463158Y-37267966D01*
X33466983Y-37270632D01*
X33502999Y-37281340D01*
X33553434Y-37282856D01*
X33605374Y-37275759D01*
X33642178Y-37262788D01*
X33693062Y-37219585D01*
X33721986Y-37159446D01*
X33727714Y-37112462D01*
X33723343Y-37070082D01*
X33707525Y-37035488D01*
X33676203Y-37004763D01*
X33625322Y-36973990D01*
X33550824Y-36939252D01*
X33546286Y-36937288D01*
X33479179Y-36906287D01*
X33437768Y-36880862D01*
X33420019Y-36858014D01*
X33423893Y-36834745D01*
X33447357Y-36808056D01*
X33454373Y-36801914D01*
X33501370Y-36778100D01*
X33550067Y-36779103D01*
X33592478Y-36802451D01*
X33620616Y-36845675D01*
X33623231Y-36854160D01*
X33648692Y-36895308D01*
X33680999Y-36915128D01*
X33727714Y-36934770D01*
X33727714Y-36883950D01*
X33713504Y-36810082D01*
X33671325Y-36742327D01*
X33649376Y-36719661D01*
X33599483Y-36690569D01*
X33536033Y-36677400D01*
X33470256Y-36680968D01*
G36*
X32980074Y-36679755D02*
X32914142Y-36704084D01*
X32860727Y-36747117D01*
X32839836Y-36777409D01*
X32817061Y-36832994D01*
X32817534Y-36873186D01*
X32841438Y-36900217D01*
X32850283Y-36904813D01*
X32888470Y-36919144D01*
X32907972Y-36915472D01*
X32914578Y-36891407D01*
X32914914Y-36878114D01*
X32927008Y-36829210D01*
X32958529Y-36794999D01*
X33002341Y-36778476D01*
X33051305Y-36782634D01*
X33091106Y-36804227D01*
X33104550Y-36816544D01*
X33114079Y-36831487D01*
X33120515Y-36854075D01*
X33124683Y-36889328D01*
X33127403Y-36942266D01*
X33129498Y-37017907D01*
X33130040Y-37041857D01*
X33132019Y-37123790D01*
X33134269Y-37181455D01*
X33137643Y-37219608D01*
X33142994Y-37243004D01*
X33151176Y-37256398D01*
X33163041Y-37264545D01*
X33170638Y-37268144D01*
X33202898Y-37280452D01*
X33221889Y-37284514D01*
X33228164Y-37270948D01*
X33231994Y-37229934D01*
X33233400Y-37160999D01*
X33232402Y-37063669D01*
X33232092Y-37048657D01*
X33229899Y-36959859D01*
X33227307Y-36895019D01*
X33223618Y-36849067D01*
X33218136Y-36816935D01*
X33210165Y-36793553D01*
X33199007Y-36773852D01*
X33193170Y-36765410D01*
X33159704Y-36728057D01*
X33122273Y-36699003D01*
X33117691Y-36696467D01*
X33050574Y-36676443D01*
X32980074Y-36679755D01*
X32980074Y-36679755D01*
G37*
X32980074Y-36679755D02*
X32914142Y-36704084D01*
X32860727Y-36747117D01*
X32839836Y-36777409D01*
X32817061Y-36832994D01*
X32817534Y-36873186D01*
X32841438Y-36900217D01*
X32850283Y-36904813D01*
X32888470Y-36919144D01*
X32907972Y-36915472D01*
X32914578Y-36891407D01*
X32914914Y-36878114D01*
X32927008Y-36829210D01*
X32958529Y-36794999D01*
X33002341Y-36778476D01*
X33051305Y-36782634D01*
X33091106Y-36804227D01*
X33104550Y-36816544D01*
X33114079Y-36831487D01*
X33120515Y-36854075D01*
X33124683Y-36889328D01*
X33127403Y-36942266D01*
X33129498Y-37017907D01*
X33130040Y-37041857D01*
X33132019Y-37123790D01*
X33134269Y-37181455D01*
X33137643Y-37219608D01*
X33142994Y-37243004D01*
X33151176Y-37256398D01*
X33163041Y-37264545D01*
X33170638Y-37268144D01*
X33202898Y-37280452D01*
X33221889Y-37284514D01*
X33228164Y-37270948D01*
X33231994Y-37229934D01*
X33233400Y-37160999D01*
X33232402Y-37063669D01*
X33232092Y-37048657D01*
X33229899Y-36959859D01*
X33227307Y-36895019D01*
X33223618Y-36849067D01*
X33218136Y-36816935D01*
X33210165Y-36793553D01*
X33199007Y-36773852D01*
X33193170Y-36765410D01*
X33159704Y-36728057D01*
X33122273Y-36699003D01*
X33117691Y-36696467D01*
X33050574Y-36676443D01*
X32980074Y-36679755D01*
G36*
X32319883Y-36795358D02*
X32320067Y-36903837D01*
X32320781Y-36987287D01*
X32322325Y-37049704D01*
X32324999Y-37095085D01*
X32329106Y-37127429D01*
X32334945Y-37150733D01*
X32342818Y-37168995D01*
X32348779Y-37179418D01*
X32398145Y-37235945D01*
X32460736Y-37271377D01*
X32529987Y-37284090D01*
X32599332Y-37272463D01*
X32640625Y-37251568D01*
X32683975Y-37215422D01*
X32713519Y-37171276D01*
X32731345Y-37113462D01*
X32739537Y-37036313D01*
X32740698Y-36979714D01*
X32740542Y-36975647D01*
X32639143Y-36975647D01*
X32638524Y-37040550D01*
X32635686Y-37083514D01*
X32629160Y-37111622D01*
X32617477Y-37131953D01*
X32603517Y-37147288D01*
X32556635Y-37176890D01*
X32506299Y-37179419D01*
X32458724Y-37154705D01*
X32455021Y-37151356D01*
X32439217Y-37133935D01*
X32429307Y-37113209D01*
X32423942Y-37082362D01*
X32421772Y-37034577D01*
X32421429Y-36981748D01*
X32422173Y-36915381D01*
X32425252Y-36871106D01*
X32431939Y-36842009D01*
X32443504Y-36821173D01*
X32452987Y-36810107D01*
X32497040Y-36782198D01*
X32547776Y-36778843D01*
X32596204Y-36800159D01*
X32605550Y-36808073D01*
X32621460Y-36825647D01*
X32631390Y-36846587D01*
X32636722Y-36877782D01*
X32638837Y-36926122D01*
X32639143Y-36975647D01*
X32740542Y-36975647D01*
X32737190Y-36888568D01*
X32725274Y-36820086D01*
X32702865Y-36768600D01*
X32667876Y-36728443D01*
X32640625Y-36707861D01*
X32591093Y-36685625D01*
X32533684Y-36675304D01*
X32480318Y-36678067D01*
X32450457Y-36689212D01*
X32438739Y-36692383D01*
X32430963Y-36680557D01*
X32425535Y-36648866D01*
X32421429Y-36600593D01*
X32416933Y-36546829D01*
X32410687Y-36514482D01*
X32399324Y-36495985D01*
X32379472Y-36483770D01*
X32367000Y-36478362D01*
X32319829Y-36458601D01*
X32319883Y-36795358D01*
X32319883Y-36795358D01*
G37*
X32319883Y-36795358D02*
X32320067Y-36903837D01*
X32320781Y-36987287D01*
X32322325Y-37049704D01*
X32324999Y-37095085D01*
X32329106Y-37127429D01*
X32334945Y-37150733D01*
X32342818Y-37168995D01*
X32348779Y-37179418D01*
X32398145Y-37235945D01*
X32460736Y-37271377D01*
X32529987Y-37284090D01*
X32599332Y-37272463D01*
X32640625Y-37251568D01*
X32683975Y-37215422D01*
X32713519Y-37171276D01*
X32731345Y-37113462D01*
X32739537Y-37036313D01*
X32740698Y-36979714D01*
X32740542Y-36975647D01*
X32639143Y-36975647D01*
X32638524Y-37040550D01*
X32635686Y-37083514D01*
X32629160Y-37111622D01*
X32617477Y-37131953D01*
X32603517Y-37147288D01*
X32556635Y-37176890D01*
X32506299Y-37179419D01*
X32458724Y-37154705D01*
X32455021Y-37151356D01*
X32439217Y-37133935D01*
X32429307Y-37113209D01*
X32423942Y-37082362D01*
X32421772Y-37034577D01*
X32421429Y-36981748D01*
X32422173Y-36915381D01*
X32425252Y-36871106D01*
X32431939Y-36842009D01*
X32443504Y-36821173D01*
X32452987Y-36810107D01*
X32497040Y-36782198D01*
X32547776Y-36778843D01*
X32596204Y-36800159D01*
X32605550Y-36808073D01*
X32621460Y-36825647D01*
X32631390Y-36846587D01*
X32636722Y-36877782D01*
X32638837Y-36926122D01*
X32639143Y-36975647D01*
X32740542Y-36975647D01*
X32737190Y-36888568D01*
X32725274Y-36820086D01*
X32702865Y-36768600D01*
X32667876Y-36728443D01*
X32640625Y-36707861D01*
X32591093Y-36685625D01*
X32533684Y-36675304D01*
X32480318Y-36678067D01*
X32450457Y-36689212D01*
X32438739Y-36692383D01*
X32430963Y-36680557D01*
X32425535Y-36648866D01*
X32421429Y-36600593D01*
X32416933Y-36546829D01*
X32410687Y-36514482D01*
X32399324Y-36495985D01*
X32379472Y-36483770D01*
X32367000Y-36478362D01*
X32319829Y-36458601D01*
X32319883Y-36795358D01*
G36*
X31730167Y-36688663D02*
X31727952Y-36726850D01*
X31726216Y-36784886D01*
X31725101Y-36858180D01*
X31724743Y-36935055D01*
X31724743Y-37195196D01*
X31770674Y-37241127D01*
X31802325Y-37269429D01*
X31830110Y-37280893D01*
X31868085Y-37280168D01*
X31883160Y-37278321D01*
X31930274Y-37272948D01*
X31969244Y-37269869D01*
X31978743Y-37269585D01*
X32010767Y-37271445D01*
X32056568Y-37276114D01*
X32074326Y-37278321D01*
X32117943Y-37281735D01*
X32147255Y-37274320D01*
X32176320Y-37251427D01*
X32186812Y-37241127D01*
X32232743Y-37195196D01*
X32232743Y-36708602D01*
X32195774Y-36691758D01*
X32163941Y-36679282D01*
X32145317Y-36674914D01*
X32140542Y-36688718D01*
X32136079Y-36727286D01*
X32132225Y-36786356D01*
X32129278Y-36861663D01*
X32127857Y-36925286D01*
X32123886Y-37175657D01*
X32089241Y-37180556D01*
X32057732Y-37177131D01*
X32042292Y-37166041D01*
X32037977Y-37145308D01*
X32034292Y-37101145D01*
X32031531Y-37039146D01*
X32029988Y-36964909D01*
X32029765Y-36926706D01*
X32029543Y-36706783D01*
X31983834Y-36690849D01*
X31951482Y-36680015D01*
X31933885Y-36674962D01*
X31933377Y-36674914D01*
X31931612Y-36688648D01*
X31929671Y-36726730D01*
X31927718Y-36784482D01*
X31925916Y-36857227D01*
X31924657Y-36925286D01*
X31920686Y-37175657D01*
X31833600Y-37175657D01*
X31829604Y-36947240D01*
X31825608Y-36718822D01*
X31783153Y-36696868D01*
X31751808Y-36681793D01*
X31733256Y-36674951D01*
X31732721Y-36674914D01*
X31730167Y-36688663D01*
X31730167Y-36688663D01*
G37*
X31730167Y-36688663D02*
X31727952Y-36726850D01*
X31726216Y-36784886D01*
X31725101Y-36858180D01*
X31724743Y-36935055D01*
X31724743Y-37195196D01*
X31770674Y-37241127D01*
X31802325Y-37269429D01*
X31830110Y-37280893D01*
X31868085Y-37280168D01*
X31883160Y-37278321D01*
X31930274Y-37272948D01*
X31969244Y-37269869D01*
X31978743Y-37269585D01*
X32010767Y-37271445D01*
X32056568Y-37276114D01*
X32074326Y-37278321D01*
X32117943Y-37281735D01*
X32147255Y-37274320D01*
X32176320Y-37251427D01*
X32186812Y-37241127D01*
X32232743Y-37195196D01*
X32232743Y-36708602D01*
X32195774Y-36691758D01*
X32163941Y-36679282D01*
X32145317Y-36674914D01*
X32140542Y-36688718D01*
X32136079Y-36727286D01*
X32132225Y-36786356D01*
X32129278Y-36861663D01*
X32127857Y-36925286D01*
X32123886Y-37175657D01*
X32089241Y-37180556D01*
X32057732Y-37177131D01*
X32042292Y-37166041D01*
X32037977Y-37145308D01*
X32034292Y-37101145D01*
X32031531Y-37039146D01*
X32029988Y-36964909D01*
X32029765Y-36926706D01*
X32029543Y-36706783D01*
X31983834Y-36690849D01*
X31951482Y-36680015D01*
X31933885Y-36674962D01*
X31933377Y-36674914D01*
X31931612Y-36688648D01*
X31929671Y-36726730D01*
X31927718Y-36784482D01*
X31925916Y-36857227D01*
X31924657Y-36925286D01*
X31920686Y-37175657D01*
X31833600Y-37175657D01*
X31829604Y-36947240D01*
X31825608Y-36718822D01*
X31783153Y-36696868D01*
X31751808Y-36681793D01*
X31733256Y-36674951D01*
X31732721Y-36674914D01*
X31730167Y-36688663D01*
G36*
X31365124Y-36686335D02*
X31323333Y-36705344D01*
X31290531Y-36728378D01*
X31266497Y-36754133D01*
X31249903Y-36787358D01*
X31239423Y-36832800D01*
X31233729Y-36895207D01*
X31231493Y-36979327D01*
X31231257Y-37034721D01*
X31231257Y-37250826D01*
X31268226Y-37267670D01*
X31297344Y-37279981D01*
X31311769Y-37284514D01*
X31314528Y-37271025D01*
X31316718Y-37234653D01*
X31318058Y-37181542D01*
X31318343Y-37139372D01*
X31319566Y-37078447D01*
X31322864Y-37030115D01*
X31327679Y-37000518D01*
X31331504Y-36994229D01*
X31357217Y-37000652D01*
X31397582Y-37017125D01*
X31444321Y-37039458D01*
X31489155Y-37063457D01*
X31523807Y-37084930D01*
X31539998Y-37099685D01*
X31540062Y-37099845D01*
X31538670Y-37127152D01*
X31526182Y-37153219D01*
X31504257Y-37174392D01*
X31472257Y-37181474D01*
X31444908Y-37180649D01*
X31406174Y-37180042D01*
X31385842Y-37189116D01*
X31373631Y-37213092D01*
X31372091Y-37217613D01*
X31366797Y-37251806D01*
X31380953Y-37272568D01*
X31417852Y-37282462D01*
X31457711Y-37284292D01*
X31529438Y-37270727D01*
X31566568Y-37251355D01*
X31612424Y-37205845D01*
X31636744Y-37149983D01*
X31638927Y-37090957D01*
X31618371Y-37035953D01*
X31587451Y-37001486D01*
X31556580Y-36982189D01*
X31508058Y-36957759D01*
X31451515Y-36932985D01*
X31442090Y-36929199D01*
X31379981Y-36901791D01*
X31344178Y-36877634D01*
X31332663Y-36853619D01*
X31343420Y-36826635D01*
X31361886Y-36805543D01*
X31405531Y-36779572D01*
X31453554Y-36777624D01*
X31497594Y-36797637D01*
X31529291Y-36837551D01*
X31533451Y-36847848D01*
X31557673Y-36885724D01*
X31593035Y-36913842D01*
X31637657Y-36936917D01*
X31637657Y-36871485D01*
X31635031Y-36831506D01*
X31623770Y-36799997D01*
X31598801Y-36766378D01*
X31574831Y-36740484D01*
X31537559Y-36703817D01*
X31508599Y-36684121D01*
X31477495Y-36676220D01*
X31442287Y-36674914D01*
X31365124Y-36686335D01*
X31365124Y-36686335D01*
G37*
X31365124Y-36686335D02*
X31323333Y-36705344D01*
X31290531Y-36728378D01*
X31266497Y-36754133D01*
X31249903Y-36787358D01*
X31239423Y-36832800D01*
X31233729Y-36895207D01*
X31231493Y-36979327D01*
X31231257Y-37034721D01*
X31231257Y-37250826D01*
X31268226Y-37267670D01*
X31297344Y-37279981D01*
X31311769Y-37284514D01*
X31314528Y-37271025D01*
X31316718Y-37234653D01*
X31318058Y-37181542D01*
X31318343Y-37139372D01*
X31319566Y-37078447D01*
X31322864Y-37030115D01*
X31327679Y-37000518D01*
X31331504Y-36994229D01*
X31357217Y-37000652D01*
X31397582Y-37017125D01*
X31444321Y-37039458D01*
X31489155Y-37063457D01*
X31523807Y-37084930D01*
X31539998Y-37099685D01*
X31540062Y-37099845D01*
X31538670Y-37127152D01*
X31526182Y-37153219D01*
X31504257Y-37174392D01*
X31472257Y-37181474D01*
X31444908Y-37180649D01*
X31406174Y-37180042D01*
X31385842Y-37189116D01*
X31373631Y-37213092D01*
X31372091Y-37217613D01*
X31366797Y-37251806D01*
X31380953Y-37272568D01*
X31417852Y-37282462D01*
X31457711Y-37284292D01*
X31529438Y-37270727D01*
X31566568Y-37251355D01*
X31612424Y-37205845D01*
X31636744Y-37149983D01*
X31638927Y-37090957D01*
X31618371Y-37035953D01*
X31587451Y-37001486D01*
X31556580Y-36982189D01*
X31508058Y-36957759D01*
X31451515Y-36932985D01*
X31442090Y-36929199D01*
X31379981Y-36901791D01*
X31344178Y-36877634D01*
X31332663Y-36853619D01*
X31343420Y-36826635D01*
X31361886Y-36805543D01*
X31405531Y-36779572D01*
X31453554Y-36777624D01*
X31497594Y-36797637D01*
X31529291Y-36837551D01*
X31533451Y-36847848D01*
X31557673Y-36885724D01*
X31593035Y-36913842D01*
X31637657Y-36936917D01*
X31637657Y-36871485D01*
X31635031Y-36831506D01*
X31623770Y-36799997D01*
X31598801Y-36766378D01*
X31574831Y-36740484D01*
X31537559Y-36703817D01*
X31508599Y-36684121D01*
X31477495Y-36676220D01*
X31442287Y-36674914D01*
X31365124Y-36686335D01*
G36*
X30857400Y-36688752D02*
X30840052Y-36696334D01*
X30798644Y-36729128D01*
X30763235Y-36776547D01*
X30741336Y-36827151D01*
X30737771Y-36852098D01*
X30749721Y-36886927D01*
X30775933Y-36905357D01*
X30804036Y-36916516D01*
X30816905Y-36918572D01*
X30823171Y-36903649D01*
X30835544Y-36871175D01*
X30840972Y-36856502D01*
X30871410Y-36805744D01*
X30915480Y-36780427D01*
X30971990Y-36781206D01*
X30976175Y-36782203D01*
X31006345Y-36796507D01*
X31028524Y-36824393D01*
X31043673Y-36869287D01*
X31052750Y-36934615D01*
X31056714Y-37023804D01*
X31057086Y-37071261D01*
X31057270Y-37146071D01*
X31058478Y-37197069D01*
X31061691Y-37229471D01*
X31067891Y-37248495D01*
X31078060Y-37259356D01*
X31093181Y-37267272D01*
X31094054Y-37267670D01*
X31123172Y-37279981D01*
X31137597Y-37284514D01*
X31139814Y-37270809D01*
X31141711Y-37232925D01*
X31143153Y-37175715D01*
X31144002Y-37104027D01*
X31144171Y-37051565D01*
X31143308Y-36950047D01*
X31139930Y-36873032D01*
X31132858Y-36816023D01*
X31120912Y-36774526D01*
X31102910Y-36744043D01*
X31077673Y-36720080D01*
X31052753Y-36703355D01*
X30992829Y-36681097D01*
X30923089Y-36676076D01*
X30857400Y-36688752D01*
X30857400Y-36688752D01*
G37*
X30857400Y-36688752D02*
X30840052Y-36696334D01*
X30798644Y-36729128D01*
X30763235Y-36776547D01*
X30741336Y-36827151D01*
X30737771Y-36852098D01*
X30749721Y-36886927D01*
X30775933Y-36905357D01*
X30804036Y-36916516D01*
X30816905Y-36918572D01*
X30823171Y-36903649D01*
X30835544Y-36871175D01*
X30840972Y-36856502D01*
X30871410Y-36805744D01*
X30915480Y-36780427D01*
X30971990Y-36781206D01*
X30976175Y-36782203D01*
X31006345Y-36796507D01*
X31028524Y-36824393D01*
X31043673Y-36869287D01*
X31052750Y-36934615D01*
X31056714Y-37023804D01*
X31057086Y-37071261D01*
X31057270Y-37146071D01*
X31058478Y-37197069D01*
X31061691Y-37229471D01*
X31067891Y-37248495D01*
X31078060Y-37259356D01*
X31093181Y-37267272D01*
X31094054Y-37267670D01*
X31123172Y-37279981D01*
X31137597Y-37284514D01*
X31139814Y-37270809D01*
X31141711Y-37232925D01*
X31143153Y-37175715D01*
X31144002Y-37104027D01*
X31144171Y-37051565D01*
X31143308Y-36950047D01*
X31139930Y-36873032D01*
X31132858Y-36816023D01*
X31120912Y-36774526D01*
X31102910Y-36744043D01*
X31077673Y-36720080D01*
X31052753Y-36703355D01*
X30992829Y-36681097D01*
X30923089Y-36676076D01*
X30857400Y-36688752D01*
G36*
X30356405Y-36696966D02*
X30298979Y-36734497D01*
X30271281Y-36768096D01*
X30249338Y-36829064D01*
X30247595Y-36877308D01*
X30251543Y-36941816D01*
X30400314Y-37006934D01*
X30472651Y-37040202D01*
X30519916Y-37066964D01*
X30544493Y-37090144D01*
X30548763Y-37112667D01*
X30535111Y-37137455D01*
X30520057Y-37153886D01*
X30476254Y-37180235D01*
X30428611Y-37182081D01*
X30384855Y-37161546D01*
X30352711Y-37120752D01*
X30346962Y-37106347D01*
X30319424Y-37061356D01*
X30287742Y-37042182D01*
X30244286Y-37025779D01*
X30244286Y-37087966D01*
X30248128Y-37130283D01*
X30263177Y-37165969D01*
X30294720Y-37206943D01*
X30299408Y-37212267D01*
X30334494Y-37248720D01*
X30364653Y-37268283D01*
X30402385Y-37277283D01*
X30433665Y-37280230D01*
X30489615Y-37280965D01*
X30529445Y-37271660D01*
X30554292Y-37257846D01*
X30593344Y-37227467D01*
X30620375Y-37194613D01*
X30637483Y-37153294D01*
X30646762Y-37097521D01*
X30650307Y-37021305D01*
X30650590Y-36982622D01*
X30649628Y-36936247D01*
X30561993Y-36936247D01*
X30560977Y-36961126D01*
X30558444Y-36965200D01*
X30541726Y-36959665D01*
X30505751Y-36945017D01*
X30457669Y-36924190D01*
X30447614Y-36919714D01*
X30386848Y-36888814D01*
X30353368Y-36861657D01*
X30346010Y-36836220D01*
X30363609Y-36810481D01*
X30378144Y-36799109D01*
X30430590Y-36776364D01*
X30479678Y-36780122D01*
X30520773Y-36807884D01*
X30549242Y-36857152D01*
X30558369Y-36896257D01*
X30561993Y-36936247D01*
X30649628Y-36936247D01*
X30648715Y-36892249D01*
X30641804Y-36825384D01*
X30628116Y-36776695D01*
X30605904Y-36740849D01*
X30573426Y-36712513D01*
X30559267Y-36703355D01*
X30494947Y-36679507D01*
X30424527Y-36678006D01*
X30356405Y-36696966D01*
X30356405Y-36696966D01*
G37*
X30356405Y-36696966D02*
X30298979Y-36734497D01*
X30271281Y-36768096D01*
X30249338Y-36829064D01*
X30247595Y-36877308D01*
X30251543Y-36941816D01*
X30400314Y-37006934D01*
X30472651Y-37040202D01*
X30519916Y-37066964D01*
X30544493Y-37090144D01*
X30548763Y-37112667D01*
X30535111Y-37137455D01*
X30520057Y-37153886D01*
X30476254Y-37180235D01*
X30428611Y-37182081D01*
X30384855Y-37161546D01*
X30352711Y-37120752D01*
X30346962Y-37106347D01*
X30319424Y-37061356D01*
X30287742Y-37042182D01*
X30244286Y-37025779D01*
X30244286Y-37087966D01*
X30248128Y-37130283D01*
X30263177Y-37165969D01*
X30294720Y-37206943D01*
X30299408Y-37212267D01*
X30334494Y-37248720D01*
X30364653Y-37268283D01*
X30402385Y-37277283D01*
X30433665Y-37280230D01*
X30489615Y-37280965D01*
X30529445Y-37271660D01*
X30554292Y-37257846D01*
X30593344Y-37227467D01*
X30620375Y-37194613D01*
X30637483Y-37153294D01*
X30646762Y-37097521D01*
X30650307Y-37021305D01*
X30650590Y-36982622D01*
X30649628Y-36936247D01*
X30561993Y-36936247D01*
X30560977Y-36961126D01*
X30558444Y-36965200D01*
X30541726Y-36959665D01*
X30505751Y-36945017D01*
X30457669Y-36924190D01*
X30447614Y-36919714D01*
X30386848Y-36888814D01*
X30353368Y-36861657D01*
X30346010Y-36836220D01*
X30363609Y-36810481D01*
X30378144Y-36799109D01*
X30430590Y-36776364D01*
X30479678Y-36780122D01*
X30520773Y-36807884D01*
X30549242Y-36857152D01*
X30558369Y-36896257D01*
X30561993Y-36936247D01*
X30649628Y-36936247D01*
X30648715Y-36892249D01*
X30641804Y-36825384D01*
X30628116Y-36776695D01*
X30605904Y-36740849D01*
X30573426Y-36712513D01*
X30559267Y-36703355D01*
X30494947Y-36679507D01*
X30424527Y-36678006D01*
X30356405Y-36696966D01*
G36*
X33406090Y-31972348D02*
X33327546Y-31972778D01*
X33270702Y-31973942D01*
X33231895Y-31976207D01*
X33207462Y-31979940D01*
X33193738Y-31985506D01*
X33187060Y-31993273D01*
X33183764Y-32003605D01*
X33183444Y-32004943D01*
X33178438Y-32029079D01*
X33169171Y-32076701D01*
X33156608Y-32142741D01*
X33141713Y-32222128D01*
X33125449Y-32309796D01*
X33124881Y-32312875D01*
X33108590Y-32398789D01*
X33093348Y-32474696D01*
X33080139Y-32536045D01*
X33069946Y-32578282D01*
X33063752Y-32596855D01*
X33063457Y-32597184D01*
X33045212Y-32606253D01*
X33007595Y-32621367D01*
X32958729Y-32639262D01*
X32958457Y-32639358D01*
X32896907Y-32662493D01*
X32824343Y-32691965D01*
X32755943Y-32721597D01*
X32752706Y-32723062D01*
X32641298Y-32773626D01*
X32394601Y-32605160D01*
X32318923Y-32553803D01*
X32250369Y-32507889D01*
X32192912Y-32470030D01*
X32150524Y-32442837D01*
X32127175Y-32428921D01*
X32124958Y-32427889D01*
X32107990Y-32432484D01*
X32076299Y-32454655D01*
X32028648Y-32495447D01*
X31963802Y-32555905D01*
X31897603Y-32620227D01*
X31833786Y-32683612D01*
X31776671Y-32741451D01*
X31729695Y-32790175D01*
X31696297Y-32826210D01*
X31679915Y-32845984D01*
X31679306Y-32847002D01*
X31677495Y-32860572D01*
X31684317Y-32882733D01*
X31701460Y-32916478D01*
X31730607Y-32964800D01*
X31773445Y-33030692D01*
X31830552Y-33115517D01*
X31881234Y-33190177D01*
X31926539Y-33257140D01*
X31963850Y-33312516D01*
X31990548Y-33352420D01*
X32004015Y-33372962D01*
X32004863Y-33374356D01*
X32003219Y-33394038D01*
X31990755Y-33432293D01*
X31969952Y-33481889D01*
X31962538Y-33497728D01*
X31930186Y-33568290D01*
X31895672Y-33648353D01*
X31867635Y-33717629D01*
X31847432Y-33769045D01*
X31831385Y-33808119D01*
X31822112Y-33828541D01*
X31820959Y-33830114D01*
X31803904Y-33832721D01*
X31763702Y-33839863D01*
X31705698Y-33850523D01*
X31635237Y-33863685D01*
X31557665Y-33878333D01*
X31478328Y-33893449D01*
X31402569Y-33908018D01*
X31335736Y-33921022D01*
X31283172Y-33931445D01*
X31250224Y-33938270D01*
X31242143Y-33940199D01*
X31233795Y-33944962D01*
X31227494Y-33955718D01*
X31222955Y-33976098D01*
X31219896Y-34009734D01*
X31218033Y-34060255D01*
X31217082Y-34131292D01*
X31216760Y-34226476D01*
X31216743Y-34265492D01*
X31216743Y-34582799D01*
X31292943Y-34597839D01*
X31335337Y-34605995D01*
X31398600Y-34617899D01*
X31475038Y-34632116D01*
X31556957Y-34647210D01*
X31579600Y-34651355D01*
X31655194Y-34666053D01*
X31721047Y-34680505D01*
X31771634Y-34693375D01*
X31801426Y-34703322D01*
X31806388Y-34706287D01*
X31818574Y-34727283D01*
X31836047Y-34767967D01*
X31855423Y-34820322D01*
X31859266Y-34831600D01*
X31884661Y-34901523D01*
X31916183Y-34980418D01*
X31947031Y-35051266D01*
X31947183Y-35051595D01*
X31998553Y-35162733D01*
X31829601Y-35411253D01*
X31660648Y-35659772D01*
X31877571Y-35877058D01*
X31943181Y-35941726D01*
X32003021Y-35998733D01*
X32053733Y-36045033D01*
X32091954Y-36077584D01*
X32114325Y-36093343D01*
X32117534Y-36094343D01*
X32136374Y-36086469D01*
X32174820Y-36064578D01*
X32228670Y-36031267D01*
X32293724Y-35989131D01*
X32364060Y-35941943D01*
X32435445Y-35893810D01*
X32499092Y-35851928D01*
X32550959Y-35818871D01*
X32587005Y-35797218D01*
X32603133Y-35789543D01*
X32622811Y-35796037D01*
X32660125Y-35813150D01*
X32707379Y-35837326D01*
X32712388Y-35840013D01*
X32776023Y-35871927D01*
X32819659Y-35887579D01*
X32846798Y-35887745D01*
X32860943Y-35873204D01*
X32861025Y-35873000D01*
X32868095Y-35855779D01*
X32884958Y-35814899D01*
X32910305Y-35753525D01*
X32942829Y-35674819D01*
X32981222Y-35581947D01*
X33024178Y-35478072D01*
X33065778Y-35377502D01*
X33111496Y-35266516D01*
X33153474Y-35163703D01*
X33190452Y-35072215D01*
X33221173Y-34995201D01*
X33244378Y-34935815D01*
X33258810Y-34897209D01*
X33263257Y-34882800D01*
X33252104Y-34866272D01*
X33222931Y-34839930D01*
X33184029Y-34810887D01*
X33073243Y-34719039D01*
X32986649Y-34613759D01*
X32925284Y-34497266D01*
X32890185Y-34371776D01*
X32882392Y-34239507D01*
X32888057Y-34178457D01*
X32918922Y-34051795D01*
X32972080Y-33939941D01*
X33044233Y-33844001D01*
X33132083Y-33765076D01*
X33232335Y-33704270D01*
X33341690Y-33662687D01*
X33456853Y-33641428D01*
X33574525Y-33641599D01*
X33691410Y-33664301D01*
X33804211Y-33710638D01*
X33909631Y-33781713D01*
X33953632Y-33821911D01*
X34038021Y-33925129D01*
X34096778Y-34037925D01*
X34130296Y-34157010D01*
X34138965Y-34279095D01*
X34123177Y-34400893D01*
X34083322Y-34519116D01*
X34019793Y-34630475D01*
X33932979Y-34731684D01*
X33835971Y-34810887D01*
X33795563Y-34841162D01*
X33767018Y-34867219D01*
X33756743Y-34882825D01*
X33762123Y-34899843D01*
X33777425Y-34940500D01*
X33801388Y-35001642D01*
X33832756Y-35080119D01*
X33870268Y-35172780D01*
X33912667Y-35276472D01*
X33954337Y-35377526D01*
X34000310Y-35488607D01*
X34042893Y-35591541D01*
X34080779Y-35683165D01*
X34112660Y-35760316D01*
X34137229Y-35819831D01*
X34153180Y-35858544D01*
X34159090Y-35873000D01*
X34173052Y-35887685D01*
X34200060Y-35887642D01*
X34243587Y-35872099D01*
X34307110Y-35840284D01*
X34307612Y-35840013D01*
X34355440Y-35815323D01*
X34394103Y-35797338D01*
X34415905Y-35789614D01*
X34416867Y-35789543D01*
X34433279Y-35797378D01*
X34469513Y-35819165D01*
X34521526Y-35852328D01*
X34585275Y-35894291D01*
X34655940Y-35941943D01*
X34727884Y-35990191D01*
X34792726Y-36032151D01*
X34846265Y-36065227D01*
X34884303Y-36086821D01*
X34902467Y-36094343D01*
X34919192Y-36084457D01*
X34952820Y-36056826D01*
X34999990Y-36014495D01*
X35057342Y-35960505D01*
X35121516Y-35897899D01*
X35142503Y-35876983D01*
X35359501Y-35659623D01*
X35194332Y-35417220D01*
X35144136Y-35342781D01*
X35100081Y-35275972D01*
X35064638Y-35220665D01*
X35040281Y-35180729D01*
X35029478Y-35160036D01*
X35029162Y-35158563D01*
X35034857Y-35139058D01*
X35050174Y-35099822D01*
X35072463Y-35047430D01*
X35088107Y-35012355D01*
X35117359Y-34945201D01*
X35144906Y-34877358D01*
X35166263Y-34820034D01*
X35172065Y-34802572D01*
X35188548Y-34755938D01*
X35204660Y-34719905D01*
X35213510Y-34706287D01*
X35233040Y-34697952D01*
X35275666Y-34686137D01*
X35335855Y-34672181D01*
X35408078Y-34657422D01*
X35440400Y-34651355D01*
X35522478Y-34636273D01*
X35601205Y-34621669D01*
X35668891Y-34608980D01*
X35717840Y-34599642D01*
X35727057Y-34597839D01*
X35803257Y-34582799D01*
X35803257Y-34265492D01*
X35803086Y-34161154D01*
X35802384Y-34082213D01*
X35800866Y-34025038D01*
X35798251Y-33985999D01*
X35794254Y-33961465D01*
X35788591Y-33947805D01*
X35780980Y-33941389D01*
X35777857Y-33940199D01*
X35759022Y-33935980D01*
X35717412Y-33927562D01*
X35658370Y-33915961D01*
X35587243Y-33902195D01*
X35509375Y-33887280D01*
X35430113Y-33872232D01*
X35354802Y-33858069D01*
X35288787Y-33845806D01*
X35237413Y-33836461D01*
X35206025Y-33831050D01*
X35199041Y-33830114D01*
X35192715Y-33817596D01*
X35178710Y-33784246D01*
X35159645Y-33736377D01*
X35152366Y-33717629D01*
X35123004Y-33645195D01*
X35088429Y-33565170D01*
X35057463Y-33497728D01*
X35034677Y-33446159D01*
X35019518Y-33403785D01*
X35014458Y-33377834D01*
X35015264Y-33374356D01*
X35025959Y-33357936D01*
X35050380Y-33321417D01*
X35085905Y-33268687D01*
X35129913Y-33203635D01*
X35179783Y-33130151D01*
X35189644Y-33115645D01*
X35247508Y-33029704D01*
X35290044Y-32964261D01*
X35318946Y-32916304D01*
X35335910Y-32882820D01*
X35342633Y-32860795D01*
X35340810Y-32847217D01*
X35340764Y-32847131D01*
X35326414Y-32829297D01*
X35294677Y-32794817D01*
X35248990Y-32747268D01*
X35192796Y-32690222D01*
X35129532Y-32627255D01*
X35122398Y-32620227D01*
X35042670Y-32543020D01*
X34981143Y-32486330D01*
X34936579Y-32449110D01*
X34907743Y-32430315D01*
X34895042Y-32427889D01*
X34876506Y-32438471D01*
X34838039Y-32462916D01*
X34783614Y-32498612D01*
X34717202Y-32542947D01*
X34642775Y-32593311D01*
X34625399Y-32605160D01*
X34378703Y-32773626D01*
X34267294Y-32723062D01*
X34199543Y-32693595D01*
X34126817Y-32663959D01*
X34064297Y-32640330D01*
X34061543Y-32639358D01*
X34012640Y-32621457D01*
X33974943Y-32606320D01*
X33956575Y-32597210D01*
X33956544Y-32597184D01*
X33950715Y-32580717D01*
X33940808Y-32540219D01*
X33927805Y-32480242D01*
X33912691Y-32405340D01*
X33896448Y-32320064D01*
X33895119Y-32312875D01*
X33878825Y-32225014D01*
X33863867Y-32145260D01*
X33851209Y-32078681D01*
X33841814Y-32030347D01*
X33836646Y-32005325D01*
X33836556Y-32004943D01*
X33833411Y-31994299D01*
X33827296Y-31986262D01*
X33814547Y-31980467D01*
X33791500Y-31976547D01*
X33754491Y-31974135D01*
X33699856Y-31972865D01*
X33623933Y-31972371D01*
X33523056Y-31972286D01*
X33510000Y-31972286D01*
X33406090Y-31972348D01*
X33406090Y-31972348D01*
G37*
X33406090Y-31972348D02*
X33327546Y-31972778D01*
X33270702Y-31973942D01*
X33231895Y-31976207D01*
X33207462Y-31979940D01*
X33193738Y-31985506D01*
X33187060Y-31993273D01*
X33183764Y-32003605D01*
X33183444Y-32004943D01*
X33178438Y-32029079D01*
X33169171Y-32076701D01*
X33156608Y-32142741D01*
X33141713Y-32222128D01*
X33125449Y-32309796D01*
X33124881Y-32312875D01*
X33108590Y-32398789D01*
X33093348Y-32474696D01*
X33080139Y-32536045D01*
X33069946Y-32578282D01*
X33063752Y-32596855D01*
X33063457Y-32597184D01*
X33045212Y-32606253D01*
X33007595Y-32621367D01*
X32958729Y-32639262D01*
X32958457Y-32639358D01*
X32896907Y-32662493D01*
X32824343Y-32691965D01*
X32755943Y-32721597D01*
X32752706Y-32723062D01*
X32641298Y-32773626D01*
X32394601Y-32605160D01*
X32318923Y-32553803D01*
X32250369Y-32507889D01*
X32192912Y-32470030D01*
X32150524Y-32442837D01*
X32127175Y-32428921D01*
X32124958Y-32427889D01*
X32107990Y-32432484D01*
X32076299Y-32454655D01*
X32028648Y-32495447D01*
X31963802Y-32555905D01*
X31897603Y-32620227D01*
X31833786Y-32683612D01*
X31776671Y-32741451D01*
X31729695Y-32790175D01*
X31696297Y-32826210D01*
X31679915Y-32845984D01*
X31679306Y-32847002D01*
X31677495Y-32860572D01*
X31684317Y-32882733D01*
X31701460Y-32916478D01*
X31730607Y-32964800D01*
X31773445Y-33030692D01*
X31830552Y-33115517D01*
X31881234Y-33190177D01*
X31926539Y-33257140D01*
X31963850Y-33312516D01*
X31990548Y-33352420D01*
X32004015Y-33372962D01*
X32004863Y-33374356D01*
X32003219Y-33394038D01*
X31990755Y-33432293D01*
X31969952Y-33481889D01*
X31962538Y-33497728D01*
X31930186Y-33568290D01*
X31895672Y-33648353D01*
X31867635Y-33717629D01*
X31847432Y-33769045D01*
X31831385Y-33808119D01*
X31822112Y-33828541D01*
X31820959Y-33830114D01*
X31803904Y-33832721D01*
X31763702Y-33839863D01*
X31705698Y-33850523D01*
X31635237Y-33863685D01*
X31557665Y-33878333D01*
X31478328Y-33893449D01*
X31402569Y-33908018D01*
X31335736Y-33921022D01*
X31283172Y-33931445D01*
X31250224Y-33938270D01*
X31242143Y-33940199D01*
X31233795Y-33944962D01*
X31227494Y-33955718D01*
X31222955Y-33976098D01*
X31219896Y-34009734D01*
X31218033Y-34060255D01*
X31217082Y-34131292D01*
X31216760Y-34226476D01*
X31216743Y-34265492D01*
X31216743Y-34582799D01*
X31292943Y-34597839D01*
X31335337Y-34605995D01*
X31398600Y-34617899D01*
X31475038Y-34632116D01*
X31556957Y-34647210D01*
X31579600Y-34651355D01*
X31655194Y-34666053D01*
X31721047Y-34680505D01*
X31771634Y-34693375D01*
X31801426Y-34703322D01*
X31806388Y-34706287D01*
X31818574Y-34727283D01*
X31836047Y-34767967D01*
X31855423Y-34820322D01*
X31859266Y-34831600D01*
X31884661Y-34901523D01*
X31916183Y-34980418D01*
X31947031Y-35051266D01*
X31947183Y-35051595D01*
X31998553Y-35162733D01*
X31829601Y-35411253D01*
X31660648Y-35659772D01*
X31877571Y-35877058D01*
X31943181Y-35941726D01*
X32003021Y-35998733D01*
X32053733Y-36045033D01*
X32091954Y-36077584D01*
X32114325Y-36093343D01*
X32117534Y-36094343D01*
X32136374Y-36086469D01*
X32174820Y-36064578D01*
X32228670Y-36031267D01*
X32293724Y-35989131D01*
X32364060Y-35941943D01*
X32435445Y-35893810D01*
X32499092Y-35851928D01*
X32550959Y-35818871D01*
X32587005Y-35797218D01*
X32603133Y-35789543D01*
X32622811Y-35796037D01*
X32660125Y-35813150D01*
X32707379Y-35837326D01*
X32712388Y-35840013D01*
X32776023Y-35871927D01*
X32819659Y-35887579D01*
X32846798Y-35887745D01*
X32860943Y-35873204D01*
X32861025Y-35873000D01*
X32868095Y-35855779D01*
X32884958Y-35814899D01*
X32910305Y-35753525D01*
X32942829Y-35674819D01*
X32981222Y-35581947D01*
X33024178Y-35478072D01*
X33065778Y-35377502D01*
X33111496Y-35266516D01*
X33153474Y-35163703D01*
X33190452Y-35072215D01*
X33221173Y-34995201D01*
X33244378Y-34935815D01*
X33258810Y-34897209D01*
X33263257Y-34882800D01*
X33252104Y-34866272D01*
X33222931Y-34839930D01*
X33184029Y-34810887D01*
X33073243Y-34719039D01*
X32986649Y-34613759D01*
X32925284Y-34497266D01*
X32890185Y-34371776D01*
X32882392Y-34239507D01*
X32888057Y-34178457D01*
X32918922Y-34051795D01*
X32972080Y-33939941D01*
X33044233Y-33844001D01*
X33132083Y-33765076D01*
X33232335Y-33704270D01*
X33341690Y-33662687D01*
X33456853Y-33641428D01*
X33574525Y-33641599D01*
X33691410Y-33664301D01*
X33804211Y-33710638D01*
X33909631Y-33781713D01*
X33953632Y-33821911D01*
X34038021Y-33925129D01*
X34096778Y-34037925D01*
X34130296Y-34157010D01*
X34138965Y-34279095D01*
X34123177Y-34400893D01*
X34083322Y-34519116D01*
X34019793Y-34630475D01*
X33932979Y-34731684D01*
X33835971Y-34810887D01*
X33795563Y-34841162D01*
X33767018Y-34867219D01*
X33756743Y-34882825D01*
X33762123Y-34899843D01*
X33777425Y-34940500D01*
X33801388Y-35001642D01*
X33832756Y-35080119D01*
X33870268Y-35172780D01*
X33912667Y-35276472D01*
X33954337Y-35377526D01*
X34000310Y-35488607D01*
X34042893Y-35591541D01*
X34080779Y-35683165D01*
X34112660Y-35760316D01*
X34137229Y-35819831D01*
X34153180Y-35858544D01*
X34159090Y-35873000D01*
X34173052Y-35887685D01*
X34200060Y-35887642D01*
X34243587Y-35872099D01*
X34307110Y-35840284D01*
X34307612Y-35840013D01*
X34355440Y-35815323D01*
X34394103Y-35797338D01*
X34415905Y-35789614D01*
X34416867Y-35789543D01*
X34433279Y-35797378D01*
X34469513Y-35819165D01*
X34521526Y-35852328D01*
X34585275Y-35894291D01*
X34655940Y-35941943D01*
X34727884Y-35990191D01*
X34792726Y-36032151D01*
X34846265Y-36065227D01*
X34884303Y-36086821D01*
X34902467Y-36094343D01*
X34919192Y-36084457D01*
X34952820Y-36056826D01*
X34999990Y-36014495D01*
X35057342Y-35960505D01*
X35121516Y-35897899D01*
X35142503Y-35876983D01*
X35359501Y-35659623D01*
X35194332Y-35417220D01*
X35144136Y-35342781D01*
X35100081Y-35275972D01*
X35064638Y-35220665D01*
X35040281Y-35180729D01*
X35029478Y-35160036D01*
X35029162Y-35158563D01*
X35034857Y-35139058D01*
X35050174Y-35099822D01*
X35072463Y-35047430D01*
X35088107Y-35012355D01*
X35117359Y-34945201D01*
X35144906Y-34877358D01*
X35166263Y-34820034D01*
X35172065Y-34802572D01*
X35188548Y-34755938D01*
X35204660Y-34719905D01*
X35213510Y-34706287D01*
X35233040Y-34697952D01*
X35275666Y-34686137D01*
X35335855Y-34672181D01*
X35408078Y-34657422D01*
X35440400Y-34651355D01*
X35522478Y-34636273D01*
X35601205Y-34621669D01*
X35668891Y-34608980D01*
X35717840Y-34599642D01*
X35727057Y-34597839D01*
X35803257Y-34582799D01*
X35803257Y-34265492D01*
X35803086Y-34161154D01*
X35802384Y-34082213D01*
X35800866Y-34025038D01*
X35798251Y-33985999D01*
X35794254Y-33961465D01*
X35788591Y-33947805D01*
X35780980Y-33941389D01*
X35777857Y-33940199D01*
X35759022Y-33935980D01*
X35717412Y-33927562D01*
X35658370Y-33915961D01*
X35587243Y-33902195D01*
X35509375Y-33887280D01*
X35430113Y-33872232D01*
X35354802Y-33858069D01*
X35288787Y-33845806D01*
X35237413Y-33836461D01*
X35206025Y-33831050D01*
X35199041Y-33830114D01*
X35192715Y-33817596D01*
X35178710Y-33784246D01*
X35159645Y-33736377D01*
X35152366Y-33717629D01*
X35123004Y-33645195D01*
X35088429Y-33565170D01*
X35057463Y-33497728D01*
X35034677Y-33446159D01*
X35019518Y-33403785D01*
X35014458Y-33377834D01*
X35015264Y-33374356D01*
X35025959Y-33357936D01*
X35050380Y-33321417D01*
X35085905Y-33268687D01*
X35129913Y-33203635D01*
X35179783Y-33130151D01*
X35189644Y-33115645D01*
X35247508Y-33029704D01*
X35290044Y-32964261D01*
X35318946Y-32916304D01*
X35335910Y-32882820D01*
X35342633Y-32860795D01*
X35340810Y-32847217D01*
X35340764Y-32847131D01*
X35326414Y-32829297D01*
X35294677Y-32794817D01*
X35248990Y-32747268D01*
X35192796Y-32690222D01*
X35129532Y-32627255D01*
X35122398Y-32620227D01*
X35042670Y-32543020D01*
X34981143Y-32486330D01*
X34936579Y-32449110D01*
X34907743Y-32430315D01*
X34895042Y-32427889D01*
X34876506Y-32438471D01*
X34838039Y-32462916D01*
X34783614Y-32498612D01*
X34717202Y-32542947D01*
X34642775Y-32593311D01*
X34625399Y-32605160D01*
X34378703Y-32773626D01*
X34267294Y-32723062D01*
X34199543Y-32693595D01*
X34126817Y-32663959D01*
X34064297Y-32640330D01*
X34061543Y-32639358D01*
X34012640Y-32621457D01*
X33974943Y-32606320D01*
X33956575Y-32597210D01*
X33956544Y-32597184D01*
X33950715Y-32580717D01*
X33940808Y-32540219D01*
X33927805Y-32480242D01*
X33912691Y-32405340D01*
X33896448Y-32320064D01*
X33895119Y-32312875D01*
X33878825Y-32225014D01*
X33863867Y-32145260D01*
X33851209Y-32078681D01*
X33841814Y-32030347D01*
X33836646Y-32005325D01*
X33836556Y-32004943D01*
X33833411Y-31994299D01*
X33827296Y-31986262D01*
X33814547Y-31980467D01*
X33791500Y-31976547D01*
X33754491Y-31974135D01*
X33699856Y-31972865D01*
X33623933Y-31972371D01*
X33523056Y-31972286D01*
X33510000Y-31972286D01*
X33406090Y-31972348D01*
M02*
