G04 #@! TF.FileFunction,Legend,Bot*
%FSLAX46Y46*%
G04 Gerber Fmt 4.6, Leading zero omitted, Abs format (unit mm)*
G04 Created by KiCad (PCBNEW 4.0.2-stable) date Thursday, November 23, 2017 'PMt' 08:45:23 PM*
%MOMM*%
G01*
G04 APERTURE LIST*
%ADD10C,0.100000*%
%ADD11C,0.300000*%
%ADD12C,0.120000*%
%ADD13C,0.127000*%
%ADD14C,0.010000*%
%ADD15C,0.150000*%
G04 APERTURE END LIST*
D10*
D11*
X123535714Y-92678571D02*
X123535714Y-91178571D01*
X122678571Y-92678571D01*
X122678571Y-91178571D01*
X121964285Y-91892857D02*
X121464285Y-91892857D01*
X121249999Y-92678571D02*
X121964285Y-92678571D01*
X121964285Y-91178571D01*
X121249999Y-91178571D01*
X120321428Y-91178571D02*
X120035714Y-91178571D01*
X119892856Y-91250000D01*
X119749999Y-91392857D01*
X119678571Y-91678571D01*
X119678571Y-92178571D01*
X119749999Y-92464286D01*
X119892856Y-92607143D01*
X120035714Y-92678571D01*
X120321428Y-92678571D01*
X120464285Y-92607143D01*
X120607142Y-92464286D01*
X120678571Y-92178571D01*
X120678571Y-91678571D01*
X120607142Y-91392857D01*
X120464285Y-91250000D01*
X120321428Y-91178571D01*
X119035713Y-92678571D02*
X119035713Y-91178571D01*
X118535713Y-92250000D01*
X118035713Y-91178571D01*
X118035713Y-92678571D01*
X115892856Y-91178571D02*
X115749999Y-91178571D01*
X115607142Y-91250000D01*
X115535713Y-91321429D01*
X115464284Y-91464286D01*
X115392856Y-91750000D01*
X115392856Y-92107143D01*
X115464284Y-92392857D01*
X115535713Y-92535714D01*
X115607142Y-92607143D01*
X115749999Y-92678571D01*
X115892856Y-92678571D01*
X116035713Y-92607143D01*
X116107142Y-92535714D01*
X116178570Y-92392857D01*
X116249999Y-92107143D01*
X116249999Y-91750000D01*
X116178570Y-91464286D01*
X116107142Y-91321429D01*
X116035713Y-91250000D01*
X115892856Y-91178571D01*
D12*
X119150000Y-106450000D02*
X118150000Y-106450000D01*
X118150000Y-104750000D02*
X119150000Y-104750000D01*
X124610000Y-102560000D02*
X123610000Y-102560000D01*
X123610000Y-100860000D02*
X124610000Y-100860000D01*
D13*
X112290000Y-89820000D02*
X112071560Y-89840320D01*
X112071560Y-89840320D02*
X111855660Y-89898740D01*
X111855660Y-89898740D02*
X111655000Y-89990180D01*
X111655000Y-89990180D02*
X111474660Y-90117180D01*
X111474660Y-90117180D02*
X111317180Y-90274660D01*
X111317180Y-90274660D02*
X111190180Y-90455000D01*
X111190180Y-90455000D02*
X111098740Y-90655660D01*
X111098740Y-90655660D02*
X111040320Y-90871560D01*
X111040320Y-90871560D02*
X111020000Y-91090000D01*
X111020000Y-91090000D02*
X111040320Y-91308440D01*
X111040320Y-91308440D02*
X111098740Y-91524340D01*
X111098740Y-91524340D02*
X111190180Y-91725000D01*
X111190180Y-91725000D02*
X111317180Y-91905340D01*
X111317180Y-91905340D02*
X111474660Y-92062820D01*
X111474660Y-92062820D02*
X111655000Y-92189820D01*
X111655000Y-92189820D02*
X111855660Y-92281260D01*
X111855660Y-92281260D02*
X112071560Y-92339680D01*
X112071560Y-92339680D02*
X112290000Y-92360000D01*
X112290000Y-92360000D02*
X112508440Y-92339680D01*
X112508440Y-92339680D02*
X112724340Y-92281260D01*
X112724340Y-92281260D02*
X112925000Y-92189820D01*
X112925000Y-92189820D02*
X113105340Y-92062820D01*
X113105340Y-92062820D02*
X113262820Y-91905340D01*
X113262820Y-91905340D02*
X113389820Y-91725000D01*
X113389820Y-91725000D02*
X113481260Y-91524340D01*
X113481260Y-91524340D02*
X113539680Y-91308440D01*
X113539680Y-91308440D02*
X113560000Y-91090000D01*
X113560000Y-91090000D02*
X113539680Y-90871560D01*
X113539680Y-90871560D02*
X113481260Y-90655660D01*
X113481260Y-90655660D02*
X113389820Y-90455000D01*
X113389820Y-90455000D02*
X113262820Y-90274660D01*
X113262820Y-90274660D02*
X113105340Y-90117180D01*
X113105340Y-90117180D02*
X112925000Y-89990180D01*
X112925000Y-89990180D02*
X112724340Y-89898740D01*
X112724340Y-89898740D02*
X112508440Y-89840320D01*
X112508440Y-89840320D02*
X112290000Y-89820000D01*
X112290000Y-89820000D02*
X112071560Y-89840320D01*
X112071560Y-89840320D02*
X111855660Y-89898740D01*
X111855660Y-89898740D02*
X111655000Y-89990180D01*
X111655000Y-89990180D02*
X111474660Y-90117180D01*
X111474660Y-90117180D02*
X111317180Y-90274660D01*
X111317180Y-90274660D02*
X111190180Y-90455000D01*
X111190180Y-90455000D02*
X111098740Y-90655660D01*
X111098740Y-90655660D02*
X111040320Y-90871560D01*
X111040320Y-90871560D02*
X111020000Y-91090000D01*
X111020000Y-91090000D02*
X111040320Y-91308440D01*
X111040320Y-91308440D02*
X111098740Y-91524340D01*
X111098740Y-91524340D02*
X111190180Y-91725000D01*
X111190180Y-91725000D02*
X111317180Y-91905340D01*
X111317180Y-91905340D02*
X111474660Y-92062820D01*
X111474660Y-92062820D02*
X111655000Y-92189820D01*
X111655000Y-92189820D02*
X111855660Y-92281260D01*
X111855660Y-92281260D02*
X112071560Y-92339680D01*
X112071560Y-92339680D02*
X112290000Y-92360000D01*
X112290000Y-92360000D02*
X112508440Y-92339680D01*
X112508440Y-92339680D02*
X112724340Y-92281260D01*
X112724340Y-92281260D02*
X112925000Y-92189820D01*
X112925000Y-92189820D02*
X113105340Y-92062820D01*
X113105340Y-92062820D02*
X113262820Y-91905340D01*
X113262820Y-91905340D02*
X113389820Y-91725000D01*
X113389820Y-91725000D02*
X113481260Y-91524340D01*
X113481260Y-91524340D02*
X113539680Y-91308440D01*
X113539680Y-91308440D02*
X113560000Y-91090000D01*
X113560000Y-91090000D02*
X113539680Y-90871560D01*
X113539680Y-90871560D02*
X113481260Y-90655660D01*
X113481260Y-90655660D02*
X113389820Y-90455000D01*
X113389820Y-90455000D02*
X113262820Y-90274660D01*
X113262820Y-90274660D02*
X113105340Y-90117180D01*
X113105340Y-90117180D02*
X112925000Y-89990180D01*
X112925000Y-89990180D02*
X112724340Y-89898740D01*
X112724340Y-89898740D02*
X112508440Y-89840320D01*
X112508440Y-89840320D02*
X112290000Y-89820000D01*
X112290000Y-89820000D02*
X112071560Y-89840320D01*
X112071560Y-89840320D02*
X111855660Y-89898740D01*
X111855660Y-89898740D02*
X111655000Y-89990180D01*
X111655000Y-89990180D02*
X111474660Y-90117180D01*
X111474660Y-90117180D02*
X111317180Y-90274660D01*
X111317180Y-90274660D02*
X111190180Y-90455000D01*
X111190180Y-90455000D02*
X111098740Y-90655660D01*
X111098740Y-90655660D02*
X111040320Y-90871560D01*
X111040320Y-90871560D02*
X111020000Y-91090000D01*
X111020000Y-91090000D02*
X111040320Y-91308440D01*
X111040320Y-91308440D02*
X111098740Y-91524340D01*
X111098740Y-91524340D02*
X111190180Y-91725000D01*
X111190180Y-91725000D02*
X111317180Y-91905340D01*
X111317180Y-91905340D02*
X111474660Y-92062820D01*
X111474660Y-92062820D02*
X111655000Y-92189820D01*
X111655000Y-92189820D02*
X111855660Y-92281260D01*
X111855660Y-92281260D02*
X112071560Y-92339680D01*
X112071560Y-92339680D02*
X112290000Y-92360000D01*
X112290000Y-92360000D02*
X112508440Y-92339680D01*
X112508440Y-92339680D02*
X112724340Y-92281260D01*
X112724340Y-92281260D02*
X112925000Y-92189820D01*
X112925000Y-92189820D02*
X113105340Y-92062820D01*
X113105340Y-92062820D02*
X113262820Y-91905340D01*
X113262820Y-91905340D02*
X113389820Y-91725000D01*
X113389820Y-91725000D02*
X113481260Y-91524340D01*
X113481260Y-91524340D02*
X113539680Y-91308440D01*
X113539680Y-91308440D02*
X113560000Y-91090000D01*
X113560000Y-91090000D02*
X113539680Y-90871560D01*
X113539680Y-90871560D02*
X113481260Y-90655660D01*
X113481260Y-90655660D02*
X113389820Y-90455000D01*
X113389820Y-90455000D02*
X113262820Y-90274660D01*
X113262820Y-90274660D02*
X113105340Y-90117180D01*
X113105340Y-90117180D02*
X112925000Y-89990180D01*
X112925000Y-89990180D02*
X112724340Y-89898740D01*
X112724340Y-89898740D02*
X112508440Y-89840320D01*
X112508440Y-89840320D02*
X112290000Y-89820000D01*
X112290000Y-89820000D02*
X112071560Y-89840320D01*
X112071560Y-89840320D02*
X111855660Y-89898740D01*
X111855660Y-89898740D02*
X111655000Y-89990180D01*
X111655000Y-89990180D02*
X111474660Y-90117180D01*
X111474660Y-90117180D02*
X111317180Y-90274660D01*
X111317180Y-90274660D02*
X111190180Y-90455000D01*
X111190180Y-90455000D02*
X111098740Y-90655660D01*
X111098740Y-90655660D02*
X111040320Y-90871560D01*
X111040320Y-90871560D02*
X111020000Y-91090000D01*
X111020000Y-91090000D02*
X111040320Y-91308440D01*
X111040320Y-91308440D02*
X111098740Y-91524340D01*
X111098740Y-91524340D02*
X111190180Y-91725000D01*
X111190180Y-91725000D02*
X111317180Y-91905340D01*
X111317180Y-91905340D02*
X111474660Y-92062820D01*
X111474660Y-92062820D02*
X111655000Y-92189820D01*
X111655000Y-92189820D02*
X111855660Y-92281260D01*
X111855660Y-92281260D02*
X112071560Y-92339680D01*
X112071560Y-92339680D02*
X112290000Y-92360000D01*
X112290000Y-92360000D02*
X112508440Y-92339680D01*
X112508440Y-92339680D02*
X112724340Y-92281260D01*
X112724340Y-92281260D02*
X112925000Y-92189820D01*
X112925000Y-92189820D02*
X113105340Y-92062820D01*
X113105340Y-92062820D02*
X113262820Y-91905340D01*
X113262820Y-91905340D02*
X113389820Y-91725000D01*
X113389820Y-91725000D02*
X113481260Y-91524340D01*
X113481260Y-91524340D02*
X113539680Y-91308440D01*
X113539680Y-91308440D02*
X113560000Y-91090000D01*
X113560000Y-91090000D02*
X113539680Y-90871560D01*
X113539680Y-90871560D02*
X113481260Y-90655660D01*
X113481260Y-90655660D02*
X113389820Y-90455000D01*
X113389820Y-90455000D02*
X113262820Y-90274660D01*
X113262820Y-90274660D02*
X113105340Y-90117180D01*
X113105340Y-90117180D02*
X112925000Y-89990180D01*
X112925000Y-89990180D02*
X112724340Y-89898740D01*
X112724340Y-89898740D02*
X112508440Y-89840320D01*
X112508440Y-89840320D02*
X112290000Y-89820000D01*
D12*
X116220000Y-107720000D02*
X116220000Y-106520000D01*
X114460000Y-106520000D02*
X114460000Y-107720000D01*
D10*
X134800000Y-89740000D02*
X134510000Y-89750000D01*
X134860000Y-100190000D02*
X134790000Y-89750000D01*
X125530000Y-100190000D02*
X134860000Y-100190000D01*
X125380000Y-89830000D02*
X125530000Y-100110000D01*
X134570000Y-89760000D02*
X125420000Y-89760000D01*
D14*
G36*
X114660063Y-96017761D02*
X114606622Y-96023351D01*
X114583921Y-96032138D01*
X114584240Y-96035440D01*
X114611371Y-96049401D01*
X114660202Y-96055727D01*
X114664058Y-96055760D01*
X114739794Y-96061068D01*
X114842907Y-96075527D01*
X114961752Y-96096934D01*
X115084684Y-96123086D01*
X115200058Y-96151783D01*
X115254800Y-96167465D01*
X115399366Y-96218314D01*
X115549452Y-96283234D01*
X115696459Y-96357493D01*
X115831790Y-96436360D01*
X115946848Y-96515101D01*
X116033035Y-96588984D01*
X116046435Y-96603189D01*
X116086230Y-96647438D01*
X115914355Y-96807821D01*
X115845613Y-96871133D01*
X115787777Y-96922834D01*
X115747189Y-96957361D01*
X115730457Y-96969182D01*
X115717786Y-96952357D01*
X115700483Y-96909028D01*
X115694301Y-96889615D01*
X115653540Y-96807988D01*
X115590705Y-96760198D01*
X115517589Y-96746640D01*
X115451714Y-96761726D01*
X115407284Y-96800285D01*
X115389018Y-96852271D01*
X115401640Y-96907636D01*
X115427065Y-96939267D01*
X115469584Y-96963625D01*
X115528379Y-96966935D01*
X115550297Y-96964494D01*
X115614744Y-96964484D01*
X115646017Y-96984182D01*
X115642051Y-97020849D01*
X115617993Y-97054277D01*
X115552008Y-97111549D01*
X115490905Y-97134507D01*
X115439503Y-97121367D01*
X115438503Y-97120648D01*
X115375314Y-97094936D01*
X115315032Y-97103652D01*
X115268208Y-97141485D01*
X115245394Y-97203127D01*
X115244640Y-97218191D01*
X115260886Y-97276916D01*
X115305554Y-97313936D01*
X115372542Y-97328987D01*
X115455746Y-97321802D01*
X115549064Y-97292116D01*
X115646393Y-97239664D01*
X115652028Y-97235921D01*
X115740610Y-97176428D01*
X115805843Y-97233703D01*
X115893278Y-97294393D01*
X115978174Y-97323400D01*
X116053564Y-97318662D01*
X116070229Y-97311905D01*
X116131915Y-97267761D01*
X116155788Y-97212508D01*
X116151312Y-97165654D01*
X116121503Y-97113343D01*
X116071770Y-97082987D01*
X116014296Y-97075759D01*
X115961266Y-97092833D01*
X115924863Y-97135382D01*
X115921753Y-97143541D01*
X115906063Y-97178622D01*
X115885640Y-97179711D01*
X115865077Y-97166207D01*
X115842420Y-97146769D01*
X115839509Y-97127019D01*
X115858361Y-97094920D01*
X115882421Y-97062809D01*
X115925902Y-97013731D01*
X115989137Y-96951799D01*
X116059740Y-96889031D01*
X116072393Y-96878474D01*
X116143155Y-96822787D01*
X116191525Y-96792146D01*
X116224002Y-96783013D01*
X116240121Y-96787173D01*
X116279467Y-96814776D01*
X116333357Y-96861032D01*
X116394896Y-96918916D01*
X116457191Y-96981405D01*
X116513346Y-97041476D01*
X116556467Y-97092104D01*
X116579660Y-97126266D01*
X116581602Y-97135063D01*
X116555925Y-97165263D01*
X116520412Y-97167611D01*
X116493203Y-97142264D01*
X116490452Y-97134265D01*
X116461549Y-97095367D01*
X116408935Y-97075580D01*
X116347144Y-97080272D01*
X116345572Y-97080760D01*
X116303352Y-97112738D01*
X116276039Y-97166710D01*
X116270655Y-97224801D01*
X116278830Y-97250659D01*
X116325751Y-97299777D01*
X116392972Y-97321041D01*
X116471655Y-97314928D01*
X116552963Y-97281915D01*
X116618299Y-97232325D01*
X116683952Y-97168691D01*
X116752790Y-97221197D01*
X116853078Y-97283787D01*
X116954658Y-97322621D01*
X117048741Y-97335588D01*
X117126537Y-97320581D01*
X117139480Y-97313972D01*
X117165772Y-97278083D01*
X117174753Y-97222447D01*
X117166096Y-97164242D01*
X117143109Y-97124011D01*
X117088749Y-97095729D01*
X117024091Y-97099254D01*
X116981178Y-97120648D01*
X116944762Y-97138486D01*
X116905793Y-97129998D01*
X116890887Y-97122728D01*
X116829162Y-97080945D01*
X116789145Y-97034211D01*
X116778127Y-96991624D01*
X116780039Y-96984420D01*
X116796304Y-96965288D01*
X116831861Y-96959320D01*
X116891478Y-96963896D01*
X116951859Y-96969094D01*
X116985324Y-96963275D01*
X117005044Y-96942116D01*
X117014249Y-96923592D01*
X117030728Y-96850718D01*
X117014093Y-96791510D01*
X116971233Y-96752456D01*
X116909036Y-96740047D01*
X116839029Y-96758508D01*
X116782739Y-96798984D01*
X116742922Y-96864394D01*
X116736111Y-96881259D01*
X116713250Y-96932775D01*
X116693772Y-96962546D01*
X116686940Y-96965765D01*
X116658561Y-96946332D01*
X116612651Y-96906286D01*
X116556060Y-96852609D01*
X116495640Y-96792282D01*
X116438239Y-96732285D01*
X116390708Y-96679601D01*
X116359897Y-96641211D01*
X116352165Y-96624583D01*
X116385309Y-96589230D01*
X116446510Y-96540073D01*
X116527927Y-96482360D01*
X116621719Y-96421340D01*
X116720045Y-96362259D01*
X116815064Y-96310367D01*
X116841215Y-96297249D01*
X117017038Y-96222431D01*
X117215653Y-96156688D01*
X117420693Y-96104563D01*
X117615793Y-96070599D01*
X117683466Y-96063438D01*
X117758804Y-96054831D01*
X117815516Y-96043928D01*
X117843994Y-96032723D01*
X117845600Y-96029757D01*
X117825728Y-96021874D01*
X117767577Y-96017665D01*
X117673349Y-96017196D01*
X117545880Y-96020513D01*
X117301697Y-96037954D01*
X117084568Y-96073497D01*
X116883668Y-96130527D01*
X116688172Y-96212428D01*
X116487252Y-96322585D01*
X116395451Y-96380157D01*
X116202760Y-96504983D01*
X116074220Y-96410242D01*
X115848503Y-96267712D01*
X115599151Y-96153643D01*
X115334660Y-96071611D01*
X115206419Y-96044945D01*
X115125974Y-96033758D01*
X115031287Y-96025080D01*
X114929856Y-96019028D01*
X114829177Y-96015714D01*
X114736747Y-96015253D01*
X114660063Y-96017761D01*
X114660063Y-96017761D01*
G37*
X114660063Y-96017761D02*
X114606622Y-96023351D01*
X114583921Y-96032138D01*
X114584240Y-96035440D01*
X114611371Y-96049401D01*
X114660202Y-96055727D01*
X114664058Y-96055760D01*
X114739794Y-96061068D01*
X114842907Y-96075527D01*
X114961752Y-96096934D01*
X115084684Y-96123086D01*
X115200058Y-96151783D01*
X115254800Y-96167465D01*
X115399366Y-96218314D01*
X115549452Y-96283234D01*
X115696459Y-96357493D01*
X115831790Y-96436360D01*
X115946848Y-96515101D01*
X116033035Y-96588984D01*
X116046435Y-96603189D01*
X116086230Y-96647438D01*
X115914355Y-96807821D01*
X115845613Y-96871133D01*
X115787777Y-96922834D01*
X115747189Y-96957361D01*
X115730457Y-96969182D01*
X115717786Y-96952357D01*
X115700483Y-96909028D01*
X115694301Y-96889615D01*
X115653540Y-96807988D01*
X115590705Y-96760198D01*
X115517589Y-96746640D01*
X115451714Y-96761726D01*
X115407284Y-96800285D01*
X115389018Y-96852271D01*
X115401640Y-96907636D01*
X115427065Y-96939267D01*
X115469584Y-96963625D01*
X115528379Y-96966935D01*
X115550297Y-96964494D01*
X115614744Y-96964484D01*
X115646017Y-96984182D01*
X115642051Y-97020849D01*
X115617993Y-97054277D01*
X115552008Y-97111549D01*
X115490905Y-97134507D01*
X115439503Y-97121367D01*
X115438503Y-97120648D01*
X115375314Y-97094936D01*
X115315032Y-97103652D01*
X115268208Y-97141485D01*
X115245394Y-97203127D01*
X115244640Y-97218191D01*
X115260886Y-97276916D01*
X115305554Y-97313936D01*
X115372542Y-97328987D01*
X115455746Y-97321802D01*
X115549064Y-97292116D01*
X115646393Y-97239664D01*
X115652028Y-97235921D01*
X115740610Y-97176428D01*
X115805843Y-97233703D01*
X115893278Y-97294393D01*
X115978174Y-97323400D01*
X116053564Y-97318662D01*
X116070229Y-97311905D01*
X116131915Y-97267761D01*
X116155788Y-97212508D01*
X116151312Y-97165654D01*
X116121503Y-97113343D01*
X116071770Y-97082987D01*
X116014296Y-97075759D01*
X115961266Y-97092833D01*
X115924863Y-97135382D01*
X115921753Y-97143541D01*
X115906063Y-97178622D01*
X115885640Y-97179711D01*
X115865077Y-97166207D01*
X115842420Y-97146769D01*
X115839509Y-97127019D01*
X115858361Y-97094920D01*
X115882421Y-97062809D01*
X115925902Y-97013731D01*
X115989137Y-96951799D01*
X116059740Y-96889031D01*
X116072393Y-96878474D01*
X116143155Y-96822787D01*
X116191525Y-96792146D01*
X116224002Y-96783013D01*
X116240121Y-96787173D01*
X116279467Y-96814776D01*
X116333357Y-96861032D01*
X116394896Y-96918916D01*
X116457191Y-96981405D01*
X116513346Y-97041476D01*
X116556467Y-97092104D01*
X116579660Y-97126266D01*
X116581602Y-97135063D01*
X116555925Y-97165263D01*
X116520412Y-97167611D01*
X116493203Y-97142264D01*
X116490452Y-97134265D01*
X116461549Y-97095367D01*
X116408935Y-97075580D01*
X116347144Y-97080272D01*
X116345572Y-97080760D01*
X116303352Y-97112738D01*
X116276039Y-97166710D01*
X116270655Y-97224801D01*
X116278830Y-97250659D01*
X116325751Y-97299777D01*
X116392972Y-97321041D01*
X116471655Y-97314928D01*
X116552963Y-97281915D01*
X116618299Y-97232325D01*
X116683952Y-97168691D01*
X116752790Y-97221197D01*
X116853078Y-97283787D01*
X116954658Y-97322621D01*
X117048741Y-97335588D01*
X117126537Y-97320581D01*
X117139480Y-97313972D01*
X117165772Y-97278083D01*
X117174753Y-97222447D01*
X117166096Y-97164242D01*
X117143109Y-97124011D01*
X117088749Y-97095729D01*
X117024091Y-97099254D01*
X116981178Y-97120648D01*
X116944762Y-97138486D01*
X116905793Y-97129998D01*
X116890887Y-97122728D01*
X116829162Y-97080945D01*
X116789145Y-97034211D01*
X116778127Y-96991624D01*
X116780039Y-96984420D01*
X116796304Y-96965288D01*
X116831861Y-96959320D01*
X116891478Y-96963896D01*
X116951859Y-96969094D01*
X116985324Y-96963275D01*
X117005044Y-96942116D01*
X117014249Y-96923592D01*
X117030728Y-96850718D01*
X117014093Y-96791510D01*
X116971233Y-96752456D01*
X116909036Y-96740047D01*
X116839029Y-96758508D01*
X116782739Y-96798984D01*
X116742922Y-96864394D01*
X116736111Y-96881259D01*
X116713250Y-96932775D01*
X116693772Y-96962546D01*
X116686940Y-96965765D01*
X116658561Y-96946332D01*
X116612651Y-96906286D01*
X116556060Y-96852609D01*
X116495640Y-96792282D01*
X116438239Y-96732285D01*
X116390708Y-96679601D01*
X116359897Y-96641211D01*
X116352165Y-96624583D01*
X116385309Y-96589230D01*
X116446510Y-96540073D01*
X116527927Y-96482360D01*
X116621719Y-96421340D01*
X116720045Y-96362259D01*
X116815064Y-96310367D01*
X116841215Y-96297249D01*
X117017038Y-96222431D01*
X117215653Y-96156688D01*
X117420693Y-96104563D01*
X117615793Y-96070599D01*
X117683466Y-96063438D01*
X117758804Y-96054831D01*
X117815516Y-96043928D01*
X117843994Y-96032723D01*
X117845600Y-96029757D01*
X117825728Y-96021874D01*
X117767577Y-96017665D01*
X117673349Y-96017196D01*
X117545880Y-96020513D01*
X117301697Y-96037954D01*
X117084568Y-96073497D01*
X116883668Y-96130527D01*
X116688172Y-96212428D01*
X116487252Y-96322585D01*
X116395451Y-96380157D01*
X116202760Y-96504983D01*
X116074220Y-96410242D01*
X115848503Y-96267712D01*
X115599151Y-96153643D01*
X115334660Y-96071611D01*
X115206419Y-96044945D01*
X115125974Y-96033758D01*
X115031287Y-96025080D01*
X114929856Y-96019028D01*
X114829177Y-96015714D01*
X114736747Y-96015253D01*
X114660063Y-96017761D01*
G36*
X116195710Y-94141803D02*
X116188883Y-94155839D01*
X116173803Y-94204139D01*
X116169918Y-94216593D01*
X116157663Y-94231305D01*
X116133040Y-94217997D01*
X116109881Y-94196273D01*
X116053388Y-94161598D01*
X115980468Y-94144598D01*
X115906229Y-94146080D01*
X115845778Y-94166851D01*
X115828388Y-94181239D01*
X115810984Y-94204355D01*
X115819588Y-94215141D01*
X115860855Y-94219287D01*
X115873518Y-94219816D01*
X115944736Y-94229832D01*
X116001839Y-94250899D01*
X116033822Y-94278281D01*
X116037120Y-94290249D01*
X116019923Y-94302340D01*
X115979605Y-94298836D01*
X115901548Y-94294095D01*
X115818478Y-94308678D01*
X115740282Y-94338190D01*
X115676846Y-94378232D01*
X115638057Y-94424407D01*
X115630720Y-94454022D01*
X115633378Y-94477585D01*
X115647457Y-94473127D01*
X115672172Y-94449668D01*
X115742274Y-94399646D01*
X115819009Y-94376705D01*
X115860025Y-94378085D01*
X115904915Y-94385606D01*
X115925360Y-94388203D01*
X115919758Y-94398773D01*
X115886335Y-94425150D01*
X115831980Y-94461993D01*
X115821653Y-94468597D01*
X115725943Y-94544462D01*
X115655806Y-94631468D01*
X115616706Y-94721769D01*
X115610400Y-94771855D01*
X115618342Y-94809503D01*
X115641303Y-94810791D01*
X115677988Y-94776580D01*
X115727101Y-94707730D01*
X115741440Y-94684764D01*
X115780504Y-94623292D01*
X115811314Y-94579440D01*
X115828248Y-94561096D01*
X115829493Y-94561199D01*
X115847609Y-94554496D01*
X115876254Y-94530066D01*
X115916170Y-94499194D01*
X115945891Y-94491945D01*
X115955840Y-94507316D01*
X115942393Y-94529320D01*
X115907707Y-94569073D01*
X115874117Y-94603313D01*
X115798485Y-94701640D01*
X115761724Y-94810189D01*
X115763187Y-94920128D01*
X115777937Y-94977497D01*
X115795109Y-94996765D01*
X115812662Y-94976987D01*
X115822153Y-94947488D01*
X115839125Y-94912635D01*
X115857649Y-94909786D01*
X115870816Y-94906416D01*
X115869569Y-94868883D01*
X115866292Y-94849657D01*
X115861505Y-94796533D01*
X115872160Y-94775716D01*
X115873640Y-94775600D01*
X115891820Y-94758901D01*
X115894880Y-94741132D01*
X115904104Y-94708126D01*
X115927025Y-94663839D01*
X115956519Y-94618604D01*
X115985460Y-94582752D01*
X116006725Y-94566615D01*
X116012704Y-94570269D01*
X116031621Y-94584096D01*
X116038856Y-94581487D01*
X116056302Y-94584826D01*
X116057440Y-94591520D01*
X116044088Y-94612228D01*
X116039108Y-94613040D01*
X116020456Y-94630126D01*
X116000413Y-94671497D01*
X115999525Y-94674000D01*
X115989077Y-94719493D01*
X115998006Y-94734960D01*
X116001858Y-94749350D01*
X115985211Y-94784548D01*
X115981709Y-94790054D01*
X115962083Y-94825262D01*
X115969070Y-94830426D01*
X115974044Y-94827663D01*
X115992506Y-94822505D01*
X115992908Y-94846258D01*
X115988592Y-94865225D01*
X115982813Y-94914968D01*
X115985586Y-94970167D01*
X115994828Y-95018273D01*
X116008454Y-95046733D01*
X116019029Y-95048542D01*
X116032373Y-95057538D01*
X116038867Y-95094440D01*
X116040614Y-95151520D01*
X116058865Y-95090560D01*
X116068828Y-95036717D01*
X116066820Y-94996908D01*
X116072227Y-94958177D01*
X116106246Y-94931757D01*
X116138720Y-94926768D01*
X116149358Y-94932258D01*
X116157247Y-94951076D01*
X116162772Y-94988251D01*
X116166316Y-95048813D01*
X116168264Y-95137792D01*
X116168998Y-95260217D01*
X116169036Y-95324255D01*
X116167918Y-95546121D01*
X116164584Y-95730796D01*
X116158767Y-95881682D01*
X116150200Y-96002179D01*
X116138616Y-96095691D01*
X116123745Y-96165618D01*
X116105322Y-96215362D01*
X116097882Y-96228800D01*
X116054126Y-96299600D01*
X116383386Y-96299600D01*
X116342448Y-96219353D01*
X116327218Y-96184184D01*
X116314535Y-96140950D01*
X116304003Y-96085236D01*
X116295225Y-96012629D01*
X116287804Y-95918714D01*
X116281344Y-95799077D01*
X116275448Y-95649302D01*
X116269720Y-95464976D01*
X116267512Y-95385200D01*
X116264032Y-95248424D01*
X116262296Y-95146293D01*
X116262713Y-95072835D01*
X116265693Y-95022075D01*
X116271645Y-94988041D01*
X116280978Y-94964759D01*
X116294102Y-94946258D01*
X116297894Y-94941827D01*
X116338978Y-94894694D01*
X116361709Y-94937167D01*
X116375861Y-94975959D01*
X116374970Y-94994961D01*
X116372913Y-95023265D01*
X116380254Y-95072636D01*
X116382111Y-95080902D01*
X116393336Y-95118696D01*
X116399785Y-95117847D01*
X116400801Y-95107493D01*
X116412307Y-95068868D01*
X116427134Y-95055382D01*
X116442134Y-95030685D01*
X116450950Y-94973655D01*
X116452534Y-94933735D01*
X116456443Y-94867975D01*
X116465855Y-94834763D01*
X116474000Y-94832660D01*
X116478012Y-94826723D01*
X116462150Y-94796205D01*
X116456232Y-94786909D01*
X116433676Y-94749067D01*
X116434721Y-94737077D01*
X116450253Y-94740992D01*
X116467641Y-94743317D01*
X116464645Y-94724790D01*
X116442621Y-94682559D01*
X116412763Y-94618572D01*
X116403549Y-94572916D01*
X116416158Y-94552532D01*
X116420437Y-94552080D01*
X116443764Y-94568233D01*
X116476345Y-94608151D01*
X116509728Y-94659016D01*
X116535460Y-94708012D01*
X116545120Y-94741132D01*
X116555411Y-94770633D01*
X116566361Y-94775600D01*
X116578211Y-94793655D01*
X116574658Y-94844420D01*
X116573709Y-94849657D01*
X116568047Y-94898501D01*
X116576662Y-94912216D01*
X116582352Y-94909786D01*
X116603580Y-94915507D01*
X116617848Y-94947488D01*
X116636316Y-94990401D01*
X116655670Y-94994212D01*
X116669000Y-94959478D01*
X116670692Y-94943240D01*
X116670021Y-94820606D01*
X116647303Y-94723208D01*
X116598721Y-94639959D01*
X116546935Y-94583838D01*
X116508155Y-94543417D01*
X116486091Y-94513533D01*
X116484160Y-94507638D01*
X116497059Y-94491163D01*
X116526568Y-94497725D01*
X116558907Y-94523381D01*
X116564656Y-94530671D01*
X116591060Y-94558078D01*
X116606029Y-94562271D01*
X116621888Y-94574410D01*
X116652177Y-94613754D01*
X116690908Y-94672372D01*
X116698848Y-94685232D01*
X116751756Y-94764142D01*
X116791341Y-94806131D01*
X116817133Y-94810928D01*
X116828663Y-94778261D01*
X116829266Y-94760360D01*
X116809597Y-94672715D01*
X116755161Y-94585725D01*
X116671280Y-94506711D01*
X116620036Y-94472526D01*
X116564311Y-94436270D01*
X116529420Y-94407008D01*
X116522639Y-94390883D01*
X116523018Y-94390621D01*
X116569284Y-94380797D01*
X116634196Y-94387814D01*
X116701256Y-94408100D01*
X116753967Y-94438087D01*
X116757740Y-94441413D01*
X116793036Y-94469758D01*
X116807879Y-94468328D01*
X116809280Y-94458333D01*
X116790518Y-94402120D01*
X116740271Y-94353156D01*
X116667604Y-94315937D01*
X116581579Y-94294960D01*
X116491259Y-94294724D01*
X116482201Y-94296036D01*
X116429163Y-94299967D01*
X116403809Y-94291956D01*
X116402880Y-94288681D01*
X116420706Y-94262510D01*
X116464767Y-94237319D01*
X116520936Y-94218847D01*
X116575087Y-94212833D01*
X116586795Y-94213970D01*
X116633732Y-94215567D01*
X116643829Y-94202774D01*
X116616282Y-94179993D01*
X116594964Y-94169261D01*
X116507458Y-94145682D01*
X116421496Y-94150450D01*
X116350109Y-94182092D01*
X116331144Y-94199064D01*
X116295260Y-94231551D01*
X116276361Y-94231375D01*
X116273104Y-94224464D01*
X116253733Y-94165118D01*
X116239549Y-94135438D01*
X116225390Y-94125790D01*
X116220000Y-94125359D01*
X116195710Y-94141803D01*
X116195710Y-94141803D01*
G37*
X116195710Y-94141803D02*
X116188883Y-94155839D01*
X116173803Y-94204139D01*
X116169918Y-94216593D01*
X116157663Y-94231305D01*
X116133040Y-94217997D01*
X116109881Y-94196273D01*
X116053388Y-94161598D01*
X115980468Y-94144598D01*
X115906229Y-94146080D01*
X115845778Y-94166851D01*
X115828388Y-94181239D01*
X115810984Y-94204355D01*
X115819588Y-94215141D01*
X115860855Y-94219287D01*
X115873518Y-94219816D01*
X115944736Y-94229832D01*
X116001839Y-94250899D01*
X116033822Y-94278281D01*
X116037120Y-94290249D01*
X116019923Y-94302340D01*
X115979605Y-94298836D01*
X115901548Y-94294095D01*
X115818478Y-94308678D01*
X115740282Y-94338190D01*
X115676846Y-94378232D01*
X115638057Y-94424407D01*
X115630720Y-94454022D01*
X115633378Y-94477585D01*
X115647457Y-94473127D01*
X115672172Y-94449668D01*
X115742274Y-94399646D01*
X115819009Y-94376705D01*
X115860025Y-94378085D01*
X115904915Y-94385606D01*
X115925360Y-94388203D01*
X115919758Y-94398773D01*
X115886335Y-94425150D01*
X115831980Y-94461993D01*
X115821653Y-94468597D01*
X115725943Y-94544462D01*
X115655806Y-94631468D01*
X115616706Y-94721769D01*
X115610400Y-94771855D01*
X115618342Y-94809503D01*
X115641303Y-94810791D01*
X115677988Y-94776580D01*
X115727101Y-94707730D01*
X115741440Y-94684764D01*
X115780504Y-94623292D01*
X115811314Y-94579440D01*
X115828248Y-94561096D01*
X115829493Y-94561199D01*
X115847609Y-94554496D01*
X115876254Y-94530066D01*
X115916170Y-94499194D01*
X115945891Y-94491945D01*
X115955840Y-94507316D01*
X115942393Y-94529320D01*
X115907707Y-94569073D01*
X115874117Y-94603313D01*
X115798485Y-94701640D01*
X115761724Y-94810189D01*
X115763187Y-94920128D01*
X115777937Y-94977497D01*
X115795109Y-94996765D01*
X115812662Y-94976987D01*
X115822153Y-94947488D01*
X115839125Y-94912635D01*
X115857649Y-94909786D01*
X115870816Y-94906416D01*
X115869569Y-94868883D01*
X115866292Y-94849657D01*
X115861505Y-94796533D01*
X115872160Y-94775716D01*
X115873640Y-94775600D01*
X115891820Y-94758901D01*
X115894880Y-94741132D01*
X115904104Y-94708126D01*
X115927025Y-94663839D01*
X115956519Y-94618604D01*
X115985460Y-94582752D01*
X116006725Y-94566615D01*
X116012704Y-94570269D01*
X116031621Y-94584096D01*
X116038856Y-94581487D01*
X116056302Y-94584826D01*
X116057440Y-94591520D01*
X116044088Y-94612228D01*
X116039108Y-94613040D01*
X116020456Y-94630126D01*
X116000413Y-94671497D01*
X115999525Y-94674000D01*
X115989077Y-94719493D01*
X115998006Y-94734960D01*
X116001858Y-94749350D01*
X115985211Y-94784548D01*
X115981709Y-94790054D01*
X115962083Y-94825262D01*
X115969070Y-94830426D01*
X115974044Y-94827663D01*
X115992506Y-94822505D01*
X115992908Y-94846258D01*
X115988592Y-94865225D01*
X115982813Y-94914968D01*
X115985586Y-94970167D01*
X115994828Y-95018273D01*
X116008454Y-95046733D01*
X116019029Y-95048542D01*
X116032373Y-95057538D01*
X116038867Y-95094440D01*
X116040614Y-95151520D01*
X116058865Y-95090560D01*
X116068828Y-95036717D01*
X116066820Y-94996908D01*
X116072227Y-94958177D01*
X116106246Y-94931757D01*
X116138720Y-94926768D01*
X116149358Y-94932258D01*
X116157247Y-94951076D01*
X116162772Y-94988251D01*
X116166316Y-95048813D01*
X116168264Y-95137792D01*
X116168998Y-95260217D01*
X116169036Y-95324255D01*
X116167918Y-95546121D01*
X116164584Y-95730796D01*
X116158767Y-95881682D01*
X116150200Y-96002179D01*
X116138616Y-96095691D01*
X116123745Y-96165618D01*
X116105322Y-96215362D01*
X116097882Y-96228800D01*
X116054126Y-96299600D01*
X116383386Y-96299600D01*
X116342448Y-96219353D01*
X116327218Y-96184184D01*
X116314535Y-96140950D01*
X116304003Y-96085236D01*
X116295225Y-96012629D01*
X116287804Y-95918714D01*
X116281344Y-95799077D01*
X116275448Y-95649302D01*
X116269720Y-95464976D01*
X116267512Y-95385200D01*
X116264032Y-95248424D01*
X116262296Y-95146293D01*
X116262713Y-95072835D01*
X116265693Y-95022075D01*
X116271645Y-94988041D01*
X116280978Y-94964759D01*
X116294102Y-94946258D01*
X116297894Y-94941827D01*
X116338978Y-94894694D01*
X116361709Y-94937167D01*
X116375861Y-94975959D01*
X116374970Y-94994961D01*
X116372913Y-95023265D01*
X116380254Y-95072636D01*
X116382111Y-95080902D01*
X116393336Y-95118696D01*
X116399785Y-95117847D01*
X116400801Y-95107493D01*
X116412307Y-95068868D01*
X116427134Y-95055382D01*
X116442134Y-95030685D01*
X116450950Y-94973655D01*
X116452534Y-94933735D01*
X116456443Y-94867975D01*
X116465855Y-94834763D01*
X116474000Y-94832660D01*
X116478012Y-94826723D01*
X116462150Y-94796205D01*
X116456232Y-94786909D01*
X116433676Y-94749067D01*
X116434721Y-94737077D01*
X116450253Y-94740992D01*
X116467641Y-94743317D01*
X116464645Y-94724790D01*
X116442621Y-94682559D01*
X116412763Y-94618572D01*
X116403549Y-94572916D01*
X116416158Y-94552532D01*
X116420437Y-94552080D01*
X116443764Y-94568233D01*
X116476345Y-94608151D01*
X116509728Y-94659016D01*
X116535460Y-94708012D01*
X116545120Y-94741132D01*
X116555411Y-94770633D01*
X116566361Y-94775600D01*
X116578211Y-94793655D01*
X116574658Y-94844420D01*
X116573709Y-94849657D01*
X116568047Y-94898501D01*
X116576662Y-94912216D01*
X116582352Y-94909786D01*
X116603580Y-94915507D01*
X116617848Y-94947488D01*
X116636316Y-94990401D01*
X116655670Y-94994212D01*
X116669000Y-94959478D01*
X116670692Y-94943240D01*
X116670021Y-94820606D01*
X116647303Y-94723208D01*
X116598721Y-94639959D01*
X116546935Y-94583838D01*
X116508155Y-94543417D01*
X116486091Y-94513533D01*
X116484160Y-94507638D01*
X116497059Y-94491163D01*
X116526568Y-94497725D01*
X116558907Y-94523381D01*
X116564656Y-94530671D01*
X116591060Y-94558078D01*
X116606029Y-94562271D01*
X116621888Y-94574410D01*
X116652177Y-94613754D01*
X116690908Y-94672372D01*
X116698848Y-94685232D01*
X116751756Y-94764142D01*
X116791341Y-94806131D01*
X116817133Y-94810928D01*
X116828663Y-94778261D01*
X116829266Y-94760360D01*
X116809597Y-94672715D01*
X116755161Y-94585725D01*
X116671280Y-94506711D01*
X116620036Y-94472526D01*
X116564311Y-94436270D01*
X116529420Y-94407008D01*
X116522639Y-94390883D01*
X116523018Y-94390621D01*
X116569284Y-94380797D01*
X116634196Y-94387814D01*
X116701256Y-94408100D01*
X116753967Y-94438087D01*
X116757740Y-94441413D01*
X116793036Y-94469758D01*
X116807879Y-94468328D01*
X116809280Y-94458333D01*
X116790518Y-94402120D01*
X116740271Y-94353156D01*
X116667604Y-94315937D01*
X116581579Y-94294960D01*
X116491259Y-94294724D01*
X116482201Y-94296036D01*
X116429163Y-94299967D01*
X116403809Y-94291956D01*
X116402880Y-94288681D01*
X116420706Y-94262510D01*
X116464767Y-94237319D01*
X116520936Y-94218847D01*
X116575087Y-94212833D01*
X116586795Y-94213970D01*
X116633732Y-94215567D01*
X116643829Y-94202774D01*
X116616282Y-94179993D01*
X116594964Y-94169261D01*
X116507458Y-94145682D01*
X116421496Y-94150450D01*
X116350109Y-94182092D01*
X116331144Y-94199064D01*
X116295260Y-94231551D01*
X116276361Y-94231375D01*
X116273104Y-94224464D01*
X116253733Y-94165118D01*
X116239549Y-94135438D01*
X116225390Y-94125790D01*
X116220000Y-94125359D01*
X116195710Y-94141803D01*
D15*
X118816666Y-107457143D02*
X118864285Y-107504762D01*
X119007142Y-107552381D01*
X119102380Y-107552381D01*
X119245238Y-107504762D01*
X119340476Y-107409524D01*
X119388095Y-107314286D01*
X119435714Y-107123810D01*
X119435714Y-106980952D01*
X119388095Y-106790476D01*
X119340476Y-106695238D01*
X119245238Y-106600000D01*
X119102380Y-106552381D01*
X119007142Y-106552381D01*
X118864285Y-106600000D01*
X118816666Y-106647619D01*
X118483333Y-106552381D02*
X117864285Y-106552381D01*
X118197619Y-106933333D01*
X118054761Y-106933333D01*
X117959523Y-106980952D01*
X117911904Y-107028571D01*
X117864285Y-107123810D01*
X117864285Y-107361905D01*
X117911904Y-107457143D01*
X117959523Y-107504762D01*
X118054761Y-107552381D01*
X118340476Y-107552381D01*
X118435714Y-107504762D01*
X118483333Y-107457143D01*
X124276666Y-103567143D02*
X124324285Y-103614762D01*
X124467142Y-103662381D01*
X124562380Y-103662381D01*
X124705238Y-103614762D01*
X124800476Y-103519524D01*
X124848095Y-103424286D01*
X124895714Y-103233810D01*
X124895714Y-103090952D01*
X124848095Y-102900476D01*
X124800476Y-102805238D01*
X124705238Y-102710000D01*
X124562380Y-102662381D01*
X124467142Y-102662381D01*
X124324285Y-102710000D01*
X124276666Y-102757619D01*
X123419523Y-102995714D02*
X123419523Y-103662381D01*
X123657619Y-102614762D02*
X123895714Y-103329048D01*
X123276666Y-103329048D01*
D13*
X113186257Y-93013143D02*
X113457190Y-93013143D01*
X113457190Y-93438895D02*
X113457190Y-92626095D01*
X113070143Y-92626095D01*
X112760504Y-93438895D02*
X112760504Y-92626095D01*
X112373456Y-93438895D02*
X112373456Y-92626095D01*
X112179932Y-92626095D01*
X112063818Y-92664800D01*
X111986409Y-92742210D01*
X111947704Y-92819619D01*
X111908999Y-92974438D01*
X111908999Y-93090552D01*
X111947704Y-93245371D01*
X111986409Y-93322781D01*
X112063818Y-93400190D01*
X112179932Y-93438895D01*
X112373456Y-93438895D01*
X111134904Y-93438895D02*
X111599361Y-93438895D01*
X111367132Y-93438895D02*
X111367132Y-92626095D01*
X111444542Y-92742210D01*
X111521951Y-92819619D01*
X111599361Y-92858324D01*
D15*
X114142381Y-106953334D02*
X113666190Y-106620000D01*
X114142381Y-106381905D02*
X113142381Y-106381905D01*
X113142381Y-106762858D01*
X113190000Y-106858096D01*
X113237619Y-106905715D01*
X113332857Y-106953334D01*
X113475714Y-106953334D01*
X113570952Y-106905715D01*
X113618571Y-106858096D01*
X113666190Y-106762858D01*
X113666190Y-106381905D01*
X113142381Y-107286667D02*
X113142381Y-107905715D01*
X113523333Y-107572381D01*
X113523333Y-107715239D01*
X113570952Y-107810477D01*
X113618571Y-107858096D01*
X113713810Y-107905715D01*
X113951905Y-107905715D01*
X114047143Y-107858096D01*
X114094762Y-107810477D01*
X114142381Y-107715239D01*
X114142381Y-107429524D01*
X114094762Y-107334286D01*
X114047143Y-107286667D01*
X130801905Y-102902381D02*
X130801905Y-103711905D01*
X130754286Y-103807143D01*
X130706667Y-103854762D01*
X130611429Y-103902381D01*
X130420952Y-103902381D01*
X130325714Y-103854762D01*
X130278095Y-103807143D01*
X130230476Y-103711905D01*
X130230476Y-102902381D01*
X129230476Y-103902381D02*
X129801905Y-103902381D01*
X129516191Y-103902381D02*
X129516191Y-102902381D01*
X129611429Y-103045238D01*
X129706667Y-103140476D01*
X129801905Y-103188095D01*
M02*
