G04 #@! TF.FileFunction,Soldermask,Top*
%FSLAX46Y46*%
G04 Gerber Fmt 4.6, Leading zero omitted, Abs format (unit mm)*
G04 Created by KiCad (PCBNEW 4.0.7) date Monday, December 25, 2017 'AMt' 07:55:09 AM*
%MOMM*%
%LPD*%
G01*
G04 APERTURE LIST*
%ADD10C,0.100000*%
%ADD11R,1.500000X1.700000*%
%ADD12R,1.100000X1.350000*%
%ADD13R,1.350000X1.100000*%
%ADD14R,1.000000X1.100000*%
%ADD15R,1.600000X1.100000*%
%ADD16C,1.800000*%
%ADD17O,1.800000X1.800000*%
%ADD18R,0.800000X1.400000*%
%ADD19R,2.200000X1.700000*%
%ADD20R,0.500000X1.450000*%
%ADD21R,1.900000X2.000000*%
%ADD22R,2.000000X0.500000*%
%ADD23R,0.800000X0.350000*%
%ADD24R,0.350000X0.800000*%
%ADD25R,1.387500X1.387500*%
%ADD26R,0.600000X0.700000*%
%ADD27R,1.400000X1.600000*%
%ADD28R,0.500000X0.700000*%
%ADD29R,1.100000X1.100000*%
%ADD30R,0.850000X0.850000*%
%ADD31R,1.100000X2.600000*%
%ADD32R,1.660000X0.750000*%
%ADD33R,2.100000X3.900000*%
%ADD34R,2.100000X1.600000*%
%ADD35R,1.000000X0.700000*%
G04 APERTURE END LIST*
D10*
D11*
X40975000Y-58800000D03*
X40975000Y-66000000D03*
X43975000Y-66000000D03*
X43975000Y-58800000D03*
D12*
X24442000Y-62883000D03*
X26442000Y-62883000D03*
D13*
X37125000Y-61875000D03*
X37125000Y-63875000D03*
D12*
X39325000Y-51875000D03*
X41325000Y-51875000D03*
X39275000Y-54000000D03*
X41275000Y-54000000D03*
D14*
X24525000Y-67250000D03*
D15*
X22775000Y-66850000D03*
X26275000Y-66850000D03*
D16*
X22250000Y-62660000D03*
D17*
X22250000Y-60120000D03*
X22250000Y-57580000D03*
X22250000Y-55040000D03*
X22250000Y-52500000D03*
X22250000Y-49960000D03*
X22250000Y-47420000D03*
X22250000Y-44880000D03*
X22250000Y-42340000D03*
X22250000Y-39800000D03*
X22250000Y-37260000D03*
X22250000Y-34720000D03*
D18*
X26184000Y-64958000D03*
X24284000Y-64958000D03*
X35500000Y-58150000D03*
X37400000Y-58150000D03*
X35500000Y-56100000D03*
X37400000Y-56100000D03*
X37400000Y-60150000D03*
X35500000Y-60150000D03*
D19*
X36540000Y-66080000D03*
X30340000Y-66080000D03*
D20*
X34740000Y-65955000D03*
X32140000Y-65955000D03*
X34090000Y-65955000D03*
X32790000Y-65955000D03*
D21*
X34700000Y-68800000D03*
X32200000Y-68800000D03*
X37250000Y-68800000D03*
X29650000Y-68800000D03*
D20*
X33440000Y-65955000D03*
D22*
X39875000Y-50125000D03*
X39875000Y-48925000D03*
X39875000Y-47725000D03*
D23*
X37568750Y-53356250D03*
X37568750Y-52856250D03*
X37568750Y-52356250D03*
X37568750Y-51856250D03*
X37568750Y-51356250D03*
X37568750Y-50856250D03*
X37568750Y-50356250D03*
X37568750Y-49856250D03*
X37568750Y-49356250D03*
X37568750Y-48856250D03*
X37568750Y-48356250D03*
X37568750Y-47856250D03*
D24*
X36918750Y-47206250D03*
X36418750Y-47206250D03*
X35918750Y-47206250D03*
X35418750Y-47206250D03*
X34918750Y-47206250D03*
X34418750Y-47206250D03*
X33918750Y-47206250D03*
X33418750Y-47206250D03*
X32918750Y-47206250D03*
X32418750Y-47206250D03*
X31918750Y-47206250D03*
X31418750Y-47206250D03*
D23*
X30768750Y-47856250D03*
X30768750Y-48356250D03*
X30768750Y-48856250D03*
X30768750Y-49356250D03*
X30768750Y-49856250D03*
X30768750Y-50356250D03*
X30768750Y-50856250D03*
X30768750Y-51356250D03*
X30768750Y-51856250D03*
X30768750Y-52356250D03*
X30768750Y-52856250D03*
X30768750Y-53356250D03*
D24*
X31418750Y-54006250D03*
X31918750Y-54006250D03*
X32418750Y-54006250D03*
X32918750Y-54006250D03*
X33418750Y-54006250D03*
X33918750Y-54006250D03*
X34418750Y-54006250D03*
X34918750Y-54006250D03*
X35418750Y-54006250D03*
X35918750Y-54006250D03*
X36418750Y-54006250D03*
X36918750Y-54006250D03*
D25*
X32237500Y-48675000D03*
X32237500Y-49962500D03*
X32237500Y-51250000D03*
X32237500Y-52537500D03*
X33525000Y-48675000D03*
X33525000Y-49962500D03*
X33525000Y-51250000D03*
X33525000Y-52537500D03*
X34812500Y-48675000D03*
X34812500Y-49962500D03*
X34812500Y-51250000D03*
X34812500Y-52537500D03*
X36100000Y-48675000D03*
X36100000Y-49962500D03*
X36100000Y-51250000D03*
X36100000Y-52537500D03*
D26*
X32800000Y-31775000D03*
X32800000Y-32875000D03*
X30200000Y-31775000D03*
X30200000Y-32875000D03*
D16*
X45000000Y-34720000D03*
D17*
X45000000Y-37260000D03*
X45000000Y-39800000D03*
X45000000Y-42340000D03*
X45000000Y-44880000D03*
X45000000Y-47420000D03*
X45000000Y-49960000D03*
X45000000Y-52500000D03*
X45000000Y-55040000D03*
D27*
X42175000Y-38925000D03*
X42175000Y-36225000D03*
X26550000Y-40995000D03*
X26550000Y-43695000D03*
X26550000Y-35150000D03*
X26550000Y-37850000D03*
D28*
X31075000Y-31775000D03*
X31975000Y-31775000D03*
D29*
X29295000Y-35225000D03*
X29295000Y-44485000D03*
X39540000Y-44485000D03*
X39540000Y-35235000D03*
D30*
X29170000Y-36355000D03*
X39670000Y-36360000D03*
X29170000Y-37355000D03*
X29170000Y-38355000D03*
X29170000Y-39355000D03*
X29170000Y-40355000D03*
X29170000Y-41355000D03*
X29170000Y-42355000D03*
X29170000Y-43355000D03*
X39670000Y-37355000D03*
X39670000Y-38355000D03*
X39670000Y-39355000D03*
X39670000Y-40355000D03*
X39670000Y-41355000D03*
X39670000Y-42355000D03*
X39670000Y-43355000D03*
X30425000Y-44610000D03*
X31425000Y-44610000D03*
X32425000Y-44610000D03*
X33425000Y-44610000D03*
X34425000Y-44610000D03*
X35425000Y-44610000D03*
X36425000Y-44610000D03*
X37425000Y-44610000D03*
X38425000Y-44610000D03*
X37425000Y-35100000D03*
X36425000Y-35100000D03*
X35425000Y-35100000D03*
X38425000Y-35100000D03*
X31425000Y-35100000D03*
X32425000Y-35100000D03*
X33425000Y-35100000D03*
X34425000Y-35100000D03*
X30425000Y-35100000D03*
D31*
X27930000Y-51950000D03*
X24930000Y-51950000D03*
D12*
X28460000Y-62870000D03*
X30460000Y-62870000D03*
D32*
X32360000Y-61950000D03*
X32360000Y-62900000D03*
X32360000Y-63850000D03*
X35060000Y-63850000D03*
X35060000Y-61950000D03*
X35060000Y-62900000D03*
D33*
X31283000Y-58248000D03*
D34*
X24983000Y-58248000D03*
X24983000Y-60548000D03*
X24983000Y-55948000D03*
D35*
X28100000Y-31755000D03*
X28100000Y-30265000D03*
M02*
