G04 #@! TF.FileFunction,Copper,L1,Top,Signal*
%FSLAX46Y46*%
G04 Gerber Fmt 4.6, Leading zero omitted, Abs format (unit mm)*
G04 Created by KiCad (PCBNEW 4.0.7) date Saturday, December 30, 2017 'PMt' 02:56:56 PM*
%MOMM*%
%LPD*%
G01*
G04 APERTURE LIST*
%ADD10C,0.100000*%
%ADD11R,1.400000X1.600000*%
%ADD12R,1.000000X1.250000*%
%ADD13R,1.250000X1.000000*%
%ADD14R,0.900000X1.000000*%
%ADD15R,1.500000X1.000000*%
%ADD16C,1.700000*%
%ADD17O,1.700000X1.700000*%
%ADD18R,0.700000X1.300000*%
%ADD19R,2.100000X1.600000*%
%ADD20R,0.400000X1.350000*%
%ADD21R,1.800000X1.900000*%
%ADD22R,1.900000X0.400000*%
%ADD23R,0.700000X0.250000*%
%ADD24R,0.250000X0.700000*%
%ADD25R,1.287500X1.287500*%
%ADD26R,0.500000X0.600000*%
%ADD27R,1.300000X1.500000*%
%ADD28R,0.400000X0.600000*%
%ADD29R,1.000000X1.000000*%
%ADD30R,0.750000X0.750000*%
%ADD31R,1.000000X2.500000*%
%ADD32R,1.560000X0.650000*%
%ADD33R,2.000000X3.800000*%
%ADD34R,2.000000X1.500000*%
%ADD35R,0.900000X5.400000*%
%ADD36R,4.100000X0.500000*%
%ADD37R,0.500000X4.900000*%
%ADD38R,0.500000X2.640000*%
%ADD39R,2.000000X0.500000*%
%ADD40R,0.500000X3.140000*%
%ADD41R,1.700000X0.500000*%
%ADD42R,0.900000X0.600000*%
%ADD43C,0.500000*%
%ADD44C,0.150000*%
%ADD45C,0.500000*%
%ADD46C,0.254000*%
G04 APERTURE END LIST*
D10*
D11*
X40975000Y-58800000D03*
X40975000Y-66000000D03*
X43975000Y-66000000D03*
X43975000Y-58800000D03*
D12*
X24442000Y-62883000D03*
X26442000Y-62883000D03*
D13*
X37125000Y-61875000D03*
X37125000Y-63875000D03*
D12*
X39325000Y-51875000D03*
X41325000Y-51875000D03*
X39275000Y-54000000D03*
X41275000Y-54000000D03*
D14*
X24525000Y-67250000D03*
D15*
X22775000Y-66850000D03*
X26275000Y-66850000D03*
D16*
X22250000Y-62660000D03*
D17*
X22250000Y-60120000D03*
X22250000Y-57580000D03*
X22250000Y-55040000D03*
X22250000Y-52500000D03*
X22250000Y-49960000D03*
X22250000Y-47420000D03*
X22250000Y-44880000D03*
X22250000Y-42340000D03*
X22250000Y-39800000D03*
X22250000Y-37260000D03*
X22250000Y-34720000D03*
D18*
X26184000Y-64958000D03*
X24284000Y-64958000D03*
X35500000Y-58150000D03*
X37400000Y-58150000D03*
X35500000Y-56100000D03*
X37400000Y-56100000D03*
X37400000Y-60150000D03*
X35500000Y-60150000D03*
D19*
X36540000Y-66080000D03*
X30340000Y-66080000D03*
D20*
X34740000Y-65955000D03*
X32140000Y-65955000D03*
X34090000Y-65955000D03*
X32790000Y-65955000D03*
D21*
X34700000Y-68800000D03*
X32200000Y-68800000D03*
X37250000Y-68800000D03*
X29650000Y-68800000D03*
D20*
X33440000Y-65955000D03*
D22*
X39875000Y-50125000D03*
X39875000Y-48925000D03*
X39875000Y-47725000D03*
D23*
X37568750Y-53356250D03*
X37568750Y-52856250D03*
X37568750Y-52356250D03*
X37568750Y-51856250D03*
X37568750Y-51356250D03*
X37568750Y-50856250D03*
X37568750Y-50356250D03*
X37568750Y-49856250D03*
X37568750Y-49356250D03*
X37568750Y-48856250D03*
X37568750Y-48356250D03*
X37568750Y-47856250D03*
D24*
X36918750Y-47206250D03*
X36418750Y-47206250D03*
X35918750Y-47206250D03*
X35418750Y-47206250D03*
X34918750Y-47206250D03*
X34418750Y-47206250D03*
X33918750Y-47206250D03*
X33418750Y-47206250D03*
X32918750Y-47206250D03*
X32418750Y-47206250D03*
X31918750Y-47206250D03*
X31418750Y-47206250D03*
D23*
X30768750Y-47856250D03*
X30768750Y-48356250D03*
X30768750Y-48856250D03*
X30768750Y-49356250D03*
X30768750Y-49856250D03*
X30768750Y-50356250D03*
X30768750Y-50856250D03*
X30768750Y-51356250D03*
X30768750Y-51856250D03*
X30768750Y-52356250D03*
X30768750Y-52856250D03*
X30768750Y-53356250D03*
D24*
X31418750Y-54006250D03*
X31918750Y-54006250D03*
X32418750Y-54006250D03*
X32918750Y-54006250D03*
X33418750Y-54006250D03*
X33918750Y-54006250D03*
X34418750Y-54006250D03*
X34918750Y-54006250D03*
X35418750Y-54006250D03*
X35918750Y-54006250D03*
X36418750Y-54006250D03*
X36918750Y-54006250D03*
D25*
X32237500Y-48675000D03*
X32237500Y-49962500D03*
X32237500Y-51250000D03*
X32237500Y-52537500D03*
X33525000Y-48675000D03*
X33525000Y-49962500D03*
X33525000Y-51250000D03*
X33525000Y-52537500D03*
X34812500Y-48675000D03*
X34812500Y-49962500D03*
X34812500Y-51250000D03*
X34812500Y-52537500D03*
X36100000Y-48675000D03*
X36100000Y-49962500D03*
X36100000Y-51250000D03*
X36100000Y-52537500D03*
D26*
X32800000Y-31775000D03*
X32800000Y-32875000D03*
X30200000Y-31775000D03*
X30200000Y-32875000D03*
D16*
X45000000Y-34720000D03*
D17*
X45000000Y-37260000D03*
X45000000Y-39800000D03*
X45000000Y-42340000D03*
X45000000Y-44880000D03*
X45000000Y-47420000D03*
X45000000Y-49960000D03*
X45000000Y-52500000D03*
X45000000Y-55040000D03*
D27*
X42175000Y-38925000D03*
X42175000Y-36225000D03*
X26550000Y-40995000D03*
X26550000Y-43695000D03*
X26550000Y-35150000D03*
X26550000Y-37850000D03*
D28*
X31075000Y-31775000D03*
X31975000Y-31775000D03*
D29*
X29295000Y-35225000D03*
X29295000Y-44485000D03*
X39540000Y-44485000D03*
X39540000Y-35235000D03*
D30*
X29170000Y-36355000D03*
X39670000Y-36360000D03*
X29170000Y-37355000D03*
X29170000Y-38355000D03*
X29170000Y-39355000D03*
X29170000Y-40355000D03*
X29170000Y-41355000D03*
X29170000Y-42355000D03*
X29170000Y-43355000D03*
X39670000Y-37355000D03*
X39670000Y-38355000D03*
X39670000Y-39355000D03*
X39670000Y-40355000D03*
X39670000Y-41355000D03*
X39670000Y-42355000D03*
X39670000Y-43355000D03*
X30425000Y-44610000D03*
X31425000Y-44610000D03*
X32425000Y-44610000D03*
X33425000Y-44610000D03*
X34425000Y-44610000D03*
X35425000Y-44610000D03*
X36425000Y-44610000D03*
X37425000Y-44610000D03*
X38425000Y-44610000D03*
X37425000Y-35100000D03*
X36425000Y-35100000D03*
X35425000Y-35100000D03*
X38425000Y-35100000D03*
X31425000Y-35100000D03*
X32425000Y-35100000D03*
X33425000Y-35100000D03*
X34425000Y-35100000D03*
X30425000Y-35100000D03*
D31*
X27930000Y-51950000D03*
X24930000Y-51950000D03*
D12*
X28460000Y-62870000D03*
X30460000Y-62870000D03*
D32*
X32360000Y-61950000D03*
X32360000Y-62900000D03*
X32360000Y-63850000D03*
X35060000Y-63850000D03*
X35060000Y-61950000D03*
X35060000Y-62900000D03*
D33*
X31283000Y-58248000D03*
D34*
X24983000Y-58248000D03*
X24983000Y-60548000D03*
X24983000Y-55948000D03*
D35*
X28100000Y-27855000D03*
D36*
X30600000Y-25405000D03*
D37*
X30200000Y-28105000D03*
D38*
X32400000Y-26975000D03*
D39*
X33650000Y-28045000D03*
D40*
X34900000Y-26725000D03*
D41*
X36000000Y-25405000D03*
D40*
X37100000Y-26725000D03*
D39*
X38350000Y-28045000D03*
D40*
X39600000Y-26725000D03*
D41*
X40700000Y-25405000D03*
D40*
X41800000Y-26725000D03*
D42*
X28100000Y-31755000D03*
X28100000Y-30265000D03*
D43*
X46000000Y-30900000D03*
X45000000Y-30900000D03*
X44000000Y-30900000D03*
X26000000Y-30906931D03*
X25000000Y-30906931D03*
X24000000Y-30906931D03*
X23000000Y-30906931D03*
X22000000Y-30906931D03*
X20981805Y-30906931D03*
X43000000Y-30900000D03*
X42000000Y-30900000D03*
X41000000Y-30900000D03*
X40000000Y-30900000D03*
X39000000Y-30900000D03*
X38000000Y-30900000D03*
X37000000Y-30900000D03*
X36000000Y-30900000D03*
X35000000Y-30900000D03*
X34000000Y-30900000D03*
X33000000Y-30900000D03*
X32000000Y-30900000D03*
X26568685Y-60872075D03*
X39870000Y-56550000D03*
X27030000Y-64970000D03*
X39000000Y-55100000D03*
X38400000Y-59800000D03*
X30425381Y-35951090D03*
X25000000Y-38500000D03*
X25093146Y-54391548D03*
X31425000Y-46225000D03*
X28460000Y-64390000D03*
X31270000Y-37200000D03*
X41000000Y-63700000D03*
X28000000Y-58600000D03*
X26400000Y-48100000D03*
X33550000Y-63033000D03*
X32237500Y-52537500D03*
X33525000Y-52537500D03*
X33525000Y-52537500D03*
X34812500Y-52537500D03*
X36100000Y-52537500D03*
X36000000Y-51250000D03*
X34812500Y-51250000D03*
X32237500Y-51250000D03*
X33525000Y-51250000D03*
X32237500Y-49962500D03*
X33525000Y-49962500D03*
X34812500Y-49962500D03*
X34812500Y-49962500D03*
X36000000Y-50000000D03*
X36000000Y-48675000D03*
X34812500Y-48675000D03*
X33525000Y-48675000D03*
X32237500Y-48675000D03*
X31918750Y-45706250D03*
X31714000Y-64963000D03*
X35791000Y-64837000D03*
X29550000Y-50225000D03*
X28725000Y-60850000D03*
X39260000Y-61875000D03*
X43924999Y-57524999D03*
X38400000Y-50025000D03*
X28243787Y-49749990D03*
X32418750Y-46431250D03*
X34646239Y-55040610D03*
X32918750Y-45981250D03*
X33425000Y-46425000D03*
X34925000Y-46425000D03*
X35646587Y-45915960D03*
X35918750Y-46506250D03*
X36819605Y-46208628D03*
X37800000Y-54025000D03*
X35925000Y-54775000D03*
X35283447Y-54912232D03*
X34005211Y-55148307D03*
X33425000Y-56425000D03*
X33055199Y-55351253D03*
X32423295Y-55198898D03*
X31781194Y-55299999D03*
X31128965Y-54910095D03*
X28335441Y-49106472D03*
X24100000Y-39750000D03*
X28878451Y-48571292D03*
X24115000Y-37260000D03*
X29630475Y-48114705D03*
X24200000Y-34720000D03*
X30200000Y-47350000D03*
X36525000Y-55175000D03*
X26680551Y-54914993D03*
X34613246Y-58904948D03*
X26811433Y-53511870D03*
X33239245Y-60061252D03*
X29580630Y-51291778D03*
X33919245Y-60061252D03*
X29580630Y-51971778D03*
X39900000Y-50775000D03*
X38318750Y-52356250D03*
X39875000Y-48324998D03*
X38350000Y-51575000D03*
X40675000Y-38750000D03*
X36775000Y-38750000D03*
X25646409Y-42375538D03*
X32475000Y-40675000D03*
X37825000Y-36325000D03*
X39700000Y-45900000D03*
X37049979Y-41350000D03*
X37475000Y-46925000D03*
X32325000Y-42400000D03*
X38000000Y-45675000D03*
X37349990Y-37400000D03*
X38425000Y-48850000D03*
X32500000Y-64911000D03*
X33852000Y-64680000D03*
D44*
X26568685Y-61225628D02*
X26568685Y-60872075D01*
X26214610Y-60518000D02*
X26318686Y-60622076D01*
X24795000Y-60518000D02*
X26214610Y-60518000D01*
X26430000Y-62470000D02*
X26568685Y-62331315D01*
X26568685Y-62331315D02*
X26568685Y-61225628D01*
X26318686Y-60622076D02*
X26568685Y-60872075D01*
X26184000Y-64958000D02*
X27018000Y-64958000D01*
X27018000Y-64958000D02*
X27030000Y-64970000D01*
X39275000Y-54825000D02*
X39000000Y-55100000D01*
X39275000Y-54000000D02*
X39275000Y-54825000D01*
X37400000Y-60150000D02*
X38050000Y-60150000D01*
X38050000Y-60150000D02*
X38400000Y-59800000D01*
X30425000Y-35950709D02*
X30425381Y-35951090D01*
X30425000Y-35100000D02*
X30425000Y-35950709D01*
X26550000Y-37850000D02*
X25650000Y-37850000D01*
X25650000Y-37850000D02*
X25000000Y-38500000D01*
X37568750Y-49356250D02*
X37619600Y-49407100D01*
X37619600Y-49407100D02*
X40712102Y-49407100D01*
X40712102Y-49407100D02*
X42980000Y-51674998D01*
X42980000Y-51674998D02*
X42980000Y-53020000D01*
X42980000Y-53020000D02*
X45000000Y-55040000D01*
X30268750Y-53356250D02*
X29233452Y-54391548D01*
X30768750Y-53356250D02*
X30268750Y-53356250D01*
X25446699Y-54391548D02*
X25093146Y-54391548D01*
X29233452Y-54391548D02*
X25446699Y-54391548D01*
X30425000Y-34949998D02*
X30425000Y-35100000D01*
X36918750Y-54231250D02*
X36918750Y-54006250D01*
X39275000Y-54000000D02*
X38625000Y-54000000D01*
X39325000Y-51875000D02*
X39325000Y-53950000D01*
X39325000Y-53950000D02*
X39275000Y-54000000D01*
X31425000Y-46700000D02*
X31425000Y-46225000D01*
X31418750Y-47206250D02*
X31418750Y-46706250D01*
X31418750Y-46706250D02*
X31425000Y-46700000D01*
X37462500Y-54775000D02*
X36918750Y-54231250D01*
X37850000Y-54775000D02*
X37462500Y-54775000D01*
X38625000Y-54000000D02*
X37850000Y-54775000D01*
X28460000Y-62870000D02*
X28460000Y-64390000D01*
X28460000Y-62870000D02*
X28460000Y-62995000D01*
X24442000Y-63008000D02*
X24442000Y-62883000D01*
X29950379Y-36233932D02*
X30916447Y-37200000D01*
X29295000Y-35225000D02*
X29950379Y-35880379D01*
X30916447Y-37200000D02*
X31270000Y-37200000D01*
X29950379Y-35880379D02*
X29950379Y-36233932D01*
X31519999Y-36280001D02*
X31425000Y-36185002D01*
X31425000Y-36185002D02*
X31425000Y-35100000D01*
X31270000Y-37200000D02*
X31519999Y-36950001D01*
X31519999Y-36950001D02*
X31519999Y-36280001D01*
X31270000Y-37200000D02*
X31370001Y-37300001D01*
X40975000Y-66000000D02*
X40975000Y-63725000D01*
X40975000Y-63725000D02*
X41000000Y-63700000D01*
X24983000Y-58248000D02*
X27648000Y-58248000D01*
X27648000Y-58248000D02*
X28000000Y-58600000D01*
X24930000Y-49570000D02*
X26400000Y-48100000D01*
X24930000Y-51950000D02*
X24930000Y-49570000D01*
X36418750Y-54006250D02*
X36418750Y-52856250D01*
X36418750Y-52856250D02*
X36100000Y-52537500D01*
X24795000Y-58218000D02*
X31095000Y-58218000D01*
X32360000Y-62900000D02*
X33417000Y-62900000D01*
X33417000Y-62900000D02*
X33550000Y-63033000D01*
X24430000Y-62595000D02*
X24430000Y-62470000D01*
X31918750Y-47206250D02*
X31918750Y-48356250D01*
X31918750Y-48356250D02*
X32237500Y-48675000D01*
X37568750Y-49856250D02*
X36206250Y-49856250D01*
X36206250Y-49856250D02*
X36100000Y-49962500D01*
X30768750Y-52856250D02*
X31918750Y-52856250D01*
X31918750Y-52856250D02*
X32237500Y-52537500D01*
X31370001Y-37300001D02*
X31750001Y-37300001D01*
X31750001Y-37300001D02*
X32050000Y-37600000D01*
X26080000Y-54030000D02*
X25850000Y-53800000D01*
X25850000Y-53800000D02*
X25850000Y-51975000D01*
X29095000Y-54030000D02*
X26080000Y-54030000D01*
X30768750Y-52856250D02*
X30268750Y-52856250D01*
X30268750Y-52856250D02*
X29095000Y-54030000D01*
X25850000Y-51975000D02*
X25300000Y-51975000D01*
X36930000Y-54680000D02*
X37400000Y-55150000D01*
X37400000Y-55150000D02*
X37400000Y-56100000D01*
X36712498Y-54680000D02*
X36930000Y-54680000D01*
X36418750Y-54006250D02*
X36418750Y-54386252D01*
X36418750Y-54386252D02*
X36712498Y-54680000D01*
X37400000Y-58450000D02*
X37400000Y-58150000D01*
X36824999Y-59025001D02*
X37400000Y-58450000D01*
X36824999Y-60980001D02*
X36824999Y-59025001D01*
X37899999Y-61025001D02*
X36869999Y-61025001D01*
X40125000Y-58800000D02*
X37899999Y-61025001D01*
X40975000Y-58800000D02*
X40125000Y-58800000D01*
X36869999Y-61025001D02*
X36824999Y-60980001D01*
X37400000Y-56100000D02*
X37400000Y-58150000D01*
X36540000Y-66080000D02*
X36540000Y-64460000D01*
X36540000Y-64460000D02*
X37125000Y-63875000D01*
X37250000Y-68800000D02*
X37250000Y-66790000D01*
X37250000Y-66790000D02*
X36540000Y-66080000D01*
X37250000Y-68800000D02*
X34700000Y-68800000D01*
X32200000Y-68800000D02*
X34700000Y-68800000D01*
X29650000Y-68800000D02*
X30700000Y-68800000D01*
X30700000Y-68800000D02*
X32200000Y-68800000D01*
X30340000Y-66080000D02*
X30340000Y-68110000D01*
X30340000Y-68110000D02*
X29650000Y-68800000D01*
X34740000Y-65955000D02*
X36415000Y-65955000D01*
X36415000Y-65955000D02*
X36540000Y-66080000D01*
X31918750Y-47206250D02*
X31918750Y-45706250D01*
X40975000Y-58800000D02*
X40975000Y-58700000D01*
X41275000Y-54000000D02*
X41275000Y-51925000D01*
X41275000Y-51925000D02*
X41325000Y-51875000D01*
X40975000Y-56225000D02*
X41275000Y-55925000D01*
X41275000Y-55925000D02*
X41275000Y-54000000D01*
X40975000Y-58800000D02*
X40975000Y-56225000D01*
X40975000Y-65900000D02*
X40975000Y-66000000D01*
X24795000Y-55918000D02*
X23645000Y-55918000D01*
X23645000Y-55918000D02*
X23516861Y-56046139D01*
X27288359Y-59444000D02*
X28694359Y-60850000D01*
X23516861Y-56046139D02*
X23516861Y-58975861D01*
X23516861Y-58975861D02*
X23985000Y-59444000D01*
X23985000Y-59444000D02*
X27288359Y-59444000D01*
X28694359Y-60850000D02*
X28725000Y-60850000D01*
X28725000Y-60850000D02*
X30010000Y-60850000D01*
X30460000Y-62870000D02*
X30460000Y-61300000D01*
X30460000Y-61300000D02*
X30010000Y-60850000D01*
X30699001Y-64713001D02*
X30460000Y-64474000D01*
X30460000Y-64474000D02*
X30460000Y-62870000D01*
X31714000Y-64963000D02*
X31464001Y-64713001D01*
X31464001Y-64713001D02*
X30699001Y-64713001D01*
X31714000Y-64963000D02*
X31714000Y-65529000D01*
X31714000Y-65529000D02*
X32140000Y-65955000D01*
X35060000Y-62900000D02*
X35990000Y-62900000D01*
X35990000Y-62900000D02*
X36065001Y-62975001D01*
X36065001Y-62975001D02*
X36065001Y-64562999D01*
X36065001Y-64562999D02*
X35791000Y-64837000D01*
X30768750Y-50356250D02*
X30678185Y-50265685D01*
X30678185Y-50265685D02*
X29590685Y-50265685D01*
X29590685Y-50265685D02*
X29550000Y-50225000D01*
X37125000Y-61875000D02*
X39260000Y-61875000D01*
X39260000Y-61875000D02*
X41172937Y-61875000D01*
X43924999Y-57524999D02*
X43924999Y-58749999D01*
X43924999Y-58749999D02*
X43975000Y-58800000D01*
X38068750Y-50356250D02*
X38400000Y-50025000D01*
X37568750Y-50356250D02*
X38068750Y-50356250D01*
X41172937Y-61875000D02*
X43975000Y-59072937D01*
X43975000Y-59072937D02*
X43975000Y-58800000D01*
X43975000Y-66000000D02*
X43975000Y-58800000D01*
X28050000Y-51975000D02*
X28050000Y-49943777D01*
X28050000Y-49943777D02*
X28243787Y-49749990D01*
X32418750Y-47206250D02*
X32418750Y-46431250D01*
X22775000Y-66850000D02*
X24125000Y-66850000D01*
X24125000Y-66850000D02*
X24525000Y-67250000D01*
X24300000Y-64580000D02*
X24300000Y-64880000D01*
X24300000Y-64880000D02*
X22775000Y-66405000D01*
X22775000Y-66405000D02*
X22775000Y-66850000D01*
X34646239Y-56996239D02*
X34646239Y-55394163D01*
X34646239Y-54798853D02*
X34646239Y-55040610D01*
X34646239Y-55394163D02*
X34646239Y-55040610D01*
X34918750Y-54526342D02*
X34646239Y-54798853D01*
X34918750Y-54006250D02*
X34918750Y-54526342D01*
X35500000Y-57850000D02*
X34646239Y-56996239D01*
X35500000Y-58150000D02*
X35500000Y-57850000D01*
X32918750Y-47206250D02*
X32918750Y-45981250D01*
X33425000Y-46700000D02*
X33425000Y-46425000D01*
X33418750Y-47206250D02*
X33418750Y-46706250D01*
X33418750Y-46706250D02*
X33425000Y-46700000D01*
X34925000Y-46700000D02*
X34925000Y-46425000D01*
X34918750Y-47206250D02*
X34918750Y-46706250D01*
X34918750Y-46706250D02*
X34925000Y-46700000D01*
X35418750Y-46143797D02*
X35646587Y-45915960D01*
X35418750Y-47206250D02*
X35418750Y-46143797D01*
X35918750Y-47206250D02*
X35918750Y-46506250D01*
X36569606Y-46458627D02*
X36819605Y-46208628D01*
X36418750Y-46609483D02*
X36569606Y-46458627D01*
X36418750Y-47206250D02*
X36418750Y-46609483D01*
X37800000Y-53862500D02*
X37800000Y-54025000D01*
X37568750Y-53356250D02*
X37568750Y-53631250D01*
X37568750Y-53631250D02*
X37800000Y-53862500D01*
X35925000Y-54512500D02*
X35925000Y-54775000D01*
X35918750Y-54506250D02*
X35925000Y-54512500D01*
X35918750Y-54006250D02*
X35918750Y-54506250D01*
X35418750Y-54776929D02*
X35283447Y-54912232D01*
X35418750Y-54006250D02*
X35418750Y-54776929D01*
X34005211Y-54986532D02*
X34005211Y-55148307D01*
X34418750Y-54572993D02*
X34005211Y-54986532D01*
X34418750Y-54006250D02*
X34418750Y-54572993D01*
X33918750Y-54006250D02*
X33918750Y-54506250D01*
X33918750Y-54506250D02*
X33530201Y-54894799D01*
X33530201Y-55966246D02*
X33425000Y-56071447D01*
X33530201Y-54894799D02*
X33530201Y-55966246D01*
X33425000Y-56071447D02*
X33425000Y-56425000D01*
X33055199Y-54869801D02*
X33055199Y-54997700D01*
X33418750Y-54506250D02*
X33055199Y-54869801D01*
X33055199Y-54997700D02*
X33055199Y-55351253D01*
X33418750Y-54006250D02*
X33418750Y-54506250D01*
X32423295Y-55001705D02*
X32423295Y-55198898D01*
X32918750Y-54006250D02*
X32918750Y-54506250D01*
X32918750Y-54506250D02*
X32423295Y-55001705D01*
X32418750Y-54006250D02*
X32418750Y-54506250D01*
X31781194Y-55143806D02*
X31781194Y-55299999D01*
X32418750Y-54506250D02*
X31781194Y-55143806D01*
X31918750Y-54006250D02*
X31918750Y-54473863D01*
X31482518Y-54910095D02*
X31128965Y-54910095D01*
X31918750Y-54473863D02*
X31482518Y-54910095D01*
X24100000Y-39750000D02*
X22300000Y-39750000D01*
X22300000Y-39750000D02*
X22250000Y-39800000D01*
X28585440Y-49356471D02*
X28335441Y-49106472D01*
X30800000Y-49450000D02*
X28678969Y-49450000D01*
X28678969Y-49450000D02*
X28585440Y-49356471D01*
X29128450Y-48821291D02*
X28878451Y-48571292D01*
X30689873Y-48839873D02*
X29147032Y-48839873D01*
X29147032Y-48839873D02*
X29128450Y-48821291D01*
X22250000Y-37260000D02*
X24115000Y-37260000D01*
X30679570Y-48329570D02*
X29845340Y-48329570D01*
X29845340Y-48329570D02*
X29630475Y-48114705D01*
X22250000Y-34720000D02*
X24200000Y-34720000D01*
X24305000Y-34720000D02*
X24200000Y-34720000D01*
X30200000Y-47787500D02*
X30200000Y-47350000D01*
X30768750Y-47856250D02*
X30268750Y-47856250D01*
X30268750Y-47856250D02*
X30200000Y-47787500D01*
X35500000Y-56100000D02*
X36000000Y-56100000D01*
X36000000Y-56100000D02*
X36525000Y-55575000D01*
X36525000Y-55575000D02*
X36525000Y-55528553D01*
X36525000Y-55528553D02*
X36525000Y-55175000D01*
X27034104Y-54914993D02*
X26680551Y-54914993D01*
X31418750Y-54006250D02*
X31143750Y-54006250D01*
X31143750Y-54006250D02*
X30235007Y-54914993D01*
X30235007Y-54914993D02*
X27034104Y-54914993D01*
X28585732Y-53729989D02*
X27383105Y-53729989D01*
X27383105Y-53729989D02*
X27164986Y-53511870D01*
X29959471Y-52356250D02*
X28585732Y-53729989D01*
X30768750Y-52356250D02*
X29959471Y-52356250D01*
X27164986Y-53511870D02*
X26811433Y-53511870D01*
X34613246Y-58963246D02*
X34613246Y-58904948D01*
X35500000Y-59850000D02*
X34613246Y-58963246D01*
X35500000Y-60150000D02*
X35500000Y-59850000D01*
X33239245Y-60061252D02*
X33414246Y-60236253D01*
X34099999Y-63450001D02*
X35060000Y-63450001D01*
X33414246Y-60236253D02*
X33414246Y-62115590D01*
X33414246Y-62115590D02*
X34054999Y-62756343D01*
X34054999Y-62756343D02*
X34054999Y-63405001D01*
X34054999Y-63405001D02*
X34099999Y-63450001D01*
X35060000Y-63450001D02*
X35060000Y-63850000D01*
X29580630Y-51291778D02*
X30704278Y-51291778D01*
X30704278Y-51291778D02*
X30768750Y-51356250D01*
X33919245Y-60061252D02*
X33744244Y-60236253D01*
X33744244Y-60236253D02*
X33744244Y-61978900D01*
X33744244Y-61978900D02*
X34115343Y-62349999D01*
X34115343Y-62349999D02*
X35060000Y-62349999D01*
X35060000Y-62349999D02*
X35060000Y-61950000D01*
X29696158Y-51856250D02*
X30735440Y-51856250D01*
X29580630Y-51971778D02*
X29696158Y-51856250D01*
X30735440Y-51856250D02*
X30768750Y-51856250D01*
X39900000Y-50775000D02*
X39900000Y-50150000D01*
X39900000Y-50150000D02*
X39875000Y-50125000D01*
X37568750Y-52356250D02*
X38318750Y-52356250D01*
X39875000Y-48324998D02*
X39875000Y-47725000D01*
X38068750Y-51856250D02*
X38350000Y-51575000D01*
X37568750Y-51856250D02*
X38068750Y-51856250D01*
D45*
X32800000Y-31775000D02*
X31975000Y-31775000D01*
D44*
X36425000Y-32400000D02*
X35800000Y-31775000D01*
X35800000Y-31775000D02*
X32800000Y-31775000D01*
X36425000Y-35100000D02*
X36425000Y-32400000D01*
D45*
X30200000Y-28105000D02*
X30200000Y-31775000D01*
X31075000Y-31775000D02*
X30200000Y-31775000D01*
D44*
X40675000Y-38750000D02*
X42000000Y-38750000D01*
X42000000Y-38750000D02*
X42175000Y-38925000D01*
X36120000Y-39355000D02*
X36725000Y-38750000D01*
X36725000Y-38750000D02*
X36775000Y-38750000D01*
X29170000Y-39355000D02*
X36120000Y-39355000D01*
X29170000Y-37355000D02*
X29014998Y-37355000D01*
X29014998Y-37355000D02*
X26550000Y-39819998D01*
X26550000Y-39819998D02*
X26550000Y-40095000D01*
X26550000Y-40095000D02*
X26550000Y-40995000D01*
X29095000Y-37355000D02*
X29170000Y-37355000D01*
X25646409Y-42375538D02*
X25646409Y-43591409D01*
X25646409Y-43591409D02*
X25750000Y-43695000D01*
X25750000Y-43695000D02*
X26550000Y-43695000D01*
X25700000Y-42429129D02*
X25646409Y-42375538D01*
X36875000Y-40625000D02*
X32525000Y-40625000D01*
X32525000Y-40625000D02*
X32475000Y-40675000D01*
X39670000Y-38355000D02*
X39145000Y-38355000D01*
X39145000Y-38355000D02*
X36875000Y-40625000D01*
X34425000Y-34575000D02*
X34425000Y-35100000D01*
X30399268Y-34149989D02*
X30749278Y-34499999D01*
X34349999Y-34499999D02*
X34425000Y-34575000D01*
X30749278Y-34499999D02*
X34349999Y-34499999D01*
X28540730Y-34149989D02*
X30399268Y-34149989D01*
X27540719Y-35150000D02*
X28540730Y-34149989D01*
X26550000Y-35150000D02*
X27540719Y-35150000D01*
X37825000Y-36325000D02*
X39635000Y-36325000D01*
X39635000Y-36325000D02*
X39670000Y-36360000D01*
X38699999Y-46950001D02*
X39700000Y-45950000D01*
X39700000Y-45950000D02*
X39700000Y-45900000D01*
X37568750Y-48356250D02*
X38068750Y-48356250D01*
X38068750Y-48356250D02*
X38699999Y-47725001D01*
X38699999Y-47725001D02*
X38699999Y-46950001D01*
X29170000Y-41355000D02*
X37044979Y-41355000D01*
X37044979Y-41355000D02*
X37049979Y-41350000D01*
X37475000Y-47487500D02*
X37475000Y-46925000D01*
X37568750Y-47856250D02*
X37568750Y-47581250D01*
X37568750Y-47581250D02*
X37475000Y-47487500D01*
X32325000Y-42400000D02*
X29215000Y-42400000D01*
X29215000Y-42400000D02*
X29170000Y-42355000D01*
X36918750Y-46781250D02*
X38000000Y-45700000D01*
X38000000Y-45700000D02*
X38000000Y-45675000D01*
X36918750Y-47206250D02*
X36918750Y-46781250D01*
X37394990Y-37355000D02*
X37349990Y-37400000D01*
X39670000Y-37355000D02*
X37394990Y-37355000D01*
X38075000Y-48850000D02*
X38425000Y-48850000D01*
X37568750Y-48856250D02*
X38068750Y-48856250D01*
X38068750Y-48856250D02*
X38075000Y-48850000D01*
X33440000Y-65955000D02*
X33440000Y-65130000D01*
X33440000Y-65130000D02*
X32710001Y-64400001D01*
X32710001Y-64400001D02*
X31399999Y-64400001D01*
X31399999Y-64400001D02*
X31354999Y-64355001D01*
X31354999Y-64355001D02*
X31354999Y-62025001D01*
X31354999Y-62025001D02*
X31430000Y-61950000D01*
X31430000Y-61950000D02*
X32360000Y-61950000D01*
X32500000Y-64911000D02*
X32790000Y-65201000D01*
X32790000Y-65201000D02*
X32790000Y-65955000D01*
X32360000Y-63850000D02*
X32815000Y-63850000D01*
X32815000Y-63850000D02*
X33645000Y-64680000D01*
X33645000Y-64680000D02*
X33852000Y-64680000D01*
X32790000Y-65955000D02*
X32770750Y-65935750D01*
D46*
G36*
X46673000Y-66967793D02*
X46539731Y-67637778D01*
X46178460Y-68178460D01*
X45637778Y-68539731D01*
X44967792Y-68673000D01*
X38785000Y-68673000D01*
X38785000Y-68672998D01*
X38626252Y-68672998D01*
X38785000Y-68514250D01*
X38785000Y-67723690D01*
X38688327Y-67490301D01*
X38577000Y-67378975D01*
X38577000Y-66285750D01*
X39640000Y-66285750D01*
X39640000Y-66926309D01*
X39736673Y-67159698D01*
X39915301Y-67338327D01*
X40148690Y-67435000D01*
X40689250Y-67435000D01*
X40848000Y-67276250D01*
X40848000Y-66127000D01*
X41102000Y-66127000D01*
X41102000Y-67276250D01*
X41260750Y-67435000D01*
X41801310Y-67435000D01*
X42034699Y-67338327D01*
X42213327Y-67159698D01*
X42310000Y-66926309D01*
X42310000Y-66285750D01*
X42151250Y-66127000D01*
X41102000Y-66127000D01*
X40848000Y-66127000D01*
X39798750Y-66127000D01*
X39640000Y-66285750D01*
X38577000Y-66285750D01*
X38577000Y-65073691D01*
X39640000Y-65073691D01*
X39640000Y-65714250D01*
X39798750Y-65873000D01*
X40848000Y-65873000D01*
X40848000Y-64723750D01*
X41102000Y-64723750D01*
X41102000Y-65873000D01*
X42151250Y-65873000D01*
X42310000Y-65714250D01*
X42310000Y-65073691D01*
X42213327Y-64840302D01*
X42034699Y-64661673D01*
X41801310Y-64565000D01*
X41260750Y-64565000D01*
X41102000Y-64723750D01*
X40848000Y-64723750D01*
X40689250Y-64565000D01*
X40148690Y-64565000D01*
X39915301Y-64661673D01*
X39736673Y-64840302D01*
X39640000Y-65073691D01*
X38577000Y-65073691D01*
X38577000Y-64750000D01*
X38566994Y-64700590D01*
X38538553Y-64658965D01*
X38496159Y-64631685D01*
X38450000Y-64623000D01*
X38334594Y-64623000D01*
X38385000Y-64501309D01*
X38385000Y-64160750D01*
X38226250Y-64002000D01*
X37252000Y-64002000D01*
X37252000Y-64022000D01*
X36998000Y-64022000D01*
X36998000Y-64002000D01*
X36978000Y-64002000D01*
X36978000Y-63748000D01*
X36998000Y-63748000D01*
X36998000Y-62898750D01*
X37252000Y-62898750D01*
X37252000Y-63748000D01*
X38226250Y-63748000D01*
X38385000Y-63589250D01*
X38385000Y-63248691D01*
X38288327Y-63015302D01*
X38109699Y-62836673D01*
X37876310Y-62740000D01*
X37410750Y-62740000D01*
X37252000Y-62898750D01*
X36998000Y-62898750D01*
X36839250Y-62740000D01*
X36373690Y-62740000D01*
X36334138Y-62756383D01*
X36313903Y-62726099D01*
X36313900Y-62726097D01*
X36238902Y-62651098D01*
X36124705Y-62574794D01*
X36122297Y-62574315D01*
X36103111Y-62472350D01*
X36072700Y-62425090D01*
X36100175Y-62384880D01*
X36122426Y-62275000D01*
X36122426Y-61625000D01*
X36103111Y-61522350D01*
X36042445Y-61428073D01*
X35964772Y-61375000D01*
X36217574Y-61375000D01*
X36217574Y-62375000D01*
X36236889Y-62477650D01*
X36297555Y-62571927D01*
X36390120Y-62635175D01*
X36500000Y-62657426D01*
X37750000Y-62657426D01*
X37852650Y-62638111D01*
X37946927Y-62577445D01*
X38010175Y-62484880D01*
X38032426Y-62375000D01*
X38032426Y-62227000D01*
X38866744Y-62227000D01*
X38961088Y-62321509D01*
X39154713Y-62401909D01*
X39364367Y-62402092D01*
X39558132Y-62322030D01*
X39653328Y-62227000D01*
X41172932Y-62227000D01*
X41172937Y-62227001D01*
X41307642Y-62200206D01*
X41421839Y-62123902D01*
X43623000Y-59922740D01*
X43623000Y-64917574D01*
X43275000Y-64917574D01*
X43172350Y-64936889D01*
X43078073Y-64997555D01*
X43014825Y-65090120D01*
X42992574Y-65200000D01*
X42992574Y-66800000D01*
X43011889Y-66902650D01*
X43072555Y-66996927D01*
X43165120Y-67060175D01*
X43275000Y-67082426D01*
X44675000Y-67082426D01*
X44777650Y-67063111D01*
X44871927Y-67002445D01*
X44935175Y-66909880D01*
X44957426Y-66800000D01*
X44957426Y-65200000D01*
X44938111Y-65097350D01*
X44877445Y-65003073D01*
X44784880Y-64939825D01*
X44675000Y-64917574D01*
X44327000Y-64917574D01*
X44327000Y-59882426D01*
X44675000Y-59882426D01*
X44777650Y-59863111D01*
X44871927Y-59802445D01*
X44935175Y-59709880D01*
X44957426Y-59600000D01*
X44957426Y-58000000D01*
X44938111Y-57897350D01*
X44877445Y-57803073D01*
X44784880Y-57739825D01*
X44675000Y-57717574D01*
X44415663Y-57717574D01*
X44451908Y-57630286D01*
X44452091Y-57420632D01*
X44372029Y-57226867D01*
X44223911Y-57078490D01*
X44030286Y-56998090D01*
X43820632Y-56997907D01*
X43626867Y-57077969D01*
X43478490Y-57226087D01*
X43398090Y-57419712D01*
X43397907Y-57629366D01*
X43434354Y-57717574D01*
X43275000Y-57717574D01*
X43172350Y-57736889D01*
X43078073Y-57797555D01*
X43014825Y-57890120D01*
X42992574Y-58000000D01*
X42992574Y-59557560D01*
X41027133Y-61523000D01*
X39653256Y-61523000D01*
X39558912Y-61428491D01*
X39365287Y-61348091D01*
X39155633Y-61347908D01*
X38961868Y-61427970D01*
X38866672Y-61523000D01*
X38032426Y-61523000D01*
X38032426Y-61375000D01*
X38013111Y-61272350D01*
X37952445Y-61178073D01*
X37859880Y-61114825D01*
X37750000Y-61092574D01*
X36500000Y-61092574D01*
X36397350Y-61111889D01*
X36303073Y-61172555D01*
X36239825Y-61265120D01*
X36217574Y-61375000D01*
X35964772Y-61375000D01*
X35949880Y-61364825D01*
X35840000Y-61342574D01*
X34280000Y-61342574D01*
X34177350Y-61361889D01*
X34096244Y-61414080D01*
X34096244Y-60558333D01*
X34217377Y-60508282D01*
X34365754Y-60360164D01*
X34446154Y-60166539D01*
X34446337Y-59956885D01*
X34366275Y-59763120D01*
X34218157Y-59614743D01*
X34024532Y-59534343D01*
X33814878Y-59534160D01*
X33621113Y-59614222D01*
X33579302Y-59655960D01*
X33538157Y-59614743D01*
X33344532Y-59534343D01*
X33134878Y-59534160D01*
X32941113Y-59614222D01*
X32918000Y-59637295D01*
X32918000Y-58533750D01*
X32759250Y-58375000D01*
X31410000Y-58375000D01*
X31410000Y-60624250D01*
X31568750Y-60783000D01*
X32409309Y-60783000D01*
X32642698Y-60686327D01*
X32821327Y-60507699D01*
X32856208Y-60423489D01*
X32940333Y-60507761D01*
X33062246Y-60558384D01*
X33062246Y-61342574D01*
X31580000Y-61342574D01*
X31477350Y-61361889D01*
X31383073Y-61422555D01*
X31319825Y-61515120D01*
X31297713Y-61624313D01*
X31295295Y-61624794D01*
X31181098Y-61701098D01*
X31181096Y-61701101D01*
X31106097Y-61776099D01*
X31029793Y-61890296D01*
X31013270Y-61973361D01*
X30960000Y-61962574D01*
X30812000Y-61962574D01*
X30812000Y-61300005D01*
X30812001Y-61300000D01*
X30785206Y-61165295D01*
X30708902Y-61051098D01*
X30440804Y-60783000D01*
X30997250Y-60783000D01*
X31156000Y-60624250D01*
X31156000Y-58375000D01*
X29806750Y-58375000D01*
X29648000Y-58533750D01*
X29648000Y-60274310D01*
X29740656Y-60498000D01*
X29118256Y-60498000D01*
X29023912Y-60403491D01*
X28830287Y-60323091D01*
X28665109Y-60322947D01*
X27537261Y-59195098D01*
X27423064Y-59118794D01*
X27288359Y-59091999D01*
X27288354Y-59092000D01*
X26618000Y-59092000D01*
X26618000Y-58533750D01*
X26459250Y-58375000D01*
X25110000Y-58375000D01*
X25110000Y-58395000D01*
X24856000Y-58395000D01*
X24856000Y-58375000D01*
X24836000Y-58375000D01*
X24836000Y-58121000D01*
X24856000Y-58121000D01*
X24856000Y-58101000D01*
X25110000Y-58101000D01*
X25110000Y-58121000D01*
X26459250Y-58121000D01*
X26618000Y-57962250D01*
X26618000Y-57371690D01*
X26521327Y-57138301D01*
X26342698Y-56959673D01*
X26184291Y-56894059D01*
X26243175Y-56807880D01*
X26265426Y-56698000D01*
X26265426Y-56221690D01*
X29648000Y-56221690D01*
X29648000Y-57962250D01*
X29806750Y-58121000D01*
X31156000Y-58121000D01*
X31156000Y-55871750D01*
X30997250Y-55713000D01*
X30156691Y-55713000D01*
X29923302Y-55809673D01*
X29744673Y-55988301D01*
X29648000Y-56221690D01*
X26265426Y-56221690D01*
X26265426Y-55245086D01*
X26381639Y-55361502D01*
X26575264Y-55441902D01*
X26784918Y-55442085D01*
X26978683Y-55362023D01*
X27073879Y-55266993D01*
X30235002Y-55266993D01*
X30235007Y-55266994D01*
X30369712Y-55240199D01*
X30483909Y-55163895D01*
X30611074Y-55036730D01*
X30681935Y-55208227D01*
X30830053Y-55356604D01*
X31023678Y-55437004D01*
X31233332Y-55437187D01*
X31262657Y-55425070D01*
X31334164Y-55598131D01*
X31482282Y-55746508D01*
X31519703Y-55762047D01*
X31410000Y-55871750D01*
X31410000Y-58121000D01*
X32759250Y-58121000D01*
X32918000Y-57962250D01*
X32918000Y-56577993D01*
X32977970Y-56723132D01*
X33126088Y-56871509D01*
X33319713Y-56951909D01*
X33529367Y-56952092D01*
X33723132Y-56872030D01*
X33871509Y-56723912D01*
X33951909Y-56530287D01*
X33952092Y-56320633D01*
X33872030Y-56126868D01*
X33851699Y-56106501D01*
X33855407Y-56100951D01*
X33866310Y-56046139D01*
X33882202Y-55966246D01*
X33882201Y-55966241D01*
X33882201Y-55667857D01*
X33899924Y-55675216D01*
X34109578Y-55675399D01*
X34294239Y-55599099D01*
X34294239Y-56996234D01*
X34294238Y-56996239D01*
X34321033Y-57130944D01*
X34397337Y-57245141D01*
X34867574Y-57715377D01*
X34867574Y-58439926D01*
X34718533Y-58378039D01*
X34508879Y-58377856D01*
X34315114Y-58457918D01*
X34166737Y-58606036D01*
X34086337Y-58799661D01*
X34086154Y-59009315D01*
X34166216Y-59203080D01*
X34314334Y-59351457D01*
X34507959Y-59431857D01*
X34584120Y-59431923D01*
X34867574Y-59715377D01*
X34867574Y-60800000D01*
X34886889Y-60902650D01*
X34947555Y-60996927D01*
X35040120Y-61060175D01*
X35150000Y-61082426D01*
X35850000Y-61082426D01*
X35952650Y-61063111D01*
X36046927Y-61002445D01*
X36110175Y-60909880D01*
X36132426Y-60800000D01*
X36132426Y-59500000D01*
X36113111Y-59397350D01*
X36052445Y-59303073D01*
X35959880Y-59239825D01*
X35850000Y-59217574D01*
X35365377Y-59217574D01*
X35230230Y-59082426D01*
X35850000Y-59082426D01*
X35952650Y-59063111D01*
X36046927Y-59002445D01*
X36110175Y-58909880D01*
X36132426Y-58800000D01*
X36132426Y-58435750D01*
X36415000Y-58435750D01*
X36415000Y-58926310D01*
X36511673Y-59159699D01*
X36690302Y-59338327D01*
X36795454Y-59381882D01*
X36789825Y-59390120D01*
X36767574Y-59500000D01*
X36767574Y-60800000D01*
X36786889Y-60902650D01*
X36847555Y-60996927D01*
X36940120Y-61060175D01*
X37050000Y-61082426D01*
X37750000Y-61082426D01*
X37852650Y-61063111D01*
X37946927Y-61002445D01*
X38010175Y-60909880D01*
X38032426Y-60800000D01*
X38032426Y-60502000D01*
X38049995Y-60502000D01*
X38050000Y-60502001D01*
X38184705Y-60475206D01*
X38298902Y-60398902D01*
X38370828Y-60326975D01*
X38504367Y-60327092D01*
X38698132Y-60247030D01*
X38846509Y-60098912D01*
X38926909Y-59905287D01*
X38927092Y-59695633D01*
X38847030Y-59501868D01*
X38698912Y-59353491D01*
X38505287Y-59273091D01*
X38295633Y-59272908D01*
X38101868Y-59352970D01*
X38020116Y-59434579D01*
X38013111Y-59397350D01*
X38003450Y-59382336D01*
X38109698Y-59338327D01*
X38288327Y-59159699D01*
X38318957Y-59085750D01*
X39640000Y-59085750D01*
X39640000Y-59726309D01*
X39736673Y-59959698D01*
X39915301Y-60138327D01*
X40148690Y-60235000D01*
X40689250Y-60235000D01*
X40848000Y-60076250D01*
X40848000Y-58927000D01*
X41102000Y-58927000D01*
X41102000Y-60076250D01*
X41260750Y-60235000D01*
X41801310Y-60235000D01*
X42034699Y-60138327D01*
X42213327Y-59959698D01*
X42310000Y-59726309D01*
X42310000Y-59085750D01*
X42151250Y-58927000D01*
X41102000Y-58927000D01*
X40848000Y-58927000D01*
X39798750Y-58927000D01*
X39640000Y-59085750D01*
X38318957Y-59085750D01*
X38385000Y-58926310D01*
X38385000Y-58435750D01*
X38226250Y-58277000D01*
X37527000Y-58277000D01*
X37527000Y-58297000D01*
X37273000Y-58297000D01*
X37273000Y-58277000D01*
X36573750Y-58277000D01*
X36415000Y-58435750D01*
X36132426Y-58435750D01*
X36132426Y-57500000D01*
X36113111Y-57397350D01*
X36052445Y-57303073D01*
X35959880Y-57239825D01*
X35850000Y-57217574D01*
X35365377Y-57217574D01*
X35180230Y-57032426D01*
X35850000Y-57032426D01*
X35952650Y-57013111D01*
X36046927Y-56952445D01*
X36110175Y-56859880D01*
X36132426Y-56750000D01*
X36132426Y-56425659D01*
X36134705Y-56425206D01*
X36248902Y-56348902D01*
X36415000Y-56182804D01*
X36415000Y-56227002D01*
X36573748Y-56227002D01*
X36415000Y-56385750D01*
X36415000Y-56876310D01*
X36511673Y-57109699D01*
X36526974Y-57125000D01*
X36511673Y-57140301D01*
X36415000Y-57373690D01*
X36415000Y-57864250D01*
X36573750Y-58023000D01*
X37273000Y-58023000D01*
X37273000Y-56227000D01*
X37527000Y-56227000D01*
X37527000Y-58023000D01*
X38226250Y-58023000D01*
X38375559Y-57873691D01*
X39640000Y-57873691D01*
X39640000Y-58514250D01*
X39798750Y-58673000D01*
X40848000Y-58673000D01*
X40848000Y-57523750D01*
X41102000Y-57523750D01*
X41102000Y-58673000D01*
X42151250Y-58673000D01*
X42310000Y-58514250D01*
X42310000Y-57873691D01*
X42213327Y-57640302D01*
X42034699Y-57461673D01*
X41801310Y-57365000D01*
X41260750Y-57365000D01*
X41102000Y-57523750D01*
X40848000Y-57523750D01*
X40689250Y-57365000D01*
X40148690Y-57365000D01*
X39915301Y-57461673D01*
X39736673Y-57640302D01*
X39640000Y-57873691D01*
X38375559Y-57873691D01*
X38385000Y-57864250D01*
X38385000Y-57373690D01*
X38288327Y-57140301D01*
X38273026Y-57125000D01*
X38288327Y-57109699D01*
X38385000Y-56876310D01*
X38385000Y-56654367D01*
X39342908Y-56654367D01*
X39422970Y-56848132D01*
X39571088Y-56996509D01*
X39764713Y-57076909D01*
X39974367Y-57077092D01*
X40168132Y-56997030D01*
X40316509Y-56848912D01*
X40396909Y-56655287D01*
X40397092Y-56445633D01*
X40317030Y-56251868D01*
X40168912Y-56103491D01*
X39975287Y-56023091D01*
X39765633Y-56022908D01*
X39571868Y-56102970D01*
X39423491Y-56251088D01*
X39343091Y-56444713D01*
X39342908Y-56654367D01*
X38385000Y-56654367D01*
X38385000Y-56385750D01*
X38226250Y-56227000D01*
X37527000Y-56227000D01*
X37273000Y-56227000D01*
X37253000Y-56227000D01*
X37253000Y-55973000D01*
X37273000Y-55973000D01*
X37273000Y-55953000D01*
X37527000Y-55953000D01*
X37527000Y-55973000D01*
X38226250Y-55973000D01*
X38385000Y-55814250D01*
X38385000Y-55323690D01*
X38288327Y-55090301D01*
X38160415Y-54962389D01*
X38493402Y-54629401D01*
X38511889Y-54727650D01*
X38556934Y-54797651D01*
X38553491Y-54801088D01*
X38473091Y-54994713D01*
X38472908Y-55204367D01*
X38552970Y-55398132D01*
X38701088Y-55546509D01*
X38894713Y-55626909D01*
X39104367Y-55627092D01*
X39298132Y-55547030D01*
X39446509Y-55398912D01*
X39526909Y-55205287D01*
X39527028Y-55069224D01*
X39600206Y-54959705D01*
X39610074Y-54910095D01*
X39610605Y-54907426D01*
X39775000Y-54907426D01*
X39877650Y-54888111D01*
X39971927Y-54827445D01*
X40035175Y-54734880D01*
X40057426Y-54625000D01*
X40057426Y-54285750D01*
X40140000Y-54285750D01*
X40140000Y-54751310D01*
X40236673Y-54984699D01*
X40415302Y-55163327D01*
X40648691Y-55260000D01*
X40989250Y-55260000D01*
X41148000Y-55101250D01*
X41148000Y-54127000D01*
X41402000Y-54127000D01*
X41402000Y-55101250D01*
X41560750Y-55260000D01*
X41901309Y-55260000D01*
X42134698Y-55163327D01*
X42313327Y-54984699D01*
X42410000Y-54751310D01*
X42410000Y-54285750D01*
X42251250Y-54127000D01*
X41402000Y-54127000D01*
X41148000Y-54127000D01*
X40298750Y-54127000D01*
X40140000Y-54285750D01*
X40057426Y-54285750D01*
X40057426Y-53375000D01*
X40038111Y-53272350D01*
X40022887Y-53248690D01*
X40140000Y-53248690D01*
X40140000Y-53714250D01*
X40298750Y-53873000D01*
X41148000Y-53873000D01*
X41148000Y-53026250D01*
X41198000Y-52976250D01*
X41198000Y-52898750D01*
X41402000Y-52898750D01*
X41402000Y-53873000D01*
X42251250Y-53873000D01*
X42410000Y-53714250D01*
X42410000Y-53248690D01*
X42313327Y-53015301D01*
X42260526Y-52962500D01*
X42363327Y-52859699D01*
X42460000Y-52626310D01*
X42460000Y-52160750D01*
X42301250Y-52002000D01*
X41452000Y-52002000D01*
X41452000Y-52848750D01*
X41402000Y-52898750D01*
X41198000Y-52898750D01*
X41198000Y-52002000D01*
X40348750Y-52002000D01*
X40190000Y-52160750D01*
X40190000Y-52626310D01*
X40286673Y-52859699D01*
X40339474Y-52912500D01*
X40236673Y-53015301D01*
X40140000Y-53248690D01*
X40022887Y-53248690D01*
X39977445Y-53178073D01*
X39884880Y-53114825D01*
X39775000Y-53092574D01*
X39677000Y-53092574D01*
X39677000Y-52782426D01*
X39825000Y-52782426D01*
X39927650Y-52763111D01*
X40021927Y-52702445D01*
X40085175Y-52609880D01*
X40107426Y-52500000D01*
X40107426Y-51259509D01*
X40190000Y-51225390D01*
X40190000Y-51589250D01*
X40348750Y-51748000D01*
X41198000Y-51748000D01*
X41198000Y-50773750D01*
X41039250Y-50615000D01*
X40698691Y-50615000D01*
X40465302Y-50711673D01*
X40427023Y-50749952D01*
X40427092Y-50670633D01*
X40400975Y-50607426D01*
X40825000Y-50607426D01*
X40927650Y-50588111D01*
X41021927Y-50527445D01*
X41085175Y-50434880D01*
X41107426Y-50325000D01*
X41107426Y-50300228D01*
X41516474Y-50709276D01*
X41452000Y-50773750D01*
X41452000Y-51748000D01*
X42301250Y-51748000D01*
X42428224Y-51621026D01*
X42628000Y-51820802D01*
X42628000Y-53019995D01*
X42627999Y-53020000D01*
X42654794Y-53154705D01*
X42731098Y-53268902D01*
X43990463Y-54528267D01*
X43936709Y-54608716D01*
X43850921Y-55040000D01*
X43936709Y-55471284D01*
X44181012Y-55836909D01*
X44546637Y-56081212D01*
X44977921Y-56167000D01*
X45022079Y-56167000D01*
X45453363Y-56081212D01*
X45818988Y-55836909D01*
X46063291Y-55471284D01*
X46149079Y-55040000D01*
X46063291Y-54608716D01*
X45818988Y-54243091D01*
X45453363Y-53998788D01*
X45022079Y-53913000D01*
X44977921Y-53913000D01*
X44546637Y-53998788D01*
X44492659Y-54034855D01*
X43332000Y-52874196D01*
X43332000Y-52500000D01*
X43850921Y-52500000D01*
X43936709Y-52931284D01*
X44181012Y-53296909D01*
X44546637Y-53541212D01*
X44977921Y-53627000D01*
X45022079Y-53627000D01*
X45453363Y-53541212D01*
X45818988Y-53296909D01*
X46063291Y-52931284D01*
X46149079Y-52500000D01*
X46063291Y-52068716D01*
X45818988Y-51703091D01*
X45453363Y-51458788D01*
X45022079Y-51373000D01*
X44977921Y-51373000D01*
X44546637Y-51458788D01*
X44181012Y-51703091D01*
X43936709Y-52068716D01*
X43850921Y-52500000D01*
X43332000Y-52500000D01*
X43332000Y-51675003D01*
X43332001Y-51674998D01*
X43305206Y-51540293D01*
X43228902Y-51426096D01*
X41762806Y-49960000D01*
X43850921Y-49960000D01*
X43936709Y-50391284D01*
X44181012Y-50756909D01*
X44546637Y-51001212D01*
X44977921Y-51087000D01*
X45022079Y-51087000D01*
X45453363Y-51001212D01*
X45818988Y-50756909D01*
X46063291Y-50391284D01*
X46149079Y-49960000D01*
X46063291Y-49528716D01*
X45818988Y-49163091D01*
X45453363Y-48918788D01*
X45022079Y-48833000D01*
X44977921Y-48833000D01*
X44546637Y-48918788D01*
X44181012Y-49163091D01*
X43936709Y-49528716D01*
X43850921Y-49960000D01*
X41762806Y-49960000D01*
X41325416Y-49522610D01*
X41363327Y-49484698D01*
X41460000Y-49251309D01*
X41460000Y-49183750D01*
X41301250Y-49025000D01*
X40002000Y-49025000D01*
X40002000Y-49055100D01*
X39748000Y-49055100D01*
X39748000Y-49025000D01*
X39728000Y-49025000D01*
X39728000Y-48834586D01*
X39769713Y-48851907D01*
X39979367Y-48852090D01*
X40044930Y-48825000D01*
X41301250Y-48825000D01*
X41460000Y-48666250D01*
X41460000Y-48598691D01*
X41363327Y-48365302D01*
X41184699Y-48186673D01*
X41026291Y-48121058D01*
X41085175Y-48034880D01*
X41107426Y-47925000D01*
X41107426Y-47525000D01*
X41088111Y-47422350D01*
X41086599Y-47420000D01*
X43850921Y-47420000D01*
X43936709Y-47851284D01*
X44181012Y-48216909D01*
X44546637Y-48461212D01*
X44977921Y-48547000D01*
X45022079Y-48547000D01*
X45453363Y-48461212D01*
X45818988Y-48216909D01*
X46063291Y-47851284D01*
X46149079Y-47420000D01*
X46063291Y-46988716D01*
X45818988Y-46623091D01*
X45453363Y-46378788D01*
X45022079Y-46293000D01*
X44977921Y-46293000D01*
X44546637Y-46378788D01*
X44181012Y-46623091D01*
X43936709Y-46988716D01*
X43850921Y-47420000D01*
X41086599Y-47420000D01*
X41027445Y-47328073D01*
X40934880Y-47264825D01*
X40825000Y-47242574D01*
X39051999Y-47242574D01*
X39051999Y-47095805D01*
X39720785Y-46427019D01*
X39804367Y-46427092D01*
X39998132Y-46347030D01*
X40146509Y-46198912D01*
X40226909Y-46005287D01*
X40227092Y-45795633D01*
X40154522Y-45620000D01*
X40166309Y-45620000D01*
X40399698Y-45523327D01*
X40578327Y-45344699D01*
X40675000Y-45111310D01*
X40675000Y-44880000D01*
X43850921Y-44880000D01*
X43936709Y-45311284D01*
X44181012Y-45676909D01*
X44546637Y-45921212D01*
X44977921Y-46007000D01*
X45022079Y-46007000D01*
X45453363Y-45921212D01*
X45818988Y-45676909D01*
X46063291Y-45311284D01*
X46149079Y-44880000D01*
X46063291Y-44448716D01*
X45818988Y-44083091D01*
X45453363Y-43838788D01*
X45022079Y-43753000D01*
X44977921Y-43753000D01*
X44546637Y-43838788D01*
X44181012Y-44083091D01*
X43936709Y-44448716D01*
X43850921Y-44880000D01*
X40675000Y-44880000D01*
X40675000Y-44770750D01*
X40516250Y-44612000D01*
X39667000Y-44612000D01*
X39667000Y-44632000D01*
X39413000Y-44632000D01*
X39413000Y-44612000D01*
X39393000Y-44612000D01*
X39393000Y-44358000D01*
X39413000Y-44358000D01*
X39413000Y-44338000D01*
X39667000Y-44338000D01*
X39667000Y-44358000D01*
X40516250Y-44358000D01*
X40675000Y-44199250D01*
X40675000Y-43858690D01*
X40578327Y-43625301D01*
X40399698Y-43446673D01*
X40327426Y-43416737D01*
X40327426Y-42980000D01*
X40308111Y-42877350D01*
X40294270Y-42855840D01*
X40305175Y-42839880D01*
X40327426Y-42730000D01*
X40327426Y-42340000D01*
X43850921Y-42340000D01*
X43936709Y-42771284D01*
X44181012Y-43136909D01*
X44546637Y-43381212D01*
X44977921Y-43467000D01*
X45022079Y-43467000D01*
X45453363Y-43381212D01*
X45818988Y-43136909D01*
X46063291Y-42771284D01*
X46149079Y-42340000D01*
X46063291Y-41908716D01*
X45818988Y-41543091D01*
X45453363Y-41298788D01*
X45022079Y-41213000D01*
X44977921Y-41213000D01*
X44546637Y-41298788D01*
X44181012Y-41543091D01*
X43936709Y-41908716D01*
X43850921Y-42340000D01*
X40327426Y-42340000D01*
X40327426Y-41980000D01*
X40308111Y-41877350D01*
X40294270Y-41855840D01*
X40305175Y-41839880D01*
X40327426Y-41730000D01*
X40327426Y-40980000D01*
X40308111Y-40877350D01*
X40294270Y-40855840D01*
X40305175Y-40839880D01*
X40327426Y-40730000D01*
X40327426Y-39980000D01*
X40308111Y-39877350D01*
X40294270Y-39855840D01*
X40305175Y-39839880D01*
X40327426Y-39730000D01*
X40327426Y-39147762D01*
X40376088Y-39196509D01*
X40569713Y-39276909D01*
X40779367Y-39277092D01*
X40973132Y-39197030D01*
X41068328Y-39102000D01*
X41242574Y-39102000D01*
X41242574Y-39675000D01*
X41261889Y-39777650D01*
X41322555Y-39871927D01*
X41415120Y-39935175D01*
X41525000Y-39957426D01*
X42825000Y-39957426D01*
X42927650Y-39938111D01*
X43021927Y-39877445D01*
X43074843Y-39800000D01*
X43850921Y-39800000D01*
X43936709Y-40231284D01*
X44181012Y-40596909D01*
X44546637Y-40841212D01*
X44977921Y-40927000D01*
X45022079Y-40927000D01*
X45453363Y-40841212D01*
X45818988Y-40596909D01*
X46063291Y-40231284D01*
X46149079Y-39800000D01*
X46063291Y-39368716D01*
X45818988Y-39003091D01*
X45453363Y-38758788D01*
X45022079Y-38673000D01*
X44977921Y-38673000D01*
X44546637Y-38758788D01*
X44181012Y-39003091D01*
X43936709Y-39368716D01*
X43850921Y-39800000D01*
X43074843Y-39800000D01*
X43085175Y-39784880D01*
X43107426Y-39675000D01*
X43107426Y-38175000D01*
X43088111Y-38072350D01*
X43027445Y-37978073D01*
X42934880Y-37914825D01*
X42825000Y-37892574D01*
X41525000Y-37892574D01*
X41422350Y-37911889D01*
X41328073Y-37972555D01*
X41264825Y-38065120D01*
X41242574Y-38175000D01*
X41242574Y-38398000D01*
X41068256Y-38398000D01*
X40973912Y-38303491D01*
X40780287Y-38223091D01*
X40570633Y-38222908D01*
X40376868Y-38302970D01*
X40327426Y-38352326D01*
X40327426Y-37980000D01*
X40308111Y-37877350D01*
X40294270Y-37855840D01*
X40305175Y-37839880D01*
X40327426Y-37730000D01*
X40327426Y-36980000D01*
X40308111Y-36877350D01*
X40295927Y-36858415D01*
X40305175Y-36844880D01*
X40327426Y-36735000D01*
X40327426Y-36510750D01*
X40890000Y-36510750D01*
X40890000Y-37101309D01*
X40986673Y-37334698D01*
X41165301Y-37513327D01*
X41398690Y-37610000D01*
X41889250Y-37610000D01*
X42048000Y-37451250D01*
X42048000Y-36352000D01*
X42302000Y-36352000D01*
X42302000Y-37451250D01*
X42460750Y-37610000D01*
X42951310Y-37610000D01*
X43184699Y-37513327D01*
X43363327Y-37334698D01*
X43394267Y-37260000D01*
X43850921Y-37260000D01*
X43936709Y-37691284D01*
X44181012Y-38056909D01*
X44546637Y-38301212D01*
X44977921Y-38387000D01*
X45022079Y-38387000D01*
X45453363Y-38301212D01*
X45818988Y-38056909D01*
X46063291Y-37691284D01*
X46149079Y-37260000D01*
X46063291Y-36828716D01*
X45818988Y-36463091D01*
X45453363Y-36218788D01*
X45319628Y-36192186D01*
X45361458Y-36190315D01*
X45784080Y-36015259D01*
X45864353Y-35763958D01*
X45000000Y-34899605D01*
X44135647Y-35763958D01*
X44215920Y-36015259D01*
X44695408Y-36189195D01*
X44546637Y-36218788D01*
X44181012Y-36463091D01*
X43936709Y-36828716D01*
X43850921Y-37260000D01*
X43394267Y-37260000D01*
X43460000Y-37101309D01*
X43460000Y-36510750D01*
X43301250Y-36352000D01*
X42302000Y-36352000D01*
X42048000Y-36352000D01*
X41048750Y-36352000D01*
X40890000Y-36510750D01*
X40327426Y-36510750D01*
X40327426Y-36303263D01*
X40399698Y-36273327D01*
X40578327Y-36094699D01*
X40675000Y-35861310D01*
X40675000Y-35520750D01*
X40516250Y-35362000D01*
X39667000Y-35362000D01*
X39667000Y-35382000D01*
X39413000Y-35382000D01*
X39413000Y-35362000D01*
X39393000Y-35362000D01*
X39393000Y-35348691D01*
X40890000Y-35348691D01*
X40890000Y-35939250D01*
X41048750Y-36098000D01*
X42048000Y-36098000D01*
X42048000Y-34998750D01*
X42302000Y-34998750D01*
X42302000Y-36098000D01*
X43301250Y-36098000D01*
X43460000Y-35939250D01*
X43460000Y-35348691D01*
X43363327Y-35115302D01*
X43184699Y-34936673D01*
X42951310Y-34840000D01*
X42460750Y-34840000D01*
X42302000Y-34998750D01*
X42048000Y-34998750D01*
X41889250Y-34840000D01*
X41398690Y-34840000D01*
X41165301Y-34936673D01*
X40986673Y-35115302D01*
X40890000Y-35348691D01*
X39393000Y-35348691D01*
X39393000Y-35108000D01*
X39413000Y-35108000D01*
X39413000Y-34258750D01*
X39667000Y-34258750D01*
X39667000Y-35108000D01*
X40516250Y-35108000D01*
X40675000Y-34949250D01*
X40675000Y-34608690D01*
X40626367Y-34491279D01*
X43503282Y-34491279D01*
X43529685Y-35081458D01*
X43704741Y-35504080D01*
X43956042Y-35584353D01*
X44820395Y-34720000D01*
X45179605Y-34720000D01*
X46043958Y-35584353D01*
X46295259Y-35504080D01*
X46496718Y-34948721D01*
X46470315Y-34358542D01*
X46295259Y-33935920D01*
X46043958Y-33855647D01*
X45179605Y-34720000D01*
X44820395Y-34720000D01*
X43956042Y-33855647D01*
X43704741Y-33935920D01*
X43503282Y-34491279D01*
X40626367Y-34491279D01*
X40578327Y-34375301D01*
X40399698Y-34196673D01*
X40166309Y-34100000D01*
X39825750Y-34100000D01*
X39667000Y-34258750D01*
X39413000Y-34258750D01*
X39254250Y-34100000D01*
X38913691Y-34100000D01*
X38680302Y-34196673D01*
X38501673Y-34375301D01*
X38473808Y-34442574D01*
X38370335Y-34442574D01*
X38338327Y-34365301D01*
X38159698Y-34186673D01*
X37926309Y-34090000D01*
X37710750Y-34090000D01*
X37552000Y-34248750D01*
X37552000Y-34973000D01*
X37572000Y-34973000D01*
X37572000Y-35227000D01*
X37552000Y-35227000D01*
X37552000Y-35247000D01*
X37298000Y-35247000D01*
X37298000Y-35227000D01*
X37278000Y-35227000D01*
X37278000Y-34973000D01*
X37298000Y-34973000D01*
X37298000Y-34248750D01*
X37139250Y-34090000D01*
X36923691Y-34090000D01*
X36777000Y-34150761D01*
X36777000Y-33676042D01*
X44135647Y-33676042D01*
X45000000Y-34540395D01*
X45864353Y-33676042D01*
X45784080Y-33424741D01*
X45228721Y-33223282D01*
X44638542Y-33249685D01*
X44215920Y-33424741D01*
X44135647Y-33676042D01*
X36777000Y-33676042D01*
X36777000Y-32400000D01*
X36750206Y-32265295D01*
X36673902Y-32151098D01*
X36673899Y-32151096D01*
X36048902Y-31526098D01*
X35934705Y-31449794D01*
X35800000Y-31422999D01*
X35799995Y-31423000D01*
X35114270Y-31423000D01*
X35298132Y-31347030D01*
X35446509Y-31198912D01*
X35500032Y-31070013D01*
X35552970Y-31198132D01*
X35701088Y-31346509D01*
X35894713Y-31426909D01*
X36104367Y-31427092D01*
X36298132Y-31347030D01*
X36446509Y-31198912D01*
X36500032Y-31070013D01*
X36552970Y-31198132D01*
X36701088Y-31346509D01*
X36894713Y-31426909D01*
X37104367Y-31427092D01*
X37298132Y-31347030D01*
X37446509Y-31198912D01*
X37500032Y-31070013D01*
X37552970Y-31198132D01*
X37701088Y-31346509D01*
X37894713Y-31426909D01*
X38104367Y-31427092D01*
X38298132Y-31347030D01*
X38446509Y-31198912D01*
X38500032Y-31070013D01*
X38552970Y-31198132D01*
X38701088Y-31346509D01*
X38894713Y-31426909D01*
X39104367Y-31427092D01*
X39298132Y-31347030D01*
X39446509Y-31198912D01*
X39500032Y-31070013D01*
X39552970Y-31198132D01*
X39701088Y-31346509D01*
X39894713Y-31426909D01*
X40104367Y-31427092D01*
X40298132Y-31347030D01*
X40446509Y-31198912D01*
X40500032Y-31070013D01*
X40552970Y-31198132D01*
X40701088Y-31346509D01*
X40894713Y-31426909D01*
X41104367Y-31427092D01*
X41298132Y-31347030D01*
X41446509Y-31198912D01*
X41500032Y-31070013D01*
X41552970Y-31198132D01*
X41701088Y-31346509D01*
X41894713Y-31426909D01*
X42104367Y-31427092D01*
X42298132Y-31347030D01*
X42446509Y-31198912D01*
X42500032Y-31070013D01*
X42552970Y-31198132D01*
X42701088Y-31346509D01*
X42894713Y-31426909D01*
X43104367Y-31427092D01*
X43298132Y-31347030D01*
X43446509Y-31198912D01*
X43500032Y-31070013D01*
X43552970Y-31198132D01*
X43701088Y-31346509D01*
X43894713Y-31426909D01*
X44104367Y-31427092D01*
X44298132Y-31347030D01*
X44446509Y-31198912D01*
X44500032Y-31070013D01*
X44552970Y-31198132D01*
X44701088Y-31346509D01*
X44894713Y-31426909D01*
X45104367Y-31427092D01*
X45298132Y-31347030D01*
X45446509Y-31198912D01*
X45500032Y-31070013D01*
X45552970Y-31198132D01*
X45701088Y-31346509D01*
X45894713Y-31426909D01*
X46104367Y-31427092D01*
X46298132Y-31347030D01*
X46446509Y-31198912D01*
X46526909Y-31005287D01*
X46527092Y-30795633D01*
X46457414Y-30627000D01*
X46673000Y-30627000D01*
X46673000Y-66967793D01*
X46673000Y-66967793D01*
G37*
X46673000Y-66967793D02*
X46539731Y-67637778D01*
X46178460Y-68178460D01*
X45637778Y-68539731D01*
X44967792Y-68673000D01*
X38785000Y-68673000D01*
X38785000Y-68672998D01*
X38626252Y-68672998D01*
X38785000Y-68514250D01*
X38785000Y-67723690D01*
X38688327Y-67490301D01*
X38577000Y-67378975D01*
X38577000Y-66285750D01*
X39640000Y-66285750D01*
X39640000Y-66926309D01*
X39736673Y-67159698D01*
X39915301Y-67338327D01*
X40148690Y-67435000D01*
X40689250Y-67435000D01*
X40848000Y-67276250D01*
X40848000Y-66127000D01*
X41102000Y-66127000D01*
X41102000Y-67276250D01*
X41260750Y-67435000D01*
X41801310Y-67435000D01*
X42034699Y-67338327D01*
X42213327Y-67159698D01*
X42310000Y-66926309D01*
X42310000Y-66285750D01*
X42151250Y-66127000D01*
X41102000Y-66127000D01*
X40848000Y-66127000D01*
X39798750Y-66127000D01*
X39640000Y-66285750D01*
X38577000Y-66285750D01*
X38577000Y-65073691D01*
X39640000Y-65073691D01*
X39640000Y-65714250D01*
X39798750Y-65873000D01*
X40848000Y-65873000D01*
X40848000Y-64723750D01*
X41102000Y-64723750D01*
X41102000Y-65873000D01*
X42151250Y-65873000D01*
X42310000Y-65714250D01*
X42310000Y-65073691D01*
X42213327Y-64840302D01*
X42034699Y-64661673D01*
X41801310Y-64565000D01*
X41260750Y-64565000D01*
X41102000Y-64723750D01*
X40848000Y-64723750D01*
X40689250Y-64565000D01*
X40148690Y-64565000D01*
X39915301Y-64661673D01*
X39736673Y-64840302D01*
X39640000Y-65073691D01*
X38577000Y-65073691D01*
X38577000Y-64750000D01*
X38566994Y-64700590D01*
X38538553Y-64658965D01*
X38496159Y-64631685D01*
X38450000Y-64623000D01*
X38334594Y-64623000D01*
X38385000Y-64501309D01*
X38385000Y-64160750D01*
X38226250Y-64002000D01*
X37252000Y-64002000D01*
X37252000Y-64022000D01*
X36998000Y-64022000D01*
X36998000Y-64002000D01*
X36978000Y-64002000D01*
X36978000Y-63748000D01*
X36998000Y-63748000D01*
X36998000Y-62898750D01*
X37252000Y-62898750D01*
X37252000Y-63748000D01*
X38226250Y-63748000D01*
X38385000Y-63589250D01*
X38385000Y-63248691D01*
X38288327Y-63015302D01*
X38109699Y-62836673D01*
X37876310Y-62740000D01*
X37410750Y-62740000D01*
X37252000Y-62898750D01*
X36998000Y-62898750D01*
X36839250Y-62740000D01*
X36373690Y-62740000D01*
X36334138Y-62756383D01*
X36313903Y-62726099D01*
X36313900Y-62726097D01*
X36238902Y-62651098D01*
X36124705Y-62574794D01*
X36122297Y-62574315D01*
X36103111Y-62472350D01*
X36072700Y-62425090D01*
X36100175Y-62384880D01*
X36122426Y-62275000D01*
X36122426Y-61625000D01*
X36103111Y-61522350D01*
X36042445Y-61428073D01*
X35964772Y-61375000D01*
X36217574Y-61375000D01*
X36217574Y-62375000D01*
X36236889Y-62477650D01*
X36297555Y-62571927D01*
X36390120Y-62635175D01*
X36500000Y-62657426D01*
X37750000Y-62657426D01*
X37852650Y-62638111D01*
X37946927Y-62577445D01*
X38010175Y-62484880D01*
X38032426Y-62375000D01*
X38032426Y-62227000D01*
X38866744Y-62227000D01*
X38961088Y-62321509D01*
X39154713Y-62401909D01*
X39364367Y-62402092D01*
X39558132Y-62322030D01*
X39653328Y-62227000D01*
X41172932Y-62227000D01*
X41172937Y-62227001D01*
X41307642Y-62200206D01*
X41421839Y-62123902D01*
X43623000Y-59922740D01*
X43623000Y-64917574D01*
X43275000Y-64917574D01*
X43172350Y-64936889D01*
X43078073Y-64997555D01*
X43014825Y-65090120D01*
X42992574Y-65200000D01*
X42992574Y-66800000D01*
X43011889Y-66902650D01*
X43072555Y-66996927D01*
X43165120Y-67060175D01*
X43275000Y-67082426D01*
X44675000Y-67082426D01*
X44777650Y-67063111D01*
X44871927Y-67002445D01*
X44935175Y-66909880D01*
X44957426Y-66800000D01*
X44957426Y-65200000D01*
X44938111Y-65097350D01*
X44877445Y-65003073D01*
X44784880Y-64939825D01*
X44675000Y-64917574D01*
X44327000Y-64917574D01*
X44327000Y-59882426D01*
X44675000Y-59882426D01*
X44777650Y-59863111D01*
X44871927Y-59802445D01*
X44935175Y-59709880D01*
X44957426Y-59600000D01*
X44957426Y-58000000D01*
X44938111Y-57897350D01*
X44877445Y-57803073D01*
X44784880Y-57739825D01*
X44675000Y-57717574D01*
X44415663Y-57717574D01*
X44451908Y-57630286D01*
X44452091Y-57420632D01*
X44372029Y-57226867D01*
X44223911Y-57078490D01*
X44030286Y-56998090D01*
X43820632Y-56997907D01*
X43626867Y-57077969D01*
X43478490Y-57226087D01*
X43398090Y-57419712D01*
X43397907Y-57629366D01*
X43434354Y-57717574D01*
X43275000Y-57717574D01*
X43172350Y-57736889D01*
X43078073Y-57797555D01*
X43014825Y-57890120D01*
X42992574Y-58000000D01*
X42992574Y-59557560D01*
X41027133Y-61523000D01*
X39653256Y-61523000D01*
X39558912Y-61428491D01*
X39365287Y-61348091D01*
X39155633Y-61347908D01*
X38961868Y-61427970D01*
X38866672Y-61523000D01*
X38032426Y-61523000D01*
X38032426Y-61375000D01*
X38013111Y-61272350D01*
X37952445Y-61178073D01*
X37859880Y-61114825D01*
X37750000Y-61092574D01*
X36500000Y-61092574D01*
X36397350Y-61111889D01*
X36303073Y-61172555D01*
X36239825Y-61265120D01*
X36217574Y-61375000D01*
X35964772Y-61375000D01*
X35949880Y-61364825D01*
X35840000Y-61342574D01*
X34280000Y-61342574D01*
X34177350Y-61361889D01*
X34096244Y-61414080D01*
X34096244Y-60558333D01*
X34217377Y-60508282D01*
X34365754Y-60360164D01*
X34446154Y-60166539D01*
X34446337Y-59956885D01*
X34366275Y-59763120D01*
X34218157Y-59614743D01*
X34024532Y-59534343D01*
X33814878Y-59534160D01*
X33621113Y-59614222D01*
X33579302Y-59655960D01*
X33538157Y-59614743D01*
X33344532Y-59534343D01*
X33134878Y-59534160D01*
X32941113Y-59614222D01*
X32918000Y-59637295D01*
X32918000Y-58533750D01*
X32759250Y-58375000D01*
X31410000Y-58375000D01*
X31410000Y-60624250D01*
X31568750Y-60783000D01*
X32409309Y-60783000D01*
X32642698Y-60686327D01*
X32821327Y-60507699D01*
X32856208Y-60423489D01*
X32940333Y-60507761D01*
X33062246Y-60558384D01*
X33062246Y-61342574D01*
X31580000Y-61342574D01*
X31477350Y-61361889D01*
X31383073Y-61422555D01*
X31319825Y-61515120D01*
X31297713Y-61624313D01*
X31295295Y-61624794D01*
X31181098Y-61701098D01*
X31181096Y-61701101D01*
X31106097Y-61776099D01*
X31029793Y-61890296D01*
X31013270Y-61973361D01*
X30960000Y-61962574D01*
X30812000Y-61962574D01*
X30812000Y-61300005D01*
X30812001Y-61300000D01*
X30785206Y-61165295D01*
X30708902Y-61051098D01*
X30440804Y-60783000D01*
X30997250Y-60783000D01*
X31156000Y-60624250D01*
X31156000Y-58375000D01*
X29806750Y-58375000D01*
X29648000Y-58533750D01*
X29648000Y-60274310D01*
X29740656Y-60498000D01*
X29118256Y-60498000D01*
X29023912Y-60403491D01*
X28830287Y-60323091D01*
X28665109Y-60322947D01*
X27537261Y-59195098D01*
X27423064Y-59118794D01*
X27288359Y-59091999D01*
X27288354Y-59092000D01*
X26618000Y-59092000D01*
X26618000Y-58533750D01*
X26459250Y-58375000D01*
X25110000Y-58375000D01*
X25110000Y-58395000D01*
X24856000Y-58395000D01*
X24856000Y-58375000D01*
X24836000Y-58375000D01*
X24836000Y-58121000D01*
X24856000Y-58121000D01*
X24856000Y-58101000D01*
X25110000Y-58101000D01*
X25110000Y-58121000D01*
X26459250Y-58121000D01*
X26618000Y-57962250D01*
X26618000Y-57371690D01*
X26521327Y-57138301D01*
X26342698Y-56959673D01*
X26184291Y-56894059D01*
X26243175Y-56807880D01*
X26265426Y-56698000D01*
X26265426Y-56221690D01*
X29648000Y-56221690D01*
X29648000Y-57962250D01*
X29806750Y-58121000D01*
X31156000Y-58121000D01*
X31156000Y-55871750D01*
X30997250Y-55713000D01*
X30156691Y-55713000D01*
X29923302Y-55809673D01*
X29744673Y-55988301D01*
X29648000Y-56221690D01*
X26265426Y-56221690D01*
X26265426Y-55245086D01*
X26381639Y-55361502D01*
X26575264Y-55441902D01*
X26784918Y-55442085D01*
X26978683Y-55362023D01*
X27073879Y-55266993D01*
X30235002Y-55266993D01*
X30235007Y-55266994D01*
X30369712Y-55240199D01*
X30483909Y-55163895D01*
X30611074Y-55036730D01*
X30681935Y-55208227D01*
X30830053Y-55356604D01*
X31023678Y-55437004D01*
X31233332Y-55437187D01*
X31262657Y-55425070D01*
X31334164Y-55598131D01*
X31482282Y-55746508D01*
X31519703Y-55762047D01*
X31410000Y-55871750D01*
X31410000Y-58121000D01*
X32759250Y-58121000D01*
X32918000Y-57962250D01*
X32918000Y-56577993D01*
X32977970Y-56723132D01*
X33126088Y-56871509D01*
X33319713Y-56951909D01*
X33529367Y-56952092D01*
X33723132Y-56872030D01*
X33871509Y-56723912D01*
X33951909Y-56530287D01*
X33952092Y-56320633D01*
X33872030Y-56126868D01*
X33851699Y-56106501D01*
X33855407Y-56100951D01*
X33866310Y-56046139D01*
X33882202Y-55966246D01*
X33882201Y-55966241D01*
X33882201Y-55667857D01*
X33899924Y-55675216D01*
X34109578Y-55675399D01*
X34294239Y-55599099D01*
X34294239Y-56996234D01*
X34294238Y-56996239D01*
X34321033Y-57130944D01*
X34397337Y-57245141D01*
X34867574Y-57715377D01*
X34867574Y-58439926D01*
X34718533Y-58378039D01*
X34508879Y-58377856D01*
X34315114Y-58457918D01*
X34166737Y-58606036D01*
X34086337Y-58799661D01*
X34086154Y-59009315D01*
X34166216Y-59203080D01*
X34314334Y-59351457D01*
X34507959Y-59431857D01*
X34584120Y-59431923D01*
X34867574Y-59715377D01*
X34867574Y-60800000D01*
X34886889Y-60902650D01*
X34947555Y-60996927D01*
X35040120Y-61060175D01*
X35150000Y-61082426D01*
X35850000Y-61082426D01*
X35952650Y-61063111D01*
X36046927Y-61002445D01*
X36110175Y-60909880D01*
X36132426Y-60800000D01*
X36132426Y-59500000D01*
X36113111Y-59397350D01*
X36052445Y-59303073D01*
X35959880Y-59239825D01*
X35850000Y-59217574D01*
X35365377Y-59217574D01*
X35230230Y-59082426D01*
X35850000Y-59082426D01*
X35952650Y-59063111D01*
X36046927Y-59002445D01*
X36110175Y-58909880D01*
X36132426Y-58800000D01*
X36132426Y-58435750D01*
X36415000Y-58435750D01*
X36415000Y-58926310D01*
X36511673Y-59159699D01*
X36690302Y-59338327D01*
X36795454Y-59381882D01*
X36789825Y-59390120D01*
X36767574Y-59500000D01*
X36767574Y-60800000D01*
X36786889Y-60902650D01*
X36847555Y-60996927D01*
X36940120Y-61060175D01*
X37050000Y-61082426D01*
X37750000Y-61082426D01*
X37852650Y-61063111D01*
X37946927Y-61002445D01*
X38010175Y-60909880D01*
X38032426Y-60800000D01*
X38032426Y-60502000D01*
X38049995Y-60502000D01*
X38050000Y-60502001D01*
X38184705Y-60475206D01*
X38298902Y-60398902D01*
X38370828Y-60326975D01*
X38504367Y-60327092D01*
X38698132Y-60247030D01*
X38846509Y-60098912D01*
X38926909Y-59905287D01*
X38927092Y-59695633D01*
X38847030Y-59501868D01*
X38698912Y-59353491D01*
X38505287Y-59273091D01*
X38295633Y-59272908D01*
X38101868Y-59352970D01*
X38020116Y-59434579D01*
X38013111Y-59397350D01*
X38003450Y-59382336D01*
X38109698Y-59338327D01*
X38288327Y-59159699D01*
X38318957Y-59085750D01*
X39640000Y-59085750D01*
X39640000Y-59726309D01*
X39736673Y-59959698D01*
X39915301Y-60138327D01*
X40148690Y-60235000D01*
X40689250Y-60235000D01*
X40848000Y-60076250D01*
X40848000Y-58927000D01*
X41102000Y-58927000D01*
X41102000Y-60076250D01*
X41260750Y-60235000D01*
X41801310Y-60235000D01*
X42034699Y-60138327D01*
X42213327Y-59959698D01*
X42310000Y-59726309D01*
X42310000Y-59085750D01*
X42151250Y-58927000D01*
X41102000Y-58927000D01*
X40848000Y-58927000D01*
X39798750Y-58927000D01*
X39640000Y-59085750D01*
X38318957Y-59085750D01*
X38385000Y-58926310D01*
X38385000Y-58435750D01*
X38226250Y-58277000D01*
X37527000Y-58277000D01*
X37527000Y-58297000D01*
X37273000Y-58297000D01*
X37273000Y-58277000D01*
X36573750Y-58277000D01*
X36415000Y-58435750D01*
X36132426Y-58435750D01*
X36132426Y-57500000D01*
X36113111Y-57397350D01*
X36052445Y-57303073D01*
X35959880Y-57239825D01*
X35850000Y-57217574D01*
X35365377Y-57217574D01*
X35180230Y-57032426D01*
X35850000Y-57032426D01*
X35952650Y-57013111D01*
X36046927Y-56952445D01*
X36110175Y-56859880D01*
X36132426Y-56750000D01*
X36132426Y-56425659D01*
X36134705Y-56425206D01*
X36248902Y-56348902D01*
X36415000Y-56182804D01*
X36415000Y-56227002D01*
X36573748Y-56227002D01*
X36415000Y-56385750D01*
X36415000Y-56876310D01*
X36511673Y-57109699D01*
X36526974Y-57125000D01*
X36511673Y-57140301D01*
X36415000Y-57373690D01*
X36415000Y-57864250D01*
X36573750Y-58023000D01*
X37273000Y-58023000D01*
X37273000Y-56227000D01*
X37527000Y-56227000D01*
X37527000Y-58023000D01*
X38226250Y-58023000D01*
X38375559Y-57873691D01*
X39640000Y-57873691D01*
X39640000Y-58514250D01*
X39798750Y-58673000D01*
X40848000Y-58673000D01*
X40848000Y-57523750D01*
X41102000Y-57523750D01*
X41102000Y-58673000D01*
X42151250Y-58673000D01*
X42310000Y-58514250D01*
X42310000Y-57873691D01*
X42213327Y-57640302D01*
X42034699Y-57461673D01*
X41801310Y-57365000D01*
X41260750Y-57365000D01*
X41102000Y-57523750D01*
X40848000Y-57523750D01*
X40689250Y-57365000D01*
X40148690Y-57365000D01*
X39915301Y-57461673D01*
X39736673Y-57640302D01*
X39640000Y-57873691D01*
X38375559Y-57873691D01*
X38385000Y-57864250D01*
X38385000Y-57373690D01*
X38288327Y-57140301D01*
X38273026Y-57125000D01*
X38288327Y-57109699D01*
X38385000Y-56876310D01*
X38385000Y-56654367D01*
X39342908Y-56654367D01*
X39422970Y-56848132D01*
X39571088Y-56996509D01*
X39764713Y-57076909D01*
X39974367Y-57077092D01*
X40168132Y-56997030D01*
X40316509Y-56848912D01*
X40396909Y-56655287D01*
X40397092Y-56445633D01*
X40317030Y-56251868D01*
X40168912Y-56103491D01*
X39975287Y-56023091D01*
X39765633Y-56022908D01*
X39571868Y-56102970D01*
X39423491Y-56251088D01*
X39343091Y-56444713D01*
X39342908Y-56654367D01*
X38385000Y-56654367D01*
X38385000Y-56385750D01*
X38226250Y-56227000D01*
X37527000Y-56227000D01*
X37273000Y-56227000D01*
X37253000Y-56227000D01*
X37253000Y-55973000D01*
X37273000Y-55973000D01*
X37273000Y-55953000D01*
X37527000Y-55953000D01*
X37527000Y-55973000D01*
X38226250Y-55973000D01*
X38385000Y-55814250D01*
X38385000Y-55323690D01*
X38288327Y-55090301D01*
X38160415Y-54962389D01*
X38493402Y-54629401D01*
X38511889Y-54727650D01*
X38556934Y-54797651D01*
X38553491Y-54801088D01*
X38473091Y-54994713D01*
X38472908Y-55204367D01*
X38552970Y-55398132D01*
X38701088Y-55546509D01*
X38894713Y-55626909D01*
X39104367Y-55627092D01*
X39298132Y-55547030D01*
X39446509Y-55398912D01*
X39526909Y-55205287D01*
X39527028Y-55069224D01*
X39600206Y-54959705D01*
X39610074Y-54910095D01*
X39610605Y-54907426D01*
X39775000Y-54907426D01*
X39877650Y-54888111D01*
X39971927Y-54827445D01*
X40035175Y-54734880D01*
X40057426Y-54625000D01*
X40057426Y-54285750D01*
X40140000Y-54285750D01*
X40140000Y-54751310D01*
X40236673Y-54984699D01*
X40415302Y-55163327D01*
X40648691Y-55260000D01*
X40989250Y-55260000D01*
X41148000Y-55101250D01*
X41148000Y-54127000D01*
X41402000Y-54127000D01*
X41402000Y-55101250D01*
X41560750Y-55260000D01*
X41901309Y-55260000D01*
X42134698Y-55163327D01*
X42313327Y-54984699D01*
X42410000Y-54751310D01*
X42410000Y-54285750D01*
X42251250Y-54127000D01*
X41402000Y-54127000D01*
X41148000Y-54127000D01*
X40298750Y-54127000D01*
X40140000Y-54285750D01*
X40057426Y-54285750D01*
X40057426Y-53375000D01*
X40038111Y-53272350D01*
X40022887Y-53248690D01*
X40140000Y-53248690D01*
X40140000Y-53714250D01*
X40298750Y-53873000D01*
X41148000Y-53873000D01*
X41148000Y-53026250D01*
X41198000Y-52976250D01*
X41198000Y-52898750D01*
X41402000Y-52898750D01*
X41402000Y-53873000D01*
X42251250Y-53873000D01*
X42410000Y-53714250D01*
X42410000Y-53248690D01*
X42313327Y-53015301D01*
X42260526Y-52962500D01*
X42363327Y-52859699D01*
X42460000Y-52626310D01*
X42460000Y-52160750D01*
X42301250Y-52002000D01*
X41452000Y-52002000D01*
X41452000Y-52848750D01*
X41402000Y-52898750D01*
X41198000Y-52898750D01*
X41198000Y-52002000D01*
X40348750Y-52002000D01*
X40190000Y-52160750D01*
X40190000Y-52626310D01*
X40286673Y-52859699D01*
X40339474Y-52912500D01*
X40236673Y-53015301D01*
X40140000Y-53248690D01*
X40022887Y-53248690D01*
X39977445Y-53178073D01*
X39884880Y-53114825D01*
X39775000Y-53092574D01*
X39677000Y-53092574D01*
X39677000Y-52782426D01*
X39825000Y-52782426D01*
X39927650Y-52763111D01*
X40021927Y-52702445D01*
X40085175Y-52609880D01*
X40107426Y-52500000D01*
X40107426Y-51259509D01*
X40190000Y-51225390D01*
X40190000Y-51589250D01*
X40348750Y-51748000D01*
X41198000Y-51748000D01*
X41198000Y-50773750D01*
X41039250Y-50615000D01*
X40698691Y-50615000D01*
X40465302Y-50711673D01*
X40427023Y-50749952D01*
X40427092Y-50670633D01*
X40400975Y-50607426D01*
X40825000Y-50607426D01*
X40927650Y-50588111D01*
X41021927Y-50527445D01*
X41085175Y-50434880D01*
X41107426Y-50325000D01*
X41107426Y-50300228D01*
X41516474Y-50709276D01*
X41452000Y-50773750D01*
X41452000Y-51748000D01*
X42301250Y-51748000D01*
X42428224Y-51621026D01*
X42628000Y-51820802D01*
X42628000Y-53019995D01*
X42627999Y-53020000D01*
X42654794Y-53154705D01*
X42731098Y-53268902D01*
X43990463Y-54528267D01*
X43936709Y-54608716D01*
X43850921Y-55040000D01*
X43936709Y-55471284D01*
X44181012Y-55836909D01*
X44546637Y-56081212D01*
X44977921Y-56167000D01*
X45022079Y-56167000D01*
X45453363Y-56081212D01*
X45818988Y-55836909D01*
X46063291Y-55471284D01*
X46149079Y-55040000D01*
X46063291Y-54608716D01*
X45818988Y-54243091D01*
X45453363Y-53998788D01*
X45022079Y-53913000D01*
X44977921Y-53913000D01*
X44546637Y-53998788D01*
X44492659Y-54034855D01*
X43332000Y-52874196D01*
X43332000Y-52500000D01*
X43850921Y-52500000D01*
X43936709Y-52931284D01*
X44181012Y-53296909D01*
X44546637Y-53541212D01*
X44977921Y-53627000D01*
X45022079Y-53627000D01*
X45453363Y-53541212D01*
X45818988Y-53296909D01*
X46063291Y-52931284D01*
X46149079Y-52500000D01*
X46063291Y-52068716D01*
X45818988Y-51703091D01*
X45453363Y-51458788D01*
X45022079Y-51373000D01*
X44977921Y-51373000D01*
X44546637Y-51458788D01*
X44181012Y-51703091D01*
X43936709Y-52068716D01*
X43850921Y-52500000D01*
X43332000Y-52500000D01*
X43332000Y-51675003D01*
X43332001Y-51674998D01*
X43305206Y-51540293D01*
X43228902Y-51426096D01*
X41762806Y-49960000D01*
X43850921Y-49960000D01*
X43936709Y-50391284D01*
X44181012Y-50756909D01*
X44546637Y-51001212D01*
X44977921Y-51087000D01*
X45022079Y-51087000D01*
X45453363Y-51001212D01*
X45818988Y-50756909D01*
X46063291Y-50391284D01*
X46149079Y-49960000D01*
X46063291Y-49528716D01*
X45818988Y-49163091D01*
X45453363Y-48918788D01*
X45022079Y-48833000D01*
X44977921Y-48833000D01*
X44546637Y-48918788D01*
X44181012Y-49163091D01*
X43936709Y-49528716D01*
X43850921Y-49960000D01*
X41762806Y-49960000D01*
X41325416Y-49522610D01*
X41363327Y-49484698D01*
X41460000Y-49251309D01*
X41460000Y-49183750D01*
X41301250Y-49025000D01*
X40002000Y-49025000D01*
X40002000Y-49055100D01*
X39748000Y-49055100D01*
X39748000Y-49025000D01*
X39728000Y-49025000D01*
X39728000Y-48834586D01*
X39769713Y-48851907D01*
X39979367Y-48852090D01*
X40044930Y-48825000D01*
X41301250Y-48825000D01*
X41460000Y-48666250D01*
X41460000Y-48598691D01*
X41363327Y-48365302D01*
X41184699Y-48186673D01*
X41026291Y-48121058D01*
X41085175Y-48034880D01*
X41107426Y-47925000D01*
X41107426Y-47525000D01*
X41088111Y-47422350D01*
X41086599Y-47420000D01*
X43850921Y-47420000D01*
X43936709Y-47851284D01*
X44181012Y-48216909D01*
X44546637Y-48461212D01*
X44977921Y-48547000D01*
X45022079Y-48547000D01*
X45453363Y-48461212D01*
X45818988Y-48216909D01*
X46063291Y-47851284D01*
X46149079Y-47420000D01*
X46063291Y-46988716D01*
X45818988Y-46623091D01*
X45453363Y-46378788D01*
X45022079Y-46293000D01*
X44977921Y-46293000D01*
X44546637Y-46378788D01*
X44181012Y-46623091D01*
X43936709Y-46988716D01*
X43850921Y-47420000D01*
X41086599Y-47420000D01*
X41027445Y-47328073D01*
X40934880Y-47264825D01*
X40825000Y-47242574D01*
X39051999Y-47242574D01*
X39051999Y-47095805D01*
X39720785Y-46427019D01*
X39804367Y-46427092D01*
X39998132Y-46347030D01*
X40146509Y-46198912D01*
X40226909Y-46005287D01*
X40227092Y-45795633D01*
X40154522Y-45620000D01*
X40166309Y-45620000D01*
X40399698Y-45523327D01*
X40578327Y-45344699D01*
X40675000Y-45111310D01*
X40675000Y-44880000D01*
X43850921Y-44880000D01*
X43936709Y-45311284D01*
X44181012Y-45676909D01*
X44546637Y-45921212D01*
X44977921Y-46007000D01*
X45022079Y-46007000D01*
X45453363Y-45921212D01*
X45818988Y-45676909D01*
X46063291Y-45311284D01*
X46149079Y-44880000D01*
X46063291Y-44448716D01*
X45818988Y-44083091D01*
X45453363Y-43838788D01*
X45022079Y-43753000D01*
X44977921Y-43753000D01*
X44546637Y-43838788D01*
X44181012Y-44083091D01*
X43936709Y-44448716D01*
X43850921Y-44880000D01*
X40675000Y-44880000D01*
X40675000Y-44770750D01*
X40516250Y-44612000D01*
X39667000Y-44612000D01*
X39667000Y-44632000D01*
X39413000Y-44632000D01*
X39413000Y-44612000D01*
X39393000Y-44612000D01*
X39393000Y-44358000D01*
X39413000Y-44358000D01*
X39413000Y-44338000D01*
X39667000Y-44338000D01*
X39667000Y-44358000D01*
X40516250Y-44358000D01*
X40675000Y-44199250D01*
X40675000Y-43858690D01*
X40578327Y-43625301D01*
X40399698Y-43446673D01*
X40327426Y-43416737D01*
X40327426Y-42980000D01*
X40308111Y-42877350D01*
X40294270Y-42855840D01*
X40305175Y-42839880D01*
X40327426Y-42730000D01*
X40327426Y-42340000D01*
X43850921Y-42340000D01*
X43936709Y-42771284D01*
X44181012Y-43136909D01*
X44546637Y-43381212D01*
X44977921Y-43467000D01*
X45022079Y-43467000D01*
X45453363Y-43381212D01*
X45818988Y-43136909D01*
X46063291Y-42771284D01*
X46149079Y-42340000D01*
X46063291Y-41908716D01*
X45818988Y-41543091D01*
X45453363Y-41298788D01*
X45022079Y-41213000D01*
X44977921Y-41213000D01*
X44546637Y-41298788D01*
X44181012Y-41543091D01*
X43936709Y-41908716D01*
X43850921Y-42340000D01*
X40327426Y-42340000D01*
X40327426Y-41980000D01*
X40308111Y-41877350D01*
X40294270Y-41855840D01*
X40305175Y-41839880D01*
X40327426Y-41730000D01*
X40327426Y-40980000D01*
X40308111Y-40877350D01*
X40294270Y-40855840D01*
X40305175Y-40839880D01*
X40327426Y-40730000D01*
X40327426Y-39980000D01*
X40308111Y-39877350D01*
X40294270Y-39855840D01*
X40305175Y-39839880D01*
X40327426Y-39730000D01*
X40327426Y-39147762D01*
X40376088Y-39196509D01*
X40569713Y-39276909D01*
X40779367Y-39277092D01*
X40973132Y-39197030D01*
X41068328Y-39102000D01*
X41242574Y-39102000D01*
X41242574Y-39675000D01*
X41261889Y-39777650D01*
X41322555Y-39871927D01*
X41415120Y-39935175D01*
X41525000Y-39957426D01*
X42825000Y-39957426D01*
X42927650Y-39938111D01*
X43021927Y-39877445D01*
X43074843Y-39800000D01*
X43850921Y-39800000D01*
X43936709Y-40231284D01*
X44181012Y-40596909D01*
X44546637Y-40841212D01*
X44977921Y-40927000D01*
X45022079Y-40927000D01*
X45453363Y-40841212D01*
X45818988Y-40596909D01*
X46063291Y-40231284D01*
X46149079Y-39800000D01*
X46063291Y-39368716D01*
X45818988Y-39003091D01*
X45453363Y-38758788D01*
X45022079Y-38673000D01*
X44977921Y-38673000D01*
X44546637Y-38758788D01*
X44181012Y-39003091D01*
X43936709Y-39368716D01*
X43850921Y-39800000D01*
X43074843Y-39800000D01*
X43085175Y-39784880D01*
X43107426Y-39675000D01*
X43107426Y-38175000D01*
X43088111Y-38072350D01*
X43027445Y-37978073D01*
X42934880Y-37914825D01*
X42825000Y-37892574D01*
X41525000Y-37892574D01*
X41422350Y-37911889D01*
X41328073Y-37972555D01*
X41264825Y-38065120D01*
X41242574Y-38175000D01*
X41242574Y-38398000D01*
X41068256Y-38398000D01*
X40973912Y-38303491D01*
X40780287Y-38223091D01*
X40570633Y-38222908D01*
X40376868Y-38302970D01*
X40327426Y-38352326D01*
X40327426Y-37980000D01*
X40308111Y-37877350D01*
X40294270Y-37855840D01*
X40305175Y-37839880D01*
X40327426Y-37730000D01*
X40327426Y-36980000D01*
X40308111Y-36877350D01*
X40295927Y-36858415D01*
X40305175Y-36844880D01*
X40327426Y-36735000D01*
X40327426Y-36510750D01*
X40890000Y-36510750D01*
X40890000Y-37101309D01*
X40986673Y-37334698D01*
X41165301Y-37513327D01*
X41398690Y-37610000D01*
X41889250Y-37610000D01*
X42048000Y-37451250D01*
X42048000Y-36352000D01*
X42302000Y-36352000D01*
X42302000Y-37451250D01*
X42460750Y-37610000D01*
X42951310Y-37610000D01*
X43184699Y-37513327D01*
X43363327Y-37334698D01*
X43394267Y-37260000D01*
X43850921Y-37260000D01*
X43936709Y-37691284D01*
X44181012Y-38056909D01*
X44546637Y-38301212D01*
X44977921Y-38387000D01*
X45022079Y-38387000D01*
X45453363Y-38301212D01*
X45818988Y-38056909D01*
X46063291Y-37691284D01*
X46149079Y-37260000D01*
X46063291Y-36828716D01*
X45818988Y-36463091D01*
X45453363Y-36218788D01*
X45319628Y-36192186D01*
X45361458Y-36190315D01*
X45784080Y-36015259D01*
X45864353Y-35763958D01*
X45000000Y-34899605D01*
X44135647Y-35763958D01*
X44215920Y-36015259D01*
X44695408Y-36189195D01*
X44546637Y-36218788D01*
X44181012Y-36463091D01*
X43936709Y-36828716D01*
X43850921Y-37260000D01*
X43394267Y-37260000D01*
X43460000Y-37101309D01*
X43460000Y-36510750D01*
X43301250Y-36352000D01*
X42302000Y-36352000D01*
X42048000Y-36352000D01*
X41048750Y-36352000D01*
X40890000Y-36510750D01*
X40327426Y-36510750D01*
X40327426Y-36303263D01*
X40399698Y-36273327D01*
X40578327Y-36094699D01*
X40675000Y-35861310D01*
X40675000Y-35520750D01*
X40516250Y-35362000D01*
X39667000Y-35362000D01*
X39667000Y-35382000D01*
X39413000Y-35382000D01*
X39413000Y-35362000D01*
X39393000Y-35362000D01*
X39393000Y-35348691D01*
X40890000Y-35348691D01*
X40890000Y-35939250D01*
X41048750Y-36098000D01*
X42048000Y-36098000D01*
X42048000Y-34998750D01*
X42302000Y-34998750D01*
X42302000Y-36098000D01*
X43301250Y-36098000D01*
X43460000Y-35939250D01*
X43460000Y-35348691D01*
X43363327Y-35115302D01*
X43184699Y-34936673D01*
X42951310Y-34840000D01*
X42460750Y-34840000D01*
X42302000Y-34998750D01*
X42048000Y-34998750D01*
X41889250Y-34840000D01*
X41398690Y-34840000D01*
X41165301Y-34936673D01*
X40986673Y-35115302D01*
X40890000Y-35348691D01*
X39393000Y-35348691D01*
X39393000Y-35108000D01*
X39413000Y-35108000D01*
X39413000Y-34258750D01*
X39667000Y-34258750D01*
X39667000Y-35108000D01*
X40516250Y-35108000D01*
X40675000Y-34949250D01*
X40675000Y-34608690D01*
X40626367Y-34491279D01*
X43503282Y-34491279D01*
X43529685Y-35081458D01*
X43704741Y-35504080D01*
X43956042Y-35584353D01*
X44820395Y-34720000D01*
X45179605Y-34720000D01*
X46043958Y-35584353D01*
X46295259Y-35504080D01*
X46496718Y-34948721D01*
X46470315Y-34358542D01*
X46295259Y-33935920D01*
X46043958Y-33855647D01*
X45179605Y-34720000D01*
X44820395Y-34720000D01*
X43956042Y-33855647D01*
X43704741Y-33935920D01*
X43503282Y-34491279D01*
X40626367Y-34491279D01*
X40578327Y-34375301D01*
X40399698Y-34196673D01*
X40166309Y-34100000D01*
X39825750Y-34100000D01*
X39667000Y-34258750D01*
X39413000Y-34258750D01*
X39254250Y-34100000D01*
X38913691Y-34100000D01*
X38680302Y-34196673D01*
X38501673Y-34375301D01*
X38473808Y-34442574D01*
X38370335Y-34442574D01*
X38338327Y-34365301D01*
X38159698Y-34186673D01*
X37926309Y-34090000D01*
X37710750Y-34090000D01*
X37552000Y-34248750D01*
X37552000Y-34973000D01*
X37572000Y-34973000D01*
X37572000Y-35227000D01*
X37552000Y-35227000D01*
X37552000Y-35247000D01*
X37298000Y-35247000D01*
X37298000Y-35227000D01*
X37278000Y-35227000D01*
X37278000Y-34973000D01*
X37298000Y-34973000D01*
X37298000Y-34248750D01*
X37139250Y-34090000D01*
X36923691Y-34090000D01*
X36777000Y-34150761D01*
X36777000Y-33676042D01*
X44135647Y-33676042D01*
X45000000Y-34540395D01*
X45864353Y-33676042D01*
X45784080Y-33424741D01*
X45228721Y-33223282D01*
X44638542Y-33249685D01*
X44215920Y-33424741D01*
X44135647Y-33676042D01*
X36777000Y-33676042D01*
X36777000Y-32400000D01*
X36750206Y-32265295D01*
X36673902Y-32151098D01*
X36673899Y-32151096D01*
X36048902Y-31526098D01*
X35934705Y-31449794D01*
X35800000Y-31422999D01*
X35799995Y-31423000D01*
X35114270Y-31423000D01*
X35298132Y-31347030D01*
X35446509Y-31198912D01*
X35500032Y-31070013D01*
X35552970Y-31198132D01*
X35701088Y-31346509D01*
X35894713Y-31426909D01*
X36104367Y-31427092D01*
X36298132Y-31347030D01*
X36446509Y-31198912D01*
X36500032Y-31070013D01*
X36552970Y-31198132D01*
X36701088Y-31346509D01*
X36894713Y-31426909D01*
X37104367Y-31427092D01*
X37298132Y-31347030D01*
X37446509Y-31198912D01*
X37500032Y-31070013D01*
X37552970Y-31198132D01*
X37701088Y-31346509D01*
X37894713Y-31426909D01*
X38104367Y-31427092D01*
X38298132Y-31347030D01*
X38446509Y-31198912D01*
X38500032Y-31070013D01*
X38552970Y-31198132D01*
X38701088Y-31346509D01*
X38894713Y-31426909D01*
X39104367Y-31427092D01*
X39298132Y-31347030D01*
X39446509Y-31198912D01*
X39500032Y-31070013D01*
X39552970Y-31198132D01*
X39701088Y-31346509D01*
X39894713Y-31426909D01*
X40104367Y-31427092D01*
X40298132Y-31347030D01*
X40446509Y-31198912D01*
X40500032Y-31070013D01*
X40552970Y-31198132D01*
X40701088Y-31346509D01*
X40894713Y-31426909D01*
X41104367Y-31427092D01*
X41298132Y-31347030D01*
X41446509Y-31198912D01*
X41500032Y-31070013D01*
X41552970Y-31198132D01*
X41701088Y-31346509D01*
X41894713Y-31426909D01*
X42104367Y-31427092D01*
X42298132Y-31347030D01*
X42446509Y-31198912D01*
X42500032Y-31070013D01*
X42552970Y-31198132D01*
X42701088Y-31346509D01*
X42894713Y-31426909D01*
X43104367Y-31427092D01*
X43298132Y-31347030D01*
X43446509Y-31198912D01*
X43500032Y-31070013D01*
X43552970Y-31198132D01*
X43701088Y-31346509D01*
X43894713Y-31426909D01*
X44104367Y-31427092D01*
X44298132Y-31347030D01*
X44446509Y-31198912D01*
X44500032Y-31070013D01*
X44552970Y-31198132D01*
X44701088Y-31346509D01*
X44894713Y-31426909D01*
X45104367Y-31427092D01*
X45298132Y-31347030D01*
X45446509Y-31198912D01*
X45500032Y-31070013D01*
X45552970Y-31198132D01*
X45701088Y-31346509D01*
X45894713Y-31426909D01*
X46104367Y-31427092D01*
X46298132Y-31347030D01*
X46446509Y-31198912D01*
X46526909Y-31005287D01*
X46527092Y-30795633D01*
X46457414Y-30627000D01*
X46673000Y-30627000D01*
X46673000Y-66967793D01*
G36*
X20454896Y-30801644D02*
X20454713Y-31011298D01*
X20534775Y-31205063D01*
X20682893Y-31353440D01*
X20876518Y-31433840D01*
X21086172Y-31434023D01*
X21279937Y-31353961D01*
X21428314Y-31205843D01*
X21490957Y-31054981D01*
X21552970Y-31205063D01*
X21701088Y-31353440D01*
X21894713Y-31433840D01*
X22104367Y-31434023D01*
X22298132Y-31353961D01*
X22446509Y-31205843D01*
X22500032Y-31076944D01*
X22552970Y-31205063D01*
X22701088Y-31353440D01*
X22894713Y-31433840D01*
X23104367Y-31434023D01*
X23298132Y-31353961D01*
X23446509Y-31205843D01*
X23500032Y-31076944D01*
X23552970Y-31205063D01*
X23701088Y-31353440D01*
X23894713Y-31433840D01*
X24104367Y-31434023D01*
X24298132Y-31353961D01*
X24446509Y-31205843D01*
X24500032Y-31076944D01*
X24552970Y-31205063D01*
X24701088Y-31353440D01*
X24894713Y-31433840D01*
X25104367Y-31434023D01*
X25298132Y-31353961D01*
X25446509Y-31205843D01*
X25500032Y-31076944D01*
X25552970Y-31205063D01*
X25701088Y-31353440D01*
X25894713Y-31433840D01*
X26104367Y-31434023D01*
X26298132Y-31353961D01*
X26446509Y-31205843D01*
X26526909Y-31012218D01*
X26527092Y-30802564D01*
X26454550Y-30627000D01*
X27379240Y-30627000D01*
X27386889Y-30667650D01*
X27447555Y-30761927D01*
X27532546Y-30820000D01*
X27523691Y-30820000D01*
X27290302Y-30916673D01*
X27111673Y-31095301D01*
X27015000Y-31328690D01*
X27015000Y-31469250D01*
X27173750Y-31628000D01*
X27973000Y-31628000D01*
X27973000Y-31608000D01*
X28227000Y-31608000D01*
X28227000Y-31628000D01*
X29026250Y-31628000D01*
X29185000Y-31469250D01*
X29185000Y-31328690D01*
X29088327Y-31095301D01*
X28909698Y-30916673D01*
X28676309Y-30820000D01*
X28665255Y-30820000D01*
X28746927Y-30767445D01*
X28810175Y-30674880D01*
X28819871Y-30627000D01*
X29673000Y-30627000D01*
X29673000Y-31448205D01*
X29667574Y-31475000D01*
X29667574Y-32004665D01*
X29590301Y-32036673D01*
X29411673Y-32215302D01*
X29315000Y-32448691D01*
X29315000Y-32589250D01*
X29473750Y-32748000D01*
X30075000Y-32748000D01*
X30075000Y-32728000D01*
X30325000Y-32728000D01*
X30325000Y-32748000D01*
X30926250Y-32748000D01*
X31085000Y-32589250D01*
X31085000Y-32448691D01*
X31047197Y-32357426D01*
X31275000Y-32357426D01*
X31377650Y-32338111D01*
X31471927Y-32277445D01*
X31525579Y-32198924D01*
X31572555Y-32271927D01*
X31665120Y-32335175D01*
X31775000Y-32357426D01*
X31952803Y-32357426D01*
X31915000Y-32448691D01*
X31915000Y-32589250D01*
X32073750Y-32748000D01*
X32675000Y-32748000D01*
X32675000Y-32728000D01*
X32925000Y-32728000D01*
X32925000Y-32748000D01*
X33526250Y-32748000D01*
X33685000Y-32589250D01*
X33685000Y-32448691D01*
X33588327Y-32215302D01*
X33500025Y-32127000D01*
X35654196Y-32127000D01*
X36073000Y-32545803D01*
X36073000Y-34150761D01*
X35926309Y-34090000D01*
X35710750Y-34090000D01*
X35552000Y-34248750D01*
X35552000Y-34973000D01*
X35572000Y-34973000D01*
X35572000Y-35227000D01*
X35552000Y-35227000D01*
X35552000Y-35951250D01*
X35710750Y-36110000D01*
X35926309Y-36110000D01*
X36159698Y-36013327D01*
X36338327Y-35834699D01*
X36370335Y-35757426D01*
X36479665Y-35757426D01*
X36511673Y-35834699D01*
X36690302Y-36013327D01*
X36923691Y-36110000D01*
X37139250Y-36110000D01*
X37297998Y-35951252D01*
X37297998Y-36110000D01*
X37343648Y-36110000D01*
X37298091Y-36219713D01*
X37297908Y-36429367D01*
X37377970Y-36623132D01*
X37526088Y-36771509D01*
X37719713Y-36851909D01*
X37929367Y-36852092D01*
X38123132Y-36772030D01*
X38218328Y-36677000D01*
X39012574Y-36677000D01*
X39012574Y-36735000D01*
X39031889Y-36837650D01*
X39044073Y-36856585D01*
X39034825Y-36870120D01*
X39012574Y-36980000D01*
X39012574Y-37003000D01*
X37698325Y-37003000D01*
X37648902Y-36953491D01*
X37455277Y-36873091D01*
X37245623Y-36872908D01*
X37051858Y-36952970D01*
X36903481Y-37101088D01*
X36823081Y-37294713D01*
X36822898Y-37504367D01*
X36902960Y-37698132D01*
X37051078Y-37846509D01*
X37244703Y-37926909D01*
X37454357Y-37927092D01*
X37648122Y-37847030D01*
X37788397Y-37707000D01*
X39012574Y-37707000D01*
X39012574Y-37730000D01*
X39031889Y-37832650D01*
X39045730Y-37854160D01*
X39034825Y-37870120D01*
X39012574Y-37980000D01*
X39012574Y-38029341D01*
X39010295Y-38029794D01*
X38896098Y-38106098D01*
X38896096Y-38106101D01*
X36729196Y-40273000D01*
X32818343Y-40273000D01*
X32773912Y-40228491D01*
X32580287Y-40148091D01*
X32370633Y-40147908D01*
X32176868Y-40227970D01*
X32028491Y-40376088D01*
X31948091Y-40569713D01*
X31947908Y-40779367D01*
X32027970Y-40973132D01*
X32057786Y-41003000D01*
X29827426Y-41003000D01*
X29827426Y-40980000D01*
X29808111Y-40877350D01*
X29794270Y-40855840D01*
X29805175Y-40839880D01*
X29827426Y-40730000D01*
X29827426Y-39980000D01*
X29808111Y-39877350D01*
X29794270Y-39855840D01*
X29805175Y-39839880D01*
X29827426Y-39730000D01*
X29827426Y-39707000D01*
X36119995Y-39707000D01*
X36120000Y-39707001D01*
X36254705Y-39680206D01*
X36368902Y-39603902D01*
X36695872Y-39276932D01*
X36879367Y-39277092D01*
X37073132Y-39197030D01*
X37221509Y-39048912D01*
X37301909Y-38855287D01*
X37302092Y-38645633D01*
X37222030Y-38451868D01*
X37073912Y-38303491D01*
X36880287Y-38223091D01*
X36670633Y-38222908D01*
X36476868Y-38302970D01*
X36328491Y-38451088D01*
X36248091Y-38644713D01*
X36248017Y-38729179D01*
X35974196Y-39003000D01*
X29827426Y-39003000D01*
X29827426Y-38980000D01*
X29808111Y-38877350D01*
X29794270Y-38855840D01*
X29805175Y-38839880D01*
X29827426Y-38730000D01*
X29827426Y-37980000D01*
X29808111Y-37877350D01*
X29794270Y-37855840D01*
X29805175Y-37839880D01*
X29827426Y-37730000D01*
X29827426Y-36980000D01*
X29808111Y-36877350D01*
X29794270Y-36855840D01*
X29805175Y-36839880D01*
X29827426Y-36730000D01*
X29827426Y-36360000D01*
X29921309Y-36360000D01*
X30039900Y-36310878D01*
X30126469Y-36397599D01*
X30320094Y-36477999D01*
X30529748Y-36478182D01*
X30723513Y-36398120D01*
X30871890Y-36250002D01*
X30930024Y-36110000D01*
X31139250Y-36110000D01*
X31298000Y-35951250D01*
X31298000Y-35227000D01*
X31278000Y-35227000D01*
X31278000Y-34973000D01*
X31298000Y-34973000D01*
X31298000Y-34851999D01*
X31552000Y-34851999D01*
X31552000Y-34973000D01*
X31572000Y-34973000D01*
X31572000Y-35227000D01*
X31552000Y-35227000D01*
X31552000Y-35951250D01*
X31710750Y-36110000D01*
X31926309Y-36110000D01*
X32159698Y-36013327D01*
X32338327Y-35834699D01*
X32370335Y-35757426D01*
X32800000Y-35757426D01*
X32902650Y-35738111D01*
X32924160Y-35724270D01*
X32940120Y-35735175D01*
X33050000Y-35757426D01*
X33800000Y-35757426D01*
X33902650Y-35738111D01*
X33924160Y-35724270D01*
X33940120Y-35735175D01*
X34050000Y-35757426D01*
X34479665Y-35757426D01*
X34511673Y-35834699D01*
X34690302Y-36013327D01*
X34923691Y-36110000D01*
X35139250Y-36110000D01*
X35298000Y-35951250D01*
X35298000Y-35227000D01*
X35278000Y-35227000D01*
X35278000Y-34973000D01*
X35298000Y-34973000D01*
X35298000Y-34248750D01*
X35139250Y-34090000D01*
X34923691Y-34090000D01*
X34690302Y-34186673D01*
X34612389Y-34264585D01*
X34598901Y-34251097D01*
X34484704Y-34174793D01*
X34349999Y-34147998D01*
X34349994Y-34147999D01*
X32066331Y-34147999D01*
X31926309Y-34090000D01*
X31710750Y-34090000D01*
X31652751Y-34147999D01*
X31197249Y-34147999D01*
X31139250Y-34090000D01*
X30923691Y-34090000D01*
X30862450Y-34115367D01*
X30648170Y-33901087D01*
X30533973Y-33824783D01*
X30399268Y-33797988D01*
X30399263Y-33797989D01*
X30327002Y-33797989D01*
X30327002Y-33653252D01*
X30483750Y-33810000D01*
X30576310Y-33810000D01*
X30809699Y-33713327D01*
X30988327Y-33534698D01*
X31085000Y-33301309D01*
X31085000Y-33160750D01*
X31915000Y-33160750D01*
X31915000Y-33301309D01*
X32011673Y-33534698D01*
X32190301Y-33713327D01*
X32423690Y-33810000D01*
X32516250Y-33810000D01*
X32675000Y-33651250D01*
X32675000Y-33002000D01*
X32925000Y-33002000D01*
X32925000Y-33651250D01*
X33083750Y-33810000D01*
X33176310Y-33810000D01*
X33409699Y-33713327D01*
X33588327Y-33534698D01*
X33685000Y-33301309D01*
X33685000Y-33160750D01*
X33526250Y-33002000D01*
X32925000Y-33002000D01*
X32675000Y-33002000D01*
X32073750Y-33002000D01*
X31915000Y-33160750D01*
X31085000Y-33160750D01*
X30926250Y-33002000D01*
X30325000Y-33002000D01*
X30325000Y-33022000D01*
X30075000Y-33022000D01*
X30075000Y-33002000D01*
X29473750Y-33002000D01*
X29315000Y-33160750D01*
X29315000Y-33301309D01*
X29411673Y-33534698D01*
X29590301Y-33713327D01*
X29794693Y-33797989D01*
X28540735Y-33797989D01*
X28540730Y-33797988D01*
X28406025Y-33824783D01*
X28291828Y-33901087D01*
X27482426Y-34710489D01*
X27482426Y-34400000D01*
X27463111Y-34297350D01*
X27402445Y-34203073D01*
X27309880Y-34139825D01*
X27200000Y-34117574D01*
X25900000Y-34117574D01*
X25797350Y-34136889D01*
X25703073Y-34197555D01*
X25639825Y-34290120D01*
X25617574Y-34400000D01*
X25617574Y-35900000D01*
X25636889Y-36002650D01*
X25697555Y-36096927D01*
X25790120Y-36160175D01*
X25900000Y-36182426D01*
X27200000Y-36182426D01*
X27302650Y-36163111D01*
X27396927Y-36102445D01*
X27460175Y-36009880D01*
X27482426Y-35900000D01*
X27482426Y-35502000D01*
X27540714Y-35502000D01*
X27540719Y-35502001D01*
X27675424Y-35475206D01*
X27789621Y-35398902D01*
X28204637Y-34983887D01*
X28318750Y-35098000D01*
X29168000Y-35098000D01*
X29168000Y-35078000D01*
X29422000Y-35078000D01*
X29422000Y-35098000D01*
X29442000Y-35098000D01*
X29442000Y-35352000D01*
X29422000Y-35352000D01*
X29422000Y-35372000D01*
X29168000Y-35372000D01*
X29168000Y-35352000D01*
X28318750Y-35352000D01*
X28160000Y-35510750D01*
X28160000Y-35851310D01*
X28256673Y-36084699D01*
X28435302Y-36263327D01*
X28512574Y-36295334D01*
X28512574Y-36730000D01*
X28531889Y-36832650D01*
X28545730Y-36854160D01*
X28534825Y-36870120D01*
X28512574Y-36980000D01*
X28512574Y-37359621D01*
X27482426Y-38389768D01*
X27482426Y-37100000D01*
X27463111Y-36997350D01*
X27402445Y-36903073D01*
X27309880Y-36839825D01*
X27200000Y-36817574D01*
X25900000Y-36817574D01*
X25797350Y-36836889D01*
X25703073Y-36897555D01*
X25639825Y-36990120D01*
X25617574Y-37100000D01*
X25617574Y-37504449D01*
X25537644Y-37520348D01*
X25515295Y-37524794D01*
X25401098Y-37601098D01*
X25401096Y-37601101D01*
X25029172Y-37973025D01*
X24895633Y-37972908D01*
X24701868Y-38052970D01*
X24553491Y-38201088D01*
X24473091Y-38394713D01*
X24472908Y-38604367D01*
X24552970Y-38798132D01*
X24701088Y-38946509D01*
X24894713Y-39026909D01*
X25104367Y-39027092D01*
X25298132Y-38947030D01*
X25446509Y-38798912D01*
X25526909Y-38605287D01*
X25527026Y-38470777D01*
X25617574Y-38380229D01*
X25617574Y-38600000D01*
X25636889Y-38702650D01*
X25697555Y-38796927D01*
X25790120Y-38860175D01*
X25900000Y-38882426D01*
X26989768Y-38882426D01*
X26301098Y-39571096D01*
X26224794Y-39685293D01*
X26197999Y-39819998D01*
X26198000Y-39820003D01*
X26198000Y-39962574D01*
X25900000Y-39962574D01*
X25797350Y-39981889D01*
X25703073Y-40042555D01*
X25639825Y-40135120D01*
X25617574Y-40245000D01*
X25617574Y-41745000D01*
X25636889Y-41847650D01*
X25637455Y-41848529D01*
X25542042Y-41848446D01*
X25348277Y-41928508D01*
X25199900Y-42076626D01*
X25119500Y-42270251D01*
X25119317Y-42479905D01*
X25199379Y-42673670D01*
X25294409Y-42768866D01*
X25294409Y-43591404D01*
X25294408Y-43591409D01*
X25321203Y-43726114D01*
X25397507Y-43840311D01*
X25501096Y-43943899D01*
X25501098Y-43943902D01*
X25615295Y-44020206D01*
X25617574Y-44020659D01*
X25617574Y-44445000D01*
X25636889Y-44547650D01*
X25697555Y-44641927D01*
X25790120Y-44705175D01*
X25900000Y-44727426D01*
X27200000Y-44727426D01*
X27302650Y-44708111D01*
X27396927Y-44647445D01*
X27460175Y-44554880D01*
X27482426Y-44445000D01*
X27482426Y-42945000D01*
X27463111Y-42842350D01*
X27402445Y-42748073D01*
X27309880Y-42684825D01*
X27200000Y-42662574D01*
X26097849Y-42662574D01*
X26173318Y-42480825D01*
X26173501Y-42271171D01*
X26093439Y-42077406D01*
X26043546Y-42027426D01*
X27200000Y-42027426D01*
X27302650Y-42008111D01*
X27396927Y-41947445D01*
X27460175Y-41854880D01*
X27482426Y-41745000D01*
X27482426Y-40245000D01*
X27463111Y-40142350D01*
X27402445Y-40048073D01*
X27309880Y-39984825D01*
X27200000Y-39962574D01*
X26905228Y-39962574D01*
X28512574Y-38355227D01*
X28512574Y-38730000D01*
X28531889Y-38832650D01*
X28545730Y-38854160D01*
X28534825Y-38870120D01*
X28512574Y-38980000D01*
X28512574Y-39730000D01*
X28531889Y-39832650D01*
X28545730Y-39854160D01*
X28534825Y-39870120D01*
X28512574Y-39980000D01*
X28512574Y-40730000D01*
X28531889Y-40832650D01*
X28545730Y-40854160D01*
X28534825Y-40870120D01*
X28512574Y-40980000D01*
X28512574Y-41730000D01*
X28531889Y-41832650D01*
X28545730Y-41854160D01*
X28534825Y-41870120D01*
X28512574Y-41980000D01*
X28512574Y-42730000D01*
X28531889Y-42832650D01*
X28545730Y-42854160D01*
X28534825Y-42870120D01*
X28512574Y-42980000D01*
X28512574Y-43414666D01*
X28435302Y-43446673D01*
X28256673Y-43625301D01*
X28160000Y-43858690D01*
X28160000Y-44199250D01*
X28318750Y-44358000D01*
X29168000Y-44358000D01*
X29168000Y-44338000D01*
X29422000Y-44338000D01*
X29422000Y-44358000D01*
X29442000Y-44358000D01*
X29442000Y-44612000D01*
X29422000Y-44612000D01*
X29422000Y-45461250D01*
X29580750Y-45620000D01*
X29921309Y-45620000D01*
X30154698Y-45523327D01*
X30333327Y-45344699D01*
X30365335Y-45267426D01*
X30800000Y-45267426D01*
X30902650Y-45248111D01*
X30924160Y-45234270D01*
X30940120Y-45245175D01*
X31050000Y-45267426D01*
X31800000Y-45267426D01*
X31902650Y-45248111D01*
X31924160Y-45234270D01*
X31940120Y-45245175D01*
X32050000Y-45267426D01*
X32800000Y-45267426D01*
X32902650Y-45248111D01*
X32924160Y-45234270D01*
X32940120Y-45245175D01*
X33050000Y-45267426D01*
X33800000Y-45267426D01*
X33902650Y-45248111D01*
X33924160Y-45234270D01*
X33940120Y-45245175D01*
X34050000Y-45267426D01*
X34800000Y-45267426D01*
X34902650Y-45248111D01*
X34924160Y-45234270D01*
X34940120Y-45245175D01*
X35050000Y-45267426D01*
X35800000Y-45267426D01*
X35902650Y-45248111D01*
X35924160Y-45234270D01*
X35940120Y-45245175D01*
X36050000Y-45267426D01*
X36800000Y-45267426D01*
X36902650Y-45248111D01*
X36924160Y-45234270D01*
X36940120Y-45245175D01*
X37050000Y-45267426D01*
X37662343Y-45267426D01*
X37553491Y-45376088D01*
X37473091Y-45569713D01*
X37472952Y-45729245D01*
X37273964Y-45928233D01*
X37266635Y-45910496D01*
X37118517Y-45762119D01*
X36924892Y-45681719D01*
X36715238Y-45681536D01*
X36521473Y-45761598D01*
X36373096Y-45909716D01*
X36292696Y-46103341D01*
X36292668Y-46134879D01*
X36217662Y-46059741D01*
X36166358Y-46038438D01*
X36173496Y-46021247D01*
X36173679Y-45811593D01*
X36093617Y-45617828D01*
X35945499Y-45469451D01*
X35751874Y-45389051D01*
X35542220Y-45388868D01*
X35348455Y-45468930D01*
X35200078Y-45617048D01*
X35119678Y-45810673D01*
X35119569Y-45935164D01*
X35030287Y-45898091D01*
X34820633Y-45897908D01*
X34626868Y-45977970D01*
X34478491Y-46126088D01*
X34398091Y-46319713D01*
X34397908Y-46529367D01*
X34416277Y-46573824D01*
X34293750Y-46573824D01*
X34191100Y-46593139D01*
X34169590Y-46606980D01*
X34153630Y-46596075D01*
X34043750Y-46573824D01*
X33933831Y-46573824D01*
X33951909Y-46530287D01*
X33952092Y-46320633D01*
X33872030Y-46126868D01*
X33723912Y-45978491D01*
X33530287Y-45898091D01*
X33445824Y-45898017D01*
X33445842Y-45876883D01*
X33365780Y-45683118D01*
X33217662Y-45534741D01*
X33024037Y-45454341D01*
X32814383Y-45454158D01*
X32620618Y-45534220D01*
X32472241Y-45682338D01*
X32391841Y-45875963D01*
X32391816Y-45904226D01*
X32314383Y-45904158D01*
X32120618Y-45984220D01*
X31972241Y-46132338D01*
X31952039Y-46180989D01*
X31952092Y-46120633D01*
X31872030Y-45926868D01*
X31723912Y-45778491D01*
X31530287Y-45698091D01*
X31320633Y-45697908D01*
X31126868Y-45777970D01*
X30978491Y-45926088D01*
X30898091Y-46119713D01*
X30897908Y-46329367D01*
X30977970Y-46523132D01*
X31073000Y-46618328D01*
X31073000Y-46674825D01*
X31069115Y-46694357D01*
X31033575Y-46746370D01*
X31011324Y-46856250D01*
X31011324Y-47448824D01*
X30726915Y-47448824D01*
X30727092Y-47245633D01*
X30647030Y-47051868D01*
X30498912Y-46903491D01*
X30305287Y-46823091D01*
X30095633Y-46822908D01*
X29901868Y-46902970D01*
X29753491Y-47051088D01*
X29673091Y-47244713D01*
X29672908Y-47454367D01*
X29728037Y-47587789D01*
X29526108Y-47587613D01*
X29332343Y-47667675D01*
X29183966Y-47815793D01*
X29103566Y-48009418D01*
X29103492Y-48094109D01*
X28983738Y-48044383D01*
X28774084Y-48044200D01*
X28580319Y-48124262D01*
X28431942Y-48272380D01*
X28351542Y-48466005D01*
X28351443Y-48579485D01*
X28231074Y-48579380D01*
X28037309Y-48659442D01*
X27888932Y-48807560D01*
X27808532Y-49001185D01*
X27808349Y-49210839D01*
X27875393Y-49373099D01*
X27797278Y-49451078D01*
X27716878Y-49644703D01*
X27716699Y-49849768D01*
X27697999Y-49943777D01*
X27698000Y-49943782D01*
X27698000Y-50417574D01*
X27430000Y-50417574D01*
X27327350Y-50436889D01*
X27233073Y-50497555D01*
X27169825Y-50590120D01*
X27147574Y-50700000D01*
X27147574Y-53102655D01*
X27110345Y-53065361D01*
X26916720Y-52984961D01*
X26707066Y-52984778D01*
X26513301Y-53064840D01*
X26364924Y-53212958D01*
X26284524Y-53406583D01*
X26284341Y-53616237D01*
X26364403Y-53810002D01*
X26512521Y-53958379D01*
X26706146Y-54038779D01*
X26915800Y-54038962D01*
X27109565Y-53958900D01*
X27111891Y-53956578D01*
X27134201Y-53978888D01*
X27134203Y-53978891D01*
X27224983Y-54039548D01*
X25486402Y-54039548D01*
X25392058Y-53945039D01*
X25198433Y-53864639D01*
X24988779Y-53864456D01*
X24795014Y-53944518D01*
X24646637Y-54092636D01*
X24566237Y-54286261D01*
X24566054Y-54495915D01*
X24646116Y-54689680D01*
X24794234Y-54838057D01*
X24980916Y-54915574D01*
X23983000Y-54915574D01*
X23880350Y-54934889D01*
X23786073Y-54995555D01*
X23722825Y-55088120D01*
X23700574Y-55198000D01*
X23700574Y-55566000D01*
X23645005Y-55566000D01*
X23645000Y-55565999D01*
X23532644Y-55588348D01*
X23510295Y-55592794D01*
X23404838Y-55663258D01*
X23396098Y-55669098D01*
X23267959Y-55797237D01*
X23191655Y-55911434D01*
X23164860Y-56046139D01*
X23164861Y-56046144D01*
X23164861Y-56926575D01*
X23068988Y-56783091D01*
X22703363Y-56538788D01*
X22272079Y-56453000D01*
X22227921Y-56453000D01*
X21796637Y-56538788D01*
X21431012Y-56783091D01*
X21186709Y-57148716D01*
X21100921Y-57580000D01*
X21186709Y-58011284D01*
X21431012Y-58376909D01*
X21796637Y-58621212D01*
X22227921Y-58707000D01*
X22272079Y-58707000D01*
X22703363Y-58621212D01*
X23068988Y-58376909D01*
X23164861Y-58233425D01*
X23164861Y-58975856D01*
X23164860Y-58975861D01*
X23191655Y-59110566D01*
X23267959Y-59224763D01*
X23726272Y-59683075D01*
X23722825Y-59688120D01*
X23700574Y-59798000D01*
X23700574Y-61298000D01*
X23719889Y-61400650D01*
X23780555Y-61494927D01*
X23873120Y-61558175D01*
X23983000Y-61580426D01*
X25983000Y-61580426D01*
X26085650Y-61561111D01*
X26179927Y-61500445D01*
X26216685Y-61446649D01*
X26216685Y-61975574D01*
X25942000Y-61975574D01*
X25839350Y-61994889D01*
X25745073Y-62055555D01*
X25681825Y-62148120D01*
X25659574Y-62258000D01*
X25659574Y-63508000D01*
X25678889Y-63610650D01*
X25739555Y-63704927D01*
X25832120Y-63768175D01*
X25942000Y-63790426D01*
X26942000Y-63790426D01*
X27044650Y-63771111D01*
X27138927Y-63710445D01*
X27202175Y-63617880D01*
X27224426Y-63508000D01*
X27224426Y-63155750D01*
X27325000Y-63155750D01*
X27325000Y-63621310D01*
X27421673Y-63854699D01*
X27600302Y-64033327D01*
X27833691Y-64130000D01*
X28174250Y-64130000D01*
X28333000Y-63971250D01*
X28333000Y-62997000D01*
X28587000Y-62997000D01*
X28587000Y-63971250D01*
X28745750Y-64130000D01*
X29086309Y-64130000D01*
X29319698Y-64033327D01*
X29498327Y-63854699D01*
X29595000Y-63621310D01*
X29595000Y-63155750D01*
X29436250Y-62997000D01*
X28587000Y-62997000D01*
X28333000Y-62997000D01*
X27483750Y-62997000D01*
X27325000Y-63155750D01*
X27224426Y-63155750D01*
X27224426Y-62258000D01*
X27205111Y-62155350D01*
X27181521Y-62118690D01*
X27325000Y-62118690D01*
X27325000Y-62584250D01*
X27483750Y-62743000D01*
X28333000Y-62743000D01*
X28333000Y-61768750D01*
X28587000Y-61768750D01*
X28587000Y-62743000D01*
X29436250Y-62743000D01*
X29595000Y-62584250D01*
X29595000Y-62118690D01*
X29498327Y-61885301D01*
X29319698Y-61706673D01*
X29086309Y-61610000D01*
X28745750Y-61610000D01*
X28587000Y-61768750D01*
X28333000Y-61768750D01*
X28174250Y-61610000D01*
X27833691Y-61610000D01*
X27600302Y-61706673D01*
X27421673Y-61885301D01*
X27325000Y-62118690D01*
X27181521Y-62118690D01*
X27144445Y-62061073D01*
X27051880Y-61997825D01*
X26942000Y-61975574D01*
X26920685Y-61975574D01*
X26920685Y-61265331D01*
X27015194Y-61170987D01*
X27095594Y-60977362D01*
X27095777Y-60767708D01*
X27015715Y-60573943D01*
X26867597Y-60425566D01*
X26673972Y-60345166D01*
X26539462Y-60345049D01*
X26463512Y-60269098D01*
X26349315Y-60192794D01*
X26265426Y-60176107D01*
X26265426Y-59798000D01*
X26265050Y-59796000D01*
X27142555Y-59796000D01*
X28197998Y-60851442D01*
X28197908Y-60954367D01*
X28277970Y-61148132D01*
X28426088Y-61296509D01*
X28619713Y-61376909D01*
X28829367Y-61377092D01*
X29023132Y-61297030D01*
X29118328Y-61202000D01*
X29864196Y-61202000D01*
X30108000Y-61445804D01*
X30108000Y-61962574D01*
X29960000Y-61962574D01*
X29857350Y-61981889D01*
X29763073Y-62042555D01*
X29699825Y-62135120D01*
X29677574Y-62245000D01*
X29677574Y-63495000D01*
X29696889Y-63597650D01*
X29757555Y-63691927D01*
X29850120Y-63755175D01*
X29960000Y-63777426D01*
X30108000Y-63777426D01*
X30108000Y-64473995D01*
X30107999Y-64474000D01*
X30134794Y-64608705D01*
X30144346Y-64623000D01*
X28425000Y-64623000D01*
X28375590Y-64633006D01*
X28333965Y-64661447D01*
X28306685Y-64703841D01*
X28298000Y-64750000D01*
X28298000Y-67403974D01*
X28211673Y-67490301D01*
X28115000Y-67723690D01*
X28115000Y-68514250D01*
X28273748Y-68672998D01*
X28115000Y-68672998D01*
X28115000Y-68673000D01*
X22032207Y-68673000D01*
X21362222Y-68539731D01*
X20821540Y-68178460D01*
X20460269Y-67637778D01*
X20327000Y-66967792D01*
X20327000Y-62883191D01*
X21122805Y-62883191D01*
X21294019Y-63297560D01*
X21610772Y-63614867D01*
X22024842Y-63786804D01*
X22473191Y-63787195D01*
X22887560Y-63615981D01*
X23204867Y-63299228D01*
X23324964Y-63010002D01*
X23465748Y-63010002D01*
X23307000Y-63168750D01*
X23307000Y-63634310D01*
X23403673Y-63867699D01*
X23582302Y-64046327D01*
X23734474Y-64109359D01*
X23673825Y-64198120D01*
X23651574Y-64308000D01*
X23651574Y-65030623D01*
X22614622Y-66067574D01*
X22025000Y-66067574D01*
X21922350Y-66086889D01*
X21828073Y-66147555D01*
X21764825Y-66240120D01*
X21742574Y-66350000D01*
X21742574Y-67350000D01*
X21761889Y-67452650D01*
X21822555Y-67546927D01*
X21915120Y-67610175D01*
X22025000Y-67632426D01*
X23525000Y-67632426D01*
X23627650Y-67613111D01*
X23721927Y-67552445D01*
X23785175Y-67459880D01*
X23792574Y-67423342D01*
X23792574Y-67750000D01*
X23811889Y-67852650D01*
X23872555Y-67946927D01*
X23965120Y-68010175D01*
X24075000Y-68032426D01*
X24975000Y-68032426D01*
X25077650Y-68013111D01*
X25171927Y-67952445D01*
X25204612Y-67904610D01*
X25398691Y-67985000D01*
X25989250Y-67985000D01*
X26148000Y-67826250D01*
X26148000Y-66977000D01*
X26402000Y-66977000D01*
X26402000Y-67826250D01*
X26560750Y-67985000D01*
X27151309Y-67985000D01*
X27384698Y-67888327D01*
X27563327Y-67709699D01*
X27660000Y-67476310D01*
X27660000Y-67135750D01*
X27501250Y-66977000D01*
X26402000Y-66977000D01*
X26148000Y-66977000D01*
X26128000Y-66977000D01*
X26128000Y-66723000D01*
X26148000Y-66723000D01*
X26148000Y-66703000D01*
X26402000Y-66703000D01*
X26402000Y-66723000D01*
X27501250Y-66723000D01*
X27660000Y-66564250D01*
X27660000Y-66223690D01*
X27563327Y-65990301D01*
X27384698Y-65811673D01*
X27151309Y-65715000D01*
X26794758Y-65715000D01*
X26816426Y-65608000D01*
X26816426Y-65451944D01*
X26924713Y-65496909D01*
X27134367Y-65497092D01*
X27328132Y-65417030D01*
X27476509Y-65268912D01*
X27556909Y-65075287D01*
X27557092Y-64865633D01*
X27477030Y-64671868D01*
X27328912Y-64523491D01*
X27135287Y-64443091D01*
X26925633Y-64442908D01*
X26816426Y-64488031D01*
X26816426Y-64308000D01*
X26797111Y-64205350D01*
X26736445Y-64111073D01*
X26643880Y-64047825D01*
X26534000Y-64025574D01*
X25834000Y-64025574D01*
X25731350Y-64044889D01*
X25637073Y-64105555D01*
X25573825Y-64198120D01*
X25551574Y-64308000D01*
X25551574Y-65608000D01*
X25570889Y-65710650D01*
X25573688Y-65715000D01*
X25398691Y-65715000D01*
X25165302Y-65811673D01*
X24986673Y-65990301D01*
X24890000Y-66223690D01*
X24890000Y-66467574D01*
X24075000Y-66467574D01*
X23972350Y-66486889D01*
X23955083Y-66498000D01*
X23807426Y-66498000D01*
X23807426Y-66350000D01*
X23788111Y-66247350D01*
X23727445Y-66153073D01*
X23634880Y-66089825D01*
X23595877Y-66081927D01*
X23815511Y-65862293D01*
X23824120Y-65868175D01*
X23934000Y-65890426D01*
X24634000Y-65890426D01*
X24736650Y-65871111D01*
X24830927Y-65810445D01*
X24894175Y-65717880D01*
X24916426Y-65608000D01*
X24916426Y-64308000D01*
X24897111Y-64205350D01*
X24856990Y-64143000D01*
X25068309Y-64143000D01*
X25301698Y-64046327D01*
X25480327Y-63867699D01*
X25577000Y-63634310D01*
X25577000Y-63168750D01*
X25418250Y-63010000D01*
X24569000Y-63010000D01*
X24569000Y-63030000D01*
X24315000Y-63030000D01*
X24315000Y-63010000D01*
X24295000Y-63010000D01*
X24295000Y-62756000D01*
X24315000Y-62756000D01*
X24315000Y-61781750D01*
X24569000Y-61781750D01*
X24569000Y-62756000D01*
X25418250Y-62756000D01*
X25577000Y-62597250D01*
X25577000Y-62131690D01*
X25480327Y-61898301D01*
X25301698Y-61719673D01*
X25068309Y-61623000D01*
X24727750Y-61623000D01*
X24569000Y-61781750D01*
X24315000Y-61781750D01*
X24156250Y-61623000D01*
X23815691Y-61623000D01*
X23582302Y-61719673D01*
X23403673Y-61898301D01*
X23307000Y-62131690D01*
X23307000Y-62266924D01*
X23205981Y-62022440D01*
X22889228Y-61705133D01*
X22475158Y-61533196D01*
X22026809Y-61532805D01*
X21612440Y-61704019D01*
X21295133Y-62020772D01*
X21123196Y-62434842D01*
X21122805Y-62883191D01*
X20327000Y-62883191D01*
X20327000Y-60120000D01*
X21100921Y-60120000D01*
X21186709Y-60551284D01*
X21431012Y-60916909D01*
X21796637Y-61161212D01*
X22227921Y-61247000D01*
X22272079Y-61247000D01*
X22703363Y-61161212D01*
X23068988Y-60916909D01*
X23313291Y-60551284D01*
X23399079Y-60120000D01*
X23313291Y-59688716D01*
X23068988Y-59323091D01*
X22703363Y-59078788D01*
X22272079Y-58993000D01*
X22227921Y-58993000D01*
X21796637Y-59078788D01*
X21431012Y-59323091D01*
X21186709Y-59688716D01*
X21100921Y-60120000D01*
X20327000Y-60120000D01*
X20327000Y-55040000D01*
X21100921Y-55040000D01*
X21186709Y-55471284D01*
X21431012Y-55836909D01*
X21796637Y-56081212D01*
X22227921Y-56167000D01*
X22272079Y-56167000D01*
X22703363Y-56081212D01*
X23068988Y-55836909D01*
X23313291Y-55471284D01*
X23399079Y-55040000D01*
X23313291Y-54608716D01*
X23068988Y-54243091D01*
X22703363Y-53998788D01*
X22272079Y-53913000D01*
X22227921Y-53913000D01*
X21796637Y-53998788D01*
X21431012Y-54243091D01*
X21186709Y-54608716D01*
X21100921Y-55040000D01*
X20327000Y-55040000D01*
X20327000Y-52500000D01*
X21100921Y-52500000D01*
X21186709Y-52931284D01*
X21431012Y-53296909D01*
X21796637Y-53541212D01*
X22227921Y-53627000D01*
X22272079Y-53627000D01*
X22703363Y-53541212D01*
X23068988Y-53296909D01*
X23313291Y-52931284D01*
X23399079Y-52500000D01*
X23346517Y-52235750D01*
X23795000Y-52235750D01*
X23795000Y-53326310D01*
X23891673Y-53559699D01*
X24070302Y-53738327D01*
X24303691Y-53835000D01*
X24644250Y-53835000D01*
X24803000Y-53676250D01*
X24803000Y-52077000D01*
X25057000Y-52077000D01*
X25057000Y-53676250D01*
X25215750Y-53835000D01*
X25556309Y-53835000D01*
X25789698Y-53738327D01*
X25968327Y-53559699D01*
X26065000Y-53326310D01*
X26065000Y-52235750D01*
X25906250Y-52077000D01*
X25057000Y-52077000D01*
X24803000Y-52077000D01*
X23953750Y-52077000D01*
X23795000Y-52235750D01*
X23346517Y-52235750D01*
X23313291Y-52068716D01*
X23068988Y-51703091D01*
X22703363Y-51458788D01*
X22272079Y-51373000D01*
X22227921Y-51373000D01*
X21796637Y-51458788D01*
X21431012Y-51703091D01*
X21186709Y-52068716D01*
X21100921Y-52500000D01*
X20327000Y-52500000D01*
X20327000Y-49960000D01*
X21100921Y-49960000D01*
X21186709Y-50391284D01*
X21431012Y-50756909D01*
X21796637Y-51001212D01*
X22227921Y-51087000D01*
X22272079Y-51087000D01*
X22703363Y-51001212D01*
X23068988Y-50756909D01*
X23191411Y-50573690D01*
X23795000Y-50573690D01*
X23795000Y-51664250D01*
X23953750Y-51823000D01*
X24803000Y-51823000D01*
X24803000Y-50223750D01*
X25057000Y-50223750D01*
X25057000Y-51823000D01*
X25906250Y-51823000D01*
X26065000Y-51664250D01*
X26065000Y-50573690D01*
X25968327Y-50340301D01*
X25789698Y-50161673D01*
X25556309Y-50065000D01*
X25215750Y-50065000D01*
X25057000Y-50223750D01*
X24803000Y-50223750D01*
X24644250Y-50065000D01*
X24303691Y-50065000D01*
X24070302Y-50161673D01*
X23891673Y-50340301D01*
X23795000Y-50573690D01*
X23191411Y-50573690D01*
X23313291Y-50391284D01*
X23399079Y-49960000D01*
X23313291Y-49528716D01*
X23068988Y-49163091D01*
X22703363Y-48918788D01*
X22272079Y-48833000D01*
X22227921Y-48833000D01*
X21796637Y-48918788D01*
X21431012Y-49163091D01*
X21186709Y-49528716D01*
X21100921Y-49960000D01*
X20327000Y-49960000D01*
X20327000Y-47420000D01*
X21100921Y-47420000D01*
X21186709Y-47851284D01*
X21431012Y-48216909D01*
X21796637Y-48461212D01*
X22227921Y-48547000D01*
X22272079Y-48547000D01*
X22703363Y-48461212D01*
X23068988Y-48216909D01*
X23313291Y-47851284D01*
X23399079Y-47420000D01*
X23313291Y-46988716D01*
X23068988Y-46623091D01*
X22703363Y-46378788D01*
X22272079Y-46293000D01*
X22227921Y-46293000D01*
X21796637Y-46378788D01*
X21431012Y-46623091D01*
X21186709Y-46988716D01*
X21100921Y-47420000D01*
X20327000Y-47420000D01*
X20327000Y-44880000D01*
X21100921Y-44880000D01*
X21186709Y-45311284D01*
X21431012Y-45676909D01*
X21796637Y-45921212D01*
X22227921Y-46007000D01*
X22272079Y-46007000D01*
X22703363Y-45921212D01*
X23068988Y-45676909D01*
X23313291Y-45311284D01*
X23399079Y-44880000D01*
X23377348Y-44770750D01*
X28160000Y-44770750D01*
X28160000Y-45111310D01*
X28256673Y-45344699D01*
X28435302Y-45523327D01*
X28668691Y-45620000D01*
X29009250Y-45620000D01*
X29168000Y-45461250D01*
X29168000Y-44612000D01*
X28318750Y-44612000D01*
X28160000Y-44770750D01*
X23377348Y-44770750D01*
X23313291Y-44448716D01*
X23068988Y-44083091D01*
X22703363Y-43838788D01*
X22272079Y-43753000D01*
X22227921Y-43753000D01*
X21796637Y-43838788D01*
X21431012Y-44083091D01*
X21186709Y-44448716D01*
X21100921Y-44880000D01*
X20327000Y-44880000D01*
X20327000Y-42340000D01*
X21100921Y-42340000D01*
X21186709Y-42771284D01*
X21431012Y-43136909D01*
X21796637Y-43381212D01*
X22227921Y-43467000D01*
X22272079Y-43467000D01*
X22703363Y-43381212D01*
X23068988Y-43136909D01*
X23313291Y-42771284D01*
X23399079Y-42340000D01*
X23313291Y-41908716D01*
X23068988Y-41543091D01*
X22703363Y-41298788D01*
X22272079Y-41213000D01*
X22227921Y-41213000D01*
X21796637Y-41298788D01*
X21431012Y-41543091D01*
X21186709Y-41908716D01*
X21100921Y-42340000D01*
X20327000Y-42340000D01*
X20327000Y-39800000D01*
X21100921Y-39800000D01*
X21186709Y-40231284D01*
X21431012Y-40596909D01*
X21796637Y-40841212D01*
X22227921Y-40927000D01*
X22272079Y-40927000D01*
X22703363Y-40841212D01*
X23068988Y-40596909D01*
X23313291Y-40231284D01*
X23339007Y-40102000D01*
X23706744Y-40102000D01*
X23801088Y-40196509D01*
X23994713Y-40276909D01*
X24204367Y-40277092D01*
X24398132Y-40197030D01*
X24546509Y-40048912D01*
X24626909Y-39855287D01*
X24627092Y-39645633D01*
X24547030Y-39451868D01*
X24398912Y-39303491D01*
X24205287Y-39223091D01*
X23995633Y-39222908D01*
X23801868Y-39302970D01*
X23706672Y-39398000D01*
X23319116Y-39398000D01*
X23313291Y-39368716D01*
X23068988Y-39003091D01*
X22703363Y-38758788D01*
X22272079Y-38673000D01*
X22227921Y-38673000D01*
X21796637Y-38758788D01*
X21431012Y-39003091D01*
X21186709Y-39368716D01*
X21100921Y-39800000D01*
X20327000Y-39800000D01*
X20327000Y-37260000D01*
X21100921Y-37260000D01*
X21186709Y-37691284D01*
X21431012Y-38056909D01*
X21796637Y-38301212D01*
X22227921Y-38387000D01*
X22272079Y-38387000D01*
X22703363Y-38301212D01*
X23068988Y-38056909D01*
X23313291Y-37691284D01*
X23329062Y-37612000D01*
X23721744Y-37612000D01*
X23816088Y-37706509D01*
X24009713Y-37786909D01*
X24219367Y-37787092D01*
X24413132Y-37707030D01*
X24561509Y-37558912D01*
X24641909Y-37365287D01*
X24642092Y-37155633D01*
X24562030Y-36961868D01*
X24413912Y-36813491D01*
X24220287Y-36733091D01*
X24010633Y-36732908D01*
X23816868Y-36812970D01*
X23721672Y-36908000D01*
X23329062Y-36908000D01*
X23313291Y-36828716D01*
X23068988Y-36463091D01*
X22703363Y-36218788D01*
X22272079Y-36133000D01*
X22227921Y-36133000D01*
X21796637Y-36218788D01*
X21431012Y-36463091D01*
X21186709Y-36828716D01*
X21100921Y-37260000D01*
X20327000Y-37260000D01*
X20327000Y-34720000D01*
X21100921Y-34720000D01*
X21186709Y-35151284D01*
X21431012Y-35516909D01*
X21796637Y-35761212D01*
X22227921Y-35847000D01*
X22272079Y-35847000D01*
X22703363Y-35761212D01*
X23068988Y-35516909D01*
X23313291Y-35151284D01*
X23329062Y-35072000D01*
X23806744Y-35072000D01*
X23901088Y-35166509D01*
X24094713Y-35246909D01*
X24304367Y-35247092D01*
X24498132Y-35167030D01*
X24646509Y-35018912D01*
X24726909Y-34825287D01*
X24727092Y-34615633D01*
X24647030Y-34421868D01*
X24498912Y-34273491D01*
X24305287Y-34193091D01*
X24095633Y-34192908D01*
X23901868Y-34272970D01*
X23806672Y-34368000D01*
X23329062Y-34368000D01*
X23313291Y-34288716D01*
X23068988Y-33923091D01*
X22703363Y-33678788D01*
X22272079Y-33593000D01*
X22227921Y-33593000D01*
X21796637Y-33678788D01*
X21431012Y-33923091D01*
X21186709Y-34288716D01*
X21100921Y-34720000D01*
X20327000Y-34720000D01*
X20327000Y-32040750D01*
X27015000Y-32040750D01*
X27015000Y-32181310D01*
X27111673Y-32414699D01*
X27290302Y-32593327D01*
X27523691Y-32690000D01*
X27814250Y-32690000D01*
X27973000Y-32531250D01*
X27973000Y-31882000D01*
X28227000Y-31882000D01*
X28227000Y-32531250D01*
X28385750Y-32690000D01*
X28676309Y-32690000D01*
X28909698Y-32593327D01*
X29088327Y-32414699D01*
X29185000Y-32181310D01*
X29185000Y-32040750D01*
X29026250Y-31882000D01*
X28227000Y-31882000D01*
X27973000Y-31882000D01*
X27173750Y-31882000D01*
X27015000Y-32040750D01*
X20327000Y-32040750D01*
X20327000Y-30627000D01*
X20527414Y-30627000D01*
X20454896Y-30801644D01*
X20454896Y-30801644D01*
G37*
X20454896Y-30801644D02*
X20454713Y-31011298D01*
X20534775Y-31205063D01*
X20682893Y-31353440D01*
X20876518Y-31433840D01*
X21086172Y-31434023D01*
X21279937Y-31353961D01*
X21428314Y-31205843D01*
X21490957Y-31054981D01*
X21552970Y-31205063D01*
X21701088Y-31353440D01*
X21894713Y-31433840D01*
X22104367Y-31434023D01*
X22298132Y-31353961D01*
X22446509Y-31205843D01*
X22500032Y-31076944D01*
X22552970Y-31205063D01*
X22701088Y-31353440D01*
X22894713Y-31433840D01*
X23104367Y-31434023D01*
X23298132Y-31353961D01*
X23446509Y-31205843D01*
X23500032Y-31076944D01*
X23552970Y-31205063D01*
X23701088Y-31353440D01*
X23894713Y-31433840D01*
X24104367Y-31434023D01*
X24298132Y-31353961D01*
X24446509Y-31205843D01*
X24500032Y-31076944D01*
X24552970Y-31205063D01*
X24701088Y-31353440D01*
X24894713Y-31433840D01*
X25104367Y-31434023D01*
X25298132Y-31353961D01*
X25446509Y-31205843D01*
X25500032Y-31076944D01*
X25552970Y-31205063D01*
X25701088Y-31353440D01*
X25894713Y-31433840D01*
X26104367Y-31434023D01*
X26298132Y-31353961D01*
X26446509Y-31205843D01*
X26526909Y-31012218D01*
X26527092Y-30802564D01*
X26454550Y-30627000D01*
X27379240Y-30627000D01*
X27386889Y-30667650D01*
X27447555Y-30761927D01*
X27532546Y-30820000D01*
X27523691Y-30820000D01*
X27290302Y-30916673D01*
X27111673Y-31095301D01*
X27015000Y-31328690D01*
X27015000Y-31469250D01*
X27173750Y-31628000D01*
X27973000Y-31628000D01*
X27973000Y-31608000D01*
X28227000Y-31608000D01*
X28227000Y-31628000D01*
X29026250Y-31628000D01*
X29185000Y-31469250D01*
X29185000Y-31328690D01*
X29088327Y-31095301D01*
X28909698Y-30916673D01*
X28676309Y-30820000D01*
X28665255Y-30820000D01*
X28746927Y-30767445D01*
X28810175Y-30674880D01*
X28819871Y-30627000D01*
X29673000Y-30627000D01*
X29673000Y-31448205D01*
X29667574Y-31475000D01*
X29667574Y-32004665D01*
X29590301Y-32036673D01*
X29411673Y-32215302D01*
X29315000Y-32448691D01*
X29315000Y-32589250D01*
X29473750Y-32748000D01*
X30075000Y-32748000D01*
X30075000Y-32728000D01*
X30325000Y-32728000D01*
X30325000Y-32748000D01*
X30926250Y-32748000D01*
X31085000Y-32589250D01*
X31085000Y-32448691D01*
X31047197Y-32357426D01*
X31275000Y-32357426D01*
X31377650Y-32338111D01*
X31471927Y-32277445D01*
X31525579Y-32198924D01*
X31572555Y-32271927D01*
X31665120Y-32335175D01*
X31775000Y-32357426D01*
X31952803Y-32357426D01*
X31915000Y-32448691D01*
X31915000Y-32589250D01*
X32073750Y-32748000D01*
X32675000Y-32748000D01*
X32675000Y-32728000D01*
X32925000Y-32728000D01*
X32925000Y-32748000D01*
X33526250Y-32748000D01*
X33685000Y-32589250D01*
X33685000Y-32448691D01*
X33588327Y-32215302D01*
X33500025Y-32127000D01*
X35654196Y-32127000D01*
X36073000Y-32545803D01*
X36073000Y-34150761D01*
X35926309Y-34090000D01*
X35710750Y-34090000D01*
X35552000Y-34248750D01*
X35552000Y-34973000D01*
X35572000Y-34973000D01*
X35572000Y-35227000D01*
X35552000Y-35227000D01*
X35552000Y-35951250D01*
X35710750Y-36110000D01*
X35926309Y-36110000D01*
X36159698Y-36013327D01*
X36338327Y-35834699D01*
X36370335Y-35757426D01*
X36479665Y-35757426D01*
X36511673Y-35834699D01*
X36690302Y-36013327D01*
X36923691Y-36110000D01*
X37139250Y-36110000D01*
X37297998Y-35951252D01*
X37297998Y-36110000D01*
X37343648Y-36110000D01*
X37298091Y-36219713D01*
X37297908Y-36429367D01*
X37377970Y-36623132D01*
X37526088Y-36771509D01*
X37719713Y-36851909D01*
X37929367Y-36852092D01*
X38123132Y-36772030D01*
X38218328Y-36677000D01*
X39012574Y-36677000D01*
X39012574Y-36735000D01*
X39031889Y-36837650D01*
X39044073Y-36856585D01*
X39034825Y-36870120D01*
X39012574Y-36980000D01*
X39012574Y-37003000D01*
X37698325Y-37003000D01*
X37648902Y-36953491D01*
X37455277Y-36873091D01*
X37245623Y-36872908D01*
X37051858Y-36952970D01*
X36903481Y-37101088D01*
X36823081Y-37294713D01*
X36822898Y-37504367D01*
X36902960Y-37698132D01*
X37051078Y-37846509D01*
X37244703Y-37926909D01*
X37454357Y-37927092D01*
X37648122Y-37847030D01*
X37788397Y-37707000D01*
X39012574Y-37707000D01*
X39012574Y-37730000D01*
X39031889Y-37832650D01*
X39045730Y-37854160D01*
X39034825Y-37870120D01*
X39012574Y-37980000D01*
X39012574Y-38029341D01*
X39010295Y-38029794D01*
X38896098Y-38106098D01*
X38896096Y-38106101D01*
X36729196Y-40273000D01*
X32818343Y-40273000D01*
X32773912Y-40228491D01*
X32580287Y-40148091D01*
X32370633Y-40147908D01*
X32176868Y-40227970D01*
X32028491Y-40376088D01*
X31948091Y-40569713D01*
X31947908Y-40779367D01*
X32027970Y-40973132D01*
X32057786Y-41003000D01*
X29827426Y-41003000D01*
X29827426Y-40980000D01*
X29808111Y-40877350D01*
X29794270Y-40855840D01*
X29805175Y-40839880D01*
X29827426Y-40730000D01*
X29827426Y-39980000D01*
X29808111Y-39877350D01*
X29794270Y-39855840D01*
X29805175Y-39839880D01*
X29827426Y-39730000D01*
X29827426Y-39707000D01*
X36119995Y-39707000D01*
X36120000Y-39707001D01*
X36254705Y-39680206D01*
X36368902Y-39603902D01*
X36695872Y-39276932D01*
X36879367Y-39277092D01*
X37073132Y-39197030D01*
X37221509Y-39048912D01*
X37301909Y-38855287D01*
X37302092Y-38645633D01*
X37222030Y-38451868D01*
X37073912Y-38303491D01*
X36880287Y-38223091D01*
X36670633Y-38222908D01*
X36476868Y-38302970D01*
X36328491Y-38451088D01*
X36248091Y-38644713D01*
X36248017Y-38729179D01*
X35974196Y-39003000D01*
X29827426Y-39003000D01*
X29827426Y-38980000D01*
X29808111Y-38877350D01*
X29794270Y-38855840D01*
X29805175Y-38839880D01*
X29827426Y-38730000D01*
X29827426Y-37980000D01*
X29808111Y-37877350D01*
X29794270Y-37855840D01*
X29805175Y-37839880D01*
X29827426Y-37730000D01*
X29827426Y-36980000D01*
X29808111Y-36877350D01*
X29794270Y-36855840D01*
X29805175Y-36839880D01*
X29827426Y-36730000D01*
X29827426Y-36360000D01*
X29921309Y-36360000D01*
X30039900Y-36310878D01*
X30126469Y-36397599D01*
X30320094Y-36477999D01*
X30529748Y-36478182D01*
X30723513Y-36398120D01*
X30871890Y-36250002D01*
X30930024Y-36110000D01*
X31139250Y-36110000D01*
X31298000Y-35951250D01*
X31298000Y-35227000D01*
X31278000Y-35227000D01*
X31278000Y-34973000D01*
X31298000Y-34973000D01*
X31298000Y-34851999D01*
X31552000Y-34851999D01*
X31552000Y-34973000D01*
X31572000Y-34973000D01*
X31572000Y-35227000D01*
X31552000Y-35227000D01*
X31552000Y-35951250D01*
X31710750Y-36110000D01*
X31926309Y-36110000D01*
X32159698Y-36013327D01*
X32338327Y-35834699D01*
X32370335Y-35757426D01*
X32800000Y-35757426D01*
X32902650Y-35738111D01*
X32924160Y-35724270D01*
X32940120Y-35735175D01*
X33050000Y-35757426D01*
X33800000Y-35757426D01*
X33902650Y-35738111D01*
X33924160Y-35724270D01*
X33940120Y-35735175D01*
X34050000Y-35757426D01*
X34479665Y-35757426D01*
X34511673Y-35834699D01*
X34690302Y-36013327D01*
X34923691Y-36110000D01*
X35139250Y-36110000D01*
X35298000Y-35951250D01*
X35298000Y-35227000D01*
X35278000Y-35227000D01*
X35278000Y-34973000D01*
X35298000Y-34973000D01*
X35298000Y-34248750D01*
X35139250Y-34090000D01*
X34923691Y-34090000D01*
X34690302Y-34186673D01*
X34612389Y-34264585D01*
X34598901Y-34251097D01*
X34484704Y-34174793D01*
X34349999Y-34147998D01*
X34349994Y-34147999D01*
X32066331Y-34147999D01*
X31926309Y-34090000D01*
X31710750Y-34090000D01*
X31652751Y-34147999D01*
X31197249Y-34147999D01*
X31139250Y-34090000D01*
X30923691Y-34090000D01*
X30862450Y-34115367D01*
X30648170Y-33901087D01*
X30533973Y-33824783D01*
X30399268Y-33797988D01*
X30399263Y-33797989D01*
X30327002Y-33797989D01*
X30327002Y-33653252D01*
X30483750Y-33810000D01*
X30576310Y-33810000D01*
X30809699Y-33713327D01*
X30988327Y-33534698D01*
X31085000Y-33301309D01*
X31085000Y-33160750D01*
X31915000Y-33160750D01*
X31915000Y-33301309D01*
X32011673Y-33534698D01*
X32190301Y-33713327D01*
X32423690Y-33810000D01*
X32516250Y-33810000D01*
X32675000Y-33651250D01*
X32675000Y-33002000D01*
X32925000Y-33002000D01*
X32925000Y-33651250D01*
X33083750Y-33810000D01*
X33176310Y-33810000D01*
X33409699Y-33713327D01*
X33588327Y-33534698D01*
X33685000Y-33301309D01*
X33685000Y-33160750D01*
X33526250Y-33002000D01*
X32925000Y-33002000D01*
X32675000Y-33002000D01*
X32073750Y-33002000D01*
X31915000Y-33160750D01*
X31085000Y-33160750D01*
X30926250Y-33002000D01*
X30325000Y-33002000D01*
X30325000Y-33022000D01*
X30075000Y-33022000D01*
X30075000Y-33002000D01*
X29473750Y-33002000D01*
X29315000Y-33160750D01*
X29315000Y-33301309D01*
X29411673Y-33534698D01*
X29590301Y-33713327D01*
X29794693Y-33797989D01*
X28540735Y-33797989D01*
X28540730Y-33797988D01*
X28406025Y-33824783D01*
X28291828Y-33901087D01*
X27482426Y-34710489D01*
X27482426Y-34400000D01*
X27463111Y-34297350D01*
X27402445Y-34203073D01*
X27309880Y-34139825D01*
X27200000Y-34117574D01*
X25900000Y-34117574D01*
X25797350Y-34136889D01*
X25703073Y-34197555D01*
X25639825Y-34290120D01*
X25617574Y-34400000D01*
X25617574Y-35900000D01*
X25636889Y-36002650D01*
X25697555Y-36096927D01*
X25790120Y-36160175D01*
X25900000Y-36182426D01*
X27200000Y-36182426D01*
X27302650Y-36163111D01*
X27396927Y-36102445D01*
X27460175Y-36009880D01*
X27482426Y-35900000D01*
X27482426Y-35502000D01*
X27540714Y-35502000D01*
X27540719Y-35502001D01*
X27675424Y-35475206D01*
X27789621Y-35398902D01*
X28204637Y-34983887D01*
X28318750Y-35098000D01*
X29168000Y-35098000D01*
X29168000Y-35078000D01*
X29422000Y-35078000D01*
X29422000Y-35098000D01*
X29442000Y-35098000D01*
X29442000Y-35352000D01*
X29422000Y-35352000D01*
X29422000Y-35372000D01*
X29168000Y-35372000D01*
X29168000Y-35352000D01*
X28318750Y-35352000D01*
X28160000Y-35510750D01*
X28160000Y-35851310D01*
X28256673Y-36084699D01*
X28435302Y-36263327D01*
X28512574Y-36295334D01*
X28512574Y-36730000D01*
X28531889Y-36832650D01*
X28545730Y-36854160D01*
X28534825Y-36870120D01*
X28512574Y-36980000D01*
X28512574Y-37359621D01*
X27482426Y-38389768D01*
X27482426Y-37100000D01*
X27463111Y-36997350D01*
X27402445Y-36903073D01*
X27309880Y-36839825D01*
X27200000Y-36817574D01*
X25900000Y-36817574D01*
X25797350Y-36836889D01*
X25703073Y-36897555D01*
X25639825Y-36990120D01*
X25617574Y-37100000D01*
X25617574Y-37504449D01*
X25537644Y-37520348D01*
X25515295Y-37524794D01*
X25401098Y-37601098D01*
X25401096Y-37601101D01*
X25029172Y-37973025D01*
X24895633Y-37972908D01*
X24701868Y-38052970D01*
X24553491Y-38201088D01*
X24473091Y-38394713D01*
X24472908Y-38604367D01*
X24552970Y-38798132D01*
X24701088Y-38946509D01*
X24894713Y-39026909D01*
X25104367Y-39027092D01*
X25298132Y-38947030D01*
X25446509Y-38798912D01*
X25526909Y-38605287D01*
X25527026Y-38470777D01*
X25617574Y-38380229D01*
X25617574Y-38600000D01*
X25636889Y-38702650D01*
X25697555Y-38796927D01*
X25790120Y-38860175D01*
X25900000Y-38882426D01*
X26989768Y-38882426D01*
X26301098Y-39571096D01*
X26224794Y-39685293D01*
X26197999Y-39819998D01*
X26198000Y-39820003D01*
X26198000Y-39962574D01*
X25900000Y-39962574D01*
X25797350Y-39981889D01*
X25703073Y-40042555D01*
X25639825Y-40135120D01*
X25617574Y-40245000D01*
X25617574Y-41745000D01*
X25636889Y-41847650D01*
X25637455Y-41848529D01*
X25542042Y-41848446D01*
X25348277Y-41928508D01*
X25199900Y-42076626D01*
X25119500Y-42270251D01*
X25119317Y-42479905D01*
X25199379Y-42673670D01*
X25294409Y-42768866D01*
X25294409Y-43591404D01*
X25294408Y-43591409D01*
X25321203Y-43726114D01*
X25397507Y-43840311D01*
X25501096Y-43943899D01*
X25501098Y-43943902D01*
X25615295Y-44020206D01*
X25617574Y-44020659D01*
X25617574Y-44445000D01*
X25636889Y-44547650D01*
X25697555Y-44641927D01*
X25790120Y-44705175D01*
X25900000Y-44727426D01*
X27200000Y-44727426D01*
X27302650Y-44708111D01*
X27396927Y-44647445D01*
X27460175Y-44554880D01*
X27482426Y-44445000D01*
X27482426Y-42945000D01*
X27463111Y-42842350D01*
X27402445Y-42748073D01*
X27309880Y-42684825D01*
X27200000Y-42662574D01*
X26097849Y-42662574D01*
X26173318Y-42480825D01*
X26173501Y-42271171D01*
X26093439Y-42077406D01*
X26043546Y-42027426D01*
X27200000Y-42027426D01*
X27302650Y-42008111D01*
X27396927Y-41947445D01*
X27460175Y-41854880D01*
X27482426Y-41745000D01*
X27482426Y-40245000D01*
X27463111Y-40142350D01*
X27402445Y-40048073D01*
X27309880Y-39984825D01*
X27200000Y-39962574D01*
X26905228Y-39962574D01*
X28512574Y-38355227D01*
X28512574Y-38730000D01*
X28531889Y-38832650D01*
X28545730Y-38854160D01*
X28534825Y-38870120D01*
X28512574Y-38980000D01*
X28512574Y-39730000D01*
X28531889Y-39832650D01*
X28545730Y-39854160D01*
X28534825Y-39870120D01*
X28512574Y-39980000D01*
X28512574Y-40730000D01*
X28531889Y-40832650D01*
X28545730Y-40854160D01*
X28534825Y-40870120D01*
X28512574Y-40980000D01*
X28512574Y-41730000D01*
X28531889Y-41832650D01*
X28545730Y-41854160D01*
X28534825Y-41870120D01*
X28512574Y-41980000D01*
X28512574Y-42730000D01*
X28531889Y-42832650D01*
X28545730Y-42854160D01*
X28534825Y-42870120D01*
X28512574Y-42980000D01*
X28512574Y-43414666D01*
X28435302Y-43446673D01*
X28256673Y-43625301D01*
X28160000Y-43858690D01*
X28160000Y-44199250D01*
X28318750Y-44358000D01*
X29168000Y-44358000D01*
X29168000Y-44338000D01*
X29422000Y-44338000D01*
X29422000Y-44358000D01*
X29442000Y-44358000D01*
X29442000Y-44612000D01*
X29422000Y-44612000D01*
X29422000Y-45461250D01*
X29580750Y-45620000D01*
X29921309Y-45620000D01*
X30154698Y-45523327D01*
X30333327Y-45344699D01*
X30365335Y-45267426D01*
X30800000Y-45267426D01*
X30902650Y-45248111D01*
X30924160Y-45234270D01*
X30940120Y-45245175D01*
X31050000Y-45267426D01*
X31800000Y-45267426D01*
X31902650Y-45248111D01*
X31924160Y-45234270D01*
X31940120Y-45245175D01*
X32050000Y-45267426D01*
X32800000Y-45267426D01*
X32902650Y-45248111D01*
X32924160Y-45234270D01*
X32940120Y-45245175D01*
X33050000Y-45267426D01*
X33800000Y-45267426D01*
X33902650Y-45248111D01*
X33924160Y-45234270D01*
X33940120Y-45245175D01*
X34050000Y-45267426D01*
X34800000Y-45267426D01*
X34902650Y-45248111D01*
X34924160Y-45234270D01*
X34940120Y-45245175D01*
X35050000Y-45267426D01*
X35800000Y-45267426D01*
X35902650Y-45248111D01*
X35924160Y-45234270D01*
X35940120Y-45245175D01*
X36050000Y-45267426D01*
X36800000Y-45267426D01*
X36902650Y-45248111D01*
X36924160Y-45234270D01*
X36940120Y-45245175D01*
X37050000Y-45267426D01*
X37662343Y-45267426D01*
X37553491Y-45376088D01*
X37473091Y-45569713D01*
X37472952Y-45729245D01*
X37273964Y-45928233D01*
X37266635Y-45910496D01*
X37118517Y-45762119D01*
X36924892Y-45681719D01*
X36715238Y-45681536D01*
X36521473Y-45761598D01*
X36373096Y-45909716D01*
X36292696Y-46103341D01*
X36292668Y-46134879D01*
X36217662Y-46059741D01*
X36166358Y-46038438D01*
X36173496Y-46021247D01*
X36173679Y-45811593D01*
X36093617Y-45617828D01*
X35945499Y-45469451D01*
X35751874Y-45389051D01*
X35542220Y-45388868D01*
X35348455Y-45468930D01*
X35200078Y-45617048D01*
X35119678Y-45810673D01*
X35119569Y-45935164D01*
X35030287Y-45898091D01*
X34820633Y-45897908D01*
X34626868Y-45977970D01*
X34478491Y-46126088D01*
X34398091Y-46319713D01*
X34397908Y-46529367D01*
X34416277Y-46573824D01*
X34293750Y-46573824D01*
X34191100Y-46593139D01*
X34169590Y-46606980D01*
X34153630Y-46596075D01*
X34043750Y-46573824D01*
X33933831Y-46573824D01*
X33951909Y-46530287D01*
X33952092Y-46320633D01*
X33872030Y-46126868D01*
X33723912Y-45978491D01*
X33530287Y-45898091D01*
X33445824Y-45898017D01*
X33445842Y-45876883D01*
X33365780Y-45683118D01*
X33217662Y-45534741D01*
X33024037Y-45454341D01*
X32814383Y-45454158D01*
X32620618Y-45534220D01*
X32472241Y-45682338D01*
X32391841Y-45875963D01*
X32391816Y-45904226D01*
X32314383Y-45904158D01*
X32120618Y-45984220D01*
X31972241Y-46132338D01*
X31952039Y-46180989D01*
X31952092Y-46120633D01*
X31872030Y-45926868D01*
X31723912Y-45778491D01*
X31530287Y-45698091D01*
X31320633Y-45697908D01*
X31126868Y-45777970D01*
X30978491Y-45926088D01*
X30898091Y-46119713D01*
X30897908Y-46329367D01*
X30977970Y-46523132D01*
X31073000Y-46618328D01*
X31073000Y-46674825D01*
X31069115Y-46694357D01*
X31033575Y-46746370D01*
X31011324Y-46856250D01*
X31011324Y-47448824D01*
X30726915Y-47448824D01*
X30727092Y-47245633D01*
X30647030Y-47051868D01*
X30498912Y-46903491D01*
X30305287Y-46823091D01*
X30095633Y-46822908D01*
X29901868Y-46902970D01*
X29753491Y-47051088D01*
X29673091Y-47244713D01*
X29672908Y-47454367D01*
X29728037Y-47587789D01*
X29526108Y-47587613D01*
X29332343Y-47667675D01*
X29183966Y-47815793D01*
X29103566Y-48009418D01*
X29103492Y-48094109D01*
X28983738Y-48044383D01*
X28774084Y-48044200D01*
X28580319Y-48124262D01*
X28431942Y-48272380D01*
X28351542Y-48466005D01*
X28351443Y-48579485D01*
X28231074Y-48579380D01*
X28037309Y-48659442D01*
X27888932Y-48807560D01*
X27808532Y-49001185D01*
X27808349Y-49210839D01*
X27875393Y-49373099D01*
X27797278Y-49451078D01*
X27716878Y-49644703D01*
X27716699Y-49849768D01*
X27697999Y-49943777D01*
X27698000Y-49943782D01*
X27698000Y-50417574D01*
X27430000Y-50417574D01*
X27327350Y-50436889D01*
X27233073Y-50497555D01*
X27169825Y-50590120D01*
X27147574Y-50700000D01*
X27147574Y-53102655D01*
X27110345Y-53065361D01*
X26916720Y-52984961D01*
X26707066Y-52984778D01*
X26513301Y-53064840D01*
X26364924Y-53212958D01*
X26284524Y-53406583D01*
X26284341Y-53616237D01*
X26364403Y-53810002D01*
X26512521Y-53958379D01*
X26706146Y-54038779D01*
X26915800Y-54038962D01*
X27109565Y-53958900D01*
X27111891Y-53956578D01*
X27134201Y-53978888D01*
X27134203Y-53978891D01*
X27224983Y-54039548D01*
X25486402Y-54039548D01*
X25392058Y-53945039D01*
X25198433Y-53864639D01*
X24988779Y-53864456D01*
X24795014Y-53944518D01*
X24646637Y-54092636D01*
X24566237Y-54286261D01*
X24566054Y-54495915D01*
X24646116Y-54689680D01*
X24794234Y-54838057D01*
X24980916Y-54915574D01*
X23983000Y-54915574D01*
X23880350Y-54934889D01*
X23786073Y-54995555D01*
X23722825Y-55088120D01*
X23700574Y-55198000D01*
X23700574Y-55566000D01*
X23645005Y-55566000D01*
X23645000Y-55565999D01*
X23532644Y-55588348D01*
X23510295Y-55592794D01*
X23404838Y-55663258D01*
X23396098Y-55669098D01*
X23267959Y-55797237D01*
X23191655Y-55911434D01*
X23164860Y-56046139D01*
X23164861Y-56046144D01*
X23164861Y-56926575D01*
X23068988Y-56783091D01*
X22703363Y-56538788D01*
X22272079Y-56453000D01*
X22227921Y-56453000D01*
X21796637Y-56538788D01*
X21431012Y-56783091D01*
X21186709Y-57148716D01*
X21100921Y-57580000D01*
X21186709Y-58011284D01*
X21431012Y-58376909D01*
X21796637Y-58621212D01*
X22227921Y-58707000D01*
X22272079Y-58707000D01*
X22703363Y-58621212D01*
X23068988Y-58376909D01*
X23164861Y-58233425D01*
X23164861Y-58975856D01*
X23164860Y-58975861D01*
X23191655Y-59110566D01*
X23267959Y-59224763D01*
X23726272Y-59683075D01*
X23722825Y-59688120D01*
X23700574Y-59798000D01*
X23700574Y-61298000D01*
X23719889Y-61400650D01*
X23780555Y-61494927D01*
X23873120Y-61558175D01*
X23983000Y-61580426D01*
X25983000Y-61580426D01*
X26085650Y-61561111D01*
X26179927Y-61500445D01*
X26216685Y-61446649D01*
X26216685Y-61975574D01*
X25942000Y-61975574D01*
X25839350Y-61994889D01*
X25745073Y-62055555D01*
X25681825Y-62148120D01*
X25659574Y-62258000D01*
X25659574Y-63508000D01*
X25678889Y-63610650D01*
X25739555Y-63704927D01*
X25832120Y-63768175D01*
X25942000Y-63790426D01*
X26942000Y-63790426D01*
X27044650Y-63771111D01*
X27138927Y-63710445D01*
X27202175Y-63617880D01*
X27224426Y-63508000D01*
X27224426Y-63155750D01*
X27325000Y-63155750D01*
X27325000Y-63621310D01*
X27421673Y-63854699D01*
X27600302Y-64033327D01*
X27833691Y-64130000D01*
X28174250Y-64130000D01*
X28333000Y-63971250D01*
X28333000Y-62997000D01*
X28587000Y-62997000D01*
X28587000Y-63971250D01*
X28745750Y-64130000D01*
X29086309Y-64130000D01*
X29319698Y-64033327D01*
X29498327Y-63854699D01*
X29595000Y-63621310D01*
X29595000Y-63155750D01*
X29436250Y-62997000D01*
X28587000Y-62997000D01*
X28333000Y-62997000D01*
X27483750Y-62997000D01*
X27325000Y-63155750D01*
X27224426Y-63155750D01*
X27224426Y-62258000D01*
X27205111Y-62155350D01*
X27181521Y-62118690D01*
X27325000Y-62118690D01*
X27325000Y-62584250D01*
X27483750Y-62743000D01*
X28333000Y-62743000D01*
X28333000Y-61768750D01*
X28587000Y-61768750D01*
X28587000Y-62743000D01*
X29436250Y-62743000D01*
X29595000Y-62584250D01*
X29595000Y-62118690D01*
X29498327Y-61885301D01*
X29319698Y-61706673D01*
X29086309Y-61610000D01*
X28745750Y-61610000D01*
X28587000Y-61768750D01*
X28333000Y-61768750D01*
X28174250Y-61610000D01*
X27833691Y-61610000D01*
X27600302Y-61706673D01*
X27421673Y-61885301D01*
X27325000Y-62118690D01*
X27181521Y-62118690D01*
X27144445Y-62061073D01*
X27051880Y-61997825D01*
X26942000Y-61975574D01*
X26920685Y-61975574D01*
X26920685Y-61265331D01*
X27015194Y-61170987D01*
X27095594Y-60977362D01*
X27095777Y-60767708D01*
X27015715Y-60573943D01*
X26867597Y-60425566D01*
X26673972Y-60345166D01*
X26539462Y-60345049D01*
X26463512Y-60269098D01*
X26349315Y-60192794D01*
X26265426Y-60176107D01*
X26265426Y-59798000D01*
X26265050Y-59796000D01*
X27142555Y-59796000D01*
X28197998Y-60851442D01*
X28197908Y-60954367D01*
X28277970Y-61148132D01*
X28426088Y-61296509D01*
X28619713Y-61376909D01*
X28829367Y-61377092D01*
X29023132Y-61297030D01*
X29118328Y-61202000D01*
X29864196Y-61202000D01*
X30108000Y-61445804D01*
X30108000Y-61962574D01*
X29960000Y-61962574D01*
X29857350Y-61981889D01*
X29763073Y-62042555D01*
X29699825Y-62135120D01*
X29677574Y-62245000D01*
X29677574Y-63495000D01*
X29696889Y-63597650D01*
X29757555Y-63691927D01*
X29850120Y-63755175D01*
X29960000Y-63777426D01*
X30108000Y-63777426D01*
X30108000Y-64473995D01*
X30107999Y-64474000D01*
X30134794Y-64608705D01*
X30144346Y-64623000D01*
X28425000Y-64623000D01*
X28375590Y-64633006D01*
X28333965Y-64661447D01*
X28306685Y-64703841D01*
X28298000Y-64750000D01*
X28298000Y-67403974D01*
X28211673Y-67490301D01*
X28115000Y-67723690D01*
X28115000Y-68514250D01*
X28273748Y-68672998D01*
X28115000Y-68672998D01*
X28115000Y-68673000D01*
X22032207Y-68673000D01*
X21362222Y-68539731D01*
X20821540Y-68178460D01*
X20460269Y-67637778D01*
X20327000Y-66967792D01*
X20327000Y-62883191D01*
X21122805Y-62883191D01*
X21294019Y-63297560D01*
X21610772Y-63614867D01*
X22024842Y-63786804D01*
X22473191Y-63787195D01*
X22887560Y-63615981D01*
X23204867Y-63299228D01*
X23324964Y-63010002D01*
X23465748Y-63010002D01*
X23307000Y-63168750D01*
X23307000Y-63634310D01*
X23403673Y-63867699D01*
X23582302Y-64046327D01*
X23734474Y-64109359D01*
X23673825Y-64198120D01*
X23651574Y-64308000D01*
X23651574Y-65030623D01*
X22614622Y-66067574D01*
X22025000Y-66067574D01*
X21922350Y-66086889D01*
X21828073Y-66147555D01*
X21764825Y-66240120D01*
X21742574Y-66350000D01*
X21742574Y-67350000D01*
X21761889Y-67452650D01*
X21822555Y-67546927D01*
X21915120Y-67610175D01*
X22025000Y-67632426D01*
X23525000Y-67632426D01*
X23627650Y-67613111D01*
X23721927Y-67552445D01*
X23785175Y-67459880D01*
X23792574Y-67423342D01*
X23792574Y-67750000D01*
X23811889Y-67852650D01*
X23872555Y-67946927D01*
X23965120Y-68010175D01*
X24075000Y-68032426D01*
X24975000Y-68032426D01*
X25077650Y-68013111D01*
X25171927Y-67952445D01*
X25204612Y-67904610D01*
X25398691Y-67985000D01*
X25989250Y-67985000D01*
X26148000Y-67826250D01*
X26148000Y-66977000D01*
X26402000Y-66977000D01*
X26402000Y-67826250D01*
X26560750Y-67985000D01*
X27151309Y-67985000D01*
X27384698Y-67888327D01*
X27563327Y-67709699D01*
X27660000Y-67476310D01*
X27660000Y-67135750D01*
X27501250Y-66977000D01*
X26402000Y-66977000D01*
X26148000Y-66977000D01*
X26128000Y-66977000D01*
X26128000Y-66723000D01*
X26148000Y-66723000D01*
X26148000Y-66703000D01*
X26402000Y-66703000D01*
X26402000Y-66723000D01*
X27501250Y-66723000D01*
X27660000Y-66564250D01*
X27660000Y-66223690D01*
X27563327Y-65990301D01*
X27384698Y-65811673D01*
X27151309Y-65715000D01*
X26794758Y-65715000D01*
X26816426Y-65608000D01*
X26816426Y-65451944D01*
X26924713Y-65496909D01*
X27134367Y-65497092D01*
X27328132Y-65417030D01*
X27476509Y-65268912D01*
X27556909Y-65075287D01*
X27557092Y-64865633D01*
X27477030Y-64671868D01*
X27328912Y-64523491D01*
X27135287Y-64443091D01*
X26925633Y-64442908D01*
X26816426Y-64488031D01*
X26816426Y-64308000D01*
X26797111Y-64205350D01*
X26736445Y-64111073D01*
X26643880Y-64047825D01*
X26534000Y-64025574D01*
X25834000Y-64025574D01*
X25731350Y-64044889D01*
X25637073Y-64105555D01*
X25573825Y-64198120D01*
X25551574Y-64308000D01*
X25551574Y-65608000D01*
X25570889Y-65710650D01*
X25573688Y-65715000D01*
X25398691Y-65715000D01*
X25165302Y-65811673D01*
X24986673Y-65990301D01*
X24890000Y-66223690D01*
X24890000Y-66467574D01*
X24075000Y-66467574D01*
X23972350Y-66486889D01*
X23955083Y-66498000D01*
X23807426Y-66498000D01*
X23807426Y-66350000D01*
X23788111Y-66247350D01*
X23727445Y-66153073D01*
X23634880Y-66089825D01*
X23595877Y-66081927D01*
X23815511Y-65862293D01*
X23824120Y-65868175D01*
X23934000Y-65890426D01*
X24634000Y-65890426D01*
X24736650Y-65871111D01*
X24830927Y-65810445D01*
X24894175Y-65717880D01*
X24916426Y-65608000D01*
X24916426Y-64308000D01*
X24897111Y-64205350D01*
X24856990Y-64143000D01*
X25068309Y-64143000D01*
X25301698Y-64046327D01*
X25480327Y-63867699D01*
X25577000Y-63634310D01*
X25577000Y-63168750D01*
X25418250Y-63010000D01*
X24569000Y-63010000D01*
X24569000Y-63030000D01*
X24315000Y-63030000D01*
X24315000Y-63010000D01*
X24295000Y-63010000D01*
X24295000Y-62756000D01*
X24315000Y-62756000D01*
X24315000Y-61781750D01*
X24569000Y-61781750D01*
X24569000Y-62756000D01*
X25418250Y-62756000D01*
X25577000Y-62597250D01*
X25577000Y-62131690D01*
X25480327Y-61898301D01*
X25301698Y-61719673D01*
X25068309Y-61623000D01*
X24727750Y-61623000D01*
X24569000Y-61781750D01*
X24315000Y-61781750D01*
X24156250Y-61623000D01*
X23815691Y-61623000D01*
X23582302Y-61719673D01*
X23403673Y-61898301D01*
X23307000Y-62131690D01*
X23307000Y-62266924D01*
X23205981Y-62022440D01*
X22889228Y-61705133D01*
X22475158Y-61533196D01*
X22026809Y-61532805D01*
X21612440Y-61704019D01*
X21295133Y-62020772D01*
X21123196Y-62434842D01*
X21122805Y-62883191D01*
X20327000Y-62883191D01*
X20327000Y-60120000D01*
X21100921Y-60120000D01*
X21186709Y-60551284D01*
X21431012Y-60916909D01*
X21796637Y-61161212D01*
X22227921Y-61247000D01*
X22272079Y-61247000D01*
X22703363Y-61161212D01*
X23068988Y-60916909D01*
X23313291Y-60551284D01*
X23399079Y-60120000D01*
X23313291Y-59688716D01*
X23068988Y-59323091D01*
X22703363Y-59078788D01*
X22272079Y-58993000D01*
X22227921Y-58993000D01*
X21796637Y-59078788D01*
X21431012Y-59323091D01*
X21186709Y-59688716D01*
X21100921Y-60120000D01*
X20327000Y-60120000D01*
X20327000Y-55040000D01*
X21100921Y-55040000D01*
X21186709Y-55471284D01*
X21431012Y-55836909D01*
X21796637Y-56081212D01*
X22227921Y-56167000D01*
X22272079Y-56167000D01*
X22703363Y-56081212D01*
X23068988Y-55836909D01*
X23313291Y-55471284D01*
X23399079Y-55040000D01*
X23313291Y-54608716D01*
X23068988Y-54243091D01*
X22703363Y-53998788D01*
X22272079Y-53913000D01*
X22227921Y-53913000D01*
X21796637Y-53998788D01*
X21431012Y-54243091D01*
X21186709Y-54608716D01*
X21100921Y-55040000D01*
X20327000Y-55040000D01*
X20327000Y-52500000D01*
X21100921Y-52500000D01*
X21186709Y-52931284D01*
X21431012Y-53296909D01*
X21796637Y-53541212D01*
X22227921Y-53627000D01*
X22272079Y-53627000D01*
X22703363Y-53541212D01*
X23068988Y-53296909D01*
X23313291Y-52931284D01*
X23399079Y-52500000D01*
X23346517Y-52235750D01*
X23795000Y-52235750D01*
X23795000Y-53326310D01*
X23891673Y-53559699D01*
X24070302Y-53738327D01*
X24303691Y-53835000D01*
X24644250Y-53835000D01*
X24803000Y-53676250D01*
X24803000Y-52077000D01*
X25057000Y-52077000D01*
X25057000Y-53676250D01*
X25215750Y-53835000D01*
X25556309Y-53835000D01*
X25789698Y-53738327D01*
X25968327Y-53559699D01*
X26065000Y-53326310D01*
X26065000Y-52235750D01*
X25906250Y-52077000D01*
X25057000Y-52077000D01*
X24803000Y-52077000D01*
X23953750Y-52077000D01*
X23795000Y-52235750D01*
X23346517Y-52235750D01*
X23313291Y-52068716D01*
X23068988Y-51703091D01*
X22703363Y-51458788D01*
X22272079Y-51373000D01*
X22227921Y-51373000D01*
X21796637Y-51458788D01*
X21431012Y-51703091D01*
X21186709Y-52068716D01*
X21100921Y-52500000D01*
X20327000Y-52500000D01*
X20327000Y-49960000D01*
X21100921Y-49960000D01*
X21186709Y-50391284D01*
X21431012Y-50756909D01*
X21796637Y-51001212D01*
X22227921Y-51087000D01*
X22272079Y-51087000D01*
X22703363Y-51001212D01*
X23068988Y-50756909D01*
X23191411Y-50573690D01*
X23795000Y-50573690D01*
X23795000Y-51664250D01*
X23953750Y-51823000D01*
X24803000Y-51823000D01*
X24803000Y-50223750D01*
X25057000Y-50223750D01*
X25057000Y-51823000D01*
X25906250Y-51823000D01*
X26065000Y-51664250D01*
X26065000Y-50573690D01*
X25968327Y-50340301D01*
X25789698Y-50161673D01*
X25556309Y-50065000D01*
X25215750Y-50065000D01*
X25057000Y-50223750D01*
X24803000Y-50223750D01*
X24644250Y-50065000D01*
X24303691Y-50065000D01*
X24070302Y-50161673D01*
X23891673Y-50340301D01*
X23795000Y-50573690D01*
X23191411Y-50573690D01*
X23313291Y-50391284D01*
X23399079Y-49960000D01*
X23313291Y-49528716D01*
X23068988Y-49163091D01*
X22703363Y-48918788D01*
X22272079Y-48833000D01*
X22227921Y-48833000D01*
X21796637Y-48918788D01*
X21431012Y-49163091D01*
X21186709Y-49528716D01*
X21100921Y-49960000D01*
X20327000Y-49960000D01*
X20327000Y-47420000D01*
X21100921Y-47420000D01*
X21186709Y-47851284D01*
X21431012Y-48216909D01*
X21796637Y-48461212D01*
X22227921Y-48547000D01*
X22272079Y-48547000D01*
X22703363Y-48461212D01*
X23068988Y-48216909D01*
X23313291Y-47851284D01*
X23399079Y-47420000D01*
X23313291Y-46988716D01*
X23068988Y-46623091D01*
X22703363Y-46378788D01*
X22272079Y-46293000D01*
X22227921Y-46293000D01*
X21796637Y-46378788D01*
X21431012Y-46623091D01*
X21186709Y-46988716D01*
X21100921Y-47420000D01*
X20327000Y-47420000D01*
X20327000Y-44880000D01*
X21100921Y-44880000D01*
X21186709Y-45311284D01*
X21431012Y-45676909D01*
X21796637Y-45921212D01*
X22227921Y-46007000D01*
X22272079Y-46007000D01*
X22703363Y-45921212D01*
X23068988Y-45676909D01*
X23313291Y-45311284D01*
X23399079Y-44880000D01*
X23377348Y-44770750D01*
X28160000Y-44770750D01*
X28160000Y-45111310D01*
X28256673Y-45344699D01*
X28435302Y-45523327D01*
X28668691Y-45620000D01*
X29009250Y-45620000D01*
X29168000Y-45461250D01*
X29168000Y-44612000D01*
X28318750Y-44612000D01*
X28160000Y-44770750D01*
X23377348Y-44770750D01*
X23313291Y-44448716D01*
X23068988Y-44083091D01*
X22703363Y-43838788D01*
X22272079Y-43753000D01*
X22227921Y-43753000D01*
X21796637Y-43838788D01*
X21431012Y-44083091D01*
X21186709Y-44448716D01*
X21100921Y-44880000D01*
X20327000Y-44880000D01*
X20327000Y-42340000D01*
X21100921Y-42340000D01*
X21186709Y-42771284D01*
X21431012Y-43136909D01*
X21796637Y-43381212D01*
X22227921Y-43467000D01*
X22272079Y-43467000D01*
X22703363Y-43381212D01*
X23068988Y-43136909D01*
X23313291Y-42771284D01*
X23399079Y-42340000D01*
X23313291Y-41908716D01*
X23068988Y-41543091D01*
X22703363Y-41298788D01*
X22272079Y-41213000D01*
X22227921Y-41213000D01*
X21796637Y-41298788D01*
X21431012Y-41543091D01*
X21186709Y-41908716D01*
X21100921Y-42340000D01*
X20327000Y-42340000D01*
X20327000Y-39800000D01*
X21100921Y-39800000D01*
X21186709Y-40231284D01*
X21431012Y-40596909D01*
X21796637Y-40841212D01*
X22227921Y-40927000D01*
X22272079Y-40927000D01*
X22703363Y-40841212D01*
X23068988Y-40596909D01*
X23313291Y-40231284D01*
X23339007Y-40102000D01*
X23706744Y-40102000D01*
X23801088Y-40196509D01*
X23994713Y-40276909D01*
X24204367Y-40277092D01*
X24398132Y-40197030D01*
X24546509Y-40048912D01*
X24626909Y-39855287D01*
X24627092Y-39645633D01*
X24547030Y-39451868D01*
X24398912Y-39303491D01*
X24205287Y-39223091D01*
X23995633Y-39222908D01*
X23801868Y-39302970D01*
X23706672Y-39398000D01*
X23319116Y-39398000D01*
X23313291Y-39368716D01*
X23068988Y-39003091D01*
X22703363Y-38758788D01*
X22272079Y-38673000D01*
X22227921Y-38673000D01*
X21796637Y-38758788D01*
X21431012Y-39003091D01*
X21186709Y-39368716D01*
X21100921Y-39800000D01*
X20327000Y-39800000D01*
X20327000Y-37260000D01*
X21100921Y-37260000D01*
X21186709Y-37691284D01*
X21431012Y-38056909D01*
X21796637Y-38301212D01*
X22227921Y-38387000D01*
X22272079Y-38387000D01*
X22703363Y-38301212D01*
X23068988Y-38056909D01*
X23313291Y-37691284D01*
X23329062Y-37612000D01*
X23721744Y-37612000D01*
X23816088Y-37706509D01*
X24009713Y-37786909D01*
X24219367Y-37787092D01*
X24413132Y-37707030D01*
X24561509Y-37558912D01*
X24641909Y-37365287D01*
X24642092Y-37155633D01*
X24562030Y-36961868D01*
X24413912Y-36813491D01*
X24220287Y-36733091D01*
X24010633Y-36732908D01*
X23816868Y-36812970D01*
X23721672Y-36908000D01*
X23329062Y-36908000D01*
X23313291Y-36828716D01*
X23068988Y-36463091D01*
X22703363Y-36218788D01*
X22272079Y-36133000D01*
X22227921Y-36133000D01*
X21796637Y-36218788D01*
X21431012Y-36463091D01*
X21186709Y-36828716D01*
X21100921Y-37260000D01*
X20327000Y-37260000D01*
X20327000Y-34720000D01*
X21100921Y-34720000D01*
X21186709Y-35151284D01*
X21431012Y-35516909D01*
X21796637Y-35761212D01*
X22227921Y-35847000D01*
X22272079Y-35847000D01*
X22703363Y-35761212D01*
X23068988Y-35516909D01*
X23313291Y-35151284D01*
X23329062Y-35072000D01*
X23806744Y-35072000D01*
X23901088Y-35166509D01*
X24094713Y-35246909D01*
X24304367Y-35247092D01*
X24498132Y-35167030D01*
X24646509Y-35018912D01*
X24726909Y-34825287D01*
X24727092Y-34615633D01*
X24647030Y-34421868D01*
X24498912Y-34273491D01*
X24305287Y-34193091D01*
X24095633Y-34192908D01*
X23901868Y-34272970D01*
X23806672Y-34368000D01*
X23329062Y-34368000D01*
X23313291Y-34288716D01*
X23068988Y-33923091D01*
X22703363Y-33678788D01*
X22272079Y-33593000D01*
X22227921Y-33593000D01*
X21796637Y-33678788D01*
X21431012Y-33923091D01*
X21186709Y-34288716D01*
X21100921Y-34720000D01*
X20327000Y-34720000D01*
X20327000Y-32040750D01*
X27015000Y-32040750D01*
X27015000Y-32181310D01*
X27111673Y-32414699D01*
X27290302Y-32593327D01*
X27523691Y-32690000D01*
X27814250Y-32690000D01*
X27973000Y-32531250D01*
X27973000Y-31882000D01*
X28227000Y-31882000D01*
X28227000Y-32531250D01*
X28385750Y-32690000D01*
X28676309Y-32690000D01*
X28909698Y-32593327D01*
X29088327Y-32414699D01*
X29185000Y-32181310D01*
X29185000Y-32040750D01*
X29026250Y-31882000D01*
X28227000Y-31882000D01*
X27973000Y-31882000D01*
X27173750Y-31882000D01*
X27015000Y-32040750D01*
X20327000Y-32040750D01*
X20327000Y-30627000D01*
X20527414Y-30627000D01*
X20454896Y-30801644D01*
G36*
X32487000Y-62773000D02*
X32507000Y-62773000D01*
X32507000Y-63027000D01*
X32487000Y-63027000D01*
X32487000Y-63047000D01*
X32233000Y-63047000D01*
X32233000Y-63027000D01*
X32213000Y-63027000D01*
X32213000Y-62773000D01*
X32233000Y-62773000D01*
X32233000Y-62753000D01*
X32487000Y-62753000D01*
X32487000Y-62773000D01*
X32487000Y-62773000D01*
G37*
X32487000Y-62773000D02*
X32507000Y-62773000D01*
X32507000Y-63027000D01*
X32487000Y-63027000D01*
X32487000Y-63047000D01*
X32233000Y-63047000D01*
X32233000Y-63027000D01*
X32213000Y-63027000D01*
X32213000Y-62773000D01*
X32233000Y-62773000D01*
X32233000Y-62753000D01*
X32487000Y-62753000D01*
X32487000Y-62773000D01*
G36*
X36481250Y-53879250D02*
X36511324Y-53879250D01*
X36511324Y-54133250D01*
X36481250Y-54133250D01*
X36481250Y-54153250D01*
X36356250Y-54153250D01*
X36356250Y-54133250D01*
X36326176Y-54133250D01*
X36326176Y-53879250D01*
X36356250Y-53879250D01*
X36356250Y-53859250D01*
X36481250Y-53859250D01*
X36481250Y-53879250D01*
X36481250Y-53879250D01*
G37*
X36481250Y-53879250D02*
X36511324Y-53879250D01*
X36511324Y-54133250D01*
X36481250Y-54133250D01*
X36481250Y-54153250D01*
X36356250Y-54153250D01*
X36356250Y-54133250D01*
X36326176Y-54133250D01*
X36326176Y-53879250D01*
X36356250Y-53879250D01*
X36356250Y-53859250D01*
X36481250Y-53859250D01*
X36481250Y-53879250D01*
G36*
X29783750Y-53077500D02*
X29783750Y-53107560D01*
X29852840Y-53274357D01*
X29087648Y-54039548D01*
X28743854Y-54039548D01*
X28834634Y-53978891D01*
X29830272Y-52983252D01*
X29877998Y-52983252D01*
X29783750Y-53077500D01*
X29783750Y-53077500D01*
G37*
X29783750Y-53077500D02*
X29783750Y-53107560D01*
X29852840Y-53274357D01*
X29087648Y-54039548D01*
X28743854Y-54039548D01*
X28834634Y-53978891D01*
X29830272Y-52983252D01*
X29877998Y-52983252D01*
X29783750Y-53077500D01*
G36*
X30895750Y-52793750D02*
X30915750Y-52793750D01*
X30915750Y-52918750D01*
X30895750Y-52918750D01*
X30895750Y-52948824D01*
X30641750Y-52948824D01*
X30641750Y-52918750D01*
X30621750Y-52918750D01*
X30621750Y-52793750D01*
X30641750Y-52793750D01*
X30641750Y-52763676D01*
X30895750Y-52763676D01*
X30895750Y-52793750D01*
X30895750Y-52793750D01*
G37*
X30895750Y-52793750D02*
X30915750Y-52793750D01*
X30915750Y-52918750D01*
X30895750Y-52918750D01*
X30895750Y-52948824D01*
X30641750Y-52948824D01*
X30641750Y-52918750D01*
X30621750Y-52918750D01*
X30621750Y-52793750D01*
X30641750Y-52793750D01*
X30641750Y-52763676D01*
X30895750Y-52763676D01*
X30895750Y-52793750D01*
G36*
X32364500Y-48548000D02*
X33398000Y-48548000D01*
X33398000Y-48528000D01*
X33652000Y-48528000D01*
X33652000Y-48548000D01*
X34685500Y-48548000D01*
X34685500Y-48528000D01*
X34939500Y-48528000D01*
X34939500Y-48548000D01*
X35973000Y-48548000D01*
X35973000Y-48528000D01*
X36227000Y-48528000D01*
X36227000Y-48548000D01*
X36247000Y-48548000D01*
X36247000Y-48802000D01*
X36227000Y-48802000D01*
X36227000Y-49835500D01*
X36247000Y-49835500D01*
X36247000Y-50089500D01*
X36227000Y-50089500D01*
X36227000Y-51123000D01*
X36247000Y-51123000D01*
X36247000Y-51377000D01*
X36227000Y-51377000D01*
X36227000Y-52410500D01*
X36247000Y-52410500D01*
X36247000Y-52664500D01*
X36227000Y-52664500D01*
X36227000Y-52684500D01*
X35973000Y-52684500D01*
X35973000Y-52664500D01*
X34939500Y-52664500D01*
X34939500Y-52684500D01*
X34685500Y-52684500D01*
X34685500Y-52664500D01*
X33652000Y-52664500D01*
X33652000Y-52684500D01*
X33398000Y-52684500D01*
X33398000Y-52664500D01*
X32364500Y-52664500D01*
X32364500Y-52684500D01*
X32110500Y-52684500D01*
X32110500Y-52664500D01*
X32090500Y-52664500D01*
X32090500Y-52410500D01*
X32110500Y-52410500D01*
X32110500Y-51535750D01*
X32246250Y-51535750D01*
X32246250Y-52251750D01*
X32364500Y-52370000D01*
X32364500Y-52410500D01*
X32405000Y-52410500D01*
X32523250Y-52528750D01*
X33239250Y-52528750D01*
X33357500Y-52410500D01*
X33398000Y-52410500D01*
X33398000Y-52370000D01*
X33516250Y-52251750D01*
X33516250Y-51535750D01*
X33533750Y-51535750D01*
X33533750Y-52251750D01*
X33652000Y-52370000D01*
X33652000Y-52410500D01*
X33692500Y-52410500D01*
X33810750Y-52528750D01*
X34526750Y-52528750D01*
X34645000Y-52410500D01*
X34685500Y-52410500D01*
X34685500Y-52370000D01*
X34803750Y-52251750D01*
X34803750Y-51535750D01*
X34821250Y-51535750D01*
X34821250Y-52251750D01*
X34939500Y-52370000D01*
X34939500Y-52410500D01*
X34980000Y-52410500D01*
X35098250Y-52528750D01*
X35814250Y-52528750D01*
X35932500Y-52410500D01*
X35973000Y-52410500D01*
X35973000Y-52370000D01*
X36091250Y-52251750D01*
X36091250Y-51535750D01*
X35973000Y-51417500D01*
X35973000Y-51377000D01*
X35932500Y-51377000D01*
X35814250Y-51258750D01*
X35098250Y-51258750D01*
X34980000Y-51377000D01*
X34939500Y-51377000D01*
X34939500Y-51417500D01*
X34821250Y-51535750D01*
X34803750Y-51535750D01*
X34685500Y-51417500D01*
X34685500Y-51377000D01*
X34645000Y-51377000D01*
X34526750Y-51258750D01*
X33810750Y-51258750D01*
X33692500Y-51377000D01*
X33652000Y-51377000D01*
X33652000Y-51417500D01*
X33533750Y-51535750D01*
X33516250Y-51535750D01*
X33398000Y-51417500D01*
X33398000Y-51377000D01*
X33357500Y-51377000D01*
X33239250Y-51258750D01*
X32523250Y-51258750D01*
X32405000Y-51377000D01*
X32364500Y-51377000D01*
X32364500Y-51417500D01*
X32246250Y-51535750D01*
X32110500Y-51535750D01*
X32110500Y-51377000D01*
X32090500Y-51377000D01*
X32090500Y-51123000D01*
X32110500Y-51123000D01*
X32110500Y-50248250D01*
X32246250Y-50248250D01*
X32246250Y-50964250D01*
X32364500Y-51082500D01*
X32364500Y-51123000D01*
X32405000Y-51123000D01*
X32523250Y-51241250D01*
X33239250Y-51241250D01*
X33357500Y-51123000D01*
X33398000Y-51123000D01*
X33398000Y-51082500D01*
X33516250Y-50964250D01*
X33516250Y-50248250D01*
X33533750Y-50248250D01*
X33533750Y-50964250D01*
X33652000Y-51082500D01*
X33652000Y-51123000D01*
X33692500Y-51123000D01*
X33810750Y-51241250D01*
X34526750Y-51241250D01*
X34645000Y-51123000D01*
X34685500Y-51123000D01*
X34685500Y-51082500D01*
X34803750Y-50964250D01*
X34803750Y-50248250D01*
X34821250Y-50248250D01*
X34821250Y-50964250D01*
X34939500Y-51082500D01*
X34939500Y-51123000D01*
X34980000Y-51123000D01*
X35098250Y-51241250D01*
X35814250Y-51241250D01*
X35932500Y-51123000D01*
X35973000Y-51123000D01*
X35973000Y-51082500D01*
X36091250Y-50964250D01*
X36091250Y-50248250D01*
X35973000Y-50130000D01*
X35973000Y-50089500D01*
X35932500Y-50089500D01*
X35814250Y-49971250D01*
X35098250Y-49971250D01*
X34980000Y-50089500D01*
X34939500Y-50089500D01*
X34939500Y-50130000D01*
X34821250Y-50248250D01*
X34803750Y-50248250D01*
X34685500Y-50130000D01*
X34685500Y-50089500D01*
X34645000Y-50089500D01*
X34526750Y-49971250D01*
X33810750Y-49971250D01*
X33692500Y-50089500D01*
X33652000Y-50089500D01*
X33652000Y-50130000D01*
X33533750Y-50248250D01*
X33516250Y-50248250D01*
X33398000Y-50130000D01*
X33398000Y-50089500D01*
X33357500Y-50089500D01*
X33239250Y-49971250D01*
X32523250Y-49971250D01*
X32405000Y-50089500D01*
X32364500Y-50089500D01*
X32364500Y-50130000D01*
X32246250Y-50248250D01*
X32110500Y-50248250D01*
X32110500Y-50089500D01*
X32090500Y-50089500D01*
X32090500Y-49835500D01*
X32110500Y-49835500D01*
X32110500Y-48960750D01*
X32246250Y-48960750D01*
X32246250Y-49676750D01*
X32364500Y-49795000D01*
X32364500Y-49835500D01*
X32405000Y-49835500D01*
X32523250Y-49953750D01*
X33239250Y-49953750D01*
X33357500Y-49835500D01*
X33398000Y-49835500D01*
X33398000Y-49795000D01*
X33516250Y-49676750D01*
X33516250Y-48960750D01*
X33533750Y-48960750D01*
X33533750Y-49676750D01*
X33652000Y-49795000D01*
X33652000Y-49835500D01*
X33692500Y-49835500D01*
X33810750Y-49953750D01*
X34526750Y-49953750D01*
X34645000Y-49835500D01*
X34685500Y-49835500D01*
X34685500Y-49795000D01*
X34803750Y-49676750D01*
X34803750Y-48960750D01*
X34821250Y-48960750D01*
X34821250Y-49676750D01*
X34939500Y-49795000D01*
X34939500Y-49835500D01*
X34980000Y-49835500D01*
X35098250Y-49953750D01*
X35814250Y-49953750D01*
X35932500Y-49835500D01*
X35973000Y-49835500D01*
X35973000Y-49795000D01*
X36091250Y-49676750D01*
X36091250Y-48960750D01*
X35973000Y-48842500D01*
X35973000Y-48802000D01*
X35932500Y-48802000D01*
X35814250Y-48683750D01*
X35098250Y-48683750D01*
X34980000Y-48802000D01*
X34939500Y-48802000D01*
X34939500Y-48842500D01*
X34821250Y-48960750D01*
X34803750Y-48960750D01*
X34685500Y-48842500D01*
X34685500Y-48802000D01*
X34645000Y-48802000D01*
X34526750Y-48683750D01*
X33810750Y-48683750D01*
X33692500Y-48802000D01*
X33652000Y-48802000D01*
X33652000Y-48842500D01*
X33533750Y-48960750D01*
X33516250Y-48960750D01*
X33398000Y-48842500D01*
X33398000Y-48802000D01*
X33357500Y-48802000D01*
X33239250Y-48683750D01*
X32523250Y-48683750D01*
X32405000Y-48802000D01*
X32364500Y-48802000D01*
X32364500Y-48842500D01*
X32246250Y-48960750D01*
X32110500Y-48960750D01*
X32110500Y-48802000D01*
X32090500Y-48802000D01*
X32090500Y-48548000D01*
X32110500Y-48548000D01*
X32110500Y-48528000D01*
X32364500Y-48528000D01*
X32364500Y-48548000D01*
X32364500Y-48548000D01*
G37*
X32364500Y-48548000D02*
X33398000Y-48548000D01*
X33398000Y-48528000D01*
X33652000Y-48528000D01*
X33652000Y-48548000D01*
X34685500Y-48548000D01*
X34685500Y-48528000D01*
X34939500Y-48528000D01*
X34939500Y-48548000D01*
X35973000Y-48548000D01*
X35973000Y-48528000D01*
X36227000Y-48528000D01*
X36227000Y-48548000D01*
X36247000Y-48548000D01*
X36247000Y-48802000D01*
X36227000Y-48802000D01*
X36227000Y-49835500D01*
X36247000Y-49835500D01*
X36247000Y-50089500D01*
X36227000Y-50089500D01*
X36227000Y-51123000D01*
X36247000Y-51123000D01*
X36247000Y-51377000D01*
X36227000Y-51377000D01*
X36227000Y-52410500D01*
X36247000Y-52410500D01*
X36247000Y-52664500D01*
X36227000Y-52664500D01*
X36227000Y-52684500D01*
X35973000Y-52684500D01*
X35973000Y-52664500D01*
X34939500Y-52664500D01*
X34939500Y-52684500D01*
X34685500Y-52684500D01*
X34685500Y-52664500D01*
X33652000Y-52664500D01*
X33652000Y-52684500D01*
X33398000Y-52684500D01*
X33398000Y-52664500D01*
X32364500Y-52664500D01*
X32364500Y-52684500D01*
X32110500Y-52684500D01*
X32110500Y-52664500D01*
X32090500Y-52664500D01*
X32090500Y-52410500D01*
X32110500Y-52410500D01*
X32110500Y-51535750D01*
X32246250Y-51535750D01*
X32246250Y-52251750D01*
X32364500Y-52370000D01*
X32364500Y-52410500D01*
X32405000Y-52410500D01*
X32523250Y-52528750D01*
X33239250Y-52528750D01*
X33357500Y-52410500D01*
X33398000Y-52410500D01*
X33398000Y-52370000D01*
X33516250Y-52251750D01*
X33516250Y-51535750D01*
X33533750Y-51535750D01*
X33533750Y-52251750D01*
X33652000Y-52370000D01*
X33652000Y-52410500D01*
X33692500Y-52410500D01*
X33810750Y-52528750D01*
X34526750Y-52528750D01*
X34645000Y-52410500D01*
X34685500Y-52410500D01*
X34685500Y-52370000D01*
X34803750Y-52251750D01*
X34803750Y-51535750D01*
X34821250Y-51535750D01*
X34821250Y-52251750D01*
X34939500Y-52370000D01*
X34939500Y-52410500D01*
X34980000Y-52410500D01*
X35098250Y-52528750D01*
X35814250Y-52528750D01*
X35932500Y-52410500D01*
X35973000Y-52410500D01*
X35973000Y-52370000D01*
X36091250Y-52251750D01*
X36091250Y-51535750D01*
X35973000Y-51417500D01*
X35973000Y-51377000D01*
X35932500Y-51377000D01*
X35814250Y-51258750D01*
X35098250Y-51258750D01*
X34980000Y-51377000D01*
X34939500Y-51377000D01*
X34939500Y-51417500D01*
X34821250Y-51535750D01*
X34803750Y-51535750D01*
X34685500Y-51417500D01*
X34685500Y-51377000D01*
X34645000Y-51377000D01*
X34526750Y-51258750D01*
X33810750Y-51258750D01*
X33692500Y-51377000D01*
X33652000Y-51377000D01*
X33652000Y-51417500D01*
X33533750Y-51535750D01*
X33516250Y-51535750D01*
X33398000Y-51417500D01*
X33398000Y-51377000D01*
X33357500Y-51377000D01*
X33239250Y-51258750D01*
X32523250Y-51258750D01*
X32405000Y-51377000D01*
X32364500Y-51377000D01*
X32364500Y-51417500D01*
X32246250Y-51535750D01*
X32110500Y-51535750D01*
X32110500Y-51377000D01*
X32090500Y-51377000D01*
X32090500Y-51123000D01*
X32110500Y-51123000D01*
X32110500Y-50248250D01*
X32246250Y-50248250D01*
X32246250Y-50964250D01*
X32364500Y-51082500D01*
X32364500Y-51123000D01*
X32405000Y-51123000D01*
X32523250Y-51241250D01*
X33239250Y-51241250D01*
X33357500Y-51123000D01*
X33398000Y-51123000D01*
X33398000Y-51082500D01*
X33516250Y-50964250D01*
X33516250Y-50248250D01*
X33533750Y-50248250D01*
X33533750Y-50964250D01*
X33652000Y-51082500D01*
X33652000Y-51123000D01*
X33692500Y-51123000D01*
X33810750Y-51241250D01*
X34526750Y-51241250D01*
X34645000Y-51123000D01*
X34685500Y-51123000D01*
X34685500Y-51082500D01*
X34803750Y-50964250D01*
X34803750Y-50248250D01*
X34821250Y-50248250D01*
X34821250Y-50964250D01*
X34939500Y-51082500D01*
X34939500Y-51123000D01*
X34980000Y-51123000D01*
X35098250Y-51241250D01*
X35814250Y-51241250D01*
X35932500Y-51123000D01*
X35973000Y-51123000D01*
X35973000Y-51082500D01*
X36091250Y-50964250D01*
X36091250Y-50248250D01*
X35973000Y-50130000D01*
X35973000Y-50089500D01*
X35932500Y-50089500D01*
X35814250Y-49971250D01*
X35098250Y-49971250D01*
X34980000Y-50089500D01*
X34939500Y-50089500D01*
X34939500Y-50130000D01*
X34821250Y-50248250D01*
X34803750Y-50248250D01*
X34685500Y-50130000D01*
X34685500Y-50089500D01*
X34645000Y-50089500D01*
X34526750Y-49971250D01*
X33810750Y-49971250D01*
X33692500Y-50089500D01*
X33652000Y-50089500D01*
X33652000Y-50130000D01*
X33533750Y-50248250D01*
X33516250Y-50248250D01*
X33398000Y-50130000D01*
X33398000Y-50089500D01*
X33357500Y-50089500D01*
X33239250Y-49971250D01*
X32523250Y-49971250D01*
X32405000Y-50089500D01*
X32364500Y-50089500D01*
X32364500Y-50130000D01*
X32246250Y-50248250D01*
X32110500Y-50248250D01*
X32110500Y-50089500D01*
X32090500Y-50089500D01*
X32090500Y-49835500D01*
X32110500Y-49835500D01*
X32110500Y-48960750D01*
X32246250Y-48960750D01*
X32246250Y-49676750D01*
X32364500Y-49795000D01*
X32364500Y-49835500D01*
X32405000Y-49835500D01*
X32523250Y-49953750D01*
X33239250Y-49953750D01*
X33357500Y-49835500D01*
X33398000Y-49835500D01*
X33398000Y-49795000D01*
X33516250Y-49676750D01*
X33516250Y-48960750D01*
X33533750Y-48960750D01*
X33533750Y-49676750D01*
X33652000Y-49795000D01*
X33652000Y-49835500D01*
X33692500Y-49835500D01*
X33810750Y-49953750D01*
X34526750Y-49953750D01*
X34645000Y-49835500D01*
X34685500Y-49835500D01*
X34685500Y-49795000D01*
X34803750Y-49676750D01*
X34803750Y-48960750D01*
X34821250Y-48960750D01*
X34821250Y-49676750D01*
X34939500Y-49795000D01*
X34939500Y-49835500D01*
X34980000Y-49835500D01*
X35098250Y-49953750D01*
X35814250Y-49953750D01*
X35932500Y-49835500D01*
X35973000Y-49835500D01*
X35973000Y-49795000D01*
X36091250Y-49676750D01*
X36091250Y-48960750D01*
X35973000Y-48842500D01*
X35973000Y-48802000D01*
X35932500Y-48802000D01*
X35814250Y-48683750D01*
X35098250Y-48683750D01*
X34980000Y-48802000D01*
X34939500Y-48802000D01*
X34939500Y-48842500D01*
X34821250Y-48960750D01*
X34803750Y-48960750D01*
X34685500Y-48842500D01*
X34685500Y-48802000D01*
X34645000Y-48802000D01*
X34526750Y-48683750D01*
X33810750Y-48683750D01*
X33692500Y-48802000D01*
X33652000Y-48802000D01*
X33652000Y-48842500D01*
X33533750Y-48960750D01*
X33516250Y-48960750D01*
X33398000Y-48842500D01*
X33398000Y-48802000D01*
X33357500Y-48802000D01*
X33239250Y-48683750D01*
X32523250Y-48683750D01*
X32405000Y-48802000D01*
X32364500Y-48802000D01*
X32364500Y-48842500D01*
X32246250Y-48960750D01*
X32110500Y-48960750D01*
X32110500Y-48802000D01*
X32090500Y-48802000D01*
X32090500Y-48548000D01*
X32110500Y-48548000D01*
X32110500Y-48528000D01*
X32364500Y-48528000D01*
X32364500Y-48548000D01*
G36*
X37695750Y-49793750D02*
X37715750Y-49793750D01*
X37715750Y-49918750D01*
X37695750Y-49918750D01*
X37695750Y-49948824D01*
X37441750Y-49948824D01*
X37441750Y-49918750D01*
X37421750Y-49918750D01*
X37421750Y-49793750D01*
X37441750Y-49793750D01*
X37441750Y-49763676D01*
X37695750Y-49763676D01*
X37695750Y-49793750D01*
X37695750Y-49793750D01*
G37*
X37695750Y-49793750D02*
X37715750Y-49793750D01*
X37715750Y-49918750D01*
X37695750Y-49918750D01*
X37695750Y-49948824D01*
X37441750Y-49948824D01*
X37441750Y-49918750D01*
X37421750Y-49918750D01*
X37421750Y-49793750D01*
X37441750Y-49793750D01*
X37441750Y-49763676D01*
X37695750Y-49763676D01*
X37695750Y-49793750D01*
G36*
X31981250Y-47079250D02*
X32011324Y-47079250D01*
X32011324Y-47333250D01*
X31981250Y-47333250D01*
X31981250Y-47353250D01*
X31856250Y-47353250D01*
X31856250Y-47333250D01*
X31826176Y-47333250D01*
X31826176Y-47079250D01*
X31856250Y-47079250D01*
X31856250Y-47059250D01*
X31981250Y-47059250D01*
X31981250Y-47079250D01*
X31981250Y-47079250D01*
G37*
X31981250Y-47079250D02*
X32011324Y-47079250D01*
X32011324Y-47333250D01*
X31981250Y-47333250D01*
X31981250Y-47353250D01*
X31856250Y-47353250D01*
X31856250Y-47333250D01*
X31826176Y-47333250D01*
X31826176Y-47079250D01*
X31856250Y-47079250D01*
X31856250Y-47059250D01*
X31981250Y-47059250D01*
X31981250Y-47079250D01*
M02*
