G04 #@! TF.FileFunction,Soldermask,Top*
%FSLAX46Y46*%
G04 Gerber Fmt 4.6, Leading zero omitted, Abs format (unit mm)*
G04 Created by KiCad (PCBNEW 4.0.2-stable) date Saturday, November 25, 2017 'AMt' 08:54:30 AM*
%MOMM*%
G01*
G04 APERTURE LIST*
%ADD10C,0.100000*%
%ADD11R,1.450000X0.500000*%
%ADD12R,1.400000X0.800000*%
%ADD13R,0.800000X1.400000*%
%ADD14C,1.624000*%
%ADD15R,1.000000X1.100000*%
%ADD16R,1.600000X1.100000*%
%ADD17R,1.100000X1.350000*%
%ADD18R,1.700000X1.500000*%
%ADD19R,2.000000X0.500000*%
%ADD20R,2.200000X1.700000*%
%ADD21R,0.500000X1.450000*%
%ADD22R,1.900000X2.000000*%
%ADD23R,1.350000X1.100000*%
G04 APERTURE END LIST*
D10*
D11*
X31100000Y-35000000D03*
X31100000Y-34350000D03*
X31100000Y-33700000D03*
X31100000Y-33050000D03*
X31100000Y-32400000D03*
X31100000Y-31750000D03*
X31100000Y-31100000D03*
X31100000Y-30450000D03*
X31100000Y-29800000D03*
X31100000Y-29150000D03*
X36850000Y-29150000D03*
X36850000Y-29800000D03*
X36850000Y-30450000D03*
X36850000Y-31100000D03*
X36850000Y-31750000D03*
X36850000Y-32400000D03*
X36850000Y-33050000D03*
X36850000Y-33700000D03*
X36850000Y-34350000D03*
X36850000Y-35000000D03*
D12*
X31000000Y-25800000D03*
X31000000Y-23900000D03*
D13*
X26450000Y-34550000D03*
X24550000Y-34550000D03*
X24450000Y-36500000D03*
X26350000Y-36500000D03*
X41950000Y-35850000D03*
X43850000Y-35850000D03*
D14*
X46500000Y-24350000D03*
X46500000Y-26890000D03*
X46500000Y-29430000D03*
X46500000Y-31970000D03*
X46500000Y-34510000D03*
X46500000Y-37050000D03*
X46500000Y-39590000D03*
X21500000Y-39660000D03*
X21500000Y-37120000D03*
X21500000Y-34580000D03*
X21500000Y-32040000D03*
X21500000Y-29500000D03*
X21500000Y-26960000D03*
X21500000Y-24420000D03*
D15*
X29250000Y-21600000D03*
D16*
X31000000Y-22000000D03*
X27500000Y-22000000D03*
D17*
X38750000Y-32000000D03*
X40750000Y-32000000D03*
D18*
X34400000Y-22000000D03*
X40000000Y-22000000D03*
X40000000Y-25000000D03*
X34400000Y-25000000D03*
D19*
X39750000Y-33700000D03*
X39750000Y-34900000D03*
X39750000Y-36100000D03*
D20*
X37110000Y-39730000D03*
X30910000Y-39730000D03*
D21*
X35310000Y-39605000D03*
X32710000Y-39605000D03*
X34660000Y-39605000D03*
X33360000Y-39605000D03*
D22*
X35270000Y-42450000D03*
X32770000Y-42450000D03*
X37820000Y-42450000D03*
X30220000Y-42450000D03*
D21*
X34010000Y-39605000D03*
D23*
X26450000Y-32100000D03*
X26450000Y-30100000D03*
X28400000Y-32100000D03*
X28400000Y-30100000D03*
M02*
