G04 #@! TF.FileFunction,Legend,Top*
%FSLAX46Y46*%
G04 Gerber Fmt 4.6, Leading zero omitted, Abs format (unit mm)*
G04 Created by KiCad (PCBNEW 4.0.2-stable) date Saturday, November 25, 2017 'AMt' 08:54:30 AM*
%MOMM*%
G01*
G04 APERTURE LIST*
%ADD10C,0.100000*%
%ADD11C,0.120000*%
%ADD12C,0.150000*%
G04 APERTURE END LIST*
D10*
D11*
X31880000Y-24250000D02*
X31880000Y-25450000D01*
X30120000Y-25450000D02*
X30120000Y-24250000D01*
X24900000Y-33670000D02*
X26100000Y-33670000D01*
X26100000Y-35430000D02*
X24900000Y-35430000D01*
X26000000Y-37380000D02*
X24800000Y-37380000D01*
X24800000Y-35620000D02*
X26000000Y-35620000D01*
X43500000Y-36730000D02*
X42300000Y-36730000D01*
X42300000Y-34970000D02*
X43500000Y-34970000D01*
X40250000Y-31150000D02*
X39250000Y-31150000D01*
X39250000Y-32850000D02*
X40250000Y-32850000D01*
X25600000Y-30600000D02*
X25600000Y-31600000D01*
X27300000Y-31600000D02*
X27300000Y-30600000D01*
X27550000Y-30600000D02*
X27550000Y-31600000D01*
X29250000Y-31600000D02*
X29250000Y-30600000D01*
D12*
X29802381Y-25016666D02*
X29326190Y-25350000D01*
X29802381Y-25588095D02*
X28802381Y-25588095D01*
X28802381Y-25207142D01*
X28850000Y-25111904D01*
X28897619Y-25064285D01*
X28992857Y-25016666D01*
X29135714Y-25016666D01*
X29230952Y-25064285D01*
X29278571Y-25111904D01*
X29326190Y-25207142D01*
X29326190Y-25588095D01*
X29802381Y-24064285D02*
X29802381Y-24635714D01*
X29802381Y-24350000D02*
X28802381Y-24350000D01*
X28945238Y-24445238D01*
X29040476Y-24540476D01*
X29088095Y-24635714D01*
M02*
