G04 #@! TF.FileFunction,Soldermask,Bot*
%FSLAX46Y46*%
G04 Gerber Fmt 4.6, Leading zero omitted, Abs format (unit mm)*
G04 Created by KiCad (PCBNEW 4.0.2-stable) date Thursday, November 23, 2017 'PMt' 08:45:23 PM*
%MOMM*%
G01*
G04 APERTURE LIST*
%ADD10C,0.100000*%
%ADD11R,1.000000X1.250000*%
%ADD12C,1.270000*%
%ADD13R,1.300000X0.700000*%
%ADD14R,3.250000X2.150000*%
%ADD15R,0.950000X2.150000*%
%ADD16C,1.524000*%
%ADD17R,0.520000X0.300000*%
%ADD18R,2.100000X1.600000*%
%ADD19R,0.400000X1.350000*%
%ADD20R,1.800000X1.900000*%
G04 APERTURE END LIST*
D10*
D11*
X117650000Y-105600000D03*
X119650000Y-105600000D03*
X123110000Y-101710000D03*
X125110000Y-101710000D03*
D12*
X112290000Y-91090000D03*
D13*
X115340000Y-106170000D03*
X115340000Y-108070000D03*
D14*
X130000000Y-92400000D03*
D15*
X132300000Y-98200000D03*
X127700000Y-98200000D03*
X130000000Y-98200000D03*
D16*
X135920000Y-95380000D03*
X135920000Y-97920000D03*
X135920000Y-100460000D03*
X135920000Y-103000000D03*
X135920000Y-105540000D03*
X135920000Y-108080000D03*
X135920000Y-110620000D03*
X112080000Y-110620000D03*
X112080000Y-108080000D03*
X112080000Y-105540000D03*
X112080000Y-103000000D03*
X112080000Y-100460000D03*
X112080000Y-97920000D03*
X112080000Y-95380000D03*
D17*
X122640000Y-105580000D03*
X122640000Y-106080000D03*
X122640000Y-106580000D03*
X123380000Y-106580000D03*
X123380000Y-106080000D03*
X123380000Y-105580000D03*
D18*
X120900000Y-108250000D03*
X127100000Y-108250000D03*
D19*
X122700000Y-108125000D03*
X125300000Y-108125000D03*
X123350000Y-108125000D03*
X124650000Y-108125000D03*
D20*
X122740000Y-110970000D03*
X125240000Y-110970000D03*
X120190000Y-110970000D03*
X127790000Y-110970000D03*
D19*
X124000000Y-108125000D03*
M02*
