G04 #@! TF.FileFunction,Copper,L2,Bot,Signal*
%FSLAX46Y46*%
G04 Gerber Fmt 4.6, Leading zero omitted, Abs format (unit mm)*
G04 Created by KiCad (PCBNEW 4.0.2-stable) date Friday, November 24, 2017 'AMt' 11:01:48 AM*
%MOMM*%
G01*
G04 APERTURE LIST*
%ADD10C,0.100000*%
%ADD11C,1.270000*%
%ADD12R,1.300000X0.700000*%
%ADD13C,1.524000*%
%ADD14R,2.100000X1.600000*%
%ADD15R,0.400000X1.350000*%
%ADD16R,1.800000X1.900000*%
%ADD17R,0.520000X0.300000*%
%ADD18R,1.000000X1.250000*%
%ADD19R,3.250000X2.150000*%
%ADD20R,0.950000X2.150000*%
%ADD21C,0.600000*%
%ADD22C,0.250000*%
%ADD23C,0.150000*%
G04 APERTURE END LIST*
D10*
D11*
X112290000Y-91090000D03*
D12*
X115340000Y-106170000D03*
X115340000Y-108070000D03*
D13*
X135920000Y-95380000D03*
X135920000Y-97920000D03*
X135920000Y-100460000D03*
X135920000Y-103000000D03*
X135920000Y-105540000D03*
X135920000Y-108080000D03*
X135920000Y-110620000D03*
X112080000Y-110620000D03*
X112080000Y-108080000D03*
X112080000Y-105540000D03*
X112080000Y-103000000D03*
X112080000Y-100460000D03*
X112080000Y-97920000D03*
X112080000Y-95380000D03*
D14*
X120900000Y-108250000D03*
X127100000Y-108250000D03*
D15*
X122700000Y-108125000D03*
X125300000Y-108125000D03*
X123350000Y-108125000D03*
X124650000Y-108125000D03*
D16*
X122740000Y-110970000D03*
X125240000Y-110970000D03*
X120190000Y-110970000D03*
X127790000Y-110970000D03*
D15*
X124000000Y-108125000D03*
D17*
X122640000Y-105580000D03*
X122640000Y-106080000D03*
X122640000Y-106580000D03*
X123380000Y-106580000D03*
X123380000Y-106080000D03*
X123380000Y-105580000D03*
D18*
X123110000Y-101710000D03*
X125110000Y-101710000D03*
D19*
X130000000Y-92400000D03*
D20*
X132300000Y-98200000D03*
X127700000Y-98200000D03*
X130000000Y-98200000D03*
D18*
X117650000Y-105600000D03*
X119650000Y-105600000D03*
D21*
X125703863Y-97942936D03*
X124130000Y-102210001D03*
X118675000Y-101280000D03*
X119290000Y-97380000D03*
X126470000Y-91990000D03*
X110660000Y-104930000D03*
X113450000Y-105340000D03*
X118649998Y-105580000D03*
X122240000Y-101570000D03*
X130200000Y-110940000D03*
X123950000Y-109360000D03*
X128820000Y-98140000D03*
X125620099Y-100585100D03*
X125701226Y-102826610D03*
X128568713Y-99957627D03*
X124841127Y-94900025D03*
X128125002Y-102220000D03*
X137600000Y-101920000D03*
X125405947Y-103631163D03*
X132240000Y-103280000D03*
X125233703Y-105376528D03*
X124140000Y-106090000D03*
D22*
X127700000Y-98200000D02*
X125960927Y-98200000D01*
X125960927Y-98200000D02*
X125703863Y-97942936D01*
X125110000Y-101710000D02*
X124630001Y-101710000D01*
X124630001Y-101710000D02*
X124130000Y-102210001D01*
X121180000Y-97000000D02*
X119670000Y-97000000D01*
X119670000Y-97000000D02*
X119290000Y-97380000D01*
X121180000Y-95060000D02*
X121180000Y-97000000D01*
X122720000Y-93520000D02*
X121180000Y-95060000D01*
X124345000Y-93520000D02*
X122720000Y-93520000D01*
X127700000Y-98200000D02*
X127700000Y-96875000D01*
X127700000Y-96875000D02*
X124345000Y-93520000D01*
X119290000Y-97380000D02*
X118675000Y-97995000D01*
X118675000Y-97995000D02*
X118675000Y-101280000D01*
X130000000Y-92400000D02*
X126880000Y-92400000D01*
X126880000Y-92400000D02*
X126470000Y-91990000D01*
X127200267Y-101159988D02*
X129253602Y-101159988D01*
X130000000Y-100413590D02*
X130000000Y-99525000D01*
X129253602Y-101159988D02*
X130000000Y-100413590D01*
X126000377Y-99960098D02*
X127200267Y-101159988D01*
X125149900Y-99960098D02*
X126000377Y-99960098D01*
X122240000Y-101570000D02*
X123539998Y-101570000D01*
X130000000Y-99525000D02*
X130000000Y-98200000D01*
X123539998Y-101570000D02*
X125149900Y-99960098D01*
X113450000Y-105340000D02*
X113450000Y-105764264D01*
X113450000Y-105764264D02*
X112587263Y-106627001D01*
X112587263Y-106627001D02*
X111558239Y-106627001D01*
X111558239Y-106627001D02*
X110660000Y-105728762D01*
X110660000Y-105728762D02*
X110660000Y-104930000D01*
X117650000Y-105600000D02*
X118629998Y-105600000D01*
X118629998Y-105600000D02*
X118649998Y-105580000D01*
X122240000Y-101570000D02*
X122970000Y-101570000D01*
X122970000Y-101570000D02*
X123110000Y-101710000D01*
X130000000Y-96875000D02*
X130000000Y-92400000D01*
X130000000Y-98200000D02*
X130000000Y-96875000D01*
X117340000Y-108070000D02*
X120190000Y-110920000D01*
X120190000Y-110920000D02*
X120190000Y-110970000D01*
X115340000Y-108070000D02*
X117340000Y-108070000D01*
X122640000Y-106580000D02*
X122570000Y-106580000D01*
X122570000Y-106580000D02*
X120900000Y-108250000D01*
X122700000Y-108125000D02*
X121025000Y-108125000D01*
X121025000Y-108125000D02*
X120900000Y-108250000D01*
X127790000Y-110970000D02*
X130170000Y-110970000D01*
X130170000Y-110970000D02*
X130200000Y-110940000D01*
X127790000Y-110970000D02*
X127790000Y-108940000D01*
X127790000Y-108940000D02*
X127100000Y-108250000D01*
X120190000Y-110970000D02*
X120190000Y-108960000D01*
X120190000Y-108960000D02*
X120900000Y-108250000D01*
X122740000Y-110970000D02*
X120190000Y-110970000D01*
X125240000Y-110970000D02*
X122740000Y-110970000D01*
X127790000Y-110970000D02*
X125240000Y-110970000D01*
X124970000Y-109380000D02*
X123970000Y-109380000D01*
X123970000Y-109380000D02*
X123950000Y-109360000D01*
X125300000Y-108125000D02*
X125300000Y-109050000D01*
X125300000Y-109050000D02*
X124970000Y-109380000D01*
X114330000Y-90510000D02*
X110992999Y-93847001D01*
X110992999Y-93847001D02*
X110992999Y-99938239D01*
X131395002Y-90510000D02*
X114330000Y-90510000D01*
X132280000Y-97580000D02*
X132280000Y-91394998D01*
X132280000Y-91394998D02*
X131395002Y-90510000D01*
X132300000Y-98200000D02*
X132300000Y-97600000D01*
X132300000Y-97600000D02*
X132280000Y-97580000D01*
X119807572Y-103331162D02*
X118886410Y-102410000D01*
X124180944Y-103331162D02*
X119807572Y-103331162D01*
X125105946Y-104256164D02*
X124180944Y-103331162D01*
X119816399Y-103339989D02*
X118886410Y-102410000D01*
X125858705Y-106569120D02*
X125858705Y-105052294D01*
X125300000Y-107127825D02*
X125858705Y-106569120D01*
X125300000Y-108125000D02*
X125300000Y-107127825D01*
X124146400Y-103339989D02*
X119816399Y-103339989D01*
X125858705Y-105052294D02*
X124146400Y-103339989D01*
X119650000Y-105600000D02*
X122620000Y-105600000D01*
X122620000Y-105600000D02*
X122640000Y-105580000D01*
X118886410Y-102410000D02*
X115849409Y-99372999D01*
X122130000Y-105580000D02*
X122640000Y-105580000D01*
X110992999Y-99938239D02*
X110992999Y-103521761D01*
X121159999Y-106550001D02*
X122130000Y-105580000D01*
X116824999Y-106485001D02*
X116889999Y-106550001D01*
X116824999Y-104714999D02*
X116824999Y-106485001D01*
X116889999Y-106550001D02*
X121159999Y-106550001D01*
X111558239Y-104087001D02*
X112530591Y-104087001D01*
X113158589Y-104714999D02*
X116824999Y-104714999D01*
X112530591Y-104087001D02*
X113158589Y-104714999D01*
X110992999Y-103521761D02*
X111558239Y-104087001D01*
X115849409Y-99372999D02*
X111558239Y-99372999D01*
X111558239Y-99372999D02*
X110992999Y-99938239D01*
X128820000Y-98140000D02*
X128820000Y-99706340D01*
X128820000Y-99706340D02*
X128568713Y-99957627D01*
X125703392Y-102826610D02*
X125935001Y-102595001D01*
X124841127Y-98402806D02*
X125498396Y-99060076D01*
X128144449Y-99957627D02*
X128568713Y-99957627D01*
X124841127Y-94900025D02*
X124841127Y-98402806D01*
X125935001Y-102595001D02*
X125935001Y-100900002D01*
X127270728Y-99957627D02*
X128144449Y-99957627D01*
X125935001Y-100900002D02*
X125620099Y-100585100D01*
X125498396Y-99060076D02*
X126373177Y-99060076D01*
X126373177Y-99060076D02*
X127270728Y-99957627D01*
X125701226Y-102826610D02*
X125703392Y-102826610D01*
X115340000Y-106170000D02*
X113990000Y-106170000D01*
X113990000Y-106170000D02*
X112080000Y-108080000D01*
X128609999Y-101620001D02*
X128125002Y-102104998D01*
X128125002Y-102104998D02*
X128125002Y-102220000D01*
X137600000Y-101920000D02*
X137300001Y-101620001D01*
X137300001Y-101620001D02*
X128609999Y-101620001D01*
X132240000Y-103280000D02*
X131888837Y-103631163D01*
X131888837Y-103631163D02*
X125830211Y-103631163D01*
X125830211Y-103631163D02*
X125405947Y-103631163D01*
X123350000Y-108125000D02*
X123350000Y-106610000D01*
X123350000Y-106610000D02*
X123380000Y-106580000D01*
X124155004Y-105180000D02*
X123890000Y-105180000D01*
X123890000Y-105180000D02*
X123490000Y-105580000D01*
X124765002Y-106390002D02*
X124765002Y-105789998D01*
X124765002Y-105789998D02*
X124155004Y-105180000D01*
X124000000Y-107155004D02*
X124765002Y-106390002D01*
X123490000Y-105580000D02*
X123380000Y-105580000D01*
X124000000Y-108125000D02*
X124000000Y-107155004D01*
X122440011Y-104240011D02*
X123380000Y-105180000D01*
X113320011Y-104240011D02*
X122440011Y-104240011D01*
X112080000Y-103000000D02*
X113320011Y-104240011D01*
X123380000Y-105180000D02*
X123380000Y-105580000D01*
X124650000Y-108125000D02*
X124650000Y-107141415D01*
X123380000Y-106080000D02*
X124130000Y-106080000D01*
X124933704Y-105076529D02*
X125233703Y-105376528D01*
X124650000Y-107141415D02*
X125233703Y-106557712D01*
X123647175Y-103790000D02*
X124933704Y-105076529D01*
X115410000Y-103790000D02*
X123647175Y-103790000D01*
X112080000Y-100460000D02*
X115410000Y-103790000D01*
X125233703Y-105800792D02*
X125233703Y-105376528D01*
X125233703Y-106557712D02*
X125233703Y-105800792D01*
X124130000Y-106080000D02*
X124140000Y-106090000D01*
D23*
G36*
X137425000Y-92527154D02*
X137425000Y-101244865D01*
X137300001Y-101220001D01*
X136626492Y-101220001D01*
X136798613Y-101048180D01*
X136956820Y-100667177D01*
X136957180Y-100254633D01*
X136799638Y-99873354D01*
X136508180Y-99581387D01*
X136127177Y-99423180D01*
X135714633Y-99422820D01*
X135333354Y-99580362D01*
X135041387Y-99871820D01*
X134883180Y-100252823D01*
X134882820Y-100665367D01*
X135040362Y-101046646D01*
X135213415Y-101220001D01*
X128609999Y-101220001D01*
X128456926Y-101250449D01*
X128327156Y-101337158D01*
X128327154Y-101337161D01*
X128019407Y-101644907D01*
X128011129Y-101644900D01*
X127799716Y-101732254D01*
X127637825Y-101893863D01*
X127550102Y-102105124D01*
X127549902Y-102333873D01*
X127637256Y-102545286D01*
X127798865Y-102707177D01*
X128010126Y-102794900D01*
X128238875Y-102795100D01*
X128450288Y-102707746D01*
X128612179Y-102546137D01*
X128699902Y-102334876D01*
X128700102Y-102106127D01*
X128697019Y-102098666D01*
X128775684Y-102020001D01*
X135576245Y-102020001D01*
X135333354Y-102120362D01*
X135041387Y-102411820D01*
X134883180Y-102792823D01*
X134882820Y-103205367D01*
X135040362Y-103586646D01*
X135331820Y-103878613D01*
X135712823Y-104036820D01*
X136125367Y-104037180D01*
X136506646Y-103879638D01*
X136798613Y-103588180D01*
X136956820Y-103207177D01*
X136957180Y-102794633D01*
X136799638Y-102413354D01*
X136508180Y-102121387D01*
X136264017Y-102020001D01*
X137024912Y-102020001D01*
X137024900Y-102033873D01*
X137112254Y-102245286D01*
X137273863Y-102407177D01*
X137425000Y-102469934D01*
X137425000Y-109968934D01*
X136957161Y-110436773D01*
X136957180Y-110414633D01*
X136799638Y-110033354D01*
X136508180Y-109741387D01*
X136127177Y-109583180D01*
X135714633Y-109582820D01*
X135333354Y-109740362D01*
X135041387Y-110031820D01*
X134883180Y-110412823D01*
X134882820Y-110825367D01*
X135040362Y-111206646D01*
X135331820Y-111498613D01*
X135712823Y-111656820D01*
X135737093Y-111656841D01*
X134968934Y-112425000D01*
X112531066Y-112425000D01*
X111684820Y-111578754D01*
X111872823Y-111656820D01*
X112285367Y-111657180D01*
X112666646Y-111499638D01*
X112958613Y-111208180D01*
X113023776Y-111051250D01*
X119065000Y-111051250D01*
X119065000Y-111964756D01*
X119099254Y-112047452D01*
X119162548Y-112110746D01*
X119245245Y-112145000D01*
X120108750Y-112145000D01*
X120165000Y-112088750D01*
X120165000Y-110995000D01*
X120215000Y-110995000D01*
X120215000Y-112088750D01*
X120271250Y-112145000D01*
X121134755Y-112145000D01*
X121217452Y-112110746D01*
X121280746Y-112047452D01*
X121315000Y-111964756D01*
X121315000Y-111051250D01*
X121615000Y-111051250D01*
X121615000Y-111964756D01*
X121649254Y-112047452D01*
X121712548Y-112110746D01*
X121795245Y-112145000D01*
X122658750Y-112145000D01*
X122715000Y-112088750D01*
X122715000Y-110995000D01*
X122765000Y-110995000D01*
X122765000Y-112088750D01*
X122821250Y-112145000D01*
X123684755Y-112145000D01*
X123767452Y-112110746D01*
X123830746Y-112047452D01*
X123865000Y-111964756D01*
X123865000Y-111051250D01*
X124115000Y-111051250D01*
X124115000Y-111964756D01*
X124149254Y-112047452D01*
X124212548Y-112110746D01*
X124295245Y-112145000D01*
X125158750Y-112145000D01*
X125215000Y-112088750D01*
X125215000Y-110995000D01*
X125265000Y-110995000D01*
X125265000Y-112088750D01*
X125321250Y-112145000D01*
X126184755Y-112145000D01*
X126267452Y-112110746D01*
X126330746Y-112047452D01*
X126365000Y-111964756D01*
X126365000Y-111051250D01*
X126665000Y-111051250D01*
X126665000Y-111964756D01*
X126699254Y-112047452D01*
X126762548Y-112110746D01*
X126845245Y-112145000D01*
X127708750Y-112145000D01*
X127765000Y-112088750D01*
X127765000Y-110995000D01*
X127815000Y-110995000D01*
X127815000Y-112088750D01*
X127871250Y-112145000D01*
X128734755Y-112145000D01*
X128817452Y-112110746D01*
X128880746Y-112047452D01*
X128915000Y-111964756D01*
X128915000Y-111051250D01*
X128858750Y-110995000D01*
X127815000Y-110995000D01*
X127765000Y-110995000D01*
X126721250Y-110995000D01*
X126665000Y-111051250D01*
X126365000Y-111051250D01*
X126308750Y-110995000D01*
X125265000Y-110995000D01*
X125215000Y-110995000D01*
X124171250Y-110995000D01*
X124115000Y-111051250D01*
X123865000Y-111051250D01*
X123808750Y-110995000D01*
X122765000Y-110995000D01*
X122715000Y-110995000D01*
X121671250Y-110995000D01*
X121615000Y-111051250D01*
X121315000Y-111051250D01*
X121258750Y-110995000D01*
X120215000Y-110995000D01*
X120165000Y-110995000D01*
X119121250Y-110995000D01*
X119065000Y-111051250D01*
X113023776Y-111051250D01*
X113116820Y-110827177D01*
X113117180Y-110414633D01*
X112959638Y-110033354D01*
X112901630Y-109975244D01*
X119065000Y-109975244D01*
X119065000Y-110888750D01*
X119121250Y-110945000D01*
X120165000Y-110945000D01*
X120165000Y-109851250D01*
X120215000Y-109851250D01*
X120215000Y-110945000D01*
X121258750Y-110945000D01*
X121315000Y-110888750D01*
X121315000Y-109975244D01*
X121615000Y-109975244D01*
X121615000Y-110888750D01*
X121671250Y-110945000D01*
X122715000Y-110945000D01*
X122715000Y-109851250D01*
X122658750Y-109795000D01*
X121795245Y-109795000D01*
X121712548Y-109829254D01*
X121649254Y-109892548D01*
X121615000Y-109975244D01*
X121315000Y-109975244D01*
X121280746Y-109892548D01*
X121217452Y-109829254D01*
X121134755Y-109795000D01*
X120271250Y-109795000D01*
X120215000Y-109851250D01*
X120165000Y-109851250D01*
X120108750Y-109795000D01*
X119245245Y-109795000D01*
X119162548Y-109829254D01*
X119099254Y-109892548D01*
X119065000Y-109975244D01*
X112901630Y-109975244D01*
X112668180Y-109741387D01*
X112287177Y-109583180D01*
X111874633Y-109582820D01*
X111493354Y-109740362D01*
X111201387Y-110031820D01*
X111043180Y-110412823D01*
X111042820Y-110825367D01*
X111121252Y-111015186D01*
X110575000Y-110468934D01*
X110575000Y-108285367D01*
X111042820Y-108285367D01*
X111200362Y-108666646D01*
X111491820Y-108958613D01*
X111872823Y-109116820D01*
X112285367Y-109117180D01*
X112666646Y-108959638D01*
X112958613Y-108668180D01*
X113116820Y-108287177D01*
X113116938Y-108151250D01*
X114465000Y-108151250D01*
X114465000Y-108464755D01*
X114499254Y-108547452D01*
X114562548Y-108610746D01*
X114645244Y-108645000D01*
X115258750Y-108645000D01*
X115315000Y-108588750D01*
X115315000Y-108095000D01*
X115365000Y-108095000D01*
X115365000Y-108588750D01*
X115421250Y-108645000D01*
X116034756Y-108645000D01*
X116117452Y-108610746D01*
X116180746Y-108547452D01*
X116215000Y-108464755D01*
X116215000Y-108331250D01*
X119625000Y-108331250D01*
X119625000Y-109094756D01*
X119659254Y-109177452D01*
X119722548Y-109240746D01*
X119805245Y-109275000D01*
X120818750Y-109275000D01*
X120875000Y-109218750D01*
X120875000Y-108275000D01*
X120925000Y-108275000D01*
X120925000Y-109218750D01*
X120981250Y-109275000D01*
X121994755Y-109275000D01*
X122077452Y-109240746D01*
X122140746Y-109177452D01*
X122175000Y-109094756D01*
X122175000Y-108331250D01*
X122118750Y-108275000D01*
X120925000Y-108275000D01*
X120875000Y-108275000D01*
X119681250Y-108275000D01*
X119625000Y-108331250D01*
X116215000Y-108331250D01*
X116215000Y-108151250D01*
X116158750Y-108095000D01*
X115365000Y-108095000D01*
X115315000Y-108095000D01*
X114521250Y-108095000D01*
X114465000Y-108151250D01*
X113116938Y-108151250D01*
X113117180Y-107874633D01*
X113039369Y-107686317D01*
X113050441Y-107675245D01*
X114465000Y-107675245D01*
X114465000Y-107988750D01*
X114521250Y-108045000D01*
X115315000Y-108045000D01*
X115315000Y-107551250D01*
X115365000Y-107551250D01*
X115365000Y-108045000D01*
X116158750Y-108045000D01*
X116215000Y-107988750D01*
X116215000Y-107675245D01*
X116180746Y-107592548D01*
X116117452Y-107529254D01*
X116034756Y-107495000D01*
X115421250Y-107495000D01*
X115365000Y-107551250D01*
X115315000Y-107551250D01*
X115258750Y-107495000D01*
X114645244Y-107495000D01*
X114562548Y-107529254D01*
X114499254Y-107592548D01*
X114465000Y-107675245D01*
X113050441Y-107675245D01*
X113320442Y-107405244D01*
X119625000Y-107405244D01*
X119625000Y-108168750D01*
X119681250Y-108225000D01*
X120875000Y-108225000D01*
X120875000Y-107281250D01*
X120925000Y-107281250D01*
X120925000Y-108225000D01*
X122118750Y-108225000D01*
X122137500Y-108206250D01*
X122275000Y-108206250D01*
X122275000Y-108844756D01*
X122309254Y-108927452D01*
X122372548Y-108990746D01*
X122455245Y-109025000D01*
X122618750Y-109025000D01*
X122675000Y-108968750D01*
X122675000Y-108150000D01*
X122331250Y-108150000D01*
X122275000Y-108206250D01*
X122137500Y-108206250D01*
X122175000Y-108168750D01*
X122175000Y-107405244D01*
X122275000Y-107405244D01*
X122275000Y-108043750D01*
X122331250Y-108100000D01*
X122675000Y-108100000D01*
X122675000Y-107281250D01*
X122618750Y-107225000D01*
X122455245Y-107225000D01*
X122372548Y-107259254D01*
X122309254Y-107322548D01*
X122275000Y-107405244D01*
X122175000Y-107405244D01*
X122140746Y-107322548D01*
X122077452Y-107259254D01*
X121994755Y-107225000D01*
X120981250Y-107225000D01*
X120925000Y-107281250D01*
X120875000Y-107281250D01*
X120818750Y-107225000D01*
X119805245Y-107225000D01*
X119722548Y-107259254D01*
X119659254Y-107322548D01*
X119625000Y-107405244D01*
X113320442Y-107405244D01*
X114155686Y-106570000D01*
X114419021Y-106570000D01*
X114428788Y-106621909D01*
X114489016Y-106715506D01*
X114580914Y-106778296D01*
X114690000Y-106800387D01*
X115990000Y-106800387D01*
X116091909Y-106781212D01*
X116185506Y-106720984D01*
X116248296Y-106629086D01*
X116270387Y-106520000D01*
X116270387Y-105820000D01*
X116251212Y-105718091D01*
X116190984Y-105624494D01*
X116099086Y-105561704D01*
X115990000Y-105539613D01*
X114690000Y-105539613D01*
X114588091Y-105558788D01*
X114494494Y-105619016D01*
X114431704Y-105710914D01*
X114419738Y-105770000D01*
X113990000Y-105770000D01*
X113836926Y-105800448D01*
X113707157Y-105887157D01*
X112473688Y-107120626D01*
X112287177Y-107043180D01*
X111874633Y-107042820D01*
X111493354Y-107200362D01*
X111201387Y-107491820D01*
X111043180Y-107872823D01*
X111042820Y-108285367D01*
X110575000Y-108285367D01*
X110575000Y-91536047D01*
X111390278Y-90883824D01*
X111380158Y-90908196D01*
X111379842Y-91270216D01*
X111518090Y-91604800D01*
X111773853Y-91861011D01*
X112108196Y-91999842D01*
X112274327Y-91999987D01*
X110710156Y-93564158D01*
X110623447Y-93693927D01*
X110592999Y-93847001D01*
X110592999Y-103521761D01*
X110623447Y-103674835D01*
X110710156Y-103804604D01*
X111275396Y-104369844D01*
X111405165Y-104456553D01*
X111558239Y-104487001D01*
X112364905Y-104487001D01*
X112447767Y-104569863D01*
X112287177Y-104503180D01*
X111874633Y-104502820D01*
X111493354Y-104660362D01*
X111201387Y-104951820D01*
X111043180Y-105332823D01*
X111042820Y-105745367D01*
X111200362Y-106126646D01*
X111491820Y-106418613D01*
X111872823Y-106576820D01*
X112285367Y-106577180D01*
X112666646Y-106419638D01*
X112958613Y-106128180D01*
X113116820Y-105747177D01*
X113117180Y-105334633D01*
X113014594Y-105086357D01*
X113158589Y-105114999D01*
X116424999Y-105114999D01*
X116424999Y-106485001D01*
X116455447Y-106638075D01*
X116542156Y-106767844D01*
X116607156Y-106832844D01*
X116736925Y-106919553D01*
X116889999Y-106950001D01*
X121159999Y-106950001D01*
X121313073Y-106919553D01*
X121442842Y-106832844D01*
X121614435Y-106661250D01*
X122155000Y-106661250D01*
X122155000Y-106774755D01*
X122189254Y-106857452D01*
X122252548Y-106920746D01*
X122335244Y-106955000D01*
X122558750Y-106955000D01*
X122615000Y-106898750D01*
X122615000Y-106605000D01*
X122211250Y-106605000D01*
X122155000Y-106661250D01*
X121614435Y-106661250D01*
X122099613Y-106176072D01*
X122099613Y-106230000D01*
X122118788Y-106331909D01*
X122155000Y-106388184D01*
X122155000Y-106498750D01*
X122211250Y-106555000D01*
X122615000Y-106555000D01*
X122615000Y-106535000D01*
X122665000Y-106535000D01*
X122665000Y-106555000D01*
X122685000Y-106555000D01*
X122685000Y-106605000D01*
X122665000Y-106605000D01*
X122665000Y-106898750D01*
X122721250Y-106955000D01*
X122944756Y-106955000D01*
X122950000Y-106952828D01*
X122950000Y-107227173D01*
X122944755Y-107225000D01*
X122781250Y-107225000D01*
X122725000Y-107281250D01*
X122725000Y-108100000D01*
X122745000Y-108100000D01*
X122745000Y-108150000D01*
X122725000Y-108150000D01*
X122725000Y-108968750D01*
X122781250Y-109025000D01*
X122944755Y-109025000D01*
X122974282Y-109012769D01*
X123040914Y-109058296D01*
X123150000Y-109080387D01*
X123443505Y-109080387D01*
X123375100Y-109245124D01*
X123374900Y-109473873D01*
X123462254Y-109685286D01*
X123571777Y-109795000D01*
X122821250Y-109795000D01*
X122765000Y-109851250D01*
X122765000Y-110945000D01*
X123808750Y-110945000D01*
X123865000Y-110888750D01*
X123865000Y-109975244D01*
X123848294Y-109934912D01*
X124063873Y-109935100D01*
X124145619Y-109901323D01*
X124115000Y-109975244D01*
X124115000Y-110888750D01*
X124171250Y-110945000D01*
X125215000Y-110945000D01*
X125215000Y-109851250D01*
X125265000Y-109851250D01*
X125265000Y-110945000D01*
X126308750Y-110945000D01*
X126365000Y-110888750D01*
X126365000Y-109975244D01*
X126665000Y-109975244D01*
X126665000Y-110888750D01*
X126721250Y-110945000D01*
X127765000Y-110945000D01*
X127765000Y-109851250D01*
X127815000Y-109851250D01*
X127815000Y-110945000D01*
X128858750Y-110945000D01*
X128915000Y-110888750D01*
X128915000Y-109975244D01*
X128880746Y-109892548D01*
X128817452Y-109829254D01*
X128734755Y-109795000D01*
X127871250Y-109795000D01*
X127815000Y-109851250D01*
X127765000Y-109851250D01*
X127708750Y-109795000D01*
X126845245Y-109795000D01*
X126762548Y-109829254D01*
X126699254Y-109892548D01*
X126665000Y-109975244D01*
X126365000Y-109975244D01*
X126330746Y-109892548D01*
X126267452Y-109829254D01*
X126184755Y-109795000D01*
X125321250Y-109795000D01*
X125265000Y-109851250D01*
X125215000Y-109851250D01*
X125158750Y-109795000D01*
X124328124Y-109795000D01*
X124343150Y-109780000D01*
X124970000Y-109780000D01*
X125123074Y-109749552D01*
X125252843Y-109662843D01*
X125582840Y-109332845D01*
X125582843Y-109332843D01*
X125669552Y-109203073D01*
X125700000Y-109050000D01*
X125700000Y-108994407D01*
X125758296Y-108909086D01*
X125780387Y-108800000D01*
X125780387Y-108331250D01*
X125825000Y-108331250D01*
X125825000Y-109094756D01*
X125859254Y-109177452D01*
X125922548Y-109240746D01*
X126005245Y-109275000D01*
X127018750Y-109275000D01*
X127075000Y-109218750D01*
X127075000Y-108275000D01*
X127125000Y-108275000D01*
X127125000Y-109218750D01*
X127181250Y-109275000D01*
X128194755Y-109275000D01*
X128277452Y-109240746D01*
X128340746Y-109177452D01*
X128375000Y-109094756D01*
X128375000Y-108331250D01*
X128329117Y-108285367D01*
X134882820Y-108285367D01*
X135040362Y-108666646D01*
X135331820Y-108958613D01*
X135712823Y-109116820D01*
X136125367Y-109117180D01*
X136506646Y-108959638D01*
X136798613Y-108668180D01*
X136956820Y-108287177D01*
X136957180Y-107874633D01*
X136799638Y-107493354D01*
X136508180Y-107201387D01*
X136127177Y-107043180D01*
X135714633Y-107042820D01*
X135333354Y-107200362D01*
X135041387Y-107491820D01*
X134883180Y-107872823D01*
X134882820Y-108285367D01*
X128329117Y-108285367D01*
X128318750Y-108275000D01*
X127125000Y-108275000D01*
X127075000Y-108275000D01*
X125881250Y-108275000D01*
X125825000Y-108331250D01*
X125780387Y-108331250D01*
X125780387Y-107450000D01*
X125771966Y-107405244D01*
X125825000Y-107405244D01*
X125825000Y-108168750D01*
X125881250Y-108225000D01*
X127075000Y-108225000D01*
X127075000Y-107281250D01*
X127125000Y-107281250D01*
X127125000Y-108225000D01*
X128318750Y-108225000D01*
X128375000Y-108168750D01*
X128375000Y-107405244D01*
X128340746Y-107322548D01*
X128277452Y-107259254D01*
X128194755Y-107225000D01*
X127181250Y-107225000D01*
X127125000Y-107281250D01*
X127075000Y-107281250D01*
X127018750Y-107225000D01*
X126005245Y-107225000D01*
X125922548Y-107259254D01*
X125859254Y-107322548D01*
X125825000Y-107405244D01*
X125771966Y-107405244D01*
X125761212Y-107348091D01*
X125715875Y-107277636D01*
X126141548Y-106851963D01*
X126228257Y-106722194D01*
X126258705Y-106569120D01*
X126258705Y-105745367D01*
X134882820Y-105745367D01*
X135040362Y-106126646D01*
X135331820Y-106418613D01*
X135712823Y-106576820D01*
X136125367Y-106577180D01*
X136506646Y-106419638D01*
X136798613Y-106128180D01*
X136956820Y-105747177D01*
X136957180Y-105334633D01*
X136799638Y-104953354D01*
X136508180Y-104661387D01*
X136127177Y-104503180D01*
X135714633Y-104502820D01*
X135333354Y-104660362D01*
X135041387Y-104951820D01*
X134883180Y-105332823D01*
X134882820Y-105745367D01*
X126258705Y-105745367D01*
X126258705Y-105052294D01*
X126234428Y-104930244D01*
X126228257Y-104899220D01*
X126141548Y-104769451D01*
X125561244Y-104189147D01*
X125731233Y-104118909D01*
X125819132Y-104031163D01*
X131888837Y-104031163D01*
X132041911Y-104000715D01*
X132171680Y-103914006D01*
X132230694Y-103854992D01*
X132353873Y-103855100D01*
X132565286Y-103767746D01*
X132727177Y-103606137D01*
X132814900Y-103394876D01*
X132815100Y-103166127D01*
X132727746Y-102954714D01*
X132566137Y-102792823D01*
X132354876Y-102705100D01*
X132126127Y-102704900D01*
X131914714Y-102792254D01*
X131752823Y-102953863D01*
X131665100Y-103165124D01*
X131665042Y-103231163D01*
X126109850Y-103231163D01*
X126188403Y-103152747D01*
X126276126Y-102941486D01*
X126276258Y-102790421D01*
X126304553Y-102748074D01*
X126311582Y-102712737D01*
X126335002Y-102595001D01*
X126335001Y-102594996D01*
X126335001Y-100900007D01*
X126335002Y-100900002D01*
X126304553Y-100746928D01*
X126250055Y-100665367D01*
X126217844Y-100617159D01*
X126217841Y-100617157D01*
X126195091Y-100594407D01*
X126195199Y-100471227D01*
X126107845Y-100259814D01*
X125946236Y-100097923D01*
X125734975Y-100010200D01*
X125506226Y-100010000D01*
X125294813Y-100097354D01*
X125132922Y-100258963D01*
X125045199Y-100470224D01*
X125044999Y-100698973D01*
X125088649Y-100804613D01*
X124610000Y-100804613D01*
X124508091Y-100823788D01*
X124414494Y-100884016D01*
X124351704Y-100975914D01*
X124329613Y-101085000D01*
X124329613Y-101444702D01*
X124139306Y-101635009D01*
X124016127Y-101634901D01*
X123835000Y-101709741D01*
X123835000Y-101684998D01*
X123778752Y-101684998D01*
X123835000Y-101628750D01*
X123835000Y-101040244D01*
X123800746Y-100957548D01*
X123737452Y-100894254D01*
X123654755Y-100860000D01*
X123191250Y-100860000D01*
X123135000Y-100916250D01*
X123135000Y-101685000D01*
X123155000Y-101685000D01*
X123155000Y-101735000D01*
X123135000Y-101735000D01*
X123135000Y-102503750D01*
X123191250Y-102560000D01*
X123654755Y-102560000D01*
X123663364Y-102556434D01*
X123803863Y-102697178D01*
X124015124Y-102784901D01*
X124243873Y-102785101D01*
X124455286Y-102697747D01*
X124549968Y-102603230D01*
X124610000Y-102615387D01*
X125166333Y-102615387D01*
X125126326Y-102711734D01*
X125126126Y-102940483D01*
X125191118Y-103097777D01*
X125080661Y-103143417D01*
X124918770Y-103305026D01*
X124860595Y-103445127D01*
X124463787Y-103048319D01*
X124334018Y-102961610D01*
X124180944Y-102931162D01*
X119973258Y-102931162D01*
X118865524Y-101823428D01*
X118943401Y-101791250D01*
X122385000Y-101791250D01*
X122385000Y-102379756D01*
X122419254Y-102462452D01*
X122482548Y-102525746D01*
X122565245Y-102560000D01*
X123028750Y-102560000D01*
X123085000Y-102503750D01*
X123085000Y-101735000D01*
X122441250Y-101735000D01*
X122385000Y-101791250D01*
X118943401Y-101791250D01*
X119000286Y-101767746D01*
X119162177Y-101606137D01*
X119249900Y-101394876D01*
X119250100Y-101166127D01*
X119198087Y-101040244D01*
X122385000Y-101040244D01*
X122385000Y-101628750D01*
X122441250Y-101685000D01*
X123085000Y-101685000D01*
X123085000Y-100916250D01*
X123028750Y-100860000D01*
X122565245Y-100860000D01*
X122482548Y-100894254D01*
X122419254Y-100957548D01*
X122385000Y-101040244D01*
X119198087Y-101040244D01*
X119162746Y-100954714D01*
X119075000Y-100866815D01*
X119075000Y-98160686D01*
X119280693Y-97954992D01*
X119403873Y-97955100D01*
X119615286Y-97867746D01*
X119777177Y-97706137D01*
X119864900Y-97494876D01*
X119864983Y-97400000D01*
X121180000Y-97400000D01*
X121333073Y-97369552D01*
X121462843Y-97282843D01*
X121549552Y-97153073D01*
X121580000Y-97000000D01*
X121580000Y-95225686D01*
X122885686Y-93920000D01*
X124179314Y-93920000D01*
X124626054Y-94366740D01*
X124515841Y-94412279D01*
X124353950Y-94573888D01*
X124266227Y-94785149D01*
X124266027Y-95013898D01*
X124353381Y-95225311D01*
X124441127Y-95313210D01*
X124441127Y-98402806D01*
X124471575Y-98555879D01*
X124558284Y-98685649D01*
X124558287Y-98685651D01*
X125215551Y-99342916D01*
X125215553Y-99342919D01*
X125345323Y-99429628D01*
X125467947Y-99454019D01*
X125498395Y-99460076D01*
X126207491Y-99460076D01*
X126987885Y-100240470D01*
X127117654Y-100327179D01*
X127270728Y-100357628D01*
X127270733Y-100357627D01*
X128155551Y-100357627D01*
X128242576Y-100444804D01*
X128453837Y-100532527D01*
X128682586Y-100532727D01*
X128893999Y-100445373D01*
X129055890Y-100283764D01*
X129143613Y-100072503D01*
X129143739Y-99927977D01*
X129189552Y-99859413D01*
X129220000Y-99706340D01*
X129220000Y-98553162D01*
X129300000Y-98473301D01*
X129300000Y-99319756D01*
X129334254Y-99402452D01*
X129397548Y-99465746D01*
X129480245Y-99500000D01*
X129918750Y-99500000D01*
X129975000Y-99443750D01*
X129975000Y-98225000D01*
X130025000Y-98225000D01*
X130025000Y-99443750D01*
X130081250Y-99500000D01*
X130519755Y-99500000D01*
X130602452Y-99465746D01*
X130665746Y-99402452D01*
X130700000Y-99319756D01*
X130700000Y-98281250D01*
X130643750Y-98225000D01*
X130025000Y-98225000D01*
X129975000Y-98225000D01*
X129955000Y-98225000D01*
X129955000Y-98175000D01*
X129975000Y-98175000D01*
X129975000Y-96956250D01*
X130025000Y-96956250D01*
X130025000Y-98175000D01*
X130643750Y-98175000D01*
X130700000Y-98118750D01*
X130700000Y-97080244D01*
X130665746Y-96997548D01*
X130602452Y-96934254D01*
X130519755Y-96900000D01*
X130081250Y-96900000D01*
X130025000Y-96956250D01*
X129975000Y-96956250D01*
X129918750Y-96900000D01*
X129480245Y-96900000D01*
X129397548Y-96934254D01*
X129334254Y-96997548D01*
X129300000Y-97080244D01*
X129300000Y-97806954D01*
X129146137Y-97652823D01*
X128934876Y-97565100D01*
X128706127Y-97564900D01*
X128494714Y-97652254D01*
X128455387Y-97691512D01*
X128455387Y-97125000D01*
X128436212Y-97023091D01*
X128375984Y-96929494D01*
X128284086Y-96866704D01*
X128175000Y-96844613D01*
X128093956Y-96844613D01*
X128069552Y-96721927D01*
X127988083Y-96600000D01*
X127982843Y-96592157D01*
X127982840Y-96592155D01*
X124627843Y-93237157D01*
X124498074Y-93150448D01*
X124345000Y-93120000D01*
X122720000Y-93120000D01*
X122566926Y-93150448D01*
X122437157Y-93237157D01*
X120897157Y-94777157D01*
X120810448Y-94906926D01*
X120810448Y-94906927D01*
X120780000Y-95060000D01*
X120780000Y-96600000D01*
X119670000Y-96600000D01*
X119516926Y-96630448D01*
X119387157Y-96717157D01*
X119299306Y-96805008D01*
X119176127Y-96804900D01*
X118964714Y-96892254D01*
X118802823Y-97053863D01*
X118715100Y-97265124D01*
X118714991Y-97389323D01*
X118392157Y-97712157D01*
X118305448Y-97841926D01*
X118300425Y-97867177D01*
X118275000Y-97995000D01*
X118275000Y-100866838D01*
X118187823Y-100953863D01*
X118131529Y-101089433D01*
X116132252Y-99090156D01*
X116002483Y-99003447D01*
X115849409Y-98972999D01*
X111558239Y-98972999D01*
X111405165Y-99003447D01*
X111392999Y-99011576D01*
X111392999Y-98699619D01*
X111491820Y-98798613D01*
X111872823Y-98956820D01*
X112285367Y-98957180D01*
X112666646Y-98799638D01*
X112958613Y-98508180D01*
X113116820Y-98127177D01*
X113117180Y-97714633D01*
X112959638Y-97333354D01*
X112668180Y-97041387D01*
X112287177Y-96883180D01*
X111874633Y-96882820D01*
X111493354Y-97040362D01*
X111392999Y-97140542D01*
X111392999Y-96159619D01*
X111491820Y-96258613D01*
X111872823Y-96416820D01*
X112285367Y-96417180D01*
X112666646Y-96259638D01*
X112958613Y-95968180D01*
X113116820Y-95587177D01*
X113117180Y-95174633D01*
X112959638Y-94793354D01*
X112668180Y-94501387D01*
X112287177Y-94343180D01*
X111874633Y-94342820D01*
X111493354Y-94500362D01*
X111392999Y-94600542D01*
X111392999Y-94012687D01*
X112924436Y-92481250D01*
X128150000Y-92481250D01*
X128150000Y-93519756D01*
X128184254Y-93602452D01*
X128247548Y-93665746D01*
X128330245Y-93700000D01*
X129918750Y-93700000D01*
X129975000Y-93643750D01*
X129975000Y-92425000D01*
X130025000Y-92425000D01*
X130025000Y-93643750D01*
X130081250Y-93700000D01*
X131669755Y-93700000D01*
X131752452Y-93665746D01*
X131815746Y-93602452D01*
X131850000Y-93519756D01*
X131850000Y-92481250D01*
X131793750Y-92425000D01*
X130025000Y-92425000D01*
X129975000Y-92425000D01*
X128206250Y-92425000D01*
X128150000Y-92481250D01*
X112924436Y-92481250D01*
X114125442Y-91280244D01*
X128150000Y-91280244D01*
X128150000Y-92318750D01*
X128206250Y-92375000D01*
X129975000Y-92375000D01*
X129975000Y-91156250D01*
X129918750Y-91100000D01*
X128330245Y-91100000D01*
X128247548Y-91134254D01*
X128184254Y-91197548D01*
X128150000Y-91280244D01*
X114125442Y-91280244D01*
X114495686Y-90910000D01*
X131229316Y-90910000D01*
X131419316Y-91100000D01*
X130081250Y-91100000D01*
X130025000Y-91156250D01*
X130025000Y-92375000D01*
X131793750Y-92375000D01*
X131850000Y-92318750D01*
X131850000Y-91530684D01*
X131880000Y-91560684D01*
X131880000Y-96844613D01*
X131825000Y-96844613D01*
X131723091Y-96863788D01*
X131629494Y-96924016D01*
X131566704Y-97015914D01*
X131544613Y-97125000D01*
X131544613Y-99275000D01*
X131563788Y-99376909D01*
X131624016Y-99470506D01*
X131715914Y-99533296D01*
X131825000Y-99555387D01*
X132775000Y-99555387D01*
X132876909Y-99536212D01*
X132970506Y-99475984D01*
X133033296Y-99384086D01*
X133055387Y-99275000D01*
X133055387Y-98125367D01*
X134882820Y-98125367D01*
X135040362Y-98506646D01*
X135331820Y-98798613D01*
X135712823Y-98956820D01*
X136125367Y-98957180D01*
X136506646Y-98799638D01*
X136798613Y-98508180D01*
X136956820Y-98127177D01*
X136957180Y-97714633D01*
X136799638Y-97333354D01*
X136508180Y-97041387D01*
X136127177Y-96883180D01*
X135714633Y-96882820D01*
X135333354Y-97040362D01*
X135041387Y-97331820D01*
X134883180Y-97712823D01*
X134882820Y-98125367D01*
X133055387Y-98125367D01*
X133055387Y-97125000D01*
X133036212Y-97023091D01*
X132975984Y-96929494D01*
X132884086Y-96866704D01*
X132775000Y-96844613D01*
X132680000Y-96844613D01*
X132680000Y-95585367D01*
X134882820Y-95585367D01*
X135040362Y-95966646D01*
X135331820Y-96258613D01*
X135712823Y-96416820D01*
X136125367Y-96417180D01*
X136506646Y-96259638D01*
X136798613Y-95968180D01*
X136956820Y-95587177D01*
X136957180Y-95174633D01*
X136799638Y-94793354D01*
X136508180Y-94501387D01*
X136127177Y-94343180D01*
X135714633Y-94342820D01*
X135333354Y-94500362D01*
X135041387Y-94791820D01*
X134883180Y-95172823D01*
X134882820Y-95585367D01*
X132680000Y-95585367D01*
X132680000Y-91394998D01*
X132655495Y-91271804D01*
X132649552Y-91241924D01*
X132562843Y-91112155D01*
X131677845Y-90227157D01*
X131548076Y-90140448D01*
X131395002Y-90110000D01*
X114330000Y-90110000D01*
X114176926Y-90140448D01*
X114047157Y-90227157D01*
X113200014Y-91074300D01*
X113200158Y-90909784D01*
X113061910Y-90575200D01*
X112806147Y-90318989D01*
X112471804Y-90180158D01*
X112270081Y-90179982D01*
X113026308Y-89575000D01*
X134964871Y-89575000D01*
X137425000Y-92527154D01*
X137425000Y-92527154D01*
G37*
X137425000Y-92527154D02*
X137425000Y-101244865D01*
X137300001Y-101220001D01*
X136626492Y-101220001D01*
X136798613Y-101048180D01*
X136956820Y-100667177D01*
X136957180Y-100254633D01*
X136799638Y-99873354D01*
X136508180Y-99581387D01*
X136127177Y-99423180D01*
X135714633Y-99422820D01*
X135333354Y-99580362D01*
X135041387Y-99871820D01*
X134883180Y-100252823D01*
X134882820Y-100665367D01*
X135040362Y-101046646D01*
X135213415Y-101220001D01*
X128609999Y-101220001D01*
X128456926Y-101250449D01*
X128327156Y-101337158D01*
X128327154Y-101337161D01*
X128019407Y-101644907D01*
X128011129Y-101644900D01*
X127799716Y-101732254D01*
X127637825Y-101893863D01*
X127550102Y-102105124D01*
X127549902Y-102333873D01*
X127637256Y-102545286D01*
X127798865Y-102707177D01*
X128010126Y-102794900D01*
X128238875Y-102795100D01*
X128450288Y-102707746D01*
X128612179Y-102546137D01*
X128699902Y-102334876D01*
X128700102Y-102106127D01*
X128697019Y-102098666D01*
X128775684Y-102020001D01*
X135576245Y-102020001D01*
X135333354Y-102120362D01*
X135041387Y-102411820D01*
X134883180Y-102792823D01*
X134882820Y-103205367D01*
X135040362Y-103586646D01*
X135331820Y-103878613D01*
X135712823Y-104036820D01*
X136125367Y-104037180D01*
X136506646Y-103879638D01*
X136798613Y-103588180D01*
X136956820Y-103207177D01*
X136957180Y-102794633D01*
X136799638Y-102413354D01*
X136508180Y-102121387D01*
X136264017Y-102020001D01*
X137024912Y-102020001D01*
X137024900Y-102033873D01*
X137112254Y-102245286D01*
X137273863Y-102407177D01*
X137425000Y-102469934D01*
X137425000Y-109968934D01*
X136957161Y-110436773D01*
X136957180Y-110414633D01*
X136799638Y-110033354D01*
X136508180Y-109741387D01*
X136127177Y-109583180D01*
X135714633Y-109582820D01*
X135333354Y-109740362D01*
X135041387Y-110031820D01*
X134883180Y-110412823D01*
X134882820Y-110825367D01*
X135040362Y-111206646D01*
X135331820Y-111498613D01*
X135712823Y-111656820D01*
X135737093Y-111656841D01*
X134968934Y-112425000D01*
X112531066Y-112425000D01*
X111684820Y-111578754D01*
X111872823Y-111656820D01*
X112285367Y-111657180D01*
X112666646Y-111499638D01*
X112958613Y-111208180D01*
X113023776Y-111051250D01*
X119065000Y-111051250D01*
X119065000Y-111964756D01*
X119099254Y-112047452D01*
X119162548Y-112110746D01*
X119245245Y-112145000D01*
X120108750Y-112145000D01*
X120165000Y-112088750D01*
X120165000Y-110995000D01*
X120215000Y-110995000D01*
X120215000Y-112088750D01*
X120271250Y-112145000D01*
X121134755Y-112145000D01*
X121217452Y-112110746D01*
X121280746Y-112047452D01*
X121315000Y-111964756D01*
X121315000Y-111051250D01*
X121615000Y-111051250D01*
X121615000Y-111964756D01*
X121649254Y-112047452D01*
X121712548Y-112110746D01*
X121795245Y-112145000D01*
X122658750Y-112145000D01*
X122715000Y-112088750D01*
X122715000Y-110995000D01*
X122765000Y-110995000D01*
X122765000Y-112088750D01*
X122821250Y-112145000D01*
X123684755Y-112145000D01*
X123767452Y-112110746D01*
X123830746Y-112047452D01*
X123865000Y-111964756D01*
X123865000Y-111051250D01*
X124115000Y-111051250D01*
X124115000Y-111964756D01*
X124149254Y-112047452D01*
X124212548Y-112110746D01*
X124295245Y-112145000D01*
X125158750Y-112145000D01*
X125215000Y-112088750D01*
X125215000Y-110995000D01*
X125265000Y-110995000D01*
X125265000Y-112088750D01*
X125321250Y-112145000D01*
X126184755Y-112145000D01*
X126267452Y-112110746D01*
X126330746Y-112047452D01*
X126365000Y-111964756D01*
X126365000Y-111051250D01*
X126665000Y-111051250D01*
X126665000Y-111964756D01*
X126699254Y-112047452D01*
X126762548Y-112110746D01*
X126845245Y-112145000D01*
X127708750Y-112145000D01*
X127765000Y-112088750D01*
X127765000Y-110995000D01*
X127815000Y-110995000D01*
X127815000Y-112088750D01*
X127871250Y-112145000D01*
X128734755Y-112145000D01*
X128817452Y-112110746D01*
X128880746Y-112047452D01*
X128915000Y-111964756D01*
X128915000Y-111051250D01*
X128858750Y-110995000D01*
X127815000Y-110995000D01*
X127765000Y-110995000D01*
X126721250Y-110995000D01*
X126665000Y-111051250D01*
X126365000Y-111051250D01*
X126308750Y-110995000D01*
X125265000Y-110995000D01*
X125215000Y-110995000D01*
X124171250Y-110995000D01*
X124115000Y-111051250D01*
X123865000Y-111051250D01*
X123808750Y-110995000D01*
X122765000Y-110995000D01*
X122715000Y-110995000D01*
X121671250Y-110995000D01*
X121615000Y-111051250D01*
X121315000Y-111051250D01*
X121258750Y-110995000D01*
X120215000Y-110995000D01*
X120165000Y-110995000D01*
X119121250Y-110995000D01*
X119065000Y-111051250D01*
X113023776Y-111051250D01*
X113116820Y-110827177D01*
X113117180Y-110414633D01*
X112959638Y-110033354D01*
X112901630Y-109975244D01*
X119065000Y-109975244D01*
X119065000Y-110888750D01*
X119121250Y-110945000D01*
X120165000Y-110945000D01*
X120165000Y-109851250D01*
X120215000Y-109851250D01*
X120215000Y-110945000D01*
X121258750Y-110945000D01*
X121315000Y-110888750D01*
X121315000Y-109975244D01*
X121615000Y-109975244D01*
X121615000Y-110888750D01*
X121671250Y-110945000D01*
X122715000Y-110945000D01*
X122715000Y-109851250D01*
X122658750Y-109795000D01*
X121795245Y-109795000D01*
X121712548Y-109829254D01*
X121649254Y-109892548D01*
X121615000Y-109975244D01*
X121315000Y-109975244D01*
X121280746Y-109892548D01*
X121217452Y-109829254D01*
X121134755Y-109795000D01*
X120271250Y-109795000D01*
X120215000Y-109851250D01*
X120165000Y-109851250D01*
X120108750Y-109795000D01*
X119245245Y-109795000D01*
X119162548Y-109829254D01*
X119099254Y-109892548D01*
X119065000Y-109975244D01*
X112901630Y-109975244D01*
X112668180Y-109741387D01*
X112287177Y-109583180D01*
X111874633Y-109582820D01*
X111493354Y-109740362D01*
X111201387Y-110031820D01*
X111043180Y-110412823D01*
X111042820Y-110825367D01*
X111121252Y-111015186D01*
X110575000Y-110468934D01*
X110575000Y-108285367D01*
X111042820Y-108285367D01*
X111200362Y-108666646D01*
X111491820Y-108958613D01*
X111872823Y-109116820D01*
X112285367Y-109117180D01*
X112666646Y-108959638D01*
X112958613Y-108668180D01*
X113116820Y-108287177D01*
X113116938Y-108151250D01*
X114465000Y-108151250D01*
X114465000Y-108464755D01*
X114499254Y-108547452D01*
X114562548Y-108610746D01*
X114645244Y-108645000D01*
X115258750Y-108645000D01*
X115315000Y-108588750D01*
X115315000Y-108095000D01*
X115365000Y-108095000D01*
X115365000Y-108588750D01*
X115421250Y-108645000D01*
X116034756Y-108645000D01*
X116117452Y-108610746D01*
X116180746Y-108547452D01*
X116215000Y-108464755D01*
X116215000Y-108331250D01*
X119625000Y-108331250D01*
X119625000Y-109094756D01*
X119659254Y-109177452D01*
X119722548Y-109240746D01*
X119805245Y-109275000D01*
X120818750Y-109275000D01*
X120875000Y-109218750D01*
X120875000Y-108275000D01*
X120925000Y-108275000D01*
X120925000Y-109218750D01*
X120981250Y-109275000D01*
X121994755Y-109275000D01*
X122077452Y-109240746D01*
X122140746Y-109177452D01*
X122175000Y-109094756D01*
X122175000Y-108331250D01*
X122118750Y-108275000D01*
X120925000Y-108275000D01*
X120875000Y-108275000D01*
X119681250Y-108275000D01*
X119625000Y-108331250D01*
X116215000Y-108331250D01*
X116215000Y-108151250D01*
X116158750Y-108095000D01*
X115365000Y-108095000D01*
X115315000Y-108095000D01*
X114521250Y-108095000D01*
X114465000Y-108151250D01*
X113116938Y-108151250D01*
X113117180Y-107874633D01*
X113039369Y-107686317D01*
X113050441Y-107675245D01*
X114465000Y-107675245D01*
X114465000Y-107988750D01*
X114521250Y-108045000D01*
X115315000Y-108045000D01*
X115315000Y-107551250D01*
X115365000Y-107551250D01*
X115365000Y-108045000D01*
X116158750Y-108045000D01*
X116215000Y-107988750D01*
X116215000Y-107675245D01*
X116180746Y-107592548D01*
X116117452Y-107529254D01*
X116034756Y-107495000D01*
X115421250Y-107495000D01*
X115365000Y-107551250D01*
X115315000Y-107551250D01*
X115258750Y-107495000D01*
X114645244Y-107495000D01*
X114562548Y-107529254D01*
X114499254Y-107592548D01*
X114465000Y-107675245D01*
X113050441Y-107675245D01*
X113320442Y-107405244D01*
X119625000Y-107405244D01*
X119625000Y-108168750D01*
X119681250Y-108225000D01*
X120875000Y-108225000D01*
X120875000Y-107281250D01*
X120925000Y-107281250D01*
X120925000Y-108225000D01*
X122118750Y-108225000D01*
X122137500Y-108206250D01*
X122275000Y-108206250D01*
X122275000Y-108844756D01*
X122309254Y-108927452D01*
X122372548Y-108990746D01*
X122455245Y-109025000D01*
X122618750Y-109025000D01*
X122675000Y-108968750D01*
X122675000Y-108150000D01*
X122331250Y-108150000D01*
X122275000Y-108206250D01*
X122137500Y-108206250D01*
X122175000Y-108168750D01*
X122175000Y-107405244D01*
X122275000Y-107405244D01*
X122275000Y-108043750D01*
X122331250Y-108100000D01*
X122675000Y-108100000D01*
X122675000Y-107281250D01*
X122618750Y-107225000D01*
X122455245Y-107225000D01*
X122372548Y-107259254D01*
X122309254Y-107322548D01*
X122275000Y-107405244D01*
X122175000Y-107405244D01*
X122140746Y-107322548D01*
X122077452Y-107259254D01*
X121994755Y-107225000D01*
X120981250Y-107225000D01*
X120925000Y-107281250D01*
X120875000Y-107281250D01*
X120818750Y-107225000D01*
X119805245Y-107225000D01*
X119722548Y-107259254D01*
X119659254Y-107322548D01*
X119625000Y-107405244D01*
X113320442Y-107405244D01*
X114155686Y-106570000D01*
X114419021Y-106570000D01*
X114428788Y-106621909D01*
X114489016Y-106715506D01*
X114580914Y-106778296D01*
X114690000Y-106800387D01*
X115990000Y-106800387D01*
X116091909Y-106781212D01*
X116185506Y-106720984D01*
X116248296Y-106629086D01*
X116270387Y-106520000D01*
X116270387Y-105820000D01*
X116251212Y-105718091D01*
X116190984Y-105624494D01*
X116099086Y-105561704D01*
X115990000Y-105539613D01*
X114690000Y-105539613D01*
X114588091Y-105558788D01*
X114494494Y-105619016D01*
X114431704Y-105710914D01*
X114419738Y-105770000D01*
X113990000Y-105770000D01*
X113836926Y-105800448D01*
X113707157Y-105887157D01*
X112473688Y-107120626D01*
X112287177Y-107043180D01*
X111874633Y-107042820D01*
X111493354Y-107200362D01*
X111201387Y-107491820D01*
X111043180Y-107872823D01*
X111042820Y-108285367D01*
X110575000Y-108285367D01*
X110575000Y-91536047D01*
X111390278Y-90883824D01*
X111380158Y-90908196D01*
X111379842Y-91270216D01*
X111518090Y-91604800D01*
X111773853Y-91861011D01*
X112108196Y-91999842D01*
X112274327Y-91999987D01*
X110710156Y-93564158D01*
X110623447Y-93693927D01*
X110592999Y-93847001D01*
X110592999Y-103521761D01*
X110623447Y-103674835D01*
X110710156Y-103804604D01*
X111275396Y-104369844D01*
X111405165Y-104456553D01*
X111558239Y-104487001D01*
X112364905Y-104487001D01*
X112447767Y-104569863D01*
X112287177Y-104503180D01*
X111874633Y-104502820D01*
X111493354Y-104660362D01*
X111201387Y-104951820D01*
X111043180Y-105332823D01*
X111042820Y-105745367D01*
X111200362Y-106126646D01*
X111491820Y-106418613D01*
X111872823Y-106576820D01*
X112285367Y-106577180D01*
X112666646Y-106419638D01*
X112958613Y-106128180D01*
X113116820Y-105747177D01*
X113117180Y-105334633D01*
X113014594Y-105086357D01*
X113158589Y-105114999D01*
X116424999Y-105114999D01*
X116424999Y-106485001D01*
X116455447Y-106638075D01*
X116542156Y-106767844D01*
X116607156Y-106832844D01*
X116736925Y-106919553D01*
X116889999Y-106950001D01*
X121159999Y-106950001D01*
X121313073Y-106919553D01*
X121442842Y-106832844D01*
X121614435Y-106661250D01*
X122155000Y-106661250D01*
X122155000Y-106774755D01*
X122189254Y-106857452D01*
X122252548Y-106920746D01*
X122335244Y-106955000D01*
X122558750Y-106955000D01*
X122615000Y-106898750D01*
X122615000Y-106605000D01*
X122211250Y-106605000D01*
X122155000Y-106661250D01*
X121614435Y-106661250D01*
X122099613Y-106176072D01*
X122099613Y-106230000D01*
X122118788Y-106331909D01*
X122155000Y-106388184D01*
X122155000Y-106498750D01*
X122211250Y-106555000D01*
X122615000Y-106555000D01*
X122615000Y-106535000D01*
X122665000Y-106535000D01*
X122665000Y-106555000D01*
X122685000Y-106555000D01*
X122685000Y-106605000D01*
X122665000Y-106605000D01*
X122665000Y-106898750D01*
X122721250Y-106955000D01*
X122944756Y-106955000D01*
X122950000Y-106952828D01*
X122950000Y-107227173D01*
X122944755Y-107225000D01*
X122781250Y-107225000D01*
X122725000Y-107281250D01*
X122725000Y-108100000D01*
X122745000Y-108100000D01*
X122745000Y-108150000D01*
X122725000Y-108150000D01*
X122725000Y-108968750D01*
X122781250Y-109025000D01*
X122944755Y-109025000D01*
X122974282Y-109012769D01*
X123040914Y-109058296D01*
X123150000Y-109080387D01*
X123443505Y-109080387D01*
X123375100Y-109245124D01*
X123374900Y-109473873D01*
X123462254Y-109685286D01*
X123571777Y-109795000D01*
X122821250Y-109795000D01*
X122765000Y-109851250D01*
X122765000Y-110945000D01*
X123808750Y-110945000D01*
X123865000Y-110888750D01*
X123865000Y-109975244D01*
X123848294Y-109934912D01*
X124063873Y-109935100D01*
X124145619Y-109901323D01*
X124115000Y-109975244D01*
X124115000Y-110888750D01*
X124171250Y-110945000D01*
X125215000Y-110945000D01*
X125215000Y-109851250D01*
X125265000Y-109851250D01*
X125265000Y-110945000D01*
X126308750Y-110945000D01*
X126365000Y-110888750D01*
X126365000Y-109975244D01*
X126665000Y-109975244D01*
X126665000Y-110888750D01*
X126721250Y-110945000D01*
X127765000Y-110945000D01*
X127765000Y-109851250D01*
X127815000Y-109851250D01*
X127815000Y-110945000D01*
X128858750Y-110945000D01*
X128915000Y-110888750D01*
X128915000Y-109975244D01*
X128880746Y-109892548D01*
X128817452Y-109829254D01*
X128734755Y-109795000D01*
X127871250Y-109795000D01*
X127815000Y-109851250D01*
X127765000Y-109851250D01*
X127708750Y-109795000D01*
X126845245Y-109795000D01*
X126762548Y-109829254D01*
X126699254Y-109892548D01*
X126665000Y-109975244D01*
X126365000Y-109975244D01*
X126330746Y-109892548D01*
X126267452Y-109829254D01*
X126184755Y-109795000D01*
X125321250Y-109795000D01*
X125265000Y-109851250D01*
X125215000Y-109851250D01*
X125158750Y-109795000D01*
X124328124Y-109795000D01*
X124343150Y-109780000D01*
X124970000Y-109780000D01*
X125123074Y-109749552D01*
X125252843Y-109662843D01*
X125582840Y-109332845D01*
X125582843Y-109332843D01*
X125669552Y-109203073D01*
X125700000Y-109050000D01*
X125700000Y-108994407D01*
X125758296Y-108909086D01*
X125780387Y-108800000D01*
X125780387Y-108331250D01*
X125825000Y-108331250D01*
X125825000Y-109094756D01*
X125859254Y-109177452D01*
X125922548Y-109240746D01*
X126005245Y-109275000D01*
X127018750Y-109275000D01*
X127075000Y-109218750D01*
X127075000Y-108275000D01*
X127125000Y-108275000D01*
X127125000Y-109218750D01*
X127181250Y-109275000D01*
X128194755Y-109275000D01*
X128277452Y-109240746D01*
X128340746Y-109177452D01*
X128375000Y-109094756D01*
X128375000Y-108331250D01*
X128329117Y-108285367D01*
X134882820Y-108285367D01*
X135040362Y-108666646D01*
X135331820Y-108958613D01*
X135712823Y-109116820D01*
X136125367Y-109117180D01*
X136506646Y-108959638D01*
X136798613Y-108668180D01*
X136956820Y-108287177D01*
X136957180Y-107874633D01*
X136799638Y-107493354D01*
X136508180Y-107201387D01*
X136127177Y-107043180D01*
X135714633Y-107042820D01*
X135333354Y-107200362D01*
X135041387Y-107491820D01*
X134883180Y-107872823D01*
X134882820Y-108285367D01*
X128329117Y-108285367D01*
X128318750Y-108275000D01*
X127125000Y-108275000D01*
X127075000Y-108275000D01*
X125881250Y-108275000D01*
X125825000Y-108331250D01*
X125780387Y-108331250D01*
X125780387Y-107450000D01*
X125771966Y-107405244D01*
X125825000Y-107405244D01*
X125825000Y-108168750D01*
X125881250Y-108225000D01*
X127075000Y-108225000D01*
X127075000Y-107281250D01*
X127125000Y-107281250D01*
X127125000Y-108225000D01*
X128318750Y-108225000D01*
X128375000Y-108168750D01*
X128375000Y-107405244D01*
X128340746Y-107322548D01*
X128277452Y-107259254D01*
X128194755Y-107225000D01*
X127181250Y-107225000D01*
X127125000Y-107281250D01*
X127075000Y-107281250D01*
X127018750Y-107225000D01*
X126005245Y-107225000D01*
X125922548Y-107259254D01*
X125859254Y-107322548D01*
X125825000Y-107405244D01*
X125771966Y-107405244D01*
X125761212Y-107348091D01*
X125715875Y-107277636D01*
X126141548Y-106851963D01*
X126228257Y-106722194D01*
X126258705Y-106569120D01*
X126258705Y-105745367D01*
X134882820Y-105745367D01*
X135040362Y-106126646D01*
X135331820Y-106418613D01*
X135712823Y-106576820D01*
X136125367Y-106577180D01*
X136506646Y-106419638D01*
X136798613Y-106128180D01*
X136956820Y-105747177D01*
X136957180Y-105334633D01*
X136799638Y-104953354D01*
X136508180Y-104661387D01*
X136127177Y-104503180D01*
X135714633Y-104502820D01*
X135333354Y-104660362D01*
X135041387Y-104951820D01*
X134883180Y-105332823D01*
X134882820Y-105745367D01*
X126258705Y-105745367D01*
X126258705Y-105052294D01*
X126234428Y-104930244D01*
X126228257Y-104899220D01*
X126141548Y-104769451D01*
X125561244Y-104189147D01*
X125731233Y-104118909D01*
X125819132Y-104031163D01*
X131888837Y-104031163D01*
X132041911Y-104000715D01*
X132171680Y-103914006D01*
X132230694Y-103854992D01*
X132353873Y-103855100D01*
X132565286Y-103767746D01*
X132727177Y-103606137D01*
X132814900Y-103394876D01*
X132815100Y-103166127D01*
X132727746Y-102954714D01*
X132566137Y-102792823D01*
X132354876Y-102705100D01*
X132126127Y-102704900D01*
X131914714Y-102792254D01*
X131752823Y-102953863D01*
X131665100Y-103165124D01*
X131665042Y-103231163D01*
X126109850Y-103231163D01*
X126188403Y-103152747D01*
X126276126Y-102941486D01*
X126276258Y-102790421D01*
X126304553Y-102748074D01*
X126311582Y-102712737D01*
X126335002Y-102595001D01*
X126335001Y-102594996D01*
X126335001Y-100900007D01*
X126335002Y-100900002D01*
X126304553Y-100746928D01*
X126250055Y-100665367D01*
X126217844Y-100617159D01*
X126217841Y-100617157D01*
X126195091Y-100594407D01*
X126195199Y-100471227D01*
X126107845Y-100259814D01*
X125946236Y-100097923D01*
X125734975Y-100010200D01*
X125506226Y-100010000D01*
X125294813Y-100097354D01*
X125132922Y-100258963D01*
X125045199Y-100470224D01*
X125044999Y-100698973D01*
X125088649Y-100804613D01*
X124610000Y-100804613D01*
X124508091Y-100823788D01*
X124414494Y-100884016D01*
X124351704Y-100975914D01*
X124329613Y-101085000D01*
X124329613Y-101444702D01*
X124139306Y-101635009D01*
X124016127Y-101634901D01*
X123835000Y-101709741D01*
X123835000Y-101684998D01*
X123778752Y-101684998D01*
X123835000Y-101628750D01*
X123835000Y-101040244D01*
X123800746Y-100957548D01*
X123737452Y-100894254D01*
X123654755Y-100860000D01*
X123191250Y-100860000D01*
X123135000Y-100916250D01*
X123135000Y-101685000D01*
X123155000Y-101685000D01*
X123155000Y-101735000D01*
X123135000Y-101735000D01*
X123135000Y-102503750D01*
X123191250Y-102560000D01*
X123654755Y-102560000D01*
X123663364Y-102556434D01*
X123803863Y-102697178D01*
X124015124Y-102784901D01*
X124243873Y-102785101D01*
X124455286Y-102697747D01*
X124549968Y-102603230D01*
X124610000Y-102615387D01*
X125166333Y-102615387D01*
X125126326Y-102711734D01*
X125126126Y-102940483D01*
X125191118Y-103097777D01*
X125080661Y-103143417D01*
X124918770Y-103305026D01*
X124860595Y-103445127D01*
X124463787Y-103048319D01*
X124334018Y-102961610D01*
X124180944Y-102931162D01*
X119973258Y-102931162D01*
X118865524Y-101823428D01*
X118943401Y-101791250D01*
X122385000Y-101791250D01*
X122385000Y-102379756D01*
X122419254Y-102462452D01*
X122482548Y-102525746D01*
X122565245Y-102560000D01*
X123028750Y-102560000D01*
X123085000Y-102503750D01*
X123085000Y-101735000D01*
X122441250Y-101735000D01*
X122385000Y-101791250D01*
X118943401Y-101791250D01*
X119000286Y-101767746D01*
X119162177Y-101606137D01*
X119249900Y-101394876D01*
X119250100Y-101166127D01*
X119198087Y-101040244D01*
X122385000Y-101040244D01*
X122385000Y-101628750D01*
X122441250Y-101685000D01*
X123085000Y-101685000D01*
X123085000Y-100916250D01*
X123028750Y-100860000D01*
X122565245Y-100860000D01*
X122482548Y-100894254D01*
X122419254Y-100957548D01*
X122385000Y-101040244D01*
X119198087Y-101040244D01*
X119162746Y-100954714D01*
X119075000Y-100866815D01*
X119075000Y-98160686D01*
X119280693Y-97954992D01*
X119403873Y-97955100D01*
X119615286Y-97867746D01*
X119777177Y-97706137D01*
X119864900Y-97494876D01*
X119864983Y-97400000D01*
X121180000Y-97400000D01*
X121333073Y-97369552D01*
X121462843Y-97282843D01*
X121549552Y-97153073D01*
X121580000Y-97000000D01*
X121580000Y-95225686D01*
X122885686Y-93920000D01*
X124179314Y-93920000D01*
X124626054Y-94366740D01*
X124515841Y-94412279D01*
X124353950Y-94573888D01*
X124266227Y-94785149D01*
X124266027Y-95013898D01*
X124353381Y-95225311D01*
X124441127Y-95313210D01*
X124441127Y-98402806D01*
X124471575Y-98555879D01*
X124558284Y-98685649D01*
X124558287Y-98685651D01*
X125215551Y-99342916D01*
X125215553Y-99342919D01*
X125345323Y-99429628D01*
X125467947Y-99454019D01*
X125498395Y-99460076D01*
X126207491Y-99460076D01*
X126987885Y-100240470D01*
X127117654Y-100327179D01*
X127270728Y-100357628D01*
X127270733Y-100357627D01*
X128155551Y-100357627D01*
X128242576Y-100444804D01*
X128453837Y-100532527D01*
X128682586Y-100532727D01*
X128893999Y-100445373D01*
X129055890Y-100283764D01*
X129143613Y-100072503D01*
X129143739Y-99927977D01*
X129189552Y-99859413D01*
X129220000Y-99706340D01*
X129220000Y-98553162D01*
X129300000Y-98473301D01*
X129300000Y-99319756D01*
X129334254Y-99402452D01*
X129397548Y-99465746D01*
X129480245Y-99500000D01*
X129918750Y-99500000D01*
X129975000Y-99443750D01*
X129975000Y-98225000D01*
X130025000Y-98225000D01*
X130025000Y-99443750D01*
X130081250Y-99500000D01*
X130519755Y-99500000D01*
X130602452Y-99465746D01*
X130665746Y-99402452D01*
X130700000Y-99319756D01*
X130700000Y-98281250D01*
X130643750Y-98225000D01*
X130025000Y-98225000D01*
X129975000Y-98225000D01*
X129955000Y-98225000D01*
X129955000Y-98175000D01*
X129975000Y-98175000D01*
X129975000Y-96956250D01*
X130025000Y-96956250D01*
X130025000Y-98175000D01*
X130643750Y-98175000D01*
X130700000Y-98118750D01*
X130700000Y-97080244D01*
X130665746Y-96997548D01*
X130602452Y-96934254D01*
X130519755Y-96900000D01*
X130081250Y-96900000D01*
X130025000Y-96956250D01*
X129975000Y-96956250D01*
X129918750Y-96900000D01*
X129480245Y-96900000D01*
X129397548Y-96934254D01*
X129334254Y-96997548D01*
X129300000Y-97080244D01*
X129300000Y-97806954D01*
X129146137Y-97652823D01*
X128934876Y-97565100D01*
X128706127Y-97564900D01*
X128494714Y-97652254D01*
X128455387Y-97691512D01*
X128455387Y-97125000D01*
X128436212Y-97023091D01*
X128375984Y-96929494D01*
X128284086Y-96866704D01*
X128175000Y-96844613D01*
X128093956Y-96844613D01*
X128069552Y-96721927D01*
X127988083Y-96600000D01*
X127982843Y-96592157D01*
X127982840Y-96592155D01*
X124627843Y-93237157D01*
X124498074Y-93150448D01*
X124345000Y-93120000D01*
X122720000Y-93120000D01*
X122566926Y-93150448D01*
X122437157Y-93237157D01*
X120897157Y-94777157D01*
X120810448Y-94906926D01*
X120810448Y-94906927D01*
X120780000Y-95060000D01*
X120780000Y-96600000D01*
X119670000Y-96600000D01*
X119516926Y-96630448D01*
X119387157Y-96717157D01*
X119299306Y-96805008D01*
X119176127Y-96804900D01*
X118964714Y-96892254D01*
X118802823Y-97053863D01*
X118715100Y-97265124D01*
X118714991Y-97389323D01*
X118392157Y-97712157D01*
X118305448Y-97841926D01*
X118300425Y-97867177D01*
X118275000Y-97995000D01*
X118275000Y-100866838D01*
X118187823Y-100953863D01*
X118131529Y-101089433D01*
X116132252Y-99090156D01*
X116002483Y-99003447D01*
X115849409Y-98972999D01*
X111558239Y-98972999D01*
X111405165Y-99003447D01*
X111392999Y-99011576D01*
X111392999Y-98699619D01*
X111491820Y-98798613D01*
X111872823Y-98956820D01*
X112285367Y-98957180D01*
X112666646Y-98799638D01*
X112958613Y-98508180D01*
X113116820Y-98127177D01*
X113117180Y-97714633D01*
X112959638Y-97333354D01*
X112668180Y-97041387D01*
X112287177Y-96883180D01*
X111874633Y-96882820D01*
X111493354Y-97040362D01*
X111392999Y-97140542D01*
X111392999Y-96159619D01*
X111491820Y-96258613D01*
X111872823Y-96416820D01*
X112285367Y-96417180D01*
X112666646Y-96259638D01*
X112958613Y-95968180D01*
X113116820Y-95587177D01*
X113117180Y-95174633D01*
X112959638Y-94793354D01*
X112668180Y-94501387D01*
X112287177Y-94343180D01*
X111874633Y-94342820D01*
X111493354Y-94500362D01*
X111392999Y-94600542D01*
X111392999Y-94012687D01*
X112924436Y-92481250D01*
X128150000Y-92481250D01*
X128150000Y-93519756D01*
X128184254Y-93602452D01*
X128247548Y-93665746D01*
X128330245Y-93700000D01*
X129918750Y-93700000D01*
X129975000Y-93643750D01*
X129975000Y-92425000D01*
X130025000Y-92425000D01*
X130025000Y-93643750D01*
X130081250Y-93700000D01*
X131669755Y-93700000D01*
X131752452Y-93665746D01*
X131815746Y-93602452D01*
X131850000Y-93519756D01*
X131850000Y-92481250D01*
X131793750Y-92425000D01*
X130025000Y-92425000D01*
X129975000Y-92425000D01*
X128206250Y-92425000D01*
X128150000Y-92481250D01*
X112924436Y-92481250D01*
X114125442Y-91280244D01*
X128150000Y-91280244D01*
X128150000Y-92318750D01*
X128206250Y-92375000D01*
X129975000Y-92375000D01*
X129975000Y-91156250D01*
X129918750Y-91100000D01*
X128330245Y-91100000D01*
X128247548Y-91134254D01*
X128184254Y-91197548D01*
X128150000Y-91280244D01*
X114125442Y-91280244D01*
X114495686Y-90910000D01*
X131229316Y-90910000D01*
X131419316Y-91100000D01*
X130081250Y-91100000D01*
X130025000Y-91156250D01*
X130025000Y-92375000D01*
X131793750Y-92375000D01*
X131850000Y-92318750D01*
X131850000Y-91530684D01*
X131880000Y-91560684D01*
X131880000Y-96844613D01*
X131825000Y-96844613D01*
X131723091Y-96863788D01*
X131629494Y-96924016D01*
X131566704Y-97015914D01*
X131544613Y-97125000D01*
X131544613Y-99275000D01*
X131563788Y-99376909D01*
X131624016Y-99470506D01*
X131715914Y-99533296D01*
X131825000Y-99555387D01*
X132775000Y-99555387D01*
X132876909Y-99536212D01*
X132970506Y-99475984D01*
X133033296Y-99384086D01*
X133055387Y-99275000D01*
X133055387Y-98125367D01*
X134882820Y-98125367D01*
X135040362Y-98506646D01*
X135331820Y-98798613D01*
X135712823Y-98956820D01*
X136125367Y-98957180D01*
X136506646Y-98799638D01*
X136798613Y-98508180D01*
X136956820Y-98127177D01*
X136957180Y-97714633D01*
X136799638Y-97333354D01*
X136508180Y-97041387D01*
X136127177Y-96883180D01*
X135714633Y-96882820D01*
X135333354Y-97040362D01*
X135041387Y-97331820D01*
X134883180Y-97712823D01*
X134882820Y-98125367D01*
X133055387Y-98125367D01*
X133055387Y-97125000D01*
X133036212Y-97023091D01*
X132975984Y-96929494D01*
X132884086Y-96866704D01*
X132775000Y-96844613D01*
X132680000Y-96844613D01*
X132680000Y-95585367D01*
X134882820Y-95585367D01*
X135040362Y-95966646D01*
X135331820Y-96258613D01*
X135712823Y-96416820D01*
X136125367Y-96417180D01*
X136506646Y-96259638D01*
X136798613Y-95968180D01*
X136956820Y-95587177D01*
X136957180Y-95174633D01*
X136799638Y-94793354D01*
X136508180Y-94501387D01*
X136127177Y-94343180D01*
X135714633Y-94342820D01*
X135333354Y-94500362D01*
X135041387Y-94791820D01*
X134883180Y-95172823D01*
X134882820Y-95585367D01*
X132680000Y-95585367D01*
X132680000Y-91394998D01*
X132655495Y-91271804D01*
X132649552Y-91241924D01*
X132562843Y-91112155D01*
X131677845Y-90227157D01*
X131548076Y-90140448D01*
X131395002Y-90110000D01*
X114330000Y-90110000D01*
X114176926Y-90140448D01*
X114047157Y-90227157D01*
X113200014Y-91074300D01*
X113200158Y-90909784D01*
X113061910Y-90575200D01*
X112806147Y-90318989D01*
X112471804Y-90180158D01*
X112270081Y-90179982D01*
X113026308Y-89575000D01*
X134964871Y-89575000D01*
X137425000Y-92527154D01*
G36*
X122783927Y-105149613D02*
X122380000Y-105149613D01*
X122278091Y-105168788D01*
X122260667Y-105180000D01*
X122130005Y-105180000D01*
X122130000Y-105179999D01*
X122029451Y-105200000D01*
X120430387Y-105200000D01*
X120430387Y-104975000D01*
X120411212Y-104873091D01*
X120350984Y-104779494D01*
X120259086Y-104716704D01*
X120150000Y-104694613D01*
X119150000Y-104694613D01*
X119048091Y-104713788D01*
X118954494Y-104774016D01*
X118891704Y-104865914D01*
X118869613Y-104975000D01*
X118869613Y-106150001D01*
X118375000Y-106150001D01*
X118375000Y-105681250D01*
X118318750Y-105625000D01*
X117675000Y-105625000D01*
X117675000Y-105645000D01*
X117625000Y-105645000D01*
X117625000Y-105625000D01*
X117605000Y-105625000D01*
X117605000Y-105575000D01*
X117625000Y-105575000D01*
X117625000Y-104806250D01*
X117675000Y-104806250D01*
X117675000Y-105575000D01*
X118318750Y-105575000D01*
X118375000Y-105518750D01*
X118375000Y-104930244D01*
X118340746Y-104847548D01*
X118277452Y-104784254D01*
X118194755Y-104750000D01*
X117731250Y-104750000D01*
X117675000Y-104806250D01*
X117625000Y-104806250D01*
X117568750Y-104750000D01*
X117224999Y-104750000D01*
X117224999Y-104714999D01*
X117210083Y-104640011D01*
X122274325Y-104640011D01*
X122783927Y-105149613D01*
X122783927Y-105149613D01*
G37*
X122783927Y-105149613D02*
X122380000Y-105149613D01*
X122278091Y-105168788D01*
X122260667Y-105180000D01*
X122130005Y-105180000D01*
X122130000Y-105179999D01*
X122029451Y-105200000D01*
X120430387Y-105200000D01*
X120430387Y-104975000D01*
X120411212Y-104873091D01*
X120350984Y-104779494D01*
X120259086Y-104716704D01*
X120150000Y-104694613D01*
X119150000Y-104694613D01*
X119048091Y-104713788D01*
X118954494Y-104774016D01*
X118891704Y-104865914D01*
X118869613Y-104975000D01*
X118869613Y-106150001D01*
X118375000Y-106150001D01*
X118375000Y-105681250D01*
X118318750Y-105625000D01*
X117675000Y-105625000D01*
X117675000Y-105645000D01*
X117625000Y-105645000D01*
X117625000Y-105625000D01*
X117605000Y-105625000D01*
X117605000Y-105575000D01*
X117625000Y-105575000D01*
X117625000Y-104806250D01*
X117675000Y-104806250D01*
X117675000Y-105575000D01*
X118318750Y-105575000D01*
X118375000Y-105518750D01*
X118375000Y-104930244D01*
X118340746Y-104847548D01*
X118277452Y-104784254D01*
X118194755Y-104750000D01*
X117731250Y-104750000D01*
X117675000Y-104806250D01*
X117625000Y-104806250D01*
X117568750Y-104750000D01*
X117224999Y-104750000D01*
X117224999Y-104714999D01*
X117210083Y-104640011D01*
X122274325Y-104640011D01*
X122783927Y-105149613D01*
M02*
