G04 #@! TF.FileFunction,Legend,Bot*
%FSLAX46Y46*%
G04 Gerber Fmt 4.6, Leading zero omitted, Abs format (unit mm)*
G04 Created by KiCad (PCBNEW 4.0.7) date Tuesday, December 26, 2017 'AMt' 09:35:19 AM*
%MOMM*%
%LPD*%
G01*
G04 APERTURE LIST*
%ADD10C,0.100000*%
%ADD11C,0.127000*%
%ADD12C,0.381000*%
G04 APERTURE END LIST*
D10*
D11*
X44850000Y-65980000D02*
X44631560Y-66000320D01*
X44631560Y-66000320D02*
X44415660Y-66058740D01*
X44415660Y-66058740D02*
X44215000Y-66150180D01*
X44215000Y-66150180D02*
X44034660Y-66277180D01*
X44034660Y-66277180D02*
X43877180Y-66434660D01*
X43877180Y-66434660D02*
X43750180Y-66615000D01*
X43750180Y-66615000D02*
X43658740Y-66815660D01*
X43658740Y-66815660D02*
X43600320Y-67031560D01*
X43600320Y-67031560D02*
X43580000Y-67250000D01*
X43580000Y-67250000D02*
X43600320Y-67468440D01*
X43600320Y-67468440D02*
X43658740Y-67684340D01*
X43658740Y-67684340D02*
X43750180Y-67885000D01*
X43750180Y-67885000D02*
X43877180Y-68065340D01*
X43877180Y-68065340D02*
X44034660Y-68222820D01*
X44034660Y-68222820D02*
X44215000Y-68349820D01*
X44215000Y-68349820D02*
X44415660Y-68441260D01*
X44415660Y-68441260D02*
X44631560Y-68499680D01*
X44631560Y-68499680D02*
X44850000Y-68520000D01*
X44850000Y-68520000D02*
X45068440Y-68499680D01*
X45068440Y-68499680D02*
X45284340Y-68441260D01*
X45284340Y-68441260D02*
X45485000Y-68349820D01*
X45485000Y-68349820D02*
X45665340Y-68222820D01*
X45665340Y-68222820D02*
X45822820Y-68065340D01*
X45822820Y-68065340D02*
X45949820Y-67885000D01*
X45949820Y-67885000D02*
X46041260Y-67684340D01*
X46041260Y-67684340D02*
X46099680Y-67468440D01*
X46099680Y-67468440D02*
X46120000Y-67250000D01*
X46120000Y-67250000D02*
X46099680Y-67031560D01*
X46099680Y-67031560D02*
X46041260Y-66815660D01*
X46041260Y-66815660D02*
X45949820Y-66615000D01*
X45949820Y-66615000D02*
X45822820Y-66434660D01*
X45822820Y-66434660D02*
X45665340Y-66277180D01*
X45665340Y-66277180D02*
X45485000Y-66150180D01*
X45485000Y-66150180D02*
X45284340Y-66058740D01*
X45284340Y-66058740D02*
X45068440Y-66000320D01*
X45068440Y-66000320D02*
X44850000Y-65980000D01*
X44850000Y-65980000D02*
X44631560Y-66000320D01*
X44631560Y-66000320D02*
X44415660Y-66058740D01*
X44415660Y-66058740D02*
X44215000Y-66150180D01*
X44215000Y-66150180D02*
X44034660Y-66277180D01*
X44034660Y-66277180D02*
X43877180Y-66434660D01*
X43877180Y-66434660D02*
X43750180Y-66615000D01*
X43750180Y-66615000D02*
X43658740Y-66815660D01*
X43658740Y-66815660D02*
X43600320Y-67031560D01*
X43600320Y-67031560D02*
X43580000Y-67250000D01*
X43580000Y-67250000D02*
X43600320Y-67468440D01*
X43600320Y-67468440D02*
X43658740Y-67684340D01*
X43658740Y-67684340D02*
X43750180Y-67885000D01*
X43750180Y-67885000D02*
X43877180Y-68065340D01*
X43877180Y-68065340D02*
X44034660Y-68222820D01*
X44034660Y-68222820D02*
X44215000Y-68349820D01*
X44215000Y-68349820D02*
X44415660Y-68441260D01*
X44415660Y-68441260D02*
X44631560Y-68499680D01*
X44631560Y-68499680D02*
X44850000Y-68520000D01*
X44850000Y-68520000D02*
X45068440Y-68499680D01*
X45068440Y-68499680D02*
X45284340Y-68441260D01*
X45284340Y-68441260D02*
X45485000Y-68349820D01*
X45485000Y-68349820D02*
X45665340Y-68222820D01*
X45665340Y-68222820D02*
X45822820Y-68065340D01*
X45822820Y-68065340D02*
X45949820Y-67885000D01*
X45949820Y-67885000D02*
X46041260Y-67684340D01*
X46041260Y-67684340D02*
X46099680Y-67468440D01*
X46099680Y-67468440D02*
X46120000Y-67250000D01*
X46120000Y-67250000D02*
X46099680Y-67031560D01*
X46099680Y-67031560D02*
X46041260Y-66815660D01*
X46041260Y-66815660D02*
X45949820Y-66615000D01*
X45949820Y-66615000D02*
X45822820Y-66434660D01*
X45822820Y-66434660D02*
X45665340Y-66277180D01*
X45665340Y-66277180D02*
X45485000Y-66150180D01*
X45485000Y-66150180D02*
X45284340Y-66058740D01*
X45284340Y-66058740D02*
X45068440Y-66000320D01*
X45068440Y-66000320D02*
X44850000Y-65980000D01*
X44850000Y-65980000D02*
X44631560Y-66000320D01*
X44631560Y-66000320D02*
X44415660Y-66058740D01*
X44415660Y-66058740D02*
X44215000Y-66150180D01*
X44215000Y-66150180D02*
X44034660Y-66277180D01*
X44034660Y-66277180D02*
X43877180Y-66434660D01*
X43877180Y-66434660D02*
X43750180Y-66615000D01*
X43750180Y-66615000D02*
X43658740Y-66815660D01*
X43658740Y-66815660D02*
X43600320Y-67031560D01*
X43600320Y-67031560D02*
X43580000Y-67250000D01*
X43580000Y-67250000D02*
X43600320Y-67468440D01*
X43600320Y-67468440D02*
X43658740Y-67684340D01*
X43658740Y-67684340D02*
X43750180Y-67885000D01*
X43750180Y-67885000D02*
X43877180Y-68065340D01*
X43877180Y-68065340D02*
X44034660Y-68222820D01*
X44034660Y-68222820D02*
X44215000Y-68349820D01*
X44215000Y-68349820D02*
X44415660Y-68441260D01*
X44415660Y-68441260D02*
X44631560Y-68499680D01*
X44631560Y-68499680D02*
X44850000Y-68520000D01*
X44850000Y-68520000D02*
X45068440Y-68499680D01*
X45068440Y-68499680D02*
X45284340Y-68441260D01*
X45284340Y-68441260D02*
X45485000Y-68349820D01*
X45485000Y-68349820D02*
X45665340Y-68222820D01*
X45665340Y-68222820D02*
X45822820Y-68065340D01*
X45822820Y-68065340D02*
X45949820Y-67885000D01*
X45949820Y-67885000D02*
X46041260Y-67684340D01*
X46041260Y-67684340D02*
X46099680Y-67468440D01*
X46099680Y-67468440D02*
X46120000Y-67250000D01*
X46120000Y-67250000D02*
X46099680Y-67031560D01*
X46099680Y-67031560D02*
X46041260Y-66815660D01*
X46041260Y-66815660D02*
X45949820Y-66615000D01*
X45949820Y-66615000D02*
X45822820Y-66434660D01*
X45822820Y-66434660D02*
X45665340Y-66277180D01*
X45665340Y-66277180D02*
X45485000Y-66150180D01*
X45485000Y-66150180D02*
X45284340Y-66058740D01*
X45284340Y-66058740D02*
X45068440Y-66000320D01*
X45068440Y-66000320D02*
X44850000Y-65980000D01*
X44850000Y-65980000D02*
X44631560Y-66000320D01*
X44631560Y-66000320D02*
X44415660Y-66058740D01*
X44415660Y-66058740D02*
X44215000Y-66150180D01*
X44215000Y-66150180D02*
X44034660Y-66277180D01*
X44034660Y-66277180D02*
X43877180Y-66434660D01*
X43877180Y-66434660D02*
X43750180Y-66615000D01*
X43750180Y-66615000D02*
X43658740Y-66815660D01*
X43658740Y-66815660D02*
X43600320Y-67031560D01*
X43600320Y-67031560D02*
X43580000Y-67250000D01*
X43580000Y-67250000D02*
X43600320Y-67468440D01*
X43600320Y-67468440D02*
X43658740Y-67684340D01*
X43658740Y-67684340D02*
X43750180Y-67885000D01*
X43750180Y-67885000D02*
X43877180Y-68065340D01*
X43877180Y-68065340D02*
X44034660Y-68222820D01*
X44034660Y-68222820D02*
X44215000Y-68349820D01*
X44215000Y-68349820D02*
X44415660Y-68441260D01*
X44415660Y-68441260D02*
X44631560Y-68499680D01*
X44631560Y-68499680D02*
X44850000Y-68520000D01*
X44850000Y-68520000D02*
X45068440Y-68499680D01*
X45068440Y-68499680D02*
X45284340Y-68441260D01*
X45284340Y-68441260D02*
X45485000Y-68349820D01*
X45485000Y-68349820D02*
X45665340Y-68222820D01*
X45665340Y-68222820D02*
X45822820Y-68065340D01*
X45822820Y-68065340D02*
X45949820Y-67885000D01*
X45949820Y-67885000D02*
X46041260Y-67684340D01*
X46041260Y-67684340D02*
X46099680Y-67468440D01*
X46099680Y-67468440D02*
X46120000Y-67250000D01*
X46120000Y-67250000D02*
X46099680Y-67031560D01*
X46099680Y-67031560D02*
X46041260Y-66815660D01*
X46041260Y-66815660D02*
X45949820Y-66615000D01*
X45949820Y-66615000D02*
X45822820Y-66434660D01*
X45822820Y-66434660D02*
X45665340Y-66277180D01*
X45665340Y-66277180D02*
X45485000Y-66150180D01*
X45485000Y-66150180D02*
X45284340Y-66058740D01*
X45284340Y-66058740D02*
X45068440Y-66000320D01*
X45068440Y-66000320D02*
X44850000Y-65980000D01*
D12*
X37500500Y-69540240D02*
X37500500Y-62039620D01*
X29499500Y-62039620D02*
X29499500Y-69540240D01*
X29499500Y-62039620D02*
X29900820Y-62039620D01*
X29700160Y-63540760D02*
X29700160Y-62039620D01*
X29900820Y-62039620D02*
X29900820Y-63540760D01*
X37299840Y-62039620D02*
X37299840Y-63540760D01*
X37099180Y-63540760D02*
X37099180Y-62039620D01*
X37099180Y-62039620D02*
X37500500Y-62039620D01*
X34000380Y-69540240D02*
X34000380Y-68539480D01*
X34000380Y-68539480D02*
X32999620Y-68539480D01*
X32999620Y-68539480D02*
X32999620Y-69540240D01*
X35498980Y-63540760D02*
X35498980Y-68039100D01*
X35498980Y-68039100D02*
X36200020Y-68039100D01*
X36200020Y-68039100D02*
X36200020Y-63540760D01*
X31501020Y-63540760D02*
X31501020Y-68039100D01*
X31501020Y-68039100D02*
X30799980Y-68039100D01*
X30799980Y-68039100D02*
X30799980Y-63540760D01*
X37500500Y-69540240D02*
X29499500Y-69540240D01*
X29499500Y-63540760D02*
X37500500Y-63540760D01*
X34800480Y-69540240D02*
X35100200Y-69540240D01*
D11*
X43960000Y-64530000D02*
X43741560Y-64550320D01*
X43741560Y-64550320D02*
X43525660Y-64608740D01*
X43525660Y-64608740D02*
X43325000Y-64700180D01*
X43325000Y-64700180D02*
X43144660Y-64827180D01*
X43144660Y-64827180D02*
X42987180Y-64984660D01*
X42987180Y-64984660D02*
X42860180Y-65165000D01*
X42860180Y-65165000D02*
X42768740Y-65365660D01*
X42768740Y-65365660D02*
X42710320Y-65581560D01*
X42710320Y-65581560D02*
X42690000Y-65800000D01*
X42690000Y-65800000D02*
X42710320Y-66018440D01*
X42710320Y-66018440D02*
X42768740Y-66234340D01*
X42768740Y-66234340D02*
X42860180Y-66435000D01*
X42860180Y-66435000D02*
X42987180Y-66615340D01*
X42987180Y-66615340D02*
X43144660Y-66772820D01*
X43144660Y-66772820D02*
X43325000Y-66899820D01*
X43325000Y-66899820D02*
X43525660Y-66991260D01*
X43525660Y-66991260D02*
X43741560Y-67049680D01*
X43741560Y-67049680D02*
X43960000Y-67070000D01*
X43960000Y-67070000D02*
X44178440Y-67049680D01*
X44178440Y-67049680D02*
X44394340Y-66991260D01*
X44394340Y-66991260D02*
X44595000Y-66899820D01*
X44595000Y-66899820D02*
X44775340Y-66772820D01*
X44775340Y-66772820D02*
X44932820Y-66615340D01*
X44932820Y-66615340D02*
X45059820Y-66435000D01*
X45059820Y-66435000D02*
X45151260Y-66234340D01*
X45151260Y-66234340D02*
X45209680Y-66018440D01*
X45209680Y-66018440D02*
X45230000Y-65800000D01*
X45230000Y-65800000D02*
X45209680Y-65581560D01*
X45209680Y-65581560D02*
X45151260Y-65365660D01*
X45151260Y-65365660D02*
X45059820Y-65165000D01*
X45059820Y-65165000D02*
X44932820Y-64984660D01*
X44932820Y-64984660D02*
X44775340Y-64827180D01*
X44775340Y-64827180D02*
X44595000Y-64700180D01*
X44595000Y-64700180D02*
X44394340Y-64608740D01*
X44394340Y-64608740D02*
X44178440Y-64550320D01*
X44178440Y-64550320D02*
X43960000Y-64530000D01*
X43960000Y-64530000D02*
X43741560Y-64550320D01*
X43741560Y-64550320D02*
X43525660Y-64608740D01*
X43525660Y-64608740D02*
X43325000Y-64700180D01*
X43325000Y-64700180D02*
X43144660Y-64827180D01*
X43144660Y-64827180D02*
X42987180Y-64984660D01*
X42987180Y-64984660D02*
X42860180Y-65165000D01*
X42860180Y-65165000D02*
X42768740Y-65365660D01*
X42768740Y-65365660D02*
X42710320Y-65581560D01*
X42710320Y-65581560D02*
X42690000Y-65800000D01*
X42690000Y-65800000D02*
X42710320Y-66018440D01*
X42710320Y-66018440D02*
X42768740Y-66234340D01*
X42768740Y-66234340D02*
X42860180Y-66435000D01*
X42860180Y-66435000D02*
X42987180Y-66615340D01*
X42987180Y-66615340D02*
X43144660Y-66772820D01*
X43144660Y-66772820D02*
X43325000Y-66899820D01*
X43325000Y-66899820D02*
X43525660Y-66991260D01*
X43525660Y-66991260D02*
X43741560Y-67049680D01*
X43741560Y-67049680D02*
X43960000Y-67070000D01*
X43960000Y-67070000D02*
X44178440Y-67049680D01*
X44178440Y-67049680D02*
X44394340Y-66991260D01*
X44394340Y-66991260D02*
X44595000Y-66899820D01*
X44595000Y-66899820D02*
X44775340Y-66772820D01*
X44775340Y-66772820D02*
X44932820Y-66615340D01*
X44932820Y-66615340D02*
X45059820Y-66435000D01*
X45059820Y-66435000D02*
X45151260Y-66234340D01*
X45151260Y-66234340D02*
X45209680Y-66018440D01*
X45209680Y-66018440D02*
X45230000Y-65800000D01*
X45230000Y-65800000D02*
X45209680Y-65581560D01*
X45209680Y-65581560D02*
X45151260Y-65365660D01*
X45151260Y-65365660D02*
X45059820Y-65165000D01*
X45059820Y-65165000D02*
X44932820Y-64984660D01*
X44932820Y-64984660D02*
X44775340Y-64827180D01*
X44775340Y-64827180D02*
X44595000Y-64700180D01*
X44595000Y-64700180D02*
X44394340Y-64608740D01*
X44394340Y-64608740D02*
X44178440Y-64550320D01*
X44178440Y-64550320D02*
X43960000Y-64530000D01*
X43960000Y-64530000D02*
X43741560Y-64550320D01*
X43741560Y-64550320D02*
X43525660Y-64608740D01*
X43525660Y-64608740D02*
X43325000Y-64700180D01*
X43325000Y-64700180D02*
X43144660Y-64827180D01*
X43144660Y-64827180D02*
X42987180Y-64984660D01*
X42987180Y-64984660D02*
X42860180Y-65165000D01*
X42860180Y-65165000D02*
X42768740Y-65365660D01*
X42768740Y-65365660D02*
X42710320Y-65581560D01*
X42710320Y-65581560D02*
X42690000Y-65800000D01*
X42690000Y-65800000D02*
X42710320Y-66018440D01*
X42710320Y-66018440D02*
X42768740Y-66234340D01*
X42768740Y-66234340D02*
X42860180Y-66435000D01*
X42860180Y-66435000D02*
X42987180Y-66615340D01*
X42987180Y-66615340D02*
X43144660Y-66772820D01*
X43144660Y-66772820D02*
X43325000Y-66899820D01*
X43325000Y-66899820D02*
X43525660Y-66991260D01*
X43525660Y-66991260D02*
X43741560Y-67049680D01*
X43741560Y-67049680D02*
X43960000Y-67070000D01*
X43960000Y-67070000D02*
X44178440Y-67049680D01*
X44178440Y-67049680D02*
X44394340Y-66991260D01*
X44394340Y-66991260D02*
X44595000Y-66899820D01*
X44595000Y-66899820D02*
X44775340Y-66772820D01*
X44775340Y-66772820D02*
X44932820Y-66615340D01*
X44932820Y-66615340D02*
X45059820Y-66435000D01*
X45059820Y-66435000D02*
X45151260Y-66234340D01*
X45151260Y-66234340D02*
X45209680Y-66018440D01*
X45209680Y-66018440D02*
X45230000Y-65800000D01*
X45230000Y-65800000D02*
X45209680Y-65581560D01*
X45209680Y-65581560D02*
X45151260Y-65365660D01*
X45151260Y-65365660D02*
X45059820Y-65165000D01*
X45059820Y-65165000D02*
X44932820Y-64984660D01*
X44932820Y-64984660D02*
X44775340Y-64827180D01*
X44775340Y-64827180D02*
X44595000Y-64700180D01*
X44595000Y-64700180D02*
X44394340Y-64608740D01*
X44394340Y-64608740D02*
X44178440Y-64550320D01*
X44178440Y-64550320D02*
X43960000Y-64530000D01*
X43960000Y-64530000D02*
X43741560Y-64550320D01*
X43741560Y-64550320D02*
X43525660Y-64608740D01*
X43525660Y-64608740D02*
X43325000Y-64700180D01*
X43325000Y-64700180D02*
X43144660Y-64827180D01*
X43144660Y-64827180D02*
X42987180Y-64984660D01*
X42987180Y-64984660D02*
X42860180Y-65165000D01*
X42860180Y-65165000D02*
X42768740Y-65365660D01*
X42768740Y-65365660D02*
X42710320Y-65581560D01*
X42710320Y-65581560D02*
X42690000Y-65800000D01*
X42690000Y-65800000D02*
X42710320Y-66018440D01*
X42710320Y-66018440D02*
X42768740Y-66234340D01*
X42768740Y-66234340D02*
X42860180Y-66435000D01*
X42860180Y-66435000D02*
X42987180Y-66615340D01*
X42987180Y-66615340D02*
X43144660Y-66772820D01*
X43144660Y-66772820D02*
X43325000Y-66899820D01*
X43325000Y-66899820D02*
X43525660Y-66991260D01*
X43525660Y-66991260D02*
X43741560Y-67049680D01*
X43741560Y-67049680D02*
X43960000Y-67070000D01*
X43960000Y-67070000D02*
X44178440Y-67049680D01*
X44178440Y-67049680D02*
X44394340Y-66991260D01*
X44394340Y-66991260D02*
X44595000Y-66899820D01*
X44595000Y-66899820D02*
X44775340Y-66772820D01*
X44775340Y-66772820D02*
X44932820Y-66615340D01*
X44932820Y-66615340D02*
X45059820Y-66435000D01*
X45059820Y-66435000D02*
X45151260Y-66234340D01*
X45151260Y-66234340D02*
X45209680Y-66018440D01*
X45209680Y-66018440D02*
X45230000Y-65800000D01*
X45230000Y-65800000D02*
X45209680Y-65581560D01*
X45209680Y-65581560D02*
X45151260Y-65365660D01*
X45151260Y-65365660D02*
X45059820Y-65165000D01*
X45059820Y-65165000D02*
X44932820Y-64984660D01*
X44932820Y-64984660D02*
X44775340Y-64827180D01*
X44775340Y-64827180D02*
X44595000Y-64700180D01*
X44595000Y-64700180D02*
X44394340Y-64608740D01*
X44394340Y-64608740D02*
X44178440Y-64550320D01*
X44178440Y-64550320D02*
X43960000Y-64530000D01*
X45630352Y-67723143D02*
X45901285Y-67723143D01*
X45901285Y-68148895D02*
X45901285Y-67336095D01*
X45514238Y-67336095D01*
X45204599Y-68148895D02*
X45204599Y-67336095D01*
X44817551Y-68148895D02*
X44817551Y-67336095D01*
X44624027Y-67336095D01*
X44507913Y-67374800D01*
X44430504Y-67452210D01*
X44391799Y-67529619D01*
X44353094Y-67684438D01*
X44353094Y-67800552D01*
X44391799Y-67955371D01*
X44430504Y-68032781D01*
X44507913Y-68110190D01*
X44624027Y-68148895D01*
X44817551Y-68148895D01*
X43656408Y-67607029D02*
X43656408Y-68148895D01*
X43849932Y-67297390D02*
X44043456Y-67877962D01*
X43540294Y-67877962D01*
X43075837Y-67336095D02*
X42998428Y-67336095D01*
X42921018Y-67374800D01*
X42882313Y-67413505D01*
X42843609Y-67490914D01*
X42804904Y-67645733D01*
X42804904Y-67839257D01*
X42843609Y-67994076D01*
X42882313Y-68071486D01*
X42921018Y-68110190D01*
X42998428Y-68148895D01*
X43075837Y-68148895D01*
X43153247Y-68110190D01*
X43191951Y-68071486D01*
X43230656Y-67994076D01*
X43269361Y-67839257D01*
X43269361Y-67645733D01*
X43230656Y-67490914D01*
X43191951Y-67413505D01*
X43153247Y-67374800D01*
X43075837Y-67336095D01*
X42030809Y-68148895D02*
X42495266Y-68148895D01*
X42263037Y-68148895D02*
X42263037Y-67336095D01*
X42340447Y-67452210D01*
X42417856Y-67529619D01*
X42495266Y-67568324D01*
M02*
