M48
;DRILL file {KiCad 4.0.7} date Monday, December 25, 2017 'AMt' 07:55:13 AM
;FORMAT={-:-/ absolute / metric / decimal}
FMAT,2
METRIC,TZ
T1C0.300
T2C1.000
%
G90
G05
M71
T1
X20.982Y-30.907
X22.Y-30.907
X23.Y-30.907
X24.Y-30.907
X24.1Y-39.75
X24.115Y-37.26
X24.2Y-34.72
X25.Y-30.907
X25.Y-38.5
X25.093Y-54.392
X25.646Y-42.376
X26.Y-30.907
X26.4Y-48.1
X26.569Y-60.872
X26.681Y-54.915
X26.811Y-53.512
X27.03Y-64.97
X28.Y-58.6
X28.244Y-49.75
X28.335Y-49.106
X28.46Y-64.39
X28.725Y-60.85
X28.878Y-48.571
X29.55Y-50.225
X29.581Y-51.292
X29.581Y-51.972
X29.63Y-48.115
X30.2Y-47.35
X30.425Y-35.951
X31.129Y-54.91
X31.27Y-37.2
X31.425Y-46.225
X31.714Y-64.963
X31.781Y-55.3
X31.919Y-45.706
X32.Y-30.9
X32.237Y-48.675
X32.237Y-49.962
X32.237Y-51.25
X32.237Y-52.537
X32.325Y-42.4
X32.419Y-46.431
X32.423Y-55.199
X32.475Y-40.675
X32.5Y-64.911
X32.919Y-45.981
X33.Y-30.9
X33.055Y-55.351
X33.239Y-60.061
X33.425Y-46.425
X33.425Y-56.425
X33.525Y-48.675
X33.525Y-49.962
X33.525Y-51.25
X33.525Y-52.537
X33.525Y-52.537
X33.55Y-63.033
X33.852Y-64.68
X33.919Y-60.061
X34.Y-30.9
X34.005Y-55.148
X34.613Y-58.905
X34.646Y-55.041
X34.812Y-48.675
X34.812Y-49.962
X34.812Y-49.962
X34.812Y-51.25
X34.812Y-52.537
X34.925Y-46.425
X35.Y-30.9
X35.283Y-54.912
X35.647Y-45.916
X35.791Y-64.837
X35.919Y-46.506
X35.925Y-54.775
X36.Y-30.9
X36.Y-48.675
X36.Y-50.
X36.Y-51.25
X36.1Y-52.537
X36.525Y-55.175
X36.775Y-38.75
X36.82Y-46.209
X37.Y-30.9
X37.05Y-41.35
X37.35Y-37.4
X37.475Y-46.925
X37.8Y-54.025
X37.825Y-36.325
X38.Y-30.9
X38.Y-45.675
X38.319Y-52.356
X38.35Y-51.575
X38.4Y-50.025
X38.4Y-59.8
X38.425Y-48.85
X39.Y-30.9
X39.Y-55.1
X39.26Y-61.875
X39.7Y-45.9
X39.87Y-56.55
X39.875Y-48.325
X39.9Y-50.775
X40.Y-30.9
X40.675Y-38.75
X41.Y-30.9
X41.Y-63.7
X42.Y-30.9
X43.Y-30.9
X43.925Y-57.525
X44.Y-30.9
X45.Y-30.9
X46.Y-30.9
T2
X22.25Y-34.72
X22.25Y-37.26
X22.25Y-39.8
X22.25Y-42.34
X22.25Y-44.88
X22.25Y-47.42
X22.25Y-49.96
X22.25Y-52.5
X22.25Y-55.04
X22.25Y-57.58
X22.25Y-60.12
X22.25Y-62.66
X45.Y-34.72
X45.Y-37.26
X45.Y-39.8
X45.Y-42.34
X45.Y-44.88
X45.Y-47.42
X45.Y-49.96
X45.Y-52.5
X45.Y-55.04
T0
M30
