M48
;DRILL file {KiCad 4.0.2-stable} date Thursday, November 23, 2017 'PMt' 08:55:21 PM
;FORMAT={-:-/ absolute / metric / decimal}
FMAT,2
METRIC,TZ
T1C0.400
T2C0.762
%
G90
G05
M71
T1
X110.66Y-104.93
X113.45Y-105.34
X118.65Y-105.58
X118.675Y-101.28
X119.29Y-97.38
X122.24Y-101.57
X123.95Y-109.36
X124.13Y-102.21
X124.14Y-106.09
X124.841Y-94.9
X125.234Y-105.377
X125.406Y-103.631
X125.62Y-100.585
X125.701Y-102.827
X125.704Y-97.943
X126.47Y-91.99
X128.125Y-102.22
X128.569Y-99.958
X128.82Y-98.14
X130.2Y-110.94
X132.24Y-103.28
X137.6Y-101.92
T2
X112.08Y-95.38
X112.08Y-97.92
X112.08Y-100.46
X112.08Y-103.
X112.08Y-105.54
X112.08Y-108.08
X112.08Y-110.62
X135.92Y-95.38
X135.92Y-97.92
X135.92Y-100.46
X135.92Y-103.
X135.92Y-105.54
X135.92Y-108.08
X135.92Y-110.62
T0
M30
