G04 #@! TF.FileFunction,Legend,Bot*
%FSLAX46Y46*%
G04 Gerber Fmt 4.6, Leading zero omitted, Abs format (unit mm)*
G04 Created by KiCad (PCBNEW 4.0.2-stable) date Saturday, November 25, 2017 'AMt' 08:54:30 AM*
%MOMM*%
G01*
G04 APERTURE LIST*
%ADD10C,0.100000*%
%ADD11C,0.300000*%
%ADD12C,0.010000*%
%ADD13C,0.120000*%
G04 APERTURE END LIST*
D10*
X31871429Y-31652381D02*
X31871429Y-30652381D01*
X31490476Y-30652381D01*
X31395238Y-30700000D01*
X31347619Y-30747619D01*
X31300000Y-30842857D01*
X31300000Y-30985714D01*
X31347619Y-31080952D01*
X31395238Y-31128571D01*
X31490476Y-31176190D01*
X31871429Y-31176190D01*
X30871429Y-31652381D02*
X30871429Y-30985714D01*
X30871429Y-31176190D02*
X30823810Y-31080952D01*
X30776191Y-31033333D01*
X30680953Y-30985714D01*
X30585714Y-30985714D01*
X30109524Y-31652381D02*
X30204762Y-31604762D01*
X30252381Y-31557143D01*
X30300000Y-31461905D01*
X30300000Y-31176190D01*
X30252381Y-31080952D01*
X30204762Y-31033333D01*
X30109524Y-30985714D01*
X29966666Y-30985714D01*
X29871428Y-31033333D01*
X29823809Y-31080952D01*
X29776190Y-31176190D01*
X29776190Y-31461905D01*
X29823809Y-31557143D01*
X29871428Y-31604762D01*
X29966666Y-31652381D01*
X30109524Y-31652381D01*
X28919047Y-30985714D02*
X28919047Y-31652381D01*
X29347619Y-30985714D02*
X29347619Y-31509524D01*
X29300000Y-31604762D01*
X29204762Y-31652381D01*
X29061904Y-31652381D01*
X28966666Y-31604762D01*
X28919047Y-31557143D01*
X28014285Y-31652381D02*
X28014285Y-30652381D01*
X28014285Y-31604762D02*
X28109523Y-31652381D01*
X28300000Y-31652381D01*
X28395238Y-31604762D01*
X28442857Y-31557143D01*
X28490476Y-31461905D01*
X28490476Y-31176190D01*
X28442857Y-31080952D01*
X28395238Y-31033333D01*
X28300000Y-30985714D01*
X28109523Y-30985714D01*
X28014285Y-31033333D01*
X27395238Y-31652381D02*
X27490476Y-31604762D01*
X27538095Y-31509524D01*
X27538095Y-30652381D01*
X27109523Y-30985714D02*
X26871428Y-31652381D01*
X26633332Y-30985714D02*
X26871428Y-31652381D01*
X26966666Y-31890476D01*
X27014285Y-31938095D01*
X27109523Y-31985714D01*
X33490476Y-33152381D02*
X33490476Y-32152381D01*
X33252381Y-32152381D01*
X33109523Y-32200000D01*
X33014285Y-32295238D01*
X32966666Y-32390476D01*
X32919047Y-32580952D01*
X32919047Y-32723810D01*
X32966666Y-32914286D01*
X33014285Y-33009524D01*
X33109523Y-33104762D01*
X33252381Y-33152381D01*
X33490476Y-33152381D01*
X32109523Y-33104762D02*
X32204761Y-33152381D01*
X32395238Y-33152381D01*
X32490476Y-33104762D01*
X32538095Y-33009524D01*
X32538095Y-32628571D01*
X32490476Y-32533333D01*
X32395238Y-32485714D01*
X32204761Y-32485714D01*
X32109523Y-32533333D01*
X32061904Y-32628571D01*
X32061904Y-32723810D01*
X32538095Y-32819048D01*
X31680952Y-33104762D02*
X31585714Y-33152381D01*
X31395238Y-33152381D01*
X31299999Y-33104762D01*
X31252380Y-33009524D01*
X31252380Y-32961905D01*
X31299999Y-32866667D01*
X31395238Y-32819048D01*
X31538095Y-32819048D01*
X31633333Y-32771429D01*
X31680952Y-32676190D01*
X31680952Y-32628571D01*
X31633333Y-32533333D01*
X31538095Y-32485714D01*
X31395238Y-32485714D01*
X31299999Y-32533333D01*
X30823809Y-33152381D02*
X30823809Y-32485714D01*
X30823809Y-32152381D02*
X30871428Y-32200000D01*
X30823809Y-32247619D01*
X30776190Y-32200000D01*
X30823809Y-32152381D01*
X30823809Y-32247619D01*
X29919047Y-32485714D02*
X29919047Y-33295238D01*
X29966666Y-33390476D01*
X30014285Y-33438095D01*
X30109524Y-33485714D01*
X30252381Y-33485714D01*
X30347619Y-33438095D01*
X29919047Y-33104762D02*
X30014285Y-33152381D01*
X30204762Y-33152381D01*
X30300000Y-33104762D01*
X30347619Y-33057143D01*
X30395238Y-32961905D01*
X30395238Y-32676190D01*
X30347619Y-32580952D01*
X30300000Y-32533333D01*
X30204762Y-32485714D01*
X30014285Y-32485714D01*
X29919047Y-32533333D01*
X29442857Y-32485714D02*
X29442857Y-33152381D01*
X29442857Y-32580952D02*
X29395238Y-32533333D01*
X29300000Y-32485714D01*
X29157142Y-32485714D01*
X29061904Y-32533333D01*
X29014285Y-32628571D01*
X29014285Y-33152381D01*
X28157142Y-33104762D02*
X28252380Y-33152381D01*
X28442857Y-33152381D01*
X28538095Y-33104762D01*
X28585714Y-33009524D01*
X28585714Y-32628571D01*
X28538095Y-32533333D01*
X28442857Y-32485714D01*
X28252380Y-32485714D01*
X28157142Y-32533333D01*
X28109523Y-32628571D01*
X28109523Y-32723810D01*
X28585714Y-32819048D01*
X27252380Y-33152381D02*
X27252380Y-32152381D01*
X27252380Y-33104762D02*
X27347618Y-33152381D01*
X27538095Y-33152381D01*
X27633333Y-33104762D01*
X27680952Y-33057143D01*
X27728571Y-32961905D01*
X27728571Y-32676190D01*
X27680952Y-32580952D01*
X27633333Y-32533333D01*
X27538095Y-32485714D01*
X27347618Y-32485714D01*
X27252380Y-32533333D01*
X26014285Y-33152381D02*
X26014285Y-32485714D01*
X26014285Y-32152381D02*
X26061904Y-32200000D01*
X26014285Y-32247619D01*
X25966666Y-32200000D01*
X26014285Y-32152381D01*
X26014285Y-32247619D01*
X25538095Y-32485714D02*
X25538095Y-33152381D01*
X25538095Y-32580952D02*
X25490476Y-32533333D01*
X25395238Y-32485714D01*
X25252380Y-32485714D01*
X25157142Y-32533333D01*
X25109523Y-32628571D01*
X25109523Y-33152381D01*
D11*
X32985714Y-30028571D02*
X32985714Y-28528571D01*
X32128571Y-30028571D01*
X32128571Y-28528571D01*
X31414285Y-29242857D02*
X30914285Y-29242857D01*
X30699999Y-30028571D02*
X31414285Y-30028571D01*
X31414285Y-28528571D01*
X30699999Y-28528571D01*
X29771428Y-28528571D02*
X29485714Y-28528571D01*
X29342856Y-28600000D01*
X29199999Y-28742857D01*
X29128571Y-29028571D01*
X29128571Y-29528571D01*
X29199999Y-29814286D01*
X29342856Y-29957143D01*
X29485714Y-30028571D01*
X29771428Y-30028571D01*
X29914285Y-29957143D01*
X30057142Y-29814286D01*
X30128571Y-29528571D01*
X30128571Y-29028571D01*
X30057142Y-28742857D01*
X29914285Y-28600000D01*
X29771428Y-28528571D01*
X28485713Y-30028571D02*
X28485713Y-28528571D01*
X27985713Y-29600000D01*
X27485713Y-28528571D01*
X27485713Y-30028571D01*
X25342856Y-28528571D02*
X25199999Y-28528571D01*
X25057142Y-28600000D01*
X24985713Y-28671429D01*
X24914284Y-28814286D01*
X24842856Y-29100000D01*
X24842856Y-29457143D01*
X24914284Y-29742857D01*
X24985713Y-29885714D01*
X25057142Y-29957143D01*
X25199999Y-30028571D01*
X25342856Y-30028571D01*
X25485713Y-29957143D01*
X25557142Y-29885714D01*
X25628570Y-29742857D01*
X25699999Y-29457143D01*
X25699999Y-29100000D01*
X25628570Y-28814286D01*
X25557142Y-28671429D01*
X25485713Y-28600000D01*
X25342856Y-28528571D01*
D12*
G36*
X27790063Y-35727761D02*
X27736622Y-35733351D01*
X27713921Y-35742138D01*
X27714240Y-35745440D01*
X27741371Y-35759401D01*
X27790202Y-35765727D01*
X27794058Y-35765760D01*
X27869794Y-35771068D01*
X27972907Y-35785527D01*
X28091752Y-35806934D01*
X28214684Y-35833086D01*
X28330058Y-35861783D01*
X28384800Y-35877465D01*
X28529366Y-35928314D01*
X28679452Y-35993234D01*
X28826459Y-36067493D01*
X28961790Y-36146360D01*
X29076848Y-36225101D01*
X29163035Y-36298984D01*
X29176435Y-36313189D01*
X29216230Y-36357438D01*
X29044355Y-36517821D01*
X28975613Y-36581133D01*
X28917777Y-36632834D01*
X28877189Y-36667361D01*
X28860457Y-36679182D01*
X28847786Y-36662357D01*
X28830483Y-36619028D01*
X28824301Y-36599615D01*
X28783540Y-36517988D01*
X28720705Y-36470198D01*
X28647589Y-36456640D01*
X28581714Y-36471726D01*
X28537284Y-36510285D01*
X28519018Y-36562271D01*
X28531640Y-36617636D01*
X28557065Y-36649267D01*
X28599584Y-36673625D01*
X28658379Y-36676935D01*
X28680297Y-36674494D01*
X28744744Y-36674484D01*
X28776017Y-36694182D01*
X28772051Y-36730849D01*
X28747993Y-36764277D01*
X28682008Y-36821549D01*
X28620905Y-36844507D01*
X28569503Y-36831367D01*
X28568503Y-36830648D01*
X28505314Y-36804936D01*
X28445032Y-36813652D01*
X28398208Y-36851485D01*
X28375394Y-36913127D01*
X28374640Y-36928191D01*
X28390886Y-36986916D01*
X28435554Y-37023936D01*
X28502542Y-37038987D01*
X28585746Y-37031802D01*
X28679064Y-37002116D01*
X28776393Y-36949664D01*
X28782028Y-36945921D01*
X28870610Y-36886428D01*
X28935843Y-36943703D01*
X29023278Y-37004393D01*
X29108174Y-37033400D01*
X29183564Y-37028662D01*
X29200229Y-37021905D01*
X29261915Y-36977761D01*
X29285788Y-36922508D01*
X29281312Y-36875654D01*
X29251503Y-36823343D01*
X29201770Y-36792987D01*
X29144296Y-36785759D01*
X29091266Y-36802833D01*
X29054863Y-36845382D01*
X29051753Y-36853541D01*
X29036063Y-36888622D01*
X29015640Y-36889711D01*
X28995077Y-36876207D01*
X28972420Y-36856769D01*
X28969509Y-36837019D01*
X28988361Y-36804920D01*
X29012421Y-36772809D01*
X29055902Y-36723731D01*
X29119137Y-36661799D01*
X29189740Y-36599031D01*
X29202393Y-36588474D01*
X29273155Y-36532787D01*
X29321525Y-36502146D01*
X29354002Y-36493013D01*
X29370121Y-36497173D01*
X29409467Y-36524776D01*
X29463357Y-36571032D01*
X29524896Y-36628916D01*
X29587191Y-36691405D01*
X29643346Y-36751476D01*
X29686467Y-36802104D01*
X29709660Y-36836266D01*
X29711602Y-36845063D01*
X29685925Y-36875263D01*
X29650412Y-36877611D01*
X29623203Y-36852264D01*
X29620452Y-36844265D01*
X29591549Y-36805367D01*
X29538935Y-36785580D01*
X29477144Y-36790272D01*
X29475572Y-36790760D01*
X29433352Y-36822738D01*
X29406039Y-36876710D01*
X29400655Y-36934801D01*
X29408830Y-36960659D01*
X29455751Y-37009777D01*
X29522972Y-37031041D01*
X29601655Y-37024928D01*
X29682963Y-36991915D01*
X29748299Y-36942325D01*
X29813952Y-36878691D01*
X29882790Y-36931197D01*
X29983078Y-36993787D01*
X30084658Y-37032621D01*
X30178741Y-37045588D01*
X30256537Y-37030581D01*
X30269480Y-37023972D01*
X30295772Y-36988083D01*
X30304753Y-36932447D01*
X30296096Y-36874242D01*
X30273109Y-36834011D01*
X30218749Y-36805729D01*
X30154091Y-36809254D01*
X30111178Y-36830648D01*
X30074762Y-36848486D01*
X30035793Y-36839998D01*
X30020887Y-36832728D01*
X29959162Y-36790945D01*
X29919145Y-36744211D01*
X29908127Y-36701624D01*
X29910039Y-36694420D01*
X29926304Y-36675288D01*
X29961861Y-36669320D01*
X30021478Y-36673896D01*
X30081859Y-36679094D01*
X30115324Y-36673275D01*
X30135044Y-36652116D01*
X30144249Y-36633592D01*
X30160728Y-36560718D01*
X30144093Y-36501510D01*
X30101233Y-36462456D01*
X30039036Y-36450047D01*
X29969029Y-36468508D01*
X29912739Y-36508984D01*
X29872922Y-36574394D01*
X29866111Y-36591259D01*
X29843250Y-36642775D01*
X29823772Y-36672546D01*
X29816940Y-36675765D01*
X29788561Y-36656332D01*
X29742651Y-36616286D01*
X29686060Y-36562609D01*
X29625640Y-36502282D01*
X29568239Y-36442285D01*
X29520708Y-36389601D01*
X29489897Y-36351211D01*
X29482165Y-36334583D01*
X29515309Y-36299230D01*
X29576510Y-36250073D01*
X29657927Y-36192360D01*
X29751719Y-36131340D01*
X29850045Y-36072259D01*
X29945064Y-36020367D01*
X29971215Y-36007249D01*
X30147038Y-35932431D01*
X30345653Y-35866688D01*
X30550693Y-35814563D01*
X30745793Y-35780599D01*
X30813466Y-35773438D01*
X30888804Y-35764831D01*
X30945516Y-35753928D01*
X30973994Y-35742723D01*
X30975600Y-35739757D01*
X30955728Y-35731874D01*
X30897577Y-35727665D01*
X30803349Y-35727196D01*
X30675880Y-35730513D01*
X30431697Y-35747954D01*
X30214568Y-35783497D01*
X30013668Y-35840527D01*
X29818172Y-35922428D01*
X29617252Y-36032585D01*
X29525451Y-36090157D01*
X29332760Y-36214983D01*
X29204220Y-36120242D01*
X28978503Y-35977712D01*
X28729151Y-35863643D01*
X28464660Y-35781611D01*
X28336419Y-35754945D01*
X28255974Y-35743758D01*
X28161287Y-35735080D01*
X28059856Y-35729028D01*
X27959177Y-35725714D01*
X27866747Y-35725253D01*
X27790063Y-35727761D01*
X27790063Y-35727761D01*
G37*
X27790063Y-35727761D02*
X27736622Y-35733351D01*
X27713921Y-35742138D01*
X27714240Y-35745440D01*
X27741371Y-35759401D01*
X27790202Y-35765727D01*
X27794058Y-35765760D01*
X27869794Y-35771068D01*
X27972907Y-35785527D01*
X28091752Y-35806934D01*
X28214684Y-35833086D01*
X28330058Y-35861783D01*
X28384800Y-35877465D01*
X28529366Y-35928314D01*
X28679452Y-35993234D01*
X28826459Y-36067493D01*
X28961790Y-36146360D01*
X29076848Y-36225101D01*
X29163035Y-36298984D01*
X29176435Y-36313189D01*
X29216230Y-36357438D01*
X29044355Y-36517821D01*
X28975613Y-36581133D01*
X28917777Y-36632834D01*
X28877189Y-36667361D01*
X28860457Y-36679182D01*
X28847786Y-36662357D01*
X28830483Y-36619028D01*
X28824301Y-36599615D01*
X28783540Y-36517988D01*
X28720705Y-36470198D01*
X28647589Y-36456640D01*
X28581714Y-36471726D01*
X28537284Y-36510285D01*
X28519018Y-36562271D01*
X28531640Y-36617636D01*
X28557065Y-36649267D01*
X28599584Y-36673625D01*
X28658379Y-36676935D01*
X28680297Y-36674494D01*
X28744744Y-36674484D01*
X28776017Y-36694182D01*
X28772051Y-36730849D01*
X28747993Y-36764277D01*
X28682008Y-36821549D01*
X28620905Y-36844507D01*
X28569503Y-36831367D01*
X28568503Y-36830648D01*
X28505314Y-36804936D01*
X28445032Y-36813652D01*
X28398208Y-36851485D01*
X28375394Y-36913127D01*
X28374640Y-36928191D01*
X28390886Y-36986916D01*
X28435554Y-37023936D01*
X28502542Y-37038987D01*
X28585746Y-37031802D01*
X28679064Y-37002116D01*
X28776393Y-36949664D01*
X28782028Y-36945921D01*
X28870610Y-36886428D01*
X28935843Y-36943703D01*
X29023278Y-37004393D01*
X29108174Y-37033400D01*
X29183564Y-37028662D01*
X29200229Y-37021905D01*
X29261915Y-36977761D01*
X29285788Y-36922508D01*
X29281312Y-36875654D01*
X29251503Y-36823343D01*
X29201770Y-36792987D01*
X29144296Y-36785759D01*
X29091266Y-36802833D01*
X29054863Y-36845382D01*
X29051753Y-36853541D01*
X29036063Y-36888622D01*
X29015640Y-36889711D01*
X28995077Y-36876207D01*
X28972420Y-36856769D01*
X28969509Y-36837019D01*
X28988361Y-36804920D01*
X29012421Y-36772809D01*
X29055902Y-36723731D01*
X29119137Y-36661799D01*
X29189740Y-36599031D01*
X29202393Y-36588474D01*
X29273155Y-36532787D01*
X29321525Y-36502146D01*
X29354002Y-36493013D01*
X29370121Y-36497173D01*
X29409467Y-36524776D01*
X29463357Y-36571032D01*
X29524896Y-36628916D01*
X29587191Y-36691405D01*
X29643346Y-36751476D01*
X29686467Y-36802104D01*
X29709660Y-36836266D01*
X29711602Y-36845063D01*
X29685925Y-36875263D01*
X29650412Y-36877611D01*
X29623203Y-36852264D01*
X29620452Y-36844265D01*
X29591549Y-36805367D01*
X29538935Y-36785580D01*
X29477144Y-36790272D01*
X29475572Y-36790760D01*
X29433352Y-36822738D01*
X29406039Y-36876710D01*
X29400655Y-36934801D01*
X29408830Y-36960659D01*
X29455751Y-37009777D01*
X29522972Y-37031041D01*
X29601655Y-37024928D01*
X29682963Y-36991915D01*
X29748299Y-36942325D01*
X29813952Y-36878691D01*
X29882790Y-36931197D01*
X29983078Y-36993787D01*
X30084658Y-37032621D01*
X30178741Y-37045588D01*
X30256537Y-37030581D01*
X30269480Y-37023972D01*
X30295772Y-36988083D01*
X30304753Y-36932447D01*
X30296096Y-36874242D01*
X30273109Y-36834011D01*
X30218749Y-36805729D01*
X30154091Y-36809254D01*
X30111178Y-36830648D01*
X30074762Y-36848486D01*
X30035793Y-36839998D01*
X30020887Y-36832728D01*
X29959162Y-36790945D01*
X29919145Y-36744211D01*
X29908127Y-36701624D01*
X29910039Y-36694420D01*
X29926304Y-36675288D01*
X29961861Y-36669320D01*
X30021478Y-36673896D01*
X30081859Y-36679094D01*
X30115324Y-36673275D01*
X30135044Y-36652116D01*
X30144249Y-36633592D01*
X30160728Y-36560718D01*
X30144093Y-36501510D01*
X30101233Y-36462456D01*
X30039036Y-36450047D01*
X29969029Y-36468508D01*
X29912739Y-36508984D01*
X29872922Y-36574394D01*
X29866111Y-36591259D01*
X29843250Y-36642775D01*
X29823772Y-36672546D01*
X29816940Y-36675765D01*
X29788561Y-36656332D01*
X29742651Y-36616286D01*
X29686060Y-36562609D01*
X29625640Y-36502282D01*
X29568239Y-36442285D01*
X29520708Y-36389601D01*
X29489897Y-36351211D01*
X29482165Y-36334583D01*
X29515309Y-36299230D01*
X29576510Y-36250073D01*
X29657927Y-36192360D01*
X29751719Y-36131340D01*
X29850045Y-36072259D01*
X29945064Y-36020367D01*
X29971215Y-36007249D01*
X30147038Y-35932431D01*
X30345653Y-35866688D01*
X30550693Y-35814563D01*
X30745793Y-35780599D01*
X30813466Y-35773438D01*
X30888804Y-35764831D01*
X30945516Y-35753928D01*
X30973994Y-35742723D01*
X30975600Y-35739757D01*
X30955728Y-35731874D01*
X30897577Y-35727665D01*
X30803349Y-35727196D01*
X30675880Y-35730513D01*
X30431697Y-35747954D01*
X30214568Y-35783497D01*
X30013668Y-35840527D01*
X29818172Y-35922428D01*
X29617252Y-36032585D01*
X29525451Y-36090157D01*
X29332760Y-36214983D01*
X29204220Y-36120242D01*
X28978503Y-35977712D01*
X28729151Y-35863643D01*
X28464660Y-35781611D01*
X28336419Y-35754945D01*
X28255974Y-35743758D01*
X28161287Y-35735080D01*
X28059856Y-35729028D01*
X27959177Y-35725714D01*
X27866747Y-35725253D01*
X27790063Y-35727761D01*
G36*
X29325710Y-33851803D02*
X29318883Y-33865839D01*
X29303803Y-33914139D01*
X29299918Y-33926593D01*
X29287663Y-33941305D01*
X29263040Y-33927997D01*
X29239881Y-33906273D01*
X29183388Y-33871598D01*
X29110468Y-33854598D01*
X29036229Y-33856080D01*
X28975778Y-33876851D01*
X28958388Y-33891239D01*
X28940984Y-33914355D01*
X28949588Y-33925141D01*
X28990855Y-33929287D01*
X29003518Y-33929816D01*
X29074736Y-33939832D01*
X29131839Y-33960899D01*
X29163822Y-33988281D01*
X29167120Y-34000249D01*
X29149923Y-34012340D01*
X29109605Y-34008836D01*
X29031548Y-34004095D01*
X28948478Y-34018678D01*
X28870282Y-34048190D01*
X28806846Y-34088232D01*
X28768057Y-34134407D01*
X28760720Y-34164022D01*
X28763378Y-34187585D01*
X28777457Y-34183127D01*
X28802172Y-34159668D01*
X28872274Y-34109646D01*
X28949009Y-34086705D01*
X28990025Y-34088085D01*
X29034915Y-34095606D01*
X29055360Y-34098203D01*
X29049758Y-34108773D01*
X29016335Y-34135150D01*
X28961980Y-34171993D01*
X28951653Y-34178597D01*
X28855943Y-34254462D01*
X28785806Y-34341468D01*
X28746706Y-34431769D01*
X28740400Y-34481855D01*
X28748342Y-34519503D01*
X28771303Y-34520791D01*
X28807988Y-34486580D01*
X28857101Y-34417730D01*
X28871440Y-34394764D01*
X28910504Y-34333292D01*
X28941314Y-34289440D01*
X28958248Y-34271096D01*
X28959493Y-34271199D01*
X28977609Y-34264496D01*
X29006254Y-34240066D01*
X29046170Y-34209194D01*
X29075891Y-34201945D01*
X29085840Y-34217316D01*
X29072393Y-34239320D01*
X29037707Y-34279073D01*
X29004117Y-34313313D01*
X28928485Y-34411640D01*
X28891724Y-34520189D01*
X28893187Y-34630128D01*
X28907937Y-34687497D01*
X28925109Y-34706765D01*
X28942662Y-34686987D01*
X28952153Y-34657488D01*
X28969125Y-34622635D01*
X28987649Y-34619786D01*
X29000816Y-34616416D01*
X28999569Y-34578883D01*
X28996292Y-34559657D01*
X28991505Y-34506533D01*
X29002160Y-34485716D01*
X29003640Y-34485600D01*
X29021820Y-34468901D01*
X29024880Y-34451132D01*
X29034104Y-34418126D01*
X29057025Y-34373839D01*
X29086519Y-34328604D01*
X29115460Y-34292752D01*
X29136725Y-34276615D01*
X29142704Y-34280269D01*
X29161621Y-34294096D01*
X29168856Y-34291487D01*
X29186302Y-34294826D01*
X29187440Y-34301520D01*
X29174088Y-34322228D01*
X29169108Y-34323040D01*
X29150456Y-34340126D01*
X29130413Y-34381497D01*
X29129525Y-34384000D01*
X29119077Y-34429493D01*
X29128006Y-34444960D01*
X29131858Y-34459350D01*
X29115211Y-34494548D01*
X29111709Y-34500054D01*
X29092083Y-34535262D01*
X29099070Y-34540426D01*
X29104044Y-34537663D01*
X29122506Y-34532505D01*
X29122908Y-34556258D01*
X29118592Y-34575225D01*
X29112813Y-34624968D01*
X29115586Y-34680167D01*
X29124828Y-34728273D01*
X29138454Y-34756733D01*
X29149029Y-34758542D01*
X29162373Y-34767538D01*
X29168867Y-34804440D01*
X29170614Y-34861520D01*
X29188865Y-34800560D01*
X29198828Y-34746717D01*
X29196820Y-34706908D01*
X29202227Y-34668177D01*
X29236246Y-34641757D01*
X29268720Y-34636768D01*
X29279358Y-34642258D01*
X29287247Y-34661076D01*
X29292772Y-34698251D01*
X29296316Y-34758813D01*
X29298264Y-34847792D01*
X29298998Y-34970217D01*
X29299036Y-35034255D01*
X29297918Y-35256121D01*
X29294584Y-35440796D01*
X29288767Y-35591682D01*
X29280200Y-35712179D01*
X29268616Y-35805691D01*
X29253745Y-35875618D01*
X29235322Y-35925362D01*
X29227882Y-35938800D01*
X29184126Y-36009600D01*
X29513386Y-36009600D01*
X29472448Y-35929353D01*
X29457218Y-35894184D01*
X29444535Y-35850950D01*
X29434003Y-35795236D01*
X29425225Y-35722629D01*
X29417804Y-35628714D01*
X29411344Y-35509077D01*
X29405448Y-35359302D01*
X29399720Y-35174976D01*
X29397512Y-35095200D01*
X29394032Y-34958424D01*
X29392296Y-34856293D01*
X29392713Y-34782835D01*
X29395693Y-34732075D01*
X29401645Y-34698041D01*
X29410978Y-34674759D01*
X29424102Y-34656258D01*
X29427894Y-34651827D01*
X29468978Y-34604694D01*
X29491709Y-34647167D01*
X29505861Y-34685959D01*
X29504970Y-34704961D01*
X29502913Y-34733265D01*
X29510254Y-34782636D01*
X29512111Y-34790902D01*
X29523336Y-34828696D01*
X29529785Y-34827847D01*
X29530801Y-34817493D01*
X29542307Y-34778868D01*
X29557134Y-34765382D01*
X29572134Y-34740685D01*
X29580950Y-34683655D01*
X29582534Y-34643735D01*
X29586443Y-34577975D01*
X29595855Y-34544763D01*
X29604000Y-34542660D01*
X29608012Y-34536723D01*
X29592150Y-34506205D01*
X29586232Y-34496909D01*
X29563676Y-34459067D01*
X29564721Y-34447077D01*
X29580253Y-34450992D01*
X29597641Y-34453317D01*
X29594645Y-34434790D01*
X29572621Y-34392559D01*
X29542763Y-34328572D01*
X29533549Y-34282916D01*
X29546158Y-34262532D01*
X29550437Y-34262080D01*
X29573764Y-34278233D01*
X29606345Y-34318151D01*
X29639728Y-34369016D01*
X29665460Y-34418012D01*
X29675120Y-34451132D01*
X29685411Y-34480633D01*
X29696361Y-34485600D01*
X29708211Y-34503655D01*
X29704658Y-34554420D01*
X29703709Y-34559657D01*
X29698047Y-34608501D01*
X29706662Y-34622216D01*
X29712352Y-34619786D01*
X29733580Y-34625507D01*
X29747848Y-34657488D01*
X29766316Y-34700401D01*
X29785670Y-34704212D01*
X29799000Y-34669478D01*
X29800692Y-34653240D01*
X29800021Y-34530606D01*
X29777303Y-34433208D01*
X29728721Y-34349959D01*
X29676935Y-34293838D01*
X29638155Y-34253417D01*
X29616091Y-34223533D01*
X29614160Y-34217638D01*
X29627059Y-34201163D01*
X29656568Y-34207725D01*
X29688907Y-34233381D01*
X29694656Y-34240671D01*
X29721060Y-34268078D01*
X29736029Y-34272271D01*
X29751888Y-34284410D01*
X29782177Y-34323754D01*
X29820908Y-34382372D01*
X29828848Y-34395232D01*
X29881756Y-34474142D01*
X29921341Y-34516131D01*
X29947133Y-34520928D01*
X29958663Y-34488261D01*
X29959266Y-34470360D01*
X29939597Y-34382715D01*
X29885161Y-34295725D01*
X29801280Y-34216711D01*
X29750036Y-34182526D01*
X29694311Y-34146270D01*
X29659420Y-34117008D01*
X29652639Y-34100883D01*
X29653018Y-34100621D01*
X29699284Y-34090797D01*
X29764196Y-34097814D01*
X29831256Y-34118100D01*
X29883967Y-34148087D01*
X29887740Y-34151413D01*
X29923036Y-34179758D01*
X29937879Y-34178328D01*
X29939280Y-34168333D01*
X29920518Y-34112120D01*
X29870271Y-34063156D01*
X29797604Y-34025937D01*
X29711579Y-34004960D01*
X29621259Y-34004724D01*
X29612201Y-34006036D01*
X29559163Y-34009967D01*
X29533809Y-34001956D01*
X29532880Y-33998681D01*
X29550706Y-33972510D01*
X29594767Y-33947319D01*
X29650936Y-33928847D01*
X29705087Y-33922833D01*
X29716795Y-33923970D01*
X29763732Y-33925567D01*
X29773829Y-33912774D01*
X29746282Y-33889993D01*
X29724964Y-33879261D01*
X29637458Y-33855682D01*
X29551496Y-33860450D01*
X29480109Y-33892092D01*
X29461144Y-33909064D01*
X29425260Y-33941551D01*
X29406361Y-33941375D01*
X29403104Y-33934464D01*
X29383733Y-33875118D01*
X29369549Y-33845438D01*
X29355390Y-33835790D01*
X29350000Y-33835359D01*
X29325710Y-33851803D01*
X29325710Y-33851803D01*
G37*
X29325710Y-33851803D02*
X29318883Y-33865839D01*
X29303803Y-33914139D01*
X29299918Y-33926593D01*
X29287663Y-33941305D01*
X29263040Y-33927997D01*
X29239881Y-33906273D01*
X29183388Y-33871598D01*
X29110468Y-33854598D01*
X29036229Y-33856080D01*
X28975778Y-33876851D01*
X28958388Y-33891239D01*
X28940984Y-33914355D01*
X28949588Y-33925141D01*
X28990855Y-33929287D01*
X29003518Y-33929816D01*
X29074736Y-33939832D01*
X29131839Y-33960899D01*
X29163822Y-33988281D01*
X29167120Y-34000249D01*
X29149923Y-34012340D01*
X29109605Y-34008836D01*
X29031548Y-34004095D01*
X28948478Y-34018678D01*
X28870282Y-34048190D01*
X28806846Y-34088232D01*
X28768057Y-34134407D01*
X28760720Y-34164022D01*
X28763378Y-34187585D01*
X28777457Y-34183127D01*
X28802172Y-34159668D01*
X28872274Y-34109646D01*
X28949009Y-34086705D01*
X28990025Y-34088085D01*
X29034915Y-34095606D01*
X29055360Y-34098203D01*
X29049758Y-34108773D01*
X29016335Y-34135150D01*
X28961980Y-34171993D01*
X28951653Y-34178597D01*
X28855943Y-34254462D01*
X28785806Y-34341468D01*
X28746706Y-34431769D01*
X28740400Y-34481855D01*
X28748342Y-34519503D01*
X28771303Y-34520791D01*
X28807988Y-34486580D01*
X28857101Y-34417730D01*
X28871440Y-34394764D01*
X28910504Y-34333292D01*
X28941314Y-34289440D01*
X28958248Y-34271096D01*
X28959493Y-34271199D01*
X28977609Y-34264496D01*
X29006254Y-34240066D01*
X29046170Y-34209194D01*
X29075891Y-34201945D01*
X29085840Y-34217316D01*
X29072393Y-34239320D01*
X29037707Y-34279073D01*
X29004117Y-34313313D01*
X28928485Y-34411640D01*
X28891724Y-34520189D01*
X28893187Y-34630128D01*
X28907937Y-34687497D01*
X28925109Y-34706765D01*
X28942662Y-34686987D01*
X28952153Y-34657488D01*
X28969125Y-34622635D01*
X28987649Y-34619786D01*
X29000816Y-34616416D01*
X28999569Y-34578883D01*
X28996292Y-34559657D01*
X28991505Y-34506533D01*
X29002160Y-34485716D01*
X29003640Y-34485600D01*
X29021820Y-34468901D01*
X29024880Y-34451132D01*
X29034104Y-34418126D01*
X29057025Y-34373839D01*
X29086519Y-34328604D01*
X29115460Y-34292752D01*
X29136725Y-34276615D01*
X29142704Y-34280269D01*
X29161621Y-34294096D01*
X29168856Y-34291487D01*
X29186302Y-34294826D01*
X29187440Y-34301520D01*
X29174088Y-34322228D01*
X29169108Y-34323040D01*
X29150456Y-34340126D01*
X29130413Y-34381497D01*
X29129525Y-34384000D01*
X29119077Y-34429493D01*
X29128006Y-34444960D01*
X29131858Y-34459350D01*
X29115211Y-34494548D01*
X29111709Y-34500054D01*
X29092083Y-34535262D01*
X29099070Y-34540426D01*
X29104044Y-34537663D01*
X29122506Y-34532505D01*
X29122908Y-34556258D01*
X29118592Y-34575225D01*
X29112813Y-34624968D01*
X29115586Y-34680167D01*
X29124828Y-34728273D01*
X29138454Y-34756733D01*
X29149029Y-34758542D01*
X29162373Y-34767538D01*
X29168867Y-34804440D01*
X29170614Y-34861520D01*
X29188865Y-34800560D01*
X29198828Y-34746717D01*
X29196820Y-34706908D01*
X29202227Y-34668177D01*
X29236246Y-34641757D01*
X29268720Y-34636768D01*
X29279358Y-34642258D01*
X29287247Y-34661076D01*
X29292772Y-34698251D01*
X29296316Y-34758813D01*
X29298264Y-34847792D01*
X29298998Y-34970217D01*
X29299036Y-35034255D01*
X29297918Y-35256121D01*
X29294584Y-35440796D01*
X29288767Y-35591682D01*
X29280200Y-35712179D01*
X29268616Y-35805691D01*
X29253745Y-35875618D01*
X29235322Y-35925362D01*
X29227882Y-35938800D01*
X29184126Y-36009600D01*
X29513386Y-36009600D01*
X29472448Y-35929353D01*
X29457218Y-35894184D01*
X29444535Y-35850950D01*
X29434003Y-35795236D01*
X29425225Y-35722629D01*
X29417804Y-35628714D01*
X29411344Y-35509077D01*
X29405448Y-35359302D01*
X29399720Y-35174976D01*
X29397512Y-35095200D01*
X29394032Y-34958424D01*
X29392296Y-34856293D01*
X29392713Y-34782835D01*
X29395693Y-34732075D01*
X29401645Y-34698041D01*
X29410978Y-34674759D01*
X29424102Y-34656258D01*
X29427894Y-34651827D01*
X29468978Y-34604694D01*
X29491709Y-34647167D01*
X29505861Y-34685959D01*
X29504970Y-34704961D01*
X29502913Y-34733265D01*
X29510254Y-34782636D01*
X29512111Y-34790902D01*
X29523336Y-34828696D01*
X29529785Y-34827847D01*
X29530801Y-34817493D01*
X29542307Y-34778868D01*
X29557134Y-34765382D01*
X29572134Y-34740685D01*
X29580950Y-34683655D01*
X29582534Y-34643735D01*
X29586443Y-34577975D01*
X29595855Y-34544763D01*
X29604000Y-34542660D01*
X29608012Y-34536723D01*
X29592150Y-34506205D01*
X29586232Y-34496909D01*
X29563676Y-34459067D01*
X29564721Y-34447077D01*
X29580253Y-34450992D01*
X29597641Y-34453317D01*
X29594645Y-34434790D01*
X29572621Y-34392559D01*
X29542763Y-34328572D01*
X29533549Y-34282916D01*
X29546158Y-34262532D01*
X29550437Y-34262080D01*
X29573764Y-34278233D01*
X29606345Y-34318151D01*
X29639728Y-34369016D01*
X29665460Y-34418012D01*
X29675120Y-34451132D01*
X29685411Y-34480633D01*
X29696361Y-34485600D01*
X29708211Y-34503655D01*
X29704658Y-34554420D01*
X29703709Y-34559657D01*
X29698047Y-34608501D01*
X29706662Y-34622216D01*
X29712352Y-34619786D01*
X29733580Y-34625507D01*
X29747848Y-34657488D01*
X29766316Y-34700401D01*
X29785670Y-34704212D01*
X29799000Y-34669478D01*
X29800692Y-34653240D01*
X29800021Y-34530606D01*
X29777303Y-34433208D01*
X29728721Y-34349959D01*
X29676935Y-34293838D01*
X29638155Y-34253417D01*
X29616091Y-34223533D01*
X29614160Y-34217638D01*
X29627059Y-34201163D01*
X29656568Y-34207725D01*
X29688907Y-34233381D01*
X29694656Y-34240671D01*
X29721060Y-34268078D01*
X29736029Y-34272271D01*
X29751888Y-34284410D01*
X29782177Y-34323754D01*
X29820908Y-34382372D01*
X29828848Y-34395232D01*
X29881756Y-34474142D01*
X29921341Y-34516131D01*
X29947133Y-34520928D01*
X29958663Y-34488261D01*
X29959266Y-34470360D01*
X29939597Y-34382715D01*
X29885161Y-34295725D01*
X29801280Y-34216711D01*
X29750036Y-34182526D01*
X29694311Y-34146270D01*
X29659420Y-34117008D01*
X29652639Y-34100883D01*
X29653018Y-34100621D01*
X29699284Y-34090797D01*
X29764196Y-34097814D01*
X29831256Y-34118100D01*
X29883967Y-34148087D01*
X29887740Y-34151413D01*
X29923036Y-34179758D01*
X29937879Y-34178328D01*
X29939280Y-34168333D01*
X29920518Y-34112120D01*
X29870271Y-34063156D01*
X29797604Y-34025937D01*
X29711579Y-34004960D01*
X29621259Y-34004724D01*
X29612201Y-34006036D01*
X29559163Y-34009967D01*
X29533809Y-34001956D01*
X29532880Y-33998681D01*
X29550706Y-33972510D01*
X29594767Y-33947319D01*
X29650936Y-33928847D01*
X29705087Y-33922833D01*
X29716795Y-33923970D01*
X29763732Y-33925567D01*
X29773829Y-33912774D01*
X29746282Y-33889993D01*
X29724964Y-33879261D01*
X29637458Y-33855682D01*
X29551496Y-33860450D01*
X29480109Y-33892092D01*
X29461144Y-33909064D01*
X29425260Y-33941551D01*
X29406361Y-33941375D01*
X29403104Y-33934464D01*
X29383733Y-33875118D01*
X29369549Y-33845438D01*
X29355390Y-33835790D01*
X29350000Y-33835359D01*
X29325710Y-33851803D01*
D13*
X36800000Y-29150000D02*
X35800000Y-29150000D01*
X35800000Y-27450000D02*
X36800000Y-27450000D01*
X43300000Y-32200000D02*
X42300000Y-32200000D01*
X42300000Y-30500000D02*
X43300000Y-30500000D01*
M02*
