G04 #@! TF.FileFunction,Legend,Top*
%FSLAX46Y46*%
G04 Gerber Fmt 4.6, Leading zero omitted, Abs format (unit mm)*
G04 Created by KiCad (PCBNEW 4.0.7) date Monday, December 25, 2017 'AMt' 07:55:09 AM*
%MOMM*%
%LPD*%
G01*
G04 APERTURE LIST*
%ADD10C,0.100000*%
%ADD11C,0.200000*%
%ADD12C,0.120000*%
%ADD13C,0.150000*%
G04 APERTURE END LIST*
D10*
D11*
X21561905Y-67666667D02*
X20761905Y-67666667D01*
X20761905Y-67361905D01*
X20800000Y-67285714D01*
X20838095Y-67247619D01*
X20914286Y-67209524D01*
X21028571Y-67209524D01*
X21104762Y-67247619D01*
X21142857Y-67285714D01*
X21180952Y-67361905D01*
X21180952Y-67666667D01*
X20761905Y-66942857D02*
X21561905Y-66752381D01*
X20990476Y-66600000D01*
X21561905Y-66447619D01*
X20761905Y-66257143D01*
X21561905Y-65495238D02*
X21180952Y-65761905D01*
X21561905Y-65952381D02*
X20761905Y-65952381D01*
X20761905Y-65647619D01*
X20800000Y-65571428D01*
X20838095Y-65533333D01*
X20914286Y-65495238D01*
X21028571Y-65495238D01*
X21104762Y-65533333D01*
X21142857Y-65571428D01*
X21180952Y-65647619D01*
X21180952Y-65952381D01*
D12*
X25942000Y-62033000D02*
X24942000Y-62033000D01*
X24942000Y-63733000D02*
X25942000Y-63733000D01*
X37975000Y-63375000D02*
X37975000Y-62375000D01*
X36275000Y-62375000D02*
X36275000Y-63375000D01*
X40825000Y-51025000D02*
X39825000Y-51025000D01*
X39825000Y-52725000D02*
X40825000Y-52725000D01*
X40775000Y-53150000D02*
X39775000Y-53150000D01*
X39775000Y-54850000D02*
X40775000Y-54850000D01*
X23580000Y-33390000D02*
X20920000Y-33390000D01*
X23580000Y-61390000D02*
X23580000Y-33390000D01*
X20920000Y-61390000D02*
X20920000Y-33390000D01*
X23580000Y-61390000D02*
X20920000Y-61390000D01*
X23580000Y-62660000D02*
X23580000Y-63990000D01*
X23580000Y-63990000D02*
X22250000Y-63990000D01*
X24634000Y-64078000D02*
X25834000Y-64078000D01*
X25834000Y-65838000D02*
X24634000Y-65838000D01*
X37050000Y-59030000D02*
X35850000Y-59030000D01*
X35850000Y-57270000D02*
X37050000Y-57270000D01*
X37050000Y-56980000D02*
X35850000Y-56980000D01*
X35850000Y-55220000D02*
X37050000Y-55220000D01*
X35850000Y-59270000D02*
X37050000Y-59270000D01*
X37050000Y-61030000D02*
X35850000Y-61030000D01*
D13*
X30543750Y-54231250D02*
X30543750Y-53706250D01*
X37793750Y-46981250D02*
X37793750Y-47506250D01*
X30543750Y-46981250D02*
X30543750Y-47506250D01*
X37793750Y-54231250D02*
X37268750Y-54231250D01*
X37793750Y-46981250D02*
X37268750Y-46981250D01*
X30543750Y-46981250D02*
X31068750Y-46981250D01*
X30543750Y-54231250D02*
X31068750Y-54231250D01*
D12*
X43670000Y-56370000D02*
X46330000Y-56370000D01*
X43670000Y-35990000D02*
X43670000Y-56370000D01*
X46330000Y-35990000D02*
X46330000Y-56370000D01*
X43670000Y-35990000D02*
X46330000Y-35990000D01*
X43670000Y-34720000D02*
X43670000Y-33390000D01*
X43670000Y-33390000D02*
X45000000Y-33390000D01*
X43055000Y-36975000D02*
X43055000Y-38175000D01*
X41295000Y-38175000D02*
X41295000Y-36975000D01*
X25670000Y-42945000D02*
X25670000Y-41745000D01*
X27430000Y-41745000D02*
X27430000Y-42945000D01*
X25670000Y-37100000D02*
X25670000Y-35900000D01*
X27430000Y-35900000D02*
X27430000Y-37100000D01*
D11*
X28425000Y-45330000D02*
X28425000Y-34330000D01*
X40425000Y-45330000D02*
X28425000Y-45330000D01*
X40425000Y-34330000D02*
X40425000Y-45330000D01*
X28425000Y-34330000D02*
X40425000Y-34330000D01*
D12*
X25430000Y-53430000D02*
X27430000Y-53430000D01*
X27430000Y-50470000D02*
X25430000Y-50470000D01*
X29960000Y-62020000D02*
X28960000Y-62020000D01*
X28960000Y-63720000D02*
X29960000Y-63720000D01*
X32810000Y-64510000D02*
X34610000Y-64510000D01*
X34610000Y-61290000D02*
X31660000Y-61290000D01*
X30043000Y-61658000D02*
X30043000Y-60398000D01*
X30043000Y-54838000D02*
X30043000Y-56098000D01*
X26283000Y-61658000D02*
X30043000Y-61658000D01*
X24033000Y-54838000D02*
X30043000Y-54838000D01*
D11*
X27100000Y-24355000D02*
X27100000Y-28855000D01*
X42600000Y-24355000D02*
X27100000Y-24355000D01*
X42600000Y-24355000D02*
X42600000Y-29855000D01*
X31100000Y-29855000D02*
X42600000Y-29855000D01*
D13*
X26418714Y-53200381D02*
X26418714Y-54009905D01*
X26466333Y-54105143D01*
X26513952Y-54152762D01*
X26609190Y-54200381D01*
X26799667Y-54200381D01*
X26894905Y-54152762D01*
X26942524Y-54105143D01*
X26990143Y-54009905D01*
X26990143Y-53200381D01*
X27418714Y-53295619D02*
X27466333Y-53248000D01*
X27561571Y-53200381D01*
X27799667Y-53200381D01*
X27894905Y-53248000D01*
X27942524Y-53295619D01*
X27990143Y-53390857D01*
X27990143Y-53486095D01*
X27942524Y-53628952D01*
X27371095Y-54200381D01*
X27990143Y-54200381D01*
X28609190Y-53200381D02*
X28704429Y-53200381D01*
X28799667Y-53248000D01*
X28847286Y-53295619D01*
X28894905Y-53390857D01*
X28942524Y-53581333D01*
X28942524Y-53819429D01*
X28894905Y-54009905D01*
X28847286Y-54105143D01*
X28799667Y-54152762D01*
X28704429Y-54200381D01*
X28609190Y-54200381D01*
X28513952Y-54152762D01*
X28466333Y-54105143D01*
X28418714Y-54009905D01*
X28371095Y-53819429D01*
X28371095Y-53581333D01*
X28418714Y-53390857D01*
X28466333Y-53295619D01*
X28513952Y-53248000D01*
X28609190Y-53200381D01*
X29894905Y-54200381D02*
X29323476Y-54200381D01*
X29609190Y-54200381D02*
X29609190Y-53200381D01*
X29513952Y-53343238D01*
X29418714Y-53438476D01*
X29323476Y-53486095D01*
X35708095Y-28557381D02*
X35708095Y-29366905D01*
X35755714Y-29462143D01*
X35803333Y-29509762D01*
X35898571Y-29557381D01*
X36089048Y-29557381D01*
X36184286Y-29509762D01*
X36231905Y-29462143D01*
X36279524Y-29366905D01*
X36279524Y-28557381D01*
X36708095Y-28652619D02*
X36755714Y-28605000D01*
X36850952Y-28557381D01*
X37089048Y-28557381D01*
X37184286Y-28605000D01*
X37231905Y-28652619D01*
X37279524Y-28747857D01*
X37279524Y-28843095D01*
X37231905Y-28985952D01*
X36660476Y-29557381D01*
X37279524Y-29557381D01*
M02*
