G04 #@! TF.FileFunction,Legend,Top*
%FSLAX46Y46*%
G04 Gerber Fmt 4.6, Leading zero omitted, Abs format (unit mm)*
G04 Created by KiCad (PCBNEW 4.0.2-stable) date Thursday, November 23, 2017 'PMt' 08:55:17 PM*
%MOMM*%
G01*
G04 APERTURE LIST*
%ADD10C,0.100000*%
%ADD11C,0.120000*%
%ADD12C,0.127000*%
%ADD13C,0.150000*%
G04 APERTURE END LIST*
D10*
D11*
X115810000Y-99890000D02*
X116810000Y-99890000D01*
X116810000Y-98190000D02*
X115810000Y-98190000D01*
X115810000Y-102140000D02*
X116810000Y-102140000D01*
X116810000Y-100440000D02*
X115810000Y-100440000D01*
X131360000Y-99900000D02*
X130360000Y-99900000D01*
X130360000Y-101600000D02*
X131360000Y-101600000D01*
D10*
X114075000Y-90600000D02*
X120675000Y-90600000D01*
X114050000Y-93200000D02*
X114075000Y-90600000D01*
X120675000Y-93200000D02*
X114050000Y-93200000D01*
X120650000Y-90600000D02*
X120675000Y-93200000D01*
X114125000Y-90600000D02*
X120650000Y-90600000D01*
D12*
X135500000Y-92770000D02*
X135281560Y-92749680D01*
X135281560Y-92749680D02*
X135065660Y-92691260D01*
X135065660Y-92691260D02*
X134865000Y-92599820D01*
X134865000Y-92599820D02*
X134684660Y-92472820D01*
X134684660Y-92472820D02*
X134527180Y-92315340D01*
X134527180Y-92315340D02*
X134400180Y-92135000D01*
X134400180Y-92135000D02*
X134308740Y-91934340D01*
X134308740Y-91934340D02*
X134250320Y-91718440D01*
X134250320Y-91718440D02*
X134230000Y-91500000D01*
X134230000Y-91500000D02*
X134250320Y-91281560D01*
X134250320Y-91281560D02*
X134308740Y-91065660D01*
X134308740Y-91065660D02*
X134400180Y-90865000D01*
X134400180Y-90865000D02*
X134527180Y-90684660D01*
X134527180Y-90684660D02*
X134684660Y-90527180D01*
X134684660Y-90527180D02*
X134865000Y-90400180D01*
X134865000Y-90400180D02*
X135065660Y-90308740D01*
X135065660Y-90308740D02*
X135281560Y-90250320D01*
X135281560Y-90250320D02*
X135500000Y-90230000D01*
X135500000Y-90230000D02*
X135718440Y-90250320D01*
X135718440Y-90250320D02*
X135934340Y-90308740D01*
X135934340Y-90308740D02*
X136135000Y-90400180D01*
X136135000Y-90400180D02*
X136315340Y-90527180D01*
X136315340Y-90527180D02*
X136472820Y-90684660D01*
X136472820Y-90684660D02*
X136599820Y-90865000D01*
X136599820Y-90865000D02*
X136691260Y-91065660D01*
X136691260Y-91065660D02*
X136749680Y-91281560D01*
X136749680Y-91281560D02*
X136770000Y-91500000D01*
X136770000Y-91500000D02*
X136749680Y-91718440D01*
X136749680Y-91718440D02*
X136691260Y-91934340D01*
X136691260Y-91934340D02*
X136599820Y-92135000D01*
X136599820Y-92135000D02*
X136472820Y-92315340D01*
X136472820Y-92315340D02*
X136315340Y-92472820D01*
X136315340Y-92472820D02*
X136135000Y-92599820D01*
X136135000Y-92599820D02*
X135934340Y-92691260D01*
X135934340Y-92691260D02*
X135718440Y-92749680D01*
X135718440Y-92749680D02*
X135500000Y-92770000D01*
X135500000Y-92770000D02*
X135281560Y-92749680D01*
X135281560Y-92749680D02*
X135065660Y-92691260D01*
X135065660Y-92691260D02*
X134865000Y-92599820D01*
X134865000Y-92599820D02*
X134684660Y-92472820D01*
X134684660Y-92472820D02*
X134527180Y-92315340D01*
X134527180Y-92315340D02*
X134400180Y-92135000D01*
X134400180Y-92135000D02*
X134308740Y-91934340D01*
X134308740Y-91934340D02*
X134250320Y-91718440D01*
X134250320Y-91718440D02*
X134230000Y-91500000D01*
X134230000Y-91500000D02*
X134250320Y-91281560D01*
X134250320Y-91281560D02*
X134308740Y-91065660D01*
X134308740Y-91065660D02*
X134400180Y-90865000D01*
X134400180Y-90865000D02*
X134527180Y-90684660D01*
X134527180Y-90684660D02*
X134684660Y-90527180D01*
X134684660Y-90527180D02*
X134865000Y-90400180D01*
X134865000Y-90400180D02*
X135065660Y-90308740D01*
X135065660Y-90308740D02*
X135281560Y-90250320D01*
X135281560Y-90250320D02*
X135500000Y-90230000D01*
X135500000Y-90230000D02*
X135718440Y-90250320D01*
X135718440Y-90250320D02*
X135934340Y-90308740D01*
X135934340Y-90308740D02*
X136135000Y-90400180D01*
X136135000Y-90400180D02*
X136315340Y-90527180D01*
X136315340Y-90527180D02*
X136472820Y-90684660D01*
X136472820Y-90684660D02*
X136599820Y-90865000D01*
X136599820Y-90865000D02*
X136691260Y-91065660D01*
X136691260Y-91065660D02*
X136749680Y-91281560D01*
X136749680Y-91281560D02*
X136770000Y-91500000D01*
X136770000Y-91500000D02*
X136749680Y-91718440D01*
X136749680Y-91718440D02*
X136691260Y-91934340D01*
X136691260Y-91934340D02*
X136599820Y-92135000D01*
X136599820Y-92135000D02*
X136472820Y-92315340D01*
X136472820Y-92315340D02*
X136315340Y-92472820D01*
X136315340Y-92472820D02*
X136135000Y-92599820D01*
X136135000Y-92599820D02*
X135934340Y-92691260D01*
X135934340Y-92691260D02*
X135718440Y-92749680D01*
X135718440Y-92749680D02*
X135500000Y-92770000D01*
X135500000Y-92770000D02*
X135281560Y-92749680D01*
X135281560Y-92749680D02*
X135065660Y-92691260D01*
X135065660Y-92691260D02*
X134865000Y-92599820D01*
X134865000Y-92599820D02*
X134684660Y-92472820D01*
X134684660Y-92472820D02*
X134527180Y-92315340D01*
X134527180Y-92315340D02*
X134400180Y-92135000D01*
X134400180Y-92135000D02*
X134308740Y-91934340D01*
X134308740Y-91934340D02*
X134250320Y-91718440D01*
X134250320Y-91718440D02*
X134230000Y-91500000D01*
X134230000Y-91500000D02*
X134250320Y-91281560D01*
X134250320Y-91281560D02*
X134308740Y-91065660D01*
X134308740Y-91065660D02*
X134400180Y-90865000D01*
X134400180Y-90865000D02*
X134527180Y-90684660D01*
X134527180Y-90684660D02*
X134684660Y-90527180D01*
X134684660Y-90527180D02*
X134865000Y-90400180D01*
X134865000Y-90400180D02*
X135065660Y-90308740D01*
X135065660Y-90308740D02*
X135281560Y-90250320D01*
X135281560Y-90250320D02*
X135500000Y-90230000D01*
X135500000Y-90230000D02*
X135718440Y-90250320D01*
X135718440Y-90250320D02*
X135934340Y-90308740D01*
X135934340Y-90308740D02*
X136135000Y-90400180D01*
X136135000Y-90400180D02*
X136315340Y-90527180D01*
X136315340Y-90527180D02*
X136472820Y-90684660D01*
X136472820Y-90684660D02*
X136599820Y-90865000D01*
X136599820Y-90865000D02*
X136691260Y-91065660D01*
X136691260Y-91065660D02*
X136749680Y-91281560D01*
X136749680Y-91281560D02*
X136770000Y-91500000D01*
X136770000Y-91500000D02*
X136749680Y-91718440D01*
X136749680Y-91718440D02*
X136691260Y-91934340D01*
X136691260Y-91934340D02*
X136599820Y-92135000D01*
X136599820Y-92135000D02*
X136472820Y-92315340D01*
X136472820Y-92315340D02*
X136315340Y-92472820D01*
X136315340Y-92472820D02*
X136135000Y-92599820D01*
X136135000Y-92599820D02*
X135934340Y-92691260D01*
X135934340Y-92691260D02*
X135718440Y-92749680D01*
X135718440Y-92749680D02*
X135500000Y-92770000D01*
X135500000Y-92770000D02*
X135281560Y-92749680D01*
X135281560Y-92749680D02*
X135065660Y-92691260D01*
X135065660Y-92691260D02*
X134865000Y-92599820D01*
X134865000Y-92599820D02*
X134684660Y-92472820D01*
X134684660Y-92472820D02*
X134527180Y-92315340D01*
X134527180Y-92315340D02*
X134400180Y-92135000D01*
X134400180Y-92135000D02*
X134308740Y-91934340D01*
X134308740Y-91934340D02*
X134250320Y-91718440D01*
X134250320Y-91718440D02*
X134230000Y-91500000D01*
X134230000Y-91500000D02*
X134250320Y-91281560D01*
X134250320Y-91281560D02*
X134308740Y-91065660D01*
X134308740Y-91065660D02*
X134400180Y-90865000D01*
X134400180Y-90865000D02*
X134527180Y-90684660D01*
X134527180Y-90684660D02*
X134684660Y-90527180D01*
X134684660Y-90527180D02*
X134865000Y-90400180D01*
X134865000Y-90400180D02*
X135065660Y-90308740D01*
X135065660Y-90308740D02*
X135281560Y-90250320D01*
X135281560Y-90250320D02*
X135500000Y-90230000D01*
X135500000Y-90230000D02*
X135718440Y-90250320D01*
X135718440Y-90250320D02*
X135934340Y-90308740D01*
X135934340Y-90308740D02*
X136135000Y-90400180D01*
X136135000Y-90400180D02*
X136315340Y-90527180D01*
X136315340Y-90527180D02*
X136472820Y-90684660D01*
X136472820Y-90684660D02*
X136599820Y-90865000D01*
X136599820Y-90865000D02*
X136691260Y-91065660D01*
X136691260Y-91065660D02*
X136749680Y-91281560D01*
X136749680Y-91281560D02*
X136770000Y-91500000D01*
X136770000Y-91500000D02*
X136749680Y-91718440D01*
X136749680Y-91718440D02*
X136691260Y-91934340D01*
X136691260Y-91934340D02*
X136599820Y-92135000D01*
X136599820Y-92135000D02*
X136472820Y-92315340D01*
X136472820Y-92315340D02*
X136315340Y-92472820D01*
X136315340Y-92472820D02*
X136135000Y-92599820D01*
X136135000Y-92599820D02*
X135934340Y-92691260D01*
X135934340Y-92691260D02*
X135718440Y-92749680D01*
X135718440Y-92749680D02*
X135500000Y-92770000D01*
D11*
X120220000Y-94320000D02*
X120220000Y-95520000D01*
X118460000Y-95520000D02*
X118460000Y-94320000D01*
X116220000Y-106510000D02*
X116220000Y-107710000D01*
X114460000Y-107710000D02*
X114460000Y-106510000D01*
X127490000Y-108760000D02*
X126290000Y-108760000D01*
X126290000Y-107000000D02*
X127490000Y-107000000D01*
D10*
X121820000Y-90610000D02*
X121840000Y-96360000D01*
X130990000Y-96380000D02*
X121840000Y-96360000D01*
X121840000Y-96360000D02*
X130990000Y-96400000D01*
X131030000Y-90610000D02*
X131010000Y-96380000D01*
X121820000Y-90610000D02*
X131050000Y-90610000D01*
X129100000Y-106600000D02*
X131700000Y-106600000D01*
X129100000Y-106600000D02*
X129100000Y-101800000D01*
X129100000Y-101800000D02*
X131700000Y-101800000D01*
X131700000Y-106600000D02*
X131700000Y-101800000D01*
X129100000Y-106600000D02*
X131700000Y-106600000D01*
X129100000Y-106600000D02*
X129100000Y-101800000D01*
X129100000Y-101800000D02*
X129100000Y-106600000D01*
D13*
X116223334Y-97727143D02*
X116175715Y-97774762D01*
X116032858Y-97822381D01*
X115937620Y-97822381D01*
X115794762Y-97774762D01*
X115699524Y-97679524D01*
X115651905Y-97584286D01*
X115604286Y-97393810D01*
X115604286Y-97250952D01*
X115651905Y-97060476D01*
X115699524Y-96965238D01*
X115794762Y-96870000D01*
X115937620Y-96822381D01*
X116032858Y-96822381D01*
X116175715Y-96870000D01*
X116223334Y-96917619D01*
X117175715Y-97822381D02*
X116604286Y-97822381D01*
X116890000Y-97822381D02*
X116890000Y-96822381D01*
X116794762Y-96965238D01*
X116699524Y-97060476D01*
X116604286Y-97108095D01*
X116143334Y-103147143D02*
X116095715Y-103194762D01*
X115952858Y-103242381D01*
X115857620Y-103242381D01*
X115714762Y-103194762D01*
X115619524Y-103099524D01*
X115571905Y-103004286D01*
X115524286Y-102813810D01*
X115524286Y-102670952D01*
X115571905Y-102480476D01*
X115619524Y-102385238D01*
X115714762Y-102290000D01*
X115857620Y-102242381D01*
X115952858Y-102242381D01*
X116095715Y-102290000D01*
X116143334Y-102337619D01*
X116524286Y-102337619D02*
X116571905Y-102290000D01*
X116667143Y-102242381D01*
X116905239Y-102242381D01*
X117000477Y-102290000D01*
X117048096Y-102337619D01*
X117095715Y-102432857D01*
X117095715Y-102528095D01*
X117048096Y-102670952D01*
X116476667Y-103242381D01*
X117095715Y-103242381D01*
X130693334Y-99607143D02*
X130645715Y-99654762D01*
X130502858Y-99702381D01*
X130407620Y-99702381D01*
X130264762Y-99654762D01*
X130169524Y-99559524D01*
X130121905Y-99464286D01*
X130074286Y-99273810D01*
X130074286Y-99130952D01*
X130121905Y-98940476D01*
X130169524Y-98845238D01*
X130264762Y-98750000D01*
X130407620Y-98702381D01*
X130502858Y-98702381D01*
X130645715Y-98750000D01*
X130693334Y-98797619D01*
X131598096Y-98702381D02*
X131121905Y-98702381D01*
X131074286Y-99178571D01*
X131121905Y-99130952D01*
X131217143Y-99083333D01*
X131455239Y-99083333D01*
X131550477Y-99130952D01*
X131598096Y-99178571D01*
X131645715Y-99273810D01*
X131645715Y-99511905D01*
X131598096Y-99607143D01*
X131550477Y-99654762D01*
X131455239Y-99702381D01*
X131217143Y-99702381D01*
X131121905Y-99654762D01*
X131074286Y-99607143D01*
D12*
X134629143Y-93441943D02*
X134358210Y-93441943D01*
X134358210Y-93867695D02*
X134358210Y-93054895D01*
X134745257Y-93054895D01*
X135054896Y-93867695D02*
X135054896Y-93054895D01*
X135441944Y-93867695D02*
X135441944Y-93054895D01*
X135635468Y-93054895D01*
X135751582Y-93093600D01*
X135828991Y-93171010D01*
X135867696Y-93248419D01*
X135906401Y-93403238D01*
X135906401Y-93519352D01*
X135867696Y-93674171D01*
X135828991Y-93751581D01*
X135751582Y-93828990D01*
X135635468Y-93867695D01*
X135441944Y-93867695D01*
X136216039Y-93132305D02*
X136254744Y-93093600D01*
X136332153Y-93054895D01*
X136525677Y-93054895D01*
X136603087Y-93093600D01*
X136641791Y-93132305D01*
X136680496Y-93209714D01*
X136680496Y-93287124D01*
X136641791Y-93403238D01*
X136177334Y-93867695D01*
X136680496Y-93867695D01*
D13*
X118142381Y-95086666D02*
X117666190Y-95420000D01*
X118142381Y-95658095D02*
X117142381Y-95658095D01*
X117142381Y-95277142D01*
X117190000Y-95181904D01*
X117237619Y-95134285D01*
X117332857Y-95086666D01*
X117475714Y-95086666D01*
X117570952Y-95134285D01*
X117618571Y-95181904D01*
X117666190Y-95277142D01*
X117666190Y-95658095D01*
X118142381Y-94134285D02*
X118142381Y-94705714D01*
X118142381Y-94420000D02*
X117142381Y-94420000D01*
X117285238Y-94515238D01*
X117380476Y-94610476D01*
X117428095Y-94705714D01*
X114142381Y-107276666D02*
X113666190Y-107610000D01*
X114142381Y-107848095D02*
X113142381Y-107848095D01*
X113142381Y-107467142D01*
X113190000Y-107371904D01*
X113237619Y-107324285D01*
X113332857Y-107276666D01*
X113475714Y-107276666D01*
X113570952Y-107324285D01*
X113618571Y-107371904D01*
X113666190Y-107467142D01*
X113666190Y-107848095D01*
X113237619Y-106895714D02*
X113190000Y-106848095D01*
X113142381Y-106752857D01*
X113142381Y-106514761D01*
X113190000Y-106419523D01*
X113237619Y-106371904D01*
X113332857Y-106324285D01*
X113428095Y-106324285D01*
X113570952Y-106371904D01*
X114142381Y-106943333D01*
X114142381Y-106324285D01*
X126723334Y-106682381D02*
X126390000Y-106206190D01*
X126151905Y-106682381D02*
X126151905Y-105682381D01*
X126532858Y-105682381D01*
X126628096Y-105730000D01*
X126675715Y-105777619D01*
X126723334Y-105872857D01*
X126723334Y-106015714D01*
X126675715Y-106110952D01*
X126628096Y-106158571D01*
X126532858Y-106206190D01*
X126151905Y-106206190D01*
X127580477Y-106015714D02*
X127580477Y-106682381D01*
X127342381Y-105634762D02*
X127104286Y-106349048D01*
X127723334Y-106349048D01*
X126308095Y-98442381D02*
X126308095Y-99251905D01*
X126355714Y-99347143D01*
X126403333Y-99394762D01*
X126498571Y-99442381D01*
X126689048Y-99442381D01*
X126784286Y-99394762D01*
X126831905Y-99347143D01*
X126879524Y-99251905D01*
X126879524Y-98442381D01*
X127260476Y-98442381D02*
X127879524Y-98442381D01*
X127546190Y-98823333D01*
X127689048Y-98823333D01*
X127784286Y-98870952D01*
X127831905Y-98918571D01*
X127879524Y-99013810D01*
X127879524Y-99251905D01*
X127831905Y-99347143D01*
X127784286Y-99394762D01*
X127689048Y-99442381D01*
X127403333Y-99442381D01*
X127308095Y-99394762D01*
X127260476Y-99347143D01*
X128582381Y-102291905D02*
X129391905Y-102291905D01*
X129487143Y-102244286D01*
X129534762Y-102196667D01*
X129582381Y-102101429D01*
X129582381Y-101910952D01*
X129534762Y-101815714D01*
X129487143Y-101768095D01*
X129391905Y-101720476D01*
X128582381Y-101720476D01*
X128915714Y-100815714D02*
X129582381Y-100815714D01*
X128534762Y-101053810D02*
X129249048Y-101291905D01*
X129249048Y-100672857D01*
X132952381Y-103761905D02*
X133761905Y-103761905D01*
X133857143Y-103714286D01*
X133904762Y-103666667D01*
X133952381Y-103571429D01*
X133952381Y-103380952D01*
X133904762Y-103285714D01*
X133857143Y-103238095D01*
X133761905Y-103190476D01*
X132952381Y-103190476D01*
X133380952Y-102571429D02*
X133333333Y-102666667D01*
X133285714Y-102714286D01*
X133190476Y-102761905D01*
X133142857Y-102761905D01*
X133047619Y-102714286D01*
X133000000Y-102666667D01*
X132952381Y-102571429D01*
X132952381Y-102380952D01*
X133000000Y-102285714D01*
X133047619Y-102238095D01*
X133142857Y-102190476D01*
X133190476Y-102190476D01*
X133285714Y-102238095D01*
X133333333Y-102285714D01*
X133380952Y-102380952D01*
X133380952Y-102571429D01*
X133428571Y-102666667D01*
X133476190Y-102714286D01*
X133571429Y-102761905D01*
X133761905Y-102761905D01*
X133857143Y-102714286D01*
X133904762Y-102666667D01*
X133952381Y-102571429D01*
X133952381Y-102380952D01*
X133904762Y-102285714D01*
X133857143Y-102238095D01*
X133761905Y-102190476D01*
X133571429Y-102190476D01*
X133476190Y-102238095D01*
X133428571Y-102285714D01*
X133380952Y-102380952D01*
M02*
