M48
;DRILL file {KiCad 4.0.2-stable} date Saturday, November 25, 2017 'AMt' 08:54:27 AM
;FORMAT={-:-/ absolute / metric / decimal}
FMAT,2
METRIC,TZ
T1C0.300
T2C0.762
%
G90
G05
M71
T1
X27.3Y-27.75
X27.4Y-31.
X27.95Y-26.8
X29.45Y-34.45
X29.5Y-37.65
X29.55Y-29.15
X29.6Y-31.15
X31.4Y-36.25
X34.Y-31.
X34.35Y-32.85
X35.45Y-32.3
X36.6Y-37.425
X36.6Y-38.075
X36.9Y-25.
X36.95Y-35.95
X37.968Y-35.289
X38.7Y-30.283
X39.2Y-30.875
X39.241Y-29.922
X41.3Y-29.95
X41.35Y-25.
X41.7Y-34.75
X42.9Y-29.8
X43.25Y-34.
T2
X21.5Y-24.42
X21.5Y-26.96
X21.5Y-29.5
X21.5Y-32.04
X21.5Y-34.58
X21.5Y-37.12
X21.5Y-39.66
X46.5Y-24.35
X46.5Y-26.89
X46.5Y-29.43
X46.5Y-31.97
X46.5Y-34.51
X46.5Y-37.05
X46.5Y-39.59
T0
M30
