G04 #@! TF.FileFunction,Copper,L1,Top,Signal*
%FSLAX46Y46*%
G04 Gerber Fmt 4.6, Leading zero omitted, Abs format (unit mm)*
G04 Created by KiCad (PCBNEW 4.0.2-stable) date Thursday, November 23, 2017 'PMt' 08:45:23 PM*
%MOMM*%
G01*
G04 APERTURE LIST*
%ADD10C,0.100000*%
%ADD11R,1.000000X1.250000*%
%ADD12R,0.900000X1.000000*%
%ADD13R,1.500000X1.000000*%
%ADD14C,1.270000*%
%ADD15R,1.300000X0.700000*%
%ADD16R,0.700000X1.300000*%
%ADD17C,1.524000*%
%ADD18R,1.600000X1.400000*%
%ADD19R,1.350000X0.400000*%
%ADD20R,1.900000X0.400000*%
%ADD21C,0.600000*%
%ADD22C,0.250000*%
%ADD23C,0.254000*%
G04 APERTURE END LIST*
D10*
D11*
X117310000Y-99040000D03*
X115310000Y-99040000D03*
X117310000Y-101290000D03*
X115310000Y-101290000D03*
X129860000Y-100750000D03*
X131860000Y-100750000D03*
D12*
X117250000Y-91600000D03*
D13*
X119000000Y-92000000D03*
X115500000Y-92000000D03*
D14*
X135500000Y-91500000D03*
D15*
X119340000Y-95870000D03*
X119340000Y-93970000D03*
X115340000Y-108060000D03*
X115340000Y-106160000D03*
D16*
X125940000Y-107880000D03*
X127840000Y-107880000D03*
D17*
X135920000Y-95380000D03*
X135920000Y-97920000D03*
X135920000Y-100460000D03*
X135920000Y-103000000D03*
X135920000Y-105540000D03*
X135920000Y-108080000D03*
X135920000Y-110620000D03*
D18*
X123400000Y-92000000D03*
X129000000Y-92000000D03*
X129000000Y-95000000D03*
X123400000Y-95000000D03*
D19*
X121200000Y-104860000D03*
X121200000Y-104210000D03*
X121200000Y-103560000D03*
X121200000Y-102910000D03*
X121200000Y-102260000D03*
X121200000Y-101610000D03*
X121200000Y-100960000D03*
X121200000Y-100310000D03*
X121200000Y-99660000D03*
X121200000Y-99010000D03*
X126950000Y-99010000D03*
X126950000Y-99660000D03*
X126950000Y-100310000D03*
X126950000Y-100960000D03*
X126950000Y-101610000D03*
X126950000Y-102260000D03*
X126950000Y-102910000D03*
X126950000Y-103560000D03*
X126950000Y-104210000D03*
X126950000Y-104860000D03*
D17*
X112080000Y-110620000D03*
X112080000Y-108080000D03*
X112080000Y-105540000D03*
X112080000Y-103000000D03*
X112080000Y-100460000D03*
X112080000Y-97920000D03*
X112080000Y-95380000D03*
D20*
X130400000Y-103000000D03*
X130400000Y-104200000D03*
X130400000Y-105400000D03*
D21*
X125703863Y-97942936D03*
X124130000Y-102210001D03*
X118675000Y-101280000D03*
X119290000Y-97380000D03*
X126470000Y-91990000D03*
X110660000Y-104930000D03*
X113450000Y-105340000D03*
X118649998Y-105580000D03*
X122240000Y-101570000D03*
X130200000Y-110940000D03*
X123950000Y-109360000D03*
X128820000Y-98140000D03*
X125620099Y-100585100D03*
X125701226Y-102826610D03*
X128568713Y-99957627D03*
X124841127Y-94900025D03*
X128125002Y-102220000D03*
X137600000Y-101920000D03*
X125405947Y-103631163D03*
X132240000Y-103280000D03*
X125233703Y-105376528D03*
X124140000Y-106090000D03*
D22*
X125403864Y-98242935D02*
X125703863Y-97942936D01*
X124130000Y-99516799D02*
X125403864Y-98242935D01*
X124130000Y-102210001D02*
X124130000Y-99516799D01*
X124429999Y-101910002D02*
X124130000Y-102210001D01*
X125675002Y-101910002D02*
X124429999Y-101910002D01*
X126025000Y-102260000D02*
X125675002Y-101910002D01*
X126950000Y-102260000D02*
X126025000Y-102260000D01*
X124130000Y-102210001D02*
X122174999Y-102210001D01*
X122174999Y-102210001D02*
X122125000Y-102260000D01*
X122125000Y-102260000D02*
X121200000Y-102260000D01*
X119340000Y-95870000D02*
X119340000Y-97330000D01*
X119340000Y-97330000D02*
X119290000Y-97380000D01*
X115340000Y-108060000D02*
X119460002Y-108060000D01*
X119460002Y-108060000D02*
X122200001Y-105320001D01*
X122200001Y-105320001D02*
X122200001Y-102335001D01*
X122200001Y-102335001D02*
X122125000Y-102260000D01*
X117310000Y-101290000D02*
X117310000Y-99040000D01*
X119655000Y-102260000D02*
X120275000Y-102260000D01*
X117310000Y-99915000D02*
X119655000Y-102260000D01*
X117310000Y-99040000D02*
X117310000Y-99915000D01*
X120275000Y-102260000D02*
X121200000Y-102260000D01*
X126470000Y-92000000D02*
X129000000Y-92000000D01*
X126470000Y-91990000D02*
X126470000Y-92000000D01*
X136974998Y-101619998D02*
X136974998Y-102687997D01*
X132342999Y-94292999D02*
X136441761Y-94292999D01*
X137007001Y-94858239D02*
X137007001Y-101587995D01*
X129000000Y-92000000D02*
X130050000Y-92000000D01*
X130050000Y-92000000D02*
X132342999Y-94292999D01*
X136974998Y-102687997D02*
X137007001Y-102720000D01*
X136441761Y-94292999D02*
X137007001Y-94858239D01*
X137007001Y-101587995D02*
X136974998Y-101619998D01*
X110992999Y-99938239D02*
X110992999Y-100650000D01*
X110992999Y-100650000D02*
X110992999Y-100981761D01*
X110660000Y-104930000D02*
X110660000Y-104505736D01*
X110660000Y-104505736D02*
X110992999Y-104172737D01*
X110992999Y-104172737D02*
X110992999Y-100650000D01*
X118649998Y-105580000D02*
X118349999Y-105280001D01*
X118349999Y-105280001D02*
X113509999Y-105280001D01*
X113509999Y-105280001D02*
X113450000Y-105340000D01*
X121200000Y-101610000D02*
X122200000Y-101610000D01*
X122200000Y-101610000D02*
X122240000Y-101570000D01*
X133611999Y-109167001D02*
X132744998Y-108300000D01*
X132744998Y-108300000D02*
X130990000Y-106545002D01*
X130200000Y-110940000D02*
X132744998Y-108395002D01*
X132744998Y-108395002D02*
X132744998Y-108300000D01*
X137007001Y-102478239D02*
X137007001Y-102720000D01*
X137007001Y-102720000D02*
X137007001Y-108601761D01*
X115500000Y-92000000D02*
X113851238Y-92000000D01*
X113851238Y-92000000D02*
X110992999Y-94858239D01*
X110992999Y-94858239D02*
X110992999Y-99938239D01*
X115310000Y-99040000D02*
X111891238Y-99040000D01*
X111891238Y-99040000D02*
X110992999Y-99938239D01*
X110992999Y-100981761D02*
X111558239Y-101547001D01*
X111558239Y-101547001D02*
X114302999Y-101547001D01*
X114560000Y-101290000D02*
X115310000Y-101290000D01*
X114302999Y-101547001D02*
X114560000Y-101290000D01*
X131675001Y-105860001D02*
X130990000Y-106545002D01*
X130990000Y-106545002D02*
X129655002Y-107880000D01*
X136441761Y-109167001D02*
X133611999Y-109167001D01*
X131860000Y-100750000D02*
X134601238Y-100750000D01*
X134601238Y-100750000D02*
X135398239Y-101547001D01*
X135398239Y-101547001D02*
X136075763Y-101547001D01*
X136075763Y-101547001D02*
X137007001Y-102478239D01*
X137007001Y-108601761D02*
X136441761Y-109167001D01*
X130400000Y-104200000D02*
X131150000Y-104200000D01*
X131150000Y-104200000D02*
X131675001Y-104725001D01*
X131675001Y-104725001D02*
X131675001Y-105860001D01*
X129655002Y-107880000D02*
X128440000Y-107880000D01*
X128440000Y-107880000D02*
X127840000Y-107880000D01*
X129000000Y-92000000D02*
X123400000Y-92000000D01*
X115500000Y-92000000D02*
X115500000Y-91250000D01*
X115500000Y-91250000D02*
X116750000Y-90000000D01*
X116750000Y-90000000D02*
X123000000Y-90000000D01*
X123400000Y-90400000D02*
X123400000Y-92000000D01*
X123000000Y-90000000D02*
X123400000Y-90400000D01*
X123950000Y-109360000D02*
X122690000Y-110620000D01*
X122690000Y-110620000D02*
X112080000Y-110620000D01*
X125620099Y-100585100D02*
X125620099Y-98879899D01*
X125620099Y-98879899D02*
X126014999Y-98484999D01*
X126014999Y-98484999D02*
X127720200Y-98484999D01*
X127720200Y-98484999D02*
X128065199Y-98140000D01*
X128065199Y-98140000D02*
X128820000Y-98140000D01*
X126950000Y-102910000D02*
X125784616Y-102910000D01*
X125784616Y-102910000D02*
X125701226Y-102826610D01*
X129860000Y-100750000D02*
X129860000Y-100625000D01*
X129860000Y-100625000D02*
X129110000Y-99875000D01*
X129110000Y-99875000D02*
X128651340Y-99875000D01*
X128651340Y-99875000D02*
X128568713Y-99957627D01*
X124941102Y-95000000D02*
X124841127Y-94900025D01*
X129000000Y-95000000D02*
X124941102Y-95000000D01*
X124741152Y-95000000D02*
X124841127Y-94900025D01*
X123400000Y-95000000D02*
X124741152Y-95000000D01*
X119000000Y-92000000D02*
X117650000Y-92000000D01*
X117650000Y-92000000D02*
X117250000Y-91600000D01*
X119000000Y-92000000D02*
X119000000Y-93630000D01*
X119000000Y-93630000D02*
X119340000Y-93970000D01*
X115340000Y-106160000D02*
X112700000Y-106160000D01*
X112700000Y-106160000D02*
X112080000Y-105540000D01*
X112080000Y-105540000D02*
X113410000Y-104210000D01*
X113410000Y-104210000D02*
X121200000Y-104210000D01*
X112080000Y-108080000D02*
X113157630Y-108080000D01*
X113157630Y-108080000D02*
X114402629Y-106835001D01*
X114402629Y-106835001D02*
X118299999Y-106835001D01*
X120275000Y-104860000D02*
X121200000Y-104860000D01*
X118299999Y-106835001D02*
X120275000Y-104860000D01*
X125940000Y-107880000D02*
X125940000Y-105395000D01*
X125940000Y-105395000D02*
X126475000Y-104860000D01*
X126475000Y-104860000D02*
X126950000Y-104860000D01*
X135920000Y-95380000D02*
X135158001Y-96141999D01*
X135158001Y-96141999D02*
X122607999Y-96141999D01*
X122607999Y-96141999D02*
X120199999Y-98549999D01*
X120199999Y-98549999D02*
X120199999Y-99584999D01*
X120199999Y-99584999D02*
X120275000Y-99660000D01*
X120275000Y-99660000D02*
X121200000Y-99660000D01*
X135920000Y-97920000D02*
X135158001Y-97158001D01*
X122125000Y-99010000D02*
X121200000Y-99010000D01*
X123976999Y-97158001D02*
X122125000Y-99010000D01*
X135158001Y-97158001D02*
X123976999Y-97158001D01*
X127875000Y-99010000D02*
X126950000Y-99010000D01*
X135920000Y-100460000D02*
X134225002Y-98765002D01*
X128119998Y-98765002D02*
X127875000Y-99010000D01*
X134225002Y-98765002D02*
X128119998Y-98765002D01*
X134620001Y-101700001D02*
X131099999Y-101700001D01*
X130152627Y-99332625D02*
X128202375Y-99332625D01*
X131099999Y-101700001D02*
X131034999Y-101635001D01*
X135920000Y-103000000D02*
X134620001Y-101700001D01*
X128202375Y-99332625D02*
X127875000Y-99660000D01*
X127875000Y-99660000D02*
X126950000Y-99660000D01*
X131034999Y-100214997D02*
X130152627Y-99332625D01*
X131034999Y-101635001D02*
X131034999Y-100214997D01*
X127776415Y-100310000D02*
X126950000Y-100310000D01*
X132530012Y-102150012D02*
X129616427Y-102150012D01*
X135920000Y-105540000D02*
X132530012Y-102150012D01*
X129616427Y-102150012D02*
X127776415Y-100310000D01*
X127790004Y-100960000D02*
X126950000Y-100960000D01*
X131365001Y-103525001D02*
X129189999Y-103525001D01*
X128750003Y-103085005D02*
X128750003Y-101919999D01*
X129189999Y-103525001D02*
X128750003Y-103085005D01*
X128750003Y-101919999D02*
X127790004Y-100960000D01*
X135920000Y-108080000D02*
X131365001Y-103525001D01*
X128125002Y-102220000D02*
X128125002Y-101975000D01*
X128125002Y-101975000D02*
X127760002Y-101610000D01*
X127760002Y-101610000D02*
X126950000Y-101610000D01*
X137457011Y-102102987D02*
X137600000Y-101959998D01*
X137600000Y-101959998D02*
X137600000Y-101920000D01*
X135920000Y-110620000D02*
X135920000Y-110325172D01*
X135920000Y-110325172D02*
X137457011Y-108788161D01*
X137457011Y-108788161D02*
X137457011Y-102102987D01*
X118256401Y-98276399D02*
X118256401Y-98941401D01*
X120275000Y-100960000D02*
X121200000Y-100960000D01*
X118256401Y-98941401D02*
X120275000Y-100960000D01*
X117900002Y-97920000D02*
X118256401Y-98276399D01*
X112080000Y-97920000D02*
X117900002Y-97920000D01*
X112080000Y-95380000D02*
X115996413Y-95380000D01*
X120275000Y-100310000D02*
X121200000Y-100310000D01*
X119040000Y-99075000D02*
X120275000Y-100310000D01*
X115996413Y-95380000D02*
X119040000Y-98423587D01*
X119040000Y-98423587D02*
X119040000Y-99075000D01*
X126950000Y-103560000D02*
X125477110Y-103560000D01*
X125477110Y-103560000D02*
X125405947Y-103631163D01*
X130400000Y-103000000D02*
X131960000Y-103000000D01*
X131960000Y-103000000D02*
X132240000Y-103280000D01*
X130400000Y-105400000D02*
X129650000Y-105400000D01*
X127875000Y-104210000D02*
X126950000Y-104210000D01*
X129650000Y-105400000D02*
X128460000Y-104210000D01*
X128460000Y-104210000D02*
X127875000Y-104210000D01*
X112080000Y-103000000D02*
X113157630Y-103000000D01*
X113157630Y-103000000D02*
X113717630Y-103560000D01*
X120275000Y-103560000D02*
X121200000Y-103560000D01*
X113717630Y-103560000D02*
X120275000Y-103560000D01*
X124140000Y-106090000D02*
X124520231Y-106090000D01*
X124520231Y-106090000D02*
X125233703Y-105376528D01*
X120275000Y-102910000D02*
X121200000Y-102910000D01*
X117219998Y-102910000D02*
X120275000Y-102910000D01*
X116484999Y-102175001D02*
X117219998Y-102910000D01*
X116484999Y-100404999D02*
X116484999Y-102175001D01*
X114429998Y-100460000D02*
X114549999Y-100339999D01*
X114549999Y-100339999D02*
X116419999Y-100339999D01*
X112080000Y-100460000D02*
X114429998Y-100460000D01*
X116419999Y-100339999D02*
X116484999Y-100404999D01*
D23*
G36*
X124766119Y-102948738D02*
X124613755Y-103100836D01*
X124471109Y-103444364D01*
X124470785Y-103816330D01*
X124612830Y-104160106D01*
X124875620Y-104423355D01*
X124983605Y-104468195D01*
X124704760Y-104583411D01*
X124441511Y-104846201D01*
X124313223Y-105155150D01*
X123954833Y-105154838D01*
X123611057Y-105296883D01*
X123347808Y-105559673D01*
X123205162Y-105903201D01*
X123204838Y-106275167D01*
X123346883Y-106618943D01*
X123609673Y-106882192D01*
X123953201Y-107024838D01*
X124325167Y-107025162D01*
X124668943Y-106883117D01*
X124747380Y-106804817D01*
X124811070Y-106792148D01*
X125057632Y-106627401D01*
X125180000Y-106505033D01*
X125180000Y-106739243D01*
X125138559Y-106765910D01*
X124993569Y-106978110D01*
X124942560Y-107230000D01*
X124942560Y-108530000D01*
X124986838Y-108765317D01*
X125125910Y-108981441D01*
X125338110Y-109126431D01*
X125590000Y-109177440D01*
X126290000Y-109177440D01*
X126525317Y-109133162D01*
X126741441Y-108994090D01*
X126886431Y-108781890D01*
X126893191Y-108748510D01*
X126951673Y-108889699D01*
X127130302Y-109068327D01*
X127363691Y-109165000D01*
X127554250Y-109165000D01*
X127713000Y-109006250D01*
X127713000Y-108007000D01*
X127967000Y-108007000D01*
X127967000Y-109006250D01*
X128125750Y-109165000D01*
X128316309Y-109165000D01*
X128549698Y-109068327D01*
X128728327Y-108889699D01*
X128825000Y-108656310D01*
X128825000Y-108165750D01*
X128666250Y-108007000D01*
X127967000Y-108007000D01*
X127713000Y-108007000D01*
X127693000Y-108007000D01*
X127693000Y-107753000D01*
X127713000Y-107753000D01*
X127713000Y-106753750D01*
X127967000Y-106753750D01*
X127967000Y-107753000D01*
X128666250Y-107753000D01*
X128825000Y-107594250D01*
X128825000Y-107103690D01*
X128728327Y-106870301D01*
X128549698Y-106691673D01*
X128316309Y-106595000D01*
X128125750Y-106595000D01*
X127967000Y-106753750D01*
X127713000Y-106753750D01*
X127554250Y-106595000D01*
X127363691Y-106595000D01*
X127130302Y-106691673D01*
X126951673Y-106870301D01*
X126895346Y-107006287D01*
X126893162Y-106994683D01*
X126754090Y-106778559D01*
X126700000Y-106741601D01*
X126700000Y-105709802D01*
X126702362Y-105707440D01*
X127625000Y-105707440D01*
X127860317Y-105663162D01*
X128076441Y-105524090D01*
X128221431Y-105311890D01*
X128266168Y-105090970D01*
X128808902Y-105633704D01*
X128846838Y-105835317D01*
X128985910Y-106051441D01*
X129198110Y-106196431D01*
X129450000Y-106247440D01*
X131350000Y-106247440D01*
X131585317Y-106203162D01*
X131801441Y-106064090D01*
X131946431Y-105851890D01*
X131997440Y-105600000D01*
X131997440Y-105232242D01*
X134535817Y-107770619D01*
X134523243Y-107800900D01*
X134522758Y-108356661D01*
X134734990Y-108870303D01*
X135127630Y-109263629D01*
X135335512Y-109349949D01*
X135129697Y-109434990D01*
X134736371Y-109827630D01*
X134523243Y-110340900D01*
X134522758Y-110896661D01*
X134734990Y-111410303D01*
X135127630Y-111803629D01*
X135402591Y-111917803D01*
X135147637Y-112172757D01*
X134432533Y-112315000D01*
X113567467Y-112315000D01*
X112427881Y-112088322D01*
X112321456Y-112017211D01*
X112356661Y-112017242D01*
X112870303Y-111805010D01*
X113263629Y-111412370D01*
X113277070Y-111380000D01*
X122690000Y-111380000D01*
X122980839Y-111322148D01*
X123227401Y-111157401D01*
X124089680Y-110295122D01*
X124135167Y-110295162D01*
X124478943Y-110153117D01*
X124742192Y-109890327D01*
X124884838Y-109546799D01*
X124885162Y-109174833D01*
X124743117Y-108831057D01*
X124480327Y-108567808D01*
X124136799Y-108425162D01*
X123764833Y-108424838D01*
X123421057Y-108566883D01*
X123157808Y-108829673D01*
X123015162Y-109173201D01*
X123015121Y-109220077D01*
X122375198Y-109860000D01*
X113277531Y-109860000D01*
X113265010Y-109829697D01*
X112872370Y-109436371D01*
X112664488Y-109350051D01*
X112870303Y-109265010D01*
X113263629Y-108872370D01*
X113287824Y-108814103D01*
X113448469Y-108782148D01*
X113695031Y-108617401D01*
X114042560Y-108269872D01*
X114042560Y-108410000D01*
X114086838Y-108645317D01*
X114225910Y-108861441D01*
X114438110Y-109006431D01*
X114690000Y-109057440D01*
X115990000Y-109057440D01*
X116225317Y-109013162D01*
X116441441Y-108874090D01*
X116478399Y-108820000D01*
X119460002Y-108820000D01*
X119750841Y-108762148D01*
X119997403Y-108597401D01*
X122737402Y-105857402D01*
X122902149Y-105610840D01*
X122960001Y-105320001D01*
X122960001Y-102970001D01*
X123567537Y-102970001D01*
X123599673Y-103002193D01*
X123943201Y-103144839D01*
X124315167Y-103145163D01*
X124658943Y-103003118D01*
X124766165Y-102896083D01*
X124766119Y-102948738D01*
X124766119Y-102948738D01*
G37*
X124766119Y-102948738D02*
X124613755Y-103100836D01*
X124471109Y-103444364D01*
X124470785Y-103816330D01*
X124612830Y-104160106D01*
X124875620Y-104423355D01*
X124983605Y-104468195D01*
X124704760Y-104583411D01*
X124441511Y-104846201D01*
X124313223Y-105155150D01*
X123954833Y-105154838D01*
X123611057Y-105296883D01*
X123347808Y-105559673D01*
X123205162Y-105903201D01*
X123204838Y-106275167D01*
X123346883Y-106618943D01*
X123609673Y-106882192D01*
X123953201Y-107024838D01*
X124325167Y-107025162D01*
X124668943Y-106883117D01*
X124747380Y-106804817D01*
X124811070Y-106792148D01*
X125057632Y-106627401D01*
X125180000Y-106505033D01*
X125180000Y-106739243D01*
X125138559Y-106765910D01*
X124993569Y-106978110D01*
X124942560Y-107230000D01*
X124942560Y-108530000D01*
X124986838Y-108765317D01*
X125125910Y-108981441D01*
X125338110Y-109126431D01*
X125590000Y-109177440D01*
X126290000Y-109177440D01*
X126525317Y-109133162D01*
X126741441Y-108994090D01*
X126886431Y-108781890D01*
X126893191Y-108748510D01*
X126951673Y-108889699D01*
X127130302Y-109068327D01*
X127363691Y-109165000D01*
X127554250Y-109165000D01*
X127713000Y-109006250D01*
X127713000Y-108007000D01*
X127967000Y-108007000D01*
X127967000Y-109006250D01*
X128125750Y-109165000D01*
X128316309Y-109165000D01*
X128549698Y-109068327D01*
X128728327Y-108889699D01*
X128825000Y-108656310D01*
X128825000Y-108165750D01*
X128666250Y-108007000D01*
X127967000Y-108007000D01*
X127713000Y-108007000D01*
X127693000Y-108007000D01*
X127693000Y-107753000D01*
X127713000Y-107753000D01*
X127713000Y-106753750D01*
X127967000Y-106753750D01*
X127967000Y-107753000D01*
X128666250Y-107753000D01*
X128825000Y-107594250D01*
X128825000Y-107103690D01*
X128728327Y-106870301D01*
X128549698Y-106691673D01*
X128316309Y-106595000D01*
X128125750Y-106595000D01*
X127967000Y-106753750D01*
X127713000Y-106753750D01*
X127554250Y-106595000D01*
X127363691Y-106595000D01*
X127130302Y-106691673D01*
X126951673Y-106870301D01*
X126895346Y-107006287D01*
X126893162Y-106994683D01*
X126754090Y-106778559D01*
X126700000Y-106741601D01*
X126700000Y-105709802D01*
X126702362Y-105707440D01*
X127625000Y-105707440D01*
X127860317Y-105663162D01*
X128076441Y-105524090D01*
X128221431Y-105311890D01*
X128266168Y-105090970D01*
X128808902Y-105633704D01*
X128846838Y-105835317D01*
X128985910Y-106051441D01*
X129198110Y-106196431D01*
X129450000Y-106247440D01*
X131350000Y-106247440D01*
X131585317Y-106203162D01*
X131801441Y-106064090D01*
X131946431Y-105851890D01*
X131997440Y-105600000D01*
X131997440Y-105232242D01*
X134535817Y-107770619D01*
X134523243Y-107800900D01*
X134522758Y-108356661D01*
X134734990Y-108870303D01*
X135127630Y-109263629D01*
X135335512Y-109349949D01*
X135129697Y-109434990D01*
X134736371Y-109827630D01*
X134523243Y-110340900D01*
X134522758Y-110896661D01*
X134734990Y-111410303D01*
X135127630Y-111803629D01*
X135402591Y-111917803D01*
X135147637Y-112172757D01*
X134432533Y-112315000D01*
X113567467Y-112315000D01*
X112427881Y-112088322D01*
X112321456Y-112017211D01*
X112356661Y-112017242D01*
X112870303Y-111805010D01*
X113263629Y-111412370D01*
X113277070Y-111380000D01*
X122690000Y-111380000D01*
X122980839Y-111322148D01*
X123227401Y-111157401D01*
X124089680Y-110295122D01*
X124135167Y-110295162D01*
X124478943Y-110153117D01*
X124742192Y-109890327D01*
X124884838Y-109546799D01*
X124885162Y-109174833D01*
X124743117Y-108831057D01*
X124480327Y-108567808D01*
X124136799Y-108425162D01*
X123764833Y-108424838D01*
X123421057Y-108566883D01*
X123157808Y-108829673D01*
X123015162Y-109173201D01*
X123015121Y-109220077D01*
X122375198Y-109860000D01*
X113277531Y-109860000D01*
X113265010Y-109829697D01*
X112872370Y-109436371D01*
X112664488Y-109350051D01*
X112870303Y-109265010D01*
X113263629Y-108872370D01*
X113287824Y-108814103D01*
X113448469Y-108782148D01*
X113695031Y-108617401D01*
X114042560Y-108269872D01*
X114042560Y-108410000D01*
X114086838Y-108645317D01*
X114225910Y-108861441D01*
X114438110Y-109006431D01*
X114690000Y-109057440D01*
X115990000Y-109057440D01*
X116225317Y-109013162D01*
X116441441Y-108874090D01*
X116478399Y-108820000D01*
X119460002Y-108820000D01*
X119750841Y-108762148D01*
X119997403Y-108597401D01*
X122737402Y-105857402D01*
X122902149Y-105610840D01*
X122960001Y-105320001D01*
X122960001Y-102970001D01*
X123567537Y-102970001D01*
X123599673Y-103002193D01*
X123943201Y-103144839D01*
X124315167Y-103145163D01*
X124658943Y-103003118D01*
X124766165Y-102896083D01*
X124766119Y-102948738D01*
G36*
X117985197Y-106075001D02*
X116637440Y-106075001D01*
X116637440Y-105810000D01*
X116593162Y-105574683D01*
X116454090Y-105358559D01*
X116241890Y-105213569D01*
X115990000Y-105162560D01*
X114690000Y-105162560D01*
X114454683Y-105206838D01*
X114238559Y-105345910D01*
X114201601Y-105400000D01*
X113477123Y-105400000D01*
X113477242Y-105263339D01*
X113463857Y-105230945D01*
X113724802Y-104970000D01*
X119090198Y-104970000D01*
X117985197Y-106075001D01*
X117985197Y-106075001D01*
G37*
X117985197Y-106075001D02*
X116637440Y-106075001D01*
X116637440Y-105810000D01*
X116593162Y-105574683D01*
X116454090Y-105358559D01*
X116241890Y-105213569D01*
X115990000Y-105162560D01*
X114690000Y-105162560D01*
X114454683Y-105206838D01*
X114238559Y-105345910D01*
X114201601Y-105400000D01*
X113477123Y-105400000D01*
X113477242Y-105263339D01*
X113463857Y-105230945D01*
X113724802Y-104970000D01*
X119090198Y-104970000D01*
X117985197Y-106075001D01*
G36*
X110894990Y-103790303D02*
X111287630Y-104183629D01*
X111495512Y-104269949D01*
X111289697Y-104354990D01*
X110896371Y-104747630D01*
X110685000Y-105256669D01*
X110685000Y-103282087D01*
X110894990Y-103790303D01*
X110894990Y-103790303D01*
G37*
X110894990Y-103790303D02*
X111287630Y-104183629D01*
X111495512Y-104269949D01*
X111289697Y-104354990D01*
X110896371Y-104747630D01*
X110685000Y-105256669D01*
X110685000Y-103282087D01*
X110894990Y-103790303D01*
G36*
X115437000Y-101163000D02*
X115457000Y-101163000D01*
X115457000Y-101417000D01*
X115437000Y-101417000D01*
X115437000Y-102391250D01*
X115595750Y-102550000D01*
X115839085Y-102550000D01*
X115947598Y-102712402D01*
X116035196Y-102800000D01*
X114032432Y-102800000D01*
X113695031Y-102462599D01*
X113448469Y-102297852D01*
X113288268Y-102265986D01*
X113265010Y-102209697D01*
X112872370Y-101816371D01*
X112664488Y-101730051D01*
X112870303Y-101645010D01*
X112939684Y-101575750D01*
X114175000Y-101575750D01*
X114175000Y-102041310D01*
X114271673Y-102274699D01*
X114450302Y-102453327D01*
X114683691Y-102550000D01*
X115024250Y-102550000D01*
X115183000Y-102391250D01*
X115183000Y-101417000D01*
X114333750Y-101417000D01*
X114175000Y-101575750D01*
X112939684Y-101575750D01*
X113263629Y-101252370D01*
X113277070Y-101220000D01*
X114429998Y-101220000D01*
X114716554Y-101163000D01*
X115183000Y-101163000D01*
X115183000Y-101143000D01*
X115437000Y-101143000D01*
X115437000Y-101163000D01*
X115437000Y-101163000D01*
G37*
X115437000Y-101163000D02*
X115457000Y-101163000D01*
X115457000Y-101417000D01*
X115437000Y-101417000D01*
X115437000Y-102391250D01*
X115595750Y-102550000D01*
X115839085Y-102550000D01*
X115947598Y-102712402D01*
X116035196Y-102800000D01*
X114032432Y-102800000D01*
X113695031Y-102462599D01*
X113448469Y-102297852D01*
X113288268Y-102265986D01*
X113265010Y-102209697D01*
X112872370Y-101816371D01*
X112664488Y-101730051D01*
X112870303Y-101645010D01*
X112939684Y-101575750D01*
X114175000Y-101575750D01*
X114175000Y-102041310D01*
X114271673Y-102274699D01*
X114450302Y-102453327D01*
X114683691Y-102550000D01*
X115024250Y-102550000D01*
X115183000Y-102391250D01*
X115183000Y-101417000D01*
X114333750Y-101417000D01*
X114175000Y-101575750D01*
X112939684Y-101575750D01*
X113263629Y-101252370D01*
X113277070Y-101220000D01*
X114429998Y-101220000D01*
X114716554Y-101163000D01*
X115183000Y-101163000D01*
X115183000Y-101143000D01*
X115437000Y-101143000D01*
X115437000Y-101163000D01*
G36*
X134535817Y-100150619D02*
X134523243Y-100180900D01*
X134522758Y-100736661D01*
X134606776Y-100940001D01*
X132899251Y-100940001D01*
X132836250Y-100877000D01*
X131987000Y-100877000D01*
X131987000Y-100897000D01*
X131794999Y-100897000D01*
X131794999Y-100603000D01*
X131987000Y-100603000D01*
X131987000Y-100623000D01*
X132836250Y-100623000D01*
X132995000Y-100464250D01*
X132995000Y-99998690D01*
X132898327Y-99765301D01*
X132719698Y-99586673D01*
X132570811Y-99525002D01*
X133910200Y-99525002D01*
X134535817Y-100150619D01*
X134535817Y-100150619D01*
G37*
X134535817Y-100150619D02*
X134523243Y-100180900D01*
X134522758Y-100736661D01*
X134606776Y-100940001D01*
X132899251Y-100940001D01*
X132836250Y-100877000D01*
X131987000Y-100877000D01*
X131987000Y-100897000D01*
X131794999Y-100897000D01*
X131794999Y-100603000D01*
X131987000Y-100603000D01*
X131987000Y-100623000D01*
X132836250Y-100623000D01*
X132995000Y-100464250D01*
X132995000Y-99998690D01*
X132898327Y-99765301D01*
X132719698Y-99586673D01*
X132570811Y-99525002D01*
X133910200Y-99525002D01*
X134535817Y-100150619D01*
G36*
X114175000Y-98754250D02*
X114333750Y-98913000D01*
X115183000Y-98913000D01*
X115183000Y-98893000D01*
X115437000Y-98893000D01*
X115437000Y-98913000D01*
X115457000Y-98913000D01*
X115457000Y-99167000D01*
X115437000Y-99167000D01*
X115437000Y-99187000D01*
X115183000Y-99187000D01*
X115183000Y-99167000D01*
X114333750Y-99167000D01*
X114175000Y-99325750D01*
X114175000Y-99694085D01*
X114166147Y-99700000D01*
X113277531Y-99700000D01*
X113265010Y-99669697D01*
X112872370Y-99276371D01*
X112664488Y-99190051D01*
X112870303Y-99105010D01*
X113263629Y-98712370D01*
X113277070Y-98680000D01*
X114175000Y-98680000D01*
X114175000Y-98754250D01*
X114175000Y-98754250D01*
G37*
X114175000Y-98754250D02*
X114333750Y-98913000D01*
X115183000Y-98913000D01*
X115183000Y-98893000D01*
X115437000Y-98893000D01*
X115437000Y-98913000D01*
X115457000Y-98913000D01*
X115457000Y-99167000D01*
X115437000Y-99167000D01*
X115437000Y-99187000D01*
X115183000Y-99187000D01*
X115183000Y-99167000D01*
X114333750Y-99167000D01*
X114175000Y-99325750D01*
X114175000Y-99694085D01*
X114166147Y-99700000D01*
X113277531Y-99700000D01*
X113265010Y-99669697D01*
X112872370Y-99276371D01*
X112664488Y-99190051D01*
X112870303Y-99105010D01*
X113263629Y-98712370D01*
X113277070Y-98680000D01*
X114175000Y-98680000D01*
X114175000Y-98754250D01*
G36*
X135099389Y-89817646D02*
X135442975Y-90229950D01*
X135248490Y-90229780D01*
X134781542Y-90422718D01*
X134423974Y-90779663D01*
X134230221Y-91246273D01*
X134229780Y-91751510D01*
X134422718Y-92218458D01*
X134779663Y-92576026D01*
X135246273Y-92769779D01*
X135751510Y-92770220D01*
X136218458Y-92577282D01*
X136576026Y-92220337D01*
X136750826Y-91799371D01*
X137291201Y-92447821D01*
X137315000Y-92567467D01*
X137315000Y-95097913D01*
X137105010Y-94589697D01*
X136712370Y-94196371D01*
X136199100Y-93983243D01*
X135643339Y-93982758D01*
X135129697Y-94194990D01*
X134736371Y-94587630D01*
X134523243Y-95100900D01*
X134522998Y-95381999D01*
X130447440Y-95381999D01*
X130447440Y-94300000D01*
X130403162Y-94064683D01*
X130264090Y-93848559D01*
X130051890Y-93703569D01*
X129800000Y-93652560D01*
X128200000Y-93652560D01*
X127964683Y-93696838D01*
X127748559Y-93835910D01*
X127603569Y-94048110D01*
X127564710Y-94240000D01*
X125503391Y-94240000D01*
X125371454Y-94107833D01*
X125027926Y-93965187D01*
X124738976Y-93964935D01*
X124664090Y-93848559D01*
X124451890Y-93703569D01*
X124200000Y-93652560D01*
X122600000Y-93652560D01*
X122364683Y-93696838D01*
X122148559Y-93835910D01*
X122003569Y-94048110D01*
X121952560Y-94300000D01*
X121952560Y-95700000D01*
X121956145Y-95719051D01*
X120224940Y-97450256D01*
X120225162Y-97194833D01*
X120100000Y-96891917D01*
X120100000Y-96846742D01*
X120225317Y-96823162D01*
X120441441Y-96684090D01*
X120586431Y-96471890D01*
X120637440Y-96220000D01*
X120637440Y-95520000D01*
X120593162Y-95284683D01*
X120454090Y-95068559D01*
X120241890Y-94923569D01*
X120228803Y-94920919D01*
X120441441Y-94784090D01*
X120586431Y-94571890D01*
X120637440Y-94320000D01*
X120637440Y-93620000D01*
X120593162Y-93384683D01*
X120454090Y-93168559D01*
X120241890Y-93023569D01*
X120140816Y-93003101D01*
X120201441Y-92964090D01*
X120346431Y-92751890D01*
X120397440Y-92500000D01*
X120397440Y-92285750D01*
X121965000Y-92285750D01*
X121965000Y-92826310D01*
X122061673Y-93059699D01*
X122240302Y-93238327D01*
X122473691Y-93335000D01*
X123114250Y-93335000D01*
X123273000Y-93176250D01*
X123273000Y-92127000D01*
X123527000Y-92127000D01*
X123527000Y-93176250D01*
X123685750Y-93335000D01*
X124326309Y-93335000D01*
X124559698Y-93238327D01*
X124738327Y-93059699D01*
X124835000Y-92826310D01*
X124835000Y-92285750D01*
X127565000Y-92285750D01*
X127565000Y-92826310D01*
X127661673Y-93059699D01*
X127840302Y-93238327D01*
X128073691Y-93335000D01*
X128714250Y-93335000D01*
X128873000Y-93176250D01*
X128873000Y-92127000D01*
X129127000Y-92127000D01*
X129127000Y-93176250D01*
X129285750Y-93335000D01*
X129926309Y-93335000D01*
X130159698Y-93238327D01*
X130338327Y-93059699D01*
X130435000Y-92826310D01*
X130435000Y-92285750D01*
X130276250Y-92127000D01*
X129127000Y-92127000D01*
X128873000Y-92127000D01*
X127723750Y-92127000D01*
X127565000Y-92285750D01*
X124835000Y-92285750D01*
X124676250Y-92127000D01*
X123527000Y-92127000D01*
X123273000Y-92127000D01*
X122123750Y-92127000D01*
X121965000Y-92285750D01*
X120397440Y-92285750D01*
X120397440Y-91500000D01*
X120353162Y-91264683D01*
X120294610Y-91173690D01*
X121965000Y-91173690D01*
X121965000Y-91714250D01*
X122123750Y-91873000D01*
X123273000Y-91873000D01*
X123273000Y-90823750D01*
X123527000Y-90823750D01*
X123527000Y-91873000D01*
X124676250Y-91873000D01*
X124835000Y-91714250D01*
X124835000Y-91173690D01*
X127565000Y-91173690D01*
X127565000Y-91714250D01*
X127723750Y-91873000D01*
X128873000Y-91873000D01*
X128873000Y-90823750D01*
X129127000Y-90823750D01*
X129127000Y-91873000D01*
X130276250Y-91873000D01*
X130435000Y-91714250D01*
X130435000Y-91173690D01*
X130338327Y-90940301D01*
X130159698Y-90761673D01*
X129926309Y-90665000D01*
X129285750Y-90665000D01*
X129127000Y-90823750D01*
X128873000Y-90823750D01*
X128714250Y-90665000D01*
X128073691Y-90665000D01*
X127840302Y-90761673D01*
X127661673Y-90940301D01*
X127565000Y-91173690D01*
X124835000Y-91173690D01*
X124738327Y-90940301D01*
X124559698Y-90761673D01*
X124326309Y-90665000D01*
X123685750Y-90665000D01*
X123527000Y-90823750D01*
X123273000Y-90823750D01*
X123114250Y-90665000D01*
X122473691Y-90665000D01*
X122240302Y-90761673D01*
X122061673Y-90940301D01*
X121965000Y-91173690D01*
X120294610Y-91173690D01*
X120214090Y-91048559D01*
X120001890Y-90903569D01*
X119750000Y-90852560D01*
X118295361Y-90852560D01*
X118164090Y-90648559D01*
X117951890Y-90503569D01*
X117700000Y-90452560D01*
X116800000Y-90452560D01*
X116564683Y-90496838D01*
X116348559Y-90635910D01*
X116203569Y-90848110D01*
X116200149Y-90865000D01*
X115785750Y-90865000D01*
X115627000Y-91023750D01*
X115627000Y-91873000D01*
X115647000Y-91873000D01*
X115647000Y-92127000D01*
X115627000Y-92127000D01*
X115627000Y-92976250D01*
X115785750Y-93135000D01*
X116376309Y-93135000D01*
X116609698Y-93038327D01*
X116788327Y-92859699D01*
X116834826Y-92747440D01*
X117586857Y-92747440D01*
X117650000Y-92760000D01*
X117662721Y-92760000D01*
X117785910Y-92951441D01*
X117998110Y-93096431D01*
X118240000Y-93145415D01*
X118240000Y-93154983D01*
X118238559Y-93155910D01*
X118093569Y-93368110D01*
X118042560Y-93620000D01*
X118042560Y-94320000D01*
X118086838Y-94555317D01*
X118225910Y-94771441D01*
X118438110Y-94916431D01*
X118451197Y-94919081D01*
X118238559Y-95055910D01*
X118093569Y-95268110D01*
X118042560Y-95520000D01*
X118042560Y-96220000D01*
X118073002Y-96381787D01*
X116533814Y-94842599D01*
X116287252Y-94677852D01*
X115996413Y-94620000D01*
X113277531Y-94620000D01*
X113265010Y-94589697D01*
X112872370Y-94196371D01*
X112359100Y-93983243D01*
X111803339Y-93982758D01*
X111289697Y-94194990D01*
X110896371Y-94587630D01*
X110685000Y-95096669D01*
X110685000Y-92567467D01*
X110741037Y-92285750D01*
X114115000Y-92285750D01*
X114115000Y-92626310D01*
X114211673Y-92859699D01*
X114390302Y-93038327D01*
X114623691Y-93135000D01*
X115214250Y-93135000D01*
X115373000Y-92976250D01*
X115373000Y-92127000D01*
X114273750Y-92127000D01*
X114115000Y-92285750D01*
X110741037Y-92285750D01*
X110911678Y-91427881D01*
X110947887Y-91373690D01*
X114115000Y-91373690D01*
X114115000Y-91714250D01*
X114273750Y-91873000D01*
X115373000Y-91873000D01*
X115373000Y-91023750D01*
X115214250Y-90865000D01*
X114623691Y-90865000D01*
X114390302Y-90961673D01*
X114211673Y-91140301D01*
X114115000Y-91373690D01*
X110947887Y-91373690D01*
X111047456Y-91224674D01*
X112775013Y-89842629D01*
X113567467Y-89685000D01*
X134432533Y-89685000D01*
X135099389Y-89817646D01*
X135099389Y-89817646D01*
G37*
X135099389Y-89817646D02*
X135442975Y-90229950D01*
X135248490Y-90229780D01*
X134781542Y-90422718D01*
X134423974Y-90779663D01*
X134230221Y-91246273D01*
X134229780Y-91751510D01*
X134422718Y-92218458D01*
X134779663Y-92576026D01*
X135246273Y-92769779D01*
X135751510Y-92770220D01*
X136218458Y-92577282D01*
X136576026Y-92220337D01*
X136750826Y-91799371D01*
X137291201Y-92447821D01*
X137315000Y-92567467D01*
X137315000Y-95097913D01*
X137105010Y-94589697D01*
X136712370Y-94196371D01*
X136199100Y-93983243D01*
X135643339Y-93982758D01*
X135129697Y-94194990D01*
X134736371Y-94587630D01*
X134523243Y-95100900D01*
X134522998Y-95381999D01*
X130447440Y-95381999D01*
X130447440Y-94300000D01*
X130403162Y-94064683D01*
X130264090Y-93848559D01*
X130051890Y-93703569D01*
X129800000Y-93652560D01*
X128200000Y-93652560D01*
X127964683Y-93696838D01*
X127748559Y-93835910D01*
X127603569Y-94048110D01*
X127564710Y-94240000D01*
X125503391Y-94240000D01*
X125371454Y-94107833D01*
X125027926Y-93965187D01*
X124738976Y-93964935D01*
X124664090Y-93848559D01*
X124451890Y-93703569D01*
X124200000Y-93652560D01*
X122600000Y-93652560D01*
X122364683Y-93696838D01*
X122148559Y-93835910D01*
X122003569Y-94048110D01*
X121952560Y-94300000D01*
X121952560Y-95700000D01*
X121956145Y-95719051D01*
X120224940Y-97450256D01*
X120225162Y-97194833D01*
X120100000Y-96891917D01*
X120100000Y-96846742D01*
X120225317Y-96823162D01*
X120441441Y-96684090D01*
X120586431Y-96471890D01*
X120637440Y-96220000D01*
X120637440Y-95520000D01*
X120593162Y-95284683D01*
X120454090Y-95068559D01*
X120241890Y-94923569D01*
X120228803Y-94920919D01*
X120441441Y-94784090D01*
X120586431Y-94571890D01*
X120637440Y-94320000D01*
X120637440Y-93620000D01*
X120593162Y-93384683D01*
X120454090Y-93168559D01*
X120241890Y-93023569D01*
X120140816Y-93003101D01*
X120201441Y-92964090D01*
X120346431Y-92751890D01*
X120397440Y-92500000D01*
X120397440Y-92285750D01*
X121965000Y-92285750D01*
X121965000Y-92826310D01*
X122061673Y-93059699D01*
X122240302Y-93238327D01*
X122473691Y-93335000D01*
X123114250Y-93335000D01*
X123273000Y-93176250D01*
X123273000Y-92127000D01*
X123527000Y-92127000D01*
X123527000Y-93176250D01*
X123685750Y-93335000D01*
X124326309Y-93335000D01*
X124559698Y-93238327D01*
X124738327Y-93059699D01*
X124835000Y-92826310D01*
X124835000Y-92285750D01*
X127565000Y-92285750D01*
X127565000Y-92826310D01*
X127661673Y-93059699D01*
X127840302Y-93238327D01*
X128073691Y-93335000D01*
X128714250Y-93335000D01*
X128873000Y-93176250D01*
X128873000Y-92127000D01*
X129127000Y-92127000D01*
X129127000Y-93176250D01*
X129285750Y-93335000D01*
X129926309Y-93335000D01*
X130159698Y-93238327D01*
X130338327Y-93059699D01*
X130435000Y-92826310D01*
X130435000Y-92285750D01*
X130276250Y-92127000D01*
X129127000Y-92127000D01*
X128873000Y-92127000D01*
X127723750Y-92127000D01*
X127565000Y-92285750D01*
X124835000Y-92285750D01*
X124676250Y-92127000D01*
X123527000Y-92127000D01*
X123273000Y-92127000D01*
X122123750Y-92127000D01*
X121965000Y-92285750D01*
X120397440Y-92285750D01*
X120397440Y-91500000D01*
X120353162Y-91264683D01*
X120294610Y-91173690D01*
X121965000Y-91173690D01*
X121965000Y-91714250D01*
X122123750Y-91873000D01*
X123273000Y-91873000D01*
X123273000Y-90823750D01*
X123527000Y-90823750D01*
X123527000Y-91873000D01*
X124676250Y-91873000D01*
X124835000Y-91714250D01*
X124835000Y-91173690D01*
X127565000Y-91173690D01*
X127565000Y-91714250D01*
X127723750Y-91873000D01*
X128873000Y-91873000D01*
X128873000Y-90823750D01*
X129127000Y-90823750D01*
X129127000Y-91873000D01*
X130276250Y-91873000D01*
X130435000Y-91714250D01*
X130435000Y-91173690D01*
X130338327Y-90940301D01*
X130159698Y-90761673D01*
X129926309Y-90665000D01*
X129285750Y-90665000D01*
X129127000Y-90823750D01*
X128873000Y-90823750D01*
X128714250Y-90665000D01*
X128073691Y-90665000D01*
X127840302Y-90761673D01*
X127661673Y-90940301D01*
X127565000Y-91173690D01*
X124835000Y-91173690D01*
X124738327Y-90940301D01*
X124559698Y-90761673D01*
X124326309Y-90665000D01*
X123685750Y-90665000D01*
X123527000Y-90823750D01*
X123273000Y-90823750D01*
X123114250Y-90665000D01*
X122473691Y-90665000D01*
X122240302Y-90761673D01*
X122061673Y-90940301D01*
X121965000Y-91173690D01*
X120294610Y-91173690D01*
X120214090Y-91048559D01*
X120001890Y-90903569D01*
X119750000Y-90852560D01*
X118295361Y-90852560D01*
X118164090Y-90648559D01*
X117951890Y-90503569D01*
X117700000Y-90452560D01*
X116800000Y-90452560D01*
X116564683Y-90496838D01*
X116348559Y-90635910D01*
X116203569Y-90848110D01*
X116200149Y-90865000D01*
X115785750Y-90865000D01*
X115627000Y-91023750D01*
X115627000Y-91873000D01*
X115647000Y-91873000D01*
X115647000Y-92127000D01*
X115627000Y-92127000D01*
X115627000Y-92976250D01*
X115785750Y-93135000D01*
X116376309Y-93135000D01*
X116609698Y-93038327D01*
X116788327Y-92859699D01*
X116834826Y-92747440D01*
X117586857Y-92747440D01*
X117650000Y-92760000D01*
X117662721Y-92760000D01*
X117785910Y-92951441D01*
X117998110Y-93096431D01*
X118240000Y-93145415D01*
X118240000Y-93154983D01*
X118238559Y-93155910D01*
X118093569Y-93368110D01*
X118042560Y-93620000D01*
X118042560Y-94320000D01*
X118086838Y-94555317D01*
X118225910Y-94771441D01*
X118438110Y-94916431D01*
X118451197Y-94919081D01*
X118238559Y-95055910D01*
X118093569Y-95268110D01*
X118042560Y-95520000D01*
X118042560Y-96220000D01*
X118073002Y-96381787D01*
X116533814Y-94842599D01*
X116287252Y-94677852D01*
X115996413Y-94620000D01*
X113277531Y-94620000D01*
X113265010Y-94589697D01*
X112872370Y-94196371D01*
X112359100Y-93983243D01*
X111803339Y-93982758D01*
X111289697Y-94194990D01*
X110896371Y-94587630D01*
X110685000Y-95096669D01*
X110685000Y-92567467D01*
X110741037Y-92285750D01*
X114115000Y-92285750D01*
X114115000Y-92626310D01*
X114211673Y-92859699D01*
X114390302Y-93038327D01*
X114623691Y-93135000D01*
X115214250Y-93135000D01*
X115373000Y-92976250D01*
X115373000Y-92127000D01*
X114273750Y-92127000D01*
X114115000Y-92285750D01*
X110741037Y-92285750D01*
X110911678Y-91427881D01*
X110947887Y-91373690D01*
X114115000Y-91373690D01*
X114115000Y-91714250D01*
X114273750Y-91873000D01*
X115373000Y-91873000D01*
X115373000Y-91023750D01*
X115214250Y-90865000D01*
X114623691Y-90865000D01*
X114390302Y-90961673D01*
X114211673Y-91140301D01*
X114115000Y-91373690D01*
X110947887Y-91373690D01*
X111047456Y-91224674D01*
X112775013Y-89842629D01*
X113567467Y-89685000D01*
X134432533Y-89685000D01*
X135099389Y-89817646D01*
M02*
