G04 #@! TF.FileFunction,Copper,L3,Inr,Signal*
%FSLAX46Y46*%
G04 Gerber Fmt 4.6, Leading zero omitted, Abs format (unit mm)*
G04 Created by KiCad (PCBNEW 4.0.7) date Tuesday, December 26, 2017 'AMt' 09:35:19 AM*
%MOMM*%
%LPD*%
G01*
G04 APERTURE LIST*
%ADD10C,0.100000*%
%ADD11C,1.700000*%
%ADD12O,1.700000X1.700000*%
%ADD13C,0.500000*%
%ADD14C,0.150000*%
%ADD15C,0.254000*%
G04 APERTURE END LIST*
D10*
D11*
X22250000Y-62660000D03*
D12*
X22250000Y-60120000D03*
X22250000Y-57580000D03*
X22250000Y-55040000D03*
X22250000Y-52500000D03*
X22250000Y-49960000D03*
X22250000Y-47420000D03*
X22250000Y-44880000D03*
X22250000Y-42340000D03*
X22250000Y-39800000D03*
X22250000Y-37260000D03*
X22250000Y-34720000D03*
D11*
X45000000Y-34720000D03*
D12*
X45000000Y-37260000D03*
X45000000Y-39800000D03*
X45000000Y-42340000D03*
X45000000Y-44880000D03*
X45000000Y-47420000D03*
X45000000Y-49960000D03*
X45000000Y-52500000D03*
X45000000Y-55040000D03*
D13*
X46000000Y-30900000D03*
X45000000Y-30900000D03*
X44000000Y-30900000D03*
X26000000Y-30906931D03*
X25000000Y-30906931D03*
X24000000Y-30906931D03*
X23000000Y-30906931D03*
X22000000Y-30906931D03*
X20981805Y-30906931D03*
X43000000Y-30900000D03*
X42000000Y-30900000D03*
X41000000Y-30900000D03*
X40000000Y-30900000D03*
X39000000Y-30900000D03*
X38000000Y-30900000D03*
X37000000Y-30900000D03*
X36000000Y-30900000D03*
X35000000Y-30900000D03*
X34000000Y-30900000D03*
X33000000Y-30900000D03*
X32000000Y-30900000D03*
X26568685Y-60872075D03*
X39870000Y-56550000D03*
X27030000Y-64970000D03*
X39000000Y-55100000D03*
X38400000Y-59800000D03*
X30425381Y-35951090D03*
X25000000Y-38500000D03*
X25093146Y-54391548D03*
X31425000Y-46225000D03*
X28460000Y-64390000D03*
X31270000Y-37200000D03*
X41000000Y-63700000D03*
X28000000Y-58600000D03*
X26400000Y-48100000D03*
X33550000Y-63033000D03*
X32237500Y-52537500D03*
X33525000Y-52537500D03*
X33525000Y-52537500D03*
X34812500Y-52537500D03*
X36100000Y-52537500D03*
X36000000Y-51250000D03*
X34812500Y-51250000D03*
X32237500Y-51250000D03*
X33525000Y-51250000D03*
X32237500Y-49962500D03*
X33525000Y-49962500D03*
X34812500Y-49962500D03*
X34812500Y-49962500D03*
X36000000Y-50000000D03*
X36000000Y-48675000D03*
X34812500Y-48675000D03*
X33525000Y-48675000D03*
X32237500Y-48675000D03*
X31918750Y-45706250D03*
X31714000Y-64963000D03*
X35791000Y-64837000D03*
X29550000Y-50225000D03*
X28725000Y-60850000D03*
X39260000Y-61875000D03*
X43924999Y-57524999D03*
X38400000Y-50025000D03*
X28243787Y-49749990D03*
X32418750Y-46431250D03*
X34646239Y-55040610D03*
X32918750Y-45981250D03*
X33425000Y-46425000D03*
X34925000Y-46425000D03*
X35646587Y-45915960D03*
X35918750Y-46506250D03*
X36819605Y-46208628D03*
X37800000Y-54025000D03*
X35925000Y-54775000D03*
X35283447Y-54912232D03*
X34005211Y-55148307D03*
X33425000Y-56425000D03*
X33055199Y-55351253D03*
X32423295Y-55198898D03*
X31781194Y-55299999D03*
X31128965Y-54910095D03*
X28335441Y-49106472D03*
X24100000Y-39750000D03*
X28878451Y-48571292D03*
X24115000Y-37260000D03*
X29630475Y-48114705D03*
X24200000Y-34720000D03*
X30200000Y-47350000D03*
X36525000Y-55175000D03*
X26680551Y-54914993D03*
X34613246Y-58904948D03*
X26811433Y-53511870D03*
X33239245Y-60061252D03*
X29580630Y-51291778D03*
X33919245Y-60061252D03*
X29580630Y-51971778D03*
X39900000Y-50775000D03*
X38318750Y-52356250D03*
X39875000Y-48324998D03*
X38350000Y-51575000D03*
X40675000Y-38750000D03*
X36775000Y-38750000D03*
X25646409Y-42375538D03*
X32475000Y-40675000D03*
X37825000Y-36325000D03*
X39700000Y-45900000D03*
X37049979Y-41350000D03*
X37475000Y-46925000D03*
X32325000Y-42400000D03*
X38000000Y-45675000D03*
X37349990Y-37400000D03*
X38425000Y-48850000D03*
X32500000Y-64911000D03*
X33852000Y-64680000D03*
D14*
X25093146Y-59396536D02*
X26318686Y-60622076D01*
X25093146Y-54391548D02*
X25093146Y-59396536D01*
X26318686Y-60622076D02*
X26568685Y-60872075D01*
X25000000Y-38500000D02*
X25200000Y-38700000D01*
X32620000Y-62660000D02*
X33405000Y-61875000D01*
X33405000Y-61875000D02*
X39260000Y-61875000D01*
X22250000Y-62660000D02*
X32620000Y-62660000D01*
X40150000Y-49725000D02*
X43924999Y-53499999D01*
X43924999Y-53499999D02*
X43924999Y-57524999D01*
X38700000Y-49725000D02*
X40150000Y-49725000D01*
X38400000Y-50025000D02*
X38700000Y-49725000D01*
X29375265Y-54864000D02*
X29274626Y-54875339D01*
X33024355Y-58273655D02*
X33038928Y-58303917D01*
X29745765Y-54596725D02*
X29769516Y-54620476D01*
X30153036Y-57885634D02*
X30153036Y-57986909D01*
X29769516Y-54807523D02*
X29745765Y-54831274D01*
X30761889Y-57137241D02*
X30282657Y-57616473D01*
X32147978Y-57512050D02*
X32133403Y-57542312D01*
X32977151Y-58226451D02*
X33003412Y-58247393D01*
X29798481Y-54747378D02*
X29787387Y-54779082D01*
X28142428Y-54393717D02*
X28214041Y-54465330D01*
X29648200Y-56256897D02*
X29669142Y-56283158D01*
X30761891Y-57137243D02*
X30761889Y-57137241D01*
X31242452Y-56651361D02*
X31221510Y-56677623D01*
X30219513Y-58176891D02*
X30282657Y-58256071D01*
X30549759Y-56925111D02*
X30666431Y-56808438D01*
X32639834Y-58886444D02*
X32617298Y-58985180D01*
X31264500Y-56588351D02*
X31257027Y-56621099D01*
X31852430Y-59186246D02*
X32554400Y-58484274D01*
X32946887Y-58211876D02*
X32977151Y-58226451D01*
X28496023Y-54564000D02*
X29652241Y-54564000D01*
X32746918Y-59355615D02*
X33239245Y-59847942D01*
X28043759Y-54111735D02*
X28055098Y-54212374D01*
X28142428Y-53774282D02*
X28088547Y-53860034D01*
X31682004Y-59293331D02*
X31773250Y-59249390D01*
X28923000Y-55531697D02*
X29648200Y-56256897D01*
X29769516Y-54620476D02*
X29787387Y-54648917D01*
X29669142Y-56283158D02*
X29683716Y-56313421D01*
X28214041Y-54465330D02*
X28299793Y-54519211D01*
X29648200Y-56469029D02*
X29391706Y-56725522D01*
X29652241Y-54564000D02*
X29685620Y-54567760D01*
X29274626Y-54875339D02*
X29179035Y-54908788D01*
X31035639Y-56444548D02*
X31065903Y-56429975D01*
X29430931Y-57404344D02*
X29510111Y-57467488D01*
X28055098Y-53955625D02*
X28043759Y-54056264D01*
X29801367Y-57533965D02*
X29900103Y-57511429D01*
X31900329Y-57356442D02*
X31926590Y-57335499D01*
X29652241Y-54864000D02*
X29375265Y-54864000D01*
X28838082Y-53589145D02*
X28806378Y-53600239D01*
X29391706Y-56725522D02*
X29328562Y-56804702D01*
X31043987Y-58776585D02*
X31043987Y-58877860D01*
X28923000Y-53454000D02*
X28919239Y-53487378D01*
X30591042Y-58424916D02*
X30692317Y-58424916D01*
X32617297Y-59086454D02*
X32639833Y-59185190D01*
X31066523Y-58976596D02*
X31110464Y-59067842D01*
X28866523Y-53571274D02*
X28838082Y-53589145D01*
X32880551Y-58204402D02*
X32914141Y-58204403D01*
X32086200Y-57335500D02*
X32112461Y-57356442D01*
X29328562Y-56804702D02*
X29284621Y-56895947D01*
X33046403Y-58336665D02*
X33046402Y-58370253D01*
X32133403Y-57542312D02*
X32112461Y-57568574D01*
X28773000Y-53604000D02*
X28496023Y-53604000D01*
X29683716Y-56412505D02*
X29669142Y-56442768D01*
X29717324Y-54849145D02*
X29685620Y-54860239D01*
X29510111Y-57467488D02*
X29601356Y-57511429D01*
X31583268Y-59315867D02*
X31682004Y-59293331D01*
X29580630Y-51291778D02*
X29405629Y-51466779D01*
X31110464Y-59067842D02*
X31173608Y-59147022D01*
X32112461Y-57356442D02*
X32133404Y-57382704D01*
X28088547Y-53860034D02*
X28055098Y-53955625D01*
X29669142Y-56442768D02*
X29648200Y-56469029D01*
X29787387Y-54648917D02*
X29798481Y-54680621D01*
X30401061Y-58358439D02*
X30492306Y-58402380D01*
X28908145Y-53519082D02*
X28890274Y-53547523D01*
X31221510Y-56465491D02*
X31242453Y-56491753D01*
X28088547Y-54307965D02*
X28142428Y-54393717D01*
X33239245Y-59847942D02*
X33239245Y-60061252D01*
X28967789Y-55120034D02*
X28934340Y-55215625D01*
X29798481Y-54680621D02*
X29802241Y-54714000D01*
X30175572Y-57786898D02*
X30153036Y-57885634D01*
X32639833Y-59185190D02*
X32683774Y-59276435D01*
X29262085Y-56994683D02*
X29262085Y-57095958D01*
X29685620Y-54567760D02*
X29717324Y-54578854D01*
X29717324Y-54578854D02*
X29745765Y-54596725D01*
X31926590Y-57335499D02*
X31956854Y-57320926D01*
X31065903Y-56429975D02*
X31098649Y-56422500D01*
X29405629Y-51466779D02*
X29209877Y-51466779D01*
X29991349Y-57467488D02*
X30070529Y-57404344D01*
X30882299Y-58358439D02*
X30961479Y-58295295D01*
X28395384Y-54552660D02*
X28496023Y-54564000D01*
X31481993Y-59315867D02*
X31583268Y-59315867D01*
X32683775Y-58795199D02*
X32639834Y-58886444D01*
X29209877Y-51466779D02*
X28923000Y-51753656D01*
X28923000Y-51753656D02*
X28923000Y-53454000D01*
X28919239Y-53487378D02*
X28908145Y-53519082D01*
X33024354Y-58433263D02*
X33003412Y-58459525D01*
X28890274Y-53547523D02*
X28866523Y-53571274D01*
X28806378Y-53600239D02*
X28773000Y-53604000D01*
X28496023Y-53604000D02*
X28395384Y-53615339D01*
X28395384Y-53615339D02*
X28299793Y-53648788D01*
X28299793Y-53648788D02*
X28214041Y-53702669D01*
X29691191Y-56346168D02*
X29691191Y-56379758D01*
X29179035Y-54908788D02*
X29093283Y-54962669D01*
X28214041Y-53702669D02*
X28142428Y-53774282D01*
X29021670Y-55034282D02*
X28967789Y-55120034D01*
X28043759Y-54056264D02*
X28043759Y-54111735D01*
X30153036Y-57986909D02*
X30175572Y-58085645D01*
X28055098Y-54212374D02*
X28088547Y-54307965D01*
X31009378Y-56465491D02*
X31035639Y-56444548D01*
X28299793Y-54519211D02*
X28395384Y-54552660D01*
X31164985Y-56429974D02*
X31195249Y-56444549D01*
X29802241Y-54714000D02*
X29798481Y-54747378D01*
X32133404Y-57382704D02*
X32147977Y-57412966D01*
X29787387Y-54779082D02*
X29769516Y-54807523D01*
X29745765Y-54831274D02*
X29717324Y-54849145D01*
X29685620Y-54860239D02*
X29652241Y-54864000D01*
X29093283Y-54962669D02*
X29021670Y-55034282D01*
X30549760Y-56925112D02*
X30549759Y-56925111D01*
X30070529Y-57404344D02*
X30549760Y-56925112D01*
X28934340Y-55215625D02*
X28923000Y-55316264D01*
X28923000Y-55316264D02*
X28923000Y-55531697D01*
X29683716Y-56313421D02*
X29691191Y-56346168D01*
X29691191Y-56379758D02*
X29683716Y-56412505D01*
X30791053Y-58402380D02*
X30882299Y-58358439D01*
X29284621Y-56895947D02*
X29262085Y-56994683D01*
X29262085Y-57095958D02*
X29284621Y-57194694D01*
X29284621Y-57194694D02*
X29328562Y-57285939D01*
X29328562Y-57285939D02*
X29391706Y-57365119D01*
X29391706Y-57365119D02*
X29430931Y-57404344D01*
X29601356Y-57511429D02*
X29700092Y-57533965D01*
X29700092Y-57533965D02*
X29801367Y-57533965D01*
X29900103Y-57511429D02*
X29991349Y-57467488D01*
X30666431Y-56808438D02*
X31009378Y-56465491D01*
X31440710Y-57816062D02*
X31557382Y-57699389D01*
X31098649Y-56422500D02*
X31132239Y-56422501D01*
X30282657Y-58256071D02*
X30321881Y-58295295D01*
X31132239Y-56422501D02*
X31164985Y-56429974D01*
X31195249Y-56444549D02*
X31221510Y-56465491D01*
X31242453Y-56491753D02*
X31257026Y-56522015D01*
X31257026Y-56522015D02*
X31264501Y-56554763D01*
X31264501Y-56554763D02*
X31264500Y-56588351D01*
X31257027Y-56621099D02*
X31242452Y-56651361D01*
X31221510Y-56677623D02*
X30761891Y-57137243D01*
X30282657Y-57616473D02*
X30219513Y-57695653D01*
X30219513Y-57695653D02*
X30175572Y-57786898D01*
X30175572Y-58085645D02*
X30219513Y-58176891D01*
X30321881Y-58295295D02*
X30401061Y-58358439D01*
X30492306Y-58402380D02*
X30591042Y-58424916D01*
X30692317Y-58424916D02*
X30791053Y-58402380D01*
X30961479Y-58295295D02*
X31440710Y-57816062D01*
X31557382Y-57699389D02*
X31900329Y-57356442D01*
X31956854Y-57320926D02*
X31989600Y-57313451D01*
X31989600Y-57313451D02*
X32023190Y-57313452D01*
X32023190Y-57313452D02*
X32055936Y-57320925D01*
X32055936Y-57320925D02*
X32086200Y-57335500D01*
X32147977Y-57412966D02*
X32155452Y-57445714D01*
X32155452Y-57445714D02*
X32155451Y-57479302D01*
X32155451Y-57479302D02*
X32147978Y-57512050D01*
X32112461Y-57568574D02*
X31652842Y-58028194D01*
X31652842Y-58028194D02*
X31652840Y-58028192D01*
X31652840Y-58028192D02*
X31173608Y-58507424D01*
X31173608Y-58507424D02*
X31110464Y-58586604D01*
X31110464Y-58586604D02*
X31066523Y-58677849D01*
X31066523Y-58677849D02*
X31043987Y-58776585D01*
X31043987Y-58877860D02*
X31066523Y-58976596D01*
X31173608Y-59147022D02*
X31212832Y-59186246D01*
X31212832Y-59186246D02*
X31292012Y-59249390D01*
X31292012Y-59249390D02*
X31383257Y-59293331D01*
X31383257Y-59293331D02*
X31481993Y-59315867D01*
X31773250Y-59249390D02*
X31852430Y-59186246D01*
X32554400Y-58484274D02*
X32791280Y-58247393D01*
X32791280Y-58247393D02*
X32817541Y-58226450D01*
X32817541Y-58226450D02*
X32847805Y-58211877D01*
X32847805Y-58211877D02*
X32880551Y-58204402D01*
X32914141Y-58204403D02*
X32946887Y-58211876D01*
X32617298Y-58985180D02*
X32617297Y-59086454D01*
X33003412Y-58247393D02*
X33024355Y-58273655D01*
X33038928Y-58303917D02*
X33046403Y-58336665D01*
X33003412Y-58459525D02*
X32746919Y-58716019D01*
X33046402Y-58370253D02*
X33038929Y-58403001D01*
X33038929Y-58403001D02*
X33024354Y-58433263D01*
X32746919Y-58716019D02*
X32683775Y-58795199D01*
X32683774Y-59276435D02*
X32746918Y-59355615D01*
X31515837Y-58976279D02*
X31549426Y-58976279D01*
X29580630Y-51971778D02*
X29405629Y-51796777D01*
X29405629Y-51796777D02*
X29346567Y-51796777D01*
X30030779Y-56312326D02*
X30030779Y-56413601D01*
X29082717Y-53835330D02*
X28996965Y-53889211D01*
X30795646Y-56212534D02*
X30874826Y-56149390D01*
X32247015Y-57040341D02*
X32326195Y-57103485D01*
X28430235Y-54201274D02*
X28458676Y-54219145D01*
X31537612Y-56330938D02*
X31581553Y-56422183D01*
X32365419Y-57142709D02*
X32428563Y-57221889D01*
X29346567Y-51796777D02*
X29253000Y-51890344D01*
X31549426Y-58976279D02*
X31582173Y-58968805D01*
X31474468Y-56251758D02*
X31537612Y-56330938D01*
X28901374Y-53922660D02*
X28800735Y-53934000D01*
X32495040Y-57411870D02*
X32495039Y-57513144D01*
X29964301Y-56122344D02*
X30008243Y-56213590D01*
X29876207Y-55149211D02*
X29780616Y-55182660D01*
X29601673Y-57062115D02*
X29609147Y-57094862D01*
X29154330Y-53763717D02*
X29082717Y-53835330D01*
X29253000Y-51890344D02*
X29253000Y-53481735D01*
X29679977Y-54234000D02*
X29780616Y-54245339D01*
X30008243Y-56213590D02*
X30030779Y-56312326D01*
X30120902Y-54842374D02*
X30087453Y-54937965D01*
X29780616Y-54245339D02*
X29876207Y-54278788D01*
X30878562Y-57487259D02*
X30535615Y-57830206D01*
X29601673Y-57028526D02*
X29601673Y-57062115D01*
X29253000Y-53481735D02*
X29241660Y-53582374D01*
X29241660Y-53582374D02*
X29208211Y-53677965D01*
X30033572Y-55023717D02*
X29961959Y-55095330D01*
X30132241Y-54741735D02*
X30120902Y-54842374D01*
X30087453Y-54490034D02*
X30120902Y-54585625D01*
X31383575Y-58810428D02*
X31383575Y-58844017D01*
X29208211Y-53677965D02*
X29154330Y-53763717D01*
X29309477Y-55226725D02*
X29285726Y-55250476D01*
X31638698Y-58933289D02*
X32577548Y-57994436D01*
X28377519Y-54117378D02*
X28388613Y-54149082D01*
X30721485Y-58063280D02*
X30747747Y-58042338D01*
X28458676Y-53948854D02*
X28430235Y-53966725D01*
X28388613Y-54149082D02*
X28406484Y-54177523D01*
X29285726Y-55250476D02*
X29267855Y-55278917D01*
X29961959Y-54332669D02*
X30033572Y-54404282D01*
X32057032Y-56973863D02*
X32155768Y-56996399D01*
X28996965Y-53889211D02*
X28901374Y-53922660D01*
X28800735Y-53934000D02*
X28523759Y-53934000D01*
X30033572Y-54404282D02*
X30087453Y-54490034D01*
X28406484Y-54177523D02*
X28430235Y-54201274D01*
X28490380Y-54230239D02*
X28523759Y-54234000D01*
X28430235Y-53966725D02*
X28406484Y-53990476D01*
X28523759Y-53934000D02*
X28490380Y-53937760D01*
X33363455Y-58204085D02*
X33385991Y-58302821D01*
X29253000Y-55395007D02*
X29901157Y-56043164D01*
X28490380Y-53937760D02*
X28458676Y-53948854D01*
X28406484Y-53990476D02*
X28388613Y-54018917D01*
X29876207Y-54278788D02*
X29961959Y-54332669D01*
X29830534Y-57172328D02*
X29856796Y-57151386D01*
X29267855Y-55278917D02*
X29256761Y-55310621D01*
X28388613Y-54018917D02*
X28377519Y-54050621D01*
X28523759Y-54234000D02*
X29679977Y-54234000D01*
X30691222Y-58077854D02*
X30721485Y-58063280D01*
X29780616Y-55182660D02*
X29679977Y-55194000D01*
X29256761Y-55310621D02*
X29253000Y-55344000D01*
X28377519Y-54050621D02*
X28373759Y-54084000D01*
X28373759Y-54084000D02*
X28377519Y-54117378D01*
X30624886Y-58085328D02*
X30658475Y-58085328D01*
X33236758Y-58692870D02*
X32999876Y-58929749D01*
X28458676Y-54219145D02*
X28490380Y-54230239D01*
X30120902Y-54585625D02*
X30132241Y-54686264D01*
X31581552Y-56720929D02*
X31537612Y-56812176D01*
X30132241Y-54686264D02*
X30132241Y-54741735D01*
X31955758Y-56973864D02*
X32057032Y-56973863D01*
X32656728Y-57931292D02*
X32747973Y-57887351D01*
X30087453Y-54937965D02*
X30033572Y-55023717D01*
X29961959Y-55095330D02*
X29876207Y-55149211D01*
X29670925Y-57172328D02*
X29701188Y-57186902D01*
X30030779Y-56413601D02*
X30008243Y-56512336D01*
X29679977Y-55194000D02*
X29403000Y-55194000D01*
X30874826Y-56149390D02*
X30966071Y-56105449D01*
X29403000Y-55194000D02*
X29369622Y-55197760D01*
X30500098Y-57985813D02*
X30514672Y-58016076D01*
X29369622Y-55197760D02*
X29337918Y-55208854D01*
X32345807Y-57801919D02*
X31769513Y-58378210D01*
X29701188Y-57186902D02*
X29733935Y-57194376D01*
X30561876Y-58063280D02*
X30592139Y-58077854D01*
X29337918Y-55208854D02*
X29309477Y-55226725D01*
X32428563Y-57703127D02*
X32365419Y-57782307D01*
X29253000Y-55344000D02*
X29253000Y-55395007D01*
X31604088Y-56622193D02*
X31581552Y-56720929D01*
X30747747Y-58042338D02*
X31686597Y-57103485D01*
X29901157Y-56043164D02*
X29964301Y-56122344D01*
X30008243Y-56512336D02*
X29964301Y-56603582D01*
X33256370Y-58673258D02*
X33236758Y-58692870D01*
X29964301Y-56603582D02*
X29901157Y-56682762D01*
X29901157Y-56682762D02*
X29644664Y-56939254D01*
X32472504Y-57313134D02*
X32495040Y-57411870D01*
X29644664Y-56939254D02*
X29623721Y-56965515D01*
X29733935Y-57194376D02*
X29767524Y-57194376D01*
X29623721Y-56965515D02*
X29609147Y-56995778D01*
X31454856Y-56910968D02*
X30878562Y-57487259D01*
X31686597Y-57103485D02*
X31765777Y-57040341D01*
X29609147Y-56995778D02*
X29601673Y-57028526D01*
X29609147Y-57094862D02*
X29623721Y-57125125D01*
X29623721Y-57125125D02*
X29644664Y-57151386D01*
X29644664Y-57151386D02*
X29670925Y-57172328D01*
X33319514Y-58112840D02*
X33363455Y-58204085D01*
X29767524Y-57194376D02*
X29800271Y-57186902D01*
X29800271Y-57186902D02*
X29830534Y-57172328D01*
X31604089Y-56520919D02*
X31604088Y-56622193D01*
X32978933Y-58956010D02*
X32964360Y-58986274D01*
X29856796Y-57151386D02*
X30433087Y-56575093D01*
X30433087Y-56575093D02*
X30795646Y-56212534D01*
X33319514Y-58594078D02*
X33256370Y-58673258D01*
X32964360Y-58986274D02*
X32956886Y-59019022D01*
X30966071Y-56105449D02*
X31064807Y-56082913D01*
X32978933Y-59115620D02*
X32999876Y-59141881D01*
X30492624Y-57953066D02*
X30500098Y-57985813D01*
X32495039Y-57513144D02*
X32472503Y-57611880D01*
X31064807Y-56082913D02*
X31166081Y-56082912D01*
X31435244Y-56212534D02*
X31474468Y-56251758D01*
X31166081Y-56082912D02*
X31264817Y-56105448D01*
X31264817Y-56105448D02*
X31356064Y-56149390D01*
X31356064Y-56149390D02*
X31435244Y-56212534D01*
X30535615Y-57830206D02*
X30514672Y-57856467D01*
X32747973Y-57887351D02*
X32846709Y-57864815D01*
X33217146Y-57994436D02*
X33256370Y-58033660D01*
X31581553Y-56422183D02*
X31604089Y-56520919D01*
X32472503Y-57611880D02*
X32428563Y-57703127D01*
X31537612Y-56812176D02*
X31474468Y-56891356D01*
X31474468Y-56891356D02*
X31454856Y-56910968D01*
X30514672Y-57856467D02*
X30500098Y-57886730D01*
X32428563Y-57221889D02*
X32472504Y-57313134D01*
X30500098Y-57886730D02*
X30492624Y-57919477D01*
X30492624Y-57919477D02*
X30492624Y-57953066D01*
X30514672Y-58016076D02*
X30535615Y-58042338D01*
X30535615Y-58042338D02*
X30561876Y-58063280D01*
X30592139Y-58077854D02*
X30624886Y-58085328D01*
X32326195Y-57103485D02*
X32365419Y-57142709D01*
X30658475Y-58085328D02*
X30691222Y-58077854D01*
X31765777Y-57040341D02*
X31857022Y-56996400D01*
X31857022Y-56996400D02*
X31955758Y-56973864D01*
X32155768Y-56996399D02*
X32247015Y-57040341D01*
X32365419Y-57782307D02*
X32345807Y-57801919D01*
X31769513Y-58378210D02*
X31426566Y-58721157D01*
X31426566Y-58721157D02*
X31405623Y-58747418D01*
X31405623Y-58747418D02*
X31391049Y-58777681D01*
X31391049Y-58777681D02*
X31383575Y-58810428D01*
X31383575Y-58844017D02*
X31391049Y-58876764D01*
X31391049Y-58876764D02*
X31405623Y-58907027D01*
X32577548Y-57994436D02*
X32656728Y-57931292D01*
X31405623Y-58907027D02*
X31426566Y-58933289D01*
X31426566Y-58933289D02*
X31452827Y-58954231D01*
X31452827Y-58954231D02*
X31483090Y-58968805D01*
X31483090Y-58968805D02*
X31515837Y-58976279D01*
X31582173Y-58968805D02*
X31612436Y-58954231D01*
X31612436Y-58954231D02*
X31638698Y-58933289D01*
X32846709Y-57864815D02*
X32947983Y-57864814D01*
X32947983Y-57864814D02*
X33046719Y-57887350D01*
X33046719Y-57887350D02*
X33137966Y-57931292D01*
X33137966Y-57931292D02*
X33217146Y-57994436D01*
X33256370Y-58033660D02*
X33319514Y-58112840D01*
X33385991Y-58302821D02*
X33385990Y-58404095D01*
X32999876Y-59141881D02*
X33664054Y-59806061D01*
X33385990Y-58404095D02*
X33363454Y-58502831D01*
X33363454Y-58502831D02*
X33319514Y-58594078D01*
X32999876Y-58929749D02*
X32978933Y-58956010D01*
X32956886Y-59019022D02*
X32956885Y-59052610D01*
X32956885Y-59052610D02*
X32964360Y-59085358D01*
X32964360Y-59085358D02*
X32978933Y-59115620D01*
X33664054Y-59806061D02*
X33919245Y-60061252D01*
X25896408Y-42125539D02*
X25646409Y-42375538D01*
X27346947Y-40675000D02*
X25896408Y-42125539D01*
X32475000Y-40675000D02*
X27346947Y-40675000D01*
X38074999Y-36574999D02*
X37825000Y-36325000D01*
X39700000Y-38200000D02*
X38074999Y-36574999D01*
X39700000Y-45900000D02*
X39700000Y-38200000D01*
X37049979Y-43744984D02*
X37049979Y-41703553D01*
X37475000Y-44170005D02*
X37049979Y-43744984D01*
X37475000Y-46925000D02*
X37475000Y-44170005D01*
X37049979Y-41703553D02*
X37049979Y-41350000D01*
X33900001Y-40874999D02*
X32375000Y-42400000D01*
X32375000Y-42400000D02*
X32325000Y-42400000D01*
X37775007Y-41372026D02*
X37277980Y-40874999D01*
X38000000Y-45675000D02*
X37775010Y-45675000D01*
X37775010Y-45675000D02*
X37775007Y-41372026D01*
X37277980Y-40874999D02*
X33900001Y-40874999D01*
X37599989Y-37649999D02*
X37349990Y-37400000D01*
X38674999Y-38725009D02*
X37599989Y-37649999D01*
X38425000Y-48850000D02*
X38674999Y-48600001D01*
X38674999Y-48600001D02*
X38674999Y-38725009D01*
D15*
G36*
X20454896Y-30801644D02*
X20454713Y-31011298D01*
X20534775Y-31205063D01*
X20682893Y-31353440D01*
X20876518Y-31433840D01*
X21086172Y-31434023D01*
X21279937Y-31353961D01*
X21428314Y-31205843D01*
X21490957Y-31054981D01*
X21552970Y-31205063D01*
X21701088Y-31353440D01*
X21894713Y-31433840D01*
X22104367Y-31434023D01*
X22298132Y-31353961D01*
X22446509Y-31205843D01*
X22500032Y-31076944D01*
X22552970Y-31205063D01*
X22701088Y-31353440D01*
X22894713Y-31433840D01*
X23104367Y-31434023D01*
X23298132Y-31353961D01*
X23446509Y-31205843D01*
X23500032Y-31076944D01*
X23552970Y-31205063D01*
X23701088Y-31353440D01*
X23894713Y-31433840D01*
X24104367Y-31434023D01*
X24298132Y-31353961D01*
X24446509Y-31205843D01*
X24500032Y-31076944D01*
X24552970Y-31205063D01*
X24701088Y-31353440D01*
X24894713Y-31433840D01*
X25104367Y-31434023D01*
X25298132Y-31353961D01*
X25446509Y-31205843D01*
X25500032Y-31076944D01*
X25552970Y-31205063D01*
X25701088Y-31353440D01*
X25894713Y-31433840D01*
X26104367Y-31434023D01*
X26298132Y-31353961D01*
X26446509Y-31205843D01*
X26526909Y-31012218D01*
X26527092Y-30802564D01*
X26454550Y-30627000D01*
X31542731Y-30627000D01*
X31473091Y-30794713D01*
X31472908Y-31004367D01*
X31552970Y-31198132D01*
X31701088Y-31346509D01*
X31894713Y-31426909D01*
X32104367Y-31427092D01*
X32298132Y-31347030D01*
X32446509Y-31198912D01*
X32500032Y-31070013D01*
X32552970Y-31198132D01*
X32701088Y-31346509D01*
X32894713Y-31426909D01*
X33104367Y-31427092D01*
X33298132Y-31347030D01*
X33446509Y-31198912D01*
X33500032Y-31070013D01*
X33552970Y-31198132D01*
X33701088Y-31346509D01*
X33894713Y-31426909D01*
X34104367Y-31427092D01*
X34298132Y-31347030D01*
X34446509Y-31198912D01*
X34500032Y-31070013D01*
X34552970Y-31198132D01*
X34701088Y-31346509D01*
X34894713Y-31426909D01*
X35104367Y-31427092D01*
X35298132Y-31347030D01*
X35446509Y-31198912D01*
X35500032Y-31070013D01*
X35552970Y-31198132D01*
X35701088Y-31346509D01*
X35894713Y-31426909D01*
X36104367Y-31427092D01*
X36298132Y-31347030D01*
X36446509Y-31198912D01*
X36500032Y-31070013D01*
X36552970Y-31198132D01*
X36701088Y-31346509D01*
X36894713Y-31426909D01*
X37104367Y-31427092D01*
X37298132Y-31347030D01*
X37446509Y-31198912D01*
X37500032Y-31070013D01*
X37552970Y-31198132D01*
X37701088Y-31346509D01*
X37894713Y-31426909D01*
X38104367Y-31427092D01*
X38298132Y-31347030D01*
X38446509Y-31198912D01*
X38500032Y-31070013D01*
X38552970Y-31198132D01*
X38701088Y-31346509D01*
X38894713Y-31426909D01*
X39104367Y-31427092D01*
X39298132Y-31347030D01*
X39446509Y-31198912D01*
X39500032Y-31070013D01*
X39552970Y-31198132D01*
X39701088Y-31346509D01*
X39894713Y-31426909D01*
X40104367Y-31427092D01*
X40298132Y-31347030D01*
X40446509Y-31198912D01*
X40500032Y-31070013D01*
X40552970Y-31198132D01*
X40701088Y-31346509D01*
X40894713Y-31426909D01*
X41104367Y-31427092D01*
X41298132Y-31347030D01*
X41446509Y-31198912D01*
X41500032Y-31070013D01*
X41552970Y-31198132D01*
X41701088Y-31346509D01*
X41894713Y-31426909D01*
X42104367Y-31427092D01*
X42298132Y-31347030D01*
X42446509Y-31198912D01*
X42500032Y-31070013D01*
X42552970Y-31198132D01*
X42701088Y-31346509D01*
X42894713Y-31426909D01*
X43104367Y-31427092D01*
X43298132Y-31347030D01*
X43446509Y-31198912D01*
X43500032Y-31070013D01*
X43552970Y-31198132D01*
X43701088Y-31346509D01*
X43894713Y-31426909D01*
X44104367Y-31427092D01*
X44298132Y-31347030D01*
X44446509Y-31198912D01*
X44500032Y-31070013D01*
X44552970Y-31198132D01*
X44701088Y-31346509D01*
X44894713Y-31426909D01*
X45104367Y-31427092D01*
X45298132Y-31347030D01*
X45446509Y-31198912D01*
X45500032Y-31070013D01*
X45552970Y-31198132D01*
X45701088Y-31346509D01*
X45894713Y-31426909D01*
X46104367Y-31427092D01*
X46298132Y-31347030D01*
X46446509Y-31198912D01*
X46526909Y-31005287D01*
X46527092Y-30795633D01*
X46457414Y-30627000D01*
X46673000Y-30627000D01*
X46673000Y-66967793D01*
X46539731Y-67637778D01*
X46178460Y-68178460D01*
X45637778Y-68539731D01*
X44967792Y-68673000D01*
X38577000Y-68673000D01*
X38577000Y-64750000D01*
X38566994Y-64700590D01*
X38538553Y-64658965D01*
X38496159Y-64631685D01*
X38450000Y-64623000D01*
X36272793Y-64623000D01*
X36238030Y-64538868D01*
X36089912Y-64390491D01*
X35896287Y-64310091D01*
X35686633Y-64309908D01*
X35492868Y-64389970D01*
X35344491Y-64538088D01*
X35309233Y-64623000D01*
X34379051Y-64623000D01*
X34379092Y-64575633D01*
X34299030Y-64381868D01*
X34150912Y-64233491D01*
X33957287Y-64153091D01*
X33747633Y-64152908D01*
X33553868Y-64232970D01*
X33405491Y-64381088D01*
X33325091Y-64574713D01*
X33325049Y-64623000D01*
X32951216Y-64623000D01*
X32947030Y-64612868D01*
X32798912Y-64464491D01*
X32605287Y-64384091D01*
X32395633Y-64383908D01*
X32201868Y-64463970D01*
X32080964Y-64584662D01*
X32012912Y-64516491D01*
X31819287Y-64436091D01*
X31609633Y-64435908D01*
X31415868Y-64515970D01*
X31308651Y-64623000D01*
X28933878Y-64623000D01*
X28986909Y-64495287D01*
X28987092Y-64285633D01*
X28907030Y-64091868D01*
X28758912Y-63943491D01*
X28565287Y-63863091D01*
X28355633Y-63862908D01*
X28161868Y-63942970D01*
X28013491Y-64091088D01*
X27933091Y-64284713D01*
X27932908Y-64494367D01*
X28012970Y-64688132D01*
X28161088Y-64836509D01*
X28298000Y-64893360D01*
X28298000Y-68673000D01*
X22032207Y-68673000D01*
X21362222Y-68539731D01*
X20821540Y-68178460D01*
X20460269Y-67637778D01*
X20327000Y-66967792D01*
X20327000Y-63804367D01*
X40472908Y-63804367D01*
X40552970Y-63998132D01*
X40701088Y-64146509D01*
X40894713Y-64226909D01*
X41104367Y-64227092D01*
X41298132Y-64147030D01*
X41446509Y-63998912D01*
X41526909Y-63805287D01*
X41527092Y-63595633D01*
X41447030Y-63401868D01*
X41298912Y-63253491D01*
X41105287Y-63173091D01*
X40895633Y-63172908D01*
X40701868Y-63252970D01*
X40553491Y-63401088D01*
X40473091Y-63594713D01*
X40472908Y-63804367D01*
X20327000Y-63804367D01*
X20327000Y-62883191D01*
X21122805Y-62883191D01*
X21294019Y-63297560D01*
X21610772Y-63614867D01*
X22024842Y-63786804D01*
X22473191Y-63787195D01*
X22887560Y-63615981D01*
X23204867Y-63299228D01*
X23272077Y-63137367D01*
X33022908Y-63137367D01*
X33102970Y-63331132D01*
X33251088Y-63479509D01*
X33444713Y-63559909D01*
X33654367Y-63560092D01*
X33848132Y-63480030D01*
X33996509Y-63331912D01*
X34076909Y-63138287D01*
X34077092Y-62928633D01*
X33997030Y-62734868D01*
X33848912Y-62586491D01*
X33655287Y-62506091D01*
X33445633Y-62505908D01*
X33251868Y-62585970D01*
X33103491Y-62734088D01*
X33023091Y-62927713D01*
X33022908Y-63137367D01*
X23272077Y-63137367D01*
X23324135Y-63012000D01*
X32619995Y-63012000D01*
X32620000Y-63012001D01*
X32754705Y-62985206D01*
X32868902Y-62908902D01*
X33550803Y-62227000D01*
X38866744Y-62227000D01*
X38961088Y-62321509D01*
X39154713Y-62401909D01*
X39364367Y-62402092D01*
X39558132Y-62322030D01*
X39706509Y-62173912D01*
X39786909Y-61980287D01*
X39787092Y-61770633D01*
X39707030Y-61576868D01*
X39558912Y-61428491D01*
X39365287Y-61348091D01*
X39155633Y-61347908D01*
X38961868Y-61427970D01*
X38866672Y-61523000D01*
X33405005Y-61523000D01*
X33405000Y-61522999D01*
X33292644Y-61545348D01*
X33270295Y-61549794D01*
X33156098Y-61626098D01*
X33156096Y-61626101D01*
X32474196Y-62308000D01*
X23323972Y-62308000D01*
X23205981Y-62022440D01*
X22889228Y-61705133D01*
X22475158Y-61533196D01*
X22026809Y-61532805D01*
X21612440Y-61704019D01*
X21295133Y-62020772D01*
X21123196Y-62434842D01*
X21122805Y-62883191D01*
X20327000Y-62883191D01*
X20327000Y-60120000D01*
X21100921Y-60120000D01*
X21186709Y-60551284D01*
X21431012Y-60916909D01*
X21796637Y-61161212D01*
X22227921Y-61247000D01*
X22272079Y-61247000D01*
X22703363Y-61161212D01*
X23012928Y-60954367D01*
X28197908Y-60954367D01*
X28277970Y-61148132D01*
X28426088Y-61296509D01*
X28619713Y-61376909D01*
X28829367Y-61377092D01*
X29023132Y-61297030D01*
X29171509Y-61148912D01*
X29251909Y-60955287D01*
X29252092Y-60745633D01*
X29172030Y-60551868D01*
X29023912Y-60403491D01*
X28830287Y-60323091D01*
X28620633Y-60322908D01*
X28426868Y-60402970D01*
X28278491Y-60551088D01*
X28198091Y-60744713D01*
X28197908Y-60954367D01*
X23012928Y-60954367D01*
X23068988Y-60916909D01*
X23313291Y-60551284D01*
X23399079Y-60120000D01*
X23313291Y-59688716D01*
X23068988Y-59323091D01*
X22703363Y-59078788D01*
X22272079Y-58993000D01*
X22227921Y-58993000D01*
X21796637Y-59078788D01*
X21431012Y-59323091D01*
X21186709Y-59688716D01*
X21100921Y-60120000D01*
X20327000Y-60120000D01*
X20327000Y-57580000D01*
X21100921Y-57580000D01*
X21186709Y-58011284D01*
X21431012Y-58376909D01*
X21796637Y-58621212D01*
X22227921Y-58707000D01*
X22272079Y-58707000D01*
X22285315Y-58704367D01*
X27472908Y-58704367D01*
X27552970Y-58898132D01*
X27701088Y-59046509D01*
X27894713Y-59126909D01*
X28104367Y-59127092D01*
X28298132Y-59047030D01*
X28446509Y-58898912D01*
X28526909Y-58705287D01*
X28527092Y-58495633D01*
X28447030Y-58301868D01*
X28298912Y-58153491D01*
X28105287Y-58073091D01*
X27895633Y-58072908D01*
X27701868Y-58152970D01*
X27553491Y-58301088D01*
X27473091Y-58494713D01*
X27472908Y-58704367D01*
X22285315Y-58704367D01*
X22703363Y-58621212D01*
X23068988Y-58376909D01*
X23313291Y-58011284D01*
X23399079Y-57580000D01*
X23313291Y-57148716D01*
X23068988Y-56783091D01*
X22703363Y-56538788D01*
X22272079Y-56453000D01*
X22227921Y-56453000D01*
X21796637Y-56538788D01*
X21431012Y-56783091D01*
X21186709Y-57148716D01*
X21100921Y-57580000D01*
X20327000Y-57580000D01*
X20327000Y-55040000D01*
X21100921Y-55040000D01*
X21186709Y-55471284D01*
X21431012Y-55836909D01*
X21796637Y-56081212D01*
X22227921Y-56167000D01*
X22272079Y-56167000D01*
X22703363Y-56081212D01*
X23068988Y-55836909D01*
X23313291Y-55471284D01*
X23399079Y-55040000D01*
X23394974Y-55019360D01*
X26153459Y-55019360D01*
X26233521Y-55213125D01*
X26381639Y-55361502D01*
X26575264Y-55441902D01*
X26784918Y-55442085D01*
X26978683Y-55362023D01*
X27127060Y-55213905D01*
X27207460Y-55020280D01*
X27207643Y-54810626D01*
X27127581Y-54616861D01*
X26979463Y-54468484D01*
X26785838Y-54388084D01*
X26576184Y-54387901D01*
X26382419Y-54467963D01*
X26234042Y-54616081D01*
X26153642Y-54809706D01*
X26153459Y-55019360D01*
X23394974Y-55019360D01*
X23313291Y-54608716D01*
X23068988Y-54243091D01*
X22789382Y-54056264D01*
X27691759Y-54056264D01*
X27691759Y-54111735D01*
X27695647Y-54131283D01*
X27693972Y-54151145D01*
X27705311Y-54251785D01*
X27717322Y-54289468D01*
X27722851Y-54328633D01*
X27756300Y-54424224D01*
X27776395Y-54458291D01*
X27790499Y-54495239D01*
X27844380Y-54580991D01*
X27871551Y-54609731D01*
X27893526Y-54642619D01*
X27965139Y-54714232D01*
X27998027Y-54736207D01*
X28026767Y-54763378D01*
X28112519Y-54817259D01*
X28149469Y-54831363D01*
X28183534Y-54851458D01*
X28279125Y-54884907D01*
X28318290Y-54890436D01*
X28355970Y-54902446D01*
X28456609Y-54913786D01*
X28476471Y-54912111D01*
X28496023Y-54916000D01*
X28680272Y-54916000D01*
X28669741Y-54932760D01*
X28655637Y-54969708D01*
X28635542Y-55003775D01*
X28602093Y-55099366D01*
X28596564Y-55138531D01*
X28584554Y-55176211D01*
X28573214Y-55276850D01*
X28574889Y-55296712D01*
X28571000Y-55316264D01*
X28571000Y-55531692D01*
X28570999Y-55531697D01*
X28597794Y-55666402D01*
X28674098Y-55780599D01*
X29256463Y-56362963D01*
X29142805Y-56476620D01*
X29131731Y-56493194D01*
X29116501Y-56506054D01*
X29053357Y-56585233D01*
X29035202Y-56620376D01*
X29011421Y-56651976D01*
X28967480Y-56743221D01*
X28957602Y-56781515D01*
X28941446Y-56817619D01*
X28918910Y-56916355D01*
X28917801Y-56955893D01*
X28910085Y-56994683D01*
X28910085Y-57095958D01*
X28917801Y-57134748D01*
X28918910Y-57174286D01*
X28941446Y-57273022D01*
X28957602Y-57309126D01*
X28967480Y-57347420D01*
X29011421Y-57438665D01*
X29035202Y-57470265D01*
X29053357Y-57505408D01*
X29116501Y-57584587D01*
X29131729Y-57597446D01*
X29142804Y-57614021D01*
X29182030Y-57653246D01*
X29198601Y-57664319D01*
X29211462Y-57679549D01*
X29290642Y-57742693D01*
X29325785Y-57760848D01*
X29357385Y-57784629D01*
X29448630Y-57828570D01*
X29486924Y-57838448D01*
X29523028Y-57854604D01*
X29621764Y-57877139D01*
X29661298Y-57878249D01*
X29700092Y-57885965D01*
X29801036Y-57885965D01*
X29801036Y-57986909D01*
X29808752Y-58025699D01*
X29809861Y-58065237D01*
X29832397Y-58163973D01*
X29848552Y-58200075D01*
X29858430Y-58238370D01*
X29902371Y-58329616D01*
X29926153Y-58361218D01*
X29944308Y-58396360D01*
X30007452Y-58475539D01*
X30022680Y-58488398D01*
X30033755Y-58504973D01*
X30072979Y-58544197D01*
X30089552Y-58555271D01*
X30102412Y-58570500D01*
X30181592Y-58633644D01*
X30216735Y-58651799D01*
X30248335Y-58675580D01*
X30339580Y-58719521D01*
X30377874Y-58729399D01*
X30413978Y-58745555D01*
X30512714Y-58768090D01*
X30552248Y-58769200D01*
X30591042Y-58776916D01*
X30691987Y-58776916D01*
X30691987Y-58877860D01*
X30699703Y-58916650D01*
X30700812Y-58956188D01*
X30723348Y-59054924D01*
X30739503Y-59091026D01*
X30749381Y-59129321D01*
X30793322Y-59220567D01*
X30817104Y-59252169D01*
X30835259Y-59287311D01*
X30898403Y-59366490D01*
X30913631Y-59379349D01*
X30924706Y-59395924D01*
X30963930Y-59435148D01*
X30980503Y-59446222D01*
X30993363Y-59461451D01*
X31072543Y-59524595D01*
X31107686Y-59542750D01*
X31139286Y-59566531D01*
X31230531Y-59610472D01*
X31268825Y-59620350D01*
X31304929Y-59636506D01*
X31403665Y-59659041D01*
X31443199Y-59660151D01*
X31481993Y-59667867D01*
X31583268Y-59667867D01*
X31622058Y-59660151D01*
X31661596Y-59659042D01*
X31760332Y-59636506D01*
X31796434Y-59620351D01*
X31834729Y-59610473D01*
X31925975Y-59566532D01*
X31957577Y-59542750D01*
X31992719Y-59524595D01*
X32071898Y-59461451D01*
X32084758Y-59446221D01*
X32101332Y-59435147D01*
X32292254Y-59244224D01*
X32296658Y-59263518D01*
X32312814Y-59299622D01*
X32322692Y-59337916D01*
X32366633Y-59429161D01*
X32390414Y-59460761D01*
X32408569Y-59495904D01*
X32471713Y-59575083D01*
X32486941Y-59587942D01*
X32498016Y-59604517D01*
X32752570Y-59859071D01*
X32712336Y-59955965D01*
X32712153Y-60165619D01*
X32792215Y-60359384D01*
X32940333Y-60507761D01*
X33133958Y-60588161D01*
X33343612Y-60588344D01*
X33537377Y-60508282D01*
X33579188Y-60466544D01*
X33620333Y-60507761D01*
X33813958Y-60588161D01*
X34023612Y-60588344D01*
X34217377Y-60508282D01*
X34365754Y-60360164D01*
X34446154Y-60166539D01*
X34446337Y-59956885D01*
X34366275Y-59763120D01*
X34218157Y-59614743D01*
X34024532Y-59534343D01*
X33890022Y-59534226D01*
X33391614Y-59035816D01*
X33418115Y-59009315D01*
X34086154Y-59009315D01*
X34166216Y-59203080D01*
X34314334Y-59351457D01*
X34507959Y-59431857D01*
X34717613Y-59432040D01*
X34911378Y-59351978D01*
X35059755Y-59203860D01*
X35140155Y-59010235D01*
X35140338Y-58800581D01*
X35060276Y-58606816D01*
X34912158Y-58458439D01*
X34718533Y-58378039D01*
X34508879Y-58377856D01*
X34315114Y-58457918D01*
X34166737Y-58606036D01*
X34086337Y-58799661D01*
X34086154Y-59009315D01*
X33418115Y-59009315D01*
X33485657Y-58941774D01*
X33485660Y-58941772D01*
X33505272Y-58922159D01*
X33516345Y-58905588D01*
X33531575Y-58892727D01*
X33594719Y-58813547D01*
X33612875Y-58778403D01*
X33636658Y-58746799D01*
X33680598Y-58655551D01*
X33690475Y-58617260D01*
X33706629Y-58581159D01*
X33729164Y-58482423D01*
X33730273Y-58442891D01*
X33737990Y-58404098D01*
X33737991Y-58302824D01*
X33730275Y-58264029D01*
X33729165Y-58224493D01*
X33706630Y-58125757D01*
X33690474Y-58089653D01*
X33680596Y-58051359D01*
X33636655Y-57960114D01*
X33612874Y-57928514D01*
X33594719Y-57893371D01*
X33531575Y-57814191D01*
X33516346Y-57801331D01*
X33505272Y-57784758D01*
X33466048Y-57745534D01*
X33449473Y-57734459D01*
X33436614Y-57719231D01*
X33357435Y-57656087D01*
X33322295Y-57637933D01*
X33290692Y-57614150D01*
X33199445Y-57570209D01*
X33161151Y-57560331D01*
X33125047Y-57544175D01*
X33026311Y-57521639D01*
X32986771Y-57520530D01*
X32947980Y-57512814D01*
X32847039Y-57512815D01*
X32847040Y-57411873D01*
X32839324Y-57373078D01*
X32838214Y-57333542D01*
X32815679Y-57234806D01*
X32799523Y-57198702D01*
X32789645Y-57160408D01*
X32745704Y-57069163D01*
X32721923Y-57037563D01*
X32703768Y-57002420D01*
X32640624Y-56923240D01*
X32625395Y-56910380D01*
X32614321Y-56893807D01*
X32575097Y-56854583D01*
X32558522Y-56843508D01*
X32545663Y-56828280D01*
X32466484Y-56765136D01*
X32431344Y-56746982D01*
X32399741Y-56723199D01*
X32308494Y-56679258D01*
X32270200Y-56669380D01*
X32234096Y-56653224D01*
X32135360Y-56630688D01*
X32095820Y-56629579D01*
X32057029Y-56621863D01*
X31956088Y-56621864D01*
X31956088Y-56529367D01*
X32897908Y-56529367D01*
X32977970Y-56723132D01*
X33126088Y-56871509D01*
X33319713Y-56951909D01*
X33529367Y-56952092D01*
X33723132Y-56872030D01*
X33871509Y-56723912D01*
X33951909Y-56530287D01*
X33952092Y-56320633D01*
X33872030Y-56126868D01*
X33723912Y-55978491D01*
X33530287Y-55898091D01*
X33320633Y-55897908D01*
X33126868Y-55977970D01*
X32978491Y-56126088D01*
X32898091Y-56319713D01*
X32897908Y-56529367D01*
X31956088Y-56529367D01*
X31956089Y-56520922D01*
X31948373Y-56482127D01*
X31947263Y-56442591D01*
X31924728Y-56343855D01*
X31908572Y-56307751D01*
X31898694Y-56269457D01*
X31854753Y-56178212D01*
X31830972Y-56146612D01*
X31812817Y-56111469D01*
X31749673Y-56032289D01*
X31734444Y-56019429D01*
X31723370Y-56002856D01*
X31684146Y-55963632D01*
X31667571Y-55952557D01*
X31654712Y-55937329D01*
X31575533Y-55874185D01*
X31540393Y-55856031D01*
X31508790Y-55832248D01*
X31417543Y-55788307D01*
X31379249Y-55778429D01*
X31343145Y-55762273D01*
X31244409Y-55739737D01*
X31204869Y-55738628D01*
X31166078Y-55730912D01*
X31064804Y-55730913D01*
X31026011Y-55738630D01*
X30986479Y-55739739D01*
X30887743Y-55762274D01*
X30851639Y-55778430D01*
X30813345Y-55788308D01*
X30722100Y-55832249D01*
X30690500Y-55856030D01*
X30655357Y-55874185D01*
X30576177Y-55937329D01*
X30563316Y-55952560D01*
X30546745Y-55963632D01*
X30355821Y-56154555D01*
X30351418Y-56135262D01*
X30335263Y-56099159D01*
X30325384Y-56060863D01*
X30281442Y-55969616D01*
X30257659Y-55938014D01*
X30239506Y-55902875D01*
X30176362Y-55823695D01*
X30161131Y-55810834D01*
X30150058Y-55794262D01*
X29873941Y-55518145D01*
X29896875Y-55514907D01*
X29992466Y-55481458D01*
X30026533Y-55461363D01*
X30063481Y-55447259D01*
X30149233Y-55393378D01*
X30177973Y-55366207D01*
X30210861Y-55344232D01*
X30282474Y-55272619D01*
X30304449Y-55239731D01*
X30331620Y-55210991D01*
X30385501Y-55125239D01*
X30399605Y-55088289D01*
X30419700Y-55054224D01*
X30433613Y-55014462D01*
X30601873Y-55014462D01*
X30681935Y-55208227D01*
X30830053Y-55356604D01*
X31023678Y-55437004D01*
X31233332Y-55437187D01*
X31262657Y-55425070D01*
X31334164Y-55598131D01*
X31482282Y-55746508D01*
X31675907Y-55826908D01*
X31885561Y-55827091D01*
X32079326Y-55747029D01*
X32164457Y-55662047D01*
X32318008Y-55725807D01*
X32527662Y-55725990D01*
X32638799Y-55680069D01*
X32756287Y-55797762D01*
X32949912Y-55878162D01*
X33159566Y-55878345D01*
X33353331Y-55798283D01*
X33501708Y-55650165D01*
X33578041Y-55466334D01*
X33706299Y-55594816D01*
X33899924Y-55675216D01*
X34109578Y-55675399D01*
X34303343Y-55595337D01*
X34392825Y-55506011D01*
X34540952Y-55567519D01*
X34750606Y-55567702D01*
X34944371Y-55487640D01*
X35047362Y-55384829D01*
X35178160Y-55439141D01*
X35387814Y-55439324D01*
X35581579Y-55359262D01*
X35692110Y-55248924D01*
X35819713Y-55301909D01*
X36007290Y-55302073D01*
X36077970Y-55473132D01*
X36226088Y-55621509D01*
X36419713Y-55701909D01*
X36629367Y-55702092D01*
X36823132Y-55622030D01*
X36971509Y-55473912D01*
X37051909Y-55280287D01*
X37052092Y-55070633D01*
X36972030Y-54876868D01*
X36823912Y-54728491D01*
X36630287Y-54648091D01*
X36442710Y-54647927D01*
X36372030Y-54476868D01*
X36223912Y-54328491D01*
X36030287Y-54248091D01*
X35820633Y-54247908D01*
X35626868Y-54327970D01*
X35516337Y-54438308D01*
X35388734Y-54385323D01*
X35179080Y-54385140D01*
X34985315Y-54465202D01*
X34882324Y-54568013D01*
X34751526Y-54513701D01*
X34541872Y-54513518D01*
X34348107Y-54593580D01*
X34258625Y-54682906D01*
X34110498Y-54621398D01*
X33900844Y-54621215D01*
X33707079Y-54701277D01*
X33558702Y-54849395D01*
X33482369Y-55033226D01*
X33354111Y-54904744D01*
X33160486Y-54824344D01*
X32950832Y-54824161D01*
X32839695Y-54870082D01*
X32722207Y-54752389D01*
X32528582Y-54671989D01*
X32318928Y-54671806D01*
X32125163Y-54751868D01*
X32040032Y-54836850D01*
X31886481Y-54773090D01*
X31676827Y-54772907D01*
X31647502Y-54785024D01*
X31575995Y-54611963D01*
X31427877Y-54463586D01*
X31234252Y-54383186D01*
X31024598Y-54383003D01*
X30830833Y-54463065D01*
X30682456Y-54611183D01*
X30602056Y-54804808D01*
X30601873Y-55014462D01*
X30433613Y-55014462D01*
X30453149Y-54958633D01*
X30458679Y-54919467D01*
X30470689Y-54881784D01*
X30482028Y-54781145D01*
X30480353Y-54761283D01*
X30484241Y-54741735D01*
X30484241Y-54686264D01*
X30480353Y-54666716D01*
X30482028Y-54646854D01*
X30470689Y-54546215D01*
X30458679Y-54508532D01*
X30453149Y-54469366D01*
X30419700Y-54373775D01*
X30399605Y-54339710D01*
X30385501Y-54302760D01*
X30331620Y-54217008D01*
X30304449Y-54188268D01*
X30282474Y-54155380D01*
X30256461Y-54129367D01*
X37272908Y-54129367D01*
X37352970Y-54323132D01*
X37501088Y-54471509D01*
X37694713Y-54551909D01*
X37904367Y-54552092D01*
X38098132Y-54472030D01*
X38246509Y-54323912D01*
X38326909Y-54130287D01*
X38327092Y-53920633D01*
X38247030Y-53726868D01*
X38098912Y-53578491D01*
X37905287Y-53498091D01*
X37695633Y-53497908D01*
X37501868Y-53577970D01*
X37353491Y-53726088D01*
X37273091Y-53919713D01*
X37272908Y-54129367D01*
X30256461Y-54129367D01*
X30210861Y-54083767D01*
X30177973Y-54061792D01*
X30149233Y-54034621D01*
X30063481Y-53980740D01*
X30026533Y-53966636D01*
X29992466Y-53946541D01*
X29896875Y-53913092D01*
X29857710Y-53907563D01*
X29820027Y-53895552D01*
X29719387Y-53884213D01*
X29699525Y-53885888D01*
X29679977Y-53882000D01*
X29495727Y-53882000D01*
X29506259Y-53865239D01*
X29520363Y-53828289D01*
X29540458Y-53794224D01*
X29573907Y-53698633D01*
X29579436Y-53659468D01*
X29591446Y-53621788D01*
X29602786Y-53521149D01*
X29601111Y-53501287D01*
X29605000Y-53481735D01*
X29605000Y-52641867D01*
X31710408Y-52641867D01*
X31790470Y-52835632D01*
X31938588Y-52984009D01*
X32132213Y-53064409D01*
X32341867Y-53064592D01*
X32535632Y-52984530D01*
X32684009Y-52836412D01*
X32764409Y-52642787D01*
X32764409Y-52641867D01*
X32997908Y-52641867D01*
X33077970Y-52835632D01*
X33226088Y-52984009D01*
X33419713Y-53064409D01*
X33629367Y-53064592D01*
X33823132Y-52984530D01*
X33971509Y-52836412D01*
X34051909Y-52642787D01*
X34051909Y-52641867D01*
X34285408Y-52641867D01*
X34365470Y-52835632D01*
X34513588Y-52984009D01*
X34707213Y-53064409D01*
X34916867Y-53064592D01*
X35110632Y-52984530D01*
X35259009Y-52836412D01*
X35339409Y-52642787D01*
X35339409Y-52641867D01*
X35572908Y-52641867D01*
X35652970Y-52835632D01*
X35801088Y-52984009D01*
X35994713Y-53064409D01*
X36204367Y-53064592D01*
X36398132Y-52984530D01*
X36546509Y-52836412D01*
X36626909Y-52642787D01*
X36627068Y-52460617D01*
X37791658Y-52460617D01*
X37871720Y-52654382D01*
X38019838Y-52802759D01*
X38213463Y-52883159D01*
X38423117Y-52883342D01*
X38616882Y-52803280D01*
X38765259Y-52655162D01*
X38845659Y-52461537D01*
X38845842Y-52251883D01*
X38765780Y-52058118D01*
X38689015Y-51981219D01*
X38796509Y-51873912D01*
X38876909Y-51680287D01*
X38877092Y-51470633D01*
X38797030Y-51276868D01*
X38648912Y-51128491D01*
X38455287Y-51048091D01*
X38245633Y-51047908D01*
X38051868Y-51127970D01*
X37903491Y-51276088D01*
X37823091Y-51469713D01*
X37822908Y-51679367D01*
X37902970Y-51873132D01*
X37979735Y-51950031D01*
X37872241Y-52057338D01*
X37791841Y-52250963D01*
X37791658Y-52460617D01*
X36627068Y-52460617D01*
X36627092Y-52433133D01*
X36547030Y-52239368D01*
X36398912Y-52090991D01*
X36205287Y-52010591D01*
X35995633Y-52010408D01*
X35801868Y-52090470D01*
X35653491Y-52238588D01*
X35573091Y-52432213D01*
X35572908Y-52641867D01*
X35339409Y-52641867D01*
X35339592Y-52433133D01*
X35259530Y-52239368D01*
X35111412Y-52090991D01*
X34917787Y-52010591D01*
X34708133Y-52010408D01*
X34514368Y-52090470D01*
X34365991Y-52238588D01*
X34285591Y-52432213D01*
X34285408Y-52641867D01*
X34051909Y-52641867D01*
X34052092Y-52433133D01*
X33972030Y-52239368D01*
X33823912Y-52090991D01*
X33630287Y-52010591D01*
X33420633Y-52010408D01*
X33226868Y-52090470D01*
X33078491Y-52238588D01*
X32998091Y-52432213D01*
X32997908Y-52641867D01*
X32764409Y-52641867D01*
X32764592Y-52433133D01*
X32684530Y-52239368D01*
X32536412Y-52090991D01*
X32342787Y-52010591D01*
X32133133Y-52010408D01*
X31939368Y-52090470D01*
X31790991Y-52238588D01*
X31710591Y-52432213D01*
X31710408Y-52641867D01*
X29605000Y-52641867D01*
X29605000Y-52498800D01*
X29684997Y-52498870D01*
X29878762Y-52418808D01*
X30027139Y-52270690D01*
X30107539Y-52077065D01*
X30107722Y-51867411D01*
X30027660Y-51673646D01*
X29985922Y-51631835D01*
X30027139Y-51590690D01*
X30107539Y-51397065D01*
X30107576Y-51354367D01*
X31710408Y-51354367D01*
X31790470Y-51548132D01*
X31938588Y-51696509D01*
X32132213Y-51776909D01*
X32341867Y-51777092D01*
X32535632Y-51697030D01*
X32684009Y-51548912D01*
X32764409Y-51355287D01*
X32764409Y-51354367D01*
X32997908Y-51354367D01*
X33077970Y-51548132D01*
X33226088Y-51696509D01*
X33419713Y-51776909D01*
X33629367Y-51777092D01*
X33823132Y-51697030D01*
X33971509Y-51548912D01*
X34051909Y-51355287D01*
X34051909Y-51354367D01*
X34285408Y-51354367D01*
X34365470Y-51548132D01*
X34513588Y-51696509D01*
X34707213Y-51776909D01*
X34916867Y-51777092D01*
X35110632Y-51697030D01*
X35259009Y-51548912D01*
X35339409Y-51355287D01*
X35339409Y-51354367D01*
X35472908Y-51354367D01*
X35552970Y-51548132D01*
X35701088Y-51696509D01*
X35894713Y-51776909D01*
X36104367Y-51777092D01*
X36298132Y-51697030D01*
X36446509Y-51548912D01*
X36526909Y-51355287D01*
X36527092Y-51145633D01*
X36447030Y-50951868D01*
X36374656Y-50879367D01*
X39372908Y-50879367D01*
X39452970Y-51073132D01*
X39601088Y-51221509D01*
X39794713Y-51301909D01*
X40004367Y-51302092D01*
X40198132Y-51222030D01*
X40346509Y-51073912D01*
X40426909Y-50880287D01*
X40427092Y-50670633D01*
X40347030Y-50476868D01*
X40198912Y-50328491D01*
X40005287Y-50248091D01*
X39795633Y-50247908D01*
X39601868Y-50327970D01*
X39453491Y-50476088D01*
X39373091Y-50669713D01*
X39372908Y-50879367D01*
X36374656Y-50879367D01*
X36298912Y-50803491D01*
X36105287Y-50723091D01*
X35895633Y-50722908D01*
X35701868Y-50802970D01*
X35553491Y-50951088D01*
X35473091Y-51144713D01*
X35472908Y-51354367D01*
X35339409Y-51354367D01*
X35339592Y-51145633D01*
X35259530Y-50951868D01*
X35111412Y-50803491D01*
X34917787Y-50723091D01*
X34708133Y-50722908D01*
X34514368Y-50802970D01*
X34365991Y-50951088D01*
X34285591Y-51144713D01*
X34285408Y-51354367D01*
X34051909Y-51354367D01*
X34052092Y-51145633D01*
X33972030Y-50951868D01*
X33823912Y-50803491D01*
X33630287Y-50723091D01*
X33420633Y-50722908D01*
X33226868Y-50802970D01*
X33078491Y-50951088D01*
X32998091Y-51144713D01*
X32997908Y-51354367D01*
X32764409Y-51354367D01*
X32764592Y-51145633D01*
X32684530Y-50951868D01*
X32536412Y-50803491D01*
X32342787Y-50723091D01*
X32133133Y-50722908D01*
X31939368Y-50802970D01*
X31790991Y-50951088D01*
X31710591Y-51144713D01*
X31710408Y-51354367D01*
X30107576Y-51354367D01*
X30107722Y-51187411D01*
X30027660Y-50993646D01*
X29879542Y-50845269D01*
X29685917Y-50764869D01*
X29476263Y-50764686D01*
X29282498Y-50844748D01*
X29134121Y-50992866D01*
X29071298Y-51144162D01*
X28960975Y-51217877D01*
X28960973Y-51217880D01*
X28674098Y-51504754D01*
X28597794Y-51618951D01*
X28570999Y-51753656D01*
X28571000Y-51753661D01*
X28571000Y-53252000D01*
X28496023Y-53252000D01*
X28476475Y-53255888D01*
X28456613Y-53254213D01*
X28355974Y-53265552D01*
X28318291Y-53277562D01*
X28279125Y-53283092D01*
X28183534Y-53316541D01*
X28149469Y-53336636D01*
X28112519Y-53350740D01*
X28026767Y-53404621D01*
X27998027Y-53431792D01*
X27965139Y-53453767D01*
X27893526Y-53525380D01*
X27871551Y-53558268D01*
X27844380Y-53587008D01*
X27790499Y-53672760D01*
X27776395Y-53709708D01*
X27756300Y-53743775D01*
X27722851Y-53839366D01*
X27717322Y-53878531D01*
X27705311Y-53916214D01*
X27693972Y-54016854D01*
X27695647Y-54036716D01*
X27691759Y-54056264D01*
X22789382Y-54056264D01*
X22703363Y-53998788D01*
X22272079Y-53913000D01*
X22227921Y-53913000D01*
X21796637Y-53998788D01*
X21431012Y-54243091D01*
X21186709Y-54608716D01*
X21100921Y-55040000D01*
X20327000Y-55040000D01*
X20327000Y-52500000D01*
X21100921Y-52500000D01*
X21186709Y-52931284D01*
X21431012Y-53296909D01*
X21796637Y-53541212D01*
X22227921Y-53627000D01*
X22272079Y-53627000D01*
X22326188Y-53616237D01*
X26284341Y-53616237D01*
X26364403Y-53810002D01*
X26512521Y-53958379D01*
X26706146Y-54038779D01*
X26915800Y-54038962D01*
X27109565Y-53958900D01*
X27257942Y-53810782D01*
X27338342Y-53617157D01*
X27338525Y-53407503D01*
X27258463Y-53213738D01*
X27110345Y-53065361D01*
X26916720Y-52984961D01*
X26707066Y-52984778D01*
X26513301Y-53064840D01*
X26364924Y-53212958D01*
X26284524Y-53406583D01*
X26284341Y-53616237D01*
X22326188Y-53616237D01*
X22703363Y-53541212D01*
X23068988Y-53296909D01*
X23313291Y-52931284D01*
X23399079Y-52500000D01*
X23313291Y-52068716D01*
X23068988Y-51703091D01*
X22703363Y-51458788D01*
X22272079Y-51373000D01*
X22227921Y-51373000D01*
X21796637Y-51458788D01*
X21431012Y-51703091D01*
X21186709Y-52068716D01*
X21100921Y-52500000D01*
X20327000Y-52500000D01*
X20327000Y-49960000D01*
X21100921Y-49960000D01*
X21186709Y-50391284D01*
X21431012Y-50756909D01*
X21796637Y-51001212D01*
X22227921Y-51087000D01*
X22272079Y-51087000D01*
X22703363Y-51001212D01*
X23068988Y-50756909D01*
X23313291Y-50391284D01*
X23325607Y-50329367D01*
X29022908Y-50329367D01*
X29102970Y-50523132D01*
X29251088Y-50671509D01*
X29444713Y-50751909D01*
X29654367Y-50752092D01*
X29848132Y-50672030D01*
X29996509Y-50523912D01*
X30076909Y-50330287D01*
X30077092Y-50120633D01*
X30054877Y-50066867D01*
X31710408Y-50066867D01*
X31790470Y-50260632D01*
X31938588Y-50409009D01*
X32132213Y-50489409D01*
X32341867Y-50489592D01*
X32535632Y-50409530D01*
X32684009Y-50261412D01*
X32764409Y-50067787D01*
X32764409Y-50066867D01*
X32997908Y-50066867D01*
X33077970Y-50260632D01*
X33226088Y-50409009D01*
X33419713Y-50489409D01*
X33629367Y-50489592D01*
X33823132Y-50409530D01*
X33971509Y-50261412D01*
X34051909Y-50067787D01*
X34051909Y-50066867D01*
X34285408Y-50066867D01*
X34365470Y-50260632D01*
X34513588Y-50409009D01*
X34707213Y-50489409D01*
X34916867Y-50489592D01*
X35110632Y-50409530D01*
X35259009Y-50261412D01*
X35324219Y-50104367D01*
X35472908Y-50104367D01*
X35552970Y-50298132D01*
X35701088Y-50446509D01*
X35894713Y-50526909D01*
X36104367Y-50527092D01*
X36298132Y-50447030D01*
X36446509Y-50298912D01*
X36516910Y-50129367D01*
X37872908Y-50129367D01*
X37952970Y-50323132D01*
X38101088Y-50471509D01*
X38294713Y-50551909D01*
X38504367Y-50552092D01*
X38698132Y-50472030D01*
X38846509Y-50323912D01*
X38926909Y-50130287D01*
X38926956Y-50077000D01*
X40004196Y-50077000D01*
X43572999Y-53645802D01*
X43572999Y-54648162D01*
X43558524Y-54683110D01*
X43572999Y-54710539D01*
X43572999Y-55369461D01*
X43558524Y-55396890D01*
X43572999Y-55431838D01*
X43572999Y-57131743D01*
X43478490Y-57226087D01*
X43398090Y-57419712D01*
X43397907Y-57629366D01*
X43477969Y-57823131D01*
X43626087Y-57971508D01*
X43819712Y-58051908D01*
X44029366Y-58052091D01*
X44223131Y-57972029D01*
X44371508Y-57823911D01*
X44451908Y-57630286D01*
X44452091Y-57420632D01*
X44372029Y-57226867D01*
X44276999Y-57131671D01*
X44276999Y-56309552D01*
X44643108Y-56481486D01*
X44873000Y-56360819D01*
X44873000Y-55167000D01*
X45127000Y-55167000D01*
X45127000Y-56360819D01*
X45356892Y-56481486D01*
X45881358Y-56235183D01*
X46271645Y-55806924D01*
X46441476Y-55396890D01*
X46320155Y-55167000D01*
X45127000Y-55167000D01*
X44873000Y-55167000D01*
X44276999Y-55167000D01*
X44276999Y-54913000D01*
X44873000Y-54913000D01*
X44873000Y-54893000D01*
X45127000Y-54893000D01*
X45127000Y-54913000D01*
X46320155Y-54913000D01*
X46441476Y-54683110D01*
X46271645Y-54273076D01*
X45881358Y-53844817D01*
X45356892Y-53598514D01*
X45127002Y-53719180D01*
X45127002Y-53606129D01*
X45453363Y-53541212D01*
X45818988Y-53296909D01*
X46063291Y-52931284D01*
X46149079Y-52500000D01*
X46063291Y-52068716D01*
X45818988Y-51703091D01*
X45453363Y-51458788D01*
X45022079Y-51373000D01*
X44977921Y-51373000D01*
X44546637Y-51458788D01*
X44181012Y-51703091D01*
X43936709Y-52068716D01*
X43850921Y-52500000D01*
X43936709Y-52931284D01*
X44103083Y-53180280D01*
X40882804Y-49960000D01*
X43850921Y-49960000D01*
X43936709Y-50391284D01*
X44181012Y-50756909D01*
X44546637Y-51001212D01*
X44977921Y-51087000D01*
X45022079Y-51087000D01*
X45453363Y-51001212D01*
X45818988Y-50756909D01*
X46063291Y-50391284D01*
X46149079Y-49960000D01*
X46063291Y-49528716D01*
X45818988Y-49163091D01*
X45453363Y-48918788D01*
X45022079Y-48833000D01*
X44977921Y-48833000D01*
X44546637Y-48918788D01*
X44181012Y-49163091D01*
X43936709Y-49528716D01*
X43850921Y-49960000D01*
X40882804Y-49960000D01*
X40398902Y-49476098D01*
X40284705Y-49399794D01*
X40150000Y-49372999D01*
X40149995Y-49373000D01*
X38700005Y-49373000D01*
X38700000Y-49372999D01*
X38565295Y-49399794D01*
X38451098Y-49476098D01*
X38429171Y-49498025D01*
X38295633Y-49497908D01*
X38101868Y-49577970D01*
X37953491Y-49726088D01*
X37873091Y-49919713D01*
X37872908Y-50129367D01*
X36516910Y-50129367D01*
X36526909Y-50105287D01*
X36527092Y-49895633D01*
X36447030Y-49701868D01*
X36298912Y-49553491D01*
X36105287Y-49473091D01*
X35895633Y-49472908D01*
X35701868Y-49552970D01*
X35553491Y-49701088D01*
X35473091Y-49894713D01*
X35472908Y-50104367D01*
X35324219Y-50104367D01*
X35339409Y-50067787D01*
X35339592Y-49858133D01*
X35259530Y-49664368D01*
X35111412Y-49515991D01*
X34917787Y-49435591D01*
X34708133Y-49435408D01*
X34514368Y-49515470D01*
X34365991Y-49663588D01*
X34285591Y-49857213D01*
X34285408Y-50066867D01*
X34051909Y-50066867D01*
X34052092Y-49858133D01*
X33972030Y-49664368D01*
X33823912Y-49515991D01*
X33630287Y-49435591D01*
X33420633Y-49435408D01*
X33226868Y-49515470D01*
X33078491Y-49663588D01*
X32998091Y-49857213D01*
X32997908Y-50066867D01*
X32764409Y-50066867D01*
X32764592Y-49858133D01*
X32684530Y-49664368D01*
X32536412Y-49515991D01*
X32342787Y-49435591D01*
X32133133Y-49435408D01*
X31939368Y-49515470D01*
X31790991Y-49663588D01*
X31710591Y-49857213D01*
X31710408Y-50066867D01*
X30054877Y-50066867D01*
X29997030Y-49926868D01*
X29848912Y-49778491D01*
X29655287Y-49698091D01*
X29445633Y-49697908D01*
X29251868Y-49777970D01*
X29103491Y-49926088D01*
X29023091Y-50119713D01*
X29022908Y-50329367D01*
X23325607Y-50329367D01*
X23399079Y-49960000D01*
X23378066Y-49854357D01*
X27716695Y-49854357D01*
X27796757Y-50048122D01*
X27944875Y-50196499D01*
X28138500Y-50276899D01*
X28348154Y-50277082D01*
X28541919Y-50197020D01*
X28690296Y-50048902D01*
X28770696Y-49855277D01*
X28770879Y-49645623D01*
X28703835Y-49483363D01*
X28781950Y-49405384D01*
X28862350Y-49211759D01*
X28862449Y-49098279D01*
X28982818Y-49098384D01*
X29176583Y-49018322D01*
X29324960Y-48870204D01*
X29362678Y-48779367D01*
X31710408Y-48779367D01*
X31790470Y-48973132D01*
X31938588Y-49121509D01*
X32132213Y-49201909D01*
X32341867Y-49202092D01*
X32535632Y-49122030D01*
X32684009Y-48973912D01*
X32764409Y-48780287D01*
X32764409Y-48779367D01*
X32997908Y-48779367D01*
X33077970Y-48973132D01*
X33226088Y-49121509D01*
X33419713Y-49201909D01*
X33629367Y-49202092D01*
X33823132Y-49122030D01*
X33971509Y-48973912D01*
X34051909Y-48780287D01*
X34051909Y-48779367D01*
X34285408Y-48779367D01*
X34365470Y-48973132D01*
X34513588Y-49121509D01*
X34707213Y-49201909D01*
X34916867Y-49202092D01*
X35110632Y-49122030D01*
X35259009Y-48973912D01*
X35339409Y-48780287D01*
X35339409Y-48779367D01*
X35472908Y-48779367D01*
X35552970Y-48973132D01*
X35701088Y-49121509D01*
X35894713Y-49201909D01*
X36104367Y-49202092D01*
X36298132Y-49122030D01*
X36446509Y-48973912D01*
X36526909Y-48780287D01*
X36527092Y-48570633D01*
X36447030Y-48376868D01*
X36298912Y-48228491D01*
X36105287Y-48148091D01*
X35895633Y-48147908D01*
X35701868Y-48227970D01*
X35553491Y-48376088D01*
X35473091Y-48569713D01*
X35472908Y-48779367D01*
X35339409Y-48779367D01*
X35339592Y-48570633D01*
X35259530Y-48376868D01*
X35111412Y-48228491D01*
X34917787Y-48148091D01*
X34708133Y-48147908D01*
X34514368Y-48227970D01*
X34365991Y-48376088D01*
X34285591Y-48569713D01*
X34285408Y-48779367D01*
X34051909Y-48779367D01*
X34052092Y-48570633D01*
X33972030Y-48376868D01*
X33823912Y-48228491D01*
X33630287Y-48148091D01*
X33420633Y-48147908D01*
X33226868Y-48227970D01*
X33078491Y-48376088D01*
X32998091Y-48569713D01*
X32997908Y-48779367D01*
X32764409Y-48779367D01*
X32764592Y-48570633D01*
X32684530Y-48376868D01*
X32536412Y-48228491D01*
X32342787Y-48148091D01*
X32133133Y-48147908D01*
X31939368Y-48227970D01*
X31790991Y-48376088D01*
X31710591Y-48569713D01*
X31710408Y-48779367D01*
X29362678Y-48779367D01*
X29405360Y-48676579D01*
X29405434Y-48591888D01*
X29525188Y-48641614D01*
X29734842Y-48641797D01*
X29928607Y-48561735D01*
X30076984Y-48413617D01*
X30157384Y-48219992D01*
X30157567Y-48010338D01*
X30102438Y-47876916D01*
X30304367Y-47877092D01*
X30498132Y-47797030D01*
X30646509Y-47648912D01*
X30726909Y-47455287D01*
X30727092Y-47245633D01*
X30647030Y-47051868D01*
X30498912Y-46903491D01*
X30305287Y-46823091D01*
X30095633Y-46822908D01*
X29901868Y-46902970D01*
X29753491Y-47051088D01*
X29673091Y-47244713D01*
X29672908Y-47454367D01*
X29728037Y-47587789D01*
X29526108Y-47587613D01*
X29332343Y-47667675D01*
X29183966Y-47815793D01*
X29103566Y-48009418D01*
X29103492Y-48094109D01*
X28983738Y-48044383D01*
X28774084Y-48044200D01*
X28580319Y-48124262D01*
X28431942Y-48272380D01*
X28351542Y-48466005D01*
X28351443Y-48579485D01*
X28231074Y-48579380D01*
X28037309Y-48659442D01*
X27888932Y-48807560D01*
X27808532Y-49001185D01*
X27808349Y-49210839D01*
X27875393Y-49373099D01*
X27797278Y-49451078D01*
X27716878Y-49644703D01*
X27716695Y-49854357D01*
X23378066Y-49854357D01*
X23313291Y-49528716D01*
X23068988Y-49163091D01*
X22703363Y-48918788D01*
X22272079Y-48833000D01*
X22227921Y-48833000D01*
X21796637Y-48918788D01*
X21431012Y-49163091D01*
X21186709Y-49528716D01*
X21100921Y-49960000D01*
X20327000Y-49960000D01*
X20327000Y-47420000D01*
X21100921Y-47420000D01*
X21186709Y-47851284D01*
X21431012Y-48216909D01*
X21796637Y-48461212D01*
X22227921Y-48547000D01*
X22272079Y-48547000D01*
X22703363Y-48461212D01*
X23068988Y-48216909D01*
X23077368Y-48204367D01*
X25872908Y-48204367D01*
X25952970Y-48398132D01*
X26101088Y-48546509D01*
X26294713Y-48626909D01*
X26504367Y-48627092D01*
X26698132Y-48547030D01*
X26846509Y-48398912D01*
X26926909Y-48205287D01*
X26927092Y-47995633D01*
X26847030Y-47801868D01*
X26698912Y-47653491D01*
X26505287Y-47573091D01*
X26295633Y-47572908D01*
X26101868Y-47652970D01*
X25953491Y-47801088D01*
X25873091Y-47994713D01*
X25872908Y-48204367D01*
X23077368Y-48204367D01*
X23313291Y-47851284D01*
X23399079Y-47420000D01*
X23313291Y-46988716D01*
X23068988Y-46623091D01*
X22703363Y-46378788D01*
X22272079Y-46293000D01*
X22227921Y-46293000D01*
X21796637Y-46378788D01*
X21431012Y-46623091D01*
X21186709Y-46988716D01*
X21100921Y-47420000D01*
X20327000Y-47420000D01*
X20327000Y-44880000D01*
X21100921Y-44880000D01*
X21186709Y-45311284D01*
X21431012Y-45676909D01*
X21796637Y-45921212D01*
X22227921Y-46007000D01*
X22272079Y-46007000D01*
X22703363Y-45921212D01*
X22868879Y-45810617D01*
X31391658Y-45810617D01*
X31471720Y-46004382D01*
X31619838Y-46152759D01*
X31813463Y-46233159D01*
X31930334Y-46233261D01*
X31891841Y-46325963D01*
X31891658Y-46535617D01*
X31971720Y-46729382D01*
X32119838Y-46877759D01*
X32313463Y-46958159D01*
X32523117Y-46958342D01*
X32716882Y-46878280D01*
X32865259Y-46730162D01*
X32923210Y-46590601D01*
X32977970Y-46723132D01*
X33126088Y-46871509D01*
X33319713Y-46951909D01*
X33529367Y-46952092D01*
X33723132Y-46872030D01*
X33871509Y-46723912D01*
X33951909Y-46530287D01*
X33952092Y-46320633D01*
X33872030Y-46126868D01*
X33723912Y-45978491D01*
X33530287Y-45898091D01*
X33445824Y-45898017D01*
X33445842Y-45876883D01*
X33365780Y-45683118D01*
X33217662Y-45534741D01*
X33024037Y-45454341D01*
X32814383Y-45454158D01*
X32620618Y-45534220D01*
X32472241Y-45682338D01*
X32445716Y-45746217D01*
X32445842Y-45601883D01*
X32365780Y-45408118D01*
X32217662Y-45259741D01*
X32024037Y-45179341D01*
X31814383Y-45179158D01*
X31620618Y-45259220D01*
X31472241Y-45407338D01*
X31391841Y-45600963D01*
X31391658Y-45810617D01*
X22868879Y-45810617D01*
X23068988Y-45676909D01*
X23313291Y-45311284D01*
X23399079Y-44880000D01*
X23313291Y-44448716D01*
X23068988Y-44083091D01*
X22703363Y-43838788D01*
X22272079Y-43753000D01*
X22227921Y-43753000D01*
X21796637Y-43838788D01*
X21431012Y-44083091D01*
X21186709Y-44448716D01*
X21100921Y-44880000D01*
X20327000Y-44880000D01*
X20327000Y-42340000D01*
X21100921Y-42340000D01*
X21186709Y-42771284D01*
X21431012Y-43136909D01*
X21796637Y-43381212D01*
X22227921Y-43467000D01*
X22272079Y-43467000D01*
X22703363Y-43381212D01*
X23068988Y-43136909D01*
X23313291Y-42771284D01*
X23371250Y-42479905D01*
X25119317Y-42479905D01*
X25199379Y-42673670D01*
X25347497Y-42822047D01*
X25541122Y-42902447D01*
X25750776Y-42902630D01*
X25944541Y-42822568D01*
X26092918Y-42674450D01*
X26163542Y-42504367D01*
X31797908Y-42504367D01*
X31877970Y-42698132D01*
X32026088Y-42846509D01*
X32219713Y-42926909D01*
X32429367Y-42927092D01*
X32623132Y-42847030D01*
X32771509Y-42698912D01*
X32851909Y-42505287D01*
X32851983Y-42420821D01*
X34045805Y-41226999D01*
X36530425Y-41226999D01*
X36523070Y-41244713D01*
X36522887Y-41454367D01*
X36602949Y-41648132D01*
X36697979Y-41743328D01*
X36697979Y-43744979D01*
X36697978Y-43744984D01*
X36724773Y-43879689D01*
X36801077Y-43993886D01*
X37123000Y-44315808D01*
X37123000Y-45766610D01*
X37118517Y-45762119D01*
X36924892Y-45681719D01*
X36715238Y-45681536D01*
X36521473Y-45761598D01*
X36373096Y-45909716D01*
X36292696Y-46103341D01*
X36292668Y-46134879D01*
X36217662Y-46059741D01*
X36166358Y-46038438D01*
X36173496Y-46021247D01*
X36173679Y-45811593D01*
X36093617Y-45617828D01*
X35945499Y-45469451D01*
X35751874Y-45389051D01*
X35542220Y-45388868D01*
X35348455Y-45468930D01*
X35200078Y-45617048D01*
X35119678Y-45810673D01*
X35119569Y-45935164D01*
X35030287Y-45898091D01*
X34820633Y-45897908D01*
X34626868Y-45977970D01*
X34478491Y-46126088D01*
X34398091Y-46319713D01*
X34397908Y-46529367D01*
X34477970Y-46723132D01*
X34626088Y-46871509D01*
X34819713Y-46951909D01*
X35029367Y-46952092D01*
X35223132Y-46872030D01*
X35371509Y-46723912D01*
X35405072Y-46643082D01*
X35471720Y-46804382D01*
X35619838Y-46952759D01*
X35813463Y-47033159D01*
X36023117Y-47033342D01*
X36216882Y-46953280D01*
X36365259Y-46805162D01*
X36445659Y-46611537D01*
X36445687Y-46579999D01*
X36520693Y-46655137D01*
X36714318Y-46735537D01*
X36923972Y-46735720D01*
X36995186Y-46706295D01*
X36948091Y-46819713D01*
X36947908Y-47029367D01*
X37027970Y-47223132D01*
X37176088Y-47371509D01*
X37369713Y-47451909D01*
X37579367Y-47452092D01*
X37773132Y-47372030D01*
X37921509Y-47223912D01*
X38001909Y-47030287D01*
X38002092Y-46820633D01*
X37922030Y-46626868D01*
X37827000Y-46531672D01*
X37827000Y-46173792D01*
X37894713Y-46201909D01*
X38104367Y-46202092D01*
X38298132Y-46122030D01*
X38322999Y-46097206D01*
X38322999Y-48322910D01*
X38320633Y-48322908D01*
X38126868Y-48402970D01*
X37978491Y-48551088D01*
X37898091Y-48744713D01*
X37897908Y-48954367D01*
X37977970Y-49148132D01*
X38126088Y-49296509D01*
X38319713Y-49376909D01*
X38529367Y-49377092D01*
X38723132Y-49297030D01*
X38871509Y-49148912D01*
X38951909Y-48955287D01*
X38952039Y-48806792D01*
X39000205Y-48734706D01*
X39027000Y-48600001D01*
X39026999Y-48599996D01*
X39026999Y-48429365D01*
X39347908Y-48429365D01*
X39427970Y-48623130D01*
X39576088Y-48771507D01*
X39769713Y-48851907D01*
X39979367Y-48852090D01*
X40173132Y-48772028D01*
X40321509Y-48623910D01*
X40401909Y-48430285D01*
X40402092Y-48220631D01*
X40322030Y-48026866D01*
X40173912Y-47878489D01*
X39980287Y-47798089D01*
X39770633Y-47797906D01*
X39576868Y-47877968D01*
X39428491Y-48026086D01*
X39348091Y-48219711D01*
X39347908Y-48429365D01*
X39026999Y-48429365D01*
X39026999Y-47420000D01*
X43850921Y-47420000D01*
X43936709Y-47851284D01*
X44181012Y-48216909D01*
X44546637Y-48461212D01*
X44977921Y-48547000D01*
X45022079Y-48547000D01*
X45453363Y-48461212D01*
X45818988Y-48216909D01*
X46063291Y-47851284D01*
X46149079Y-47420000D01*
X46063291Y-46988716D01*
X45818988Y-46623091D01*
X45453363Y-46378788D01*
X45022079Y-46293000D01*
X44977921Y-46293000D01*
X44546637Y-46378788D01*
X44181012Y-46623091D01*
X43936709Y-46988716D01*
X43850921Y-47420000D01*
X39026999Y-47420000D01*
X39026999Y-38725014D01*
X39027000Y-38725009D01*
X39000205Y-38590305D01*
X39000205Y-38590304D01*
X38923901Y-38476107D01*
X38923898Y-38476105D01*
X37876965Y-37429171D01*
X37877082Y-37295633D01*
X37797020Y-37101868D01*
X37648902Y-36953491D01*
X37455277Y-36873091D01*
X37245623Y-36872908D01*
X37051858Y-36952970D01*
X36903481Y-37101088D01*
X36823081Y-37294713D01*
X36822898Y-37504367D01*
X36902960Y-37698132D01*
X37051078Y-37846509D01*
X37244703Y-37926909D01*
X37379212Y-37927026D01*
X38322999Y-38870812D01*
X38322999Y-45252620D01*
X38298912Y-45228491D01*
X38127010Y-45157111D01*
X38127007Y-41372026D01*
X38100213Y-41237321D01*
X38023909Y-41123124D01*
X38023906Y-41123122D01*
X37526882Y-40626097D01*
X37412685Y-40549793D01*
X37277980Y-40522998D01*
X37277975Y-40522999D01*
X33900006Y-40522999D01*
X33900001Y-40522998D01*
X33765296Y-40549793D01*
X33651099Y-40626097D01*
X32404128Y-41873068D01*
X32220633Y-41872908D01*
X32026868Y-41952970D01*
X31878491Y-42101088D01*
X31798091Y-42294713D01*
X31797908Y-42504367D01*
X26163542Y-42504367D01*
X26173318Y-42480825D01*
X26173435Y-42346316D01*
X27492751Y-41027000D01*
X32081744Y-41027000D01*
X32176088Y-41121509D01*
X32369713Y-41201909D01*
X32579367Y-41202092D01*
X32773132Y-41122030D01*
X32921509Y-40973912D01*
X33001909Y-40780287D01*
X33002092Y-40570633D01*
X32922030Y-40376868D01*
X32773912Y-40228491D01*
X32580287Y-40148091D01*
X32370633Y-40147908D01*
X32176868Y-40227970D01*
X32081672Y-40323000D01*
X27346952Y-40323000D01*
X27346947Y-40322999D01*
X27234591Y-40345348D01*
X27212242Y-40349794D01*
X27098045Y-40426098D01*
X25675580Y-41848563D01*
X25542042Y-41848446D01*
X25348277Y-41928508D01*
X25199900Y-42076626D01*
X25119500Y-42270251D01*
X25119317Y-42479905D01*
X23371250Y-42479905D01*
X23399079Y-42340000D01*
X23313291Y-41908716D01*
X23068988Y-41543091D01*
X22703363Y-41298788D01*
X22272079Y-41213000D01*
X22227921Y-41213000D01*
X21796637Y-41298788D01*
X21431012Y-41543091D01*
X21186709Y-41908716D01*
X21100921Y-42340000D01*
X20327000Y-42340000D01*
X20327000Y-39800000D01*
X21100921Y-39800000D01*
X21186709Y-40231284D01*
X21431012Y-40596909D01*
X21796637Y-40841212D01*
X22227921Y-40927000D01*
X22272079Y-40927000D01*
X22703363Y-40841212D01*
X23068988Y-40596909D01*
X23313291Y-40231284D01*
X23388264Y-39854367D01*
X23572908Y-39854367D01*
X23652970Y-40048132D01*
X23801088Y-40196509D01*
X23994713Y-40276909D01*
X24204367Y-40277092D01*
X24398132Y-40197030D01*
X24546509Y-40048912D01*
X24626909Y-39855287D01*
X24627092Y-39645633D01*
X24547030Y-39451868D01*
X24398912Y-39303491D01*
X24205287Y-39223091D01*
X23995633Y-39222908D01*
X23801868Y-39302970D01*
X23653491Y-39451088D01*
X23573091Y-39644713D01*
X23572908Y-39854367D01*
X23388264Y-39854367D01*
X23399079Y-39800000D01*
X23313291Y-39368716D01*
X23068988Y-39003091D01*
X22846407Y-38854367D01*
X36247908Y-38854367D01*
X36327970Y-39048132D01*
X36476088Y-39196509D01*
X36669713Y-39276909D01*
X36879367Y-39277092D01*
X37073132Y-39197030D01*
X37221509Y-39048912D01*
X37301909Y-38855287D01*
X37302092Y-38645633D01*
X37222030Y-38451868D01*
X37073912Y-38303491D01*
X36880287Y-38223091D01*
X36670633Y-38222908D01*
X36476868Y-38302970D01*
X36328491Y-38451088D01*
X36248091Y-38644713D01*
X36247908Y-38854367D01*
X22846407Y-38854367D01*
X22703363Y-38758788D01*
X22272079Y-38673000D01*
X22227921Y-38673000D01*
X21796637Y-38758788D01*
X21431012Y-39003091D01*
X21186709Y-39368716D01*
X21100921Y-39800000D01*
X20327000Y-39800000D01*
X20327000Y-37260000D01*
X21100921Y-37260000D01*
X21186709Y-37691284D01*
X21431012Y-38056909D01*
X21796637Y-38301212D01*
X22227921Y-38387000D01*
X22272079Y-38387000D01*
X22703363Y-38301212D01*
X23068988Y-38056909D01*
X23313291Y-37691284D01*
X23378319Y-37364367D01*
X23587908Y-37364367D01*
X23667970Y-37558132D01*
X23816088Y-37706509D01*
X24009713Y-37786909D01*
X24219367Y-37787092D01*
X24413132Y-37707030D01*
X24561509Y-37558912D01*
X24641909Y-37365287D01*
X24641962Y-37304367D01*
X30742908Y-37304367D01*
X30822970Y-37498132D01*
X30971088Y-37646509D01*
X31164713Y-37726909D01*
X31374367Y-37727092D01*
X31568132Y-37647030D01*
X31716509Y-37498912D01*
X31796909Y-37305287D01*
X31797092Y-37095633D01*
X31717030Y-36901868D01*
X31568912Y-36753491D01*
X31375287Y-36673091D01*
X31165633Y-36672908D01*
X30971868Y-36752970D01*
X30823491Y-36901088D01*
X30743091Y-37094713D01*
X30742908Y-37304367D01*
X24641962Y-37304367D01*
X24642092Y-37155633D01*
X24562030Y-36961868D01*
X24413912Y-36813491D01*
X24220287Y-36733091D01*
X24010633Y-36732908D01*
X23816868Y-36812970D01*
X23668491Y-36961088D01*
X23588091Y-37154713D01*
X23587908Y-37364367D01*
X23378319Y-37364367D01*
X23399079Y-37260000D01*
X23313291Y-36828716D01*
X23068988Y-36463091D01*
X23018517Y-36429367D01*
X37297908Y-36429367D01*
X37377970Y-36623132D01*
X37526088Y-36771509D01*
X37719713Y-36851909D01*
X37854222Y-36852026D01*
X39348000Y-38345803D01*
X39348000Y-45506744D01*
X39253491Y-45601088D01*
X39173091Y-45794713D01*
X39172908Y-46004367D01*
X39252970Y-46198132D01*
X39401088Y-46346509D01*
X39594713Y-46426909D01*
X39804367Y-46427092D01*
X39998132Y-46347030D01*
X40146509Y-46198912D01*
X40226909Y-46005287D01*
X40227092Y-45795633D01*
X40147030Y-45601868D01*
X40052000Y-45506672D01*
X40052000Y-44880000D01*
X43850921Y-44880000D01*
X43936709Y-45311284D01*
X44181012Y-45676909D01*
X44546637Y-45921212D01*
X44977921Y-46007000D01*
X45022079Y-46007000D01*
X45453363Y-45921212D01*
X45818988Y-45676909D01*
X46063291Y-45311284D01*
X46149079Y-44880000D01*
X46063291Y-44448716D01*
X45818988Y-44083091D01*
X45453363Y-43838788D01*
X45022079Y-43753000D01*
X44977921Y-43753000D01*
X44546637Y-43838788D01*
X44181012Y-44083091D01*
X43936709Y-44448716D01*
X43850921Y-44880000D01*
X40052000Y-44880000D01*
X40052000Y-42340000D01*
X43850921Y-42340000D01*
X43936709Y-42771284D01*
X44181012Y-43136909D01*
X44546637Y-43381212D01*
X44977921Y-43467000D01*
X45022079Y-43467000D01*
X45453363Y-43381212D01*
X45818988Y-43136909D01*
X46063291Y-42771284D01*
X46149079Y-42340000D01*
X46063291Y-41908716D01*
X45818988Y-41543091D01*
X45453363Y-41298788D01*
X45022079Y-41213000D01*
X44977921Y-41213000D01*
X44546637Y-41298788D01*
X44181012Y-41543091D01*
X43936709Y-41908716D01*
X43850921Y-42340000D01*
X40052000Y-42340000D01*
X40052000Y-39800000D01*
X43850921Y-39800000D01*
X43936709Y-40231284D01*
X44181012Y-40596909D01*
X44546637Y-40841212D01*
X44977921Y-40927000D01*
X45022079Y-40927000D01*
X45453363Y-40841212D01*
X45818988Y-40596909D01*
X46063291Y-40231284D01*
X46149079Y-39800000D01*
X46063291Y-39368716D01*
X45818988Y-39003091D01*
X45453363Y-38758788D01*
X45022079Y-38673000D01*
X44977921Y-38673000D01*
X44546637Y-38758788D01*
X44181012Y-39003091D01*
X43936709Y-39368716D01*
X43850921Y-39800000D01*
X40052000Y-39800000D01*
X40052000Y-38854367D01*
X40147908Y-38854367D01*
X40227970Y-39048132D01*
X40376088Y-39196509D01*
X40569713Y-39276909D01*
X40779367Y-39277092D01*
X40973132Y-39197030D01*
X41121509Y-39048912D01*
X41201909Y-38855287D01*
X41202092Y-38645633D01*
X41122030Y-38451868D01*
X40973912Y-38303491D01*
X40780287Y-38223091D01*
X40570633Y-38222908D01*
X40376868Y-38302970D01*
X40228491Y-38451088D01*
X40148091Y-38644713D01*
X40147908Y-38854367D01*
X40052000Y-38854367D01*
X40052000Y-38200000D01*
X40025206Y-38065295D01*
X39948902Y-37951098D01*
X39948899Y-37951096D01*
X39257804Y-37260000D01*
X43850921Y-37260000D01*
X43936709Y-37691284D01*
X44181012Y-38056909D01*
X44546637Y-38301212D01*
X44977921Y-38387000D01*
X45022079Y-38387000D01*
X45453363Y-38301212D01*
X45818988Y-38056909D01*
X46063291Y-37691284D01*
X46149079Y-37260000D01*
X46063291Y-36828716D01*
X45818988Y-36463091D01*
X45453363Y-36218788D01*
X45022079Y-36133000D01*
X44977921Y-36133000D01*
X44546637Y-36218788D01*
X44181012Y-36463091D01*
X43936709Y-36828716D01*
X43850921Y-37260000D01*
X39257804Y-37260000D01*
X38351975Y-36354171D01*
X38352092Y-36220633D01*
X38272030Y-36026868D01*
X38123912Y-35878491D01*
X37930287Y-35798091D01*
X37720633Y-35797908D01*
X37526868Y-35877970D01*
X37378491Y-36026088D01*
X37298091Y-36219713D01*
X37297908Y-36429367D01*
X23018517Y-36429367D01*
X22703363Y-36218788D01*
X22272079Y-36133000D01*
X22227921Y-36133000D01*
X21796637Y-36218788D01*
X21431012Y-36463091D01*
X21186709Y-36828716D01*
X21100921Y-37260000D01*
X20327000Y-37260000D01*
X20327000Y-34720000D01*
X21100921Y-34720000D01*
X21186709Y-35151284D01*
X21431012Y-35516909D01*
X21796637Y-35761212D01*
X22227921Y-35847000D01*
X22272079Y-35847000D01*
X22703363Y-35761212D01*
X23068988Y-35516909D01*
X23313291Y-35151284D01*
X23378319Y-34824367D01*
X23672908Y-34824367D01*
X23752970Y-35018132D01*
X23901088Y-35166509D01*
X24094713Y-35246909D01*
X24304367Y-35247092D01*
X24498132Y-35167030D01*
X24646509Y-35018912D01*
X24677951Y-34943191D01*
X43872805Y-34943191D01*
X44044019Y-35357560D01*
X44360772Y-35674867D01*
X44774842Y-35846804D01*
X45223191Y-35847195D01*
X45637560Y-35675981D01*
X45954867Y-35359228D01*
X46126804Y-34945158D01*
X46127195Y-34496809D01*
X45955981Y-34082440D01*
X45639228Y-33765133D01*
X45225158Y-33593196D01*
X44776809Y-33592805D01*
X44362440Y-33764019D01*
X44045133Y-34080772D01*
X43873196Y-34494842D01*
X43872805Y-34943191D01*
X24677951Y-34943191D01*
X24726909Y-34825287D01*
X24727092Y-34615633D01*
X24647030Y-34421868D01*
X24498912Y-34273491D01*
X24305287Y-34193091D01*
X24095633Y-34192908D01*
X23901868Y-34272970D01*
X23753491Y-34421088D01*
X23673091Y-34614713D01*
X23672908Y-34824367D01*
X23378319Y-34824367D01*
X23399079Y-34720000D01*
X23313291Y-34288716D01*
X23068988Y-33923091D01*
X22703363Y-33678788D01*
X22272079Y-33593000D01*
X22227921Y-33593000D01*
X21796637Y-33678788D01*
X21431012Y-33923091D01*
X21186709Y-34288716D01*
X21100921Y-34720000D01*
X20327000Y-34720000D01*
X20327000Y-30627000D01*
X20527414Y-30627000D01*
X20454896Y-30801644D01*
X20454896Y-30801644D01*
G37*
X20454896Y-30801644D02*
X20454713Y-31011298D01*
X20534775Y-31205063D01*
X20682893Y-31353440D01*
X20876518Y-31433840D01*
X21086172Y-31434023D01*
X21279937Y-31353961D01*
X21428314Y-31205843D01*
X21490957Y-31054981D01*
X21552970Y-31205063D01*
X21701088Y-31353440D01*
X21894713Y-31433840D01*
X22104367Y-31434023D01*
X22298132Y-31353961D01*
X22446509Y-31205843D01*
X22500032Y-31076944D01*
X22552970Y-31205063D01*
X22701088Y-31353440D01*
X22894713Y-31433840D01*
X23104367Y-31434023D01*
X23298132Y-31353961D01*
X23446509Y-31205843D01*
X23500032Y-31076944D01*
X23552970Y-31205063D01*
X23701088Y-31353440D01*
X23894713Y-31433840D01*
X24104367Y-31434023D01*
X24298132Y-31353961D01*
X24446509Y-31205843D01*
X24500032Y-31076944D01*
X24552970Y-31205063D01*
X24701088Y-31353440D01*
X24894713Y-31433840D01*
X25104367Y-31434023D01*
X25298132Y-31353961D01*
X25446509Y-31205843D01*
X25500032Y-31076944D01*
X25552970Y-31205063D01*
X25701088Y-31353440D01*
X25894713Y-31433840D01*
X26104367Y-31434023D01*
X26298132Y-31353961D01*
X26446509Y-31205843D01*
X26526909Y-31012218D01*
X26527092Y-30802564D01*
X26454550Y-30627000D01*
X31542731Y-30627000D01*
X31473091Y-30794713D01*
X31472908Y-31004367D01*
X31552970Y-31198132D01*
X31701088Y-31346509D01*
X31894713Y-31426909D01*
X32104367Y-31427092D01*
X32298132Y-31347030D01*
X32446509Y-31198912D01*
X32500032Y-31070013D01*
X32552970Y-31198132D01*
X32701088Y-31346509D01*
X32894713Y-31426909D01*
X33104367Y-31427092D01*
X33298132Y-31347030D01*
X33446509Y-31198912D01*
X33500032Y-31070013D01*
X33552970Y-31198132D01*
X33701088Y-31346509D01*
X33894713Y-31426909D01*
X34104367Y-31427092D01*
X34298132Y-31347030D01*
X34446509Y-31198912D01*
X34500032Y-31070013D01*
X34552970Y-31198132D01*
X34701088Y-31346509D01*
X34894713Y-31426909D01*
X35104367Y-31427092D01*
X35298132Y-31347030D01*
X35446509Y-31198912D01*
X35500032Y-31070013D01*
X35552970Y-31198132D01*
X35701088Y-31346509D01*
X35894713Y-31426909D01*
X36104367Y-31427092D01*
X36298132Y-31347030D01*
X36446509Y-31198912D01*
X36500032Y-31070013D01*
X36552970Y-31198132D01*
X36701088Y-31346509D01*
X36894713Y-31426909D01*
X37104367Y-31427092D01*
X37298132Y-31347030D01*
X37446509Y-31198912D01*
X37500032Y-31070013D01*
X37552970Y-31198132D01*
X37701088Y-31346509D01*
X37894713Y-31426909D01*
X38104367Y-31427092D01*
X38298132Y-31347030D01*
X38446509Y-31198912D01*
X38500032Y-31070013D01*
X38552970Y-31198132D01*
X38701088Y-31346509D01*
X38894713Y-31426909D01*
X39104367Y-31427092D01*
X39298132Y-31347030D01*
X39446509Y-31198912D01*
X39500032Y-31070013D01*
X39552970Y-31198132D01*
X39701088Y-31346509D01*
X39894713Y-31426909D01*
X40104367Y-31427092D01*
X40298132Y-31347030D01*
X40446509Y-31198912D01*
X40500032Y-31070013D01*
X40552970Y-31198132D01*
X40701088Y-31346509D01*
X40894713Y-31426909D01*
X41104367Y-31427092D01*
X41298132Y-31347030D01*
X41446509Y-31198912D01*
X41500032Y-31070013D01*
X41552970Y-31198132D01*
X41701088Y-31346509D01*
X41894713Y-31426909D01*
X42104367Y-31427092D01*
X42298132Y-31347030D01*
X42446509Y-31198912D01*
X42500032Y-31070013D01*
X42552970Y-31198132D01*
X42701088Y-31346509D01*
X42894713Y-31426909D01*
X43104367Y-31427092D01*
X43298132Y-31347030D01*
X43446509Y-31198912D01*
X43500032Y-31070013D01*
X43552970Y-31198132D01*
X43701088Y-31346509D01*
X43894713Y-31426909D01*
X44104367Y-31427092D01*
X44298132Y-31347030D01*
X44446509Y-31198912D01*
X44500032Y-31070013D01*
X44552970Y-31198132D01*
X44701088Y-31346509D01*
X44894713Y-31426909D01*
X45104367Y-31427092D01*
X45298132Y-31347030D01*
X45446509Y-31198912D01*
X45500032Y-31070013D01*
X45552970Y-31198132D01*
X45701088Y-31346509D01*
X45894713Y-31426909D01*
X46104367Y-31427092D01*
X46298132Y-31347030D01*
X46446509Y-31198912D01*
X46526909Y-31005287D01*
X46527092Y-30795633D01*
X46457414Y-30627000D01*
X46673000Y-30627000D01*
X46673000Y-66967793D01*
X46539731Y-67637778D01*
X46178460Y-68178460D01*
X45637778Y-68539731D01*
X44967792Y-68673000D01*
X38577000Y-68673000D01*
X38577000Y-64750000D01*
X38566994Y-64700590D01*
X38538553Y-64658965D01*
X38496159Y-64631685D01*
X38450000Y-64623000D01*
X36272793Y-64623000D01*
X36238030Y-64538868D01*
X36089912Y-64390491D01*
X35896287Y-64310091D01*
X35686633Y-64309908D01*
X35492868Y-64389970D01*
X35344491Y-64538088D01*
X35309233Y-64623000D01*
X34379051Y-64623000D01*
X34379092Y-64575633D01*
X34299030Y-64381868D01*
X34150912Y-64233491D01*
X33957287Y-64153091D01*
X33747633Y-64152908D01*
X33553868Y-64232970D01*
X33405491Y-64381088D01*
X33325091Y-64574713D01*
X33325049Y-64623000D01*
X32951216Y-64623000D01*
X32947030Y-64612868D01*
X32798912Y-64464491D01*
X32605287Y-64384091D01*
X32395633Y-64383908D01*
X32201868Y-64463970D01*
X32080964Y-64584662D01*
X32012912Y-64516491D01*
X31819287Y-64436091D01*
X31609633Y-64435908D01*
X31415868Y-64515970D01*
X31308651Y-64623000D01*
X28933878Y-64623000D01*
X28986909Y-64495287D01*
X28987092Y-64285633D01*
X28907030Y-64091868D01*
X28758912Y-63943491D01*
X28565287Y-63863091D01*
X28355633Y-63862908D01*
X28161868Y-63942970D01*
X28013491Y-64091088D01*
X27933091Y-64284713D01*
X27932908Y-64494367D01*
X28012970Y-64688132D01*
X28161088Y-64836509D01*
X28298000Y-64893360D01*
X28298000Y-68673000D01*
X22032207Y-68673000D01*
X21362222Y-68539731D01*
X20821540Y-68178460D01*
X20460269Y-67637778D01*
X20327000Y-66967792D01*
X20327000Y-63804367D01*
X40472908Y-63804367D01*
X40552970Y-63998132D01*
X40701088Y-64146509D01*
X40894713Y-64226909D01*
X41104367Y-64227092D01*
X41298132Y-64147030D01*
X41446509Y-63998912D01*
X41526909Y-63805287D01*
X41527092Y-63595633D01*
X41447030Y-63401868D01*
X41298912Y-63253491D01*
X41105287Y-63173091D01*
X40895633Y-63172908D01*
X40701868Y-63252970D01*
X40553491Y-63401088D01*
X40473091Y-63594713D01*
X40472908Y-63804367D01*
X20327000Y-63804367D01*
X20327000Y-62883191D01*
X21122805Y-62883191D01*
X21294019Y-63297560D01*
X21610772Y-63614867D01*
X22024842Y-63786804D01*
X22473191Y-63787195D01*
X22887560Y-63615981D01*
X23204867Y-63299228D01*
X23272077Y-63137367D01*
X33022908Y-63137367D01*
X33102970Y-63331132D01*
X33251088Y-63479509D01*
X33444713Y-63559909D01*
X33654367Y-63560092D01*
X33848132Y-63480030D01*
X33996509Y-63331912D01*
X34076909Y-63138287D01*
X34077092Y-62928633D01*
X33997030Y-62734868D01*
X33848912Y-62586491D01*
X33655287Y-62506091D01*
X33445633Y-62505908D01*
X33251868Y-62585970D01*
X33103491Y-62734088D01*
X33023091Y-62927713D01*
X33022908Y-63137367D01*
X23272077Y-63137367D01*
X23324135Y-63012000D01*
X32619995Y-63012000D01*
X32620000Y-63012001D01*
X32754705Y-62985206D01*
X32868902Y-62908902D01*
X33550803Y-62227000D01*
X38866744Y-62227000D01*
X38961088Y-62321509D01*
X39154713Y-62401909D01*
X39364367Y-62402092D01*
X39558132Y-62322030D01*
X39706509Y-62173912D01*
X39786909Y-61980287D01*
X39787092Y-61770633D01*
X39707030Y-61576868D01*
X39558912Y-61428491D01*
X39365287Y-61348091D01*
X39155633Y-61347908D01*
X38961868Y-61427970D01*
X38866672Y-61523000D01*
X33405005Y-61523000D01*
X33405000Y-61522999D01*
X33292644Y-61545348D01*
X33270295Y-61549794D01*
X33156098Y-61626098D01*
X33156096Y-61626101D01*
X32474196Y-62308000D01*
X23323972Y-62308000D01*
X23205981Y-62022440D01*
X22889228Y-61705133D01*
X22475158Y-61533196D01*
X22026809Y-61532805D01*
X21612440Y-61704019D01*
X21295133Y-62020772D01*
X21123196Y-62434842D01*
X21122805Y-62883191D01*
X20327000Y-62883191D01*
X20327000Y-60120000D01*
X21100921Y-60120000D01*
X21186709Y-60551284D01*
X21431012Y-60916909D01*
X21796637Y-61161212D01*
X22227921Y-61247000D01*
X22272079Y-61247000D01*
X22703363Y-61161212D01*
X23012928Y-60954367D01*
X28197908Y-60954367D01*
X28277970Y-61148132D01*
X28426088Y-61296509D01*
X28619713Y-61376909D01*
X28829367Y-61377092D01*
X29023132Y-61297030D01*
X29171509Y-61148912D01*
X29251909Y-60955287D01*
X29252092Y-60745633D01*
X29172030Y-60551868D01*
X29023912Y-60403491D01*
X28830287Y-60323091D01*
X28620633Y-60322908D01*
X28426868Y-60402970D01*
X28278491Y-60551088D01*
X28198091Y-60744713D01*
X28197908Y-60954367D01*
X23012928Y-60954367D01*
X23068988Y-60916909D01*
X23313291Y-60551284D01*
X23399079Y-60120000D01*
X23313291Y-59688716D01*
X23068988Y-59323091D01*
X22703363Y-59078788D01*
X22272079Y-58993000D01*
X22227921Y-58993000D01*
X21796637Y-59078788D01*
X21431012Y-59323091D01*
X21186709Y-59688716D01*
X21100921Y-60120000D01*
X20327000Y-60120000D01*
X20327000Y-57580000D01*
X21100921Y-57580000D01*
X21186709Y-58011284D01*
X21431012Y-58376909D01*
X21796637Y-58621212D01*
X22227921Y-58707000D01*
X22272079Y-58707000D01*
X22285315Y-58704367D01*
X27472908Y-58704367D01*
X27552970Y-58898132D01*
X27701088Y-59046509D01*
X27894713Y-59126909D01*
X28104367Y-59127092D01*
X28298132Y-59047030D01*
X28446509Y-58898912D01*
X28526909Y-58705287D01*
X28527092Y-58495633D01*
X28447030Y-58301868D01*
X28298912Y-58153491D01*
X28105287Y-58073091D01*
X27895633Y-58072908D01*
X27701868Y-58152970D01*
X27553491Y-58301088D01*
X27473091Y-58494713D01*
X27472908Y-58704367D01*
X22285315Y-58704367D01*
X22703363Y-58621212D01*
X23068988Y-58376909D01*
X23313291Y-58011284D01*
X23399079Y-57580000D01*
X23313291Y-57148716D01*
X23068988Y-56783091D01*
X22703363Y-56538788D01*
X22272079Y-56453000D01*
X22227921Y-56453000D01*
X21796637Y-56538788D01*
X21431012Y-56783091D01*
X21186709Y-57148716D01*
X21100921Y-57580000D01*
X20327000Y-57580000D01*
X20327000Y-55040000D01*
X21100921Y-55040000D01*
X21186709Y-55471284D01*
X21431012Y-55836909D01*
X21796637Y-56081212D01*
X22227921Y-56167000D01*
X22272079Y-56167000D01*
X22703363Y-56081212D01*
X23068988Y-55836909D01*
X23313291Y-55471284D01*
X23399079Y-55040000D01*
X23394974Y-55019360D01*
X26153459Y-55019360D01*
X26233521Y-55213125D01*
X26381639Y-55361502D01*
X26575264Y-55441902D01*
X26784918Y-55442085D01*
X26978683Y-55362023D01*
X27127060Y-55213905D01*
X27207460Y-55020280D01*
X27207643Y-54810626D01*
X27127581Y-54616861D01*
X26979463Y-54468484D01*
X26785838Y-54388084D01*
X26576184Y-54387901D01*
X26382419Y-54467963D01*
X26234042Y-54616081D01*
X26153642Y-54809706D01*
X26153459Y-55019360D01*
X23394974Y-55019360D01*
X23313291Y-54608716D01*
X23068988Y-54243091D01*
X22789382Y-54056264D01*
X27691759Y-54056264D01*
X27691759Y-54111735D01*
X27695647Y-54131283D01*
X27693972Y-54151145D01*
X27705311Y-54251785D01*
X27717322Y-54289468D01*
X27722851Y-54328633D01*
X27756300Y-54424224D01*
X27776395Y-54458291D01*
X27790499Y-54495239D01*
X27844380Y-54580991D01*
X27871551Y-54609731D01*
X27893526Y-54642619D01*
X27965139Y-54714232D01*
X27998027Y-54736207D01*
X28026767Y-54763378D01*
X28112519Y-54817259D01*
X28149469Y-54831363D01*
X28183534Y-54851458D01*
X28279125Y-54884907D01*
X28318290Y-54890436D01*
X28355970Y-54902446D01*
X28456609Y-54913786D01*
X28476471Y-54912111D01*
X28496023Y-54916000D01*
X28680272Y-54916000D01*
X28669741Y-54932760D01*
X28655637Y-54969708D01*
X28635542Y-55003775D01*
X28602093Y-55099366D01*
X28596564Y-55138531D01*
X28584554Y-55176211D01*
X28573214Y-55276850D01*
X28574889Y-55296712D01*
X28571000Y-55316264D01*
X28571000Y-55531692D01*
X28570999Y-55531697D01*
X28597794Y-55666402D01*
X28674098Y-55780599D01*
X29256463Y-56362963D01*
X29142805Y-56476620D01*
X29131731Y-56493194D01*
X29116501Y-56506054D01*
X29053357Y-56585233D01*
X29035202Y-56620376D01*
X29011421Y-56651976D01*
X28967480Y-56743221D01*
X28957602Y-56781515D01*
X28941446Y-56817619D01*
X28918910Y-56916355D01*
X28917801Y-56955893D01*
X28910085Y-56994683D01*
X28910085Y-57095958D01*
X28917801Y-57134748D01*
X28918910Y-57174286D01*
X28941446Y-57273022D01*
X28957602Y-57309126D01*
X28967480Y-57347420D01*
X29011421Y-57438665D01*
X29035202Y-57470265D01*
X29053357Y-57505408D01*
X29116501Y-57584587D01*
X29131729Y-57597446D01*
X29142804Y-57614021D01*
X29182030Y-57653246D01*
X29198601Y-57664319D01*
X29211462Y-57679549D01*
X29290642Y-57742693D01*
X29325785Y-57760848D01*
X29357385Y-57784629D01*
X29448630Y-57828570D01*
X29486924Y-57838448D01*
X29523028Y-57854604D01*
X29621764Y-57877139D01*
X29661298Y-57878249D01*
X29700092Y-57885965D01*
X29801036Y-57885965D01*
X29801036Y-57986909D01*
X29808752Y-58025699D01*
X29809861Y-58065237D01*
X29832397Y-58163973D01*
X29848552Y-58200075D01*
X29858430Y-58238370D01*
X29902371Y-58329616D01*
X29926153Y-58361218D01*
X29944308Y-58396360D01*
X30007452Y-58475539D01*
X30022680Y-58488398D01*
X30033755Y-58504973D01*
X30072979Y-58544197D01*
X30089552Y-58555271D01*
X30102412Y-58570500D01*
X30181592Y-58633644D01*
X30216735Y-58651799D01*
X30248335Y-58675580D01*
X30339580Y-58719521D01*
X30377874Y-58729399D01*
X30413978Y-58745555D01*
X30512714Y-58768090D01*
X30552248Y-58769200D01*
X30591042Y-58776916D01*
X30691987Y-58776916D01*
X30691987Y-58877860D01*
X30699703Y-58916650D01*
X30700812Y-58956188D01*
X30723348Y-59054924D01*
X30739503Y-59091026D01*
X30749381Y-59129321D01*
X30793322Y-59220567D01*
X30817104Y-59252169D01*
X30835259Y-59287311D01*
X30898403Y-59366490D01*
X30913631Y-59379349D01*
X30924706Y-59395924D01*
X30963930Y-59435148D01*
X30980503Y-59446222D01*
X30993363Y-59461451D01*
X31072543Y-59524595D01*
X31107686Y-59542750D01*
X31139286Y-59566531D01*
X31230531Y-59610472D01*
X31268825Y-59620350D01*
X31304929Y-59636506D01*
X31403665Y-59659041D01*
X31443199Y-59660151D01*
X31481993Y-59667867D01*
X31583268Y-59667867D01*
X31622058Y-59660151D01*
X31661596Y-59659042D01*
X31760332Y-59636506D01*
X31796434Y-59620351D01*
X31834729Y-59610473D01*
X31925975Y-59566532D01*
X31957577Y-59542750D01*
X31992719Y-59524595D01*
X32071898Y-59461451D01*
X32084758Y-59446221D01*
X32101332Y-59435147D01*
X32292254Y-59244224D01*
X32296658Y-59263518D01*
X32312814Y-59299622D01*
X32322692Y-59337916D01*
X32366633Y-59429161D01*
X32390414Y-59460761D01*
X32408569Y-59495904D01*
X32471713Y-59575083D01*
X32486941Y-59587942D01*
X32498016Y-59604517D01*
X32752570Y-59859071D01*
X32712336Y-59955965D01*
X32712153Y-60165619D01*
X32792215Y-60359384D01*
X32940333Y-60507761D01*
X33133958Y-60588161D01*
X33343612Y-60588344D01*
X33537377Y-60508282D01*
X33579188Y-60466544D01*
X33620333Y-60507761D01*
X33813958Y-60588161D01*
X34023612Y-60588344D01*
X34217377Y-60508282D01*
X34365754Y-60360164D01*
X34446154Y-60166539D01*
X34446337Y-59956885D01*
X34366275Y-59763120D01*
X34218157Y-59614743D01*
X34024532Y-59534343D01*
X33890022Y-59534226D01*
X33391614Y-59035816D01*
X33418115Y-59009315D01*
X34086154Y-59009315D01*
X34166216Y-59203080D01*
X34314334Y-59351457D01*
X34507959Y-59431857D01*
X34717613Y-59432040D01*
X34911378Y-59351978D01*
X35059755Y-59203860D01*
X35140155Y-59010235D01*
X35140338Y-58800581D01*
X35060276Y-58606816D01*
X34912158Y-58458439D01*
X34718533Y-58378039D01*
X34508879Y-58377856D01*
X34315114Y-58457918D01*
X34166737Y-58606036D01*
X34086337Y-58799661D01*
X34086154Y-59009315D01*
X33418115Y-59009315D01*
X33485657Y-58941774D01*
X33485660Y-58941772D01*
X33505272Y-58922159D01*
X33516345Y-58905588D01*
X33531575Y-58892727D01*
X33594719Y-58813547D01*
X33612875Y-58778403D01*
X33636658Y-58746799D01*
X33680598Y-58655551D01*
X33690475Y-58617260D01*
X33706629Y-58581159D01*
X33729164Y-58482423D01*
X33730273Y-58442891D01*
X33737990Y-58404098D01*
X33737991Y-58302824D01*
X33730275Y-58264029D01*
X33729165Y-58224493D01*
X33706630Y-58125757D01*
X33690474Y-58089653D01*
X33680596Y-58051359D01*
X33636655Y-57960114D01*
X33612874Y-57928514D01*
X33594719Y-57893371D01*
X33531575Y-57814191D01*
X33516346Y-57801331D01*
X33505272Y-57784758D01*
X33466048Y-57745534D01*
X33449473Y-57734459D01*
X33436614Y-57719231D01*
X33357435Y-57656087D01*
X33322295Y-57637933D01*
X33290692Y-57614150D01*
X33199445Y-57570209D01*
X33161151Y-57560331D01*
X33125047Y-57544175D01*
X33026311Y-57521639D01*
X32986771Y-57520530D01*
X32947980Y-57512814D01*
X32847039Y-57512815D01*
X32847040Y-57411873D01*
X32839324Y-57373078D01*
X32838214Y-57333542D01*
X32815679Y-57234806D01*
X32799523Y-57198702D01*
X32789645Y-57160408D01*
X32745704Y-57069163D01*
X32721923Y-57037563D01*
X32703768Y-57002420D01*
X32640624Y-56923240D01*
X32625395Y-56910380D01*
X32614321Y-56893807D01*
X32575097Y-56854583D01*
X32558522Y-56843508D01*
X32545663Y-56828280D01*
X32466484Y-56765136D01*
X32431344Y-56746982D01*
X32399741Y-56723199D01*
X32308494Y-56679258D01*
X32270200Y-56669380D01*
X32234096Y-56653224D01*
X32135360Y-56630688D01*
X32095820Y-56629579D01*
X32057029Y-56621863D01*
X31956088Y-56621864D01*
X31956088Y-56529367D01*
X32897908Y-56529367D01*
X32977970Y-56723132D01*
X33126088Y-56871509D01*
X33319713Y-56951909D01*
X33529367Y-56952092D01*
X33723132Y-56872030D01*
X33871509Y-56723912D01*
X33951909Y-56530287D01*
X33952092Y-56320633D01*
X33872030Y-56126868D01*
X33723912Y-55978491D01*
X33530287Y-55898091D01*
X33320633Y-55897908D01*
X33126868Y-55977970D01*
X32978491Y-56126088D01*
X32898091Y-56319713D01*
X32897908Y-56529367D01*
X31956088Y-56529367D01*
X31956089Y-56520922D01*
X31948373Y-56482127D01*
X31947263Y-56442591D01*
X31924728Y-56343855D01*
X31908572Y-56307751D01*
X31898694Y-56269457D01*
X31854753Y-56178212D01*
X31830972Y-56146612D01*
X31812817Y-56111469D01*
X31749673Y-56032289D01*
X31734444Y-56019429D01*
X31723370Y-56002856D01*
X31684146Y-55963632D01*
X31667571Y-55952557D01*
X31654712Y-55937329D01*
X31575533Y-55874185D01*
X31540393Y-55856031D01*
X31508790Y-55832248D01*
X31417543Y-55788307D01*
X31379249Y-55778429D01*
X31343145Y-55762273D01*
X31244409Y-55739737D01*
X31204869Y-55738628D01*
X31166078Y-55730912D01*
X31064804Y-55730913D01*
X31026011Y-55738630D01*
X30986479Y-55739739D01*
X30887743Y-55762274D01*
X30851639Y-55778430D01*
X30813345Y-55788308D01*
X30722100Y-55832249D01*
X30690500Y-55856030D01*
X30655357Y-55874185D01*
X30576177Y-55937329D01*
X30563316Y-55952560D01*
X30546745Y-55963632D01*
X30355821Y-56154555D01*
X30351418Y-56135262D01*
X30335263Y-56099159D01*
X30325384Y-56060863D01*
X30281442Y-55969616D01*
X30257659Y-55938014D01*
X30239506Y-55902875D01*
X30176362Y-55823695D01*
X30161131Y-55810834D01*
X30150058Y-55794262D01*
X29873941Y-55518145D01*
X29896875Y-55514907D01*
X29992466Y-55481458D01*
X30026533Y-55461363D01*
X30063481Y-55447259D01*
X30149233Y-55393378D01*
X30177973Y-55366207D01*
X30210861Y-55344232D01*
X30282474Y-55272619D01*
X30304449Y-55239731D01*
X30331620Y-55210991D01*
X30385501Y-55125239D01*
X30399605Y-55088289D01*
X30419700Y-55054224D01*
X30433613Y-55014462D01*
X30601873Y-55014462D01*
X30681935Y-55208227D01*
X30830053Y-55356604D01*
X31023678Y-55437004D01*
X31233332Y-55437187D01*
X31262657Y-55425070D01*
X31334164Y-55598131D01*
X31482282Y-55746508D01*
X31675907Y-55826908D01*
X31885561Y-55827091D01*
X32079326Y-55747029D01*
X32164457Y-55662047D01*
X32318008Y-55725807D01*
X32527662Y-55725990D01*
X32638799Y-55680069D01*
X32756287Y-55797762D01*
X32949912Y-55878162D01*
X33159566Y-55878345D01*
X33353331Y-55798283D01*
X33501708Y-55650165D01*
X33578041Y-55466334D01*
X33706299Y-55594816D01*
X33899924Y-55675216D01*
X34109578Y-55675399D01*
X34303343Y-55595337D01*
X34392825Y-55506011D01*
X34540952Y-55567519D01*
X34750606Y-55567702D01*
X34944371Y-55487640D01*
X35047362Y-55384829D01*
X35178160Y-55439141D01*
X35387814Y-55439324D01*
X35581579Y-55359262D01*
X35692110Y-55248924D01*
X35819713Y-55301909D01*
X36007290Y-55302073D01*
X36077970Y-55473132D01*
X36226088Y-55621509D01*
X36419713Y-55701909D01*
X36629367Y-55702092D01*
X36823132Y-55622030D01*
X36971509Y-55473912D01*
X37051909Y-55280287D01*
X37052092Y-55070633D01*
X36972030Y-54876868D01*
X36823912Y-54728491D01*
X36630287Y-54648091D01*
X36442710Y-54647927D01*
X36372030Y-54476868D01*
X36223912Y-54328491D01*
X36030287Y-54248091D01*
X35820633Y-54247908D01*
X35626868Y-54327970D01*
X35516337Y-54438308D01*
X35388734Y-54385323D01*
X35179080Y-54385140D01*
X34985315Y-54465202D01*
X34882324Y-54568013D01*
X34751526Y-54513701D01*
X34541872Y-54513518D01*
X34348107Y-54593580D01*
X34258625Y-54682906D01*
X34110498Y-54621398D01*
X33900844Y-54621215D01*
X33707079Y-54701277D01*
X33558702Y-54849395D01*
X33482369Y-55033226D01*
X33354111Y-54904744D01*
X33160486Y-54824344D01*
X32950832Y-54824161D01*
X32839695Y-54870082D01*
X32722207Y-54752389D01*
X32528582Y-54671989D01*
X32318928Y-54671806D01*
X32125163Y-54751868D01*
X32040032Y-54836850D01*
X31886481Y-54773090D01*
X31676827Y-54772907D01*
X31647502Y-54785024D01*
X31575995Y-54611963D01*
X31427877Y-54463586D01*
X31234252Y-54383186D01*
X31024598Y-54383003D01*
X30830833Y-54463065D01*
X30682456Y-54611183D01*
X30602056Y-54804808D01*
X30601873Y-55014462D01*
X30433613Y-55014462D01*
X30453149Y-54958633D01*
X30458679Y-54919467D01*
X30470689Y-54881784D01*
X30482028Y-54781145D01*
X30480353Y-54761283D01*
X30484241Y-54741735D01*
X30484241Y-54686264D01*
X30480353Y-54666716D01*
X30482028Y-54646854D01*
X30470689Y-54546215D01*
X30458679Y-54508532D01*
X30453149Y-54469366D01*
X30419700Y-54373775D01*
X30399605Y-54339710D01*
X30385501Y-54302760D01*
X30331620Y-54217008D01*
X30304449Y-54188268D01*
X30282474Y-54155380D01*
X30256461Y-54129367D01*
X37272908Y-54129367D01*
X37352970Y-54323132D01*
X37501088Y-54471509D01*
X37694713Y-54551909D01*
X37904367Y-54552092D01*
X38098132Y-54472030D01*
X38246509Y-54323912D01*
X38326909Y-54130287D01*
X38327092Y-53920633D01*
X38247030Y-53726868D01*
X38098912Y-53578491D01*
X37905287Y-53498091D01*
X37695633Y-53497908D01*
X37501868Y-53577970D01*
X37353491Y-53726088D01*
X37273091Y-53919713D01*
X37272908Y-54129367D01*
X30256461Y-54129367D01*
X30210861Y-54083767D01*
X30177973Y-54061792D01*
X30149233Y-54034621D01*
X30063481Y-53980740D01*
X30026533Y-53966636D01*
X29992466Y-53946541D01*
X29896875Y-53913092D01*
X29857710Y-53907563D01*
X29820027Y-53895552D01*
X29719387Y-53884213D01*
X29699525Y-53885888D01*
X29679977Y-53882000D01*
X29495727Y-53882000D01*
X29506259Y-53865239D01*
X29520363Y-53828289D01*
X29540458Y-53794224D01*
X29573907Y-53698633D01*
X29579436Y-53659468D01*
X29591446Y-53621788D01*
X29602786Y-53521149D01*
X29601111Y-53501287D01*
X29605000Y-53481735D01*
X29605000Y-52641867D01*
X31710408Y-52641867D01*
X31790470Y-52835632D01*
X31938588Y-52984009D01*
X32132213Y-53064409D01*
X32341867Y-53064592D01*
X32535632Y-52984530D01*
X32684009Y-52836412D01*
X32764409Y-52642787D01*
X32764409Y-52641867D01*
X32997908Y-52641867D01*
X33077970Y-52835632D01*
X33226088Y-52984009D01*
X33419713Y-53064409D01*
X33629367Y-53064592D01*
X33823132Y-52984530D01*
X33971509Y-52836412D01*
X34051909Y-52642787D01*
X34051909Y-52641867D01*
X34285408Y-52641867D01*
X34365470Y-52835632D01*
X34513588Y-52984009D01*
X34707213Y-53064409D01*
X34916867Y-53064592D01*
X35110632Y-52984530D01*
X35259009Y-52836412D01*
X35339409Y-52642787D01*
X35339409Y-52641867D01*
X35572908Y-52641867D01*
X35652970Y-52835632D01*
X35801088Y-52984009D01*
X35994713Y-53064409D01*
X36204367Y-53064592D01*
X36398132Y-52984530D01*
X36546509Y-52836412D01*
X36626909Y-52642787D01*
X36627068Y-52460617D01*
X37791658Y-52460617D01*
X37871720Y-52654382D01*
X38019838Y-52802759D01*
X38213463Y-52883159D01*
X38423117Y-52883342D01*
X38616882Y-52803280D01*
X38765259Y-52655162D01*
X38845659Y-52461537D01*
X38845842Y-52251883D01*
X38765780Y-52058118D01*
X38689015Y-51981219D01*
X38796509Y-51873912D01*
X38876909Y-51680287D01*
X38877092Y-51470633D01*
X38797030Y-51276868D01*
X38648912Y-51128491D01*
X38455287Y-51048091D01*
X38245633Y-51047908D01*
X38051868Y-51127970D01*
X37903491Y-51276088D01*
X37823091Y-51469713D01*
X37822908Y-51679367D01*
X37902970Y-51873132D01*
X37979735Y-51950031D01*
X37872241Y-52057338D01*
X37791841Y-52250963D01*
X37791658Y-52460617D01*
X36627068Y-52460617D01*
X36627092Y-52433133D01*
X36547030Y-52239368D01*
X36398912Y-52090991D01*
X36205287Y-52010591D01*
X35995633Y-52010408D01*
X35801868Y-52090470D01*
X35653491Y-52238588D01*
X35573091Y-52432213D01*
X35572908Y-52641867D01*
X35339409Y-52641867D01*
X35339592Y-52433133D01*
X35259530Y-52239368D01*
X35111412Y-52090991D01*
X34917787Y-52010591D01*
X34708133Y-52010408D01*
X34514368Y-52090470D01*
X34365991Y-52238588D01*
X34285591Y-52432213D01*
X34285408Y-52641867D01*
X34051909Y-52641867D01*
X34052092Y-52433133D01*
X33972030Y-52239368D01*
X33823912Y-52090991D01*
X33630287Y-52010591D01*
X33420633Y-52010408D01*
X33226868Y-52090470D01*
X33078491Y-52238588D01*
X32998091Y-52432213D01*
X32997908Y-52641867D01*
X32764409Y-52641867D01*
X32764592Y-52433133D01*
X32684530Y-52239368D01*
X32536412Y-52090991D01*
X32342787Y-52010591D01*
X32133133Y-52010408D01*
X31939368Y-52090470D01*
X31790991Y-52238588D01*
X31710591Y-52432213D01*
X31710408Y-52641867D01*
X29605000Y-52641867D01*
X29605000Y-52498800D01*
X29684997Y-52498870D01*
X29878762Y-52418808D01*
X30027139Y-52270690D01*
X30107539Y-52077065D01*
X30107722Y-51867411D01*
X30027660Y-51673646D01*
X29985922Y-51631835D01*
X30027139Y-51590690D01*
X30107539Y-51397065D01*
X30107576Y-51354367D01*
X31710408Y-51354367D01*
X31790470Y-51548132D01*
X31938588Y-51696509D01*
X32132213Y-51776909D01*
X32341867Y-51777092D01*
X32535632Y-51697030D01*
X32684009Y-51548912D01*
X32764409Y-51355287D01*
X32764409Y-51354367D01*
X32997908Y-51354367D01*
X33077970Y-51548132D01*
X33226088Y-51696509D01*
X33419713Y-51776909D01*
X33629367Y-51777092D01*
X33823132Y-51697030D01*
X33971509Y-51548912D01*
X34051909Y-51355287D01*
X34051909Y-51354367D01*
X34285408Y-51354367D01*
X34365470Y-51548132D01*
X34513588Y-51696509D01*
X34707213Y-51776909D01*
X34916867Y-51777092D01*
X35110632Y-51697030D01*
X35259009Y-51548912D01*
X35339409Y-51355287D01*
X35339409Y-51354367D01*
X35472908Y-51354367D01*
X35552970Y-51548132D01*
X35701088Y-51696509D01*
X35894713Y-51776909D01*
X36104367Y-51777092D01*
X36298132Y-51697030D01*
X36446509Y-51548912D01*
X36526909Y-51355287D01*
X36527092Y-51145633D01*
X36447030Y-50951868D01*
X36374656Y-50879367D01*
X39372908Y-50879367D01*
X39452970Y-51073132D01*
X39601088Y-51221509D01*
X39794713Y-51301909D01*
X40004367Y-51302092D01*
X40198132Y-51222030D01*
X40346509Y-51073912D01*
X40426909Y-50880287D01*
X40427092Y-50670633D01*
X40347030Y-50476868D01*
X40198912Y-50328491D01*
X40005287Y-50248091D01*
X39795633Y-50247908D01*
X39601868Y-50327970D01*
X39453491Y-50476088D01*
X39373091Y-50669713D01*
X39372908Y-50879367D01*
X36374656Y-50879367D01*
X36298912Y-50803491D01*
X36105287Y-50723091D01*
X35895633Y-50722908D01*
X35701868Y-50802970D01*
X35553491Y-50951088D01*
X35473091Y-51144713D01*
X35472908Y-51354367D01*
X35339409Y-51354367D01*
X35339592Y-51145633D01*
X35259530Y-50951868D01*
X35111412Y-50803491D01*
X34917787Y-50723091D01*
X34708133Y-50722908D01*
X34514368Y-50802970D01*
X34365991Y-50951088D01*
X34285591Y-51144713D01*
X34285408Y-51354367D01*
X34051909Y-51354367D01*
X34052092Y-51145633D01*
X33972030Y-50951868D01*
X33823912Y-50803491D01*
X33630287Y-50723091D01*
X33420633Y-50722908D01*
X33226868Y-50802970D01*
X33078491Y-50951088D01*
X32998091Y-51144713D01*
X32997908Y-51354367D01*
X32764409Y-51354367D01*
X32764592Y-51145633D01*
X32684530Y-50951868D01*
X32536412Y-50803491D01*
X32342787Y-50723091D01*
X32133133Y-50722908D01*
X31939368Y-50802970D01*
X31790991Y-50951088D01*
X31710591Y-51144713D01*
X31710408Y-51354367D01*
X30107576Y-51354367D01*
X30107722Y-51187411D01*
X30027660Y-50993646D01*
X29879542Y-50845269D01*
X29685917Y-50764869D01*
X29476263Y-50764686D01*
X29282498Y-50844748D01*
X29134121Y-50992866D01*
X29071298Y-51144162D01*
X28960975Y-51217877D01*
X28960973Y-51217880D01*
X28674098Y-51504754D01*
X28597794Y-51618951D01*
X28570999Y-51753656D01*
X28571000Y-51753661D01*
X28571000Y-53252000D01*
X28496023Y-53252000D01*
X28476475Y-53255888D01*
X28456613Y-53254213D01*
X28355974Y-53265552D01*
X28318291Y-53277562D01*
X28279125Y-53283092D01*
X28183534Y-53316541D01*
X28149469Y-53336636D01*
X28112519Y-53350740D01*
X28026767Y-53404621D01*
X27998027Y-53431792D01*
X27965139Y-53453767D01*
X27893526Y-53525380D01*
X27871551Y-53558268D01*
X27844380Y-53587008D01*
X27790499Y-53672760D01*
X27776395Y-53709708D01*
X27756300Y-53743775D01*
X27722851Y-53839366D01*
X27717322Y-53878531D01*
X27705311Y-53916214D01*
X27693972Y-54016854D01*
X27695647Y-54036716D01*
X27691759Y-54056264D01*
X22789382Y-54056264D01*
X22703363Y-53998788D01*
X22272079Y-53913000D01*
X22227921Y-53913000D01*
X21796637Y-53998788D01*
X21431012Y-54243091D01*
X21186709Y-54608716D01*
X21100921Y-55040000D01*
X20327000Y-55040000D01*
X20327000Y-52500000D01*
X21100921Y-52500000D01*
X21186709Y-52931284D01*
X21431012Y-53296909D01*
X21796637Y-53541212D01*
X22227921Y-53627000D01*
X22272079Y-53627000D01*
X22326188Y-53616237D01*
X26284341Y-53616237D01*
X26364403Y-53810002D01*
X26512521Y-53958379D01*
X26706146Y-54038779D01*
X26915800Y-54038962D01*
X27109565Y-53958900D01*
X27257942Y-53810782D01*
X27338342Y-53617157D01*
X27338525Y-53407503D01*
X27258463Y-53213738D01*
X27110345Y-53065361D01*
X26916720Y-52984961D01*
X26707066Y-52984778D01*
X26513301Y-53064840D01*
X26364924Y-53212958D01*
X26284524Y-53406583D01*
X26284341Y-53616237D01*
X22326188Y-53616237D01*
X22703363Y-53541212D01*
X23068988Y-53296909D01*
X23313291Y-52931284D01*
X23399079Y-52500000D01*
X23313291Y-52068716D01*
X23068988Y-51703091D01*
X22703363Y-51458788D01*
X22272079Y-51373000D01*
X22227921Y-51373000D01*
X21796637Y-51458788D01*
X21431012Y-51703091D01*
X21186709Y-52068716D01*
X21100921Y-52500000D01*
X20327000Y-52500000D01*
X20327000Y-49960000D01*
X21100921Y-49960000D01*
X21186709Y-50391284D01*
X21431012Y-50756909D01*
X21796637Y-51001212D01*
X22227921Y-51087000D01*
X22272079Y-51087000D01*
X22703363Y-51001212D01*
X23068988Y-50756909D01*
X23313291Y-50391284D01*
X23325607Y-50329367D01*
X29022908Y-50329367D01*
X29102970Y-50523132D01*
X29251088Y-50671509D01*
X29444713Y-50751909D01*
X29654367Y-50752092D01*
X29848132Y-50672030D01*
X29996509Y-50523912D01*
X30076909Y-50330287D01*
X30077092Y-50120633D01*
X30054877Y-50066867D01*
X31710408Y-50066867D01*
X31790470Y-50260632D01*
X31938588Y-50409009D01*
X32132213Y-50489409D01*
X32341867Y-50489592D01*
X32535632Y-50409530D01*
X32684009Y-50261412D01*
X32764409Y-50067787D01*
X32764409Y-50066867D01*
X32997908Y-50066867D01*
X33077970Y-50260632D01*
X33226088Y-50409009D01*
X33419713Y-50489409D01*
X33629367Y-50489592D01*
X33823132Y-50409530D01*
X33971509Y-50261412D01*
X34051909Y-50067787D01*
X34051909Y-50066867D01*
X34285408Y-50066867D01*
X34365470Y-50260632D01*
X34513588Y-50409009D01*
X34707213Y-50489409D01*
X34916867Y-50489592D01*
X35110632Y-50409530D01*
X35259009Y-50261412D01*
X35324219Y-50104367D01*
X35472908Y-50104367D01*
X35552970Y-50298132D01*
X35701088Y-50446509D01*
X35894713Y-50526909D01*
X36104367Y-50527092D01*
X36298132Y-50447030D01*
X36446509Y-50298912D01*
X36516910Y-50129367D01*
X37872908Y-50129367D01*
X37952970Y-50323132D01*
X38101088Y-50471509D01*
X38294713Y-50551909D01*
X38504367Y-50552092D01*
X38698132Y-50472030D01*
X38846509Y-50323912D01*
X38926909Y-50130287D01*
X38926956Y-50077000D01*
X40004196Y-50077000D01*
X43572999Y-53645802D01*
X43572999Y-54648162D01*
X43558524Y-54683110D01*
X43572999Y-54710539D01*
X43572999Y-55369461D01*
X43558524Y-55396890D01*
X43572999Y-55431838D01*
X43572999Y-57131743D01*
X43478490Y-57226087D01*
X43398090Y-57419712D01*
X43397907Y-57629366D01*
X43477969Y-57823131D01*
X43626087Y-57971508D01*
X43819712Y-58051908D01*
X44029366Y-58052091D01*
X44223131Y-57972029D01*
X44371508Y-57823911D01*
X44451908Y-57630286D01*
X44452091Y-57420632D01*
X44372029Y-57226867D01*
X44276999Y-57131671D01*
X44276999Y-56309552D01*
X44643108Y-56481486D01*
X44873000Y-56360819D01*
X44873000Y-55167000D01*
X45127000Y-55167000D01*
X45127000Y-56360819D01*
X45356892Y-56481486D01*
X45881358Y-56235183D01*
X46271645Y-55806924D01*
X46441476Y-55396890D01*
X46320155Y-55167000D01*
X45127000Y-55167000D01*
X44873000Y-55167000D01*
X44276999Y-55167000D01*
X44276999Y-54913000D01*
X44873000Y-54913000D01*
X44873000Y-54893000D01*
X45127000Y-54893000D01*
X45127000Y-54913000D01*
X46320155Y-54913000D01*
X46441476Y-54683110D01*
X46271645Y-54273076D01*
X45881358Y-53844817D01*
X45356892Y-53598514D01*
X45127002Y-53719180D01*
X45127002Y-53606129D01*
X45453363Y-53541212D01*
X45818988Y-53296909D01*
X46063291Y-52931284D01*
X46149079Y-52500000D01*
X46063291Y-52068716D01*
X45818988Y-51703091D01*
X45453363Y-51458788D01*
X45022079Y-51373000D01*
X44977921Y-51373000D01*
X44546637Y-51458788D01*
X44181012Y-51703091D01*
X43936709Y-52068716D01*
X43850921Y-52500000D01*
X43936709Y-52931284D01*
X44103083Y-53180280D01*
X40882804Y-49960000D01*
X43850921Y-49960000D01*
X43936709Y-50391284D01*
X44181012Y-50756909D01*
X44546637Y-51001212D01*
X44977921Y-51087000D01*
X45022079Y-51087000D01*
X45453363Y-51001212D01*
X45818988Y-50756909D01*
X46063291Y-50391284D01*
X46149079Y-49960000D01*
X46063291Y-49528716D01*
X45818988Y-49163091D01*
X45453363Y-48918788D01*
X45022079Y-48833000D01*
X44977921Y-48833000D01*
X44546637Y-48918788D01*
X44181012Y-49163091D01*
X43936709Y-49528716D01*
X43850921Y-49960000D01*
X40882804Y-49960000D01*
X40398902Y-49476098D01*
X40284705Y-49399794D01*
X40150000Y-49372999D01*
X40149995Y-49373000D01*
X38700005Y-49373000D01*
X38700000Y-49372999D01*
X38565295Y-49399794D01*
X38451098Y-49476098D01*
X38429171Y-49498025D01*
X38295633Y-49497908D01*
X38101868Y-49577970D01*
X37953491Y-49726088D01*
X37873091Y-49919713D01*
X37872908Y-50129367D01*
X36516910Y-50129367D01*
X36526909Y-50105287D01*
X36527092Y-49895633D01*
X36447030Y-49701868D01*
X36298912Y-49553491D01*
X36105287Y-49473091D01*
X35895633Y-49472908D01*
X35701868Y-49552970D01*
X35553491Y-49701088D01*
X35473091Y-49894713D01*
X35472908Y-50104367D01*
X35324219Y-50104367D01*
X35339409Y-50067787D01*
X35339592Y-49858133D01*
X35259530Y-49664368D01*
X35111412Y-49515991D01*
X34917787Y-49435591D01*
X34708133Y-49435408D01*
X34514368Y-49515470D01*
X34365991Y-49663588D01*
X34285591Y-49857213D01*
X34285408Y-50066867D01*
X34051909Y-50066867D01*
X34052092Y-49858133D01*
X33972030Y-49664368D01*
X33823912Y-49515991D01*
X33630287Y-49435591D01*
X33420633Y-49435408D01*
X33226868Y-49515470D01*
X33078491Y-49663588D01*
X32998091Y-49857213D01*
X32997908Y-50066867D01*
X32764409Y-50066867D01*
X32764592Y-49858133D01*
X32684530Y-49664368D01*
X32536412Y-49515991D01*
X32342787Y-49435591D01*
X32133133Y-49435408D01*
X31939368Y-49515470D01*
X31790991Y-49663588D01*
X31710591Y-49857213D01*
X31710408Y-50066867D01*
X30054877Y-50066867D01*
X29997030Y-49926868D01*
X29848912Y-49778491D01*
X29655287Y-49698091D01*
X29445633Y-49697908D01*
X29251868Y-49777970D01*
X29103491Y-49926088D01*
X29023091Y-50119713D01*
X29022908Y-50329367D01*
X23325607Y-50329367D01*
X23399079Y-49960000D01*
X23378066Y-49854357D01*
X27716695Y-49854357D01*
X27796757Y-50048122D01*
X27944875Y-50196499D01*
X28138500Y-50276899D01*
X28348154Y-50277082D01*
X28541919Y-50197020D01*
X28690296Y-50048902D01*
X28770696Y-49855277D01*
X28770879Y-49645623D01*
X28703835Y-49483363D01*
X28781950Y-49405384D01*
X28862350Y-49211759D01*
X28862449Y-49098279D01*
X28982818Y-49098384D01*
X29176583Y-49018322D01*
X29324960Y-48870204D01*
X29362678Y-48779367D01*
X31710408Y-48779367D01*
X31790470Y-48973132D01*
X31938588Y-49121509D01*
X32132213Y-49201909D01*
X32341867Y-49202092D01*
X32535632Y-49122030D01*
X32684009Y-48973912D01*
X32764409Y-48780287D01*
X32764409Y-48779367D01*
X32997908Y-48779367D01*
X33077970Y-48973132D01*
X33226088Y-49121509D01*
X33419713Y-49201909D01*
X33629367Y-49202092D01*
X33823132Y-49122030D01*
X33971509Y-48973912D01*
X34051909Y-48780287D01*
X34051909Y-48779367D01*
X34285408Y-48779367D01*
X34365470Y-48973132D01*
X34513588Y-49121509D01*
X34707213Y-49201909D01*
X34916867Y-49202092D01*
X35110632Y-49122030D01*
X35259009Y-48973912D01*
X35339409Y-48780287D01*
X35339409Y-48779367D01*
X35472908Y-48779367D01*
X35552970Y-48973132D01*
X35701088Y-49121509D01*
X35894713Y-49201909D01*
X36104367Y-49202092D01*
X36298132Y-49122030D01*
X36446509Y-48973912D01*
X36526909Y-48780287D01*
X36527092Y-48570633D01*
X36447030Y-48376868D01*
X36298912Y-48228491D01*
X36105287Y-48148091D01*
X35895633Y-48147908D01*
X35701868Y-48227970D01*
X35553491Y-48376088D01*
X35473091Y-48569713D01*
X35472908Y-48779367D01*
X35339409Y-48779367D01*
X35339592Y-48570633D01*
X35259530Y-48376868D01*
X35111412Y-48228491D01*
X34917787Y-48148091D01*
X34708133Y-48147908D01*
X34514368Y-48227970D01*
X34365991Y-48376088D01*
X34285591Y-48569713D01*
X34285408Y-48779367D01*
X34051909Y-48779367D01*
X34052092Y-48570633D01*
X33972030Y-48376868D01*
X33823912Y-48228491D01*
X33630287Y-48148091D01*
X33420633Y-48147908D01*
X33226868Y-48227970D01*
X33078491Y-48376088D01*
X32998091Y-48569713D01*
X32997908Y-48779367D01*
X32764409Y-48779367D01*
X32764592Y-48570633D01*
X32684530Y-48376868D01*
X32536412Y-48228491D01*
X32342787Y-48148091D01*
X32133133Y-48147908D01*
X31939368Y-48227970D01*
X31790991Y-48376088D01*
X31710591Y-48569713D01*
X31710408Y-48779367D01*
X29362678Y-48779367D01*
X29405360Y-48676579D01*
X29405434Y-48591888D01*
X29525188Y-48641614D01*
X29734842Y-48641797D01*
X29928607Y-48561735D01*
X30076984Y-48413617D01*
X30157384Y-48219992D01*
X30157567Y-48010338D01*
X30102438Y-47876916D01*
X30304367Y-47877092D01*
X30498132Y-47797030D01*
X30646509Y-47648912D01*
X30726909Y-47455287D01*
X30727092Y-47245633D01*
X30647030Y-47051868D01*
X30498912Y-46903491D01*
X30305287Y-46823091D01*
X30095633Y-46822908D01*
X29901868Y-46902970D01*
X29753491Y-47051088D01*
X29673091Y-47244713D01*
X29672908Y-47454367D01*
X29728037Y-47587789D01*
X29526108Y-47587613D01*
X29332343Y-47667675D01*
X29183966Y-47815793D01*
X29103566Y-48009418D01*
X29103492Y-48094109D01*
X28983738Y-48044383D01*
X28774084Y-48044200D01*
X28580319Y-48124262D01*
X28431942Y-48272380D01*
X28351542Y-48466005D01*
X28351443Y-48579485D01*
X28231074Y-48579380D01*
X28037309Y-48659442D01*
X27888932Y-48807560D01*
X27808532Y-49001185D01*
X27808349Y-49210839D01*
X27875393Y-49373099D01*
X27797278Y-49451078D01*
X27716878Y-49644703D01*
X27716695Y-49854357D01*
X23378066Y-49854357D01*
X23313291Y-49528716D01*
X23068988Y-49163091D01*
X22703363Y-48918788D01*
X22272079Y-48833000D01*
X22227921Y-48833000D01*
X21796637Y-48918788D01*
X21431012Y-49163091D01*
X21186709Y-49528716D01*
X21100921Y-49960000D01*
X20327000Y-49960000D01*
X20327000Y-47420000D01*
X21100921Y-47420000D01*
X21186709Y-47851284D01*
X21431012Y-48216909D01*
X21796637Y-48461212D01*
X22227921Y-48547000D01*
X22272079Y-48547000D01*
X22703363Y-48461212D01*
X23068988Y-48216909D01*
X23077368Y-48204367D01*
X25872908Y-48204367D01*
X25952970Y-48398132D01*
X26101088Y-48546509D01*
X26294713Y-48626909D01*
X26504367Y-48627092D01*
X26698132Y-48547030D01*
X26846509Y-48398912D01*
X26926909Y-48205287D01*
X26927092Y-47995633D01*
X26847030Y-47801868D01*
X26698912Y-47653491D01*
X26505287Y-47573091D01*
X26295633Y-47572908D01*
X26101868Y-47652970D01*
X25953491Y-47801088D01*
X25873091Y-47994713D01*
X25872908Y-48204367D01*
X23077368Y-48204367D01*
X23313291Y-47851284D01*
X23399079Y-47420000D01*
X23313291Y-46988716D01*
X23068988Y-46623091D01*
X22703363Y-46378788D01*
X22272079Y-46293000D01*
X22227921Y-46293000D01*
X21796637Y-46378788D01*
X21431012Y-46623091D01*
X21186709Y-46988716D01*
X21100921Y-47420000D01*
X20327000Y-47420000D01*
X20327000Y-44880000D01*
X21100921Y-44880000D01*
X21186709Y-45311284D01*
X21431012Y-45676909D01*
X21796637Y-45921212D01*
X22227921Y-46007000D01*
X22272079Y-46007000D01*
X22703363Y-45921212D01*
X22868879Y-45810617D01*
X31391658Y-45810617D01*
X31471720Y-46004382D01*
X31619838Y-46152759D01*
X31813463Y-46233159D01*
X31930334Y-46233261D01*
X31891841Y-46325963D01*
X31891658Y-46535617D01*
X31971720Y-46729382D01*
X32119838Y-46877759D01*
X32313463Y-46958159D01*
X32523117Y-46958342D01*
X32716882Y-46878280D01*
X32865259Y-46730162D01*
X32923210Y-46590601D01*
X32977970Y-46723132D01*
X33126088Y-46871509D01*
X33319713Y-46951909D01*
X33529367Y-46952092D01*
X33723132Y-46872030D01*
X33871509Y-46723912D01*
X33951909Y-46530287D01*
X33952092Y-46320633D01*
X33872030Y-46126868D01*
X33723912Y-45978491D01*
X33530287Y-45898091D01*
X33445824Y-45898017D01*
X33445842Y-45876883D01*
X33365780Y-45683118D01*
X33217662Y-45534741D01*
X33024037Y-45454341D01*
X32814383Y-45454158D01*
X32620618Y-45534220D01*
X32472241Y-45682338D01*
X32445716Y-45746217D01*
X32445842Y-45601883D01*
X32365780Y-45408118D01*
X32217662Y-45259741D01*
X32024037Y-45179341D01*
X31814383Y-45179158D01*
X31620618Y-45259220D01*
X31472241Y-45407338D01*
X31391841Y-45600963D01*
X31391658Y-45810617D01*
X22868879Y-45810617D01*
X23068988Y-45676909D01*
X23313291Y-45311284D01*
X23399079Y-44880000D01*
X23313291Y-44448716D01*
X23068988Y-44083091D01*
X22703363Y-43838788D01*
X22272079Y-43753000D01*
X22227921Y-43753000D01*
X21796637Y-43838788D01*
X21431012Y-44083091D01*
X21186709Y-44448716D01*
X21100921Y-44880000D01*
X20327000Y-44880000D01*
X20327000Y-42340000D01*
X21100921Y-42340000D01*
X21186709Y-42771284D01*
X21431012Y-43136909D01*
X21796637Y-43381212D01*
X22227921Y-43467000D01*
X22272079Y-43467000D01*
X22703363Y-43381212D01*
X23068988Y-43136909D01*
X23313291Y-42771284D01*
X23371250Y-42479905D01*
X25119317Y-42479905D01*
X25199379Y-42673670D01*
X25347497Y-42822047D01*
X25541122Y-42902447D01*
X25750776Y-42902630D01*
X25944541Y-42822568D01*
X26092918Y-42674450D01*
X26163542Y-42504367D01*
X31797908Y-42504367D01*
X31877970Y-42698132D01*
X32026088Y-42846509D01*
X32219713Y-42926909D01*
X32429367Y-42927092D01*
X32623132Y-42847030D01*
X32771509Y-42698912D01*
X32851909Y-42505287D01*
X32851983Y-42420821D01*
X34045805Y-41226999D01*
X36530425Y-41226999D01*
X36523070Y-41244713D01*
X36522887Y-41454367D01*
X36602949Y-41648132D01*
X36697979Y-41743328D01*
X36697979Y-43744979D01*
X36697978Y-43744984D01*
X36724773Y-43879689D01*
X36801077Y-43993886D01*
X37123000Y-44315808D01*
X37123000Y-45766610D01*
X37118517Y-45762119D01*
X36924892Y-45681719D01*
X36715238Y-45681536D01*
X36521473Y-45761598D01*
X36373096Y-45909716D01*
X36292696Y-46103341D01*
X36292668Y-46134879D01*
X36217662Y-46059741D01*
X36166358Y-46038438D01*
X36173496Y-46021247D01*
X36173679Y-45811593D01*
X36093617Y-45617828D01*
X35945499Y-45469451D01*
X35751874Y-45389051D01*
X35542220Y-45388868D01*
X35348455Y-45468930D01*
X35200078Y-45617048D01*
X35119678Y-45810673D01*
X35119569Y-45935164D01*
X35030287Y-45898091D01*
X34820633Y-45897908D01*
X34626868Y-45977970D01*
X34478491Y-46126088D01*
X34398091Y-46319713D01*
X34397908Y-46529367D01*
X34477970Y-46723132D01*
X34626088Y-46871509D01*
X34819713Y-46951909D01*
X35029367Y-46952092D01*
X35223132Y-46872030D01*
X35371509Y-46723912D01*
X35405072Y-46643082D01*
X35471720Y-46804382D01*
X35619838Y-46952759D01*
X35813463Y-47033159D01*
X36023117Y-47033342D01*
X36216882Y-46953280D01*
X36365259Y-46805162D01*
X36445659Y-46611537D01*
X36445687Y-46579999D01*
X36520693Y-46655137D01*
X36714318Y-46735537D01*
X36923972Y-46735720D01*
X36995186Y-46706295D01*
X36948091Y-46819713D01*
X36947908Y-47029367D01*
X37027970Y-47223132D01*
X37176088Y-47371509D01*
X37369713Y-47451909D01*
X37579367Y-47452092D01*
X37773132Y-47372030D01*
X37921509Y-47223912D01*
X38001909Y-47030287D01*
X38002092Y-46820633D01*
X37922030Y-46626868D01*
X37827000Y-46531672D01*
X37827000Y-46173792D01*
X37894713Y-46201909D01*
X38104367Y-46202092D01*
X38298132Y-46122030D01*
X38322999Y-46097206D01*
X38322999Y-48322910D01*
X38320633Y-48322908D01*
X38126868Y-48402970D01*
X37978491Y-48551088D01*
X37898091Y-48744713D01*
X37897908Y-48954367D01*
X37977970Y-49148132D01*
X38126088Y-49296509D01*
X38319713Y-49376909D01*
X38529367Y-49377092D01*
X38723132Y-49297030D01*
X38871509Y-49148912D01*
X38951909Y-48955287D01*
X38952039Y-48806792D01*
X39000205Y-48734706D01*
X39027000Y-48600001D01*
X39026999Y-48599996D01*
X39026999Y-48429365D01*
X39347908Y-48429365D01*
X39427970Y-48623130D01*
X39576088Y-48771507D01*
X39769713Y-48851907D01*
X39979367Y-48852090D01*
X40173132Y-48772028D01*
X40321509Y-48623910D01*
X40401909Y-48430285D01*
X40402092Y-48220631D01*
X40322030Y-48026866D01*
X40173912Y-47878489D01*
X39980287Y-47798089D01*
X39770633Y-47797906D01*
X39576868Y-47877968D01*
X39428491Y-48026086D01*
X39348091Y-48219711D01*
X39347908Y-48429365D01*
X39026999Y-48429365D01*
X39026999Y-47420000D01*
X43850921Y-47420000D01*
X43936709Y-47851284D01*
X44181012Y-48216909D01*
X44546637Y-48461212D01*
X44977921Y-48547000D01*
X45022079Y-48547000D01*
X45453363Y-48461212D01*
X45818988Y-48216909D01*
X46063291Y-47851284D01*
X46149079Y-47420000D01*
X46063291Y-46988716D01*
X45818988Y-46623091D01*
X45453363Y-46378788D01*
X45022079Y-46293000D01*
X44977921Y-46293000D01*
X44546637Y-46378788D01*
X44181012Y-46623091D01*
X43936709Y-46988716D01*
X43850921Y-47420000D01*
X39026999Y-47420000D01*
X39026999Y-38725014D01*
X39027000Y-38725009D01*
X39000205Y-38590305D01*
X39000205Y-38590304D01*
X38923901Y-38476107D01*
X38923898Y-38476105D01*
X37876965Y-37429171D01*
X37877082Y-37295633D01*
X37797020Y-37101868D01*
X37648902Y-36953491D01*
X37455277Y-36873091D01*
X37245623Y-36872908D01*
X37051858Y-36952970D01*
X36903481Y-37101088D01*
X36823081Y-37294713D01*
X36822898Y-37504367D01*
X36902960Y-37698132D01*
X37051078Y-37846509D01*
X37244703Y-37926909D01*
X37379212Y-37927026D01*
X38322999Y-38870812D01*
X38322999Y-45252620D01*
X38298912Y-45228491D01*
X38127010Y-45157111D01*
X38127007Y-41372026D01*
X38100213Y-41237321D01*
X38023909Y-41123124D01*
X38023906Y-41123122D01*
X37526882Y-40626097D01*
X37412685Y-40549793D01*
X37277980Y-40522998D01*
X37277975Y-40522999D01*
X33900006Y-40522999D01*
X33900001Y-40522998D01*
X33765296Y-40549793D01*
X33651099Y-40626097D01*
X32404128Y-41873068D01*
X32220633Y-41872908D01*
X32026868Y-41952970D01*
X31878491Y-42101088D01*
X31798091Y-42294713D01*
X31797908Y-42504367D01*
X26163542Y-42504367D01*
X26173318Y-42480825D01*
X26173435Y-42346316D01*
X27492751Y-41027000D01*
X32081744Y-41027000D01*
X32176088Y-41121509D01*
X32369713Y-41201909D01*
X32579367Y-41202092D01*
X32773132Y-41122030D01*
X32921509Y-40973912D01*
X33001909Y-40780287D01*
X33002092Y-40570633D01*
X32922030Y-40376868D01*
X32773912Y-40228491D01*
X32580287Y-40148091D01*
X32370633Y-40147908D01*
X32176868Y-40227970D01*
X32081672Y-40323000D01*
X27346952Y-40323000D01*
X27346947Y-40322999D01*
X27234591Y-40345348D01*
X27212242Y-40349794D01*
X27098045Y-40426098D01*
X25675580Y-41848563D01*
X25542042Y-41848446D01*
X25348277Y-41928508D01*
X25199900Y-42076626D01*
X25119500Y-42270251D01*
X25119317Y-42479905D01*
X23371250Y-42479905D01*
X23399079Y-42340000D01*
X23313291Y-41908716D01*
X23068988Y-41543091D01*
X22703363Y-41298788D01*
X22272079Y-41213000D01*
X22227921Y-41213000D01*
X21796637Y-41298788D01*
X21431012Y-41543091D01*
X21186709Y-41908716D01*
X21100921Y-42340000D01*
X20327000Y-42340000D01*
X20327000Y-39800000D01*
X21100921Y-39800000D01*
X21186709Y-40231284D01*
X21431012Y-40596909D01*
X21796637Y-40841212D01*
X22227921Y-40927000D01*
X22272079Y-40927000D01*
X22703363Y-40841212D01*
X23068988Y-40596909D01*
X23313291Y-40231284D01*
X23388264Y-39854367D01*
X23572908Y-39854367D01*
X23652970Y-40048132D01*
X23801088Y-40196509D01*
X23994713Y-40276909D01*
X24204367Y-40277092D01*
X24398132Y-40197030D01*
X24546509Y-40048912D01*
X24626909Y-39855287D01*
X24627092Y-39645633D01*
X24547030Y-39451868D01*
X24398912Y-39303491D01*
X24205287Y-39223091D01*
X23995633Y-39222908D01*
X23801868Y-39302970D01*
X23653491Y-39451088D01*
X23573091Y-39644713D01*
X23572908Y-39854367D01*
X23388264Y-39854367D01*
X23399079Y-39800000D01*
X23313291Y-39368716D01*
X23068988Y-39003091D01*
X22846407Y-38854367D01*
X36247908Y-38854367D01*
X36327970Y-39048132D01*
X36476088Y-39196509D01*
X36669713Y-39276909D01*
X36879367Y-39277092D01*
X37073132Y-39197030D01*
X37221509Y-39048912D01*
X37301909Y-38855287D01*
X37302092Y-38645633D01*
X37222030Y-38451868D01*
X37073912Y-38303491D01*
X36880287Y-38223091D01*
X36670633Y-38222908D01*
X36476868Y-38302970D01*
X36328491Y-38451088D01*
X36248091Y-38644713D01*
X36247908Y-38854367D01*
X22846407Y-38854367D01*
X22703363Y-38758788D01*
X22272079Y-38673000D01*
X22227921Y-38673000D01*
X21796637Y-38758788D01*
X21431012Y-39003091D01*
X21186709Y-39368716D01*
X21100921Y-39800000D01*
X20327000Y-39800000D01*
X20327000Y-37260000D01*
X21100921Y-37260000D01*
X21186709Y-37691284D01*
X21431012Y-38056909D01*
X21796637Y-38301212D01*
X22227921Y-38387000D01*
X22272079Y-38387000D01*
X22703363Y-38301212D01*
X23068988Y-38056909D01*
X23313291Y-37691284D01*
X23378319Y-37364367D01*
X23587908Y-37364367D01*
X23667970Y-37558132D01*
X23816088Y-37706509D01*
X24009713Y-37786909D01*
X24219367Y-37787092D01*
X24413132Y-37707030D01*
X24561509Y-37558912D01*
X24641909Y-37365287D01*
X24641962Y-37304367D01*
X30742908Y-37304367D01*
X30822970Y-37498132D01*
X30971088Y-37646509D01*
X31164713Y-37726909D01*
X31374367Y-37727092D01*
X31568132Y-37647030D01*
X31716509Y-37498912D01*
X31796909Y-37305287D01*
X31797092Y-37095633D01*
X31717030Y-36901868D01*
X31568912Y-36753491D01*
X31375287Y-36673091D01*
X31165633Y-36672908D01*
X30971868Y-36752970D01*
X30823491Y-36901088D01*
X30743091Y-37094713D01*
X30742908Y-37304367D01*
X24641962Y-37304367D01*
X24642092Y-37155633D01*
X24562030Y-36961868D01*
X24413912Y-36813491D01*
X24220287Y-36733091D01*
X24010633Y-36732908D01*
X23816868Y-36812970D01*
X23668491Y-36961088D01*
X23588091Y-37154713D01*
X23587908Y-37364367D01*
X23378319Y-37364367D01*
X23399079Y-37260000D01*
X23313291Y-36828716D01*
X23068988Y-36463091D01*
X23018517Y-36429367D01*
X37297908Y-36429367D01*
X37377970Y-36623132D01*
X37526088Y-36771509D01*
X37719713Y-36851909D01*
X37854222Y-36852026D01*
X39348000Y-38345803D01*
X39348000Y-45506744D01*
X39253491Y-45601088D01*
X39173091Y-45794713D01*
X39172908Y-46004367D01*
X39252970Y-46198132D01*
X39401088Y-46346509D01*
X39594713Y-46426909D01*
X39804367Y-46427092D01*
X39998132Y-46347030D01*
X40146509Y-46198912D01*
X40226909Y-46005287D01*
X40227092Y-45795633D01*
X40147030Y-45601868D01*
X40052000Y-45506672D01*
X40052000Y-44880000D01*
X43850921Y-44880000D01*
X43936709Y-45311284D01*
X44181012Y-45676909D01*
X44546637Y-45921212D01*
X44977921Y-46007000D01*
X45022079Y-46007000D01*
X45453363Y-45921212D01*
X45818988Y-45676909D01*
X46063291Y-45311284D01*
X46149079Y-44880000D01*
X46063291Y-44448716D01*
X45818988Y-44083091D01*
X45453363Y-43838788D01*
X45022079Y-43753000D01*
X44977921Y-43753000D01*
X44546637Y-43838788D01*
X44181012Y-44083091D01*
X43936709Y-44448716D01*
X43850921Y-44880000D01*
X40052000Y-44880000D01*
X40052000Y-42340000D01*
X43850921Y-42340000D01*
X43936709Y-42771284D01*
X44181012Y-43136909D01*
X44546637Y-43381212D01*
X44977921Y-43467000D01*
X45022079Y-43467000D01*
X45453363Y-43381212D01*
X45818988Y-43136909D01*
X46063291Y-42771284D01*
X46149079Y-42340000D01*
X46063291Y-41908716D01*
X45818988Y-41543091D01*
X45453363Y-41298788D01*
X45022079Y-41213000D01*
X44977921Y-41213000D01*
X44546637Y-41298788D01*
X44181012Y-41543091D01*
X43936709Y-41908716D01*
X43850921Y-42340000D01*
X40052000Y-42340000D01*
X40052000Y-39800000D01*
X43850921Y-39800000D01*
X43936709Y-40231284D01*
X44181012Y-40596909D01*
X44546637Y-40841212D01*
X44977921Y-40927000D01*
X45022079Y-40927000D01*
X45453363Y-40841212D01*
X45818988Y-40596909D01*
X46063291Y-40231284D01*
X46149079Y-39800000D01*
X46063291Y-39368716D01*
X45818988Y-39003091D01*
X45453363Y-38758788D01*
X45022079Y-38673000D01*
X44977921Y-38673000D01*
X44546637Y-38758788D01*
X44181012Y-39003091D01*
X43936709Y-39368716D01*
X43850921Y-39800000D01*
X40052000Y-39800000D01*
X40052000Y-38854367D01*
X40147908Y-38854367D01*
X40227970Y-39048132D01*
X40376088Y-39196509D01*
X40569713Y-39276909D01*
X40779367Y-39277092D01*
X40973132Y-39197030D01*
X41121509Y-39048912D01*
X41201909Y-38855287D01*
X41202092Y-38645633D01*
X41122030Y-38451868D01*
X40973912Y-38303491D01*
X40780287Y-38223091D01*
X40570633Y-38222908D01*
X40376868Y-38302970D01*
X40228491Y-38451088D01*
X40148091Y-38644713D01*
X40147908Y-38854367D01*
X40052000Y-38854367D01*
X40052000Y-38200000D01*
X40025206Y-38065295D01*
X39948902Y-37951098D01*
X39948899Y-37951096D01*
X39257804Y-37260000D01*
X43850921Y-37260000D01*
X43936709Y-37691284D01*
X44181012Y-38056909D01*
X44546637Y-38301212D01*
X44977921Y-38387000D01*
X45022079Y-38387000D01*
X45453363Y-38301212D01*
X45818988Y-38056909D01*
X46063291Y-37691284D01*
X46149079Y-37260000D01*
X46063291Y-36828716D01*
X45818988Y-36463091D01*
X45453363Y-36218788D01*
X45022079Y-36133000D01*
X44977921Y-36133000D01*
X44546637Y-36218788D01*
X44181012Y-36463091D01*
X43936709Y-36828716D01*
X43850921Y-37260000D01*
X39257804Y-37260000D01*
X38351975Y-36354171D01*
X38352092Y-36220633D01*
X38272030Y-36026868D01*
X38123912Y-35878491D01*
X37930287Y-35798091D01*
X37720633Y-35797908D01*
X37526868Y-35877970D01*
X37378491Y-36026088D01*
X37298091Y-36219713D01*
X37297908Y-36429367D01*
X23018517Y-36429367D01*
X22703363Y-36218788D01*
X22272079Y-36133000D01*
X22227921Y-36133000D01*
X21796637Y-36218788D01*
X21431012Y-36463091D01*
X21186709Y-36828716D01*
X21100921Y-37260000D01*
X20327000Y-37260000D01*
X20327000Y-34720000D01*
X21100921Y-34720000D01*
X21186709Y-35151284D01*
X21431012Y-35516909D01*
X21796637Y-35761212D01*
X22227921Y-35847000D01*
X22272079Y-35847000D01*
X22703363Y-35761212D01*
X23068988Y-35516909D01*
X23313291Y-35151284D01*
X23378319Y-34824367D01*
X23672908Y-34824367D01*
X23752970Y-35018132D01*
X23901088Y-35166509D01*
X24094713Y-35246909D01*
X24304367Y-35247092D01*
X24498132Y-35167030D01*
X24646509Y-35018912D01*
X24677951Y-34943191D01*
X43872805Y-34943191D01*
X44044019Y-35357560D01*
X44360772Y-35674867D01*
X44774842Y-35846804D01*
X45223191Y-35847195D01*
X45637560Y-35675981D01*
X45954867Y-35359228D01*
X46126804Y-34945158D01*
X46127195Y-34496809D01*
X45955981Y-34082440D01*
X45639228Y-33765133D01*
X45225158Y-33593196D01*
X44776809Y-33592805D01*
X44362440Y-33764019D01*
X44045133Y-34080772D01*
X43873196Y-34494842D01*
X43872805Y-34943191D01*
X24677951Y-34943191D01*
X24726909Y-34825287D01*
X24727092Y-34615633D01*
X24647030Y-34421868D01*
X24498912Y-34273491D01*
X24305287Y-34193091D01*
X24095633Y-34192908D01*
X23901868Y-34272970D01*
X23753491Y-34421088D01*
X23673091Y-34614713D01*
X23672908Y-34824367D01*
X23378319Y-34824367D01*
X23399079Y-34720000D01*
X23313291Y-34288716D01*
X23068988Y-33923091D01*
X22703363Y-33678788D01*
X22272079Y-33593000D01*
X22227921Y-33593000D01*
X21796637Y-33678788D01*
X21431012Y-33923091D01*
X21186709Y-34288716D01*
X21100921Y-34720000D01*
X20327000Y-34720000D01*
X20327000Y-30627000D01*
X20527414Y-30627000D01*
X20454896Y-30801644D01*
M02*
